<?xml version="1.0" encoding="UTF-8"?>
<svg stroke-dasharray="none" shape-rendering="auto"
    font-family="'Dialog'" width="1082" text-rendering="auto"
    fill-opacity="1" color-interpolation="auto" color-rendering="auto"
    font-size="12" fill="black" stroke="black" image-rendering="auto"
    stroke-miterlimit="10" stroke-linecap="square"
    stroke-linejoin="miter" font-style="normal" height="695"
    stroke-width="1" stroke-dashoffset="0" font-weight="normal" stroke-opacity="1">
    <!--Generated by the Batik Graphics2D SVG Generator-->
    <defs id="genericDefs"/>
    <g>
        <defs id="defs1">
            <clipPath clipPathUnits="userSpaceOnUse" id="clipPath1">
                <path d="M-1 -1 L1077 -1 L1077 695 L-1 695 L-1 -1 Z"/>
            </clipPath>
            <clipPath clipPathUnits="userSpaceOnUse" id="clipPath2">
                <path d="M5 5 L28 5 L28 28 L5 28 L5 5 Z"/>
            </clipPath>
            <clipPath clipPathUnits="userSpaceOnUse" id="clipPath3">
                <path d="M28 8 L74 8 L74 25 L28 25 L28 8 Z"/>
            </clipPath>
            <clipPath clipPathUnits="userSpaceOnUse" id="clipPath4">
                <path d="M34 74 L149 74 L149 685 L34 685 L34 74 Z"/>
            </clipPath>
            <clipPath clipPathUnits="userSpaceOnUse" id="clipPath5">
                <path d="M34 74 L149 74 L149 104 L34 104 L34 74 Z"/>
            </clipPath>
            <clipPath clipPathUnits="userSpaceOnUse" id="clipPath6">
                <path d="M45 80 L124 80 L124 97 L45 97 L45 80 Z"/>
            </clipPath>
            <clipPath clipPathUnits="userSpaceOnUse" id="clipPath7">
                <path d="M124 80 L138 80 L138 97 L124 97 L124 80 Z"/>
            </clipPath>
            <clipPath clipPathUnits="userSpaceOnUse" id="clipPath8">
                <path d="M45 80 L138 80 L138 98 L45 98 L45 80 Z"/>
            </clipPath>
            <clipPath clipPathUnits="userSpaceOnUse" id="clipPath9">
                <path d="M80 125 L102 125 L102 659 L80 659 L80 125 Z"/>
            </clipPath>
            <clipPath clipPathUnits="userSpaceOnUse" id="clipPath10">
                <path d="M93 288 L115 288 L115 648 L93 648 L93 288 Z"/>
            </clipPath>
            <clipPath clipPathUnits="userSpaceOnUse" id="clipPath11">
                <path d="M562 74 L715 74 L715 635 L562 635 L562 74 Z"/>
            </clipPath>
            <clipPath clipPathUnits="userSpaceOnUse" id="clipPath12">
                <path d="M562 74 L715 74 L715 104 L562 104 L562 74 Z"/>
            </clipPath>
            <clipPath clipPathUnits="userSpaceOnUse" id="clipPath13">
                <path d="M592 80 L670 80 L670 97 L592 97 L592 80 Z"/>
            </clipPath>
            <clipPath clipPathUnits="userSpaceOnUse" id="clipPath14">
                <path d="M670 80 L684 80 L684 97 L670 97 L670 80 Z"/>
            </clipPath>
            <clipPath clipPathUnits="userSpaceOnUse" id="clipPath15">
                <path d="M592 80 L684 80 L684 98 L592 98 L592 80 Z"/>
            </clipPath>
            <clipPath clipPathUnits="userSpaceOnUse" id="clipPath16">
                <path d="M627 384 L649 384 L649 419 L627 419 L627 384 Z"/>
            </clipPath>
            <clipPath clipPathUnits="userSpaceOnUse" id="clipPath17">
                <path d="M627 581 L649 581 L649 619 L627 619 L627 581 Z"/>
            </clipPath>
            <clipPath clipPathUnits="userSpaceOnUse" id="clipPath18">
                <path d="M386 74 L536 74 L536 643 L386 643 L386 74 Z"/>
            </clipPath>
            <clipPath clipPathUnits="userSpaceOnUse" id="clipPath19">
                <path d="M386 74 L536 74 L536 104 L386 104 L386 74 Z"/>
            </clipPath>
            <clipPath clipPathUnits="userSpaceOnUse" id="clipPath20">
                <path d="M414 80 L494 80 L494 97 L414 97 L414 80 Z"/>
            </clipPath>
            <clipPath clipPathUnits="userSpaceOnUse" id="clipPath21">
                <path d="M494 80 L508 80 L508 97 L494 97 L494 80 Z"/>
            </clipPath>
            <clipPath clipPathUnits="userSpaceOnUse" id="clipPath22">
                <path d="M414 80 L508 80 L508 98 L414 98 L414 80 Z"/>
            </clipPath>
            <clipPath clipPathUnits="userSpaceOnUse" id="clipPath23">
                <path d="M450 333 L472 333 L472 368 L450 368 L450 333 Z"/>
            </clipPath>
            <clipPath clipPathUnits="userSpaceOnUse" id="clipPath24">
                <path d="M450 519 L472 519 L472 563 L450 563 L450 519 Z"/>
            </clipPath>
            <clipPath clipPathUnits="userSpaceOnUse" id="clipPath25">
                <path d="M194 74 L366 74 L366 259 L194 259 L194 74 Z"/>
            </clipPath>
            <clipPath clipPathUnits="userSpaceOnUse" id="clipPath26">
                <path d="M194 74 L366 74 L366 104 L194 104 L194 74 Z"/>
            </clipPath>
            <clipPath clipPathUnits="userSpaceOnUse" id="clipPath27">
                <path d="M205 80 L341 80 L341 97 L205 97 L205 80 Z"/>
            </clipPath>
            <clipPath clipPathUnits="userSpaceOnUse" id="clipPath28">
                <path d="M341 80 L355 80 L355 97 L341 97 L341 80 Z"/>
            </clipPath>
            <clipPath clipPathUnits="userSpaceOnUse" id="clipPath29">
                <path d="M205 80 L355 80 L355 98 L205 98 L205 80 Z"/>
            </clipPath>
            <clipPath clipPathUnits="userSpaceOnUse" id="clipPath30">
                <path d="M269 122 L291 122 L291 153 L269 153 L269 122 Z"/>
            </clipPath>
            <clipPath clipPathUnits="userSpaceOnUse" id="clipPath31">
                <path d="M269 166 L291 166 L291 194 L269 194 L269 166 Z"/>
            </clipPath>
            <clipPath clipPathUnits="userSpaceOnUse" id="clipPath32">
                <path d="M269 205 L291 205 L291 244 L269 244 L269 205 Z"/>
            </clipPath>
            <clipPath clipPathUnits="userSpaceOnUse" id="clipPath33">
                <path d="M895 74 L1067 74 L1067 511 L895 511 L895 74 Z"/>
            </clipPath>
            <clipPath clipPathUnits="userSpaceOnUse" id="clipPath34">
                <path d="M895 74 L1067 74 L1067 104 L895 104 L895 74 Z"/>
            </clipPath>
            <clipPath clipPathUnits="userSpaceOnUse" id="clipPath35">
                <path d="M912 80 L1036 80 L1036 97 L912 97 L912 80 Z"/>
            </clipPath>
            <clipPath clipPathUnits="userSpaceOnUse" id="clipPath36">
                <path d="M1036 80 L1050 80 L1050 97 L1036 97 L1036 80 Z"/>
            </clipPath>
            <clipPath clipPathUnits="userSpaceOnUse" id="clipPath37">
                <path d="M912 80 L1050 80 L1050 98 L912 98 L912 80 Z"/>
            </clipPath>
            <clipPath clipPathUnits="userSpaceOnUse" id="clipPath38">
                <path d="M970 427 L992 427 L992 450 L970 450 L970 427 Z"/>
            </clipPath>
            <clipPath clipPathUnits="userSpaceOnUse" id="clipPath39">
                <path d="M970 473 L992 473 L992 496 L970 496 L970 473 Z"/>
            </clipPath>
            <clipPath clipPathUnits="userSpaceOnUse" id="clipPath40">
                <path d="M727 74 L892 74 L892 651 L727 651 L727 74 Z"/>
            </clipPath>
            <clipPath clipPathUnits="userSpaceOnUse" id="clipPath41">
                <path d="M727 74 L892 74 L892 104 L727 104 L727 74 Z"/>
            </clipPath>
            <clipPath clipPathUnits="userSpaceOnUse" id="clipPath42">
                <path d="M736 80 L868 80 L868 97 L736 97 L736 80 Z"/>
            </clipPath>
            <clipPath clipPathUnits="userSpaceOnUse" id="clipPath43">
                <path d="M868 80 L882 80 L882 97 L868 97 L868 80 Z"/>
            </clipPath>
            <clipPath clipPathUnits="userSpaceOnUse" id="clipPath44">
                <path d="M736 80 L882 80 L882 98 L736 98 L736 80 Z"/>
            </clipPath>
            <clipPath clipPathUnits="userSpaceOnUse" id="clipPath45">
                <path d="M87 102 L285 102 L285 153 L87 153 L87 102 Z"/>
            </clipPath>
            <clipPath clipPathUnits="userSpaceOnUse" id="clipPath46">
                <path d="M107 115 L263 115 L263 132 L107 132 L107 115 Z"/>
            </clipPath>
            <clipPath clipPathUnits="userSpaceOnUse" id="clipPath47">
                <path d="M259 127 L272 127 L272 140 L259 140 L259 127 Z"/>
            </clipPath>
            <clipPath clipPathUnits="userSpaceOnUse" id="clipPath48">
                <path d="M87 146 L285 146 L285 198 L87 198 L87 146 Z"/>
            </clipPath>
            <clipPath clipPathUnits="userSpaceOnUse" id="clipPath49">
                <path d="M193 159 L261 159 L261 176 L193 176 L193 159 Z"/>
            </clipPath>
            <clipPath clipPathUnits="userSpaceOnUse" id="clipPath50">
                <path d="M259 172 L272 172 L272 185 L259 185 L259 172 Z"/>
            </clipPath>
            <clipPath clipPathUnits="userSpaceOnUse" id="clipPath51">
                <path d="M87 183 L285 183 L285 234 L87 234 L87 183 Z"/>
            </clipPath>
            <clipPath clipPathUnits="userSpaceOnUse" id="clipPath52">
                <path d="M106 196 L265 196 L265 213 L106 213 L106 196 Z"/>
            </clipPath>
            <clipPath clipPathUnits="userSpaceOnUse" id="clipPath53">
                <path d="M259 208 L272 208 L272 221 L259 221 L259 208 Z"/>
            </clipPath>
            <clipPath clipPathUnits="userSpaceOnUse" id="clipPath54">
                <path d="M100 489 L466 489 L466 544 L100 544 L100 489 Z"/>
            </clipPath>
            <clipPath clipPathUnits="userSpaceOnUse" id="clipPath55">
                <path d="M341 502 L442 502 L442 519 L341 519 L341 502 Z"/>
            </clipPath>
            <clipPath clipPathUnits="userSpaceOnUse" id="clipPath56">
                <path d="M440 518 L453 518 L453 531 L440 531 L440 518 Z"/>
            </clipPath>
            <clipPath clipPathUnits="userSpaceOnUse" id="clipPath57">
                <path d="M100 315 L466 315 L466 365 L100 365 L100 315 Z"/>
            </clipPath>
            <clipPath clipPathUnits="userSpaceOnUse" id="clipPath58">
                <path d="M355 328 L431 328 L431 345 L355 345 L355 328 Z"/>
            </clipPath>
            <clipPath clipPathUnits="userSpaceOnUse" id="clipPath59">
                <path d="M440 339 L453 339 L453 352 L440 352 L440 339 Z"/>
            </clipPath>
            <clipPath clipPathUnits="userSpaceOnUse" id="clipPath60">
                <path d="M100 356 L643 356 L643 410 L100 410 L100 356 Z"/>
            </clipPath>
            <clipPath clipPathUnits="userSpaceOnUse" id="clipPath61">
                <path d="M540 369 L616 369 L616 386 L540 386 L540 369 Z"/>
            </clipPath>
            <clipPath clipPathUnits="userSpaceOnUse" id="clipPath62">
                <path d="M617 384 L630 384 L630 397 L617 397 L617 384 Z"/>
            </clipPath>
            <clipPath clipPathUnits="userSpaceOnUse" id="clipPath63">
                <path d="M100 555 L643 555 L643 609 L100 609 L100 555 Z"/>
            </clipPath>
            <clipPath clipPathUnits="userSpaceOnUse" id="clipPath64">
                <path d="M516 568 L617 568 L617 585 L516 585 L516 568 Z"/>
            </clipPath>
            <clipPath clipPathUnits="userSpaceOnUse" id="clipPath65">
                <path d="M617 583 L630 583 L630 596 L617 596 L617 583 Z"/>
            </clipPath>
            <clipPath clipPathUnits="userSpaceOnUse" id="clipPath66">
                <path d="M100 519 L466 519 L466 573 L100 573 L100 519 Z"/>
            </clipPath>
            <clipPath clipPathUnits="userSpaceOnUse" id="clipPath67">
                <path d="M129 532 L287 532 L287 549 L129 549 L129 532 Z"/>
            </clipPath>
            <clipPath clipPathUnits="userSpaceOnUse" id="clipPath68">
                <path d="M113 547 L126 547 L126 560 L113 560 L113 547 Z"/>
            </clipPath>
            <clipPath clipPathUnits="userSpaceOnUse" id="clipPath69">
                <path d="M87 209 L285 209 L285 260 L87 260 L87 209 Z"/>
            </clipPath>
            <clipPath clipPathUnits="userSpaceOnUse" id="clipPath70">
                <path d="M130 222 L243 222 L243 239 L130 239 L130 222 Z"/>
            </clipPath>
            <clipPath clipPathUnits="userSpaceOnUse" id="clipPath71">
                <path d="M100 234 L113 234 L113 247 L100 247 L100 234 Z"/>
            </clipPath>
            <clipPath clipPathUnits="userSpaceOnUse" id="clipPath72">
                <path d="M100 577 L643 577 L643 629 L100 629 L100 577 Z"/>
            </clipPath>
            <clipPath clipPathUnits="userSpaceOnUse" id="clipPath73">
                <path d="M124 590 L282 590 L282 607 L124 607 L124 590 Z"/>
            </clipPath>
            <clipPath clipPathUnits="userSpaceOnUse" id="clipPath74">
                <path d="M113 603 L126 603 L126 616 L113 616 L113 603 Z"/>
            </clipPath>
            <clipPath clipPathUnits="userSpaceOnUse" id="clipPath75">
                <path d="M100 402 L986 402 L986 457 L100 457 L100 402 Z"/>
            </clipPath>
            <clipPath clipPathUnits="userSpaceOnUse" id="clipPath76">
                <path d="M876 415 L955 415 L955 432 L876 432 L876 415 Z"/>
            </clipPath>
            <clipPath clipPathUnits="userSpaceOnUse" id="clipPath77">
                <path d="M960 431 L973 431 L973 444 L960 444 L960 431 Z"/>
            </clipPath>
            <clipPath clipPathUnits="userSpaceOnUse" id="clipPath78">
                <path d="M100 448 L986 448 L986 501 L100 501 L100 448 Z"/>
            </clipPath>
            <clipPath clipPathUnits="userSpaceOnUse" id="clipPath79">
                <path d="M882 461 L950 461 L950 478 L882 478 L882 461 Z"/>
            </clipPath>
            <clipPath clipPathUnits="userSpaceOnUse" id="clipPath80">
                <path d="M960 475 L973 475 L973 488 L960 488 L960 475 Z"/>
            </clipPath>
            <clipPath clipPathUnits="userSpaceOnUse" id="clipPath81">
                <path d="M457 497 L824 497 L824 549 L457 549 L457 497 Z"/>
            </clipPath>
            <clipPath clipPathUnits="userSpaceOnUse" id="clipPath82">
                <path d="M736 510 L779 510 L779 527 L736 527 L736 510 Z"/>
            </clipPath>
            <clipPath clipPathUnits="userSpaceOnUse" id="clipPath83">
                <path d="M798 523 L811 523 L811 536 L798 536 L798 523 Z"/>
            </clipPath>
            <clipPath clipPathUnits="userSpaceOnUse" id="clipPath84">
                <path d="M100 280 L996 280 L996 333 L100 333 L100 280 Z"/>
            </clipPath>
            <clipPath clipPathUnits="userSpaceOnUse" id="clipPath85">
                <path d="M929 293 L972 293 L972 310 L929 310 L929 293 Z"/>
            </clipPath>
            <clipPath clipPathUnits="userSpaceOnUse" id="clipPath86">
                <path d="M970 307 L983 307 L983 320 L970 320 L970 307 Z"/>
            </clipPath>
            <clipPath clipPathUnits="userSpaceOnUse" id="clipPath87">
                <path d="M-1 278 L129 278 L129 656 L-1 656 L-1 278 Z"/>
            </clipPath>
            <clipPath clipPathUnits="userSpaceOnUse" id="clipPath88">
                <path d="M6 454 L50 454 L50 471 L6 471 L6 454 Z"/>
            </clipPath>
            <clipPath clipPathUnits="userSpaceOnUse" id="clipPath89">
                <path d="M103 291 L116 291 L116 304 L103 304 L103 291 Z"/>
            </clipPath>
        </defs>
        <g font-size="15" fill="white" font-family="'Cantarell'"
            stroke-linejoin="round" stroke="white" stroke-width="0" stroke-miterlimit="0">
            <rect x="0" y="0" clip-path="url(#clipPath1)" width="1076"
                height="694" stroke="none"/>
        </g>
        <g stroke-width="0.1" font-size="15" font-family="'Cantarell'" stroke-linecap="butt">
            <line clip-path="url(#clipPath1)" fill="none" x1="1" x2="78"
                y1="35" y2="35"/>
            <line clip-path="url(#clipPath1)" fill="none" x1="78"
                x2="85" y1="35" y2="21"/>
            <line clip-path="url(#clipPath1)" fill="none" x1="85"
                x2="85" y1="21" y2="1"/>
            <text x="6" y="22" clip-path="url(#clipPath2)" stroke="none"
                font-weight="bold" xml:space="preserve">sd </text>
            <text font-size="13" x="29" y="22"
                clip-path="url(#clipPath3)" font-family="'Dialog'"
                stroke="none" xml:space="preserve">control</text>
            <line clip-path="url(#clipPath4)" fill="none" x1="91"
                x2="91" y1="103" y2="684" stroke-dasharray="10,2" stroke="rgb(106,88,75)"/>
            <rect x="35" y="75" clip-path="url(#clipPath5)"
                fill="rgb(237,247,200)" width="113"
                stroke-dasharray="10,2" height="28" stroke="none"/>
        </g>
        <g font-size="13" stroke-linecap="butt" fill="rgb(106,88,75)"
            stroke-dasharray="10,2" stroke="rgb(106,88,75)" stroke-width="0.1">
            <text xml:space="preserve" x="46" y="94"
                clip-path="url(#clipPath6)" stroke="none">ControlLoop</text>
            <text xml:space="preserve" x="125" y="94"
                clip-path="url(#clipPath7)" stroke="none"> : </text>
            <line clip-path="url(#clipPath8)" fill="none" x1="46"
                x2="137" y1="96" y2="96" stroke-dasharray="none" stroke-width="1.1"/>
        </g>
        <g font-size="15" stroke-linecap="butt" fill="rgb(106,88,75)"
            font-family="'Cantarell'" stroke="rgb(106,88,75)" stroke-width="1.1">
            <rect x="35" y="75" clip-path="url(#clipPath5)" fill="none"
                width="112" height="27"/>
            <rect x="81" y="126" clip-path="url(#clipPath9)"
                fill="rgb(237,247,200)" width="20" height="532" stroke="none"/>
            <rect x="81" y="126" clip-path="url(#clipPath9)" fill="none"
                width="19" height="531"/>
            <rect x="94" y="289" clip-path="url(#clipPath10)"
                fill="rgb(237,247,200)" width="20" height="358" stroke="none"/>
            <rect x="94" y="289" clip-path="url(#clipPath10)"
                fill="none" width="19" height="357"/>
            <line clip-path="url(#clipPath11)" fill="none" x1="638"
                x2="638" y1="103" y2="634" stroke-dasharray="10,2" stroke-width="0.1"/>
        </g>
        <g font-size="15" stroke-linecap="butt" fill="rgb(237,247,200)"
            font-family="'Cantarell'" stroke-dasharray="10,2"
            stroke="rgb(237,247,200)" stroke-width="0.1">
            <rect x="563" y="75" clip-path="url(#clipPath12)"
                width="151" height="28" stroke="none"/>
        </g>
        <g font-size="13" stroke-linecap="butt" fill="rgb(106,88,75)"
            stroke-dasharray="10,2" stroke="rgb(106,88,75)" stroke-width="0.1">
            <text xml:space="preserve" x="593" y="94"
                clip-path="url(#clipPath13)" stroke="none">controlLaw2</text>
            <text xml:space="preserve" x="671" y="94"
                clip-path="url(#clipPath14)" stroke="none"> : </text>
            <line clip-path="url(#clipPath15)" fill="none" x1="593"
                x2="683" y1="96" y2="96" stroke-dasharray="none" stroke-width="1.1"/>
        </g>
        <g font-size="15" stroke-linecap="butt" fill="rgb(106,88,75)"
            font-family="'Cantarell'" stroke="rgb(106,88,75)" stroke-width="1.1">
            <rect x="563" y="75" clip-path="url(#clipPath12)"
                fill="none" width="150" height="27"/>
            <rect x="628" y="385" clip-path="url(#clipPath16)"
                fill="rgb(237,247,200)" width="20" height="33" stroke="none"/>
            <rect x="628" y="385" clip-path="url(#clipPath16)"
                fill="none" width="19" height="32"/>
            <rect x="628" y="582" clip-path="url(#clipPath17)"
                fill="rgb(237,247,200)" width="20" height="36" stroke="none"/>
            <rect x="628" y="582" clip-path="url(#clipPath17)"
                fill="none" width="19" height="35"/>
            <line clip-path="url(#clipPath18)" fill="none" x1="461"
                x2="461" y1="103" y2="642" stroke-dasharray="10,2" stroke-width="0.1"/>
        </g>
        <g font-size="15" stroke-linecap="butt" fill="rgb(237,247,200)"
            font-family="'Cantarell'" stroke-dasharray="10,2"
            stroke="rgb(237,247,200)" stroke-width="0.1">
            <rect x="387" y="75" clip-path="url(#clipPath19)"
                width="148" height="28" stroke="none"/>
        </g>
        <g font-size="13" stroke-linecap="butt" fill="rgb(106,88,75)"
            stroke-dasharray="10,2" stroke="rgb(106,88,75)" stroke-width="0.1">
            <text xml:space="preserve" x="415" y="94"
                clip-path="url(#clipPath20)" stroke="none">ControlLaw1</text>
            <text xml:space="preserve" x="495" y="94"
                clip-path="url(#clipPath21)" stroke="none"> : </text>
            <line clip-path="url(#clipPath22)" fill="none" x1="415"
                x2="507" y1="96" y2="96" stroke-dasharray="none" stroke-width="1.1"/>
        </g>
        <g font-size="15" stroke-linecap="butt" fill="rgb(106,88,75)"
            font-family="'Cantarell'" stroke="rgb(106,88,75)" stroke-width="1.1">
            <rect x="387" y="75" clip-path="url(#clipPath19)"
                fill="none" width="147" height="27"/>
            <rect x="451" y="334" clip-path="url(#clipPath23)"
                fill="rgb(237,247,200)" width="20" height="33" stroke="none"/>
            <rect x="451" y="334" clip-path="url(#clipPath23)"
                fill="none" width="19" height="32"/>
            <rect x="451" y="520" clip-path="url(#clipPath24)"
                fill="rgb(237,247,200)" width="20" height="42" stroke="none"/>
            <rect x="451" y="520" clip-path="url(#clipPath24)"
                fill="none" width="19" height="41"/>
            <line clip-path="url(#clipPath25)" fill="none" x1="280"
                x2="280" y1="103" y2="258" stroke-dasharray="10,2" stroke-width="0.1"/>
        </g>
        <g font-size="15" stroke-linecap="butt" fill="rgb(237,247,200)"
            font-family="'Cantarell'" stroke-dasharray="10,2"
            stroke="rgb(237,247,200)" stroke-width="0.1">
            <rect x="195" y="75" clip-path="url(#clipPath26)"
                width="170" height="28" stroke="none"/>
        </g>
        <g font-size="13" stroke-linecap="butt" fill="rgb(106,88,75)"
            stroke-dasharray="10,2" stroke="rgb(106,88,75)" stroke-width="0.1">
            <text xml:space="preserve" x="206" y="94"
                clip-path="url(#clipPath27)" stroke="none">ReferencePropagator</text>
            <text xml:space="preserve" x="342" y="94"
                clip-path="url(#clipPath28)" stroke="none"> : </text>
            <line clip-path="url(#clipPath29)" fill="none" x1="206"
                x2="354" y1="96" y2="96" stroke-dasharray="none" stroke-width="1.1"/>
        </g>
        <g font-size="15" stroke-linecap="butt" fill="rgb(106,88,75)"
            font-family="'Cantarell'" stroke="rgb(106,88,75)" stroke-width="1.1">
            <rect x="195" y="75" clip-path="url(#clipPath26)"
                fill="none" width="169" height="27"/>
            <rect x="270" y="123" clip-path="url(#clipPath30)"
                fill="rgb(237,247,200)" width="20" height="29" stroke="none"/>
            <rect x="270" y="123" clip-path="url(#clipPath30)"
                fill="none" width="19" height="28"/>
            <rect x="270" y="167" clip-path="url(#clipPath31)"
                fill="rgb(237,247,200)" width="20" height="26" stroke="none"/>
            <rect x="270" y="167" clip-path="url(#clipPath31)"
                fill="none" width="19" height="25"/>
            <rect x="270" y="206" clip-path="url(#clipPath32)"
                fill="rgb(237,247,200)" width="20" height="37" stroke="none"/>
            <rect x="270" y="206" clip-path="url(#clipPath32)"
                fill="none" width="19" height="36"/>
            <line clip-path="url(#clipPath33)" fill="none" x1="981"
                x2="981" y1="103" y2="510" stroke-dasharray="10,2" stroke-width="0.1"/>
        </g>
        <g font-size="15" stroke-linecap="butt" fill="rgb(237,247,200)"
            font-family="'Cantarell'" stroke-dasharray="10,2"
            stroke="rgb(237,247,200)" stroke-width="0.1">
            <rect x="896" y="75" clip-path="url(#clipPath34)"
                width="170" height="28" stroke="none"/>
        </g>
        <g font-size="13" stroke-linecap="butt" fill="rgb(106,88,75)"
            stroke-dasharray="10,2" stroke="rgb(106,88,75)" stroke-width="0.1">
            <text xml:space="preserve" x="913" y="94"
                clip-path="url(#clipPath35)" stroke="none">AdapterPropagator</text>
            <text xml:space="preserve" x="1037" y="94"
                clip-path="url(#clipPath36)" stroke="none"> : </text>
            <line clip-path="url(#clipPath37)" fill="none" x1="913"
                x2="1049" y1="96" y2="96" stroke-dasharray="none" stroke-width="1.1"/>
        </g>
        <g font-size="15" stroke-linecap="butt" fill="rgb(106,88,75)"
            font-family="'Cantarell'" stroke="rgb(106,88,75)" stroke-width="1.1">
            <rect x="896" y="75" clip-path="url(#clipPath34)"
                fill="none" width="169" height="27"/>
            <rect x="971" y="428" clip-path="url(#clipPath38)"
                fill="rgb(237,247,200)" width="20" height="21" stroke="none"/>
            <rect x="971" y="428" clip-path="url(#clipPath38)"
                fill="none" width="19" height="20"/>
            <rect x="971" y="474" clip-path="url(#clipPath39)"
                fill="rgb(237,247,200)" width="20" height="21" stroke="none"/>
            <rect x="971" y="474" clip-path="url(#clipPath39)"
                fill="none" width="19" height="20"/>
            <line clip-path="url(#clipPath40)" fill="none" x1="809"
                x2="809" y1="103" y2="650" stroke-dasharray="10,2" stroke-width="0.1"/>
        </g>
        <g font-size="15" stroke-linecap="butt" fill="rgb(237,247,200)"
            font-family="'Cantarell'" stroke-dasharray="10,2"
            stroke="rgb(237,247,200)" stroke-width="0.1">
            <rect x="728" y="75" clip-path="url(#clipPath41)"
                width="163" height="28" stroke="none"/>
        </g>
        <g font-size="13" stroke-linecap="butt" fill="rgb(106,88,75)"
            stroke-dasharray="10,2" stroke="rgb(106,88,75)" stroke-width="0.1">
            <text xml:space="preserve" x="737" y="94"
                clip-path="url(#clipPath42)" stroke="none">ScheduledManeuver</text>
            <text xml:space="preserve" x="869" y="94"
                clip-path="url(#clipPath43)" stroke="none"> : </text>
            <line clip-path="url(#clipPath44)" fill="none" x1="737"
                x2="881" y1="96" y2="96" stroke-dasharray="none" stroke-width="1.1"/>
        </g>
        <g font-size="15" stroke-linecap="butt" fill="rgb(106,88,75)"
            font-family="'Cantarell'" stroke="rgb(106,88,75)" stroke-width="1.1">
            <rect x="728" y="75" clip-path="url(#clipPath41)"
                fill="none" width="162" height="27"/>
            <rect x="0" y="0" clip-path="url(#clipPath1)" fill="none"
                width="1075" height="693" stroke="black"/>
        </g>
        <g stroke-width="2.0" font-size="13" stroke-linecap="butt">
            <line clip-path="url(#clipPath45)" fill="none" x1="101"
                x2="270" y1="133" y2="133"/>
            <text xml:space="preserve" x="108" y="129"
                clip-path="url(#clipPath46)" stroke="none">addScheduledManeuver</text>
            <polygon clip-path="url(#clipPath47)"
                points=" 270 133 260 138 260 128" stroke="none"/>
            <polygon fill="none" stroke-width="1.1"
                clip-path="url(#clipPath47)" points=" 270 133 260 138 260 128"/>
            <line clip-path="url(#clipPath48)" fill="none" x1="101"
                x2="270" y1="178" y2="178"/>
            <text xml:space="preserve" x="194" y="173"
                clip-path="url(#clipPath49)" stroke="none">propagate</text>
            <polygon clip-path="url(#clipPath50)"
                points=" 270 178 260 183 260 173" stroke="none"/>
            <polygon fill="none" stroke-width="1.1"
                clip-path="url(#clipPath50)" points=" 270 178 260 183 260 173"/>
            <line clip-path="url(#clipPath51)" fill="none" x1="101"
                x2="270" y1="214" y2="214"/>
            <text xml:space="preserve" x="107" y="210"
                clip-path="url(#clipPath52)" stroke="none">getGeneratedEphemeris</text>
            <polygon clip-path="url(#clipPath53)"
                points=" 270 214 260 219 260 209" stroke="none"/>
            <polygon fill="none" stroke-width="1.1"
                clip-path="url(#clipPath53)" points=" 270 214 260 219 260 209"/>
            <line clip-path="url(#clipPath54)" fill="none" x1="114"
                x2="451" y1="524" y2="524"/>
            <text xml:space="preserve" x="342" y="516"
                clip-path="url(#clipPath55)" stroke="none">tuneManeuvers</text>
            <polygon clip-path="url(#clipPath56)"
                points=" 451 524 441 529 441 519" stroke="none"/>
            <polygon fill="none" stroke-width="1.1"
                clip-path="url(#clipPath56)" points=" 451 524 441 529 441 519"/>
            <line clip-path="url(#clipPath57)" fill="none" x1="114"
                x2="451" y1="345" y2="345"/>
            <text xml:space="preserve" x="356" y="342"
                clip-path="url(#clipPath58)" stroke="none">initializeRun</text>
            <polygon clip-path="url(#clipPath59)"
                points=" 451 345 441 350 441 340" stroke="none"/>
            <polygon fill="none" stroke-width="1.1"
                clip-path="url(#clipPath59)" points=" 451 345 441 350 441 340"/>
            <line clip-path="url(#clipPath60)" fill="none" x1="114"
                x2="628" y1="390" y2="390"/>
            <text xml:space="preserve" x="541" y="383"
                clip-path="url(#clipPath61)" stroke="none">initializeRun</text>
            <polygon clip-path="url(#clipPath62)"
                points=" 628 390 618 395 618 385" stroke="none"/>
            <polygon fill="none" stroke-width="1.1"
                clip-path="url(#clipPath62)" points=" 628 390 618 395 618 385"/>
            <line clip-path="url(#clipPath63)" fill="none" x1="114"
                x2="628" y1="589" y2="589"/>
            <text xml:space="preserve" x="517" y="582"
                clip-path="url(#clipPath64)" stroke="none">tuneManeuvers</text>
            <polygon clip-path="url(#clipPath65)"
                points=" 628 589 618 594 618 584" stroke="none"/>
            <polygon fill="none" stroke-width="1.1"
                clip-path="url(#clipPath65)" points=" 628 589 618 594 618 584"/>
            <line clip-path="url(#clipPath66)" fill="none" x1="451"
                x2="114" y1="553" y2="553" stroke-dasharray="10,5"/>
            <text x="130" y="546" clip-path="url(#clipPath67)"
                stroke-dasharray="10,5" stroke="none" xml:space="preserve">return tuned maneuvers</text>
            <polygon stroke-dasharray="10,5"
                clip-path="url(#clipPath68)"
                points=" 114 553 124 548 124 558" stroke="none"/>
            <polygon fill="none" stroke-width="1.1"
                clip-path="url(#clipPath68)" points=" 114 553 124 548 124 558"/>
            <line clip-path="url(#clipPath69)" fill="none" x1="270"
                x2="101" y1="240" y2="240" stroke-dasharray="10,5"/>
            <text x="131" y="236" clip-path="url(#clipPath70)"
                stroke-dasharray="10,5" stroke="none" xml:space="preserve">return ephemeris</text>
            <polygon stroke-dasharray="10,5"
                clip-path="url(#clipPath71)"
                points=" 101 240 111 235 111 245" stroke="none"/>
            <polygon fill="none" stroke-width="1.1"
                clip-path="url(#clipPath71)" points=" 101 240 111 235 111 245"/>
            <line clip-path="url(#clipPath72)" fill="none" x1="628"
                x2="114" y1="609" y2="609" stroke-dasharray="10,5"/>
            <text x="125" y="604" clip-path="url(#clipPath73)"
                stroke-dasharray="10,5" stroke="none" xml:space="preserve">return tuned maneuvers</text>
            <polygon stroke-dasharray="10,5"
                clip-path="url(#clipPath74)"
                points=" 114 609 124 604 124 614" stroke="none"/>
            <polygon fill="none" stroke-width="1.1"
                clip-path="url(#clipPath74)" points=" 114 609 124 604 124 614"/>
            <line clip-path="url(#clipPath75)" fill="none" x1="114"
                x2="971" y1="437" y2="437"/>
            <text xml:space="preserve" x="877" y="429"
                clip-path="url(#clipPath76)" stroke="none">setHandlers</text>
            <polygon clip-path="url(#clipPath77)"
                points=" 971 437 961 442 961 432" stroke="none"/>
            <polygon fill="none" stroke-width="1.1"
                clip-path="url(#clipPath77)" points=" 971 437 961 442 961 432"/>
            <line clip-path="url(#clipPath78)" fill="none" x1="114"
                x2="971" y1="481" y2="481"/>
            <text xml:space="preserve" x="883" y="475"
                clip-path="url(#clipPath79)" stroke="none">propagate</text>
            <polygon clip-path="url(#clipPath80)"
                points=" 971 481 961 486 961 476" stroke="none"/>
            <polygon fill="none" stroke-width="1.1"
                clip-path="url(#clipPath80)" points=" 971 481 961 486 961 476"/>
            <line clip-path="url(#clipPath81)" fill="none" x1="471"
                x2="809" y1="529" y2="529" stroke-dasharray="10,5"/>
            <text x="737" y="524" clip-path="url(#clipPath82)"
                stroke-dasharray="10,5" stroke="none" xml:space="preserve">create</text>
            <line clip-path="url(#clipPath83)" fill="none" x1="799"
                x2="809" y1="534" y2="529" stroke-width="1.1"/>
            <line clip-path="url(#clipPath83)" fill="none" x1="809"
                x2="799" y1="529" y2="524" stroke-width="1.1"/>
            <line clip-path="url(#clipPath84)" fill="none" x1="114"
                x2="981" y1="313" y2="313" stroke-dasharray="10,5"/>
            <text x="930" y="307" clip-path="url(#clipPath85)"
                stroke-dasharray="10,5" stroke="none" xml:space="preserve">create</text>
            <line clip-path="url(#clipPath86)" fill="none" x1="971"
                x2="981" y1="318" y2="313" stroke-width="1.1"/>
            <line clip-path="url(#clipPath86)" fill="none" x1="981"
                x2="971" y1="313" y2="308" stroke-width="1.1"/>
            <line clip-path="url(#clipPath87)" fill="none" x1="101"
                x2="54" y1="641" y2="641" stroke-dasharray="10,5"/>
            <line clip-path="url(#clipPath87)" fill="none" x1="54"
                x2="54" y1="641" y2="297" stroke-dasharray="10,5"/>
            <line clip-path="url(#clipPath87)" fill="none" x1="54"
                x2="114" y1="297" y2="297" stroke-dasharray="10,5"/>
            <text x="7" y="468" clip-path="url(#clipPath88)"
                stroke-dasharray="10,5" stroke="none" xml:space="preserve">iterate</text>
            <polygon stroke-dasharray="10,5"
                clip-path="url(#clipPath89)"
                points=" 114 297 104 302 104 292" stroke="none"/>
            <polygon fill="none" stroke-width="1.1"
                clip-path="url(#clipPath89)" points=" 114 297 104 302 104 292"/>
        </g>
    </g>
</svg>
