<?xml version="1.0" encoding="UTF-8"?>
<svg stroke-dasharray="none" shape-rendering="auto"
    font-family="'Dialog'" width="1152" text-rendering="auto"
    fill-opacity="1" color-interpolation="auto" color-rendering="auto"
    font-size="12" fill="black" stroke="black" image-rendering="auto"
    stroke-miterlimit="10" stroke-linecap="square"
    stroke-linejoin="miter" font-style="normal" height="687"
    stroke-width="1" stroke-dashoffset="0" font-weight="normal" stroke-opacity="1">
    <!--Generated by the Batik Graphics2D SVG Generator-->
    <defs id="genericDefs"/>
    <g>
        <defs id="defs1">
            <clipPath clipPathUnits="userSpaceOnUse" id="clipPath1">
                <path d="M-1 -1 L1152 -1 L1152 687 L-1 687 L-1 -1 Z"/>
            </clipPath>
            <clipPath clipPathUnits="userSpaceOnUse" id="clipPath2">
                <path d="M5 5 L70 5 L70 24 L5 24 L5 5 Z"/>
            </clipPath>
            <clipPath clipPathUnits="userSpaceOnUse" id="clipPath3">
                <path d="M70 5 L117 5 L117 24 L70 24 L70 5 Z"/>
            </clipPath>
            <clipPath clipPathUnits="userSpaceOnUse" id="clipPath4">
                <path d="M14 186 L1142 186 L1142 297 L14 297 L14 186 Z"/>
            </clipPath>
            <clipPath clipPathUnits="userSpaceOnUse" id="clipPath5">
                <path d="M531 188 L625 188 L625 207 L531 207 L531 188 Z"/>
            </clipPath>
            <clipPath clipPathUnits="userSpaceOnUse" id="clipPath6">
                <path d="M16 205 L1140 205 L1140 217 L16 217 L16 205 Z"/>
            </clipPath>
            <clipPath clipPathUnits="userSpaceOnUse" id="clipPath7">
                <path d="M17 218 L30 218 L30 237 L17 237 L17 218 Z"/>
            </clipPath>
            <clipPath clipPathUnits="userSpaceOnUse" id="clipPath8">
                <path d="M30 218 L103 218 L103 237 L30 237 L30 218 Z"/>
            </clipPath>
            <clipPath clipPathUnits="userSpaceOnUse" id="clipPath9">
                <path d="M103 218 L261 218 L261 237 L103 237 L103 218 Z"/>
            </clipPath>
            <clipPath clipPathUnits="userSpaceOnUse" id="clipPath10">
                <path d="M17 237 L30 237 L30 256 L17 256 L17 237 Z"/>
            </clipPath>
            <clipPath clipPathUnits="userSpaceOnUse" id="clipPath11">
                <path d="M30 237 L112 237 L112 256 L30 256 L30 237 Z"/>
            </clipPath>
            <clipPath clipPathUnits="userSpaceOnUse" id="clipPath12">
                <path d="M112 237 L282 237 L282 256 L112 256 L112 237 Z"/>
            </clipPath>
            <clipPath clipPathUnits="userSpaceOnUse" id="clipPath13">
                <path d="M17 256 L30 256 L30 275 L17 275 L17 256 Z"/>
            </clipPath>
            <clipPath clipPathUnits="userSpaceOnUse" id="clipPath14">
                <path d="M30 256 L118 256 L118 275 L30 275 L30 256 Z"/>
            </clipPath>
            <clipPath clipPathUnits="userSpaceOnUse" id="clipPath15">
                <path d="M118 256 L390 256 L390 275 L118 275 L118 256 Z"/>
            </clipPath>
            <clipPath clipPathUnits="userSpaceOnUse" id="clipPath16">
                <path d="M17 275 L30 275 L30 294 L17 294 L17 275 Z"/>
            </clipPath>
            <clipPath clipPathUnits="userSpaceOnUse" id="clipPath17">
                <path d="M30 275 L89 275 L89 294 L30 294 L30 275 Z"/>
            </clipPath>
            <clipPath clipPathUnits="userSpaceOnUse" id="clipPath18">
                <path d="M89 275 L1135 275 L1135 294 L89 294 L89 275 Z"/>
            </clipPath>
            <clipPath clipPathUnits="userSpaceOnUse" id="clipPath19">
                <path d="M16 215 L1140 215 L1140 295 L16 295 L16 215 Z"/>
            </clipPath>
            <clipPath clipPathUnits="userSpaceOnUse" id="clipPath20">
                <path d="M275 351 L1140 351 L1140 549 L275 549 L275 351 Z"/>
            </clipPath>
            <clipPath clipPathUnits="userSpaceOnUse" id="clipPath21">
                <path d="M664 353 L751 353 L751 368 L664 368 L664 353 Z"/>
            </clipPath>
            <clipPath clipPathUnits="userSpaceOnUse" id="clipPath22">
                <path d="M676 368 L738 368 L738 383 L676 383 L676 368 Z"/>
            </clipPath>
            <clipPath clipPathUnits="userSpaceOnUse" id="clipPath23">
                <path d="M277 381 L1138 381 L1138 393 L277 393 L277 381 Z"/>
            </clipPath>
            <clipPath clipPathUnits="userSpaceOnUse" id="clipPath24">
                <path d="M278 394 L291 394 L291 413 L278 413 L278 394 Z"/>
            </clipPath>
            <clipPath clipPathUnits="userSpaceOnUse" id="clipPath25">
                <path d="M291 394 L353 394 L353 413 L291 413 L291 394 Z"/>
            </clipPath>
            <clipPath clipPathUnits="userSpaceOnUse" id="clipPath26">
                <path d="M353 394 L415 394 L415 413 L353 413 L353 394 Z"/>
            </clipPath>
            <clipPath clipPathUnits="userSpaceOnUse" id="clipPath27">
                <path d="M278 413 L291 413 L291 432 L278 432 L278 413 Z"/>
            </clipPath>
            <clipPath clipPathUnits="userSpaceOnUse" id="clipPath28">
                <path d="M291 413 L366 413 L366 432 L291 432 L291 413 Z"/>
            </clipPath>
            <clipPath clipPathUnits="userSpaceOnUse" id="clipPath29">
                <path d="M366 413 L434 413 L434 432 L366 432 L366 413 Z"/>
            </clipPath>
            <clipPath clipPathUnits="userSpaceOnUse" id="clipPath30">
                <path d="M278 432 L291 432 L291 451 L278 451 L278 432 Z"/>
            </clipPath>
            <clipPath clipPathUnits="userSpaceOnUse" id="clipPath31">
                <path d="M291 432 L489 432 L489 451 L291 451 L291 432 Z"/>
            </clipPath>
            <clipPath clipPathUnits="userSpaceOnUse" id="clipPath32">
                <path d="M489 432 L551 432 L551 451 L489 451 L489 432 Z"/>
            </clipPath>
            <clipPath clipPathUnits="userSpaceOnUse" id="clipPath33">
                <path d="M278 451 L291 451 L291 470 L278 470 L278 451 Z"/>
            </clipPath>
            <clipPath clipPathUnits="userSpaceOnUse" id="clipPath34">
                <path d="M291 451 L486 451 L486 470 L291 470 L291 451 Z"/>
            </clipPath>
            <clipPath clipPathUnits="userSpaceOnUse" id="clipPath35">
                <path d="M486 451 L527 451 L527 470 L486 470 L486 451 Z"/>
            </clipPath>
            <clipPath clipPathUnits="userSpaceOnUse" id="clipPath36">
                <path d="M278 470 L291 470 L291 489 L278 489 L278 470 Z"/>
            </clipPath>
            <clipPath clipPathUnits="userSpaceOnUse" id="clipPath37">
                <path d="M291 470 L487 470 L487 489 L291 489 L291 470 Z"/>
            </clipPath>
            <clipPath clipPathUnits="userSpaceOnUse" id="clipPath38">
                <path d="M487 470 L549 470 L549 489 L487 489 L487 470 Z"/>
            </clipPath>
            <clipPath clipPathUnits="userSpaceOnUse" id="clipPath39">
                <path d="M278 489 L291 489 L291 508 L278 508 L278 489 Z"/>
            </clipPath>
            <clipPath clipPathUnits="userSpaceOnUse" id="clipPath40">
                <path d="M291 489 L484 489 L484 508 L291 508 L291 489 Z"/>
            </clipPath>
            <clipPath clipPathUnits="userSpaceOnUse" id="clipPath41">
                <path d="M484 489 L525 489 L525 508 L484 508 L484 489 Z"/>
            </clipPath>
            <clipPath clipPathUnits="userSpaceOnUse" id="clipPath42">
                <path d="M278 508 L291 508 L291 527 L278 527 L278 508 Z"/>
            </clipPath>
            <clipPath clipPathUnits="userSpaceOnUse" id="clipPath43">
                <path d="M291 508 L373 508 L373 527 L291 527 L291 508 Z"/>
            </clipPath>
            <clipPath clipPathUnits="userSpaceOnUse" id="clipPath44">
                <path d="M373 508 L1126 508 L1126 527 L373 527 L373 508 Z"/>
            </clipPath>
            <clipPath clipPathUnits="userSpaceOnUse" id="clipPath45">
                <path d="M278 527 L291 527 L291 546 L278 546 L278 527 Z"/>
            </clipPath>
            <clipPath clipPathUnits="userSpaceOnUse" id="clipPath46">
                <path d="M291 527 L394 527 L394 546 L291 546 L291 527 Z"/>
            </clipPath>
            <clipPath clipPathUnits="userSpaceOnUse" id="clipPath47">
                <path d="M394 527 L977 527 L977 546 L394 546 L394 527 Z"/>
            </clipPath>
            <clipPath clipPathUnits="userSpaceOnUse" id="clipPath48">
                <path d="M277 391 L1138 391 L1138 547 L277 547 L277 391 Z"/>
            </clipPath>
            <clipPath clipPathUnits="userSpaceOnUse" id="clipPath49">
                <path d="M627 615 L769 615 L769 677 L627 677 L627 615 Z"/>
            </clipPath>
            <clipPath clipPathUnits="userSpaceOnUse" id="clipPath50">
                <path d="M630 617 L765 617 L765 636 L630 636 L630 617 Z"/>
            </clipPath>
            <clipPath clipPathUnits="userSpaceOnUse" id="clipPath51">
                <path d="M656 636 L739 636 L739 655 L656 655 L656 636 Z"/>
            </clipPath>
            <clipPath clipPathUnits="userSpaceOnUse" id="clipPath52">
                <path d="M629 653 L767 653 L767 665 L629 665 L629 653 Z"/>
            </clipPath>
            <clipPath clipPathUnits="userSpaceOnUse" id="clipPath53">
                <path d="M629 663 L767 663 L767 675 L629 675 L629 663 Z"/>
            </clipPath>
            <clipPath clipPathUnits="userSpaceOnUse" id="clipPath54">
                <path d="M279 614 L419 614 L419 676 L279 676 L279 614 Z"/>
            </clipPath>
            <clipPath clipPathUnits="userSpaceOnUse" id="clipPath55">
                <path d="M283 616 L414 616 L414 635 L283 635 L283 616 Z"/>
            </clipPath>
            <clipPath clipPathUnits="userSpaceOnUse" id="clipPath56">
                <path d="M310 635 L388 635 L388 654 L310 654 L310 635 Z"/>
            </clipPath>
            <clipPath clipPathUnits="userSpaceOnUse" id="clipPath57">
                <path d="M281 652 L417 652 L417 664 L281 664 L281 652 Z"/>
            </clipPath>
            <clipPath clipPathUnits="userSpaceOnUse" id="clipPath58">
                <path d="M281 662 L417 662 L417 674 L281 674 L281 662 Z"/>
            </clipPath>
            <clipPath clipPathUnits="userSpaceOnUse" id="clipPath59">
                <path d="M276 34 L822 34 L822 133 L276 133 L276 34 Z"/>
            </clipPath>
            <clipPath clipPathUnits="userSpaceOnUse" id="clipPath60">
                <path d="M505 36 L592 36 L592 51 L505 51 L505 36 Z"/>
            </clipPath>
            <clipPath clipPathUnits="userSpaceOnUse" id="clipPath61">
                <path d="M487 51 L610 51 L610 66 L487 66 L487 51 Z"/>
            </clipPath>
            <clipPath clipPathUnits="userSpaceOnUse" id="clipPath62">
                <path d="M506 66 L591 66 L591 81 L506 81 L506 66 Z"/>
            </clipPath>
            <clipPath clipPathUnits="userSpaceOnUse" id="clipPath63">
                <path d="M278 79 L820 79 L820 91 L278 91 L278 79 Z"/>
            </clipPath>
            <clipPath clipPathUnits="userSpaceOnUse" id="clipPath64">
                <path d="M279 92 L292 92 L292 111 L279 111 L279 92 Z"/>
            </clipPath>
            <clipPath clipPathUnits="userSpaceOnUse" id="clipPath65">
                <path d="M292 92 L374 92 L374 111 L292 111 L292 92 Z"/>
            </clipPath>
            <clipPath clipPathUnits="userSpaceOnUse" id="clipPath66">
                <path d="M374 92 L544 92 L544 111 L374 111 L374 92 Z"/>
            </clipPath>
            <clipPath clipPathUnits="userSpaceOnUse" id="clipPath67">
                <path d="M279 111 L292 111 L292 130 L279 130 L279 111 Z"/>
            </clipPath>
            <clipPath clipPathUnits="userSpaceOnUse" id="clipPath68">
                <path d="M292 111 L380 111 L380 130 L292 130 L292 111 Z"/>
            </clipPath>
            <clipPath clipPathUnits="userSpaceOnUse" id="clipPath69">
                <path d="M380 111 L652 111 L652 130 L380 130 L380 111 Z"/>
            </clipPath>
            <clipPath clipPathUnits="userSpaceOnUse" id="clipPath70">
                <path d="M278 89 L820 89 L820 131 L278 131 L278 89 Z"/>
            </clipPath>
            <clipPath clipPathUnits="userSpaceOnUse" id="clipPath71">
                <path d="M780 615 L951 615 L951 677 L780 677 L780 615 Z"/>
            </clipPath>
            <clipPath clipPathUnits="userSpaceOnUse" id="clipPath72">
                <path d="M801 617 L930 617 L930 636 L801 636 L801 617 Z"/>
            </clipPath>
            <clipPath clipPathUnits="userSpaceOnUse" id="clipPath73">
                <path d="M824 636 L907 636 L907 655 L824 655 L824 636 Z"/>
            </clipPath>
            <clipPath clipPathUnits="userSpaceOnUse" id="clipPath74">
                <path d="M782 653 L949 653 L949 665 L782 665 L782 653 Z"/>
            </clipPath>
            <clipPath clipPathUnits="userSpaceOnUse" id="clipPath75">
                <path d="M782 663 L949 663 L949 675 L782 675 L782 663 Z"/>
            </clipPath>
            <clipPath clipPathUnits="userSpaceOnUse" id="clipPath76">
                <path d="M446 615 L612 615 L612 677 L446 677 L446 615 Z"/>
            </clipPath>
            <clipPath clipPathUnits="userSpaceOnUse" id="clipPath77">
                <path d="M449 617 L608 617 L608 636 L449 636 L449 617 Z"/>
            </clipPath>
            <clipPath clipPathUnits="userSpaceOnUse" id="clipPath78">
                <path d="M490 636 L568 636 L568 655 L490 655 L490 636 Z"/>
            </clipPath>
            <clipPath clipPathUnits="userSpaceOnUse" id="clipPath79">
                <path d="M448 653 L610 653 L610 665 L448 665 L448 653 Z"/>
            </clipPath>
            <clipPath clipPathUnits="userSpaceOnUse" id="clipPath80">
                <path d="M448 663 L610 663 L610 675 L448 675 L448 663 Z"/>
            </clipPath>
            <clipPath clipPathUnits="userSpaceOnUse" id="clipPath81">
                <path d="M971 615 L1130 615 L1130 677 L971 677 L971 615 Z"/>
            </clipPath>
            <clipPath clipPathUnits="userSpaceOnUse" id="clipPath82">
                <path d="M975 617 L1125 617 L1125 636 L975 636 L975 617 Z"/>
            </clipPath>
            <clipPath clipPathUnits="userSpaceOnUse" id="clipPath83">
                <path d="M1009 636 L1092 636 L1092 655 L1009 655 L1009 636 Z"/>
            </clipPath>
            <clipPath clipPathUnits="userSpaceOnUse" id="clipPath84">
                <path d="M973 653 L1128 653 L1128 665 L973 665 L973 653 Z"/>
            </clipPath>
            <clipPath clipPathUnits="userSpaceOnUse" id="clipPath85">
                <path d="M973 663 L1128 663 L1128 675 L973 675 L973 663 Z"/>
            </clipPath>
            <clipPath clipPathUnits="userSpaceOnUse" id="clipPath86">
                <path d="M51 419 L200 419 L200 481 L51 481 L51 419 Z"/>
            </clipPath>
            <clipPath clipPathUnits="userSpaceOnUse" id="clipPath87">
                <path d="M58 421 L193 421 L193 440 L58 440 L58 421 Z"/>
            </clipPath>
            <clipPath clipPathUnits="userSpaceOnUse" id="clipPath88">
                <path d="M59 440 L191 440 L191 459 L59 459 L59 440 Z"/>
            </clipPath>
            <clipPath clipPathUnits="userSpaceOnUse" id="clipPath89">
                <path d="M53 457 L198 457 L198 469 L53 469 L53 457 Z"/>
            </clipPath>
            <clipPath clipPathUnits="userSpaceOnUse" id="clipPath90">
                <path d="M53 467 L198 467 L198 479 L53 479 L53 467 Z"/>
            </clipPath>
            <clipPath clipPathUnits="userSpaceOnUse" id="clipPath91">
                <path d="M528 118 L569 118 L569 202 L528 202 L528 118 Z"/>
            </clipPath>
            <clipPath clipPathUnits="userSpaceOnUse" id="clipPath92">
                <path d="M541 131 L556 131 L556 148 L541 148 L541 131 Z"/>
            </clipPath>
            <clipPath clipPathUnits="userSpaceOnUse" id="clipPath93">
                <path d="M233 282 L790 282 L790 378 L233 378 L233 282 Z"/>
            </clipPath>
            <clipPath clipPathUnits="userSpaceOnUse" id="clipPath94">
                <path d="M638 328 L663 328 L663 347 L638 347 L638 328 Z"/>
            </clipPath>
            <clipPath clipPathUnits="userSpaceOnUse" id="clipPath95">
                <path d="M622 295 L635 295 L635 318 L622 318 L622 295 Z"/>
            </clipPath>
            <clipPath clipPathUnits="userSpaceOnUse" id="clipPath96">
                <path d="M687 534 L728 534 L728 631 L687 631 L687 534 Z"/>
            </clipPath>
            <clipPath clipPathUnits="userSpaceOnUse" id="clipPath97">
                <path d="M700 547 L715 547 L715 564 L700 564 L700 547 Z"/>
            </clipPath>
            <clipPath clipPathUnits="userSpaceOnUse" id="clipPath98">
                <path d="M318 534 L359 534 L359 630 L318 630 L318 534 Z"/>
            </clipPath>
            <clipPath clipPathUnits="userSpaceOnUse" id="clipPath99">
                <path d="M331 547 L346 547 L346 564 L331 564 L331 547 Z"/>
            </clipPath>
            <clipPath clipPathUnits="userSpaceOnUse" id="clipPath100">
                <path d="M860 534 L901 534 L901 631 L860 631 L860 534 Z"/>
            </clipPath>
            <clipPath clipPathUnits="userSpaceOnUse" id="clipPath101">
                <path d="M873 547 L888 547 L888 564 L873 564 L873 547 Z"/>
            </clipPath>
            <clipPath clipPathUnits="userSpaceOnUse" id="clipPath102">
                <path d="M497 534 L538 534 L538 631 L497 631 L497 534 Z"/>
            </clipPath>
            <clipPath clipPathUnits="userSpaceOnUse" id="clipPath103">
                <path d="M510 547 L525 547 L525 564 L510 564 L510 547 Z"/>
            </clipPath>
            <clipPath clipPathUnits="userSpaceOnUse" id="clipPath104">
                <path d="M1047 534 L1088 534 L1088 631 L1047 631 L1047 534 Z"/>
            </clipPath>
            <clipPath clipPathUnits="userSpaceOnUse" id="clipPath105">
                <path d="M1060 547 L1075 547 L1075 564 L1060 564 L1060 547 Z"/>
            </clipPath>
            <clipPath clipPathUnits="userSpaceOnUse" id="clipPath106">
                <path d="M36 282 L321 282 L321 435 L36 435 L36 282 Z"/>
            </clipPath>
            <clipPath clipPathUnits="userSpaceOnUse" id="clipPath107">
                <path d="M105 305 L115 305 L115 324 L105 324 L105 305 Z"/>
            </clipPath>
            <clipPath clipPathUnits="userSpaceOnUse" id="clipPath108">
                <path d="M90 392 L115 392 L115 411 L90 411 L90 392 Z"/>
            </clipPath>
            <clipPath clipPathUnits="userSpaceOnUse" id="clipPath109">
                <path d="M118 295 L131 295 L131 318 L118 318 L118 295 Z"/>
            </clipPath>
        </defs>
        <g font-size="15" fill="white" font-family="'Ubuntu'"
            stroke-linejoin="round" stroke="white" stroke-width="0" stroke-miterlimit="0">
            <rect x="0" y="0" clip-path="url(#clipPath1)" width="1151"
                height="686" stroke="none"/>
        </g>
        <g stroke-width="0.1" font-size="15" font-family="'Ubuntu'" stroke-linecap="butt">
            <line clip-path="url(#clipPath1)" fill="none" x1="1"
                x2="121" y1="31" y2="31"/>
            <line clip-path="url(#clipPath1)" fill="none" x1="121"
                x2="128" y1="31" y2="17"/>
            <line clip-path="url(#clipPath1)" fill="none" x1="128"
                x2="128" y1="17" y2="1"/>
            <text x="6" y="20" clip-path="url(#clipPath2)" stroke="none"
                font-weight="bold" xml:space="preserve">package </text>
            <text font-size="13" x="71" y="19"
                clip-path="url(#clipPath3)" font-family="'Dialog'"
                stroke="none" xml:space="preserve">control</text>
            <rect x="15" y="187" clip-path="url(#clipPath4)"
                fill="rgb(200,230,255)" width="1126" height="109" stroke="none"/>
            <text font-size="13" x="532" y="202"
                clip-path="url(#clipPath5)" font-family="'Dialog'"
                stroke="none" font-weight="bold" xml:space="preserve">ControlLoop</text>
            <line clip-path="url(#clipPath6)" fill="none" x1="17"
                x2="1139" y1="206" y2="206"/>
            <text font-size="13" x="18" y="232"
                clip-path="url(#clipPath7)" font-family="'Dialog'"
                stroke="none" xml:space="preserve">+</text>
            <text font-size="13" x="31" y="232"
                clip-path="url(#clipPath8)" font-family="'Dialog'"
                stroke="none" xml:space="preserve">addControl</text>
            <text font-size="13" x="104" y="232"
                clip-path="url(#clipPath9)" font-family="'Dialog'"
                stroke="none" xml:space="preserve">(controlLaw : SKControl)</text>
            <text font-size="13" x="18" y="251"
                clip-path="url(#clipPath10)" font-family="'Dialog'"
                stroke="none" xml:space="preserve">+</text>
            <text font-size="13" x="31" y="251"
                clip-path="url(#clipPath11)" font-family="'Dialog'"
                stroke="none" xml:space="preserve">setCycleEnd</text>
            <text font-size="13" x="113" y="251"
                clip-path="url(#clipPath12)" font-family="'Dialog'"
                stroke="none" xml:space="preserve">(cycleEnd : AbsoluteDate)</text>
            <text font-size="13" x="18" y="270"
                clip-path="url(#clipPath13)" font-family="'Dialog'"
                stroke="none" xml:space="preserve">+</text>
            <text font-size="13" x="31" y="270"
                clip-path="url(#clipPath14)" font-family="'Dialog'"
                stroke="none" xml:space="preserve">updateStates</text>
            <text font-size="13" x="119" y="270"
                clip-path="url(#clipPath15)" font-family="'Dialog'"
                stroke="none" xml:space="preserve">(originals : ScenarioState) : ScenarioState</text>
            <text font-size="13" x="18" y="289"
                clip-path="url(#clipPath16)" font-family="'Dialog'"
                stroke="none" xml:space="preserve">+</text>
            <text font-size="13" x="31" y="289"
                clip-path="url(#clipPath17)" font-family="'Dialog'"
                stroke="none" xml:space="preserve">runCycle</text>
            <text font-size="13" x="90" y="289"
                clip-path="url(#clipPath18)" font-family="'Dialog'"
                stroke="none" xml:space="preserve">(iteration : int, inout maneuvers : ScheduledManeuver, propagator : Propagator, fixedManeuvers : ScheduledManeuver, start : AbsoluteDate, end : AbsoluteDate)</text>
            <line clip-path="url(#clipPath19)" fill="none" x1="17"
                x2="1139" y1="216" y2="216"/>
            <rect x="15" y="187" clip-path="url(#clipPath4)" fill="none"
                width="1125" height="108" stroke-width="1.1"/>
            <rect x="276" y="352" clip-path="url(#clipPath20)"
                fill="rgb(244,242,212)" width="863" height="196"
                stroke="none" stroke-width="1.1"/>
            <text font-size="11" x="665" y="365"
                clip-path="url(#clipPath21)" font-family="'Dialog'"
                stroke="none" stroke-width="1.1" xml:space="preserve">&lt;&lt;interface&gt;&gt;</text>
        </g>
        <g stroke-width="1.1" font-size="11" font-weight="bold" stroke-linecap="butt">
            <text xml:space="preserve" x="677" y="380"
                clip-path="url(#clipPath22)" stroke="none">SKControl</text>
        </g>
        <g stroke-width="0.1" font-size="15" font-family="'Ubuntu'" stroke-linecap="butt">
            <line clip-path="url(#clipPath23)" fill="none" x1="278"
                x2="1137" y1="382" y2="382"/>
            <text font-size="13" x="279" y="408"
                clip-path="url(#clipPath24)" font-family="'Dialog'"
                stroke="none" xml:space="preserve">+</text>
            <text font-size="13" x="292" y="408"
                clip-path="url(#clipPath25)" font-family="'Dialog'"
                stroke="none" xml:space="preserve">getName</text>
            <text font-size="13" x="354" y="408"
                clip-path="url(#clipPath26)" font-family="'Dialog'"
                stroke="none" xml:space="preserve">() : String</text>
            <text font-size="13" x="279" y="427"
                clip-path="url(#clipPath27)" font-family="'Dialog'"
                stroke="none" xml:space="preserve">+</text>
            <text font-size="13" x="292" y="427"
                clip-path="url(#clipPath28)" font-family="'Dialog'"
                stroke="none" xml:space="preserve">getMargins</text>
            <text font-size="13" x="367" y="427"
                clip-path="url(#clipPath29)" font-family="'Dialog'"
                stroke="none" xml:space="preserve">() : double</text>
            <text font-size="13" x="279" y="446"
                clip-path="url(#clipPath30)" font-family="'Dialog'"
                stroke="none" xml:space="preserve">+</text>
            <text font-size="13" x="292" y="446"
                clip-path="url(#clipPath31)" font-family="'Dialog'"
                stroke="none" xml:space="preserve">getControlledSpacecraftName</text>
            <text font-size="13" x="490" y="446"
                clip-path="url(#clipPath32)" font-family="'Dialog'"
                stroke="none" xml:space="preserve">() : String</text>
            <text font-size="13" x="279" y="465"
                clip-path="url(#clipPath33)" font-family="'Dialog'"
                stroke="none" xml:space="preserve">+</text>
            <text font-size="13" x="292" y="465"
                clip-path="url(#clipPath34)" font-family="'Dialog'"
                stroke="none" xml:space="preserve">getControlledSpacecraftIndex</text>
            <text font-size="13" x="487" y="465"
                clip-path="url(#clipPath35)" font-family="'Dialog'"
                stroke="none" xml:space="preserve">() : int</text>
            <text font-size="13" x="279" y="484"
                clip-path="url(#clipPath36)" font-family="'Dialog'"
                stroke="none" xml:space="preserve">+</text>
            <text font-size="13" x="292" y="484"
                clip-path="url(#clipPath37)" font-family="'Dialog'"
                stroke="none" xml:space="preserve">getReferenceSpacecraftName</text>
            <text font-size="13" x="488" y="484"
                clip-path="url(#clipPath38)" font-family="'Dialog'"
                stroke="none" xml:space="preserve">() : String</text>
            <text font-size="13" x="279" y="503"
                clip-path="url(#clipPath39)" font-family="'Dialog'"
                stroke="none" xml:space="preserve">+</text>
            <text font-size="13" x="292" y="503"
                clip-path="url(#clipPath40)" font-family="'Dialog'"
                stroke="none" xml:space="preserve">getReferenceSpacecraftIndex</text>
            <text font-size="13" x="485" y="503"
                clip-path="url(#clipPath41)" font-family="'Dialog'"
                stroke="none" xml:space="preserve">() : int</text>
            <text font-size="13" x="279" y="522"
                clip-path="url(#clipPath42)" font-family="'Dialog'"
                stroke="none" xml:space="preserve">+</text>
            <text font-size="13" x="292" y="522"
                clip-path="url(#clipPath43)" font-family="'Dialog'"
                stroke="none" xml:space="preserve">initializeRun</text>
            <text font-size="13" x="374" y="522"
                clip-path="url(#clipPath44)" font-family="'Dialog'"
                stroke="none" xml:space="preserve">(maneuvers : ScheduledManeuver, propagator : Propagator, start : AbsoluteDate, end : AbsoluteDate, iteration : int)</text>
            <text font-size="13" x="279" y="541"
                clip-path="url(#clipPath45)" font-family="'Dialog'"
                stroke="none" xml:space="preserve">+</text>
            <text font-size="13" x="292" y="541"
                clip-path="url(#clipPath46)" font-family="'Dialog'"
                stroke="none" xml:space="preserve">tuneManeuvers</text>
            <text font-size="13" x="395" y="541"
                clip-path="url(#clipPath47)" font-family="'Dialog'"
                stroke="none" xml:space="preserve">(maneuvers : ScheduledManeuver, reference : BoundedPropagator) : ScheduledManeuver</text>
            <line clip-path="url(#clipPath48)" fill="none" x1="278"
                x2="1137" y1="392" y2="392"/>
            <rect x="276" y="352" clip-path="url(#clipPath20)"
                fill="none" width="862" height="195" stroke-width="1.1"/>
            <rect x="628" y="616" clip-path="url(#clipPath49)"
                fill="rgb(200,230,255)" width="140" height="60"
                stroke="none" stroke-width="1.1"/>
        </g>
        <g stroke-width="1.1" font-size="13" font-weight="bold" stroke-linecap="butt">
            <text xml:space="preserve" x="631" y="631"
                clip-path="url(#clipPath50)" stroke="none">EccentricityCircle</text>
            <text xml:space="preserve" x="657" y="650"
                clip-path="url(#clipPath51)" stroke="none">(from geo)</text>
        </g>
        <g stroke-width="0.1" font-size="15" font-family="'Ubuntu'" stroke-linecap="butt">
            <line clip-path="url(#clipPath52)" fill="none" x1="630"
                x2="766" y1="654" y2="654"/>
            <line clip-path="url(#clipPath53)" fill="none" x1="630"
                x2="766" y1="664" y2="664"/>
            <rect x="628" y="616" clip-path="url(#clipPath49)"
                fill="none" width="139" height="59" stroke-width="1.1"/>
            <rect x="280" y="615" clip-path="url(#clipPath54)"
                fill="rgb(200,230,255)" width="138" height="60"
                stroke="none" stroke-width="1.1"/>
        </g>
        <g stroke-width="1.1" font-size="13" font-weight="bold" stroke-linecap="butt">
            <text xml:space="preserve" x="284" y="630"
                clip-path="url(#clipPath55)" stroke="none">GroundTrackGrid</text>
            <text xml:space="preserve" x="311" y="649"
                clip-path="url(#clipPath56)" stroke="none">(from leo)</text>
        </g>
        <g stroke-width="0.1" font-size="15" font-family="'Ubuntu'" stroke-linecap="butt">
            <line clip-path="url(#clipPath57)" fill="none" x1="282"
                x2="416" y1="653" y2="653"/>
            <line clip-path="url(#clipPath58)" fill="none" x1="282"
                x2="416" y1="663" y2="663"/>
            <rect x="280" y="615" clip-path="url(#clipPath54)"
                fill="none" width="137" height="59" stroke-width="1.1"/>
            <rect x="277" y="35" clip-path="url(#clipPath59)"
                fill="rgb(244,242,212)" width="544" height="97"
                stroke="none" stroke-width="1.1"/>
            <text font-size="11" x="506" y="48"
                clip-path="url(#clipPath60)" font-family="'Dialog'"
                stroke="none" stroke-width="1.1" xml:space="preserve">&lt;&lt;interface&gt;&gt;</text>
        </g>
        <g stroke-width="1.1" font-size="11" font-weight="bold" stroke-linecap="butt">
            <text xml:space="preserve" x="488" y="63"
                clip-path="url(#clipPath61)" stroke="none">ScenarioComponent</text>
            <text x="507" y="78" clip-path="url(#clipPath62)"
                stroke="none" font-weight="normal" xml:space="preserve">(from scenario)</text>
        </g>
        <g stroke-width="0.1" font-size="15" font-family="'Ubuntu'" stroke-linecap="butt">
            <line clip-path="url(#clipPath63)" fill="none" x1="279"
                x2="819" y1="80" y2="80"/>
            <text font-size="13" x="280" y="106"
                clip-path="url(#clipPath64)" font-family="'Dialog'"
                stroke="none" xml:space="preserve">+</text>
            <text font-size="13" x="293" y="106"
                clip-path="url(#clipPath65)" font-family="'Dialog'"
                stroke="none" xml:space="preserve">setCycleEnd</text>
            <text font-size="13" x="375" y="106"
                clip-path="url(#clipPath66)" font-family="'Dialog'"
                stroke="none" xml:space="preserve">(cycleEnd : AbsoluteDate)</text>
            <text font-size="13" x="280" y="125"
                clip-path="url(#clipPath67)" font-family="'Dialog'"
                stroke="none" xml:space="preserve">+</text>
            <text font-size="13" x="293" y="125"
                clip-path="url(#clipPath68)" font-family="'Dialog'"
                stroke="none" xml:space="preserve">updateStates</text>
            <text font-size="13" x="381" y="125"
                clip-path="url(#clipPath69)" font-family="'Dialog'"
                stroke="none" xml:space="preserve">(originals : ScenarioState) : ScenarioState</text>
            <line clip-path="url(#clipPath70)" fill="none" x1="279"
                x2="819" y1="90" y2="90"/>
            <rect x="277" y="35" clip-path="url(#clipPath59)"
                fill="none" width="543" height="96" stroke-width="1.1"/>
            <rect x="781" y="616" clip-path="url(#clipPath71)"
                fill="rgb(200,230,255)" width="169" height="60"
                stroke="none" stroke-width="1.1"/>
        </g>
        <g stroke-width="1.1" font-size="13" font-weight="bold" stroke-linecap="butt">
            <text xml:space="preserve" x="802" y="631"
                clip-path="url(#clipPath72)" stroke="none">InclinationVector</text>
            <text xml:space="preserve" x="825" y="650"
                clip-path="url(#clipPath73)" stroke="none">(from geo)</text>
        </g>
        <g stroke-width="0.1" font-size="15" font-family="'Ubuntu'" stroke-linecap="butt">
            <line clip-path="url(#clipPath74)" fill="none" x1="783"
                x2="948" y1="654" y2="654"/>
            <line clip-path="url(#clipPath75)" fill="none" x1="783"
                x2="948" y1="664" y2="664"/>
            <rect x="781" y="616" clip-path="url(#clipPath71)"
                fill="none" width="168" height="59" stroke-width="1.1"/>
            <rect x="447" y="616" clip-path="url(#clipPath76)"
                fill="rgb(200,230,255)" width="164" height="60"
                stroke="none" stroke-width="1.1"/>
        </g>
        <g stroke-width="1.1" font-size="13" font-weight="bold" stroke-linecap="butt">
            <text xml:space="preserve" x="450" y="631"
                clip-path="url(#clipPath77)" stroke="none">MeanLocalSolarTime</text>
            <text xml:space="preserve" x="491" y="650"
                clip-path="url(#clipPath78)" stroke="none">(from leo)</text>
        </g>
        <g stroke-width="0.1" font-size="15" font-family="'Ubuntu'" stroke-linecap="butt">
            <line clip-path="url(#clipPath79)" fill="none" x1="449"
                x2="609" y1="654" y2="654"/>
            <line clip-path="url(#clipPath80)" fill="none" x1="449"
                x2="609" y1="664" y2="664"/>
            <rect x="447" y="616" clip-path="url(#clipPath76)"
                fill="none" width="163" height="59" stroke-width="1.1"/>
            <rect x="972" y="616" clip-path="url(#clipPath81)"
                fill="rgb(200,230,255)" width="157" height="60"
                stroke="none" stroke-width="1.1"/>
        </g>
        <g stroke-width="1.1" font-size="13" font-weight="bold" stroke-linecap="butt">
            <text xml:space="preserve" x="976" y="631"
                clip-path="url(#clipPath82)" stroke="none">ParabolicLongitude</text>
            <text xml:space="preserve" x="1010" y="650"
                clip-path="url(#clipPath83)" stroke="none">(from geo)</text>
        </g>
        <g stroke-width="0.1" font-size="15" font-family="'Ubuntu'" stroke-linecap="butt">
            <line clip-path="url(#clipPath84)" fill="none" x1="974"
                x2="1127" y1="654" y2="654"/>
            <line clip-path="url(#clipPath85)" fill="none" x1="974"
                x2="1127" y1="664" y2="664"/>
            <rect x="972" y="616" clip-path="url(#clipPath81)"
                fill="none" width="156" height="59" stroke-width="1.1"/>
            <rect x="52" y="420" clip-path="url(#clipPath86)"
                fill="rgb(200,230,255)" width="147" height="60"
                stroke="none" stroke-width="1.1"/>
        </g>
        <g stroke-width="1.1" font-size="13" font-weight="bold" stroke-linecap="butt">
            <text xml:space="preserve" x="59" y="435"
                clip-path="url(#clipPath87)" stroke="none">TunableManeuver</text>
            <text xml:space="preserve" x="60" y="454"
                clip-path="url(#clipPath88)" stroke="none">(from strategies)</text>
        </g>
        <g stroke-width="0.1" font-size="15" font-family="'Ubuntu'" stroke-linecap="butt">
            <line clip-path="url(#clipPath89)" fill="none" x1="54"
                x2="197" y1="458" y2="458"/>
            <line clip-path="url(#clipPath90)" fill="none" x1="54"
                x2="197" y1="468" y2="468"/>
            <rect x="52" y="420" clip-path="url(#clipPath86)"
                fill="none" width="146" height="59" stroke-width="1.1"/>
            <rect x="0" y="0" clip-path="url(#clipPath1)" fill="none"
                width="1150" height="685" stroke-width="1.1"/>
        </g>
        <g stroke-width="1.1" stroke-dasharray="8,7" font-size="11" stroke-linecap="butt">
            <line clip-path="url(#clipPath91)" fill="none" x1="548"
                x2="548" y1="187" y2="132"/>
            <polygon fill="white" clip-path="url(#clipPath92)"
                points=" 548 132 554 146 542 146" stroke="none"/>
            <polygon fill="none" stroke-dasharray="none"
                clip-path="url(#clipPath92)" points=" 548 132 554 146 542 146"/>
            <line clip-path="url(#clipPath93)" fill="none" x1="628"
                x2="628" y1="296" y2="352" stroke-dasharray="none"/>
            <text font-size="13" x="639" y="342"
                clip-path="url(#clipPath94)" stroke-dasharray="none"
                stroke="none" xml:space="preserve">1..*</text>
        </g>
        <g fill="white" stroke-width="1.1" font-size="13"
            stroke-linecap="butt" stroke="white">
            <polygon clip-path="url(#clipPath95)"
                points=" 628 296 633 306 628 316 623 306" stroke="none"/>
            <polygon fill="none" clip-path="url(#clipPath95)"
                points=" 628 296 633 306 628 316 623 306" stroke="black"/>
        </g>
        <g stroke-width="1.1" stroke-dasharray="8,7" font-size="11" stroke-linecap="butt">
            <line clip-path="url(#clipPath96)" fill="none" x1="707"
                x2="707" y1="616" y2="548"/>
            <polygon fill="white" clip-path="url(#clipPath97)"
                points=" 707 548 713 562 701 562" stroke="none"/>
            <polygon fill="none" stroke-dasharray="none"
                clip-path="url(#clipPath97)" points=" 707 548 713 562 701 562"/>
            <line clip-path="url(#clipPath98)" fill="none" x1="338"
                x2="338" y1="615" y2="548"/>
            <polygon fill="white" clip-path="url(#clipPath99)"
                points=" 338 548 344 562 332 562" stroke="none"/>
            <polygon fill="none" stroke-dasharray="none"
                clip-path="url(#clipPath99)" points=" 338 548 344 562 332 562"/>
            <line clip-path="url(#clipPath100)" fill="none" x1="880"
                x2="880" y1="616" y2="548"/>
            <polygon fill="white" clip-path="url(#clipPath101)"
                points=" 880 548 886 562 874 562" stroke="none"/>
            <polygon fill="none" stroke-dasharray="none"
                clip-path="url(#clipPath101)" points=" 880 548 886 562 874 562"/>
            <line clip-path="url(#clipPath102)" fill="none" x1="517"
                x2="517" y1="616" y2="548"/>
            <polygon fill="white" clip-path="url(#clipPath103)"
                points=" 517 548 523 562 511 562" stroke="none"/>
            <polygon fill="none" stroke-dasharray="none"
                clip-path="url(#clipPath103)" points=" 517 548 523 562 511 562"/>
            <line clip-path="url(#clipPath104)" fill="none" x1="1067"
                x2="1067" y1="616" y2="548"/>
            <polygon fill="white" clip-path="url(#clipPath105)"
                points=" 1067 548 1073 562 1061 562" stroke="none"/>
            <polygon fill="none" stroke-dasharray="none"
                clip-path="url(#clipPath105)" points=" 1067 548 1073 562 1061 562"/>
            <line clip-path="url(#clipPath106)" fill="none" x1="124"
                x2="124" y1="296" y2="420" stroke-dasharray="none"/>
            <text font-size="13" x="106" y="319"
                clip-path="url(#clipPath107)" stroke-dasharray="none"
                stroke="none" xml:space="preserve">1</text>
            <text font-size="13" x="91" y="406"
                clip-path="url(#clipPath108)" stroke-dasharray="none"
                stroke="none" xml:space="preserve">1..*</text>
        </g>
        <g fill="white" stroke-width="1.1" font-size="13"
            stroke-linecap="butt" stroke="white">
            <polygon clip-path="url(#clipPath109)"
                points=" 124 296 129 306 124 316 119 306" stroke="none"/>
            <polygon fill="none" clip-path="url(#clipPath109)"
                points=" 124 296 129 306 124 316 119 306" stroke="black"/>
        </g>
    </g>
</svg>
