<?xml version="1.0" encoding="UTF-8"?>
<svg stroke-dasharray="none" shape-rendering="auto"
    font-family="'Dialog'" width="1653" text-rendering="auto"
    fill-opacity="1" color-interpolation="auto" color-rendering="auto"
    font-size="11" fill="black" stroke="black" image-rendering="auto"
    stroke-miterlimit="10" stroke-linecap="square"
    stroke-linejoin="miter" font-style="normal" height="1149"
    stroke-width="1" stroke-dashoffset="0" font-weight="normal" stroke-opacity="1">
    <!--Generated by the Batik Graphics2D SVG Generator-->
    <defs id="genericDefs"/>
    <g>
        <defs id="defs1">
            <clipPath clipPathUnits="userSpaceOnUse" id="clipPath1">
                <path d="M-1 -1 L1641 -1 L1641 1149 L-1 1149 L-1 -1 Z"/>
            </clipPath>
            <clipPath clipPathUnits="userSpaceOnUse" id="clipPath2">
                <path d="M5 6 L65 6 L65 21 L5 21 L5 6 Z"/>
            </clipPath>
            <clipPath clipPathUnits="userSpaceOnUse" id="clipPath3">
                <path d="M65 5 L111 5 L111 22 L65 22 L65 5 Z"/>
            </clipPath>
            <clipPath clipPathUnits="userSpaceOnUse" id="clipPath4">
                <path d="M97 150 L562 150 L562 234 L97 234 L97 150 Z"/>
            </clipPath>
            <clipPath clipPathUnits="userSpaceOnUse" id="clipPath5">
                <path d="M284 152 L375 152 L375 169 L284 169 L284 152 Z"/>
            </clipPath>
            <clipPath clipPathUnits="userSpaceOnUse" id="clipPath6">
                <path d="M99 167 L560 167 L560 179 L99 179 L99 167 Z"/>
            </clipPath>
            <clipPath clipPathUnits="userSpaceOnUse" id="clipPath7">
                <path d="M100 180 L113 180 L113 197 L100 197 L100 180 Z"/>
            </clipPath>
            <clipPath clipPathUnits="userSpaceOnUse" id="clipPath8">
                <path d="M113 180 L185 180 L185 197 L113 197 L113 180 Z"/>
            </clipPath>
            <clipPath clipPathUnits="userSpaceOnUse" id="clipPath9">
                <path d="M185 180 L394 180 L394 197 L185 197 L185 180 Z"/>
            </clipPath>
            <clipPath clipPathUnits="userSpaceOnUse" id="clipPath10">
                <path d="M100 197 L113 197 L113 214 L100 214 L100 197 Z"/>
            </clipPath>
            <clipPath clipPathUnits="userSpaceOnUse" id="clipPath11">
                <path d="M113 197 L281 197 L281 214 L113 214 L113 197 Z"/>
            </clipPath>
            <clipPath clipPathUnits="userSpaceOnUse" id="clipPath12">
                <path d="M281 197 L515 197 L515 214 L281 214 L281 197 Z"/>
            </clipPath>
            <clipPath clipPathUnits="userSpaceOnUse" id="clipPath13">
                <path d="M100 214 L113 214 L113 231 L100 231 L100 214 Z"/>
            </clipPath>
            <clipPath clipPathUnits="userSpaceOnUse" id="clipPath14">
                <path d="M113 214 L149 214 L149 231 L113 231 L113 214 Z"/>
            </clipPath>
            <clipPath clipPathUnits="userSpaceOnUse" id="clipPath15">
                <path d="M149 214 L548 214 L548 231 L149 231 L149 214 Z"/>
            </clipPath>
            <clipPath clipPathUnits="userSpaceOnUse" id="clipPath16">
                <path d="M99 177 L560 177 L560 232 L99 232 L99 177 Z"/>
            </clipPath>
            <clipPath clipPathUnits="userSpaceOnUse" id="clipPath17">
                <path d="M78 518 L301 518 L301 636 L78 636 L78 518 Z"/>
            </clipPath>
            <clipPath clipPathUnits="userSpaceOnUse" id="clipPath18">
                <path d="M138 520 L240 520 L240 537 L138 537 L138 520 Z"/>
            </clipPath>
            <clipPath clipPathUnits="userSpaceOnUse" id="clipPath19">
                <path d="M80 535 L299 535 L299 547 L80 547 L80 535 Z"/>
            </clipPath>
            <clipPath clipPathUnits="userSpaceOnUse" id="clipPath20">
                <path d="M81 548 L94 548 L94 565 L81 565 L81 548 Z"/>
            </clipPath>
            <clipPath clipPathUnits="userSpaceOnUse" id="clipPath21">
                <path d="M94 548 L156 548 L156 565 L94 565 L94 548 Z"/>
            </clipPath>
            <clipPath clipPathUnits="userSpaceOnUse" id="clipPath22">
                <path d="M156 548 L218 548 L218 565 L156 565 L156 548 Z"/>
            </clipPath>
            <clipPath clipPathUnits="userSpaceOnUse" id="clipPath23">
                <path d="M81 565 L94 565 L94 582 L81 582 L81 565 Z"/>
            </clipPath>
            <clipPath clipPathUnits="userSpaceOnUse" id="clipPath24">
                <path d="M94 565 L152 565 L152 582 L94 582 L94 565 Z"/>
            </clipPath>
            <clipPath clipPathUnits="userSpaceOnUse" id="clipPath25">
                <path d="M152 565 L219 565 L219 582 L152 582 L152 565 Z"/>
            </clipPath>
            <clipPath clipPathUnits="userSpaceOnUse" id="clipPath26">
                <path d="M81 582 L94 582 L94 599 L81 599 L81 582 Z"/>
            </clipPath>
            <clipPath clipPathUnits="userSpaceOnUse" id="clipPath27">
                <path d="M94 582 L151 582 L151 599 L94 599 L94 582 Z"/>
            </clipPath>
            <clipPath clipPathUnits="userSpaceOnUse" id="clipPath28">
                <path d="M151 582 L252 582 L252 599 L151 599 L151 582 Z"/>
            </clipPath>
            <clipPath clipPathUnits="userSpaceOnUse" id="clipPath29">
                <path d="M81 599 L94 599 L94 616 L81 616 L81 599 Z"/>
            </clipPath>
            <clipPath clipPathUnits="userSpaceOnUse" id="clipPath30">
                <path d="M94 599 L154 599 L154 616 L94 616 L94 599 Z"/>
            </clipPath>
            <clipPath clipPathUnits="userSpaceOnUse" id="clipPath31">
                <path d="M154 599 L229 599 L229 616 L154 616 L154 599 Z"/>
            </clipPath>
            <clipPath clipPathUnits="userSpaceOnUse" id="clipPath32">
                <path d="M81 616 L94 616 L94 633 L81 633 L81 616 Z"/>
            </clipPath>
            <clipPath clipPathUnits="userSpaceOnUse" id="clipPath33">
                <path d="M94 616 L164 616 L164 633 L94 633 L94 616 Z"/>
            </clipPath>
            <clipPath clipPathUnits="userSpaceOnUse" id="clipPath34">
                <path d="M164 616 L287 616 L287 633 L164 633 L164 616 Z"/>
            </clipPath>
            <clipPath clipPathUnits="userSpaceOnUse" id="clipPath35">
                <path d="M80 545 L299 545 L299 634 L80 634 L80 545 Z"/>
            </clipPath>
            <clipPath clipPathUnits="userSpaceOnUse" id="clipPath36">
                <path d="M356 449 L569 449 L569 546 L356 546 L356 449 Z"/>
            </clipPath>
            <clipPath clipPathUnits="userSpaceOnUse" id="clipPath37">
                <path d="M418 451 L506 451 L506 466 L418 466 L418 451 Z"/>
            </clipPath>
            <clipPath clipPathUnits="userSpaceOnUse" id="clipPath38">
                <path d="M429 466 L495 466 L495 481 L429 481 L429 466 Z"/>
            </clipPath>
            <clipPath clipPathUnits="userSpaceOnUse" id="clipPath39">
                <path d="M358 479 L567 479 L567 491 L358 491 L358 479 Z"/>
            </clipPath>
            <clipPath clipPathUnits="userSpaceOnUse" id="clipPath40">
                <path d="M359 492 L372 492 L372 509 L359 509 L359 492 Z"/>
            </clipPath>
            <clipPath clipPathUnits="userSpaceOnUse" id="clipPath41">
                <path d="M372 492 L434 492 L434 509 L372 509 L372 492 Z"/>
            </clipPath>
            <clipPath clipPathUnits="userSpaceOnUse" id="clipPath42">
                <path d="M434 492 L496 492 L496 509 L434 509 L434 492 Z"/>
            </clipPath>
            <clipPath clipPathUnits="userSpaceOnUse" id="clipPath43">
                <path d="M359 509 L372 509 L372 526 L359 526 L359 509 Z"/>
            </clipPath>
            <clipPath clipPathUnits="userSpaceOnUse" id="clipPath44">
                <path d="M372 509 L434 509 L434 526 L372 526 L372 509 Z"/>
            </clipPath>
            <clipPath clipPathUnits="userSpaceOnUse" id="clipPath45">
                <path d="M434 509 L501 509 L501 526 L434 526 L434 509 Z"/>
            </clipPath>
            <clipPath clipPathUnits="userSpaceOnUse" id="clipPath46">
                <path d="M359 526 L372 526 L372 543 L359 543 L359 526 Z"/>
            </clipPath>
            <clipPath clipPathUnits="userSpaceOnUse" id="clipPath47">
                <path d="M372 526 L488 526 L488 543 L372 543 L372 526 Z"/>
            </clipPath>
            <clipPath clipPathUnits="userSpaceOnUse" id="clipPath48">
                <path d="M488 526 L555 526 L555 543 L488 543 L488 526 Z"/>
            </clipPath>
            <clipPath clipPathUnits="userSpaceOnUse" id="clipPath49">
                <path d="M358 489 L567 489 L567 544 L358 544 L358 489 Z"/>
            </clipPath>
            <clipPath clipPathUnits="userSpaceOnUse" id="clipPath50">
                <path d="M39 309 L212 309 L212 372 L39 372 L39 309 Z"/>
            </clipPath>
            <clipPath clipPathUnits="userSpaceOnUse" id="clipPath51">
                <path d="M81 311 L169 311 L169 326 L81 326 L81 311 Z"/>
            </clipPath>
            <clipPath clipPathUnits="userSpaceOnUse" id="clipPath52">
                <path d="M68 326 L183 326 L183 341 L68 341 L68 326 Z"/>
            </clipPath>
            <clipPath clipPathUnits="userSpaceOnUse" id="clipPath53">
                <path d="M41 339 L210 339 L210 351 L41 351 L41 339 Z"/>
            </clipPath>
            <clipPath clipPathUnits="userSpaceOnUse" id="clipPath54">
                <path d="M42 352 L55 352 L55 369 L42 369 L42 352 Z"/>
            </clipPath>
            <clipPath clipPathUnits="userSpaceOnUse" id="clipPath55">
                <path d="M55 352 L152 352 L152 369 L55 369 L55 352 Z"/>
            </clipPath>
            <clipPath clipPathUnits="userSpaceOnUse" id="clipPath56">
                <path d="M152 352 L198 352 L198 369 L152 369 L152 352 Z"/>
            </clipPath>
            <clipPath clipPathUnits="userSpaceOnUse" id="clipPath57">
                <path d="M41 349 L210 349 L210 370 L41 370 L41 349 Z"/>
            </clipPath>
            <clipPath clipPathUnits="userSpaceOnUse" id="clipPath58">
                <path d="M652 642 L829 642 L829 700 L652 700 L652 642 Z"/>
            </clipPath>
            <clipPath clipPathUnits="userSpaceOnUse" id="clipPath59">
                <path d="M659 644 L822 644 L822 661 L659 661 L659 644 Z"/>
            </clipPath>
            <clipPath clipPathUnits="userSpaceOnUse" id="clipPath60">
                <path d="M699 661 L781 661 L781 678 L699 678 L699 661 Z"/>
            </clipPath>
            <clipPath clipPathUnits="userSpaceOnUse" id="clipPath61">
                <path d="M654 676 L827 676 L827 688 L654 688 L654 676 Z"/>
            </clipPath>
            <clipPath clipPathUnits="userSpaceOnUse" id="clipPath62">
                <path d="M654 686 L827 686 L827 698 L654 698 L654 686 Z"/>
            </clipPath>
            <clipPath clipPathUnits="userSpaceOnUse" id="clipPath63">
                <path d="M462 641 L604 641 L604 699 L462 699 L462 641 Z"/>
            </clipPath>
            <clipPath clipPathUnits="userSpaceOnUse" id="clipPath64">
                <path d="M469 643 L597 643 L597 660 L469 660 L469 643 Z"/>
            </clipPath>
            <clipPath clipPathUnits="userSpaceOnUse" id="clipPath65">
                <path d="M492 660 L574 660 L574 677 L492 677 L492 660 Z"/>
            </clipPath>
            <clipPath clipPathUnits="userSpaceOnUse" id="clipPath66">
                <path d="M464 675 L602 675 L602 687 L464 687 L464 675 Z"/>
            </clipPath>
            <clipPath clipPathUnits="userSpaceOnUse" id="clipPath67">
                <path d="M464 685 L602 685 L602 697 L464 697 L464 685 Z"/>
            </clipPath>
            <clipPath clipPathUnits="userSpaceOnUse" id="clipPath68">
                <path d="M279 644 L419 644 L419 702 L279 702 L279 644 Z"/>
            </clipPath>
            <clipPath clipPathUnits="userSpaceOnUse" id="clipPath69">
                <path d="M286 646 L412 646 L412 663 L286 663 L286 646 Z"/>
            </clipPath>
            <clipPath clipPathUnits="userSpaceOnUse" id="clipPath70">
                <path d="M311 663 L387 663 L387 680 L311 680 L311 663 Z"/>
            </clipPath>
            <clipPath clipPathUnits="userSpaceOnUse" id="clipPath71">
                <path d="M281 678 L417 678 L417 690 L281 690 L281 678 Z"/>
            </clipPath>
            <clipPath clipPathUnits="userSpaceOnUse" id="clipPath72">
                <path d="M281 688 L417 688 L417 700 L281 700 L281 688 Z"/>
            </clipPath>
            <clipPath clipPathUnits="userSpaceOnUse" id="clipPath73">
                <path d="M28 409 L173 409 L173 467 L28 467 L28 409 Z"/>
            </clipPath>
            <clipPath clipPathUnits="userSpaceOnUse" id="clipPath74">
                <path d="M35 411 L166 411 L166 428 L35 428 L35 411 Z"/>
            </clipPath>
            <clipPath clipPathUnits="userSpaceOnUse" id="clipPath75">
                <path d="M36 428 L165 428 L165 445 L36 445 L36 428 Z"/>
            </clipPath>
            <clipPath clipPathUnits="userSpaceOnUse" id="clipPath76">
                <path d="M30 443 L171 443 L171 455 L30 455 L30 443 Z"/>
            </clipPath>
            <clipPath clipPathUnits="userSpaceOnUse" id="clipPath77">
                <path d="M30 453 L171 453 L171 465 L30 465 L30 453 Z"/>
            </clipPath>
            <clipPath clipPathUnits="userSpaceOnUse" id="clipPath78">
                <path d="M189 33 L711 33 L711 111 L189 111 L189 33 Z"/>
            </clipPath>
            <clipPath clipPathUnits="userSpaceOnUse" id="clipPath79">
                <path d="M406 35 L494 35 L494 50 L406 50 L406 35 Z"/>
            </clipPath>
            <clipPath clipPathUnits="userSpaceOnUse" id="clipPath80">
                <path d="M384 50 L515 50 L515 65 L384 65 L384 50 Z"/>
            </clipPath>
            <clipPath clipPathUnits="userSpaceOnUse" id="clipPath81">
                <path d="M405 65 L495 65 L495 80 L405 80 L405 65 Z"/>
            </clipPath>
            <clipPath clipPathUnits="userSpaceOnUse" id="clipPath82">
                <path d="M191 78 L709 78 L709 90 L191 90 L191 78 Z"/>
            </clipPath>
            <clipPath clipPathUnits="userSpaceOnUse" id="clipPath83">
                <path d="M192 91 L205 91 L205 108 L192 108 L192 91 Z"/>
            </clipPath>
            <clipPath clipPathUnits="userSpaceOnUse" id="clipPath84">
                <path d="M205 91 L287 91 L287 108 L205 108 L205 91 Z"/>
            </clipPath>
            <clipPath clipPathUnits="userSpaceOnUse" id="clipPath85">
                <path d="M287 91 L697 91 L697 108 L287 108 L287 91 Z"/>
            </clipPath>
            <clipPath clipPathUnits="userSpaceOnUse" id="clipPath86">
                <path d="M191 88 L709 88 L709 109 L191 109 L191 88 Z"/>
            </clipPath>
            <clipPath clipPathUnits="userSpaceOnUse" id="clipPath87">
                <path d="M245 283 L452 283 L452 380 L245 380 L245 283 Z"/>
            </clipPath>
            <clipPath clipPathUnits="userSpaceOnUse" id="clipPath88">
                <path d="M304 285 L392 285 L392 300 L304 300 L304 285 Z"/>
            </clipPath>
            <clipPath clipPathUnits="userSpaceOnUse" id="clipPath89">
                <path d="M302 300 L394 300 L394 315 L302 315 L302 300 Z"/>
            </clipPath>
            <clipPath clipPathUnits="userSpaceOnUse" id="clipPath90">
                <path d="M247 313 L450 313 L450 325 L247 325 L247 313 Z"/>
            </clipPath>
            <clipPath clipPathUnits="userSpaceOnUse" id="clipPath91">
                <path d="M248 326 L261 326 L261 343 L248 343 L248 326 Z"/>
            </clipPath>
            <clipPath clipPathUnits="userSpaceOnUse" id="clipPath92">
                <path d="M261 326 L306 326 L306 343 L261 343 L261 326 Z"/>
            </clipPath>
            <clipPath clipPathUnits="userSpaceOnUse" id="clipPath93">
                <path d="M306 326 L373 326 L373 343 L306 343 L306 326 Z"/>
            </clipPath>
            <clipPath clipPathUnits="userSpaceOnUse" id="clipPath94">
                <path d="M248 343 L261 343 L261 360 L248 360 L248 343 Z"/>
            </clipPath>
            <clipPath clipPathUnits="userSpaceOnUse" id="clipPath95">
                <path d="M261 343 L310 343 L310 360 L261 360 L261 343 Z"/>
            </clipPath>
            <clipPath clipPathUnits="userSpaceOnUse" id="clipPath96">
                <path d="M310 343 L377 343 L377 360 L310 360 L310 343 Z"/>
            </clipPath>
            <clipPath clipPathUnits="userSpaceOnUse" id="clipPath97">
                <path d="M248 360 L261 360 L261 377 L248 377 L248 360 Z"/>
            </clipPath>
            <clipPath clipPathUnits="userSpaceOnUse" id="clipPath98">
                <path d="M261 360 L350 360 L350 377 L261 377 L261 360 Z"/>
            </clipPath>
            <clipPath clipPathUnits="userSpaceOnUse" id="clipPath99">
                <path d="M350 360 L425 360 L425 377 L350 377 L350 360 Z"/>
            </clipPath>
            <clipPath clipPathUnits="userSpaceOnUse" id="clipPath100">
                <path d="M247 323 L450 323 L450 378 L247 378 L247 323 Z"/>
            </clipPath>
            <clipPath clipPathUnits="userSpaceOnUse" id="clipPath101">
                <path d="M17 219 L342 219 L342 328 L17 328 L17 219 Z"/>
            </clipPath>
            <clipPath clipPathUnits="userSpaceOnUse" id="clipPath102">
                <path d="M133 284 L158 284 L158 301 L133 301 L133 284 Z"/>
            </clipPath>
            <clipPath clipPathUnits="userSpaceOnUse" id="clipPath103">
                <path d="M161 232 L174 232 L174 255 L161 255 L161 232 Z"/>
            </clipPath>
            <clipPath clipPathUnits="userSpaceOnUse" id="clipPath104">
                <path d="M365 219 L669 219 L669 468 L365 468 L365 219 Z"/>
            </clipPath>
            <clipPath clipPathUnits="userSpaceOnUse" id="clipPath105">
                <path d="M477 424 L502 424 L502 441 L477 441 L477 424 Z"/>
            </clipPath>
            <clipPath clipPathUnits="userSpaceOnUse" id="clipPath106">
                <path d="M505 232 L518 232 L518 255 L505 255 L505 232 Z"/>
            </clipPath>
            <clipPath clipPathUnits="userSpaceOnUse" id="clipPath107">
                <path d="M369 96 L410 96 L410 166 L369 166 L369 96 Z"/>
            </clipPath>
            <clipPath clipPathUnits="userSpaceOnUse" id="clipPath108">
                <path d="M382 109 L397 109 L397 126 L382 126 L382 109 Z"/>
            </clipPath>
            <clipPath clipPathUnits="userSpaceOnUse" id="clipPath109">
                <path d="M175 364 L363 364 L363 535 L175 535 L175 364 Z"/>
            </clipPath>
            <clipPath clipPathUnits="userSpaceOnUse" id="clipPath110">
                <path d="M-1 452 L303 452 L303 537 L-1 537 L-1 452 Z"/>
            </clipPath>
            <clipPath clipPathUnits="userSpaceOnUse" id="clipPath111">
                <path d="M125 493 L135 493 L135 510 L125 510 L125 493 Z"/>
            </clipPath>
            <clipPath clipPathUnits="userSpaceOnUse" id="clipPath112">
                <path d="M138 465 L151 465 L151 488 L138 488 L138 465 Z"/>
            </clipPath>
            <clipPath clipPathUnits="userSpaceOnUse" id="clipPath113">
                <path d="M328 364 L477 364 L477 466 L328 466 L328 364 Z"/>
            </clipPath>
            <clipPath clipPathUnits="userSpaceOnUse" id="clipPath114">
                <path d="M341 377 L356 377 L356 394 L341 394 L341 377 Z"/>
            </clipPath>
            <clipPath clipPathUnits="userSpaceOnUse" id="clipPath115">
                <path d="M442 530 L755 530 L755 659 L442 659 L442 530 Z"/>
            </clipPath>
            <clipPath clipPathUnits="userSpaceOnUse" id="clipPath116">
                <path d="M455 543 L470 543 L470 560 L455 560 L455 543 Z"/>
            </clipPath>
            <clipPath clipPathUnits="userSpaceOnUse" id="clipPath117">
                <path d="M442 530 L548 530 L548 658 L442 658 L442 530 Z"/>
            </clipPath>
            <clipPath clipPathUnits="userSpaceOnUse" id="clipPath118">
                <path d="M335 530 L483 530 L483 661 L335 661 L335 530 Z"/>
            </clipPath>
            <clipPath clipPathUnits="userSpaceOnUse" id="clipPath119">
                <path d="M92 357 L133 357 L133 425 L92 425 L92 357 Z"/>
            </clipPath>
            <clipPath clipPathUnits="userSpaceOnUse" id="clipPath120">
                <path d="M105 370 L120 370 L120 387 L105 387 L105 370 Z"/>
            </clipPath>
        </defs>
        <g font-size="11" fill="white" stroke-linejoin="round"
            stroke="white" stroke-width="0" stroke-miterlimit="0">
            <rect x="0" y="0" clip-path="url(#clipPath1)" width="1640"
                height="1148" stroke="none"/>
        </g>
        <g stroke-width="0.1" font-size="11" stroke-linecap="butt">
            <line clip-path="url(#clipPath1)" fill="none" x1="1"
                x2="115" y1="29" y2="29"/>
            <line clip-path="url(#clipPath1)" fill="none" x1="115"
                x2="122" y1="29" y2="15"/>
            <line clip-path="url(#clipPath1)" fill="none" x1="122"
                x2="122" y1="15" y2="1"/>
            <text x="6" y="18" clip-path="url(#clipPath2)" stroke="none"
                font-weight="bold" xml:space="preserve">package </text>
            <text font-size="11" x="66" y="19"
                clip-path="url(#clipPath3)" stroke="none" xml:space="preserve">control</text>
            <rect x="98" y="151" clip-path="url(#clipPath4)"
                fill="rgb(237,247,200)" width="463" height="82" stroke="none"/>
        </g>
        <g font-size="11" stroke-linecap="butt" fill="rgb(106,88,75)"
            stroke="rgb(106,88,75)" font-weight="bold" stroke-width="0.1">
            <text xml:space="preserve" x="285" y="166"
                clip-path="url(#clipPath5)" stroke="none">ControlLoop</text>
            <line clip-path="url(#clipPath6)" fill="none" x1="100"
                x2="559" y1="168" y2="168"/>
            <text x="101" y="194" clip-path="url(#clipPath7)"
                fill="black" stroke="none" font-weight="normal" xml:space="preserve">+</text>
            <text x="114" y="194" clip-path="url(#clipPath8)"
                fill="black" stroke="none" font-weight="normal" xml:space="preserve">addControl</text>
            <text x="186" y="194" clip-path="url(#clipPath9)"
                fill="black" stroke="none" font-weight="normal" xml:space="preserve">(scale : double, goal : SKControl)</text>
            <text x="101" y="211" clip-path="url(#clipPath10)"
                fill="black" stroke="none" font-weight="normal" xml:space="preserve">+</text>
            <text x="114" y="211" clip-path="url(#clipPath11)"
                fill="black" stroke="none" font-weight="normal" xml:space="preserve">addControlParametersList</text>
            <text x="282" y="211" clip-path="url(#clipPath12)"
                fill="black" stroke="none" font-weight="normal" xml:space="preserve">(parametersList : SKParametersList)</text>
            <text x="101" y="228" clip-path="url(#clipPath13)"
                fill="black" stroke="none" font-weight="normal" xml:space="preserve">+</text>
            <text x="114" y="228" clip-path="url(#clipPath14)"
                fill="black" stroke="none" font-weight="normal" xml:space="preserve">apply</text>
            <text x="150" y="228" clip-path="url(#clipPath15)"
                fill="black" stroke="none" font-weight="normal" xml:space="preserve">(origin : ScenarioState, target : AbsoluteDate) : ScenarioState</text>
            <line clip-path="url(#clipPath16)" fill="none" x1="100"
                x2="559" y1="178" y2="178"/>
            <rect x="98" y="151" clip-path="url(#clipPath4)" fill="none"
                width="462" height="81" stroke-width="1.1"/>
        </g>
        <g fill="rgb(237,247,200)" stroke-width="1.1" font-size="11"
            stroke-linecap="butt" stroke="rgb(237,247,200)">
            <rect x="79" y="519" clip-path="url(#clipPath17)"
                width="221" height="116" stroke="none"/>
        </g>
        <g font-size="11" stroke-linecap="butt" fill="rgb(106,88,75)"
            font-style="italic" stroke="rgb(106,88,75)"
            font-weight="bold" stroke-width="1.1">
            <text xml:space="preserve" x="139" y="534"
                clip-path="url(#clipPath18)" stroke="none">SKParameter</text>
        </g>
        <g fill="rgb(106,88,75)" stroke-width="0.1" font-size="11"
            stroke-linecap="butt" stroke="rgb(106,88,75)">
            <line clip-path="url(#clipPath19)" fill="none" x1="81"
                x2="298" y1="536" y2="536"/>
            <text font-size="11" x="82" y="562"
                clip-path="url(#clipPath20)" fill="black" stroke="none" xml:space="preserve">+</text>
            <text font-size="11" x="95" y="562"
                clip-path="url(#clipPath21)" fill="black" stroke="none" xml:space="preserve">getName</text>
            <text font-size="11" x="157" y="562"
                clip-path="url(#clipPath22)" fill="black" stroke="none" xml:space="preserve">() : String</text>
            <text font-size="11" x="82" y="579"
                clip-path="url(#clipPath23)" fill="black" stroke="none" xml:space="preserve">+</text>
            <text font-size="11" x="95" y="579"
                clip-path="url(#clipPath24)" fill="black" stroke="none" xml:space="preserve">getValue</text>
            <text font-size="11" x="153" y="579"
                clip-path="url(#clipPath25)" fill="black" stroke="none" xml:space="preserve">() : double</text>
            <text font-size="11" x="82" y="596"
                clip-path="url(#clipPath26)" fill="black" stroke="none" xml:space="preserve">+</text>
            <text font-size="11" x="95" y="596"
                clip-path="url(#clipPath27)" fill="black" stroke="none" xml:space="preserve">setValue</text>
            <text font-size="11" x="152" y="596"
                clip-path="url(#clipPath28)" fill="black" stroke="none" xml:space="preserve">(value : double)</text>
            <text font-size="11" x="82" y="613"
                clip-path="url(#clipPath29)" fill="black" stroke="none" xml:space="preserve">+</text>
            <text font-size="11" x="95" y="613"
                clip-path="url(#clipPath30)" fill="black" stroke="none" xml:space="preserve">isTunable</text>
            <text font-size="11" x="155" y="613"
                clip-path="url(#clipPath31)" fill="black" stroke="none" xml:space="preserve">() : boolean</text>
            <text font-size="11" x="82" y="630"
                clip-path="url(#clipPath32)" fill="black" stroke="none" xml:space="preserve">+</text>
            <text font-size="11" x="95" y="630"
                clip-path="url(#clipPath33)" fill="black" stroke="none" xml:space="preserve">setTunable</text>
            <text font-size="11" x="165" y="630"
                clip-path="url(#clipPath34)" fill="black" stroke="none" xml:space="preserve">(tunable : boolean)</text>
            <line clip-path="url(#clipPath35)" fill="none" x1="81"
                x2="298" y1="546" y2="546"/>
            <rect x="79" y="519" clip-path="url(#clipPath17)"
                fill="none" width="220" height="115" stroke-width="1.1"/>
            <rect x="357" y="450" clip-path="url(#clipPath36)"
                fill="rgb(244,242,212)" width="211" height="95"
                stroke="none" stroke-width="1.1"/>
            <text x="419" y="463" clip-path="url(#clipPath37)"
                fill="rgb(110,44,18)" stroke="none" stroke-width="1.1" xml:space="preserve">&lt;&lt;interface&gt;&gt;</text>
        </g>
        <g font-size="11" stroke-linecap="butt" fill="rgb(110,44,18)"
            stroke="rgb(110,44,18)" font-weight="bold" stroke-width="1.1">
            <text xml:space="preserve" x="430" y="478"
                clip-path="url(#clipPath38)" stroke="none">SKControl</text>
            <line clip-path="url(#clipPath39)" fill="none" x1="359"
                x2="566" y1="480" y2="480" stroke-width="0.1"/>
        </g>
        <g stroke-width="0.1" font-size="11" stroke-linecap="butt">
            <text xml:space="preserve" x="360" y="506"
                clip-path="url(#clipPath40)" stroke="none">+</text>
            <text xml:space="preserve" x="373" y="506"
                clip-path="url(#clipPath41)" stroke="none">getName</text>
            <text xml:space="preserve" x="435" y="506"
                clip-path="url(#clipPath42)" stroke="none">() : String</text>
            <text xml:space="preserve" x="360" y="523"
                clip-path="url(#clipPath43)" stroke="none">+</text>
            <text xml:space="preserve" x="373" y="523"
                clip-path="url(#clipPath44)" stroke="none">getTarget</text>
            <text xml:space="preserve" x="435" y="523"
                clip-path="url(#clipPath45)" stroke="none">() : double</text>
            <text xml:space="preserve" x="360" y="540"
                clip-path="url(#clipPath46)" stroke="none">+</text>
            <text xml:space="preserve" x="373" y="540"
                clip-path="url(#clipPath47)" stroke="none">getAchievedValue</text>
            <text xml:space="preserve" x="489" y="540"
                clip-path="url(#clipPath48)" stroke="none">() : double</text>
            <line clip-path="url(#clipPath49)" fill="none" x1="359"
                x2="566" y1="490" y2="490" stroke="rgb(110,44,18)"/>
        </g>
        <g fill="rgb(110,44,18)" stroke-width="1.1" font-size="11"
            stroke-linecap="butt" stroke="rgb(110,44,18)">
            <rect x="357" y="450" clip-path="url(#clipPath36)"
                fill="none" width="210" height="94"/>
            <rect x="40" y="310" clip-path="url(#clipPath50)"
                fill="rgb(244,242,212)" width="171" height="61" stroke="none"/>
            <text xml:space="preserve" x="82" y="323"
                clip-path="url(#clipPath51)" stroke="none">&lt;&lt;interface&gt;&gt;</text>
            <text x="69" y="338" clip-path="url(#clipPath52)"
                stroke="none" font-weight="bold" xml:space="preserve">SKParametersList</text>
            <line clip-path="url(#clipPath53)" fill="none" x1="42"
                x2="209" y1="340" y2="340" stroke-width="0.1"/>
        </g>
        <g stroke-width="0.1" font-size="11" stroke-linecap="butt">
            <text xml:space="preserve" x="43" y="366"
                clip-path="url(#clipPath54)" stroke="none">+</text>
            <text xml:space="preserve" x="56" y="366"
                clip-path="url(#clipPath55)" stroke="none">getParameters</text>
            <text xml:space="preserve" x="153" y="366"
                clip-path="url(#clipPath56)" stroke="none">() : List</text>
            <line clip-path="url(#clipPath57)" fill="none" x1="42"
                x2="209" y1="350" y2="350" stroke="rgb(110,44,18)"/>
        </g>
        <g fill="rgb(110,44,18)" stroke-width="1.1" font-size="11"
            stroke-linecap="butt" stroke="rgb(110,44,18)">
            <rect x="40" y="310" clip-path="url(#clipPath50)"
                fill="none" width="170" height="60"/>
            <rect x="653" y="643" clip-path="url(#clipPath58)"
                fill="rgb(237,247,200)" width="175" height="56" stroke="none"/>
        </g>
        <g font-size="11" stroke-linecap="butt" fill="rgb(106,88,75)"
            stroke="rgb(106,88,75)" font-weight="bold" stroke-width="1.1">
            <text xml:space="preserve" x="660" y="658"
                clip-path="url(#clipPath59)" stroke="none">LongitudeSlotMargins</text>
            <text xml:space="preserve" x="700" y="675"
                clip-path="url(#clipPath60)" stroke="none">(from geo)</text>
            <line clip-path="url(#clipPath61)" fill="none" x1="655"
                x2="826" y1="677" y2="677" stroke-width="0.1"/>
            <line clip-path="url(#clipPath62)" fill="none" x1="655"
                x2="826" y1="687" y2="687" stroke-width="0.1"/>
            <rect x="653" y="643" clip-path="url(#clipPath58)"
                fill="none" width="174" height="55"/>
        </g>
        <g fill="rgb(237,247,200)" stroke-width="1.1" font-size="11"
            stroke-linecap="butt" stroke="rgb(237,247,200)">
            <rect x="463" y="642" clip-path="url(#clipPath63)"
                width="140" height="56" stroke="none"/>
        </g>
        <g font-size="11" stroke-linecap="butt" fill="rgb(106,88,75)"
            stroke="rgb(106,88,75)" font-weight="bold" stroke-width="1.1">
            <text xml:space="preserve" x="470" y="657"
                clip-path="url(#clipPath64)" stroke="none">EccentricityCircle</text>
            <text xml:space="preserve" x="493" y="674"
                clip-path="url(#clipPath65)" stroke="none">(from geo)</text>
            <line clip-path="url(#clipPath66)" fill="none" x1="465"
                x2="601" y1="676" y2="676" stroke-width="0.1"/>
            <line clip-path="url(#clipPath67)" fill="none" x1="465"
                x2="601" y1="686" y2="686" stroke-width="0.1"/>
            <rect x="463" y="642" clip-path="url(#clipPath63)"
                fill="none" width="139" height="55"/>
        </g>
        <g fill="rgb(237,247,200)" stroke-width="1.1" font-size="11"
            stroke-linecap="butt" stroke="rgb(237,247,200)">
            <rect x="280" y="645" clip-path="url(#clipPath68)"
                width="138" height="56" stroke="none"/>
        </g>
        <g font-size="11" stroke-linecap="butt" fill="rgb(106,88,75)"
            stroke="rgb(106,88,75)" font-weight="bold" stroke-width="1.1">
            <text xml:space="preserve" x="287" y="660"
                clip-path="url(#clipPath69)" stroke="none">GroundTrackGrid</text>
            <text xml:space="preserve" x="312" y="677"
                clip-path="url(#clipPath70)" stroke="none">(from leo)</text>
            <line clip-path="url(#clipPath71)" fill="none" x1="282"
                x2="416" y1="679" y2="679" stroke-width="0.1"/>
            <line clip-path="url(#clipPath72)" fill="none" x1="282"
                x2="416" y1="689" y2="689" stroke-width="0.1"/>
            <rect x="280" y="645" clip-path="url(#clipPath68)"
                fill="none" width="137" height="55"/>
        </g>
        <g fill="rgb(237,247,200)" stroke-width="1.1" font-size="11"
            stroke-linecap="butt" stroke="rgb(237,247,200)">
            <rect x="29" y="410" clip-path="url(#clipPath73)"
                width="143" height="56" stroke="none"/>
        </g>
        <g font-size="11" stroke-linecap="butt" fill="rgb(106,88,75)"
            stroke="rgb(106,88,75)" font-weight="bold" stroke-width="1.1">
            <text xml:space="preserve" x="36" y="425"
                clip-path="url(#clipPath74)" stroke="none">TunableManeuver</text>
            <text xml:space="preserve" x="37" y="442"
                clip-path="url(#clipPath75)" stroke="none">(from strategies)</text>
            <line clip-path="url(#clipPath76)" fill="none" x1="31"
                x2="170" y1="444" y2="444" stroke-width="0.1"/>
            <line clip-path="url(#clipPath77)" fill="none" x1="31"
                x2="170" y1="454" y2="454" stroke-width="0.1"/>
            <rect x="29" y="410" clip-path="url(#clipPath73)"
                fill="none" width="142" height="55"/>
        </g>
        <g fill="rgb(244,242,212)" stroke-width="1.1" font-size="11"
            stroke-linecap="butt" stroke="rgb(244,242,212)">
            <rect x="190" y="34" clip-path="url(#clipPath78)"
                width="520" height="76" stroke="none"/>
            <text x="407" y="47" clip-path="url(#clipPath79)"
                fill="rgb(110,44,18)" stroke="none" xml:space="preserve">&lt;&lt;interface&gt;&gt;</text>
            <text x="385" y="62" clip-path="url(#clipPath80)"
                fill="rgb(110,44,18)" stroke="none" font-weight="bold" xml:space="preserve">ScenarioComponent</text>
            <text x="406" y="77" clip-path="url(#clipPath81)"
                fill="rgb(110,44,18)" stroke="none" xml:space="preserve">(from scenario)</text>
            <line clip-path="url(#clipPath82)" fill="none" x1="192"
                x2="708" y1="79" y2="79" stroke="rgb(110,44,18)" stroke-width="0.1"/>
        </g>
        <g stroke-width="0.1" font-size="11" stroke-linecap="butt">
            <text xml:space="preserve" x="193" y="105"
                clip-path="url(#clipPath83)" stroke="none">+</text>
            <text xml:space="preserve" x="206" y="105"
                clip-path="url(#clipPath84)" stroke="none">updateState</text>
            <text xml:space="preserve" x="288" y="105"
                clip-path="url(#clipPath85)" stroke="none">(original : ScenarioState, target : AbsoluteDate) : ScenarioState</text>
            <line clip-path="url(#clipPath86)" fill="none" x1="192"
                x2="708" y1="89" y2="89" stroke="rgb(110,44,18)"/>
        </g>
        <g fill="rgb(110,44,18)" stroke-width="1.1" font-size="11"
            stroke-linecap="butt" stroke="rgb(110,44,18)">
            <rect x="190" y="34" clip-path="url(#clipPath78)"
                fill="none" width="519" height="75"/>
            <rect x="246" y="284" clip-path="url(#clipPath87)"
                fill="rgb(244,242,212)" width="205" height="95" stroke="none"/>
            <text xml:space="preserve" x="305" y="297"
                clip-path="url(#clipPath88)" stroke="none">&lt;&lt;interface&gt;&gt;</text>
            <text x="303" y="312" clip-path="url(#clipPath89)"
                stroke="none" font-weight="bold" xml:space="preserve">Constrainable</text>
            <line clip-path="url(#clipPath90)" fill="none" x1="248"
                x2="449" y1="314" y2="314" stroke-width="0.1"/>
        </g>
        <g stroke-width="0.1" font-size="11" stroke-linecap="butt">
            <text xml:space="preserve" x="249" y="340"
                clip-path="url(#clipPath91)" stroke="none">+</text>
            <text xml:space="preserve" x="262" y="340"
                clip-path="url(#clipPath92)" stroke="none">getMin</text>
            <text xml:space="preserve" x="307" y="340"
                clip-path="url(#clipPath93)" stroke="none">() : double</text>
            <text xml:space="preserve" x="249" y="357"
                clip-path="url(#clipPath94)" stroke="none">+</text>
            <text xml:space="preserve" x="262" y="357"
                clip-path="url(#clipPath95)" stroke="none">getMax</text>
            <text xml:space="preserve" x="311" y="357"
                clip-path="url(#clipPath96)" stroke="none">() : double</text>
            <text xml:space="preserve" x="249" y="374"
                clip-path="url(#clipPath97)" stroke="none">+</text>
            <text xml:space="preserve" x="262" y="374"
                clip-path="url(#clipPath98)" stroke="none">isConstrained</text>
            <text xml:space="preserve" x="351" y="374"
                clip-path="url(#clipPath99)" stroke="none">() : boolean</text>
            <line clip-path="url(#clipPath100)" fill="none" x1="248"
                x2="449" y1="324" y2="324" stroke="rgb(110,44,18)"/>
        </g>
        <g fill="rgb(110,44,18)" stroke-width="1.1" font-size="11"
            stroke-linecap="butt" stroke="rgb(110,44,18)">
            <rect x="246" y="284" clip-path="url(#clipPath87)"
                fill="none" width="204" height="94"/>
            <rect x="0" y="0" clip-path="url(#clipPath1)" fill="none"
                width="1639" height="1147" stroke="black"/>
            <line clip-path="url(#clipPath101)" fill="none" x1="167"
                x2="167" y1="233" y2="310" stroke="rgb(153,15,15)"/>
            <text font-size="11" x="134" y="298"
                clip-path="url(#clipPath102)" fill="rgb(153,15,15)"
                stroke="none" xml:space="preserve">1..*</text>
            <polygon fill="white" clip-path="url(#clipPath103)"
                points=" 167 233 172 243 167 253 162 243" stroke="none"/>
            <polygon fill="none" clip-path="url(#clipPath103)"
                points=" 167 233 172 243 167 253 162 243" stroke="rgb(153,15,15)"/>
            <line clip-path="url(#clipPath104)" fill="none" x1="511"
                x2="511" y1="233" y2="450" stroke="rgb(153,15,15)"/>
            <text font-size="11" x="478" y="438"
                clip-path="url(#clipPath105)" fill="rgb(153,15,15)"
                stroke="none" xml:space="preserve">1..*</text>
            <polygon fill="white" clip-path="url(#clipPath106)"
                points=" 511 233 516 243 511 253 506 243" stroke="none"/>
            <polygon fill="none" clip-path="url(#clipPath106)"
                points=" 511 233 516 243 511 253 506 243" stroke="rgb(153,15,15)"/>
            <line clip-path="url(#clipPath107)" fill="none" x1="389"
                x2="389" y1="151" y2="110" stroke-dasharray="8,7"/>
            <polygon fill="white" stroke-dasharray="8,7"
                clip-path="url(#clipPath108)"
                points=" 389 110 395 124 383 124" stroke="none"/>
            <polygon fill="none" clip-path="url(#clipPath108)" points=" 389 110 395 124 383 124"/>
            <line clip-path="url(#clipPath109)" fill="none" x1="189"
                x2="189" y1="520" y2="411" stroke="black"/>
            <line clip-path="url(#clipPath109)" fill="none" x1="189"
                x2="348" y1="411" y2="411" stroke="black"/>
            <line clip-path="url(#clipPath109)" fill="none" x1="348"
                x2="348" y1="411" y2="378" stroke="black"/>
            <line clip-path="url(#clipPath110)" fill="none" x1="144"
                x2="144" y1="466" y2="519" stroke="rgb(153,15,15)"/>
            <text font-size="11" x="126" y="507"
                clip-path="url(#clipPath111)" fill="rgb(153,15,15)"
                stroke="none" xml:space="preserve">2</text>
            <polygon fill="white" clip-path="url(#clipPath112)"
                points=" 144 466 149 476 144 486 139 476" stroke="none"/>
            <polygon fill="none" clip-path="url(#clipPath112)"
                points=" 144 466 149 476 144 486 139 476" stroke="rgb(153,15,15)"/>
            <line clip-path="url(#clipPath113)" fill="none" x1="462"
                x2="462" y1="451" y2="411" stroke="black"/>
            <line clip-path="url(#clipPath113)" fill="none" x1="462"
                x2="348" y1="411" y2="411" stroke="black"/>
            <line clip-path="url(#clipPath113)" fill="none" x1="348"
                x2="348" y1="411" y2="378" stroke="black"/>
            <polygon fill="white" clip-path="url(#clipPath114)"
                points=" 348 378 354 392 342 392" stroke="none"/>
            <polygon fill="none" clip-path="url(#clipPath114)"
                points=" 348 378 354 392 342 392" stroke="black"/>
            <line clip-path="url(#clipPath115)" fill="none" x1="740"
                x2="740" y1="644" y2="577" stroke-dasharray="8,7"/>
            <line clip-path="url(#clipPath115)" fill="none" x1="740"
                x2="462" y1="577" y2="577" stroke-dasharray="8,7"/>
            <line clip-path="url(#clipPath115)" fill="none" x1="462"
                x2="462" y1="577" y2="544" stroke-dasharray="8,7"/>
            <polygon fill="white" stroke-dasharray="8,7"
                clip-path="url(#clipPath116)"
                points=" 462 544 468 558 456 558" stroke="none"/>
            <polygon fill="none" clip-path="url(#clipPath116)" points=" 462 544 468 558 456 558"/>
            <line clip-path="url(#clipPath117)" fill="none" x1="533"
                x2="533" y1="643" y2="577" stroke-dasharray="8,7"/>
            <line clip-path="url(#clipPath117)" fill="none" x1="533"
                x2="462" y1="577" y2="577" stroke-dasharray="8,7"/>
            <line clip-path="url(#clipPath117)" fill="none" x1="462"
                x2="462" y1="577" y2="544" stroke-dasharray="8,7"/>
            <polygon fill="white" stroke-dasharray="8,7"
                clip-path="url(#clipPath116)"
                points=" 462 544 468 558 456 558" stroke="none"/>
            <polygon fill="none" clip-path="url(#clipPath116)" points=" 462 544 468 558 456 558"/>
            <line clip-path="url(#clipPath118)" fill="none" x1="349"
                x2="349" y1="646" y2="577" stroke-dasharray="8,7"/>
            <line clip-path="url(#clipPath118)" fill="none" x1="349"
                x2="462" y1="577" y2="577" stroke-dasharray="8,7"/>
            <line clip-path="url(#clipPath118)" fill="none" x1="462"
                x2="462" y1="577" y2="544" stroke-dasharray="8,7"/>
            <polygon fill="white" stroke-dasharray="8,7"
                clip-path="url(#clipPath116)"
                points=" 462 544 468 558 456 558" stroke="none"/>
            <polygon fill="none" clip-path="url(#clipPath116)" points=" 462 544 468 558 456 558"/>
            <line clip-path="url(#clipPath119)" fill="none" x1="112"
                x2="112" y1="410" y2="371" stroke-dasharray="8,7"/>
            <polygon fill="white" stroke-dasharray="8,7"
                clip-path="url(#clipPath120)"
                points=" 112 371 118 385 106 385" stroke="none"/>
            <polygon fill="none" clip-path="url(#clipPath120)" points=" 112 371 118 385 106 385"/>
        </g>
    </g>
</svg>
