<?xml version="1.0" encoding="UTF-8"?>
<svg stroke-dasharray="none" shape-rendering="auto"
    font-family="'Dialog'" width="801" text-rendering="auto"
    fill-opacity="1" color-interpolation="auto" color-rendering="auto"
    font-size="12" fill="black" stroke="black" image-rendering="auto"
    stroke-miterlimit="10" stroke-linecap="square"
    stroke-linejoin="miter" font-style="normal" height="1149"
    stroke-width="1" stroke-dashoffset="0" font-weight="normal" stroke-opacity="1">
    <!--Generated by the Batik Graphics2D SVG Generator-->
    <defs id="genericDefs"/>
    <g>
        <defs id="defs1">
            <clipPath clipPathUnits="userSpaceOnUse" id="clipPath1">
                <path d="M-1 -1 L801 -1 L801 1149 L-1 1149 L-1 -1 Z"/>
            </clipPath>
            <clipPath clipPathUnits="userSpaceOnUse" id="clipPath2">
                <path d="M5 7 L26 7 L26 22 L5 22 L5 7 Z"/>
            </clipPath>
            <clipPath clipPathUnits="userSpaceOnUse" id="clipPath3">
                <path d="M26 5 L80 5 L80 24 L26 24 L26 5 Z"/>
            </clipPath>
            <clipPath clipPathUnits="userSpaceOnUse" id="clipPath4">
                <path d="M34 70 L149 70 L149 655 L34 655 L34 70 Z"/>
            </clipPath>
            <clipPath clipPathUnits="userSpaceOnUse" id="clipPath5">
                <path d="M34 70 L149 70 L149 102 L34 102 L34 70 Z"/>
            </clipPath>
            <clipPath clipPathUnits="userSpaceOnUse" id="clipPath6">
                <path d="M45 76 L124 76 L124 95 L45 95 L45 76 Z"/>
            </clipPath>
            <clipPath clipPathUnits="userSpaceOnUse" id="clipPath7">
                <path d="M124 76 L138 76 L138 95 L124 95 L124 76 Z"/>
            </clipPath>
            <clipPath clipPathUnits="userSpaceOnUse" id="clipPath8">
                <path d="M45 76 L138 76 L138 96 L45 96 L45 76 Z"/>
            </clipPath>
            <clipPath clipPathUnits="userSpaceOnUse" id="clipPath9">
                <path d="M80 131 L102 131 L102 170 L80 170 L80 131 Z"/>
            </clipPath>
            <clipPath clipPathUnits="userSpaceOnUse" id="clipPath10">
                <path d="M80 178 L102 178 L102 323 L80 323 L80 178 Z"/>
            </clipPath>
            <clipPath clipPathUnits="userSpaceOnUse" id="clipPath11">
                <path d="M80 347 L102 347 L102 519 L80 519 L80 347 Z"/>
            </clipPath>
            <clipPath clipPathUnits="userSpaceOnUse" id="clipPath12">
                <path d="M180 70 L333 70 L333 667 L180 667 L180 70 Z"/>
            </clipPath>
            <clipPath clipPathUnits="userSpaceOnUse" id="clipPath13">
                <path d="M180 70 L333 70 L333 102 L180 102 L180 70 Z"/>
            </clipPath>
            <clipPath clipPathUnits="userSpaceOnUse" id="clipPath14">
                <path d="M191 76 L308 76 L308 95 L191 95 L191 76 Z"/>
            </clipPath>
            <clipPath clipPathUnits="userSpaceOnUse" id="clipPath15">
                <path d="M308 76 L322 76 L322 95 L308 95 L308 76 Z"/>
            </clipPath>
            <clipPath clipPathUnits="userSpaceOnUse" id="clipPath16">
                <path d="M191 76 L322 76 L322 96 L191 96 L191 76 Z"/>
            </clipPath>
            <clipPath clipPathUnits="userSpaceOnUse" id="clipPath17">
                <path d="M245 132 L267 132 L267 544 L245 544 L245 132 Z"/>
            </clipPath>
            <clipPath clipPathUnits="userSpaceOnUse" id="clipPath18">
                <path d="M383 70 L505 70 L505 558 L383 558 L383 70 Z"/>
            </clipPath>
            <clipPath clipPathUnits="userSpaceOnUse" id="clipPath19">
                <path d="M383 70 L505 70 L505 102 L383 102 L383 70 Z"/>
            </clipPath>
            <clipPath clipPathUnits="userSpaceOnUse" id="clipPath20">
                <path d="M394 76 L480 76 L480 95 L394 95 L394 76 Z"/>
            </clipPath>
            <clipPath clipPathUnits="userSpaceOnUse" id="clipPath21">
                <path d="M480 76 L494 76 L494 95 L480 95 L480 76 Z"/>
            </clipPath>
            <clipPath clipPathUnits="userSpaceOnUse" id="clipPath22">
                <path d="M394 76 L494 76 L494 96 L394 96 L394 76 Z"/>
            </clipPath>
            <clipPath clipPathUnits="userSpaceOnUse" id="clipPath23">
                <path d="M433 181 L455 181 L455 216 L433 216 L433 181 Z"/>
            </clipPath>
            <clipPath clipPathUnits="userSpaceOnUse" id="clipPath24">
                <path d="M433 369 L455 369 L455 410 L433 410 L433 369 Z"/>
            </clipPath>
            <clipPath clipPathUnits="userSpaceOnUse" id="clipPath25">
                <path d="M538 70 L638 70 L638 560 L538 560 L538 70 Z"/>
            </clipPath>
            <clipPath clipPathUnits="userSpaceOnUse" id="clipPath26">
                <path d="M538 70 L638 70 L638 102 L538 102 L538 70 Z"/>
            </clipPath>
            <clipPath clipPathUnits="userSpaceOnUse" id="clipPath27">
                <path d="M549 76 L613 76 L613 95 L549 95 L549 76 Z"/>
            </clipPath>
            <clipPath clipPathUnits="userSpaceOnUse" id="clipPath28">
                <path d="M613 76 L627 76 L627 95 L613 95 L613 76 Z"/>
            </clipPath>
            <clipPath clipPathUnits="userSpaceOnUse" id="clipPath29">
                <path d="M549 76 L627 76 L627 96 L549 96 L549 76 Z"/>
            </clipPath>
            <clipPath clipPathUnits="userSpaceOnUse" id="clipPath30">
                <path d="M577 233 L599 233 L599 269 L577 269 L577 233 Z"/>
            </clipPath>
            <clipPath clipPathUnits="userSpaceOnUse" id="clipPath31">
                <path d="M577 280 L599 280 L599 311 L577 311 L577 280 Z"/>
            </clipPath>
            <clipPath clipPathUnits="userSpaceOnUse" id="clipPath32">
                <path d="M577 439 L599 439 L599 470 L577 470 L577 439 Z"/>
            </clipPath>
            <clipPath clipPathUnits="userSpaceOnUse" id="clipPath33">
                <path d="M577 484 L599 484 L599 524 L577 524 L577 484 Z"/>
            </clipPath>
            <clipPath clipPathUnits="userSpaceOnUse" id="clipPath34">
                <path d="M664 70 L766 70 L766 575 L664 575 L664 70 Z"/>
            </clipPath>
            <clipPath clipPathUnits="userSpaceOnUse" id="clipPath35">
                <path d="M664 70 L766 70 L766 102 L664 102 L664 70 Z"/>
            </clipPath>
            <clipPath clipPathUnits="userSpaceOnUse" id="clipPath36">
                <path d="M671 76 L744 76 L744 95 L671 95 L671 76 Z"/>
            </clipPath>
            <clipPath clipPathUnits="userSpaceOnUse" id="clipPath37">
                <path d="M744 76 L758 76 L758 95 L744 95 L744 76 Z"/>
            </clipPath>
            <clipPath clipPathUnits="userSpaceOnUse" id="clipPath38">
                <path d="M671 76 L758 76 L758 96 L671 96 L671 76 Z"/>
            </clipPath>
            <clipPath clipPathUnits="userSpaceOnUse" id="clipPath39">
                <path d="M704 390 L726 390 L726 458 L704 458 L704 390 Z"/>
            </clipPath>
            <clipPath clipPathUnits="userSpaceOnUse" id="clipPath40">
                <path d="M704 174 L726 174 L726 260 L704 260 L704 174 Z"/>
            </clipPath>
            <clipPath clipPathUnits="userSpaceOnUse" id="clipPath41">
                <path d="M87 110 L261 110 L261 164 L87 164 L87 110 Z"/>
            </clipPath>
            <clipPath clipPathUnits="userSpaceOnUse" id="clipPath42">
                <path d="M180 123 L237 123 L237 142 L180 142 L180 123 Z"/>
            </clipPath>
            <clipPath clipPathUnits="userSpaceOnUse" id="clipPath43">
                <path d="M235 138 L248 138 L248 151 L235 151 L235 138 Z"/>
            </clipPath>
            <clipPath clipPathUnits="userSpaceOnUse" id="clipPath44">
                <path d="M87 154 L449 154 L449 215 L87 215 L87 154 Z"/>
            </clipPath>
            <clipPath clipPathUnits="userSpaceOnUse" id="clipPath45">
                <path d="M373 167 L430 167 L430 186 L373 186 L373 167 Z"/>
            </clipPath>
            <clipPath clipPathUnits="userSpaceOnUse" id="clipPath46">
                <path d="M423 189 L436 189 L436 202 L423 202 L423 189 Z"/>
            </clipPath>
            <clipPath clipPathUnits="userSpaceOnUse" id="clipPath47">
                <path d="M440 168 L720 168 L720 223 L440 223 L440 168 Z"/>
            </clipPath>
            <clipPath clipPathUnits="userSpaceOnUse" id="clipPath48">
                <path d="M611 181 L704 181 L704 200 L611 200 L611 181 Z"/>
            </clipPath>
            <clipPath clipPathUnits="userSpaceOnUse" id="clipPath49">
                <path d="M694 197 L707 197 L707 210 L694 210 L694 197 Z"/>
            </clipPath>
            <clipPath clipPathUnits="userSpaceOnUse" id="clipPath50">
                <path d="M87 155 L261 155 L261 206 L87 206 L87 155 Z"/>
            </clipPath>
            <clipPath clipPathUnits="userSpaceOnUse" id="clipPath51">
                <path d="M110 168 L167 168 L167 187 L110 187 L110 168 Z"/>
            </clipPath>
            <clipPath clipPathUnits="userSpaceOnUse" id="clipPath52">
                <path d="M100 180 L113 180 L113 193 L100 193 L100 180 Z"/>
            </clipPath>
            <clipPath clipPathUnits="userSpaceOnUse" id="clipPath53">
                <path d="M87 217 L593 217 L593 275 L87 275 L87 217 Z"/>
            </clipPath>
            <clipPath clipPathUnits="userSpaceOnUse" id="clipPath54">
                <path d="M506 230 L564 230 L564 249 L506 249 L506 230 Z"/>
            </clipPath>
            <clipPath clipPathUnits="userSpaceOnUse" id="clipPath55">
                <path d="M567 249 L580 249 L580 262 L567 262 L567 249 Z"/>
            </clipPath>
            <clipPath clipPathUnits="userSpaceOnUse" id="clipPath56">
                <path d="M87 261 L593 261 L593 316 L87 316 L87 261 Z"/>
            </clipPath>
            <clipPath clipPathUnits="userSpaceOnUse" id="clipPath57">
                <path d="M506 274 L568 274 L568 293 L506 293 L506 274 Z"/>
            </clipPath>
            <clipPath clipPathUnits="userSpaceOnUse" id="clipPath58">
                <path d="M567 290 L580 290 L580 303 L567 303 L567 290 Z"/>
            </clipPath>
            <clipPath clipPathUnits="userSpaceOnUse" id="clipPath59">
                <path d="M87 280 L261 280 L261 333 L87 333 L87 280 Z"/>
            </clipPath>
            <clipPath clipPathUnits="userSpaceOnUse" id="clipPath60">
                <path d="M204 293 L240 293 L240 312 L204 312 L204 293 Z"/>
            </clipPath>
            <clipPath clipPathUnits="userSpaceOnUse" id="clipPath61">
                <path d="M235 307 L248 307 L248 320 L235 320 L235 307 Z"/>
            </clipPath>
            <clipPath clipPathUnits="userSpaceOnUse" id="clipPath62">
                <path d="M87 339 L449 339 L449 398 L87 398 L87 339 Z"/>
            </clipPath>
            <clipPath clipPathUnits="userSpaceOnUse" id="clipPath63">
                <path d="M366 352 L423 352 L423 371 L366 371 L366 352 Z"/>
            </clipPath>
            <clipPath clipPathUnits="userSpaceOnUse" id="clipPath64">
                <path d="M423 372 L436 372 L436 385 L423 385 L423 372 Z"/>
            </clipPath>
            <clipPath clipPathUnits="userSpaceOnUse" id="clipPath65">
                <path d="M440 361 L720 361 L720 419 L440 419 L440 361 Z"/>
            </clipPath>
            <clipPath clipPathUnits="userSpaceOnUse" id="clipPath66">
                <path d="M603 374 L696 374 L696 393 L603 393 L603 374 Z"/>
            </clipPath>
            <clipPath clipPathUnits="userSpaceOnUse" id="clipPath67">
                <path d="M694 393 L707 393 L707 406 L694 406 L694 393 Z"/>
            </clipPath>
            <clipPath clipPathUnits="userSpaceOnUse" id="clipPath68">
                <path d="M87 326 L261 326 L261 378 L87 378 L87 326 Z"/>
            </clipPath>
            <clipPath clipPathUnits="userSpaceOnUse" id="clipPath69">
                <path d="M114 339 L171 339 L171 358 L114 358 L114 339 Z"/>
            </clipPath>
            <clipPath clipPathUnits="userSpaceOnUse" id="clipPath70">
                <path d="M100 352 L113 352 L113 365 L100 365 L100 352 Z"/>
            </clipPath>
            <clipPath clipPathUnits="userSpaceOnUse" id="clipPath71">
                <path d="M87 418 L593 418 L593 474 L87 474 L87 418 Z"/>
            </clipPath>
            <clipPath clipPathUnits="userSpaceOnUse" id="clipPath72">
                <path d="M500 431 L558 431 L558 450 L500 450 L500 431 Z"/>
            </clipPath>
            <clipPath clipPathUnits="userSpaceOnUse" id="clipPath73">
                <path d="M567 448 L580 448 L580 461 L567 461 L567 448 Z"/>
            </clipPath>
            <clipPath clipPathUnits="userSpaceOnUse" id="clipPath74">
                <path d="M87 457 L593 457 L593 511 L87 511 L87 457 Z"/>
            </clipPath>
            <clipPath clipPathUnits="userSpaceOnUse" id="clipPath75">
                <path d="M506 470 L568 470 L568 489 L506 489 L506 470 Z"/>
            </clipPath>
            <clipPath clipPathUnits="userSpaceOnUse" id="clipPath76">
                <path d="M567 485 L580 485 L580 498 L567 498 L567 485 Z"/>
            </clipPath>
            <clipPath clipPathUnits="userSpaceOnUse" id="clipPath77">
                <path d="M87 469 L261 469 L261 524 L87 524 L87 469 Z"/>
            </clipPath>
            <clipPath clipPathUnits="userSpaceOnUse" id="clipPath78">
                <path d="M203 482 L239 482 L239 501 L203 501 L203 482 Z"/>
            </clipPath>
            <clipPath clipPathUnits="userSpaceOnUse" id="clipPath79">
                <path d="M235 498 L248 498 L248 511 L235 511 L235 498 Z"/>
            </clipPath>
            <clipPath clipPathUnits="userSpaceOnUse" id="clipPath80">
                <path d="M87 386 L720 386 L720 440 L87 440 L87 386 Z"/>
            </clipPath>
            <clipPath clipPathUnits="userSpaceOnUse" id="clipPath81">
                <path d="M627 399 L695 399 L695 418 L627 418 L627 399 Z"/>
            </clipPath>
            <clipPath clipPathUnits="userSpaceOnUse" id="clipPath82">
                <path d="M694 414 L707 414 L707 427 L694 427 L694 414 Z"/>
            </clipPath>
            <clipPath clipPathUnits="userSpaceOnUse" id="clipPath83">
                <path d="M584 409 L720 409 L720 461 L584 461 L584 409 Z"/>
            </clipPath>
            <clipPath clipPathUnits="userSpaceOnUse" id="clipPath84">
                <path d="M629 422 L676 422 L676 441 L629 441 L629 422 Z"/>
            </clipPath>
            <clipPath clipPathUnits="userSpaceOnUse" id="clipPath85">
                <path d="M597 435 L610 435 L610 448 L597 448 L597 435 Z"/>
            </clipPath>
            <clipPath clipPathUnits="userSpaceOnUse" id="clipPath86">
                <path d="M87 191 L720 191 L720 244 L87 244 L87 191 Z"/>
            </clipPath>
            <clipPath clipPathUnits="userSpaceOnUse" id="clipPath87">
                <path d="M623 204 L691 204 L691 223 L623 223 L623 204 Z"/>
            </clipPath>
            <clipPath clipPathUnits="userSpaceOnUse" id="clipPath88">
                <path d="M694 218 L707 218 L707 231 L694 231 L694 218 Z"/>
            </clipPath>
            <clipPath clipPathUnits="userSpaceOnUse" id="clipPath89">
                <path d="M584 210 L720 210 L720 262 L584 262 L584 210 Z"/>
            </clipPath>
            <clipPath clipPathUnits="userSpaceOnUse" id="clipPath90">
                <path d="M629 223 L676 223 L676 242 L629 242 L629 223 Z"/>
            </clipPath>
            <clipPath clipPathUnits="userSpaceOnUse" id="clipPath91">
                <path d="M597 236 L610 236 L610 249 L597 249 L597 236 Z"/>
            </clipPath>
        </defs>
        <g font-size="11" fill="white" stroke-linejoin="round"
            stroke="white" stroke-width="0" stroke-miterlimit="0">
            <rect x="0" y="0" clip-path="url(#clipPath1)" width="800"
                height="1148" stroke="none"/>
        </g>
        <g stroke-width="0.1" font-size="11" stroke-linecap="butt">
            <line clip-path="url(#clipPath1)" fill="none" x1="1" x2="84"
                y1="31" y2="31"/>
            <line clip-path="url(#clipPath1)" fill="none" x1="84"
                x2="91" y1="31" y2="17"/>
            <line clip-path="url(#clipPath1)" fill="none" x1="91"
                x2="91" y1="17" y2="1"/>
            <text x="6" y="19" clip-path="url(#clipPath2)" stroke="none"
                font-weight="bold" xml:space="preserve">sd </text>
            <text font-size="13" x="27" y="19"
                clip-path="url(#clipPath3)" stroke="none" xml:space="preserve">control1</text>
            <line clip-path="url(#clipPath4)" fill="none" x1="91"
                x2="91" y1="101" y2="654" stroke-dasharray="10,2" stroke="rgb(106,88,75)"/>
            <rect x="35" y="71" clip-path="url(#clipPath5)"
                fill="rgb(237,247,200)" width="113"
                stroke-dasharray="10,2" height="30" stroke="none"/>
        </g>
        <g font-size="13" stroke-linecap="butt" fill="rgb(106,88,75)"
            stroke-dasharray="10,2" stroke="rgb(106,88,75)" stroke-width="0.1">
            <text xml:space="preserve" x="46" y="90"
                clip-path="url(#clipPath6)" stroke="none">ControlLoop</text>
            <text xml:space="preserve" x="125" y="90"
                clip-path="url(#clipPath7)" stroke="none"> : </text>
            <line clip-path="url(#clipPath8)" fill="none" x1="46"
                x2="137" y1="94" y2="94" stroke-dasharray="none" stroke-width="1.1"/>
            <rect x="35" y="71" clip-path="url(#clipPath5)" fill="none"
                width="112" stroke-dasharray="none" height="29" stroke-width="1.1"/>
        </g>
        <g fill="rgb(237,247,200)" stroke-width="1.1" font-size="11"
            stroke-linecap="butt" stroke="rgb(237,247,200)">
            <rect x="81" y="132" clip-path="url(#clipPath9)" width="20"
                height="37" stroke="none"/>
            <rect x="81" y="132" clip-path="url(#clipPath9)" fill="none"
                width="19" height="36" stroke="black"/>
            <rect x="81" y="179" clip-path="url(#clipPath10)" width="20"
                height="143" stroke="none"/>
            <rect x="81" y="179" clip-path="url(#clipPath10)"
                fill="none" width="19" height="142" stroke="black"/>
            <rect x="81" y="348" clip-path="url(#clipPath11)" width="20"
                height="170" stroke="none"/>
            <rect x="81" y="348" clip-path="url(#clipPath11)"
                fill="none" width="19" height="169" stroke="black"/>
        </g>
        <g font-size="11" stroke-linecap="butt" fill="rgb(41,0,141)"
            stroke-dasharray="10,2" stroke="rgb(41,0,141)" stroke-width="0.1">
            <line clip-path="url(#clipPath12)" fill="none" x1="256"
                x2="256" y1="101" y2="666"/>
            <rect x="181" y="71" clip-path="url(#clipPath13)"
                fill="rgb(243,232,255)" width="151" height="30" stroke="none"/>
            <text font-size="13" x="192" y="90"
                clip-path="url(#clipPath14)" stroke="none" xml:space="preserve">BOBYQAOptimizer</text>
            <text font-size="13" x="309" y="90"
                clip-path="url(#clipPath15)" stroke="none" xml:space="preserve"> : </text>
            <line clip-path="url(#clipPath16)" fill="none" x1="192"
                x2="321" y1="94" y2="94" stroke-dasharray="none" stroke-width="1.1"/>
            <rect x="181" y="71" clip-path="url(#clipPath13)"
                fill="none" width="150" stroke-dasharray="none"
                height="29" stroke-width="1.1"/>
        </g>
        <g fill="rgb(243,232,255)" stroke-width="1.1" font-size="11"
            stroke-linecap="butt" stroke="rgb(243,232,255)">
            <rect x="246" y="133" clip-path="url(#clipPath17)"
                width="20" height="410" stroke="none"/>
            <rect x="246" y="133" clip-path="url(#clipPath17)"
                fill="none" width="19" height="409" stroke="black"/>
        </g>
        <g font-size="11" stroke-linecap="butt" fill="rgb(106,88,75)"
            stroke-dasharray="10,2" stroke="rgb(106,88,75)" stroke-width="0.1">
            <line clip-path="url(#clipPath18)" fill="none" x1="444"
                x2="444" y1="101" y2="557"/>
            <rect x="384" y="71" clip-path="url(#clipPath19)"
                fill="rgb(237,247,200)" width="120" height="30" stroke="none"/>
            <text font-size="13" x="395" y="90"
                clip-path="url(#clipPath20)" stroke="none" xml:space="preserve">SKParameter</text>
            <text font-size="13" x="481" y="90"
                clip-path="url(#clipPath21)" stroke="none" xml:space="preserve"> : </text>
            <line clip-path="url(#clipPath22)" fill="none" x1="395"
                x2="493" y1="94" y2="94" stroke-dasharray="none" stroke-width="1.1"/>
            <rect x="384" y="71" clip-path="url(#clipPath19)"
                fill="none" width="119" stroke-dasharray="none"
                height="29" stroke-width="1.1"/>
        </g>
        <g fill="rgb(237,247,200)" stroke-width="1.1" font-size="11"
            stroke-linecap="butt" stroke="rgb(237,247,200)">
            <rect x="434" y="182" clip-path="url(#clipPath23)"
                width="20" height="33" stroke="none"/>
            <rect x="434" y="182" clip-path="url(#clipPath23)"
                fill="none" width="19" height="32" stroke="black"/>
            <rect x="434" y="370" clip-path="url(#clipPath24)"
                width="20" height="39" stroke="none"/>
            <rect x="434" y="370" clip-path="url(#clipPath24)"
                fill="none" width="19" height="38" stroke="black"/>
        </g>
        <g font-size="11" stroke-linecap="butt" fill="rgb(110,44,18)"
            stroke-dasharray="10,2" stroke="rgb(110,44,18)" stroke-width="0.1">
            <line clip-path="url(#clipPath25)" fill="none" x1="588"
                x2="588" y1="101" y2="559"/>
            <rect x="539" y="71" clip-path="url(#clipPath26)"
                fill="rgb(244,242,212)" width="98" height="30" stroke="none"/>
            <text font-size="13" x="550" y="90"
                clip-path="url(#clipPath27)" stroke="none" xml:space="preserve">SKControl</text>
            <text font-size="13" x="614" y="90"
                clip-path="url(#clipPath28)" stroke="none" xml:space="preserve"> : </text>
            <line clip-path="url(#clipPath29)" fill="none" x1="550"
                x2="626" y1="94" y2="94" stroke-dasharray="none" stroke-width="1.1"/>
            <rect x="539" y="71" clip-path="url(#clipPath26)"
                fill="none" width="97" stroke-dasharray="none"
                height="29" stroke-width="1.1"/>
        </g>
        <g fill="rgb(244,242,212)" stroke-width="1.1" font-size="11"
            stroke-linecap="butt" stroke="rgb(244,242,212)">
            <rect x="578" y="234" clip-path="url(#clipPath30)"
                width="20" height="34" stroke="none"/>
            <rect x="578" y="234" clip-path="url(#clipPath30)"
                fill="none" width="19" height="33" stroke="black"/>
            <rect x="578" y="281" clip-path="url(#clipPath31)"
                width="20" height="29" stroke="none"/>
            <rect x="578" y="281" clip-path="url(#clipPath31)"
                fill="none" width="19" height="28" stroke="black"/>
            <rect x="578" y="440" clip-path="url(#clipPath32)"
                width="20" height="29" stroke="none"/>
            <rect x="578" y="440" clip-path="url(#clipPath32)"
                fill="none" width="19" height="28" stroke="black"/>
            <rect x="578" y="485" clip-path="url(#clipPath33)"
                width="20" height="38" stroke="none"/>
            <rect x="578" y="485" clip-path="url(#clipPath33)"
                fill="none" width="19" height="37" stroke="black"/>
        </g>
        <g font-size="11" stroke-linecap="butt" fill="rgb(41,0,141)"
            stroke-dasharray="10,2" stroke="rgb(41,0,141)" stroke-width="0.1">
            <line clip-path="url(#clipPath34)" fill="none" x1="715"
                x2="715" y1="101" y2="574"/>
            <rect x="665" y="71" clip-path="url(#clipPath35)"
                fill="rgb(243,232,255)" width="100" height="30" stroke="none"/>
            <text font-size="13" x="672" y="90"
                clip-path="url(#clipPath36)" stroke="none" xml:space="preserve">Propagator</text>
            <text font-size="13" x="745" y="90"
                clip-path="url(#clipPath37)" stroke="none" xml:space="preserve"> : </text>
            <line clip-path="url(#clipPath38)" fill="none" x1="672"
                x2="757" y1="94" y2="94" stroke-dasharray="none" stroke-width="1.1"/>
            <rect x="665" y="71" clip-path="url(#clipPath35)"
                fill="none" width="99" stroke-dasharray="none"
                height="29" stroke-width="1.1"/>
        </g>
        <g fill="rgb(243,232,255)" stroke-width="1.1" font-size="11"
            stroke-linecap="butt" stroke="rgb(243,232,255)">
            <rect x="705" y="391" clip-path="url(#clipPath39)"
                width="20" height="66" stroke="none"/>
            <rect x="705" y="391" clip-path="url(#clipPath39)"
                fill="none" width="19" height="65" stroke="black"/>
            <rect x="705" y="175" clip-path="url(#clipPath40)"
                width="20" height="84" stroke="none"/>
            <rect x="705" y="175" clip-path="url(#clipPath40)"
                fill="none" width="19" height="83" stroke="black"/>
            <rect x="0" y="0" clip-path="url(#clipPath1)" fill="none"
                width="799" height="1147" stroke="black"/>
        </g>
        <g stroke-width="0.1" font-size="13" stroke-linecap="butt">
            <line clip-path="url(#clipPath41)" fill="none" x1="101"
                x2="246" y1="144" y2="144"/>
            <text xml:space="preserve" x="181" y="137"
                clip-path="url(#clipPath42)" stroke="none">optimize</text>
            <polygon clip-path="url(#clipPath43)"
                points=" 246 144 236 149 236 139" stroke="none"/>
            <polygon fill="none" stroke-width="1.1"
                clip-path="url(#clipPath43)" points=" 246 144 236 149 236 139"/>
            <line clip-path="url(#clipPath44)" fill="none" x1="101"
                x2="434" y1="195" y2="195"/>
            <text xml:space="preserve" x="374" y="181"
                clip-path="url(#clipPath45)" stroke="none">setValue</text>
            <polygon clip-path="url(#clipPath46)"
                points=" 434 195 424 200 424 190" stroke="none"/>
            <polygon fill="none" stroke-width="1.1"
                clip-path="url(#clipPath46)" points=" 434 195 424 200 424 190"/>
            <line clip-path="url(#clipPath47)" fill="none" x1="454"
                x2="705" y1="203" y2="203"/>
            <text xml:space="preserve" x="612" y="195"
                clip-path="url(#clipPath48)" stroke="none">valueChanged</text>
            <polygon clip-path="url(#clipPath49)"
                points=" 705 203 695 208 695 198" stroke="none"/>
            <polygon fill="none" stroke-width="1.1"
                clip-path="url(#clipPath49)" points=" 705 203 695 208 695 198"/>
            <line clip-path="url(#clipPath50)" fill="none" x1="246"
                x2="101" y1="186" y2="186"/>
            <text xml:space="preserve" x="111" y="182"
                clip-path="url(#clipPath51)" stroke="none">evaluate</text>
            <polygon clip-path="url(#clipPath52)"
                points=" 101 186 111 181 111 191" stroke="none"/>
            <polygon fill="none" stroke-width="1.1"
                clip-path="url(#clipPath52)" points=" 101 186 111 181 111 191"/>
            <line clip-path="url(#clipPath53)" fill="none" x1="101"
                x2="578" y1="255" y2="255"/>
            <text xml:space="preserve" x="507" y="244"
                clip-path="url(#clipPath54)" stroke="none">getValue</text>
            <polygon clip-path="url(#clipPath55)"
                points=" 578 255 568 260 568 250" stroke="none"/>
            <polygon fill="none" stroke-width="1.1"
                clip-path="url(#clipPath55)" points=" 578 255 568 260 568 250"/>
            <line clip-path="url(#clipPath56)" fill="none" x1="101"
                x2="578" y1="296" y2="296"/>
            <text xml:space="preserve" x="507" y="288"
                clip-path="url(#clipPath57)" stroke="none">getTarget</text>
            <polygon clip-path="url(#clipPath58)"
                points=" 578 296 568 301 568 291" stroke="none"/>
            <polygon fill="none" stroke-width="1.1"
                clip-path="url(#clipPath58)" points=" 578 296 568 301 568 291"/>
            <line clip-path="url(#clipPath59)" fill="none" x1="101"
                x2="246" y1="313" y2="313" stroke-dasharray="10,5"/>
            <text x="205" y="307" clip-path="url(#clipPath60)"
                stroke-dasharray="10,5" stroke="none" xml:space="preserve">value</text>
            <polygon stroke-dasharray="10,5"
                clip-path="url(#clipPath61)"
                points=" 246 313 236 318 236 308" stroke="none"/>
            <polygon fill="none" stroke-width="1.1"
                clip-path="url(#clipPath61)" points=" 246 313 236 318 236 308"/>
            <line clip-path="url(#clipPath62)" fill="none" x1="101"
                x2="434" y1="378" y2="378"/>
            <text xml:space="preserve" x="367" y="366"
                clip-path="url(#clipPath63)" stroke="none">setValue</text>
            <polygon clip-path="url(#clipPath64)"
                points=" 434 378 424 383 424 373" stroke="none"/>
            <polygon fill="none" stroke-width="1.1"
                clip-path="url(#clipPath64)" points=" 434 378 424 383 424 373"/>
            <line clip-path="url(#clipPath65)" fill="none" x1="454"
                x2="705" y1="399" y2="399"/>
            <text xml:space="preserve" x="604" y="388"
                clip-path="url(#clipPath66)" stroke="none">valueChanged</text>
            <polygon clip-path="url(#clipPath67)"
                points=" 705 399 695 404 695 394" stroke="none"/>
            <polygon fill="none" stroke-width="1.1"
                clip-path="url(#clipPath67)" points=" 705 399 695 404 695 394"/>
            <line clip-path="url(#clipPath68)" fill="none" x1="246"
                x2="101" y1="358" y2="358"/>
            <text xml:space="preserve" x="115" y="353"
                clip-path="url(#clipPath69)" stroke="none">evaluate</text>
            <polygon clip-path="url(#clipPath70)"
                points=" 101 358 111 353 111 363" stroke="none"/>
            <polygon fill="none" stroke-width="1.1"
                clip-path="url(#clipPath70)" points=" 101 358 111 353 111 363"/>
            <line clip-path="url(#clipPath71)" fill="none" x1="101"
                x2="578" y1="454" y2="454"/>
            <text xml:space="preserve" x="501" y="445"
                clip-path="url(#clipPath72)" stroke="none">getValue</text>
            <polygon clip-path="url(#clipPath73)"
                points=" 578 454 568 459 568 449" stroke="none"/>
            <polygon fill="none" stroke-width="1.1"
                clip-path="url(#clipPath73)" points=" 578 454 568 459 568 449"/>
            <line clip-path="url(#clipPath74)" fill="none" x1="101"
                x2="578" y1="491" y2="491"/>
            <text xml:space="preserve" x="507" y="484"
                clip-path="url(#clipPath75)" stroke="none">getTarget</text>
            <polygon clip-path="url(#clipPath76)"
                points=" 578 491 568 496 568 486" stroke="none"/>
            <polygon fill="none" stroke-width="1.1"
                clip-path="url(#clipPath76)" points=" 578 491 568 496 568 486"/>
            <line clip-path="url(#clipPath77)" fill="none" x1="101"
                x2="246" y1="504" y2="504" stroke-dasharray="10,5"/>
            <text x="204" y="496" clip-path="url(#clipPath78)"
                stroke-dasharray="10,5" stroke="none" xml:space="preserve">value</text>
            <polygon stroke-dasharray="10,5"
                clip-path="url(#clipPath79)"
                points=" 246 504 236 509 236 499" stroke="none"/>
            <polygon fill="none" stroke-width="1.1"
                clip-path="url(#clipPath79)" points=" 246 504 236 509 236 499"/>
            <line clip-path="url(#clipPath80)" fill="none" x1="101"
                x2="705" y1="420" y2="420"/>
            <text xml:space="preserve" x="628" y="413"
                clip-path="url(#clipPath81)" stroke="none">propagate</text>
            <polygon clip-path="url(#clipPath82)"
                points=" 705 420 695 425 695 415" stroke="none"/>
            <polygon fill="none" stroke-width="1.1"
                clip-path="url(#clipPath82)" points=" 705 420 695 425 695 415"/>
            <line clip-path="url(#clipPath83)" fill="none" x1="705"
                x2="598" y1="441" y2="441"/>
            <text xml:space="preserve" x="630" y="436"
                clip-path="url(#clipPath84)" stroke="none">update</text>
            <polygon clip-path="url(#clipPath85)"
                points=" 598 441 608 436 608 446" stroke="none"/>
            <polygon fill="none" stroke-width="1.1"
                clip-path="url(#clipPath85)" points=" 598 441 608 436 608 446"/>
            <line clip-path="url(#clipPath86)" fill="none" x1="101"
                x2="705" y1="224" y2="224"/>
            <text xml:space="preserve" x="624" y="218"
                clip-path="url(#clipPath87)" stroke="none">propagate</text>
            <polygon clip-path="url(#clipPath88)"
                points=" 705 224 695 229 695 219" stroke="none"/>
            <polygon fill="none" stroke-width="1.1"
                clip-path="url(#clipPath88)" points=" 705 224 695 229 695 219"/>
            <line clip-path="url(#clipPath89)" fill="none" x1="705"
                x2="598" y1="242" y2="242"/>
            <text xml:space="preserve" x="630" y="237"
                clip-path="url(#clipPath90)" stroke="none">update</text>
            <polygon clip-path="url(#clipPath91)"
                points=" 598 242 608 237 608 247" stroke="none"/>
            <polygon fill="none" stroke-width="1.1"
                clip-path="url(#clipPath91)" points=" 598 242 608 237 608 247"/>
        </g>
    </g>
</svg>
