<?xml version="1.0" encoding="UTF-8"?>
<svg stroke-dasharray="none" shape-rendering="auto"
    font-family="'Dialog'" width="725" text-rendering="auto"
    fill-opacity="1" color-interpolation="auto" color-rendering="auto"
    font-size="12" fill="black" stroke="black" image-rendering="auto"
    stroke-miterlimit="10" stroke-linecap="square"
    stroke-linejoin="miter" font-style="normal" height="691"
    stroke-width="1" stroke-dashoffset="0" font-weight="normal" stroke-opacity="1">
    <!--Generated by the Batik Graphics2D SVG Generator-->
    <defs id="genericDefs"/>
    <g>
        <defs id="defs1">
            <clipPath clipPathUnits="userSpaceOnUse" id="clipPath1">
                <path d="M-1 -1 L725 -1 L725 691 L-1 691 L-1 -1 Z"/>
            </clipPath>
            <clipPath clipPathUnits="userSpaceOnUse" id="clipPath2">
                <path d="M5 5 L27 5 L27 24 L5 24 L5 5 Z"/>
            </clipPath>
            <clipPath clipPathUnits="userSpaceOnUse" id="clipPath3">
                <path d="M27 5 L74 5 L74 24 L27 24 L27 5 Z"/>
            </clipPath>
            <clipPath clipPathUnits="userSpaceOnUse" id="clipPath4">
                <path d="M34 70 L149 70 L149 681 L34 681 L34 70 Z"/>
            </clipPath>
            <clipPath clipPathUnits="userSpaceOnUse" id="clipPath5">
                <path d="M34 70 L149 70 L149 102 L34 102 L34 70 Z"/>
            </clipPath>
            <clipPath clipPathUnits="userSpaceOnUse" id="clipPath6">
                <path d="M44 76 L124 76 L124 95 L44 95 L44 76 Z"/>
            </clipPath>
            <clipPath clipPathUnits="userSpaceOnUse" id="clipPath7">
                <path d="M124 76 L138 76 L138 95 L124 95 L124 76 Z"/>
            </clipPath>
            <clipPath clipPathUnits="userSpaceOnUse" id="clipPath8">
                <path d="M44 76 L138 76 L138 96 L44 96 L44 76 Z"/>
            </clipPath>
            <clipPath clipPathUnits="userSpaceOnUse" id="clipPath9">
                <path d="M80 123 L102 123 L102 657 L80 657 L80 123 Z"/>
            </clipPath>
            <clipPath clipPathUnits="userSpaceOnUse" id="clipPath10">
                <path d="M93 371 L115 371 L115 413 L93 413 L93 371 Z"/>
            </clipPath>
            <clipPath clipPathUnits="userSpaceOnUse" id="clipPath11">
                <path d="M93 592 L115 592 L115 634 L93 634 L93 592 Z"/>
            </clipPath>
            <clipPath clipPathUnits="userSpaceOnUse" id="clipPath12">
                <path d="M562 70 L715 70 L715 552 L562 552 L562 70 Z"/>
            </clipPath>
            <clipPath clipPathUnits="userSpaceOnUse" id="clipPath13">
                <path d="M562 70 L715 70 L715 102 L562 102 L562 70 Z"/>
            </clipPath>
            <clipPath clipPathUnits="userSpaceOnUse" id="clipPath14">
                <path d="M591 76 L672 76 L672 95 L591 95 L591 76 Z"/>
            </clipPath>
            <clipPath clipPathUnits="userSpaceOnUse" id="clipPath15">
                <path d="M672 76 L686 76 L686 95 L672 95 L672 76 Z"/>
            </clipPath>
            <clipPath clipPathUnits="userSpaceOnUse" id="clipPath16">
                <path d="M591 76 L686 76 L686 96 L591 96 L591 76 Z"/>
            </clipPath>
            <clipPath clipPathUnits="userSpaceOnUse" id="clipPath17">
                <path d="M627 295 L649 295 L649 337 L627 337 L627 295 Z"/>
            </clipPath>
            <clipPath clipPathUnits="userSpaceOnUse" id="clipPath18">
                <path d="M627 478 L649 478 L649 530 L627 530 L627 478 Z"/>
            </clipPath>
            <clipPath clipPathUnits="userSpaceOnUse" id="clipPath19">
                <path d="M386 70 L536 70 L536 491 L386 491 L386 70 Z"/>
            </clipPath>
            <clipPath clipPathUnits="userSpaceOnUse" id="clipPath20">
                <path d="M386 70 L536 70 L536 102 L386 102 L386 70 Z"/>
            </clipPath>
            <clipPath clipPathUnits="userSpaceOnUse" id="clipPath21">
                <path d="M412 76 L495 76 L495 95 L412 95 L412 76 Z"/>
            </clipPath>
            <clipPath clipPathUnits="userSpaceOnUse" id="clipPath22">
                <path d="M495 76 L509 76 L509 95 L495 95 L495 76 Z"/>
            </clipPath>
            <clipPath clipPathUnits="userSpaceOnUse" id="clipPath23">
                <path d="M412 76 L509 76 L509 96 L412 96 L412 76 Z"/>
            </clipPath>
            <clipPath clipPathUnits="userSpaceOnUse" id="clipPath24">
                <path d="M450 236 L472 236 L472 282 L450 282 L450 236 Z"/>
            </clipPath>
            <clipPath clipPathUnits="userSpaceOnUse" id="clipPath25">
                <path d="M450 427 L472 427 L472 482 L450 482 L450 427 Z"/>
            </clipPath>
            <clipPath clipPathUnits="userSpaceOnUse" id="clipPath26">
                <path d="M194 70 L366 70 L366 245 L194 245 L194 70 Z"/>
            </clipPath>
            <clipPath clipPathUnits="userSpaceOnUse" id="clipPath27">
                <path d="M194 70 L366 70 L366 102 L194 102 L194 70 Z"/>
            </clipPath>
            <clipPath clipPathUnits="userSpaceOnUse" id="clipPath28">
                <path d="M204 76 L342 76 L342 95 L204 95 L204 76 Z"/>
            </clipPath>
            <clipPath clipPathUnits="userSpaceOnUse" id="clipPath29">
                <path d="M342 76 L356 76 L356 95 L342 95 L342 76 Z"/>
            </clipPath>
            <clipPath clipPathUnits="userSpaceOnUse" id="clipPath30">
                <path d="M204 76 L356 76 L356 96 L204 96 L204 76 Z"/>
            </clipPath>
            <clipPath clipPathUnits="userSpaceOnUse" id="clipPath31">
                <path d="M269 120 L291 120 L291 151 L269 151 L269 120 Z"/>
            </clipPath>
            <clipPath clipPathUnits="userSpaceOnUse" id="clipPath32">
                <path d="M269 164 L291 164 L291 192 L269 192 L269 164 Z"/>
            </clipPath>
            <clipPath clipPathUnits="userSpaceOnUse" id="clipPath33">
                <path d="M269 203 L291 203 L291 242 L269 242 L269 203 Z"/>
            </clipPath>
            <clipPath clipPathUnits="userSpaceOnUse" id="clipPath34">
                <path d="M87 99 L285 99 L285 151 L87 151 L87 99 Z"/>
            </clipPath>
            <clipPath clipPathUnits="userSpaceOnUse" id="clipPath35">
                <path d="M106 112 L264 112 L264 131 L106 131 L106 112 Z"/>
            </clipPath>
            <clipPath clipPathUnits="userSpaceOnUse" id="clipPath36">
                <path d="M259 125 L272 125 L272 138 L259 138 L259 125 Z"/>
            </clipPath>
            <clipPath clipPathUnits="userSpaceOnUse" id="clipPath37">
                <path d="M87 143 L285 143 L285 196 L87 196 L87 143 Z"/>
            </clipPath>
            <clipPath clipPathUnits="userSpaceOnUse" id="clipPath38">
                <path d="M193 156 L261 156 L261 175 L193 175 L193 156 Z"/>
            </clipPath>
            <clipPath clipPathUnits="userSpaceOnUse" id="clipPath39">
                <path d="M259 170 L272 170 L272 183 L259 183 L259 170 Z"/>
            </clipPath>
            <clipPath clipPathUnits="userSpaceOnUse" id="clipPath40">
                <path d="M87 180 L285 180 L285 232 L87 232 L87 180 Z"/>
            </clipPath>
            <clipPath clipPathUnits="userSpaceOnUse" id="clipPath41">
                <path d="M105 193 L265 193 L265 212 L105 212 L105 193 Z"/>
            </clipPath>
            <clipPath clipPathUnits="userSpaceOnUse" id="clipPath42">
                <path d="M259 206 L272 206 L272 219 L259 219 L259 206 Z"/>
            </clipPath>
            <clipPath clipPathUnits="userSpaceOnUse" id="clipPath43">
                <path d="M87 396 L466 396 L466 452 L87 452 L87 396 Z"/>
            </clipPath>
            <clipPath clipPathUnits="userSpaceOnUse" id="clipPath44">
                <path d="M334 409 L437 409 L437 428 L334 428 L334 409 Z"/>
            </clipPath>
            <clipPath clipPathUnits="userSpaceOnUse" id="clipPath45">
                <path d="M440 426 L453 426 L453 439 L440 439 L440 426 Z"/>
            </clipPath>
            <clipPath clipPathUnits="userSpaceOnUse" id="clipPath46">
                <path d="M87 432 L466 432 L466 487 L87 487 L87 432 Z"/>
            </clipPath>
            <clipPath clipPathUnits="userSpaceOnUse" id="clipPath47">
                <path d="M122 445 L281 445 L281 464 L122 464 L122 445 Z"/>
            </clipPath>
            <clipPath clipPathUnits="userSpaceOnUse" id="clipPath48">
                <path d="M100 461 L113 461 L113 474 L100 474 L100 461 Z"/>
            </clipPath>
            <clipPath clipPathUnits="userSpaceOnUse" id="clipPath49">
                <path d="M87 206 L285 206 L285 258 L87 258 L87 206 Z"/>
            </clipPath>
            <clipPath clipPathUnits="userSpaceOnUse" id="clipPath50">
                <path d="M129 219 L243 219 L243 238 L129 238 L129 219 Z"/>
            </clipPath>
            <clipPath clipPathUnits="userSpaceOnUse" id="clipPath51">
                <path d="M100 232 L113 232 L113 245 L100 245 L100 232 Z"/>
            </clipPath>
            <clipPath clipPathUnits="userSpaceOnUse" id="clipPath52">
                <path d="M87 222 L466 222 L466 273 L87 273 L87 222 Z"/>
            </clipPath>
            <clipPath clipPathUnits="userSpaceOnUse" id="clipPath53">
                <path d="M346 235 L428 235 L428 254 L346 254 L346 235 Z"/>
            </clipPath>
            <clipPath clipPathUnits="userSpaceOnUse" id="clipPath54">
                <path d="M440 247 L453 247 L453 260 L440 260 L440 247 Z"/>
            </clipPath>
            <clipPath clipPathUnits="userSpaceOnUse" id="clipPath55">
                <path d="M87 325 L232 325 L232 426 L87 426 L87 325 Z"/>
            </clipPath>
            <clipPath clipPathUnits="userSpaceOnUse" id="clipPath56">
                <path d="M151 360 L219 360 L219 379 L151 379 L151 360 Z"/>
            </clipPath>
            <clipPath clipPathUnits="userSpaceOnUse" id="clipPath57">
                <path d="M113 400 L126 400 L126 413 L113 413 L113 400 Z"/>
            </clipPath>
            <clipPath clipPathUnits="userSpaceOnUse" id="clipPath58">
                <path d="M87 244 L466 244 L466 297 L87 297 L87 244 Z"/>
            </clipPath>
            <clipPath clipPathUnits="userSpaceOnUse" id="clipPath59">
                <path d="M127 257 L233 257 L233 276 L127 276 L127 257 Z"/>
            </clipPath>
            <clipPath clipPathUnits="userSpaceOnUse" id="clipPath60">
                <path d="M100 271 L113 271 L113 284 L100 284 L100 271 Z"/>
            </clipPath>
            <clipPath clipPathUnits="userSpaceOnUse" id="clipPath61">
                <path d="M87 291 L643 291 L643 344 L87 344 L87 291 Z"/>
            </clipPath>
            <clipPath clipPathUnits="userSpaceOnUse" id="clipPath62">
                <path d="M129 304 L235 304 L235 323 L129 323 L129 304 Z"/>
            </clipPath>
            <clipPath clipPathUnits="userSpaceOnUse" id="clipPath63">
                <path d="M100 318 L113 318 L113 331 L100 331 L100 318 Z"/>
            </clipPath>
            <clipPath clipPathUnits="userSpaceOnUse" id="clipPath64">
                <path d="M87 266 L643 266 L643 321 L87 321 L87 266 Z"/>
            </clipPath>
            <clipPath clipPathUnits="userSpaceOnUse" id="clipPath65">
                <path d="M530 279 L612 279 L612 298 L530 298 L530 279 Z"/>
            </clipPath>
            <clipPath clipPathUnits="userSpaceOnUse" id="clipPath66">
                <path d="M617 295 L630 295 L630 308 L617 308 L617 295 Z"/>
            </clipPath>
            <clipPath clipPathUnits="userSpaceOnUse" id="clipPath67">
                <path d="M87 460 L643 460 L643 515 L87 515 L87 460 Z"/>
            </clipPath>
            <clipPath clipPathUnits="userSpaceOnUse" id="clipPath68">
                <path d="M508 473 L611 473 L611 492 L508 492 L508 473 Z"/>
            </clipPath>
            <clipPath clipPathUnits="userSpaceOnUse" id="clipPath69">
                <path d="M617 489 L630 489 L630 502 L617 502 L617 489 Z"/>
            </clipPath>
            <clipPath clipPathUnits="userSpaceOnUse" id="clipPath70">
                <path d="M87 486 L643 486 L643 539 L87 539 L87 486 Z"/>
            </clipPath>
            <clipPath clipPathUnits="userSpaceOnUse" id="clipPath71">
                <path d="M118 499 L277 499 L277 518 L118 518 L118 499 Z"/>
            </clipPath>
            <clipPath clipPathUnits="userSpaceOnUse" id="clipPath72">
                <path d="M100 513 L113 513 L113 526 L100 526 L100 513 Z"/>
            </clipPath>
            <clipPath clipPathUnits="userSpaceOnUse" id="clipPath73">
                <path d="M87 533 L279 533 L279 623 L87 623 L87 533 Z"/>
            </clipPath>
            <clipPath clipPathUnits="userSpaceOnUse" id="clipPath74">
                <path d="M147 566 L266 566 L266 585 L147 585 L147 566 Z"/>
            </clipPath>
            <clipPath clipPathUnits="userSpaceOnUse" id="clipPath75">
                <path d="M113 597 L126 597 L126 610 L113 610 L113 597 Z"/>
            </clipPath>
        </defs>
        <g font-size="15" fill="white" font-family="'Ubuntu'"
            stroke-linejoin="round" stroke="white" stroke-width="0" stroke-miterlimit="0">
            <rect x="0" y="0" clip-path="url(#clipPath1)" width="724"
                height="690" stroke="none"/>
        </g>
        <g stroke-width="0.1" font-size="15" font-family="'Ubuntu'" stroke-linecap="butt">
            <line clip-path="url(#clipPath1)" fill="none" x1="1" x2="78"
                y1="31" y2="31"/>
            <line clip-path="url(#clipPath1)" fill="none" x1="78"
                x2="85" y1="31" y2="17"/>
            <line clip-path="url(#clipPath1)" fill="none" x1="85"
                x2="85" y1="17" y2="1"/>
            <text x="6" y="20" clip-path="url(#clipPath2)" stroke="none"
                font-weight="bold" xml:space="preserve">sd </text>
            <text font-size="13" x="28" y="19"
                clip-path="url(#clipPath3)" font-family="'Dialog'"
                stroke="none" xml:space="preserve">control</text>
            <line clip-path="url(#clipPath4)" fill="none" x1="91"
                x2="91" y1="101" y2="680" stroke-dasharray="10,2" stroke="rgb(106,88,75)"/>
            <rect x="35" y="71" clip-path="url(#clipPath5)"
                fill="rgb(237,247,200)" width="113"
                stroke-dasharray="10,2" height="30" stroke="none"/>
        </g>
        <g font-size="13" stroke-linecap="butt" fill="rgb(106,88,75)"
            stroke-dasharray="10,2" stroke="rgb(106,88,75)" stroke-width="0.1">
            <text xml:space="preserve" x="45" y="90"
                clip-path="url(#clipPath6)" stroke="none">ControlLoop</text>
            <text xml:space="preserve" x="125" y="90"
                clip-path="url(#clipPath7)" stroke="none"> : </text>
            <line clip-path="url(#clipPath8)" fill="none" x1="45"
                x2="137" y1="94" y2="94" stroke-dasharray="none" stroke-width="1.1"/>
        </g>
        <g font-size="15" stroke-linecap="butt" fill="rgb(106,88,75)"
            font-family="'Ubuntu'" stroke="rgb(106,88,75)" stroke-width="1.1">
            <rect x="35" y="71" clip-path="url(#clipPath5)" fill="none"
                width="112" height="29"/>
            <rect x="81" y="124" clip-path="url(#clipPath9)"
                fill="rgb(237,247,200)" width="20" height="532" stroke="none"/>
            <rect x="81" y="124" clip-path="url(#clipPath9)" fill="none"
                width="19" height="531"/>
            <rect x="94" y="372" clip-path="url(#clipPath10)"
                fill="rgb(200,255,200)" width="20" height="40" stroke="none"/>
            <rect x="94" y="372" clip-path="url(#clipPath10)"
                fill="none" width="19" height="39" stroke="black"/>
            <rect x="94" y="593" clip-path="url(#clipPath11)"
                fill="rgb(200,255,200)" width="20" height="40" stroke="none"/>
            <rect x="94" y="593" clip-path="url(#clipPath11)"
                fill="none" width="19" height="39" stroke="black"/>
            <line clip-path="url(#clipPath12)" fill="none" x1="638"
                x2="638" y1="101" y2="551" stroke-dasharray="10,2" stroke-width="0.1"/>
        </g>
        <g font-size="15" stroke-linecap="butt" fill="rgb(255,192,203)"
            font-family="'Ubuntu'" stroke-dasharray="10,2"
            stroke="rgb(255,192,203)" stroke-width="0.1">
            <rect x="563" y="71" clip-path="url(#clipPath13)"
                width="151" height="30" stroke="none"/>
        </g>
        <g font-size="13" stroke-linecap="butt" fill="rgb(106,88,75)"
            stroke-dasharray="10,2" stroke="rgb(106,88,75)" stroke-width="0.1">
            <text xml:space="preserve" x="592" y="90"
                clip-path="url(#clipPath14)" stroke="none">controlLaw2</text>
            <text xml:space="preserve" x="673" y="90"
                clip-path="url(#clipPath15)" stroke="none"> : </text>
            <line clip-path="url(#clipPath16)" fill="none" x1="592"
                x2="685" y1="94" y2="94" stroke-dasharray="none" stroke-width="1.1"/>
        </g>
        <g font-size="15" stroke-linecap="butt" fill="rgb(106,88,75)"
            font-family="'Ubuntu'" stroke="rgb(106,88,75)" stroke-width="1.1">
            <rect x="563" y="71" clip-path="url(#clipPath13)"
                fill="none" width="150" height="29"/>
            <rect x="628" y="296" clip-path="url(#clipPath17)"
                fill="rgb(255,192,203)" width="20" height="40" stroke="none"/>
            <rect x="628" y="296" clip-path="url(#clipPath17)"
                fill="none" width="19" height="39"/>
            <rect x="628" y="479" clip-path="url(#clipPath18)"
                fill="rgb(255,192,203)" width="20" height="50" stroke="none"/>
            <rect x="628" y="479" clip-path="url(#clipPath18)"
                fill="none" width="19" height="49" stroke="rgb(255,192,203)"/>
            <line clip-path="url(#clipPath19)" fill="none" x1="461"
                x2="461" y1="101" y2="490" stroke-dasharray="10,2" stroke-width="0.1"/>
        </g>
        <g font-size="15" stroke-linecap="butt" fill="rgb(255,192,203)"
            font-family="'Ubuntu'" stroke-dasharray="10,2"
            stroke="rgb(255,192,203)" stroke-width="0.1">
            <rect x="387" y="71" clip-path="url(#clipPath20)"
                width="148" height="30" stroke="none"/>
        </g>
        <g font-size="13" stroke-linecap="butt" fill="rgb(106,88,75)"
            stroke-dasharray="10,2" stroke="rgb(106,88,75)" stroke-width="0.1">
            <text xml:space="preserve" x="413" y="90"
                clip-path="url(#clipPath21)" stroke="none">ControlLaw1</text>
            <text xml:space="preserve" x="496" y="90"
                clip-path="url(#clipPath22)" stroke="none"> : </text>
            <line clip-path="url(#clipPath23)" fill="none" x1="413"
                x2="508" y1="94" y2="94" stroke-dasharray="none" stroke-width="1.1"/>
        </g>
        <g font-size="15" stroke-linecap="butt" fill="rgb(106,88,75)"
            font-family="'Ubuntu'" stroke="rgb(106,88,75)" stroke-width="1.1">
            <rect x="387" y="71" clip-path="url(#clipPath20)"
                fill="none" width="147" height="29"/>
            <rect x="451" y="237" clip-path="url(#clipPath24)"
                fill="rgb(255,192,203)" width="20" height="44" stroke="none"/>
            <rect x="451" y="237" clip-path="url(#clipPath24)"
                fill="none" width="19" height="43"/>
            <rect x="451" y="428" clip-path="url(#clipPath25)"
                fill="rgb(255,192,203)" width="20" height="53" stroke="none"/>
            <rect x="451" y="428" clip-path="url(#clipPath25)"
                fill="none" width="19" height="52"/>
            <line clip-path="url(#clipPath26)" fill="none" x1="280"
                x2="280" y1="101" y2="244" stroke-dasharray="10,2" stroke-width="0.1"/>
        </g>
        <g font-size="15" stroke-linecap="butt" fill="rgb(173,216,230)"
            font-family="'Ubuntu'" stroke-dasharray="10,2"
            stroke="rgb(173,216,230)" stroke-width="0.1">
            <rect x="195" y="71" clip-path="url(#clipPath27)"
                width="170" height="30" stroke="none"/>
        </g>
        <g font-size="13" stroke-linecap="butt" fill="rgb(106,88,75)"
            stroke-dasharray="10,2" stroke="rgb(106,88,75)" stroke-width="0.1">
            <text xml:space="preserve" x="205" y="90"
                clip-path="url(#clipPath28)" stroke="none">ReferencePropagator</text>
            <text xml:space="preserve" x="343" y="90"
                clip-path="url(#clipPath29)" stroke="none"> : </text>
            <line clip-path="url(#clipPath30)" fill="none" x1="205"
                x2="355" y1="94" y2="94" stroke-dasharray="none" stroke-width="1.1"/>
        </g>
        <g font-size="15" stroke-linecap="butt" fill="rgb(106,88,75)"
            font-family="'Ubuntu'" stroke="rgb(106,88,75)" stroke-width="1.1">
            <rect x="195" y="71" clip-path="url(#clipPath27)"
                fill="none" width="169" height="29"/>
            <rect x="270" y="121" clip-path="url(#clipPath31)"
                fill="rgb(173,216,230)" width="20" height="29" stroke="none"/>
            <rect x="270" y="121" clip-path="url(#clipPath31)"
                fill="none" width="19" height="28"/>
            <rect x="270" y="165" clip-path="url(#clipPath32)"
                fill="rgb(173,216,230)" width="20" height="26" stroke="none"/>
            <rect x="270" y="165" clip-path="url(#clipPath32)"
                fill="none" width="19" height="25"/>
            <rect x="270" y="204" clip-path="url(#clipPath33)"
                fill="rgb(173,216,230)" width="20" height="37" stroke="none"/>
            <rect x="270" y="204" clip-path="url(#clipPath33)"
                fill="none" width="19" height="36"/>
            <rect x="0" y="0" clip-path="url(#clipPath1)" fill="none"
                width="723" height="689" stroke="black"/>
        </g>
        <g stroke-width="0.1" font-size="13" stroke-linecap="butt">
            <line clip-path="url(#clipPath34)" fill="none" x1="101"
                x2="270" y1="131" y2="131"/>
            <text xml:space="preserve" x="107" y="126"
                clip-path="url(#clipPath35)" stroke="none">addScheduledManeuver</text>
            <polygon clip-path="url(#clipPath36)"
                points=" 270 131 260 136 260 126" stroke="none"/>
            <polygon fill="none" stroke-width="1.1"
                clip-path="url(#clipPath36)" points=" 270 131 260 136 260 126"/>
            <line clip-path="url(#clipPath37)" fill="none" x1="101"
                x2="270" y1="176" y2="176"/>
            <text xml:space="preserve" x="194" y="170"
                clip-path="url(#clipPath38)" stroke="none">propagate</text>
            <polygon clip-path="url(#clipPath39)"
                points=" 270 176 260 181 260 171" stroke="none"/>
            <polygon fill="none" stroke-width="1.1"
                clip-path="url(#clipPath39)" points=" 270 176 260 181 260 171"/>
            <line clip-path="url(#clipPath40)" fill="none" x1="101"
                x2="270" y1="212" y2="212"/>
            <text xml:space="preserve" x="106" y="207"
                clip-path="url(#clipPath41)" stroke="none">getGeneratedEphemeris</text>
            <polygon clip-path="url(#clipPath42)"
                points=" 270 212 260 217 260 207" stroke="none"/>
            <polygon fill="none" stroke-width="1.1"
                clip-path="url(#clipPath42)" points=" 270 212 260 217 260 207"/>
            <line clip-path="url(#clipPath43)" fill="none" x1="101"
                x2="451" y1="432" y2="432"/>
            <text xml:space="preserve" x="335" y="423"
                clip-path="url(#clipPath44)" stroke="none">tuneManeuvers</text>
            <polygon clip-path="url(#clipPath45)"
                points=" 451 432 441 437 441 427" stroke="none"/>
            <polygon fill="none" stroke-width="1.1"
                clip-path="url(#clipPath45)" points=" 451 432 441 437 441 427"/>
            <line clip-path="url(#clipPath46)" fill="none" x1="451"
                x2="101" y1="467" y2="467" stroke-dasharray="10,5"/>
            <text x="123" y="459" clip-path="url(#clipPath47)"
                stroke-dasharray="10,5" stroke="none" xml:space="preserve">return tuned maneuvers</text>
            <polygon stroke-dasharray="10,5"
                clip-path="url(#clipPath48)"
                points=" 101 467 111 462 111 472" stroke="none"/>
            <polygon fill="none" stroke-width="1.1"
                clip-path="url(#clipPath48)" points=" 101 467 111 462 111 472"/>
            <line clip-path="url(#clipPath49)" fill="none" x1="270"
                x2="101" y1="238" y2="238" stroke-dasharray="10,5"/>
            <text x="130" y="233" clip-path="url(#clipPath50)"
                stroke-dasharray="10,5" stroke="none" xml:space="preserve">return ephemeris</text>
            <polygon stroke-dasharray="10,5"
                clip-path="url(#clipPath51)"
                points=" 101 238 111 233 111 243" stroke="none"/>
            <polygon fill="none" stroke-width="1.1"
                clip-path="url(#clipPath51)" points=" 101 238 111 233 111 243"/>
            <line clip-path="url(#clipPath52)" fill="none" x1="101"
                x2="451" y1="253" y2="253"/>
            <text xml:space="preserve" x="347" y="249"
                clip-path="url(#clipPath53)" stroke="none">initializeRun</text>
            <polygon clip-path="url(#clipPath54)"
                points=" 451 253 441 258 441 248" stroke="none"/>
            <polygon fill="none" stroke-width="1.1"
                clip-path="url(#clipPath54)" points=" 451 253 441 258 441 248"/>
            <line clip-path="url(#clipPath55)" fill="none" x1="101"
                x2="148" y1="339" y2="339"/>
            <line clip-path="url(#clipPath55)" fill="none" x1="148"
                x2="148" y1="339" y2="406"/>
            <line clip-path="url(#clipPath55)" fill="none" x1="148"
                x2="114" y1="406" y2="406"/>
            <text xml:space="preserve" x="152" y="374"
                clip-path="url(#clipPath56)" stroke="none">propagate</text>
            <polygon clip-path="url(#clipPath57)"
                points=" 114 406 124 401 124 411" stroke="none"/>
            <polygon fill="none" stroke-width="1.1"
                clip-path="url(#clipPath57)" points=" 114 406 124 401 124 411"/>
            <line clip-path="url(#clipPath58)" fill="none" x1="451"
                x2="101" y1="277" y2="277"/>
            <text xml:space="preserve" x="128" y="271"
                clip-path="url(#clipPath59)" stroke="none">addStepHandler</text>
            <polygon clip-path="url(#clipPath60)"
                points=" 101 277 111 272 111 282" stroke="none"/>
            <polygon fill="none" stroke-width="1.1"
                clip-path="url(#clipPath60)" points=" 101 277 111 272 111 282"/>
            <line clip-path="url(#clipPath61)" fill="none" x1="628"
                x2="101" y1="324" y2="324"/>
            <text xml:space="preserve" x="130" y="318"
                clip-path="url(#clipPath62)" stroke="none">addStepHandler</text>
            <polygon clip-path="url(#clipPath63)"
                points=" 101 324 111 319 111 329" stroke="none"/>
            <polygon fill="none" stroke-width="1.1"
                clip-path="url(#clipPath63)" points=" 101 324 111 319 111 329"/>
            <line clip-path="url(#clipPath64)" fill="none" x1="101"
                x2="628" y1="301" y2="301"/>
            <text xml:space="preserve" x="531" y="293"
                clip-path="url(#clipPath65)" stroke="none">initializeRun</text>
            <polygon clip-path="url(#clipPath66)"
                points=" 628 301 618 306 618 296" stroke="none"/>
            <polygon fill="none" stroke-width="1.1"
                clip-path="url(#clipPath66)" points=" 628 301 618 306 618 296"/>
            <line clip-path="url(#clipPath67)" fill="none" x1="101"
                x2="628" y1="495" y2="495"/>
            <text xml:space="preserve" x="509" y="487"
                clip-path="url(#clipPath68)" stroke="none">tuneManeuvers</text>
            <polygon clip-path="url(#clipPath69)"
                points=" 628 495 618 500 618 490" stroke="none"/>
            <polygon fill="none" stroke-width="1.1"
                clip-path="url(#clipPath69)" points=" 628 495 618 500 618 490"/>
            <line clip-path="url(#clipPath70)" fill="none" x1="628"
                x2="101" y1="519" y2="519" stroke-dasharray="10,5"/>
            <text x="119" y="513" clip-path="url(#clipPath71)"
                stroke-dasharray="10,5" stroke="none" xml:space="preserve">return tuned maneuvers</text>
            <polygon stroke-dasharray="10,5"
                clip-path="url(#clipPath72)"
                points=" 101 519 111 514 111 524" stroke="none"/>
            <polygon fill="none" stroke-width="1.1"
                clip-path="url(#clipPath72)" points=" 101 519 111 514 111 524"/>
            <line clip-path="url(#clipPath73)" fill="none" x1="101"
                x2="131" y1="547" y2="547"/>
            <line clip-path="url(#clipPath73)" fill="none" x1="131"
                x2="131" y1="547" y2="603"/>
            <line clip-path="url(#clipPath73)" fill="none" x1="131"
                x2="114" y1="603" y2="603"/>
            <text xml:space="preserve" x="148" y="580"
                clip-path="url(#clipPath74)" stroke="none">updateManeuvers</text>
            <polygon clip-path="url(#clipPath75)"
                points=" 114 603 124 598 124 608" stroke="none"/>
            <polygon fill="none" stroke-width="1.1"
                clip-path="url(#clipPath75)" points=" 114 603 124 598 124 608"/>
        </g>
    </g>
</svg>
