<?xml version="1.0" encoding="UTF-8"?>
<svg stroke-dasharray="none" shape-rendering="auto"
    font-family="'Dialog'" width="725" text-rendering="auto"
    fill-opacity="1" color-interpolation="auto" color-rendering="auto"
    font-size="12" fill="black" stroke="black" image-rendering="auto"
    stroke-miterlimit="10" stroke-linecap="square"
    stroke-linejoin="miter" font-style="normal" height="480"
    stroke-width="1" stroke-dashoffset="0" font-weight="normal" stroke-opacity="1">
    <!--Generated by the Batik Graphics2D SVG Generator-->
    <defs id="genericDefs"/>
    <g>
        <defs id="defs1">
            <clipPath clipPathUnits="userSpaceOnUse" id="clipPath1">
                <path d="M-1 -1 L725 -1 L725 480 L-1 480 L-1 -1 Z"/>
            </clipPath>
            <clipPath clipPathUnits="userSpaceOnUse" id="clipPath2">
                <path d="M5 5 L28 5 L28 28 L5 28 L5 5 Z"/>
            </clipPath>
            <clipPath clipPathUnits="userSpaceOnUse" id="clipPath3">
                <path d="M28 8 L74 8 L74 25 L28 25 L28 8 Z"/>
            </clipPath>
            <clipPath clipPathUnits="userSpaceOnUse" id="clipPath4">
                <path d="M34 74 L149 74 L149 470 L34 470 L34 74 Z"/>
            </clipPath>
            <clipPath clipPathUnits="userSpaceOnUse" id="clipPath5">
                <path d="M34 74 L149 74 L149 104 L34 104 L34 74 Z"/>
            </clipPath>
            <clipPath clipPathUnits="userSpaceOnUse" id="clipPath6">
                <path d="M45 80 L124 80 L124 97 L45 97 L45 80 Z"/>
            </clipPath>
            <clipPath clipPathUnits="userSpaceOnUse" id="clipPath7">
                <path d="M124 80 L138 80 L138 97 L124 97 L124 80 Z"/>
            </clipPath>
            <clipPath clipPathUnits="userSpaceOnUse" id="clipPath8">
                <path d="M45 80 L138 80 L138 98 L45 98 L45 80 Z"/>
            </clipPath>
            <clipPath clipPathUnits="userSpaceOnUse" id="clipPath9">
                <path d="M80 125 L102 125 L102 458 L80 458 L80 125 Z"/>
            </clipPath>
            <clipPath clipPathUnits="userSpaceOnUse" id="clipPath10">
                <path d="M562 74 L715 74 L715 404 L562 404 L562 74 Z"/>
            </clipPath>
            <clipPath clipPathUnits="userSpaceOnUse" id="clipPath11">
                <path d="M562 74 L715 74 L715 104 L562 104 L562 74 Z"/>
            </clipPath>
            <clipPath clipPathUnits="userSpaceOnUse" id="clipPath12">
                <path d="M599 80 L663 80 L663 97 L599 97 L599 80 Z"/>
            </clipPath>
            <clipPath clipPathUnits="userSpaceOnUse" id="clipPath13">
                <path d="M663 80 L677 80 L677 97 L663 97 L663 80 Z"/>
            </clipPath>
            <clipPath clipPathUnits="userSpaceOnUse" id="clipPath14">
                <path d="M599 80 L677 80 L677 98 L599 98 L599 80 Z"/>
            </clipPath>
            <clipPath clipPathUnits="userSpaceOnUse" id="clipPath15">
                <path d="M627 263 L649 263 L649 377 L627 377 L627 263 Z"/>
            </clipPath>
            <clipPath clipPathUnits="userSpaceOnUse" id="clipPath16">
                <path d="M386 74 L536 74 L536 462 L386 462 L386 74 Z"/>
            </clipPath>
            <clipPath clipPathUnits="userSpaceOnUse" id="clipPath17">
                <path d="M386 74 L536 74 L536 104 L386 104 L386 74 Z"/>
            </clipPath>
            <clipPath clipPathUnits="userSpaceOnUse" id="clipPath18">
                <path d="M397 80 L511 80 L511 97 L397 97 L397 80 Z"/>
            </clipPath>
            <clipPath clipPathUnits="userSpaceOnUse" id="clipPath19">
                <path d="M511 80 L525 80 L525 97 L511 97 L511 80 Z"/>
            </clipPath>
            <clipPath clipPathUnits="userSpaceOnUse" id="clipPath20">
                <path d="M397 80 L525 80 L525 98 L397 98 L397 80 Z"/>
            </clipPath>
            <clipPath clipPathUnits="userSpaceOnUse" id="clipPath21">
                <path d="M450 288 L472 288 L472 317 L450 317 L450 288 Z"/>
            </clipPath>
            <clipPath clipPathUnits="userSpaceOnUse" id="clipPath22">
                <path d="M450 328 L472 328 L472 355 L450 355 L450 328 Z"/>
            </clipPath>
            <clipPath clipPathUnits="userSpaceOnUse" id="clipPath23">
                <path d="M450 388 L472 388 L472 443 L450 443 L450 388 Z"/>
            </clipPath>
            <clipPath clipPathUnits="userSpaceOnUse" id="clipPath24">
                <path d="M194 74 L366 74 L366 248 L194 248 L194 74 Z"/>
            </clipPath>
            <clipPath clipPathUnits="userSpaceOnUse" id="clipPath25">
                <path d="M194 74 L366 74 L366 104 L194 104 L194 74 Z"/>
            </clipPath>
            <clipPath clipPathUnits="userSpaceOnUse" id="clipPath26">
                <path d="M205 80 L341 80 L341 97 L205 97 L205 80 Z"/>
            </clipPath>
            <clipPath clipPathUnits="userSpaceOnUse" id="clipPath27">
                <path d="M341 80 L355 80 L355 97 L341 97 L341 80 Z"/>
            </clipPath>
            <clipPath clipPathUnits="userSpaceOnUse" id="clipPath28">
                <path d="M205 80 L355 80 L355 98 L205 98 L205 80 Z"/>
            </clipPath>
            <clipPath clipPathUnits="userSpaceOnUse" id="clipPath29">
                <path d="M269 122 L291 122 L291 153 L269 153 L269 122 Z"/>
            </clipPath>
            <clipPath clipPathUnits="userSpaceOnUse" id="clipPath30">
                <path d="M269 166 L291 166 L291 194 L269 194 L269 166 Z"/>
            </clipPath>
            <clipPath clipPathUnits="userSpaceOnUse" id="clipPath31">
                <path d="M269 205 L291 205 L291 227 L269 227 L269 205 Z"/>
            </clipPath>
            <clipPath clipPathUnits="userSpaceOnUse" id="clipPath32">
                <path d="M87 102 L285 102 L285 153 L87 153 L87 102 Z"/>
            </clipPath>
            <clipPath clipPathUnits="userSpaceOnUse" id="clipPath33">
                <path d="M107 115 L263 115 L263 132 L107 132 L107 115 Z"/>
            </clipPath>
            <clipPath clipPathUnits="userSpaceOnUse" id="clipPath34">
                <path d="M259 127 L272 127 L272 140 L259 140 L259 127 Z"/>
            </clipPath>
            <clipPath clipPathUnits="userSpaceOnUse" id="clipPath35">
                <path d="M87 146 L285 146 L285 198 L87 198 L87 146 Z"/>
            </clipPath>
            <clipPath clipPathUnits="userSpaceOnUse" id="clipPath36">
                <path d="M193 159 L261 159 L261 176 L193 176 L193 159 Z"/>
            </clipPath>
            <clipPath clipPathUnits="userSpaceOnUse" id="clipPath37">
                <path d="M259 172 L272 172 L272 185 L259 185 L259 172 Z"/>
            </clipPath>
            <clipPath clipPathUnits="userSpaceOnUse" id="clipPath38">
                <path d="M87 183 L285 183 L285 234 L87 234 L87 183 Z"/>
            </clipPath>
            <clipPath clipPathUnits="userSpaceOnUse" id="clipPath39">
                <path d="M106 196 L265 196 L265 213 L106 213 L106 196 Z"/>
            </clipPath>
            <clipPath clipPathUnits="userSpaceOnUse" id="clipPath40">
                <path d="M259 208 L272 208 L272 221 L259 221 L259 208 Z"/>
            </clipPath>
            <clipPath clipPathUnits="userSpaceOnUse" id="clipPath41">
                <path d="M87 222 L476 222 L476 277 L87 277 L87 222 Z"/>
            </clipPath>
            <clipPath clipPathUnits="userSpaceOnUse" id="clipPath42">
                <path d="M396 235 L439 235 L439 252 L396 252 L396 235 Z"/>
            </clipPath>
            <clipPath clipPathUnits="userSpaceOnUse" id="clipPath43">
                <path d="M450 251 L463 251 L463 264 L450 264 L450 251 Z"/>
            </clipPath>
            <clipPath clipPathUnits="userSpaceOnUse" id="clipPath44">
                <path d="M87 245 L643 245 L643 299 L87 299 L87 245 Z"/>
            </clipPath>
            <clipPath clipPathUnits="userSpaceOnUse" id="clipPath45">
                <path d="M558 258 L615 258 L615 275 L558 275 L558 258 Z"/>
            </clipPath>
            <clipPath clipPathUnits="userSpaceOnUse" id="clipPath46">
                <path d="M617 273 L630 273 L630 286 L617 286 L617 273 Z"/>
            </clipPath>
            <clipPath clipPathUnits="userSpaceOnUse" id="clipPath47">
                <path d="M457 270 L643 270 L643 322 L457 322 L457 270 Z"/>
            </clipPath>
            <clipPath clipPathUnits="userSpaceOnUse" id="clipPath48">
                <path d="M481 283 L517 283 L517 300 L481 300 L481 283 Z"/>
            </clipPath>
            <clipPath clipPathUnits="userSpaceOnUse" id="clipPath49">
                <path d="M470 296 L483 296 L483 309 L470 309 L470 296 Z"/>
            </clipPath>
            <clipPath clipPathUnits="userSpaceOnUse" id="clipPath50">
                <path d="M457 299 L643 299 L643 352 L457 352 L457 299 Z"/>
            </clipPath>
            <clipPath clipPathUnits="userSpaceOnUse" id="clipPath51">
                <path d="M486 312 L522 312 L522 329 L486 329 L486 312 Z"/>
            </clipPath>
            <clipPath clipPathUnits="userSpaceOnUse" id="clipPath52">
                <path d="M470 326 L483 326 L483 339 L470 339 L470 326 Z"/>
            </clipPath>
            <clipPath clipPathUnits="userSpaceOnUse" id="clipPath53">
                <path d="M87 327 L643 327 L643 383 L87 383 L87 327 Z"/>
            </clipPath>
            <clipPath clipPathUnits="userSpaceOnUse" id="clipPath54">
                <path d="M100 340 L282 340 L282 357 L100 357 L100 340 Z"/>
            </clipPath>
            <clipPath clipPathUnits="userSpaceOnUse" id="clipPath55">
                <path d="M100 357 L113 357 L113 370 L100 370 L100 357 Z"/>
            </clipPath>
            <clipPath clipPathUnits="userSpaceOnUse" id="clipPath56">
                <path d="M87 369 L466 369 L466 424 L87 424 L87 369 Z"/>
            </clipPath>
            <clipPath clipPathUnits="userSpaceOnUse" id="clipPath57">
                <path d="M330 382 L440 382 L440 399 L330 399 L330 382 Z"/>
            </clipPath>
            <clipPath clipPathUnits="userSpaceOnUse" id="clipPath58">
                <path d="M440 398 L453 398 L453 411 L440 411 L440 398 Z"/>
            </clipPath>
            <clipPath clipPathUnits="userSpaceOnUse" id="clipPath59">
                <path d="M87 394 L466 394 L466 448 L87 448 L87 394 Z"/>
            </clipPath>
            <clipPath clipPathUnits="userSpaceOnUse" id="clipPath60">
                <path d="M108 407 L294 407 L294 424 L108 424 L108 407 Z"/>
            </clipPath>
            <clipPath clipPathUnits="userSpaceOnUse" id="clipPath61">
                <path d="M100 422 L113 422 L113 435 L100 435 L100 422 Z"/>
            </clipPath>
        </defs>
        <g font-size="15" fill="white" font-family="'Cantarell'"
            stroke-linejoin="round" stroke="white" stroke-width="0" stroke-miterlimit="0">
            <rect x="0" y="0" clip-path="url(#clipPath1)" width="724"
                height="479" stroke="none"/>
        </g>
        <g stroke-width="0.1" font-size="15" font-family="'Cantarell'" stroke-linecap="butt">
            <line clip-path="url(#clipPath1)" fill="none" x1="1" x2="78"
                y1="35" y2="35"/>
            <line clip-path="url(#clipPath1)" fill="none" x1="78"
                x2="85" y1="35" y2="21"/>
            <line clip-path="url(#clipPath1)" fill="none" x1="85"
                x2="85" y1="21" y2="1"/>
            <text x="6" y="22" clip-path="url(#clipPath2)" stroke="none"
                font-weight="bold" xml:space="preserve">sd </text>
            <text font-size="13" x="29" y="22"
                clip-path="url(#clipPath3)" font-family="'Dialog'"
                stroke="none" xml:space="preserve">control</text>
            <line clip-path="url(#clipPath4)" fill="none" x1="91"
                x2="91" y1="103" y2="469" stroke-dasharray="10,2" stroke="rgb(106,88,75)"/>
            <rect x="35" y="75" clip-path="url(#clipPath5)"
                fill="rgb(237,247,200)" width="113"
                stroke-dasharray="10,2" height="28" stroke="none"/>
        </g>
        <g font-size="13" stroke-linecap="butt" fill="rgb(106,88,75)"
            stroke-dasharray="10,2" stroke="rgb(106,88,75)" stroke-width="0.1">
            <text xml:space="preserve" x="46" y="94"
                clip-path="url(#clipPath6)" stroke="none">ControlLoop</text>
            <text xml:space="preserve" x="125" y="94"
                clip-path="url(#clipPath7)" stroke="none"> : </text>
            <line clip-path="url(#clipPath8)" fill="none" x1="46"
                x2="137" y1="96" y2="96" stroke-dasharray="none" stroke-width="1.1"/>
        </g>
        <g font-size="15" stroke-linecap="butt" fill="rgb(106,88,75)"
            font-family="'Cantarell'" stroke="rgb(106,88,75)" stroke-width="1.1">
            <rect x="35" y="75" clip-path="url(#clipPath5)" fill="none"
                width="112" height="27"/>
            <rect x="81" y="126" clip-path="url(#clipPath9)"
                fill="rgb(237,247,200)" width="20" height="331" stroke="none"/>
            <rect x="81" y="126" clip-path="url(#clipPath9)" fill="none"
                width="19" height="330"/>
        </g>
        <g font-size="15" stroke-linecap="butt" fill="rgb(41,0,141)"
            font-family="'Cantarell'" stroke-dasharray="10,2"
            stroke="rgb(41,0,141)" stroke-width="0.1">
            <line clip-path="url(#clipPath10)" fill="none" x1="638"
                x2="638" y1="103" y2="403"/>
            <rect x="563" y="75" clip-path="url(#clipPath11)"
                fill="rgb(243,232,255)" width="151" height="28" stroke="none"/>
            <text font-size="13" x="600" y="94"
                clip-path="url(#clipPath12)" font-family="'Dialog'"
                stroke="none" xml:space="preserve">Optimizer</text>
            <text font-size="13" x="664" y="94"
                clip-path="url(#clipPath13)" font-family="'Dialog'"
                stroke="none" xml:space="preserve"> : </text>
        </g>
        <g fill="rgb(41,0,141)" stroke-width="1.1" font-size="13"
            stroke-linecap="butt" stroke="rgb(41,0,141)">
            <line clip-path="url(#clipPath14)" fill="none" x1="600"
                x2="676" y1="96" y2="96"/>
            <rect x="563" y="75" clip-path="url(#clipPath11)"
                fill="none" width="150" height="27"/>
        </g>
        <g font-size="15" stroke-linecap="butt" fill="rgb(237,247,200)"
            font-family="'Cantarell'" stroke="rgb(237,247,200)" stroke-width="1.1">
            <rect x="628" y="264" clip-path="url(#clipPath15)"
                width="20" height="112" stroke="none"/>
            <rect x="628" y="264" clip-path="url(#clipPath15)"
                fill="none" width="19" height="111" stroke="rgb(106,88,75)"/>
        </g>
        <g font-size="15" stroke-linecap="butt" fill="rgb(106,88,75)"
            font-family="'Cantarell'" stroke-dasharray="10,2"
            stroke="rgb(106,88,75)" stroke-width="0.1">
            <line clip-path="url(#clipPath16)" fill="none" x1="461"
                x2="461" y1="103" y2="461"/>
            <rect x="387" y="75" clip-path="url(#clipPath17)"
                fill="rgb(237,247,200)" width="148" height="28" stroke="none"/>
            <text font-size="13" x="398" y="94"
                clip-path="url(#clipPath18)" font-family="'Dialog'"
                stroke="none" xml:space="preserve">ObjectiveFunction</text>
            <text font-size="13" x="512" y="94"
                clip-path="url(#clipPath19)" font-family="'Dialog'"
                stroke="none" xml:space="preserve"> : </text>
        </g>
        <g fill="rgb(106,88,75)" stroke-width="1.1" font-size="13"
            stroke-linecap="butt" stroke="rgb(106,88,75)">
            <line clip-path="url(#clipPath20)" fill="none" x1="398"
                x2="524" y1="96" y2="96"/>
            <rect x="387" y="75" clip-path="url(#clipPath17)"
                fill="none" width="147" height="27"/>
        </g>
        <g font-size="15" stroke-linecap="butt" fill="rgb(237,247,200)"
            font-family="'Cantarell'" stroke="rgb(237,247,200)" stroke-width="1.1">
            <rect x="451" y="289" clip-path="url(#clipPath21)"
                width="20" height="27" stroke="none"/>
            <rect x="451" y="289" clip-path="url(#clipPath21)"
                fill="none" width="19" height="26" stroke="rgb(106,88,75)"/>
            <rect x="451" y="329" clip-path="url(#clipPath22)"
                width="20" height="25" stroke="none"/>
            <rect x="451" y="329" clip-path="url(#clipPath22)"
                fill="none" width="19" height="24" stroke="rgb(106,88,75)"/>
            <rect x="451" y="389" clip-path="url(#clipPath23)"
                width="20" height="53" stroke="none"/>
            <rect x="451" y="389" clip-path="url(#clipPath23)"
                fill="none" width="19" height="52" stroke="rgb(106,88,75)"/>
        </g>
        <g font-size="15" stroke-linecap="butt" fill="rgb(106,88,75)"
            font-family="'Cantarell'" stroke-dasharray="10,2"
            stroke="rgb(106,88,75)" stroke-width="0.1">
            <line clip-path="url(#clipPath24)" fill="none" x1="280"
                x2="280" y1="103" y2="247"/>
            <rect x="195" y="75" clip-path="url(#clipPath25)"
                fill="rgb(237,247,200)" width="170" height="28" stroke="none"/>
            <text font-size="13" x="206" y="94"
                clip-path="url(#clipPath26)" font-family="'Dialog'"
                stroke="none" xml:space="preserve">ReferencePropagator</text>
            <text font-size="13" x="342" y="94"
                clip-path="url(#clipPath27)" font-family="'Dialog'"
                stroke="none" xml:space="preserve"> : </text>
        </g>
        <g fill="rgb(106,88,75)" stroke-width="1.1" font-size="13"
            stroke-linecap="butt" stroke="rgb(106,88,75)">
            <line clip-path="url(#clipPath28)" fill="none" x1="206"
                x2="354" y1="96" y2="96"/>
            <rect x="195" y="75" clip-path="url(#clipPath25)"
                fill="none" width="169" height="27"/>
        </g>
        <g font-size="15" stroke-linecap="butt" fill="rgb(237,247,200)"
            font-family="'Cantarell'" stroke="rgb(237,247,200)" stroke-width="1.1">
            <rect x="270" y="123" clip-path="url(#clipPath29)"
                width="20" height="29" stroke="none"/>
            <rect x="270" y="123" clip-path="url(#clipPath29)"
                fill="none" width="19" height="28" stroke="rgb(106,88,75)"/>
            <rect x="270" y="167" clip-path="url(#clipPath30)"
                width="20" height="26" stroke="none"/>
            <rect x="270" y="167" clip-path="url(#clipPath30)"
                fill="none" width="19" height="25" stroke="rgb(106,88,75)"/>
            <rect x="270" y="206" clip-path="url(#clipPath31)"
                width="20" height="20" stroke="none"/>
            <rect x="270" y="206" clip-path="url(#clipPath31)"
                fill="none" width="19" height="19" stroke="rgb(106,88,75)"/>
            <rect x="0" y="0" clip-path="url(#clipPath1)" fill="none"
                width="723" height="478" stroke="black"/>
        </g>
        <g stroke-width="0.1" font-size="13" stroke-linecap="butt">
            <line clip-path="url(#clipPath32)" fill="none" x1="101"
                x2="270" y1="133" y2="133"/>
            <text xml:space="preserve" x="108" y="129"
                clip-path="url(#clipPath33)" stroke="none">addScheduledManeuver</text>
            <polygon clip-path="url(#clipPath34)"
                points=" 270 133 260 138 260 128" stroke="none"/>
            <polygon fill="none" stroke-width="1.1"
                clip-path="url(#clipPath34)" points=" 270 133 260 138 260 128"/>
            <line clip-path="url(#clipPath35)" fill="none" x1="101"
                x2="270" y1="178" y2="178"/>
            <text xml:space="preserve" x="194" y="173"
                clip-path="url(#clipPath36)" stroke="none">propagate</text>
            <polygon clip-path="url(#clipPath37)"
                points=" 270 178 260 183 260 173" stroke="none"/>
            <polygon fill="none" stroke-width="1.1"
                clip-path="url(#clipPath37)" points=" 270 178 260 183 260 173"/>
            <line clip-path="url(#clipPath38)" fill="none" x1="101"
                x2="270" y1="214" y2="214"/>
            <text xml:space="preserve" x="107" y="210"
                clip-path="url(#clipPath39)" stroke="none">getGeneratedEphemeris</text>
            <polygon clip-path="url(#clipPath40)"
                points=" 270 214 260 219 260 209" stroke="none"/>
            <polygon fill="none" stroke-width="1.1"
                clip-path="url(#clipPath40)" points=" 270 214 260 219 260 209"/>
            <line clip-path="url(#clipPath41)" fill="none" x1="101"
                x2="461" y1="257" y2="257" stroke-dasharray="10,5"/>
            <text x="397" y="249" clip-path="url(#clipPath42)"
                stroke-dasharray="10,5" stroke="none" xml:space="preserve">create</text>
            <line clip-path="url(#clipPath43)" fill="none" x1="451"
                x2="461" y1="262" y2="257" stroke-width="1.1"/>
            <line clip-path="url(#clipPath43)" fill="none" x1="461"
                x2="451" y1="257" y2="252" stroke-width="1.1"/>
            <line clip-path="url(#clipPath44)" fill="none" x1="101"
                x2="628" y1="279" y2="279"/>
            <text xml:space="preserve" x="559" y="272"
                clip-path="url(#clipPath45)" stroke="none">optimize</text>
            <polygon clip-path="url(#clipPath46)"
                points=" 628 279 618 284 618 274" stroke="none"/>
            <polygon fill="none" stroke-width="1.1"
                clip-path="url(#clipPath46)" points=" 628 279 618 284 618 274"/>
            <line clip-path="url(#clipPath47)" fill="none" x1="628"
                x2="471" y1="302" y2="302"/>
            <text xml:space="preserve" x="482" y="297"
                clip-path="url(#clipPath48)" stroke="none">value</text>
            <polygon clip-path="url(#clipPath49)"
                points=" 471 302 481 297 481 307" stroke="none"/>
            <polygon fill="none" stroke-width="1.1"
                clip-path="url(#clipPath49)" points=" 471 302 481 297 481 307"/>
            <line clip-path="url(#clipPath50)" fill="none" x1="628"
                x2="471" y1="332" y2="332"/>
            <text xml:space="preserve" x="487" y="326"
                clip-path="url(#clipPath51)" stroke="none">value</text>
            <polygon clip-path="url(#clipPath52)"
                points=" 471 332 481 327 481 337" stroke="none"/>
            <polygon fill="none" stroke-width="1.1"
                clip-path="url(#clipPath52)" points=" 471 332 481 327 481 337"/>
            <line clip-path="url(#clipPath53)" fill="none" x1="628"
                x2="101" y1="363" y2="363" stroke-dasharray="10,5"/>
            <text x="101" y="354" clip-path="url(#clipPath54)"
                stroke-dasharray="10,5" stroke="none" xml:space="preserve">return optimum parameters</text>
            <polygon stroke-dasharray="10,5"
                clip-path="url(#clipPath55)"
                points=" 101 363 111 358 111 368" stroke="none"/>
            <polygon fill="none" stroke-width="1.1"
                clip-path="url(#clipPath55)" points=" 101 363 111 358 111 368"/>
            <line clip-path="url(#clipPath56)" fill="none" x1="101"
                x2="451" y1="404" y2="404"/>
            <text xml:space="preserve" x="331" y="396"
                clip-path="url(#clipPath57)" stroke="none">setUpManeuvers</text>
            <polygon clip-path="url(#clipPath58)"
                points=" 451 404 441 409 441 399" stroke="none"/>
            <polygon fill="none" stroke-width="1.1"
                clip-path="url(#clipPath58)" points=" 451 404 441 409 441 399"/>
            <line clip-path="url(#clipPath59)" fill="none" x1="451"
                x2="101" y1="428" y2="428" stroke-dasharray="10,5"/>
            <text x="109" y="421" clip-path="url(#clipPath60)"
                stroke-dasharray="10,5" stroke="none" xml:space="preserve">return scheduled maneuvers</text>
            <polygon stroke-dasharray="10,5"
                clip-path="url(#clipPath61)"
                points=" 101 428 111 423 111 433" stroke="none"/>
            <polygon fill="none" stroke-width="1.1"
                clip-path="url(#clipPath61)" points=" 101 428 111 423 111 433"/>
        </g>
    </g>
</svg>
