<?xml version="1.0" encoding="UTF-8"?>
<svg stroke-dasharray="none" shape-rendering="auto"
    font-family="'Dialog'" width="1006" text-rendering="auto"
    fill-opacity="1" color-interpolation="auto" color-rendering="auto"
    font-size="12" fill="black" stroke="black" image-rendering="auto"
    stroke-miterlimit="10" stroke-linecap="square"
    stroke-linejoin="miter" font-style="normal" height="809"
    stroke-width="1" stroke-dashoffset="0" font-weight="normal" stroke-opacity="1">
    <!--Generated by the Batik Graphics2D SVG Generator-->
    <defs id="genericDefs"/>
    <g>
        <defs id="defs1">
            <clipPath clipPathUnits="userSpaceOnUse" id="clipPath1">
                <path d="M-1 -1 L1006 -1 L1006 809 L-1 809 L-1 -1 Z"/>
            </clipPath>
            <clipPath clipPathUnits="userSpaceOnUse" id="clipPath2">
                <path d="M5 5 L28 5 L28 28 L5 28 L5 5 Z"/>
            </clipPath>
            <clipPath clipPathUnits="userSpaceOnUse" id="clipPath3">
                <path d="M28 8 L142 8 L142 25 L28 25 L28 8 Z"/>
            </clipPath>
            <clipPath clipPathUnits="userSpaceOnUse" id="clipPath4">
                <path d="M34 74 L184 74 L184 797 L34 797 L34 74 Z"/>
            </clipPath>
            <clipPath clipPathUnits="userSpaceOnUse" id="clipPath5">
                <path d="M34 74 L184 74 L184 104 L34 104 L34 74 Z"/>
            </clipPath>
            <clipPath clipPathUnits="userSpaceOnUse" id="clipPath6">
                <path d="M45 80 L159 80 L159 97 L45 97 L45 80 Z"/>
            </clipPath>
            <clipPath clipPathUnits="userSpaceOnUse" id="clipPath7">
                <path d="M159 80 L173 80 L173 97 L159 97 L159 80 Z"/>
            </clipPath>
            <clipPath clipPathUnits="userSpaceOnUse" id="clipPath8">
                <path d="M45 80 L173 80 L173 98 L45 98 L45 80 Z"/>
            </clipPath>
            <clipPath clipPathUnits="userSpaceOnUse" id="clipPath9">
                <path d="M98 124 L120 124 L120 771 L98 771 L98 124 Z"/>
            </clipPath>
            <clipPath clipPathUnits="userSpaceOnUse" id="clipPath10">
                <path d="M223 74 L372 74 L372 274 L223 274 L223 74 Z"/>
            </clipPath>
            <clipPath clipPathUnits="userSpaceOnUse" id="clipPath11">
                <path d="M223 74 L372 74 L372 104 L223 104 L223 74 Z"/>
            </clipPath>
            <clipPath clipPathUnits="userSpaceOnUse" id="clipPath12">
                <path d="M234 80 L347 80 L347 97 L234 97 L234 80 Z"/>
            </clipPath>
            <clipPath clipPathUnits="userSpaceOnUse" id="clipPath13">
                <path d="M347 80 L361 80 L361 97 L347 97 L347 80 Z"/>
            </clipPath>
            <clipPath clipPathUnits="userSpaceOnUse" id="clipPath14">
                <path d="M234 80 L361 80 L361 98 L234 98 L234 80 Z"/>
            </clipPath>
            <clipPath clipPathUnits="userSpaceOnUse" id="clipPath15">
                <path d="M286 116 L308 116 L308 158 L286 158 L286 116 Z"/>
            </clipPath>
            <clipPath clipPathUnits="userSpaceOnUse" id="clipPath16">
                <path d="M286 214 L308 214 L308 256 L286 256 L286 214 Z"/>
            </clipPath>
            <clipPath clipPathUnits="userSpaceOnUse" id="clipPath17">
                <path d="M547 74 L715 74 L715 593 L547 593 L547 74 Z"/>
            </clipPath>
            <clipPath clipPathUnits="userSpaceOnUse" id="clipPath18">
                <path d="M547 74 L715 74 L715 104 L547 104 L547 74 Z"/>
            </clipPath>
            <clipPath clipPathUnits="userSpaceOnUse" id="clipPath19">
                <path d="M556 80 L692 80 L692 97 L556 97 L556 80 Z"/>
            </clipPath>
            <clipPath clipPathUnits="userSpaceOnUse" id="clipPath20">
                <path d="M692 80 L706 80 L706 97 L692 97 L692 80 Z"/>
            </clipPath>
            <clipPath clipPathUnits="userSpaceOnUse" id="clipPath21">
                <path d="M556 80 L706 80 L706 98 L556 98 L556 80 Z"/>
            </clipPath>
            <clipPath clipPathUnits="userSpaceOnUse" id="clipPath22">
                <path d="M620 266 L642 266 L642 308 L620 308 L620 266 Z"/>
            </clipPath>
            <clipPath clipPathUnits="userSpaceOnUse" id="clipPath23">
                <path d="M620 370 L642 370 L642 412 L620 412 L620 370 Z"/>
            </clipPath>
            <clipPath clipPathUnits="userSpaceOnUse" id="clipPath24">
                <path d="M620 423 L642 423 L642 585 L620 585 L620 423 Z"/>
            </clipPath>
            <clipPath clipPathUnits="userSpaceOnUse" id="clipPath25">
                <path d="M744 74 L852 74 L852 799 L744 799 L744 74 Z"/>
            </clipPath>
            <clipPath clipPathUnits="userSpaceOnUse" id="clipPath26">
                <path d="M744 74 L852 74 L852 104 L744 104 L744 74 Z"/>
            </clipPath>
            <clipPath clipPathUnits="userSpaceOnUse" id="clipPath27">
                <path d="M755 80 L827 80 L827 97 L755 97 L755 80 Z"/>
            </clipPath>
            <clipPath clipPathUnits="userSpaceOnUse" id="clipPath28">
                <path d="M827 80 L841 80 L841 97 L827 97 L827 80 Z"/>
            </clipPath>
            <clipPath clipPathUnits="userSpaceOnUse" id="clipPath29">
                <path d="M755 80 L841 80 L841 98 L755 98 L755 80 Z"/>
            </clipPath>
            <clipPath clipPathUnits="userSpaceOnUse" id="clipPath30">
                <path d="M787 317 L809 317 L809 359 L787 359 L787 317 Z"/>
            </clipPath>
            <clipPath clipPathUnits="userSpaceOnUse" id="clipPath31">
                <path d="M787 464 L809 464 L809 506 L787 506 L787 464 Z"/>
            </clipPath>
            <clipPath clipPathUnits="userSpaceOnUse" id="clipPath32">
                <path d="M787 537 L809 537 L809 579 L787 579 L787 537 Z"/>
            </clipPath>
            <clipPath clipPathUnits="userSpaceOnUse" id="clipPath33">
                <path d="M787 597 L809 597 L809 639 L787 639 L787 597 Z"/>
            </clipPath>
            <clipPath clipPathUnits="userSpaceOnUse" id="clipPath34">
                <path d="M787 664 L809 664 L809 706 L787 706 L787 664 Z"/>
            </clipPath>
            <clipPath clipPathUnits="userSpaceOnUse" id="clipPath35">
                <path d="M787 713 L809 713 L809 755 L787 755 L787 713 Z"/>
            </clipPath>
            <clipPath clipPathUnits="userSpaceOnUse" id="clipPath36">
                <path d="M878 74 L996 74 L996 594 L878 594 L878 74 Z"/>
            </clipPath>
            <clipPath clipPathUnits="userSpaceOnUse" id="clipPath37">
                <path d="M878 74 L996 74 L996 104 L878 104 L878 74 Z"/>
            </clipPath>
            <clipPath clipPathUnits="userSpaceOnUse" id="clipPath38">
                <path d="M889 80 L971 80 L971 97 L889 97 L889 80 Z"/>
            </clipPath>
            <clipPath clipPathUnits="userSpaceOnUse" id="clipPath39">
                <path d="M971 80 L985 80 L985 97 L971 97 L971 80 Z"/>
            </clipPath>
            <clipPath clipPathUnits="userSpaceOnUse" id="clipPath40">
                <path d="M889 80 L985 80 L985 98 L889 98 L889 80 Z"/>
            </clipPath>
            <clipPath clipPathUnits="userSpaceOnUse" id="clipPath41">
                <path d="M926 437 L948 437 L948 500 L926 500 L926 437 Z"/>
            </clipPath>
            <clipPath clipPathUnits="userSpaceOnUse" id="clipPath42">
                <path d="M926 514 L948 514 L948 580 L926 580 L926 514 Z"/>
            </clipPath>
            <clipPath clipPathUnits="userSpaceOnUse" id="clipPath43">
                <path d="M397 74 L519 74 L519 271 L397 271 L397 74 Z"/>
            </clipPath>
            <clipPath clipPathUnits="userSpaceOnUse" id="clipPath44">
                <path d="M397 74 L519 74 L519 104 L397 104 L397 74 Z"/>
            </clipPath>
            <clipPath clipPathUnits="userSpaceOnUse" id="clipPath45">
                <path d="M408 80 L494 80 L494 97 L408 97 L408 80 Z"/>
            </clipPath>
            <clipPath clipPathUnits="userSpaceOnUse" id="clipPath46">
                <path d="M494 80 L508 80 L508 97 L494 97 L494 80 Z"/>
            </clipPath>
            <clipPath clipPathUnits="userSpaceOnUse" id="clipPath47">
                <path d="M408 80 L508 80 L508 98 L408 98 L408 80 Z"/>
            </clipPath>
            <clipPath clipPathUnits="userSpaceOnUse" id="clipPath48">
                <path d="M447 166 L469 166 L469 208 L447 208 L447 166 Z"/>
            </clipPath>
            <clipPath clipPathUnits="userSpaceOnUse" id="clipPath49">
                <path d="M447 222 L469 222 L469 256 L447 256 L447 222 Z"/>
            </clipPath>
            <clipPath clipPathUnits="userSpaceOnUse" id="clipPath50">
                <path d="M105 96 L302 96 L302 147 L105 147 L105 96 Z"/>
            </clipPath>
            <clipPath clipPathUnits="userSpaceOnUse" id="clipPath51">
                <path d="M155 109 L252 109 L252 126 L155 126 L155 109 Z"/>
            </clipPath>
            <clipPath clipPathUnits="userSpaceOnUse" id="clipPath52">
                <path d="M276 121 L289 121 L289 134 L276 134 L276 121 Z"/>
            </clipPath>
            <clipPath clipPathUnits="userSpaceOnUse" id="clipPath53">
                <path d="M105 141 L463 141 L463 197 L105 197 L105 141 Z"/>
            </clipPath>
            <clipPath clipPathUnits="userSpaceOnUse" id="clipPath54">
                <path d="M376 154 L433 154 L433 171 L376 171 L376 154 Z"/>
            </clipPath>
            <clipPath clipPathUnits="userSpaceOnUse" id="clipPath55">
                <path d="M437 171 L450 171 L450 184 L437 184 L437 171 Z"/>
            </clipPath>
            <clipPath clipPathUnits="userSpaceOnUse" id="clipPath56">
                <path d="M105 191 L302 191 L302 245 L105 245 L105 191 Z"/>
            </clipPath>
            <clipPath clipPathUnits="userSpaceOnUse" id="clipPath57">
                <path d="M187 204 L273 204 L273 221 L187 221 L187 204 Z"/>
            </clipPath>
            <clipPath clipPathUnits="userSpaceOnUse" id="clipPath58">
                <path d="M276 219 L289 219 L289 232 L276 232 L276 219 Z"/>
            </clipPath>
            <clipPath clipPathUnits="userSpaceOnUse" id="clipPath59">
                <path d="M105 239 L636 239 L636 297 L105 297 L105 239 Z"/>
            </clipPath>
            <clipPath clipPathUnits="userSpaceOnUse" id="clipPath60">
                <path d="M512 252 L601 252 L601 269 L512 269 L512 252 Z"/>
            </clipPath>
            <clipPath clipPathUnits="userSpaceOnUse" id="clipPath61">
                <path d="M610 271 L623 271 L623 284 L610 284 L610 271 Z"/>
            </clipPath>
            <clipPath clipPathUnits="userSpaceOnUse" id="clipPath62">
                <path d="M105 297 L803 297 L803 351 L105 351 L105 297 Z"/>
            </clipPath>
            <clipPath clipPathUnits="userSpaceOnUse" id="clipPath63">
                <path d="M663 310 L766 310 L766 327 L663 327 L663 310 Z"/>
            </clipPath>
            <clipPath clipPathUnits="userSpaceOnUse" id="clipPath64">
                <path d="M777 325 L790 325 L790 338 L777 338 L777 325 Z"/>
            </clipPath>
            <clipPath clipPathUnits="userSpaceOnUse" id="clipPath65">
                <path d="M105 345 L636 345 L636 401 L105 401 L105 345 Z"/>
            </clipPath>
            <clipPath clipPathUnits="userSpaceOnUse" id="clipPath66">
                <path d="M510 358 L616 358 L616 375 L510 375 L510 358 Z"/>
            </clipPath>
            <clipPath clipPathUnits="userSpaceOnUse" id="clipPath67">
                <path d="M610 375 L623 375 L623 388 L610 388 L610 375 Z"/>
            </clipPath>
            <clipPath clipPathUnits="userSpaceOnUse" id="clipPath68">
                <path d="M105 403 L636 403 L636 457 L105 457 L105 403 Z"/>
            </clipPath>
            <clipPath clipPathUnits="userSpaceOnUse" id="clipPath69">
                <path d="M512 416 L580 416 L580 433 L512 433 L512 416 Z"/>
            </clipPath>
            <clipPath clipPathUnits="userSpaceOnUse" id="clipPath70">
                <path d="M610 431 L623 431 L623 444 L610 444 L610 431 Z"/>
            </clipPath>
            <clipPath clipPathUnits="userSpaceOnUse" id="clipPath71">
                <path d="M627 413 L942 413 L942 468 L627 468 L627 413 Z"/>
            </clipPath>
            <clipPath clipPathUnits="userSpaceOnUse" id="clipPath72">
                <path d="M841 426 L916 426 L916 443 L841 443 L841 426 Z"/>
            </clipPath>
            <clipPath clipPathUnits="userSpaceOnUse" id="clipPath73">
                <path d="M916 442 L929 442 L929 455 L916 455 L916 442 Z"/>
            </clipPath>
            <clipPath clipPathUnits="userSpaceOnUse" id="clipPath74">
                <path d="M794 445 L942 445 L942 497 L794 497 L794 445 Z"/>
            </clipPath>
            <clipPath clipPathUnits="userSpaceOnUse" id="clipPath75">
                <path d="M812 458 L887 458 L887 475 L812 475 L812 458 Z"/>
            </clipPath>
            <clipPath clipPathUnits="userSpaceOnUse" id="clipPath76">
                <path d="M807 471 L820 471 L820 484 L807 484 L807 471 Z"/>
            </clipPath>
            <clipPath clipPathUnits="userSpaceOnUse" id="clipPath77">
                <path d="M627 490 L942 490 L942 544 L627 544 L627 490 Z"/>
            </clipPath>
            <clipPath clipPathUnits="userSpaceOnUse" id="clipPath78">
                <path d="M829 503 L904 503 L904 520 L829 520 L829 503 Z"/>
            </clipPath>
            <clipPath clipPathUnits="userSpaceOnUse" id="clipPath79">
                <path d="M916 518 L929 518 L929 531 L916 531 L916 518 Z"/>
            </clipPath>
            <clipPath clipPathUnits="userSpaceOnUse" id="clipPath80">
                <path d="M794 517 L942 517 L942 569 L794 569 L794 517 Z"/>
            </clipPath>
            <clipPath clipPathUnits="userSpaceOnUse" id="clipPath81">
                <path d="M813 530 L888 530 L888 547 L813 547 L813 530 Z"/>
            </clipPath>
            <clipPath clipPathUnits="userSpaceOnUse" id="clipPath82">
                <path d="M807 543 L820 543 L820 556 L807 556 L807 543 Z"/>
            </clipPath>
            <clipPath clipPathUnits="userSpaceOnUse" id="clipPath83">
                <path d="M105 578 L803 578 L803 635 L105 635 L105 578 Z"/>
            </clipPath>
            <clipPath clipPathUnits="userSpaceOnUse" id="clipPath84">
                <path d="M658 591 L774 591 L774 608 L658 608 L658 591 Z"/>
            </clipPath>
            <clipPath clipPathUnits="userSpaceOnUse" id="clipPath85">
                <path d="M777 609 L790 609 L790 622 L777 622 L777 609 Z"/>
            </clipPath>
            <clipPath clipPathUnits="userSpaceOnUse" id="clipPath86">
                <path d="M105 640 L803 640 L803 695 L105 695 L105 640 Z"/>
            </clipPath>
            <clipPath clipPathUnits="userSpaceOnUse" id="clipPath87">
                <path d="M679 653 L776 653 L776 670 L679 670 L679 653 Z"/>
            </clipPath>
            <clipPath clipPathUnits="userSpaceOnUse" id="clipPath88">
                <path d="M777 669 L790 669 L790 682 L777 682 L777 669 Z"/>
            </clipPath>
            <clipPath clipPathUnits="userSpaceOnUse" id="clipPath89">
                <path d="M105 696 L803 696 L803 751 L105 751 L105 696 Z"/>
            </clipPath>
            <clipPath clipPathUnits="userSpaceOnUse" id="clipPath90">
                <path d="M669 709 L779 709 L779 726 L669 726 L669 709 Z"/>
            </clipPath>
            <clipPath clipPathUnits="userSpaceOnUse" id="clipPath91">
                <path d="M777 725 L790 725 L790 738 L777 738 L777 725 Z"/>
            </clipPath>
            <clipPath clipPathUnits="userSpaceOnUse" id="clipPath92">
                <path d="M293 198 L463 198 L463 253 L293 253 L293 198 Z"/>
            </clipPath>
            <clipPath clipPathUnits="userSpaceOnUse" id="clipPath93">
                <path d="M379 211 L437 211 L437 228 L379 228 L379 211 Z"/>
            </clipPath>
            <clipPath clipPathUnits="userSpaceOnUse" id="clipPath94">
                <path d="M437 227 L450 227 L450 240 L437 240 L437 227 Z"/>
            </clipPath>
        </defs>
        <g font-size="15" fill="white" font-family="'Cantarell'"
            stroke-linejoin="round" stroke="white" stroke-width="0" stroke-miterlimit="0">
            <rect x="0" y="0" clip-path="url(#clipPath1)" width="1005"
                height="808" stroke="none"/>
        </g>
        <g font-size="15" stroke-linecap="butt" fill="rgb(106,88,75)"
            font-family="'Cantarell'" stroke="rgb(106,88,75)" stroke-width="0.1">
            <line clip-path="url(#clipPath1)" fill="none" x1="1"
                x2="146" y1="35" y2="35"/>
            <line clip-path="url(#clipPath1)" fill="none" x1="146"
                x2="153" y1="35" y2="21"/>
            <line clip-path="url(#clipPath1)" fill="none" x1="153"
                x2="153" y1="21" y2="1"/>
            <text x="6" y="22" clip-path="url(#clipPath2)" stroke="none"
                font-weight="bold" xml:space="preserve">sd </text>
            <text font-size="13" x="29" y="22"
                clip-path="url(#clipPath3)" font-family="'Dialog'"
                stroke="none" xml:space="preserve">objective function</text>
            <line clip-path="url(#clipPath4)" fill="none" x1="109"
                x2="109" y1="103" y2="796" stroke-dasharray="10,2"/>
            <rect x="35" y="75" clip-path="url(#clipPath5)"
                fill="rgb(237,247,200)" width="148"
                stroke-dasharray="10,2" height="28" stroke="none"/>
            <text font-size="13" x="46" y="94"
                clip-path="url(#clipPath6)" font-family="'Dialog'"
                stroke-dasharray="10,2" stroke="none" xml:space="preserve">ObjectiveFunction</text>
            <text font-size="13" x="160" y="94"
                clip-path="url(#clipPath7)" font-family="'Dialog'"
                stroke-dasharray="10,2" stroke="none" xml:space="preserve"> : </text>
            <line clip-path="url(#clipPath8)" fill="none" x1="46"
                x2="172" y1="96" y2="96" stroke-width="1.1"/>
            <rect x="35" y="75" clip-path="url(#clipPath5)" fill="none"
                width="147" height="27" stroke-width="1.1"/>
            <rect x="99" y="125" clip-path="url(#clipPath9)"
                fill="rgb(237,247,200)" width="20" height="645"
                stroke="none" stroke-width="1.1"/>
            <rect x="99" y="125" clip-path="url(#clipPath9)" fill="none"
                width="19" height="644" stroke-width="1.1"/>
            <line clip-path="url(#clipPath10)" fill="none" x1="297"
                x2="297" y1="103" y2="273" stroke-dasharray="10,2"/>
            <rect x="224" y="75" clip-path="url(#clipPath11)"
                fill="rgb(237,247,200)" width="147"
                stroke-dasharray="10,2" height="28" stroke="none"/>
            <text font-size="13" x="235" y="94"
                clip-path="url(#clipPath12)" font-family="'Dialog'"
                stroke-dasharray="10,2" stroke="none" xml:space="preserve">TunableManeuver</text>
            <text font-size="13" x="348" y="94"
                clip-path="url(#clipPath13)" font-family="'Dialog'"
                stroke-dasharray="10,2" stroke="none" xml:space="preserve"> : </text>
            <line clip-path="url(#clipPath14)" fill="none" x1="235"
                x2="360" y1="96" y2="96" stroke-width="1.1"/>
            <rect x="224" y="75" clip-path="url(#clipPath11)"
                fill="none" width="146" height="27" stroke-width="1.1"/>
            <rect x="287" y="117" clip-path="url(#clipPath15)"
                fill="rgb(237,247,200)" width="20" height="40"
                stroke="none" stroke-width="1.1"/>
            <rect x="287" y="117" clip-path="url(#clipPath15)"
                fill="none" width="19" height="39" stroke-width="1.1"/>
            <rect x="287" y="215" clip-path="url(#clipPath16)"
                fill="rgb(237,247,200)" width="20" height="40"
                stroke="none" stroke-width="1.1"/>
            <rect x="287" y="215" clip-path="url(#clipPath16)"
                fill="none" width="19" height="39" stroke-width="1.1"/>
            <line clip-path="url(#clipPath17)" fill="none" x1="631"
                x2="631" y1="103" y2="592" stroke-dasharray="10,2"/>
            <rect x="548" y="75" clip-path="url(#clipPath18)"
                fill="rgb(237,247,200)" width="166"
                stroke-dasharray="10,2" height="28" stroke="none"/>
            <text font-size="13" x="557" y="94"
                clip-path="url(#clipPath19)" font-family="'Dialog'"
                stroke-dasharray="10,2" stroke="none" xml:space="preserve">ManeuverPropagator</text>
            <text font-size="13" x="693" y="94"
                clip-path="url(#clipPath20)" font-family="'Dialog'"
                stroke-dasharray="10,2" stroke="none" xml:space="preserve"> : </text>
            <line clip-path="url(#clipPath21)" fill="none" x1="557"
                x2="705" y1="96" y2="96" stroke-width="1.1"/>
            <rect x="548" y="75" clip-path="url(#clipPath18)"
                fill="none" width="165" height="27" stroke-width="1.1"/>
            <rect x="621" y="267" clip-path="url(#clipPath22)"
                fill="rgb(237,247,200)" width="20" height="40"
                stroke="none" stroke-width="1.1"/>
            <rect x="621" y="267" clip-path="url(#clipPath22)"
                fill="none" width="19" height="39" stroke-width="1.1"/>
            <rect x="621" y="371" clip-path="url(#clipPath23)"
                fill="rgb(237,247,200)" width="20" height="40"
                stroke="none" stroke-width="1.1"/>
            <rect x="621" y="371" clip-path="url(#clipPath23)"
                fill="none" width="19" height="39" stroke-width="1.1"/>
            <rect x="621" y="424" clip-path="url(#clipPath24)"
                fill="rgb(237,247,200)" width="20" height="160"
                stroke="none" stroke-width="1.1"/>
            <rect x="621" y="424" clip-path="url(#clipPath24)"
                fill="none" width="19" height="159" stroke-width="1.1"/>
            <line clip-path="url(#clipPath25)" fill="none" x1="798"
                x2="798" y1="103" y2="798" stroke-dasharray="10,2"/>
            <rect x="745" y="75" clip-path="url(#clipPath26)"
                fill="rgb(237,247,200)" width="106"
                stroke-dasharray="10,2" height="28" stroke="none"/>
            <text font-size="13" x="756" y="94"
                clip-path="url(#clipPath27)" font-family="'Dialog'"
                stroke-dasharray="10,2" stroke="none" xml:space="preserve">ControlLaw</text>
            <text font-size="13" x="828" y="94"
                clip-path="url(#clipPath28)" font-family="'Dialog'"
                stroke-dasharray="10,2" stroke="none" xml:space="preserve"> : </text>
            <line clip-path="url(#clipPath29)" fill="none" x1="756"
                x2="840" y1="96" y2="96" stroke-width="1.1"/>
            <rect x="745" y="75" clip-path="url(#clipPath26)"
                fill="none" width="105" height="27" stroke-width="1.1"/>
            <rect x="788" y="318" clip-path="url(#clipPath30)"
                fill="rgb(237,247,200)" width="20" height="40"
                stroke="none" stroke-width="1.1"/>
            <rect x="788" y="318" clip-path="url(#clipPath30)"
                fill="none" width="19" height="39" stroke-width="1.1"/>
            <rect x="788" y="465" clip-path="url(#clipPath31)"
                fill="rgb(237,247,200)" width="20" height="40"
                stroke="none" stroke-width="1.1"/>
            <rect x="788" y="465" clip-path="url(#clipPath31)"
                fill="none" width="19" height="39" stroke-width="1.1"/>
            <rect x="788" y="538" clip-path="url(#clipPath32)"
                fill="rgb(237,247,200)" width="20" height="40"
                stroke="none" stroke-width="1.1"/>
            <rect x="788" y="538" clip-path="url(#clipPath32)"
                fill="none" width="19" height="39" stroke-width="1.1"/>
            <rect x="788" y="598" clip-path="url(#clipPath33)"
                fill="rgb(237,247,200)" width="20" height="40"
                stroke="none" stroke-width="1.1"/>
            <rect x="788" y="598" clip-path="url(#clipPath33)"
                fill="none" width="19" height="39" stroke-width="1.1"/>
            <rect x="788" y="665" clip-path="url(#clipPath34)"
                fill="rgb(237,247,200)" width="20" height="40"
                stroke="none" stroke-width="1.1"/>
            <rect x="788" y="665" clip-path="url(#clipPath34)"
                fill="none" width="19" height="39" stroke-width="1.1"/>
            <rect x="788" y="714" clip-path="url(#clipPath35)"
                fill="rgb(237,247,200)" width="20" height="40"
                stroke="none" stroke-width="1.1"/>
            <rect x="788" y="714" clip-path="url(#clipPath35)"
                fill="none" width="19" height="39" stroke-width="1.1"/>
            <line clip-path="url(#clipPath36)" fill="none" x1="937"
                x2="937" y1="103" y2="593" stroke-dasharray="10,2" stroke="rgb(41,0,141)"/>
            <rect x="879" y="75" clip-path="url(#clipPath37)"
                fill="rgb(243,232,255)" width="116"
                stroke-dasharray="10,2" height="28" stroke="none"/>
        </g>
        <g font-size="13" stroke-linecap="butt" fill="rgb(41,0,141)"
            stroke-dasharray="10,2" stroke="rgb(41,0,141)" stroke-width="0.1">
            <text xml:space="preserve" x="890" y="94"
                clip-path="url(#clipPath38)" stroke="none">StepHandler</text>
            <text xml:space="preserve" x="972" y="94"
                clip-path="url(#clipPath39)" stroke="none"> : </text>
            <line clip-path="url(#clipPath40)" fill="none" x1="890"
                x2="984" y1="96" y2="96" stroke-dasharray="none" stroke-width="1.1"/>
        </g>
        <g font-size="15" stroke-linecap="butt" fill="rgb(41,0,141)"
            font-family="'Cantarell'" stroke="rgb(41,0,141)" stroke-width="1.1">
            <rect x="879" y="75" clip-path="url(#clipPath37)"
                fill="none" width="115" height="27"/>
            <rect x="927" y="438" clip-path="url(#clipPath41)"
                fill="rgb(237,247,200)" width="20" height="61" stroke="none"/>
            <rect x="927" y="438" clip-path="url(#clipPath41)"
                fill="none" width="19" height="60" stroke="rgb(106,88,75)"/>
            <rect x="927" y="515" clip-path="url(#clipPath42)"
                fill="rgb(237,247,200)" width="20" height="64" stroke="none"/>
            <rect x="927" y="515" clip-path="url(#clipPath42)"
                fill="none" width="19" height="63" stroke="rgb(106,88,75)"/>
        </g>
        <g font-size="15" stroke-linecap="butt" fill="rgb(106,88,75)"
            font-family="'Cantarell'" stroke-dasharray="10,2"
            stroke="rgb(106,88,75)" stroke-width="0.1">
            <line clip-path="url(#clipPath43)" fill="none" x1="458"
                x2="458" y1="103" y2="270"/>
            <rect x="398" y="75" clip-path="url(#clipPath44)"
                fill="rgb(237,247,200)" width="120" height="28" stroke="none"/>
            <text font-size="13" x="409" y="94"
                clip-path="url(#clipPath45)" font-family="'Dialog'"
                stroke="none" xml:space="preserve">SKParameter</text>
            <text font-size="13" x="495" y="94"
                clip-path="url(#clipPath46)" font-family="'Dialog'"
                stroke="none" xml:space="preserve"> : </text>
        </g>
        <g fill="rgb(106,88,75)" stroke-width="1.1" font-size="13"
            stroke-linecap="butt" stroke="rgb(106,88,75)">
            <line clip-path="url(#clipPath47)" fill="none" x1="409"
                x2="507" y1="96" y2="96"/>
            <rect x="398" y="75" clip-path="url(#clipPath44)"
                fill="none" width="119" height="27"/>
        </g>
        <g font-size="15" stroke-linecap="butt" fill="rgb(237,247,200)"
            font-family="'Cantarell'" stroke="rgb(237,247,200)" stroke-width="1.1">
            <rect x="448" y="167" clip-path="url(#clipPath48)"
                width="20" height="40" stroke="none"/>
            <rect x="448" y="167" clip-path="url(#clipPath48)"
                fill="none" width="19" height="39" stroke="rgb(106,88,75)"/>
            <rect x="448" y="223" clip-path="url(#clipPath49)"
                width="20" height="32" stroke="none"/>
            <rect x="448" y="223" clip-path="url(#clipPath49)"
                fill="none" width="19" height="31" stroke="rgb(106,88,75)"/>
            <rect x="0" y="0" clip-path="url(#clipPath1)" fill="none"
                width="1004" height="807" stroke="rgb(106,88,75)"/>
        </g>
        <g stroke-width="0.1" font-size="13" stroke-linecap="butt">
            <line clip-path="url(#clipPath50)" fill="none" x1="119"
                x2="287" y1="127" y2="127"/>
            <text xml:space="preserve" x="156" y="123"
                clip-path="url(#clipPath51)" stroke="none">getParameters</text>
            <polygon clip-path="url(#clipPath52)"
                points=" 287 127 277 132 277 122" stroke="none"/>
            <polygon fill="none" stroke-width="1.1"
                clip-path="url(#clipPath52)" points=" 287 127 277 132 277 122"/>
            <line clip-path="url(#clipPath53)" fill="none" x1="119"
                x2="448" y1="177" y2="177"/>
            <text xml:space="preserve" x="377" y="168"
                clip-path="url(#clipPath54)" stroke="none">setValue</text>
            <polygon clip-path="url(#clipPath55)"
                points=" 448 177 438 182 438 172" stroke="none"/>
            <polygon fill="none" stroke-width="1.1"
                clip-path="url(#clipPath55)" points=" 448 177 438 182 438 172"/>
            <line clip-path="url(#clipPath56)" fill="none" x1="119"
                x2="287" y1="225" y2="225"/>
            <text xml:space="preserve" x="188" y="218"
                clip-path="url(#clipPath57)" stroke="none">getManeuver</text>
            <polygon clip-path="url(#clipPath58)"
                points=" 287 225 277 230 277 220" stroke="none"/>
            <polygon fill="none" stroke-width="1.1"
                clip-path="url(#clipPath58)" points=" 287 225 277 230 277 220"/>
            <line clip-path="url(#clipPath59)" fill="none" x1="119"
                x2="621" y1="277" y2="277"/>
            <text xml:space="preserve" x="513" y="266"
                clip-path="url(#clipPath60)" stroke="none">addManeuver</text>
            <polygon clip-path="url(#clipPath61)"
                points=" 621 277 611 282 611 272" stroke="none"/>
            <polygon fill="none" stroke-width="1.1"
                clip-path="url(#clipPath61)" points=" 621 277 611 282 611 272"/>
            <line clip-path="url(#clipPath62)" fill="none" x1="119"
                x2="788" y1="331" y2="331"/>
            <text xml:space="preserve" x="664" y="324"
                clip-path="url(#clipPath63)" stroke="none">getStepHandler</text>
            <polygon clip-path="url(#clipPath64)"
                points=" 788 331 778 336 778 326" stroke="none"/>
            <polygon fill="none" stroke-width="1.1"
                clip-path="url(#clipPath64)" points=" 788 331 778 336 778 326"/>
            <line clip-path="url(#clipPath65)" fill="none" x1="119"
                x2="621" y1="381" y2="381"/>
            <text xml:space="preserve" x="511" y="372"
                clip-path="url(#clipPath66)" stroke="none">addStepHandler</text>
            <polygon clip-path="url(#clipPath67)"
                points=" 621 381 611 386 611 376" stroke="none"/>
            <polygon fill="none" stroke-width="1.1"
                clip-path="url(#clipPath67)" points=" 621 381 611 386 611 376"/>
            <line clip-path="url(#clipPath68)" fill="none" x1="119"
                x2="621" y1="437" y2="437"/>
            <text xml:space="preserve" x="513" y="430"
                clip-path="url(#clipPath69)" stroke="none">propagate</text>
            <polygon clip-path="url(#clipPath70)"
                points=" 621 437 611 442 611 432" stroke="none"/>
            <polygon fill="none" stroke-width="1.1"
                clip-path="url(#clipPath70)" points=" 621 437 611 442 611 432"/>
            <line clip-path="url(#clipPath71)" fill="none" x1="641"
                x2="927" y1="448" y2="448"/>
            <text xml:space="preserve" x="842" y="440"
                clip-path="url(#clipPath72)" stroke="none">handleStep</text>
            <polygon clip-path="url(#clipPath73)"
                points=" 927 448 917 453 917 443" stroke="none"/>
            <polygon fill="none" stroke-width="1.1"
                clip-path="url(#clipPath73)" points=" 927 448 917 453 917 443"/>
            <line clip-path="url(#clipPath74)" fill="none" x1="927"
                x2="808" y1="477" y2="477"/>
            <text xml:space="preserve" x="813" y="472"
                clip-path="url(#clipPath75)" stroke="none">addSample</text>
            <polygon clip-path="url(#clipPath76)"
                points=" 808 477 818 472 818 482" stroke="none"/>
            <polygon fill="none" stroke-width="1.1"
                clip-path="url(#clipPath76)" points=" 808 477 818 472 818 482"/>
            <line clip-path="url(#clipPath77)" fill="none" x1="641"
                x2="927" y1="523" y2="524"/>
            <text xml:space="preserve" x="830" y="517"
                clip-path="url(#clipPath78)" stroke="none">handleStep</text>
            <polygon clip-path="url(#clipPath79)"
                points=" 927 524 917 529 917 519" stroke="none"/>
            <polygon fill="none" stroke-width="1.1"
                clip-path="url(#clipPath79)" points=" 927 524 917 529 917 519"/>
            <line clip-path="url(#clipPath80)" fill="none" x1="927"
                x2="808" y1="549" y2="549"/>
            <text xml:space="preserve" x="814" y="544"
                clip-path="url(#clipPath81)" stroke="none">addSample</text>
            <polygon clip-path="url(#clipPath82)"
                points=" 808 549 818 544 818 554" stroke="none"/>
            <polygon fill="none" stroke-width="1.1"
                clip-path="url(#clipPath82)" points=" 808 549 818 544 818 554"/>
            <line clip-path="url(#clipPath83)" fill="none" x1="119"
                x2="788" y1="615" y2="615"/>
            <text xml:space="preserve" x="659" y="605"
                clip-path="url(#clipPath84)" stroke="none">getAchievedValue</text>
            <polygon clip-path="url(#clipPath85)"
                points=" 788 615 778 620 778 610" stroke="none"/>
            <polygon fill="none" stroke-width="1.1"
                clip-path="url(#clipPath85)" points=" 788 615 778 620 778 610"/>
            <line clip-path="url(#clipPath86)" fill="none" x1="119"
                x2="788" y1="675" y2="675"/>
            <text xml:space="preserve" x="680" y="667"
                clip-path="url(#clipPath87)" stroke="none">getTargetValue</text>
            <polygon clip-path="url(#clipPath88)"
                points=" 788 675 778 680 778 670" stroke="none"/>
            <polygon fill="none" stroke-width="1.1"
                clip-path="url(#clipPath88)" points=" 788 675 778 680 778 670"/>
            <line clip-path="url(#clipPath89)" fill="none" x1="119"
                x2="788" y1="731" y2="731"/>
            <text xml:space="preserve" x="670" y="723"
                clip-path="url(#clipPath90)" stroke="none">getScalingdivisor</text>
            <polygon clip-path="url(#clipPath91)"
                points=" 788 731 778 736 778 726" stroke="none"/>
            <polygon fill="none" stroke-width="1.1"
                clip-path="url(#clipPath91)" points=" 788 731 778 736 778 726"/>
            <line clip-path="url(#clipPath92)" fill="none" x1="307"
                x2="448" y1="233" y2="233"/>
            <text xml:space="preserve" x="380" y="225"
                clip-path="url(#clipPath93)" stroke="none">getValue</text>
            <polygon clip-path="url(#clipPath94)"
                points=" 448 233 438 238 438 228" stroke="none"/>
            <polygon fill="none" stroke-width="1.1"
                clip-path="url(#clipPath94)" points=" 448 233 438 238 438 228"/>
        </g>
    </g>
</svg>
