<?xml version="1.0" encoding="UTF-8"?>
<svg stroke-dasharray="none" shape-rendering="auto"
    font-family="'Dialog'" width="801" text-rendering="auto"
    fill-opacity="1" color-interpolation="auto" color-rendering="auto"
    font-size="12" fill="black" stroke="black" image-rendering="auto"
    stroke-miterlimit="10" stroke-linecap="square"
    stroke-linejoin="miter" font-style="normal" height="1149"
    stroke-width="1" stroke-dashoffset="0" font-weight="normal" stroke-opacity="1">
    <!--Generated by the Batik Graphics2D SVG Generator-->
    <defs id="genericDefs"/>
    <g>
        <defs id="defs1">
            <clipPath clipPathUnits="userSpaceOnUse" id="clipPath1">
                <path d="M-1 -1 L801 -1 L801 1149 L-1 1149 L-1 -1 Z"/>
            </clipPath>
            <clipPath clipPathUnits="userSpaceOnUse" id="clipPath2">
                <path d="M5 5 L82 5 L82 20 L5 20 L5 5 Z"/>
            </clipPath>
            <clipPath clipPathUnits="userSpaceOnUse" id="clipPath3">
                <path d="M25 37 L147 37 L147 58 L25 58 L25 37 Z"/>
            </clipPath>
            <clipPath clipPathUnits="userSpaceOnUse" id="clipPath4">
                <path d="M28 40 L143 40 L143 57 L28 57 L28 40 Z"/>
            </clipPath>
            <clipPath clipPathUnits="userSpaceOnUse" id="clipPath5">
                <path d="M25 56 L617 56 L617 401 L25 401 L25 56 Z"/>
            </clipPath>
            <clipPath clipPathUnits="userSpaceOnUse" id="clipPath6">
                <path d="M387 186 L462 186 L462 207 L387 207 L387 186 Z"/>
            </clipPath>
            <clipPath clipPathUnits="userSpaceOnUse" id="clipPath7">
                <path d="M390 189 L458 189 L458 206 L390 206 L390 189 Z"/>
            </clipPath>
            <clipPath clipPathUnits="userSpaceOnUse" id="clipPath8">
                <path d="M387 205 L551 205 L551 315 L387 315 L387 205 Z"/>
            </clipPath>
            <clipPath clipPathUnits="userSpaceOnUse" id="clipPath9">
                <path d="M172 78 L235 78 L235 99 L172 99 L172 78 Z"/>
            </clipPath>
            <clipPath clipPathUnits="userSpaceOnUse" id="clipPath10">
                <path d="M175 81 L231 81 L231 98 L175 98 L175 81 Z"/>
            </clipPath>
            <clipPath clipPathUnits="userSpaceOnUse" id="clipPath11">
                <path d="M172 97 L274 97 L274 160 L172 160 L172 97 Z"/>
            </clipPath>
            <clipPath clipPathUnits="userSpaceOnUse" id="clipPath12">
                <path d="M231 187 L304 187 L304 208 L231 208 L231 187 Z"/>
            </clipPath>
            <clipPath clipPathUnits="userSpaceOnUse" id="clipPath13">
                <path d="M234 190 L300 190 L300 207 L234 207 L234 190 Z"/>
            </clipPath>
            <clipPath clipPathUnits="userSpaceOnUse" id="clipPath14">
                <path d="M231 206 L354 206 L354 373 L231 373 L231 206 Z"/>
            </clipPath>
            <clipPath clipPathUnits="userSpaceOnUse" id="clipPath15">
                <path d="M250 218 L283 218 L283 239 L250 239 L250 218 Z"/>
            </clipPath>
            <clipPath clipPathUnits="userSpaceOnUse" id="clipPath16">
                <path d="M253 221 L279 221 L279 238 L253 238 L253 221 Z"/>
            </clipPath>
            <clipPath clipPathUnits="userSpaceOnUse" id="clipPath17">
                <path d="M250 237 L330 237 L330 283 L250 283 L250 237 Z"/>
            </clipPath>
            <clipPath clipPathUnits="userSpaceOnUse" id="clipPath18">
                <path d="M249 290 L277 290 L277 311 L249 311 L249 290 Z"/>
            </clipPath>
            <clipPath clipPathUnits="userSpaceOnUse" id="clipPath19">
                <path d="M252 293 L273 293 L273 310 L252 310 L252 293 Z"/>
            </clipPath>
            <clipPath clipPathUnits="userSpaceOnUse" id="clipPath20">
                <path d="M249 309 L332 309 L332 354 L249 354 L249 309 Z"/>
            </clipPath>
            <clipPath clipPathUnits="userSpaceOnUse" id="clipPath21">
                <path d="M467 84 L502 84 L502 105 L467 105 L467 84 Z"/>
            </clipPath>
            <clipPath clipPathUnits="userSpaceOnUse" id="clipPath22">
                <path d="M470 87 L498 87 L498 104 L470 104 L470 87 Z"/>
            </clipPath>
            <clipPath clipPathUnits="userSpaceOnUse" id="clipPath23">
                <path d="M467 103 L569 103 L569 166 L467 166 L467 103 Z"/>
            </clipPath>
            <clipPath clipPathUnits="userSpaceOnUse" id="clipPath24">
                <path d="M60 188 L113 188 L113 209 L60 209 L60 188 Z"/>
            </clipPath>
            <clipPath clipPathUnits="userSpaceOnUse" id="clipPath25">
                <path d="M63 191 L109 191 L109 208 L63 208 L63 191 Z"/>
            </clipPath>
            <clipPath clipPathUnits="userSpaceOnUse" id="clipPath26">
                <path d="M60 207 L186 207 L186 322 L60 322 L60 207 Z"/>
            </clipPath>
            <clipPath clipPathUnits="userSpaceOnUse" id="clipPath27">
                <path d="M279 444 L451 444 L451 508 L279 508 L279 444 Z"/>
            </clipPath>
            <clipPath clipPathUnits="userSpaceOnUse" id="clipPath28">
                <path d="M314 453 L415 453 L415 468 L314 468 L314 453 Z"/>
            </clipPath>
            <clipPath clipPathUnits="userSpaceOnUse" id="clipPath29">
                <path d="M424 449 L446 449 L446 473 L424 473 L424 449 Z"/>
            </clipPath>
            <clipPath clipPathUnits="userSpaceOnUse" id="clipPath30">
                <path d="M341 476 L388 476 L388 493 L341 493 L341 476 Z"/>
            </clipPath>
            <clipPath clipPathUnits="userSpaceOnUse" id="clipPath31">
                <path d="M134 548 L331 548 L331 612 L134 612 L134 548 Z"/>
            </clipPath>
            <clipPath clipPathUnits="userSpaceOnUse" id="clipPath32">
                <path d="M182 557 L283 557 L283 572 L182 572 L182 557 Z"/>
            </clipPath>
            <clipPath clipPathUnits="userSpaceOnUse" id="clipPath33">
                <path d="M304 553 L326 553 L326 577 L304 577 L304 553 Z"/>
            </clipPath>
            <clipPath clipPathUnits="userSpaceOnUse" id="clipPath34">
                <path d="M144 580 L321 580 L321 597 L144 597 L144 580 Z"/>
            </clipPath>
            <clipPath clipPathUnits="userSpaceOnUse" id="clipPath35">
                <path d="M398 300 L437 300 L437 460 L398 460 L398 300 Z"/>
            </clipPath>
            <clipPath clipPathUnits="userSpaceOnUse" id="clipPath36">
                <path d="M411 434 L424 434 L424 447 L411 447 L411 434 Z"/>
            </clipPath>
            <clipPath clipPathUnits="userSpaceOnUse" id="clipPath37">
                <path d="M259 102 L431 102 L431 202 L259 202 L259 102 Z"/>
            </clipPath>
            <clipPath clipPathUnits="userSpaceOnUse" id="clipPath38">
                <path d="M405 176 L418 176 L418 189 L405 189 L405 176 Z"/>
            </clipPath>
            <clipPath clipPathUnits="userSpaceOnUse" id="clipPath39">
                <path d="M60 104 L188 104 L188 204 L60 204 L60 104 Z"/>
            </clipPath>
            <clipPath clipPathUnits="userSpaceOnUse" id="clipPath40">
                <path d="M73 178 L86 178 L86 191 L73 191 L73 178 Z"/>
            </clipPath>
            <clipPath clipPathUnits="userSpaceOnUse" id="clipPath41">
                <path d="M171 226 L266 226 L266 265 L171 265 L171 226 Z"/>
            </clipPath>
            <clipPath clipPathUnits="userSpaceOnUse" id="clipPath42">
                <path d="M184 239 L197 239 L197 252 L184 252 L184 239 Z"/>
            </clipPath>
            <clipPath clipPathUnits="userSpaceOnUse" id="clipPath43">
                <path d="M171 282 L265 282 L265 321 L171 321 L171 282 Z"/>
            </clipPath>
            <clipPath clipPathUnits="userSpaceOnUse" id="clipPath44">
                <path d="M184 295 L197 295 L197 308 L184 308 L184 295 Z"/>
            </clipPath>
            <clipPath clipPathUnits="userSpaceOnUse" id="clipPath45">
                <path d="M297 358 L336 358 L336 460 L297 460 L297 358 Z"/>
            </clipPath>
            <clipPath clipPathUnits="userSpaceOnUse" id="clipPath46">
                <path d="M310 434 L323 434 L323 447 L310 447 L310 434 Z"/>
            </clipPath>
            <clipPath clipPathUnits="userSpaceOnUse" id="clipPath47">
                <path d="M143 307 L182 307 L182 564 L143 564 L143 307 Z"/>
            </clipPath>
            <clipPath clipPathUnits="userSpaceOnUse" id="clipPath48">
                <path d="M156 538 L169 538 L169 551 L156 551 L156 538 Z"/>
            </clipPath>
            <clipPath clipPathUnits="userSpaceOnUse" id="clipPath49">
                <path d="M279 493 L318 493 L318 564 L279 564 L279 493 Z"/>
            </clipPath>
            <clipPath clipPathUnits="userSpaceOnUse" id="clipPath50">
                <path d="M292 538 L305 538 L305 551 L292 551 L292 538 Z"/>
            </clipPath>
        </defs>
        <g font-size="11" fill="white" stroke-linejoin="round"
            stroke="white" stroke-width="0" stroke-miterlimit="0">
            <rect x="0" y="0" clip-path="url(#clipPath1)" width="800"
                height="1148" stroke="none"/>
        </g>
        <g stroke-width="0.1" font-size="11" stroke-linecap="butt">
            <line clip-path="url(#clipPath1)" fill="none" x1="1" x2="88"
                y1="27" y2="27"/>
            <line clip-path="url(#clipPath1)" fill="none" x1="88"
                x2="95" y1="27" y2="13"/>
            <line clip-path="url(#clipPath1)" fill="none" x1="95"
                x2="95" y1="13" y2="1"/>
            <text x="6" y="17" clip-path="url(#clipPath2)" stroke="none"
                font-weight="bold" xml:space="preserve">component </text>
            <rect x="26" y="38" clip-path="url(#clipPath3)"
                fill="rgb(227,226,208)" width="120" height="19" stroke="none"/>
            <text font-size="13" x="29" y="54"
                clip-path="url(#clipPath4)" stroke="none" xml:space="preserve">eu.eumetsat.skat</text>
            <line clip-path="url(#clipPath3)" fill="none" x1="27"
                x2="27" y1="57" y2="38" stroke-width="2.1"/>
            <line clip-path="url(#clipPath3)" fill="none" x1="26"
                x2="146" y1="39" y2="39" stroke-width="2.1"/>
            <line clip-path="url(#clipPath3)" fill="none" x1="145"
                x2="145" y1="38" y2="57" stroke-width="2.1"/>
            <rect x="26" y="57" clip-path="url(#clipPath5)"
                fill="rgb(227,226,208)" width="590" height="343"
                stroke="none" stroke-width="2.1"/>
            <rect x="388" y="187" clip-path="url(#clipPath6)"
                fill="rgb(236,235,216)" width="73" height="19"
                stroke="none" stroke-width="2.1"/>
            <text font-size="13" x="391" y="203"
                clip-path="url(#clipPath7)" stroke="none"
                stroke-width="2.1" xml:space="preserve">realization</text>
            <line clip-path="url(#clipPath6)" fill="none" x1="389"
                x2="389" y1="206" y2="187" stroke-width="2.1"/>
            <line clip-path="url(#clipPath6)" fill="none" x1="388"
                x2="461" y1="188" y2="188" stroke-width="2.1"/>
            <line clip-path="url(#clipPath6)" fill="none" x1="460"
                x2="460" y1="187" y2="206" stroke-width="2.1"/>
            <rect x="388" y="206" clip-path="url(#clipPath8)"
                fill="rgb(236,235,216)" width="162" height="108"
                stroke="none" stroke-width="2.1"/>
            <rect x="389" y="207" clip-path="url(#clipPath8)"
                fill="none" width="160" height="106" stroke-width="2.1"/>
            <rect x="173" y="79" clip-path="url(#clipPath9)"
                fill="rgb(236,235,216)" width="61" height="19"
                stroke="none" stroke-width="2.1"/>
            <text font-size="13" x="176" y="95"
                clip-path="url(#clipPath10)" stroke="none"
                stroke-width="2.1" xml:space="preserve">scenario</text>
            <line clip-path="url(#clipPath9)" fill="none" x1="174"
                x2="174" y1="98" y2="79" stroke-width="2.1"/>
            <line clip-path="url(#clipPath9)" fill="none" x1="173"
                x2="234" y1="80" y2="80" stroke-width="2.1"/>
            <line clip-path="url(#clipPath9)" fill="none" x1="233"
                x2="233" y1="79" y2="98" stroke-width="2.1"/>
            <rect x="173" y="98" clip-path="url(#clipPath11)"
                fill="rgb(236,235,216)" width="100" height="61"
                stroke="none" stroke-width="2.1"/>
            <rect x="174" y="99" clip-path="url(#clipPath11)"
                fill="none" width="98" height="59" stroke-width="2.1"/>
            <rect x="232" y="188" clip-path="url(#clipPath12)"
                fill="rgb(236,235,216)" width="71" height="19"
                stroke="none" stroke-width="2.1"/>
            <text font-size="13" x="235" y="204"
                clip-path="url(#clipPath13)" stroke="none"
                stroke-width="2.1" xml:space="preserve">strategies</text>
            <line clip-path="url(#clipPath12)" fill="none" x1="233"
                x2="233" y1="207" y2="188" stroke-width="2.1"/>
            <line clip-path="url(#clipPath12)" fill="none" x1="232"
                x2="303" y1="189" y2="189" stroke-width="2.1"/>
            <line clip-path="url(#clipPath12)" fill="none" x1="302"
                x2="302" y1="188" y2="207" stroke-width="2.1"/>
            <rect x="232" y="207" clip-path="url(#clipPath14)"
                fill="rgb(236,235,216)" width="121" height="165"
                stroke="none" stroke-width="2.1"/>
            <rect x="251" y="219" clip-path="url(#clipPath15)"
                fill="rgb(250,249,229)" width="31" height="19"
                stroke="none" stroke-width="2.1"/>
            <text font-size="13" x="254" y="235"
                clip-path="url(#clipPath16)" stroke="none"
                stroke-width="2.1" xml:space="preserve">geo</text>
            <line clip-path="url(#clipPath15)" fill="none" x1="252"
                x2="252" y1="238" y2="219" stroke-width="2.1"/>
            <line clip-path="url(#clipPath15)" fill="none" x1="251"
                x2="282" y1="220" y2="220" stroke-width="2.1"/>
            <line clip-path="url(#clipPath15)" fill="none" x1="281"
                x2="281" y1="219" y2="238" stroke-width="2.1"/>
            <rect x="251" y="238" clip-path="url(#clipPath17)"
                fill="rgb(250,249,229)" width="78" height="44"
                stroke="none" stroke-width="2.1"/>
            <rect x="252" y="239" clip-path="url(#clipPath17)"
                fill="none" width="76" height="42" stroke-width="2.1"/>
            <rect x="250" y="291" clip-path="url(#clipPath18)"
                fill="rgb(250,249,229)" width="26" height="19"
                stroke="none" stroke-width="2.1"/>
            <text font-size="13" x="253" y="307"
                clip-path="url(#clipPath19)" stroke="none"
                stroke-width="2.1" xml:space="preserve">leo</text>
            <line clip-path="url(#clipPath18)" fill="none" x1="251"
                x2="251" y1="310" y2="291" stroke-width="2.1"/>
            <line clip-path="url(#clipPath18)" fill="none" x1="250"
                x2="276" y1="292" y2="292" stroke-width="2.1"/>
            <line clip-path="url(#clipPath18)" fill="none" x1="275"
                x2="275" y1="291" y2="310" stroke-width="2.1"/>
            <rect x="250" y="310" clip-path="url(#clipPath20)"
                fill="rgb(250,249,229)" width="81" height="43"
                stroke="none" stroke-width="2.1"/>
            <rect x="251" y="311" clip-path="url(#clipPath20)"
                fill="none" width="79" height="41" stroke-width="2.1"/>
            <rect x="233" y="208" clip-path="url(#clipPath14)"
                fill="none" width="119" height="163" stroke-width="2.1"/>
            <rect x="468" y="85" clip-path="url(#clipPath21)"
                fill="rgb(236,235,216)" width="33" height="19"
                stroke="none" stroke-width="2.1"/>
            <text font-size="13" x="471" y="101"
                clip-path="url(#clipPath22)" stroke="none"
                stroke-width="2.1" xml:space="preserve">utils</text>
            <line clip-path="url(#clipPath21)" fill="none" x1="469"
                x2="469" y1="104" y2="85" stroke-width="2.1"/>
            <line clip-path="url(#clipPath21)" fill="none" x1="468"
                x2="501" y1="86" y2="86" stroke-width="2.1"/>
            <line clip-path="url(#clipPath21)" fill="none" x1="500"
                x2="500" y1="85" y2="104" stroke-width="2.1"/>
            <rect x="468" y="104" clip-path="url(#clipPath23)"
                fill="rgb(236,235,216)" width="100" height="61"
                stroke="none" stroke-width="2.1"/>
            <rect x="469" y="105" clip-path="url(#clipPath23)"
                fill="none" width="98" height="59" stroke-width="2.1"/>
            <rect x="61" y="189" clip-path="url(#clipPath24)"
                fill="rgb(236,235,216)" width="51" height="19"
                stroke="none" stroke-width="2.1"/>
            <text font-size="13" x="64" y="205"
                clip-path="url(#clipPath25)" stroke="none"
                stroke-width="2.1" xml:space="preserve">control</text>
            <line clip-path="url(#clipPath24)" fill="none" x1="62"
                x2="62" y1="208" y2="189" stroke-width="2.1"/>
            <line clip-path="url(#clipPath24)" fill="none" x1="61"
                x2="112" y1="190" y2="190" stroke-width="2.1"/>
            <line clip-path="url(#clipPath24)" fill="none" x1="111"
                x2="111" y1="189" y2="208" stroke-width="2.1"/>
            <rect x="61" y="208" clip-path="url(#clipPath26)"
                fill="rgb(236,235,216)" width="124" height="113"
                stroke="none" stroke-width="2.1"/>
            <rect x="62" y="209" clip-path="url(#clipPath26)"
                fill="none" width="122" height="111" stroke-width="2.1"/>
            <rect x="27" y="58" clip-path="url(#clipPath5)" fill="none"
                width="588" height="341" stroke-width="2.1"/>
            <rect x="280" y="445" clip-path="url(#clipPath27)"
                fill="rgb(232,218,170)" width="170" height="62"
                stroke="none" stroke-width="2.1"/>
            <rect x="280" y="445" clip-path="url(#clipPath27)"
                fill="none" width="169" height="61" stroke-width="1.1"/>
            <text x="315" y="465" clip-path="url(#clipPath28)"
                stroke="none" stroke-width="1.1" xml:space="preserve">&lt;&lt;component&gt;&gt;</text>
            <line clip-path="url(#clipPath29)" fill="none" x1="429"
                x2="429" y1="453" y2="450" stroke-width="1.1"/>
            <line clip-path="url(#clipPath29)" fill="none" x1="429"
                x2="444" y1="450" y2="450" stroke-width="1.1"/>
            <line clip-path="url(#clipPath29)" fill="none" x1="444"
                x2="444" y1="450" y2="471" stroke-width="1.1"/>
            <line clip-path="url(#clipPath29)" fill="none" x1="444"
                x2="429" y1="471" y2="471" stroke-width="1.1"/>
            <line clip-path="url(#clipPath29)" fill="none" x1="429"
                x2="429" y1="471" y2="467" stroke-width="1.1"/>
            <rect x="425" y="453" clip-path="url(#clipPath29)"
                fill="none" width="9" height="5" stroke-width="1.1"/>
            <rect x="425" y="462" clip-path="url(#clipPath29)"
                fill="none" width="9" height="5" stroke-width="1.1"/>
            <line clip-path="url(#clipPath29)" fill="none" x1="429"
                x2="429" y1="458" y2="462" stroke-width="1.1"/>
            <text font-size="13" x="342" y="490"
                clip-path="url(#clipPath30)" stroke="none"
                font-weight="bold" stroke-width="1.1" xml:space="preserve">Orekit</text>
            <rect x="135" y="549" clip-path="url(#clipPath31)"
                fill="rgb(243,228,178)" width="195" height="62"
                stroke="none" stroke-width="1.1"/>
            <rect x="135" y="549" clip-path="url(#clipPath31)"
                fill="none" width="194" height="61" stroke-width="1.1"/>
            <text x="183" y="569" clip-path="url(#clipPath32)"
                stroke="none" stroke-width="1.1" xml:space="preserve">&lt;&lt;component&gt;&gt;</text>
            <line clip-path="url(#clipPath33)" fill="none" x1="309"
                x2="309" y1="557" y2="554" stroke-width="1.1"/>
            <line clip-path="url(#clipPath33)" fill="none" x1="309"
                x2="324" y1="554" y2="554" stroke-width="1.1"/>
            <line clip-path="url(#clipPath33)" fill="none" x1="324"
                x2="324" y1="554" y2="575" stroke-width="1.1"/>
            <line clip-path="url(#clipPath33)" fill="none" x1="324"
                x2="309" y1="575" y2="575" stroke-width="1.1"/>
            <line clip-path="url(#clipPath33)" fill="none" x1="309"
                x2="309" y1="575" y2="571" stroke-width="1.1"/>
            <rect x="305" y="557" clip-path="url(#clipPath33)"
                fill="none" width="9" height="5" stroke-width="1.1"/>
            <rect x="305" y="566" clip-path="url(#clipPath33)"
                fill="none" width="9" height="5" stroke-width="1.1"/>
            <line clip-path="url(#clipPath33)" fill="none" x1="309"
                x2="309" y1="562" y2="566" stroke-width="1.1"/>
            <text font-size="13" x="145" y="594"
                clip-path="url(#clipPath34)" stroke="none"
                font-weight="bold" stroke-width="1.1" xml:space="preserve">Apache Commons Math</text>
            <rect x="0" y="0" clip-path="url(#clipPath1)" fill="none"
                width="799" height="1147" stroke-width="1.1"/>
            <line clip-path="url(#clipPath35)" fill="none" x1="417"
                x2="417" y1="314" y2="445" stroke-dasharray="8,7" stroke-width="1.1"/>
            <line clip-path="url(#clipPath36)" fill="none" x1="412"
                x2="417" y1="435" y2="445" stroke-width="1.1"/>
            <line clip-path="url(#clipPath36)" fill="none" x1="417"
                x2="422" y1="445" y2="435" stroke-width="1.1"/>
            <line clip-path="url(#clipPath37)" fill="none" x1="273"
                x2="411" y1="116" y2="116" stroke-dasharray="8,7" stroke-width="1.1"/>
            <line clip-path="url(#clipPath37)" fill="none" x1="411"
                x2="411" y1="116" y2="187" stroke-dasharray="8,7" stroke-width="1.1"/>
            <line clip-path="url(#clipPath38)" fill="none" x1="406"
                x2="411" y1="177" y2="187" stroke-width="1.1"/>
            <line clip-path="url(#clipPath38)" fill="none" x1="411"
                x2="416" y1="187" y2="177" stroke-width="1.1"/>
            <line clip-path="url(#clipPath39)" fill="none" x1="173"
                x2="79" y1="118" y2="118" stroke-dasharray="8,7" stroke-width="1.1"/>
            <line clip-path="url(#clipPath39)" fill="none" x1="79"
                x2="79" y1="118" y2="189" stroke-dasharray="8,7" stroke-width="1.1"/>
            <line clip-path="url(#clipPath40)" fill="none" x1="74"
                x2="79" y1="179" y2="189" stroke-width="1.1"/>
            <line clip-path="url(#clipPath40)" fill="none" x1="79"
                x2="84" y1="189" y2="179" stroke-width="1.1"/>
            <line clip-path="url(#clipPath41)" fill="none" x1="251"
                x2="185" y1="245" y2="245" stroke-dasharray="8,7" stroke-width="1.1"/>
            <line clip-path="url(#clipPath42)" fill="none" x1="195"
                x2="185" y1="240" y2="245" stroke-width="1.1"/>
            <line clip-path="url(#clipPath42)" fill="none" x1="185"
                x2="195" y1="245" y2="250" stroke-width="1.1"/>
            <line clip-path="url(#clipPath43)" fill="none" x1="250"
                x2="185" y1="301" y2="301" stroke-dasharray="8,7" stroke-width="1.1"/>
            <line clip-path="url(#clipPath44)" fill="none" x1="195"
                x2="185" y1="296" y2="301" stroke-width="1.1"/>
            <line clip-path="url(#clipPath44)" fill="none" x1="185"
                x2="195" y1="301" y2="306" stroke-width="1.1"/>
            <line clip-path="url(#clipPath45)" fill="none" x1="316"
                x2="316" y1="372" y2="445" stroke-dasharray="8,7" stroke-width="1.1"/>
            <line clip-path="url(#clipPath46)" fill="none" x1="311"
                x2="316" y1="435" y2="445" stroke-width="1.1"/>
            <line clip-path="url(#clipPath46)" fill="none" x1="316"
                x2="321" y1="445" y2="435" stroke-width="1.1"/>
            <line clip-path="url(#clipPath47)" fill="none" x1="162"
                x2="162" y1="321" y2="549" stroke-dasharray="8,7" stroke-width="1.1"/>
            <line clip-path="url(#clipPath48)" fill="none" x1="157"
                x2="162" y1="539" y2="549" stroke-width="1.1"/>
            <line clip-path="url(#clipPath48)" fill="none" x1="162"
                x2="167" y1="549" y2="539" stroke-width="1.1"/>
            <line clip-path="url(#clipPath49)" fill="none" x1="298"
                x2="298" y1="507" y2="549" stroke-dasharray="8,7" stroke-width="1.1"/>
            <line clip-path="url(#clipPath50)" fill="none" x1="293"
                x2="298" y1="539" y2="549" stroke-width="1.1"/>
            <line clip-path="url(#clipPath50)" fill="none" x1="298"
                x2="303" y1="549" y2="539" stroke-width="1.1"/>
        </g>
    </g>
</svg>
