<?xml version="1.0" encoding="UTF-8"?>
<svg stroke-dasharray="none" shape-rendering="auto"
    font-family="'Dialog'" width="925" text-rendering="auto"
    fill-opacity="1" color-interpolation="auto" color-rendering="auto"
    font-size="12" fill="black" stroke="black" image-rendering="auto"
    stroke-miterlimit="10" stroke-linecap="square"
    stroke-linejoin="miter" font-style="normal" height="500"
    stroke-width="1" stroke-dashoffset="0" font-weight="normal" stroke-opacity="1">
    <!--Generated by the Batik Graphics2D SVG Generator-->
    <defs id="genericDefs"/>
    <g>
        <defs id="defs1">
            <clipPath clipPathUnits="userSpaceOnUse" id="clipPath1">
                <path d="M-1 -1 L1189 -1 L1189 841 L-1 841 L-1 -1 Z"/>
            </clipPath>
            <clipPath clipPathUnits="userSpaceOnUse" id="clipPath2">
                <path d="M5 5 L69 5 L69 28 L5 28 L5 5 Z"/>
            </clipPath>
            <clipPath clipPathUnits="userSpaceOnUse" id="clipPath3">
                <path d="M69 8 L137 8 L137 25 L69 25 L69 8 Z"/>
            </clipPath>
            <clipPath clipPathUnits="userSpaceOnUse" id="clipPath4">
                <path d="M37 322 L195 322 L195 363 L37 363 L37 322 Z"/>
            </clipPath>
            <clipPath clipPathUnits="userSpaceOnUse" id="clipPath5">
                <path d="M44 324 L188 324 L188 341 L44 341 L44 324 Z"/>
            </clipPath>
            <clipPath clipPathUnits="userSpaceOnUse" id="clipPath6">
                <path d="M39 339 L193 339 L193 351 L39 351 L39 339 Z"/>
            </clipPath>
            <clipPath clipPathUnits="userSpaceOnUse" id="clipPath7">
                <path d="M39 349 L193 349 L193 361 L39 361 L39 349 Z"/>
            </clipPath>
            <clipPath clipPathUnits="userSpaceOnUse" id="clipPath8">
                <path d="M149 374 L256 374 L256 415 L149 415 L149 374 Z"/>
            </clipPath>
            <clipPath clipPathUnits="userSpaceOnUse" id="clipPath9">
                <path d="M156 376 L249 376 L249 393 L156 393 L156 376 Z"/>
            </clipPath>
            <clipPath clipPathUnits="userSpaceOnUse" id="clipPath10">
                <path d="M151 391 L254 391 L254 403 L151 403 L151 391 Z"/>
            </clipPath>
            <clipPath clipPathUnits="userSpaceOnUse" id="clipPath11">
                <path d="M151 401 L254 401 L254 413 L151 413 L151 401 Z"/>
            </clipPath>
            <clipPath clipPathUnits="userSpaceOnUse" id="clipPath12">
                <path d="M99 186 L635 186 L635 281 L99 281 L99 186 Z"/>
            </clipPath>
            <clipPath clipPathUnits="userSpaceOnUse" id="clipPath13">
                <path d="M323 188 L411 188 L411 203 L323 203 L323 188 Z"/>
            </clipPath>
            <clipPath clipPathUnits="userSpaceOnUse" id="clipPath14">
                <path d="M301 203 L432 203 L432 218 L301 218 L301 203 Z"/>
            </clipPath>
            <clipPath clipPathUnits="userSpaceOnUse" id="clipPath15">
                <path d="M322 218 L412 218 L412 233 L322 233 L322 218 Z"/>
            </clipPath>
            <clipPath clipPathUnits="userSpaceOnUse" id="clipPath16">
                <path d="M101 231 L633 231 L633 243 L101 243 L101 231 Z"/>
            </clipPath>
            <clipPath clipPathUnits="userSpaceOnUse" id="clipPath17">
                <path d="M102 244 L115 244 L115 261 L102 261 L102 244 Z"/>
            </clipPath>
            <clipPath clipPathUnits="userSpaceOnUse" id="clipPath18">
                <path d="M115 244 L195 244 L195 261 L115 261 L115 244 Z"/>
            </clipPath>
            <clipPath clipPathUnits="userSpaceOnUse" id="clipPath19">
                <path d="M195 244 L362 244 L362 261 L195 261 L195 244 Z"/>
            </clipPath>
            <clipPath clipPathUnits="userSpaceOnUse" id="clipPath20">
                <path d="M102 261 L115 261 L115 278 L102 278 L102 261 Z"/>
            </clipPath>
            <clipPath clipPathUnits="userSpaceOnUse" id="clipPath21">
                <path d="M115 261 L204 261 L204 278 L115 278 L115 261 Z"/>
            </clipPath>
            <clipPath clipPathUnits="userSpaceOnUse" id="clipPath22">
                <path d="M204 261 L475 261 L475 278 L204 278 L204 261 Z"/>
            </clipPath>
            <clipPath clipPathUnits="userSpaceOnUse" id="clipPath23">
                <path d="M101 241 L633 241 L633 279 L101 279 L101 241 Z"/>
            </clipPath>
            <clipPath clipPathUnits="userSpaceOnUse" id="clipPath24">
                <path d="M271 332 L413 332 L413 373 L271 373 L271 332 Z"/>
            </clipPath>
            <clipPath clipPathUnits="userSpaceOnUse" id="clipPath25">
                <path d="M278 334 L406 334 L406 351 L278 351 L278 334 Z"/>
            </clipPath>
            <clipPath clipPathUnits="userSpaceOnUse" id="clipPath26">
                <path d="M273 349 L411 349 L411 361 L273 361 L273 349 Z"/>
            </clipPath>
            <clipPath clipPathUnits="userSpaceOnUse" id="clipPath27">
                <path d="M273 359 L411 359 L411 371 L273 371 L273 359 Z"/>
            </clipPath>
            <clipPath clipPathUnits="userSpaceOnUse" id="clipPath28">
                <path d="M560 386 L763 386 L763 427 L560 427 L560 386 Z"/>
            </clipPath>
            <clipPath clipPathUnits="userSpaceOnUse" id="clipPath29">
                <path d="M567 388 L756 388 L756 405 L567 405 L567 388 Z"/>
            </clipPath>
            <clipPath clipPathUnits="userSpaceOnUse" id="clipPath30">
                <path d="M562 403 L761 403 L761 415 L562 415 L562 403 Z"/>
            </clipPath>
            <clipPath clipPathUnits="userSpaceOnUse" id="clipPath31">
                <path d="M562 413 L761 413 L761 425 L562 425 L562 413 Z"/>
            </clipPath>
            <clipPath clipPathUnits="userSpaceOnUse" id="clipPath32">
                <path d="M612 94 L763 94 L763 169 L612 169 L612 94 Z"/>
            </clipPath>
            <clipPath clipPathUnits="userSpaceOnUse" id="clipPath33">
                <path d="M636 96 L739 96 L739 113 L636 113 L636 96 Z"/>
            </clipPath>
            <clipPath clipPathUnits="userSpaceOnUse" id="clipPath34">
                <path d="M619 113 L756 113 L756 130 L619 130 L619 113 Z"/>
            </clipPath>
            <clipPath clipPathUnits="userSpaceOnUse" id="clipPath35">
                <path d="M639 130 L735 130 L735 147 L639 147 L639 130 Z"/>
            </clipPath>
            <clipPath clipPathUnits="userSpaceOnUse" id="clipPath36">
                <path d="M614 145 L761 145 L761 157 L614 157 L614 145 Z"/>
            </clipPath>
            <clipPath clipPathUnits="userSpaceOnUse" id="clipPath37">
                <path d="M614 155 L761 155 L761 167 L614 167 L614 155 Z"/>
            </clipPath>
            <clipPath clipPathUnits="userSpaceOnUse" id="clipPath38">
                <path d="M31 85 L307 85 L307 160 L31 160 L31 85 Z"/>
            </clipPath>
            <clipPath clipPathUnits="userSpaceOnUse" id="clipPath39">
                <path d="M117 87 L220 87 L220 104 L117 104 L117 87 Z"/>
            </clipPath>
            <clipPath clipPathUnits="userSpaceOnUse" id="clipPath40">
                <path d="M38 104 L300 104 L300 121 L38 121 L38 104 Z"/>
            </clipPath>
            <clipPath clipPathUnits="userSpaceOnUse" id="clipPath41">
                <path d="M121 121 L217 121 L217 138 L121 138 L121 121 Z"/>
            </clipPath>
            <clipPath clipPathUnits="userSpaceOnUse" id="clipPath42">
                <path d="M33 136 L305 136 L305 148 L33 148 L33 136 Z"/>
            </clipPath>
            <clipPath clipPathUnits="userSpaceOnUse" id="clipPath43">
                <path d="M33 146 L305 146 L305 158 L33 158 L33 146 Z"/>
            </clipPath>
            <clipPath clipPathUnits="userSpaceOnUse" id="clipPath44">
                <path d="M697 433 L856 433 L856 474 L697 474 L697 433 Z"/>
            </clipPath>
            <clipPath clipPathUnits="userSpaceOnUse" id="clipPath45">
                <path d="M704 435 L849 435 L849 452 L704 452 L704 435 Z"/>
            </clipPath>
            <clipPath clipPathUnits="userSpaceOnUse" id="clipPath46">
                <path d="M699 450 L854 450 L854 462 L699 462 L699 450 Z"/>
            </clipPath>
            <clipPath clipPathUnits="userSpaceOnUse" id="clipPath47">
                <path d="M699 460 L854 460 L854 472 L699 472 L699 460 Z"/>
            </clipPath>
            <clipPath clipPathUnits="userSpaceOnUse" id="clipPath48">
                <path d="M399 45 L553 45 L553 105 L399 105 L399 45 Z"/>
            </clipPath>
            <clipPath clipPathUnits="userSpaceOnUse" id="clipPath49">
                <path d="M402 55 L536 55 L536 102 L402 102 L402 55 Z"/>
            </clipPath>
            <clipPath clipPathUnits="userSpaceOnUse" id="clipPath50">
                <path d="M326 383 L520 383 L520 424 L326 424 L326 383 Z"/>
            </clipPath>
            <clipPath clipPathUnits="userSpaceOnUse" id="clipPath51">
                <path d="M333 385 L513 385 L513 402 L333 402 L333 385 Z"/>
            </clipPath>
            <clipPath clipPathUnits="userSpaceOnUse" id="clipPath52">
                <path d="M328 400 L518 400 L518 412 L328 412 L328 400 Z"/>
            </clipPath>
            <clipPath clipPathUnits="userSpaceOnUse" id="clipPath53">
                <path d="M328 410 L518 410 L518 422 L328 422 L328 410 Z"/>
            </clipPath>
            <clipPath clipPathUnits="userSpaceOnUse" id="clipPath54">
                <path d="M159 441 L375 441 L375 482 L159 482 L159 441 Z"/>
            </clipPath>
            <clipPath clipPathUnits="userSpaceOnUse" id="clipPath55">
                <path d="M166 443 L368 443 L368 460 L166 460 L166 443 Z"/>
            </clipPath>
            <clipPath clipPathUnits="userSpaceOnUse" id="clipPath56">
                <path d="M161 458 L373 458 L373 470 L161 470 L161 458 Z"/>
            </clipPath>
            <clipPath clipPathUnits="userSpaceOnUse" id="clipPath57">
                <path d="M161 468 L373 468 L373 480 L161 480 L161 468 Z"/>
            </clipPath>
            <clipPath clipPathUnits="userSpaceOnUse" id="clipPath58">
                <path d="M489 335 L629 335 L629 376 L489 376 L489 335 Z"/>
            </clipPath>
            <clipPath clipPathUnits="userSpaceOnUse" id="clipPath59">
                <path d="M496 337 L622 337 L622 354 L496 354 L496 337 Z"/>
            </clipPath>
            <clipPath clipPathUnits="userSpaceOnUse" id="clipPath60">
                <path d="M491 352 L627 352 L627 364 L491 364 L491 352 Z"/>
            </clipPath>
            <clipPath clipPathUnits="userSpaceOnUse" id="clipPath61">
                <path d="M491 362 L627 362 L627 374 L491 374 L491 362 Z"/>
            </clipPath>
            <clipPath clipPathUnits="userSpaceOnUse" id="clipPath62">
                <path d="M102 265 L388 265 L388 339 L102 339 L102 265 Z"/>
            </clipPath>
            <clipPath clipPathUnits="userSpaceOnUse" id="clipPath63">
                <path d="M360 278 L375 278 L375 295 L360 295 L360 278 Z"/>
            </clipPath>
            <clipPath clipPathUnits="userSpaceOnUse" id="clipPath64">
                <path d="M-1 145 L330 145 L330 338 L-1 338 L-1 145 Z"/>
            </clipPath>
            <clipPath clipPathUnits="userSpaceOnUse" id="clipPath65">
                <path d="M52 168 L62 168 L62 185 L52 185 L52 168 Z"/>
            </clipPath>
            <clipPath clipPathUnits="userSpaceOnUse" id="clipPath66">
                <path d="M65 302 L78 302 L78 325 L65 325 L65 302 Z"/>
            </clipPath>
            <clipPath clipPathUnits="userSpaceOnUse" id="clipPath67">
                <path d="M188 265 L388 265 L388 391 L188 391 L188 265 Z"/>
            </clipPath>
            <clipPath clipPathUnits="userSpaceOnUse" id="clipPath68">
                <path d="M328 265 L388 265 L388 349 L328 349 L328 265 Z"/>
            </clipPath>
            <clipPath clipPathUnits="userSpaceOnUse" id="clipPath69">
                <path d="M347 265 L676 265 L676 403 L347 403 L347 265 Z"/>
            </clipPath>
            <clipPath clipPathUnits="userSpaceOnUse" id="clipPath70">
                <path d="M347 265 L791 265 L791 450 L347 450 L347 265 Z"/>
            </clipPath>
            <clipPath clipPathUnits="userSpaceOnUse" id="clipPath71">
                <path d="M686 100 L1060 100 L1060 445 L686 445 L686 100 Z"/>
            </clipPath>
            <clipPath clipPathUnits="userSpaceOnUse" id="clipPath72">
                <path d="M769 113 L779 113 L779 130 L769 130 L769 113 Z"/>
            </clipPath>
            <clipPath clipPathUnits="userSpaceOnUse" id="clipPath73">
                <path d="M761 403 L784 403 L784 416 L761 416 L761 403 Z"/>
            </clipPath>
            <clipPath clipPathUnits="userSpaceOnUse" id="clipPath74">
                <path d="M242 94 L676 94 L676 172 L242 172 L242 94 Z"/>
            </clipPath>
            <clipPath clipPathUnits="userSpaceOnUse" id="clipPath75">
                <path d="M595 139 L605 139 L605 156 L595 156 L595 139 Z"/>
            </clipPath>
            <clipPath clipPathUnits="userSpaceOnUse" id="clipPath76">
                <path d="M305 127 L328 127 L328 140 L305 140 L305 127 Z"/>
            </clipPath>
            <clipPath clipPathUnits="userSpaceOnUse" id="clipPath77">
                <path d="M718 71 L1055 71 L1055 499 L718 499 L718 71 Z"/>
            </clipPath>
            <clipPath clipPathUnits="userSpaceOnUse" id="clipPath78">
                <path d="M767 84 L777 84 L777 101 L767 101 L767 84 Z"/>
            </clipPath>
            <clipPath clipPathUnits="userSpaceOnUse" id="clipPath79">
                <path d="M854 454 L877 454 L877 467 L854 467 L854 454 Z"/>
            </clipPath>
            <clipPath clipPathUnits="userSpaceOnUse" id="clipPath80">
                <path d="M538 81 L628 81 L628 126 L538 126 L538 81 Z"/>
            </clipPath>
            <clipPath clipPathUnits="userSpaceOnUse" id="clipPath81">
                <path d="M347 265 L438 265 L438 400 L347 400 L347 265 Z"/>
            </clipPath>
            <clipPath clipPathUnits="userSpaceOnUse" id="clipPath82">
                <path d="M253 265 L388 265 L388 458 L253 458 L253 265 Z"/>
            </clipPath>
            <clipPath clipPathUnits="userSpaceOnUse" id="clipPath83">
                <path d="M347 265 L574 265 L574 352 L347 352 L347 265 Z"/>
            </clipPath>
            <clipPath clipPathUnits="userSpaceOnUse" id="clipPath84">
                <path d="M600 139 L919 139 L919 392 L600 392 L600 139 Z"/>
            </clipPath>
            <clipPath clipPathUnits="userSpaceOnUse" id="clipPath85">
                <path d="M770 158 L780 158 L780 175 L770 175 L770 158 Z"/>
            </clipPath>
            <clipPath clipPathUnits="userSpaceOnUse" id="clipPath86">
                <path d="M627 347 L650 347 L650 360 L627 360 L627 347 Z"/>
            </clipPath>
        </defs>
        <g font-size="15" fill="white" font-family="'Cantarell'"
            stroke-linejoin="round" stroke="white" stroke-width="0" stroke-miterlimit="0">
            <rect x="0" y="0" clip-path="url(#clipPath1)" width="1188"
                height="840" stroke="none"/>
        </g>
        <g stroke-width="0.1" font-size="15" font-family="'Cantarell'" stroke-linecap="butt">
            <line clip-path="url(#clipPath1)" fill="none" x1="1"
                x2="141" y1="35" y2="35"/>
            <line clip-path="url(#clipPath1)" fill="none" x1="141"
                x2="148" y1="35" y2="21"/>
            <line clip-path="url(#clipPath1)" fill="none" x1="148"
                x2="148" y1="21" y2="1"/>
            <text x="6" y="22" clip-path="url(#clipPath2)" stroke="none"
                font-weight="bold" xml:space="preserve">package </text>
            <text font-size="13" x="70" y="22"
                clip-path="url(#clipPath3)" font-family="'Dialog'"
                stroke="none" xml:space="preserve">realization</text>
            <rect x="38" y="323" clip-path="url(#clipPath4)"
                fill="rgb(237,247,200)" width="156" height="39" stroke="none"/>
        </g>
        <g font-size="13" stroke-linecap="butt" fill="rgb(106,88,75)"
            stroke="rgb(106,88,75)" font-weight="bold" stroke-width="0.1">
            <text xml:space="preserve" x="45" y="338"
                clip-path="url(#clipPath5)" stroke="none">OrbitDetermination</text>
            <line clip-path="url(#clipPath6)" fill="none" x1="40"
                x2="192" y1="340" y2="340"/>
            <line clip-path="url(#clipPath7)" fill="none" x1="40"
                x2="192" y1="350" y2="350"/>
        </g>
        <g font-size="15" stroke-linecap="butt" fill="rgb(106,88,75)"
            font-family="'Cantarell'" stroke="rgb(106,88,75)" stroke-width="1.1">
            <rect x="38" y="323" clip-path="url(#clipPath4)" fill="none"
                width="155" height="38"/>
            <rect x="150" y="375" clip-path="url(#clipPath8)"
                fill="rgb(237,247,200)" width="105" height="39" stroke="none"/>
            <text font-size="13" x="157" y="390"
                clip-path="url(#clipPath9)" font-family="'Dialog'"
                stroke="none" font-weight="bold" xml:space="preserve">Propagation</text>
            <line clip-path="url(#clipPath10)" fill="none" x1="152"
                x2="253" y1="392" y2="392" stroke-width="0.1"/>
            <line clip-path="url(#clipPath11)" fill="none" x1="152"
                x2="253" y1="402" y2="402" stroke-width="0.1"/>
            <rect x="150" y="375" clip-path="url(#clipPath8)"
                fill="none" width="104" height="38"/>
            <rect x="100" y="187" clip-path="url(#clipPath12)"
                fill="rgb(244,232,212)" width="534" height="93" stroke="none"/>
        </g>
        <g fill="rgb(110,44,18)" stroke-width="1.1" font-size="11"
            stroke-linecap="butt" stroke="rgb(110,44,18)">
            <text xml:space="preserve" x="324" y="200"
                clip-path="url(#clipPath13)" stroke="none">&lt;&lt;interface&gt;&gt;</text>
            <text x="302" y="215" clip-path="url(#clipPath14)"
                stroke="none" font-weight="bold" xml:space="preserve">ScenarioComponent</text>
            <text xml:space="preserve" x="323" y="230"
                clip-path="url(#clipPath15)" stroke="none">(from scenario)</text>
            <line clip-path="url(#clipPath16)" fill="none" x1="102"
                x2="632" y1="232" y2="232" stroke-width="0.1"/>
        </g>
        <g stroke-width="0.1" font-size="13" stroke-linecap="butt">
            <text xml:space="preserve" x="103" y="258"
                clip-path="url(#clipPath17)" stroke="none">+</text>
            <text xml:space="preserve" x="116" y="258"
                clip-path="url(#clipPath18)" stroke="none">setCycleEnd</text>
            <text xml:space="preserve" x="196" y="258"
                clip-path="url(#clipPath19)" stroke="none">(cycleEnd : AbsoluteDate)</text>
            <text xml:space="preserve" x="103" y="275"
                clip-path="url(#clipPath20)" stroke="none">+</text>
            <text xml:space="preserve" x="116" y="275"
                clip-path="url(#clipPath21)" stroke="none">updateStates</text>
            <text xml:space="preserve" x="205" y="275"
                clip-path="url(#clipPath22)" stroke="none">(originals : ScenarioState) : ScenarioState</text>
        </g>
        <g font-size="15" stroke-linecap="butt" fill="rgb(110,44,18)"
            font-family="'Cantarell'" stroke="rgb(110,44,18)" stroke-width="0.1">
            <line clip-path="url(#clipPath23)" fill="none" x1="102"
                x2="632" y1="242" y2="242"/>
            <rect x="100" y="187" clip-path="url(#clipPath12)"
                fill="none" width="533" height="92" stroke-width="1.1"/>
            <rect x="272" y="333" clip-path="url(#clipPath24)"
                fill="rgb(237,247,200)" width="140" height="39"
                stroke="none" stroke-width="1.1"/>
        </g>
        <g font-size="13" stroke-linecap="butt" fill="rgb(106,88,75)"
            stroke="rgb(106,88,75)" font-weight="bold" stroke-width="1.1">
            <text xml:space="preserve" x="279" y="348"
                clip-path="url(#clipPath25)" stroke="none">ManeuverSplitter</text>
        </g>
        <g font-size="15" stroke-linecap="butt" fill="rgb(106,88,75)"
            font-family="'Cantarell'" stroke="rgb(106,88,75)" stroke-width="0.1">
            <line clip-path="url(#clipPath26)" fill="none" x1="274"
                x2="410" y1="350" y2="350"/>
            <line clip-path="url(#clipPath27)" fill="none" x1="274"
                x2="410" y1="360" y2="360"/>
            <rect x="272" y="333" clip-path="url(#clipPath24)"
                fill="none" width="139" height="38" stroke-width="1.1"/>
            <rect x="561" y="387" clip-path="url(#clipPath28)"
                fill="rgb(237,247,200)" width="201" height="39"
                stroke="none" stroke-width="1.1"/>
        </g>
        <g font-size="13" stroke-linecap="butt" fill="rgb(106,88,75)"
            stroke="rgb(106,88,75)" font-weight="bold" stroke-width="1.1">
            <text xml:space="preserve" x="568" y="402"
                clip-path="url(#clipPath29)" stroke="none">ManeuverMagnitudeError</text>
        </g>
        <g font-size="15" stroke-linecap="butt" fill="rgb(106,88,75)"
            font-family="'Cantarell'" stroke="rgb(106,88,75)" stroke-width="0.1">
            <line clip-path="url(#clipPath30)" fill="none" x1="563"
                x2="760" y1="404" y2="404"/>
            <line clip-path="url(#clipPath31)" fill="none" x1="563"
                x2="760" y1="414" y2="414"/>
            <rect x="561" y="387" clip-path="url(#clipPath28)"
                fill="none" width="200" height="38" stroke-width="1.1"/>
            <rect x="613" y="95" clip-path="url(#clipPath32)"
                fill="rgb(243,232,255)" width="149" height="73"
                stroke="none" stroke-width="1.1"/>
        </g>
        <g fill="rgb(41,0,141)" stroke-width="1.1" font-size="13"
            stroke-linecap="butt" stroke="rgb(41,0,141)">
            <text xml:space="preserve" x="637" y="110"
                clip-path="url(#clipPath33)" stroke="none">&lt;&lt;dataType&gt;&gt;</text>
            <text x="620" y="127" clip-path="url(#clipPath34)"
                stroke="none" font-weight="bold" xml:space="preserve">RandomGenerator</text>
            <text xml:space="preserve" x="640" y="144"
                clip-path="url(#clipPath35)" stroke="none">(from random)</text>
            <line clip-path="url(#clipPath36)" fill="none" x1="615"
                x2="760" y1="146" y2="146" stroke-width="0.1"/>
            <line clip-path="url(#clipPath37)" fill="none" x1="615"
                x2="760" y1="156" y2="156" stroke-width="0.1"/>
            <rect x="613" y="95" clip-path="url(#clipPath32)"
                fill="none" width="148" height="72"/>
        </g>
        <g font-size="15" stroke-linecap="butt" fill="rgb(243,232,255)"
            font-family="'Cantarell'" stroke="rgb(243,232,255)" stroke-width="1.1">
            <rect x="32" y="86" clip-path="url(#clipPath38)" width="274"
                height="73" stroke="none"/>
        </g>
        <g fill="rgb(41,0,141)" stroke-width="1.1" font-size="13"
            stroke-linecap="butt" stroke="rgb(41,0,141)">
            <text xml:space="preserve" x="118" y="101"
                clip-path="url(#clipPath39)" stroke="none">&lt;&lt;dataType&gt;&gt;</text>
            <text x="39" y="118" clip-path="url(#clipPath40)"
                stroke="none" font-weight="bold" xml:space="preserve">CorrelatedRandomVectorGenerator</text>
            <text xml:space="preserve" x="122" y="135"
                clip-path="url(#clipPath41)" stroke="none">(from random)</text>
            <line clip-path="url(#clipPath42)" fill="none" x1="34"
                x2="304" y1="137" y2="137" stroke-width="0.1"/>
            <line clip-path="url(#clipPath43)" fill="none" x1="34"
                x2="304" y1="147" y2="147" stroke-width="0.1"/>
            <rect x="32" y="86" clip-path="url(#clipPath38)" fill="none"
                width="273" height="72"/>
        </g>
        <g font-size="15" stroke-linecap="butt" fill="rgb(237,247,200)"
            font-family="'Cantarell'" stroke="rgb(237,247,200)" stroke-width="1.1">
            <rect x="698" y="434" clip-path="url(#clipPath44)"
                width="157" height="39" stroke="none"/>
        </g>
        <g font-size="13" stroke-linecap="butt" fill="rgb(106,88,75)"
            stroke="rgb(106,88,75)" font-weight="bold" stroke-width="1.1">
            <text xml:space="preserve" x="705" y="449"
                clip-path="url(#clipPath45)" stroke="none">ManeuverDateError</text>
        </g>
        <g font-size="15" stroke-linecap="butt" fill="rgb(106,88,75)"
            font-family="'Cantarell'" stroke="rgb(106,88,75)" stroke-width="0.1">
            <line clip-path="url(#clipPath46)" fill="none" x1="700"
                x2="853" y1="451" y2="451"/>
            <line clip-path="url(#clipPath47)" fill="none" x1="700"
                x2="853" y1="461" y2="461"/>
            <rect x="698" y="434" clip-path="url(#clipPath44)"
                fill="none" width="156" height="38" stroke-width="1.1"/>
        </g>
        <g fill="rgb(243,239,235)" stroke-width="1.1" font-size="13"
            stroke-linecap="butt" stroke="rgb(243,239,235)">
            <polygon clip-path="url(#clipPath48)"
                points=" 400 46 542 46 551 56 551 103 400 103" stroke="none"/>
            <polygon fill="none" stroke-width="0.1"
                clip-path="url(#clipPath48)"
                points=" 541 46 541 56 551 56 541 46 400 46 400 103 551 103 551 56" stroke="rgb(105,22,22)"/>
            <text x="403" y="69" clip-path="url(#clipPath49)"
                fill="rgb(105,22,22)" stroke="none" stroke-width="0.1" xml:space="preserve">a single instance of</text>
            <text x="403" y="84" clip-path="url(#clipPath49)"
                fill="rgb(105,22,22)" stroke="none" stroke-width="0.1" xml:space="preserve">RandomGenerator is</text>
            <text x="403" y="99" clip-path="url(#clipPath49)"
                fill="rgb(105,22,22)" stroke="none" stroke-width="0.1" xml:space="preserve">shared by all objects</text>
        </g>
        <g font-size="15" stroke-linecap="butt" fill="rgb(237,247,200)"
            font-family="'Cantarell'" stroke="rgb(237,247,200)" stroke-width="0.1">
            <rect x="327" y="384" clip-path="url(#clipPath50)"
                width="192" height="39" stroke="none"/>
        </g>
        <g font-size="13" stroke-linecap="butt" fill="rgb(106,88,75)"
            stroke="rgb(106,88,75)" font-weight="bold" stroke-width="0.1">
            <text xml:space="preserve" x="334" y="399"
                clip-path="url(#clipPath51)" stroke="none">ManeuverCrossCoupling</text>
            <line clip-path="url(#clipPath52)" fill="none" x1="329"
                x2="517" y1="401" y2="401"/>
            <line clip-path="url(#clipPath53)" fill="none" x1="329"
                x2="517" y1="411" y2="411"/>
        </g>
        <g font-size="15" stroke-linecap="butt" fill="rgb(106,88,75)"
            font-family="'Cantarell'" stroke="rgb(106,88,75)" stroke-width="1.1">
            <rect x="327" y="384" clip-path="url(#clipPath50)"
                fill="none" width="191" height="38"/>
            <rect x="160" y="442" clip-path="url(#clipPath54)"
                fill="rgb(237,247,200)" width="214" height="39" stroke="none"/>
            <text font-size="13" x="167" y="457"
                clip-path="url(#clipPath55)" font-family="'Dialog'"
                stroke="none" font-weight="bold" xml:space="preserve">ManeuverEclipseConstraint</text>
            <line clip-path="url(#clipPath56)" fill="none" x1="162"
                x2="372" y1="459" y2="459" stroke-width="0.1"/>
            <line clip-path="url(#clipPath57)" fill="none" x1="162"
                x2="372" y1="469" y2="469" stroke-width="0.1"/>
            <rect x="160" y="442" clip-path="url(#clipPath54)"
                fill="none" width="213" height="38"/>
            <rect x="490" y="336" clip-path="url(#clipPath58)"
                fill="rgb(237,247,200)" width="138" height="39" stroke="none"/>
            <text font-size="13" x="497" y="351"
                clip-path="url(#clipPath59)" font-family="'Dialog'"
                stroke="none" font-weight="bold" xml:space="preserve">MissedManeuver</text>
            <line clip-path="url(#clipPath60)" fill="none" x1="492"
                x2="626" y1="353" y2="353" stroke-width="0.1"/>
            <line clip-path="url(#clipPath61)" fill="none" x1="492"
                x2="626" y1="363" y2="363" stroke-width="0.1"/>
            <rect x="490" y="336" clip-path="url(#clipPath58)"
                fill="none" width="137" height="38"/>
            <rect x="0" y="0" clip-path="url(#clipPath1)" fill="none"
                width="1187" height="839" stroke="black"/>
        </g>
        <g font-size="11" stroke-linecap="butt" fill="rgb(110,44,18)"
            stroke-dasharray="8,7" stroke="rgb(110,44,18)" stroke-width="1.1">
            <line clip-path="url(#clipPath62)" fill="none" x1="116"
                x2="116" y1="324" y2="312"/>
            <line clip-path="url(#clipPath62)" fill="none" x1="116"
                x2="367" y1="312" y2="312"/>
            <line clip-path="url(#clipPath62)" fill="none" x1="367"
                x2="367" y1="312" y2="279"/>
            <polygon fill="white" clip-path="url(#clipPath63)"
                points=" 367 279 373 293 361 293" stroke="none"/>
            <polygon fill="none" stroke-dasharray="none"
                clip-path="url(#clipPath63)" points=" 367 279 373 293 361 293"/>
        </g>
        <g fill="rgb(153,15,15)" stroke-width="1.1" font-size="13"
            stroke-linecap="butt" stroke="rgb(153,15,15)">
            <line clip-path="url(#clipPath64)" fill="none" x1="71"
                x2="71" y1="323" y2="159"/>
            <text xml:space="preserve" x="53" y="182"
                clip-path="url(#clipPath65)" stroke="none">1</text>
            <polygon fill="white" clip-path="url(#clipPath66)"
                points=" 71 323 66 313 71 303 76 313" stroke="none"/>
            <polygon fill="none" clip-path="url(#clipPath66)" points=" 71 323 66 313 71 303 76 313"/>
        </g>
        <g font-size="11" stroke-linecap="butt" fill="rgb(110,44,18)"
            stroke-dasharray="8,7" stroke="rgb(110,44,18)" stroke-width="1.1">
            <line clip-path="url(#clipPath67)" fill="none" x1="202"
                x2="202" y1="376" y2="312"/>
            <line clip-path="url(#clipPath67)" fill="none" x1="202"
                x2="367" y1="312" y2="312"/>
            <line clip-path="url(#clipPath67)" fill="none" x1="367"
                x2="367" y1="312" y2="279"/>
            <polygon fill="white" clip-path="url(#clipPath63)"
                points=" 367 279 373 293 361 293" stroke="none"/>
            <polygon fill="none" stroke-dasharray="none"
                clip-path="url(#clipPath63)" points=" 367 279 373 293 361 293"/>
            <line clip-path="url(#clipPath68)" fill="none" x1="342"
                x2="342" y1="334" y2="312"/>
            <line clip-path="url(#clipPath68)" fill="none" x1="342"
                x2="367" y1="312" y2="312"/>
            <line clip-path="url(#clipPath68)" fill="none" x1="367"
                x2="367" y1="312" y2="279"/>
            <polygon fill="white" clip-path="url(#clipPath63)"
                points=" 367 279 373 293 361 293" stroke="none"/>
            <polygon fill="none" stroke-dasharray="none"
                clip-path="url(#clipPath63)" points=" 367 279 373 293 361 293"/>
            <line clip-path="url(#clipPath69)" fill="none" x1="661"
                x2="661" y1="388" y2="312"/>
            <line clip-path="url(#clipPath69)" fill="none" x1="661"
                x2="367" y1="312" y2="312"/>
            <line clip-path="url(#clipPath69)" fill="none" x1="367"
                x2="367" y1="312" y2="279"/>
            <polygon fill="white" clip-path="url(#clipPath63)"
                points=" 367 279 373 293 361 293" stroke="none"/>
            <polygon fill="none" stroke-dasharray="none"
                clip-path="url(#clipPath63)" points=" 367 279 373 293 361 293"/>
            <line clip-path="url(#clipPath70)" fill="none" x1="776"
                x2="776" y1="435" y2="312"/>
            <line clip-path="url(#clipPath70)" fill="none" x1="776"
                x2="367" y1="312" y2="312"/>
            <line clip-path="url(#clipPath70)" fill="none" x1="367"
                x2="367" y1="312" y2="279"/>
            <polygon fill="white" clip-path="url(#clipPath63)"
                points=" 367 279 373 293 361 293" stroke="none"/>
            <polygon fill="none" stroke-dasharray="none"
                clip-path="url(#clipPath63)" points=" 367 279 373 293 361 293"/>
        </g>
        <g fill="rgb(153,15,15)" stroke-width="1.1" font-size="13"
            stroke-linecap="butt" stroke="rgb(153,15,15)">
            <line clip-path="url(#clipPath71)" fill="none" x1="762"
                x2="821" y1="409" y2="409"/>
            <line clip-path="url(#clipPath71)" fill="none" x1="821"
                x2="821" y1="409" y2="131"/>
            <line clip-path="url(#clipPath71)" fill="none" x1="821"
                x2="762" y1="131" y2="131"/>
            <text xml:space="preserve" x="770" y="127"
                clip-path="url(#clipPath72)" stroke="none">1</text>
            <polygon fill="white" clip-path="url(#clipPath73)"
                points=" 762 409 772 404 782 409 772 414" stroke="none"/>
            <polygon fill="none" clip-path="url(#clipPath73)" points=" 762 409 772 404 782 409 772 414"/>
            <line clip-path="url(#clipPath74)" fill="none" x1="306"
                x2="613" y1="133" y2="133"/>
            <text xml:space="preserve" x="596" y="153"
                clip-path="url(#clipPath75)" stroke="none">1</text>
            <polygon fill="white" clip-path="url(#clipPath76)"
                points=" 306 133 316 128 326 133 316 138" stroke="none"/>
            <polygon fill="none" clip-path="url(#clipPath76)" points=" 306 133 316 128 326 133 316 138"/>
            <line clip-path="url(#clipPath77)" fill="none" x1="855"
                x2="886" y1="460" y2="460"/>
            <line clip-path="url(#clipPath77)" fill="none" x1="886"
                x2="886" y1="460" y2="104"/>
            <line clip-path="url(#clipPath77)" fill="none" x1="886"
                x2="762" y1="104" y2="104"/>
            <text xml:space="preserve" x="768" y="98"
                clip-path="url(#clipPath78)" stroke="none">1</text>
            <polygon fill="white" clip-path="url(#clipPath79)"
                points=" 855 460 865 455 875 460 865 465" stroke="none"/>
            <polygon fill="none" clip-path="url(#clipPath79)" points=" 855 460 865 455 875 460 865 465"/>
            <line clip-path="url(#clipPath80)" fill="none" x1="552"
                x2="613" y1="95" y2="111" stroke-dasharray="8,7" stroke="rgb(105,22,22)"/>
        </g>
        <g font-size="11" stroke-linecap="butt" fill="rgb(110,44,18)"
            stroke-dasharray="8,7" stroke="rgb(110,44,18)" stroke-width="1.1">
            <line clip-path="url(#clipPath81)" fill="none" x1="423"
                x2="423" y1="385" y2="312"/>
            <line clip-path="url(#clipPath81)" fill="none" x1="423"
                x2="367" y1="312" y2="312"/>
            <line clip-path="url(#clipPath81)" fill="none" x1="367"
                x2="367" y1="312" y2="279"/>
            <polygon fill="white" clip-path="url(#clipPath63)"
                points=" 367 279 373 293 361 293" stroke="none"/>
            <polygon fill="none" stroke-dasharray="none"
                clip-path="url(#clipPath63)" points=" 367 279 373 293 361 293"/>
            <line clip-path="url(#clipPath82)" fill="none" x1="267"
                x2="267" y1="443" y2="312"/>
            <line clip-path="url(#clipPath82)" fill="none" x1="267"
                x2="367" y1="312" y2="312"/>
            <line clip-path="url(#clipPath82)" fill="none" x1="367"
                x2="367" y1="312" y2="279"/>
            <polygon fill="white" clip-path="url(#clipPath63)"
                points=" 367 279 373 293 361 293" stroke="none"/>
            <polygon fill="none" stroke-dasharray="none"
                clip-path="url(#clipPath63)" points=" 367 279 373 293 361 293"/>
            <line clip-path="url(#clipPath83)" fill="none" x1="559"
                x2="559" y1="337" y2="312"/>
            <line clip-path="url(#clipPath83)" fill="none" x1="559"
                x2="367" y1="312" y2="312"/>
            <line clip-path="url(#clipPath83)" fill="none" x1="367"
                x2="367" y1="312" y2="279"/>
            <polygon fill="white" clip-path="url(#clipPath63)"
                points=" 367 279 373 293 361 293" stroke="none"/>
            <polygon fill="none" stroke-dasharray="none"
                clip-path="url(#clipPath63)" points=" 367 279 373 293 361 293"/>
        </g>
        <g fill="rgb(153,15,15)" stroke-width="1.1" font-size="13"
            stroke-linecap="butt" stroke="rgb(153,15,15)">
            <line clip-path="url(#clipPath84)" fill="none" x1="762"
                x2="795" y1="153" y2="153"/>
            <line clip-path="url(#clipPath84)" fill="none" x1="795"
                x2="795" y1="153" y2="353"/>
            <line clip-path="url(#clipPath84)" fill="none" x1="795"
                x2="628" y1="353" y2="353"/>
            <text xml:space="preserve" x="771" y="172"
                clip-path="url(#clipPath85)" stroke="none">1</text>
            <polygon fill="white" clip-path="url(#clipPath86)"
                points=" 628 353 638 348 648 353 638 358" stroke="none"/>
            <polygon fill="none" clip-path="url(#clipPath86)" points=" 628 353 638 348 648 353 638 358"/>
        </g>
    </g>
</svg>
