<?xml version="1.0" encoding="UTF-8"?>
<svg stroke-dasharray="none" shape-rendering="auto"
    font-family="'Dialog'" width="1712" text-rendering="auto"
    fill-opacity="1" color-interpolation="auto" color-rendering="auto"
    font-size="12" fill="black" stroke="black" image-rendering="auto"
    stroke-miterlimit="10" stroke-linecap="square"
    stroke-linejoin="miter" font-style="normal" height="1149"
    stroke-width="1" stroke-dashoffset="0" font-weight="normal" stroke-opacity="1">
    <!--Generated by the Batik Graphics2D SVG Generator-->
    <defs id="genericDefs"/>
    <g>
        <defs id="defs1">
            <clipPath clipPathUnits="userSpaceOnUse" id="clipPath1">
                <path d="M-1 -1 L1641 -1 L1641 1149 L-1 1149 L-1 -1 Z"/>
            </clipPath>
            <clipPath clipPathUnits="userSpaceOnUse" id="clipPath2">
                <path d="M5 6 L65 6 L65 21 L5 21 L5 6 Z"/>
            </clipPath>
            <clipPath clipPathUnits="userSpaceOnUse" id="clipPath3">
                <path d="M65 5 L133 5 L133 22 L65 22 L65 5 Z"/>
            </clipPath>
            <clipPath clipPathUnits="userSpaceOnUse" id="clipPath4">
                <path d="M26 180 L184 180 L184 221 L26 221 L26 180 Z"/>
            </clipPath>
            <clipPath clipPathUnits="userSpaceOnUse" id="clipPath5">
                <path d="M33 182 L177 182 L177 199 L33 199 L33 182 Z"/>
            </clipPath>
            <clipPath clipPathUnits="userSpaceOnUse" id="clipPath6">
                <path d="M28 197 L182 197 L182 209 L28 209 L28 197 Z"/>
            </clipPath>
            <clipPath clipPathUnits="userSpaceOnUse" id="clipPath7">
                <path d="M28 207 L182 207 L182 219 L28 219 L28 207 Z"/>
            </clipPath>
            <clipPath clipPathUnits="userSpaceOnUse" id="clipPath8">
                <path d="M203 181 L310 181 L310 222 L203 222 L203 181 Z"/>
            </clipPath>
            <clipPath clipPathUnits="userSpaceOnUse" id="clipPath9">
                <path d="M210 183 L303 183 L303 200 L210 200 L210 183 Z"/>
            </clipPath>
            <clipPath clipPathUnits="userSpaceOnUse" id="clipPath10">
                <path d="M205 198 L308 198 L308 210 L205 210 L205 198 Z"/>
            </clipPath>
            <clipPath clipPathUnits="userSpaceOnUse" id="clipPath11">
                <path d="M205 208 L308 208 L308 220 L205 220 L205 208 Z"/>
            </clipPath>
            <clipPath clipPathUnits="userSpaceOnUse" id="clipPath12">
                <path d="M142 60 L664 60 L664 138 L142 138 L142 60 Z"/>
            </clipPath>
            <clipPath clipPathUnits="userSpaceOnUse" id="clipPath13">
                <path d="M359 62 L447 62 L447 77 L359 77 L359 62 Z"/>
            </clipPath>
            <clipPath clipPathUnits="userSpaceOnUse" id="clipPath14">
                <path d="M337 77 L468 77 L468 92 L337 92 L337 77 Z"/>
            </clipPath>
            <clipPath clipPathUnits="userSpaceOnUse" id="clipPath15">
                <path d="M358 92 L448 92 L448 107 L358 107 L358 92 Z"/>
            </clipPath>
            <clipPath clipPathUnits="userSpaceOnUse" id="clipPath16">
                <path d="M144 105 L662 105 L662 117 L144 117 L144 105 Z"/>
            </clipPath>
            <clipPath clipPathUnits="userSpaceOnUse" id="clipPath17">
                <path d="M145 118 L158 118 L158 135 L145 135 L145 118 Z"/>
            </clipPath>
            <clipPath clipPathUnits="userSpaceOnUse" id="clipPath18">
                <path d="M158 118 L240 118 L240 135 L158 135 L158 118 Z"/>
            </clipPath>
            <clipPath clipPathUnits="userSpaceOnUse" id="clipPath19">
                <path d="M240 118 L650 118 L650 135 L240 135 L240 118 Z"/>
            </clipPath>
            <clipPath clipPathUnits="userSpaceOnUse" id="clipPath20">
                <path d="M144 115 L662 115 L662 136 L144 136 L144 115 Z"/>
            </clipPath>
            <clipPath clipPathUnits="userSpaceOnUse" id="clipPath21">
                <path d="M329 182 L471 182 L471 223 L329 223 L329 182 Z"/>
            </clipPath>
            <clipPath clipPathUnits="userSpaceOnUse" id="clipPath22">
                <path d="M336 184 L464 184 L464 201 L336 201 L336 184 Z"/>
            </clipPath>
            <clipPath clipPathUnits="userSpaceOnUse" id="clipPath23">
                <path d="M331 199 L469 199 L469 211 L331 211 L331 199 Z"/>
            </clipPath>
            <clipPath clipPathUnits="userSpaceOnUse" id="clipPath24">
                <path d="M331 209 L469 209 L469 221 L331 221 L331 209 Z"/>
            </clipPath>
            <clipPath clipPathUnits="userSpaceOnUse" id="clipPath25">
                <path d="M481 182 L686 182 L686 223 L481 223 L481 182 Z"/>
            </clipPath>
            <clipPath clipPathUnits="userSpaceOnUse" id="clipPath26">
                <path d="M488 184 L679 184 L679 201 L488 201 L488 184 Z"/>
            </clipPath>
            <clipPath clipPathUnits="userSpaceOnUse" id="clipPath27">
                <path d="M483 199 L684 199 L684 211 L483 211 L483 199 Z"/>
            </clipPath>
            <clipPath clipPathUnits="userSpaceOnUse" id="clipPath28">
                <path d="M483 209 L684 209 L684 221 L483 221 L483 209 Z"/>
            </clipPath>
            <clipPath clipPathUnits="userSpaceOnUse" id="clipPath29">
                <path d="M98 273 L296 273 L296 327 L98 327 L98 273 Z"/>
            </clipPath>
            <clipPath clipPathUnits="userSpaceOnUse" id="clipPath30">
                <path d="M153 275 L241 275 L241 290 L153 290 L153 275 Z"/>
            </clipPath>
            <clipPath clipPathUnits="userSpaceOnUse" id="clipPath31">
                <path d="M157 290 L236 290 L236 305 L157 305 L157 290 Z"/>
            </clipPath>
            <clipPath clipPathUnits="userSpaceOnUse" id="clipPath32">
                <path d="M100 303 L294 303 L294 315 L100 315 L100 303 Z"/>
            </clipPath>
            <clipPath clipPathUnits="userSpaceOnUse" id="clipPath33">
                <path d="M100 313 L294 313 L294 325 L100 325 L100 313 Z"/>
            </clipPath>
            <clipPath clipPathUnits="userSpaceOnUse" id="clipPath34">
                <path d="M348 360 L526 360 L526 414 L348 414 L348 360 Z"/>
            </clipPath>
            <clipPath clipPathUnits="userSpaceOnUse" id="clipPath35">
                <path d="M393 362 L481 362 L481 377 L393 377 L393 362 Z"/>
            </clipPath>
            <clipPath clipPathUnits="userSpaceOnUse" id="clipPath36">
                <path d="M411 377 L462 377 L462 392 L411 392 L411 377 Z"/>
            </clipPath>
            <clipPath clipPathUnits="userSpaceOnUse" id="clipPath37">
                <path d="M350 390 L524 390 L524 402 L350 402 L350 390 Z"/>
            </clipPath>
            <clipPath clipPathUnits="userSpaceOnUse" id="clipPath38">
                <path d="M350 400 L524 400 L524 412 L350 412 L350 400 Z"/>
            </clipPath>
            <clipPath clipPathUnits="userSpaceOnUse" id="clipPath39">
                <path d="M91 122 L424 122 L424 197 L91 197 L91 122 Z"/>
            </clipPath>
            <clipPath clipPathUnits="userSpaceOnUse" id="clipPath40">
                <path d="M396 135 L411 135 L411 152 L396 152 L396 135 Z"/>
            </clipPath>
            <clipPath clipPathUnits="userSpaceOnUse" id="clipPath41">
                <path d="M-1 206 L229 206 L229 335 L-1 335 L-1 206 Z"/>
            </clipPath>
            <clipPath clipPathUnits="userSpaceOnUse" id="clipPath42">
                <path d="M87 281 L96 281 L96 298 L87 298 L87 281 Z"/>
            </clipPath>
            <clipPath clipPathUnits="userSpaceOnUse" id="clipPath43">
                <path d="M67 219 L80 219 L80 242 L67 242 L67 219 Z"/>
            </clipPath>
            <clipPath clipPathUnits="userSpaceOnUse" id="clipPath44">
                <path d="M242 122 L424 122 L424 198 L242 198 L242 122 Z"/>
            </clipPath>
            <clipPath clipPathUnits="userSpaceOnUse" id="clipPath45">
                <path d="M102 207 L351 207 L351 292 L102 292 L102 207 Z"/>
            </clipPath>
            <clipPath clipPathUnits="userSpaceOnUse" id="clipPath46">
                <path d="M214 256 L223 256 L223 273 L214 273 L214 256 Z"/>
            </clipPath>
            <clipPath clipPathUnits="userSpaceOnUse" id="clipPath47">
                <path d="M220 220 L233 220 L233 243 L220 243 L220 220 Z"/>
            </clipPath>
            <clipPath clipPathUnits="userSpaceOnUse" id="clipPath48">
                <path d="M383 122 L424 122 L424 199 L383 199 L383 122 Z"/>
            </clipPath>
            <clipPath clipPathUnits="userSpaceOnUse" id="clipPath49">
                <path d="M383 122 L598 122 L598 199 L383 199 L383 122 Z"/>
            </clipPath>
            <clipPath clipPathUnits="userSpaceOnUse" id="clipPath50">
                <path d="M218 208 L504 208 L504 343 L218 343 L218 208 Z"/>
            </clipPath>
            <clipPath clipPathUnits="userSpaceOnUse" id="clipPath51">
                <path d="M300 267 L309 267 L309 284 L300 284 L300 267 Z"/>
            </clipPath>
            <clipPath clipPathUnits="userSpaceOnUse" id="clipPath52">
                <path d="M352 221 L365 221 L365 244 L352 244 L352 221 Z"/>
            </clipPath>
            <clipPath clipPathUnits="userSpaceOnUse" id="clipPath53">
                <path d="M281 208 L704 208 L704 375 L281 375 L281 208 Z"/>
            </clipPath>
            <clipPath clipPathUnits="userSpaceOnUse" id="clipPath54">
                <path d="M300 297 L309 297 L309 314 L300 314 L300 297 Z"/>
            </clipPath>
            <clipPath clipPathUnits="userSpaceOnUse" id="clipPath55">
                <path d="M499 221 L512 221 L512 244 L499 244 L499 221 Z"/>
            </clipPath>
            <clipPath clipPathUnits="userSpaceOnUse" id="clipPath56">
                <path d="M92 312 L364 312 L364 424 L92 424 L92 312 Z"/>
            </clipPath>
            <clipPath clipPathUnits="userSpaceOnUse" id="clipPath57">
                <path d="M197 325 L210 325 L210 338 L197 338 L197 325 Z"/>
            </clipPath>
        </defs>
        <g font-size="11" fill="white" stroke-linejoin="round"
            stroke="white" stroke-width="0" stroke-miterlimit="0">
            <rect x="0" y="0" clip-path="url(#clipPath1)" width="1640"
                height="1148" stroke="none"/>
        </g>
        <g stroke-width="0.1" font-size="11" stroke-linecap="butt">
            <line clip-path="url(#clipPath1)" fill="none" x1="1"
                x2="137" y1="29" y2="29"/>
            <line clip-path="url(#clipPath1)" fill="none" x1="137"
                x2="144" y1="29" y2="15"/>
            <line clip-path="url(#clipPath1)" fill="none" x1="144"
                x2="144" y1="15" y2="1"/>
            <text x="6" y="18" clip-path="url(#clipPath2)" stroke="none"
                font-weight="bold" xml:space="preserve">package </text>
            <text font-size="13" x="66" y="19"
                clip-path="url(#clipPath3)" stroke="none" xml:space="preserve">realization</text>
            <rect x="27" y="181" clip-path="url(#clipPath4)"
                fill="rgb(237,247,200)" width="156" height="39" stroke="none"/>
        </g>
        <g font-size="13" stroke-linecap="butt" fill="rgb(106,88,75)"
            stroke="rgb(106,88,75)" font-weight="bold" stroke-width="0.1">
            <text xml:space="preserve" x="34" y="196"
                clip-path="url(#clipPath5)" stroke="none">OrbitDetermination</text>
            <line clip-path="url(#clipPath6)" fill="none" x1="29"
                x2="181" y1="198" y2="198"/>
            <line clip-path="url(#clipPath7)" fill="none" x1="29"
                x2="181" y1="208" y2="208"/>
            <rect x="27" y="181" clip-path="url(#clipPath4)" fill="none"
                width="155" height="38" stroke-width="1.1"/>
        </g>
        <g fill="rgb(237,247,200)" stroke-width="1.1" font-size="11"
            stroke-linecap="butt" stroke="rgb(237,247,200)">
            <rect x="204" y="182" clip-path="url(#clipPath8)"
                width="105" height="39" stroke="none"/>
        </g>
        <g font-size="13" stroke-linecap="butt" fill="rgb(106,88,75)"
            stroke="rgb(106,88,75)" font-weight="bold" stroke-width="1.1">
            <text xml:space="preserve" x="211" y="197"
                clip-path="url(#clipPath9)" stroke="none">Propagation</text>
            <line clip-path="url(#clipPath10)" fill="none" x1="206"
                x2="307" y1="199" y2="199" stroke-width="0.1"/>
            <line clip-path="url(#clipPath11)" fill="none" x1="206"
                x2="307" y1="209" y2="209" stroke-width="0.1"/>
            <rect x="204" y="182" clip-path="url(#clipPath8)"
                fill="none" width="104" height="38"/>
        </g>
        <g fill="rgb(244,242,212)" stroke-width="1.1" font-size="11"
            stroke-linecap="butt" stroke="rgb(244,242,212)">
            <rect x="143" y="61" clip-path="url(#clipPath12)"
                width="520" height="76" stroke="none"/>
            <text x="360" y="74" clip-path="url(#clipPath13)"
                fill="rgb(110,44,18)" stroke="none" xml:space="preserve">&lt;&lt;interface&gt;&gt;</text>
            <text x="338" y="89" clip-path="url(#clipPath14)"
                fill="rgb(110,44,18)" stroke="none" font-weight="bold" xml:space="preserve">ScenarioComponent</text>
            <text x="359" y="104" clip-path="url(#clipPath15)"
                fill="rgb(110,44,18)" stroke="none" xml:space="preserve">(from scenario)</text>
            <line clip-path="url(#clipPath16)" fill="none" x1="145"
                x2="661" y1="106" y2="106" stroke="rgb(110,44,18)" stroke-width="0.1"/>
        </g>
        <g stroke-width="0.1" font-size="13" stroke-linecap="butt">
            <text xml:space="preserve" x="146" y="132"
                clip-path="url(#clipPath17)" stroke="none">+</text>
            <text xml:space="preserve" x="159" y="132"
                clip-path="url(#clipPath18)" stroke="none">updateState</text>
            <text xml:space="preserve" x="241" y="132"
                clip-path="url(#clipPath19)" stroke="none">(original : ScenarioState, target : AbsoluteDate) : ScenarioState</text>
            <line clip-path="url(#clipPath20)" fill="none" x1="145"
                x2="661" y1="116" y2="116" stroke="rgb(110,44,18)"/>
        </g>
        <g fill="rgb(110,44,18)" stroke-width="1.1" font-size="11"
            stroke-linecap="butt" stroke="rgb(110,44,18)">
            <rect x="143" y="61" clip-path="url(#clipPath12)"
                fill="none" width="519" height="75"/>
            <rect x="330" y="183" clip-path="url(#clipPath21)"
                fill="rgb(237,247,200)" width="140" height="39" stroke="none"/>
        </g>
        <g font-size="13" stroke-linecap="butt" fill="rgb(106,88,75)"
            stroke="rgb(106,88,75)" font-weight="bold" stroke-width="1.1">
            <text xml:space="preserve" x="337" y="198"
                clip-path="url(#clipPath22)" stroke="none">ManeuverSplitter</text>
            <line clip-path="url(#clipPath23)" fill="none" x1="332"
                x2="468" y1="200" y2="200" stroke-width="0.1"/>
            <line clip-path="url(#clipPath24)" fill="none" x1="332"
                x2="468" y1="210" y2="210" stroke-width="0.1"/>
            <rect x="330" y="183" clip-path="url(#clipPath21)"
                fill="none" width="139" height="38"/>
        </g>
        <g fill="rgb(237,247,200)" stroke-width="1.1" font-size="11"
            stroke-linecap="butt" stroke="rgb(237,247,200)">
            <rect x="482" y="183" clip-path="url(#clipPath25)"
                width="203" height="39" stroke="none"/>
        </g>
        <g font-size="13" stroke-linecap="butt" fill="rgb(106,88,75)"
            stroke="rgb(106,88,75)" font-weight="bold" stroke-width="1.1">
            <text xml:space="preserve" x="489" y="198"
                clip-path="url(#clipPath26)" stroke="none">ManeuverRealizationError</text>
            <line clip-path="url(#clipPath27)" fill="none" x1="484"
                x2="683" y1="200" y2="200" stroke-width="0.1"/>
            <line clip-path="url(#clipPath28)" fill="none" x1="484"
                x2="683" y1="210" y2="210" stroke-width="0.1"/>
            <rect x="482" y="183" clip-path="url(#clipPath25)"
                fill="none" width="202" height="38"/>
        </g>
        <g fill="rgb(244,242,212)" stroke-width="1.1" font-size="11"
            stroke-linecap="butt" stroke="rgb(244,242,212)">
            <rect x="99" y="274" clip-path="url(#clipPath29)"
                width="196" height="52" stroke="none"/>
            <text x="154" y="287" clip-path="url(#clipPath30)"
                fill="rgb(110,44,18)" stroke="none" xml:space="preserve">&lt;&lt;interface&gt;&gt;</text>
            <text x="158" y="302" clip-path="url(#clipPath31)"
                fill="rgb(110,44,18)" stroke="none" font-weight="bold" xml:space="preserve">Monitorable</text>
            <line clip-path="url(#clipPath32)" fill="none" x1="101"
                x2="293" y1="304" y2="304" stroke="rgb(110,44,18)" stroke-width="0.1"/>
            <line clip-path="url(#clipPath33)" fill="none" x1="101"
                x2="293" y1="314" y2="314" stroke="rgb(110,44,18)" stroke-width="0.1"/>
            <rect x="99" y="274" clip-path="url(#clipPath29)"
                fill="none" width="195" height="51" stroke="rgb(110,44,18)"/>
            <rect x="349" y="361" clip-path="url(#clipPath34)"
                width="176" height="52" stroke="none"/>
            <text x="394" y="374" clip-path="url(#clipPath35)"
                fill="rgb(110,44,18)" stroke="none" xml:space="preserve">&lt;&lt;interface&gt;&gt;</text>
            <text x="412" y="389" clip-path="url(#clipPath36)"
                fill="rgb(110,44,18)" stroke="none" font-weight="bold" xml:space="preserve">Monitor</text>
            <line clip-path="url(#clipPath37)" fill="none" x1="351"
                x2="523" y1="391" y2="391" stroke="rgb(110,44,18)" stroke-width="0.1"/>
            <line clip-path="url(#clipPath38)" fill="none" x1="351"
                x2="523" y1="401" y2="401" stroke="rgb(110,44,18)" stroke-width="0.1"/>
            <rect x="349" y="361" clip-path="url(#clipPath34)"
                fill="none" width="175" height="51" stroke="rgb(110,44,18)"/>
            <rect x="0" y="0" clip-path="url(#clipPath1)" fill="none"
                width="1639" height="1147" stroke="black"/>
            <line clip-path="url(#clipPath39)" fill="none" x1="105"
                x2="105" y1="182" y2="169" stroke-dasharray="8,7" stroke="rgb(110,44,18)"/>
            <line clip-path="url(#clipPath39)" fill="none" x1="105"
                x2="403" y1="169" y2="169" stroke-dasharray="8,7" stroke="rgb(110,44,18)"/>
            <line clip-path="url(#clipPath39)" fill="none" x1="403"
                x2="403" y1="169" y2="136" stroke-dasharray="8,7" stroke="rgb(110,44,18)"/>
            <polygon fill="white" stroke-dasharray="8,7"
                clip-path="url(#clipPath40)"
                points=" 403 136 409 150 397 150" stroke="none"/>
            <polygon fill="none" clip-path="url(#clipPath40)"
                points=" 403 136 409 150 397 150" stroke="rgb(110,44,18)"/>
            <line clip-path="url(#clipPath41)" fill="none" x1="73"
                x2="73" y1="220" y2="299" stroke="rgb(153,15,15)"/>
            <line clip-path="url(#clipPath41)" fill="none" x1="73"
                x2="99" y1="299" y2="299" stroke="rgb(153,15,15)"/>
            <text font-size="13" x="88" y="295"
                clip-path="url(#clipPath42)" fill="rgb(153,15,15)"
                stroke="none" xml:space="preserve">*</text>
            <polygon fill="white" clip-path="url(#clipPath43)"
                points=" 73 220 78 230 73 240 68 230" stroke="none"/>
            <polygon fill="none" clip-path="url(#clipPath43)"
                points=" 73 220 78 230 73 240 68 230" stroke="rgb(153,15,15)"/>
            <line clip-path="url(#clipPath44)" fill="none" x1="256"
                x2="256" y1="183" y2="169" stroke-dasharray="8,7" stroke="rgb(110,44,18)"/>
            <line clip-path="url(#clipPath44)" fill="none" x1="256"
                x2="403" y1="169" y2="169" stroke-dasharray="8,7" stroke="rgb(110,44,18)"/>
            <line clip-path="url(#clipPath44)" fill="none" x1="403"
                x2="403" y1="169" y2="136" stroke-dasharray="8,7" stroke="rgb(110,44,18)"/>
            <polygon fill="white" stroke-dasharray="8,7"
                clip-path="url(#clipPath40)"
                points=" 403 136 409 150 397 150" stroke="none"/>
            <polygon fill="none" clip-path="url(#clipPath40)"
                points=" 403 136 409 150 397 150" stroke="rgb(110,44,18)"/>
            <line clip-path="url(#clipPath45)" fill="none" x1="226"
                x2="226" y1="221" y2="274" stroke="rgb(153,15,15)"/>
            <text font-size="13" x="215" y="270"
                clip-path="url(#clipPath46)" fill="rgb(153,15,15)"
                stroke="none" xml:space="preserve">*</text>
            <polygon fill="white" clip-path="url(#clipPath47)"
                points=" 226 221 231 231 226 241 221 231" stroke="none"/>
            <polygon fill="none" clip-path="url(#clipPath47)"
                points=" 226 221 231 231 226 241 221 231" stroke="rgb(153,15,15)"/>
            <line clip-path="url(#clipPath48)" fill="none" x1="400"
                x2="400" y1="184" y2="169" stroke-dasharray="8,7" stroke="rgb(110,44,18)"/>
            <line clip-path="url(#clipPath48)" fill="none" x1="400"
                x2="403" y1="169" y2="169" stroke-dasharray="8,7" stroke="rgb(110,44,18)"/>
            <line clip-path="url(#clipPath48)" fill="none" x1="403"
                x2="403" y1="169" y2="136" stroke-dasharray="8,7" stroke="rgb(110,44,18)"/>
            <polygon fill="white" stroke-dasharray="8,7"
                clip-path="url(#clipPath40)"
                points=" 403 136 409 150 397 150" stroke="none"/>
            <polygon fill="none" clip-path="url(#clipPath40)"
                points=" 403 136 409 150 397 150" stroke="rgb(110,44,18)"/>
            <line clip-path="url(#clipPath49)" fill="none" x1="583"
                x2="583" y1="184" y2="169" stroke-dasharray="8,7" stroke="rgb(110,44,18)"/>
            <line clip-path="url(#clipPath49)" fill="none" x1="583"
                x2="403" y1="169" y2="169" stroke-dasharray="8,7" stroke="rgb(110,44,18)"/>
            <line clip-path="url(#clipPath49)" fill="none" x1="403"
                x2="403" y1="169" y2="136" stroke-dasharray="8,7" stroke="rgb(110,44,18)"/>
            <polygon fill="white" stroke-dasharray="8,7"
                clip-path="url(#clipPath40)"
                points=" 403 136 409 150 397 150" stroke="none"/>
            <polygon fill="none" clip-path="url(#clipPath40)"
                points=" 403 136 409 150 397 150" stroke="rgb(110,44,18)"/>
            <line clip-path="url(#clipPath50)" fill="none" x1="358"
                x2="358" y1="222" y2="285" stroke="rgb(153,15,15)"/>
            <line clip-path="url(#clipPath50)" fill="none" x1="358"
                x2="295" y1="285" y2="285" stroke="rgb(153,15,15)"/>
            <text font-size="13" x="301" y="281"
                clip-path="url(#clipPath51)" fill="rgb(153,15,15)"
                stroke="none" xml:space="preserve">*</text>
            <polygon fill="white" clip-path="url(#clipPath52)"
                points=" 358 222 363 232 358 242 353 232" stroke="none"/>
            <polygon fill="none" clip-path="url(#clipPath52)"
                points=" 358 222 363 232 358 242 353 232" stroke="rgb(153,15,15)"/>
            <line clip-path="url(#clipPath53)" fill="none" x1="505"
                x2="505" y1="222" y2="317" stroke="rgb(153,15,15)"/>
            <line clip-path="url(#clipPath53)" fill="none" x1="505"
                x2="295" y1="317" y2="317" stroke="rgb(153,15,15)"/>
            <text font-size="13" x="301" y="311"
                clip-path="url(#clipPath54)" fill="rgb(153,15,15)"
                stroke="none" xml:space="preserve">*</text>
            <polygon fill="white" clip-path="url(#clipPath55)"
                points=" 505 222 510 232 505 242 500 232" stroke="none"/>
            <polygon fill="none" clip-path="url(#clipPath55)"
                points=" 505 222 510 232 505 242 500 232" stroke="rgb(153,15,15)"/>
            <line clip-path="url(#clipPath56)" fill="none" x1="349"
                x2="203" y1="385" y2="385" stroke="rgb(153,15,15)"/>
            <line clip-path="url(#clipPath56)" fill="none" x1="203"
                x2="203" y1="385" y2="326" stroke="rgb(153,15,15)"/>
            <line clip-path="url(#clipPath57)" fill="none" x1="208"
                x2="203" y1="336" y2="326" stroke="rgb(153,15,15)"/>
            <line clip-path="url(#clipPath57)" fill="none" x1="203"
                x2="198" y1="326" y2="336" stroke="rgb(153,15,15)"/>
        </g>
    </g>
</svg>
