<?xml version="1.0" encoding="UTF-8"?>
<svg stroke-dasharray="none" shape-rendering="auto"
    font-family="'Dialog'" width="1788" text-rendering="auto"
    fill-opacity="1" color-interpolation="auto" color-rendering="auto"
    font-size="12" fill="black" stroke="black" image-rendering="auto"
    stroke-miterlimit="10" stroke-linecap="square"
    stroke-linejoin="miter" font-style="normal" height="1149"
    stroke-width="1" stroke-dashoffset="0" font-weight="normal" stroke-opacity="1">
    <!--Generated by the Batik Graphics2D SVG Generator-->
    <defs id="genericDefs"/>
    <g>
        <defs id="defs1">
            <clipPath clipPathUnits="userSpaceOnUse" id="clipPath1">
                <path d="M-1 -1 L1641 -1 L1641 1149 L-1 1149 L-1 -1 Z"/>
            </clipPath>
            <clipPath clipPathUnits="userSpaceOnUse" id="clipPath2">
                <path d="M5 6 L65 6 L65 21 L5 21 L5 6 Z"/>
            </clipPath>
            <clipPath clipPathUnits="userSpaceOnUse" id="clipPath3">
                <path d="M65 5 L133 5 L133 22 L65 22 L65 5 Z"/>
            </clipPath>
            <clipPath clipPathUnits="userSpaceOnUse" id="clipPath4">
                <path d="M37 316 L195 316 L195 357 L37 357 L37 316 Z"/>
            </clipPath>
            <clipPath clipPathUnits="userSpaceOnUse" id="clipPath5">
                <path d="M44 318 L188 318 L188 335 L44 335 L44 318 Z"/>
            </clipPath>
            <clipPath clipPathUnits="userSpaceOnUse" id="clipPath6">
                <path d="M39 333 L193 333 L193 345 L39 345 L39 333 Z"/>
            </clipPath>
            <clipPath clipPathUnits="userSpaceOnUse" id="clipPath7">
                <path d="M39 343 L193 343 L193 355 L39 355 L39 343 Z"/>
            </clipPath>
            <clipPath clipPathUnits="userSpaceOnUse" id="clipPath8">
                <path d="M194 372 L301 372 L301 413 L194 413 L194 372 Z"/>
            </clipPath>
            <clipPath clipPathUnits="userSpaceOnUse" id="clipPath9">
                <path d="M201 374 L294 374 L294 391 L201 391 L201 374 Z"/>
            </clipPath>
            <clipPath clipPathUnits="userSpaceOnUse" id="clipPath10">
                <path d="M196 389 L299 389 L299 401 L196 401 L196 389 Z"/>
            </clipPath>
            <clipPath clipPathUnits="userSpaceOnUse" id="clipPath11">
                <path d="M196 399 L299 399 L299 411 L196 411 L196 399 Z"/>
            </clipPath>
            <clipPath clipPathUnits="userSpaceOnUse" id="clipPath12">
                <path d="M120 176 L656 176 L656 254 L120 254 L120 176 Z"/>
            </clipPath>
            <clipPath clipPathUnits="userSpaceOnUse" id="clipPath13">
                <path d="M344 178 L432 178 L432 193 L344 193 L344 178 Z"/>
            </clipPath>
            <clipPath clipPathUnits="userSpaceOnUse" id="clipPath14">
                <path d="M322 193 L453 193 L453 208 L322 208 L322 193 Z"/>
            </clipPath>
            <clipPath clipPathUnits="userSpaceOnUse" id="clipPath15">
                <path d="M343 208 L433 208 L433 223 L343 223 L343 208 Z"/>
            </clipPath>
            <clipPath clipPathUnits="userSpaceOnUse" id="clipPath16">
                <path d="M122 221 L654 221 L654 233 L122 233 L122 221 Z"/>
            </clipPath>
            <clipPath clipPathUnits="userSpaceOnUse" id="clipPath17">
                <path d="M123 234 L136 234 L136 251 L123 251 L123 234 Z"/>
            </clipPath>
            <clipPath clipPathUnits="userSpaceOnUse" id="clipPath18">
                <path d="M136 234 L225 234 L225 251 L136 251 L136 234 Z"/>
            </clipPath>
            <clipPath clipPathUnits="userSpaceOnUse" id="clipPath19">
                <path d="M225 234 L642 234 L642 251 L225 251 L225 234 Z"/>
            </clipPath>
            <clipPath clipPathUnits="userSpaceOnUse" id="clipPath20">
                <path d="M122 231 L654 231 L654 252 L122 252 L122 231 Z"/>
            </clipPath>
            <clipPath clipPathUnits="userSpaceOnUse" id="clipPath21">
                <path d="M299 312 L441 312 L441 353 L299 353 L299 312 Z"/>
            </clipPath>
            <clipPath clipPathUnits="userSpaceOnUse" id="clipPath22">
                <path d="M306 314 L434 314 L434 331 L306 331 L306 314 Z"/>
            </clipPath>
            <clipPath clipPathUnits="userSpaceOnUse" id="clipPath23">
                <path d="M301 329 L439 329 L439 341 L301 341 L301 329 Z"/>
            </clipPath>
            <clipPath clipPathUnits="userSpaceOnUse" id="clipPath24">
                <path d="M301 339 L439 339 L439 351 L301 351 L301 339 Z"/>
            </clipPath>
            <clipPath clipPathUnits="userSpaceOnUse" id="clipPath25">
                <path d="M402 364 L605 364 L605 405 L402 405 L402 364 Z"/>
            </clipPath>
            <clipPath clipPathUnits="userSpaceOnUse" id="clipPath26">
                <path d="M409 366 L598 366 L598 383 L409 383 L409 366 Z"/>
            </clipPath>
            <clipPath clipPathUnits="userSpaceOnUse" id="clipPath27">
                <path d="M404 381 L603 381 L603 393 L404 393 L404 381 Z"/>
            </clipPath>
            <clipPath clipPathUnits="userSpaceOnUse" id="clipPath28">
                <path d="M404 391 L603 391 L603 403 L404 403 L404 391 Z"/>
            </clipPath>
            <clipPath clipPathUnits="userSpaceOnUse" id="clipPath29">
                <path d="M118 464 L321 464 L321 593 L118 593 L118 464 Z"/>
            </clipPath>
            <clipPath clipPathUnits="userSpaceOnUse" id="clipPath30">
                <path d="M175 466 L263 466 L263 481 L175 481 L175 466 Z"/>
            </clipPath>
            <clipPath clipPathUnits="userSpaceOnUse" id="clipPath31">
                <path d="M180 481 L259 481 L259 496 L180 496 L180 481 Z"/>
            </clipPath>
            <clipPath clipPathUnits="userSpaceOnUse" id="clipPath32">
                <path d="M187 496 L252 496 L252 511 L187 511 L187 496 Z"/>
            </clipPath>
            <clipPath clipPathUnits="userSpaceOnUse" id="clipPath33">
                <path d="M120 509 L319 509 L319 521 L120 521 L120 509 Z"/>
            </clipPath>
            <clipPath clipPathUnits="userSpaceOnUse" id="clipPath34">
                <path d="M121 522 L134 522 L134 539 L121 539 L121 522 Z"/>
            </clipPath>
            <clipPath clipPathUnits="userSpaceOnUse" id="clipPath35">
                <path d="M134 522 L185 522 L185 539 L134 539 L134 522 Z"/>
            </clipPath>
            <clipPath clipPathUnits="userSpaceOnUse" id="clipPath36">
                <path d="M185 522 L307 522 L307 539 L185 539 L185 522 Z"/>
            </clipPath>
            <clipPath clipPathUnits="userSpaceOnUse" id="clipPath37">
                <path d="M121 539 L134 539 L134 556 L121 556 L121 539 Z"/>
            </clipPath>
            <clipPath clipPathUnits="userSpaceOnUse" id="clipPath38">
                <path d="M134 539 L196 539 L196 556 L134 556 L134 539 Z"/>
            </clipPath>
            <clipPath clipPathUnits="userSpaceOnUse" id="clipPath39">
                <path d="M196 539 L258 539 L258 556 L196 556 L196 539 Z"/>
            </clipPath>
            <clipPath clipPathUnits="userSpaceOnUse" id="clipPath40">
                <path d="M121 556 L134 556 L134 573 L121 573 L121 556 Z"/>
            </clipPath>
            <clipPath clipPathUnits="userSpaceOnUse" id="clipPath41">
                <path d="M134 556 L188 556 L188 573 L134 573 L134 556 Z"/>
            </clipPath>
            <clipPath clipPathUnits="userSpaceOnUse" id="clipPath42">
                <path d="M188 556 L299 556 L299 573 L188 573 L188 556 Z"/>
            </clipPath>
            <clipPath clipPathUnits="userSpaceOnUse" id="clipPath43">
                <path d="M121 573 L134 573 L134 590 L121 590 L121 573 Z"/>
            </clipPath>
            <clipPath clipPathUnits="userSpaceOnUse" id="clipPath44">
                <path d="M134 573 L192 573 L192 590 L134 590 L134 573 Z"/>
            </clipPath>
            <clipPath clipPathUnits="userSpaceOnUse" id="clipPath45">
                <path d="M192 573 L292 573 L292 590 L192 590 L192 573 Z"/>
            </clipPath>
            <clipPath clipPathUnits="userSpaceOnUse" id="clipPath46">
                <path d="M120 519 L319 519 L319 591 L120 591 L120 519 Z"/>
            </clipPath>
            <clipPath clipPathUnits="userSpaceOnUse" id="clipPath47">
                <path d="M456 469 L755 469 L755 581 L456 581 L456 469 Z"/>
            </clipPath>
            <clipPath clipPathUnits="userSpaceOnUse" id="clipPath48">
                <path d="M561 471 L649 471 L649 486 L561 486 L561 471 Z"/>
            </clipPath>
            <clipPath clipPathUnits="userSpaceOnUse" id="clipPath49">
                <path d="M580 486 L631 486 L631 501 L580 501 L580 486 Z"/>
            </clipPath>
            <clipPath clipPathUnits="userSpaceOnUse" id="clipPath50">
                <path d="M573 501 L638 501 L638 516 L573 516 L573 501 Z"/>
            </clipPath>
            <clipPath clipPathUnits="userSpaceOnUse" id="clipPath51">
                <path d="M458 514 L753 514 L753 526 L458 526 L458 514 Z"/>
            </clipPath>
            <clipPath clipPathUnits="userSpaceOnUse" id="clipPath52">
                <path d="M459 527 L472 527 L472 544 L459 544 L459 527 Z"/>
            </clipPath>
            <clipPath clipPathUnits="userSpaceOnUse" id="clipPath53">
                <path d="M472 527 L571 527 L571 544 L472 544 L472 527 Z"/>
            </clipPath>
            <clipPath clipPathUnits="userSpaceOnUse" id="clipPath54">
                <path d="M571 527 L747 527 L747 544 L571 544 L571 527 Z"/>
            </clipPath>
            <clipPath clipPathUnits="userSpaceOnUse" id="clipPath55">
                <path d="M459 544 L472 544 L472 561 L459 561 L459 544 Z"/>
            </clipPath>
            <clipPath clipPathUnits="userSpaceOnUse" id="clipPath56">
                <path d="M472 544 L565 544 L565 561 L472 561 L472 544 Z"/>
            </clipPath>
            <clipPath clipPathUnits="userSpaceOnUse" id="clipPath57">
                <path d="M565 544 L741 544 L741 561 L565 561 L565 544 Z"/>
            </clipPath>
            <clipPath clipPathUnits="userSpaceOnUse" id="clipPath58">
                <path d="M459 561 L472 561 L472 578 L459 578 L459 561 Z"/>
            </clipPath>
            <clipPath clipPathUnits="userSpaceOnUse" id="clipPath59">
                <path d="M472 561 L569 561 L569 578 L472 578 L472 561 Z"/>
            </clipPath>
            <clipPath clipPathUnits="userSpaceOnUse" id="clipPath60">
                <path d="M569 561 L581 561 L581 578 L569 578 L569 561 Z"/>
            </clipPath>
            <clipPath clipPathUnits="userSpaceOnUse" id="clipPath61">
                <path d="M458 524 L753 524 L753 579 L458 579 L458 524 Z"/>
            </clipPath>
            <clipPath clipPathUnits="userSpaceOnUse" id="clipPath62">
                <path d="M613 77 L764 77 L764 152 L613 152 L613 77 Z"/>
            </clipPath>
            <clipPath clipPathUnits="userSpaceOnUse" id="clipPath63">
                <path d="M637 79 L740 79 L740 96 L637 96 L637 79 Z"/>
            </clipPath>
            <clipPath clipPathUnits="userSpaceOnUse" id="clipPath64">
                <path d="M620 96 L757 96 L757 113 L620 113 L620 96 Z"/>
            </clipPath>
            <clipPath clipPathUnits="userSpaceOnUse" id="clipPath65">
                <path d="M640 113 L736 113 L736 130 L640 130 L640 113 Z"/>
            </clipPath>
            <clipPath clipPathUnits="userSpaceOnUse" id="clipPath66">
                <path d="M615 128 L762 128 L762 140 L615 140 L615 128 Z"/>
            </clipPath>
            <clipPath clipPathUnits="userSpaceOnUse" id="clipPath67">
                <path d="M615 138 L762 138 L762 150 L615 150 L615 138 Z"/>
            </clipPath>
            <clipPath clipPathUnits="userSpaceOnUse" id="clipPath68">
                <path d="M31 79 L307 79 L307 154 L31 154 L31 79 Z"/>
            </clipPath>
            <clipPath clipPathUnits="userSpaceOnUse" id="clipPath69">
                <path d="M117 81 L220 81 L220 98 L117 98 L117 81 Z"/>
            </clipPath>
            <clipPath clipPathUnits="userSpaceOnUse" id="clipPath70">
                <path d="M38 98 L300 98 L300 115 L38 115 L38 98 Z"/>
            </clipPath>
            <clipPath clipPathUnits="userSpaceOnUse" id="clipPath71">
                <path d="M121 115 L217 115 L217 132 L121 132 L121 115 Z"/>
            </clipPath>
            <clipPath clipPathUnits="userSpaceOnUse" id="clipPath72">
                <path d="M33 130 L305 130 L305 142 L33 142 L33 130 Z"/>
            </clipPath>
            <clipPath clipPathUnits="userSpaceOnUse" id="clipPath73">
                <path d="M33 140 L305 140 L305 152 L33 152 L33 140 Z"/>
            </clipPath>
            <clipPath clipPathUnits="userSpaceOnUse" id="clipPath74">
                <path d="M532 315 L691 315 L691 356 L532 356 L532 315 Z"/>
            </clipPath>
            <clipPath clipPathUnits="userSpaceOnUse" id="clipPath75">
                <path d="M539 317 L684 317 L684 334 L539 334 L539 317 Z"/>
            </clipPath>
            <clipPath clipPathUnits="userSpaceOnUse" id="clipPath76">
                <path d="M534 332 L689 332 L689 344 L534 344 L534 332 Z"/>
            </clipPath>
            <clipPath clipPathUnits="userSpaceOnUse" id="clipPath77">
                <path d="M534 342 L689 342 L689 354 L534 354 L534 342 Z"/>
            </clipPath>
            <clipPath clipPathUnits="userSpaceOnUse" id="clipPath78">
                <path d="M399 39 L553 39 L553 99 L399 99 L399 39 Z"/>
            </clipPath>
            <clipPath clipPathUnits="userSpaceOnUse" id="clipPath79">
                <path d="M402 49 L536 49 L536 96 L402 96 L402 49 Z"/>
            </clipPath>
            <clipPath clipPathUnits="userSpaceOnUse" id="clipPath80">
                <path d="M102 238 L409 238 L409 333 L102 333 L102 238 Z"/>
            </clipPath>
            <clipPath clipPathUnits="userSpaceOnUse" id="clipPath81">
                <path d="M381 251 L396 251 L396 268 L381 268 L381 251 Z"/>
            </clipPath>
            <clipPath clipPathUnits="userSpaceOnUse" id="clipPath82">
                <path d="M-1 139 L330 139 L330 332 L-1 332 L-1 139 Z"/>
            </clipPath>
            <clipPath clipPathUnits="userSpaceOnUse" id="clipPath83">
                <path d="M52 162 L62 162 L62 179 L52 179 L52 162 Z"/>
            </clipPath>
            <clipPath clipPathUnits="userSpaceOnUse" id="clipPath84">
                <path d="M65 296 L78 296 L78 319 L65 319 L65 296 Z"/>
            </clipPath>
            <clipPath clipPathUnits="userSpaceOnUse" id="clipPath85">
                <path d="M233 238 L409 238 L409 389 L233 389 L233 238 Z"/>
            </clipPath>
            <clipPath clipPathUnits="userSpaceOnUse" id="clipPath86">
                <path d="M171 398 L420 398 L420 483 L171 483 L171 398 Z"/>
            </clipPath>
            <clipPath clipPathUnits="userSpaceOnUse" id="clipPath87">
                <path d="M223 447 L232 447 L232 464 L223 464 L223 447 Z"/>
            </clipPath>
            <clipPath clipPathUnits="userSpaceOnUse" id="clipPath88">
                <path d="M229 411 L242 411 L242 434 L229 434 L229 411 Z"/>
            </clipPath>
            <clipPath clipPathUnits="userSpaceOnUse" id="clipPath89">
                <path d="M356 238 L409 238 L409 329 L356 329 L356 238 Z"/>
            </clipPath>
            <clipPath clipPathUnits="userSpaceOnUse" id="clipPath90">
                <path d="M368 238 L518 238 L518 381 L368 381 L368 238 Z"/>
            </clipPath>
            <clipPath clipPathUnits="userSpaceOnUse" id="clipPath91">
                <path d="M368 238 L626 238 L626 332 L368 332 L368 238 Z"/>
            </clipPath>
            <clipPath clipPathUnits="userSpaceOnUse" id="clipPath92">
                <path d="M550 137 L982 137 L982 462 L550 462 L550 137 Z"/>
            </clipPath>
            <clipPath clipPathUnits="userSpaceOnUse" id="clipPath93">
                <path d="M728 160 L738 160 L738 177 L728 177 L728 160 Z"/>
            </clipPath>
            <clipPath clipPathUnits="userSpaceOnUse" id="clipPath94">
                <path d="M603 380 L626 380 L626 393 L603 393 L603 380 Z"/>
            </clipPath>
            <clipPath clipPathUnits="userSpaceOnUse" id="clipPath95">
                <path d="M278 488 L500 488 L500 580 L278 580 L278 488 Z"/>
            </clipPath>
            <clipPath clipPathUnits="userSpaceOnUse" id="clipPath96">
                <path d="M378 536 L448 536 L448 553 L378 553 L378 536 Z"/>
            </clipPath>
            <clipPath clipPathUnits="userSpaceOnUse" id="clipPath97">
                <path d="M439 501 L448 501 L448 518 L439 518 L439 501 Z"/>
            </clipPath>
            <clipPath clipPathUnits="userSpaceOnUse" id="clipPath98">
                <path d="M319 521 L342 521 L342 534 L319 534 L319 521 Z"/>
            </clipPath>
            <clipPath clipPathUnits="userSpaceOnUse" id="clipPath99">
                <path d="M243 99 L677 99 L677 177 L243 177 L243 99 Z"/>
            </clipPath>
            <clipPath clipPathUnits="userSpaceOnUse" id="clipPath100">
                <path d="M595 112 L605 112 L605 129 L595 129 L595 112 Z"/>
            </clipPath>
            <clipPath clipPathUnits="userSpaceOnUse" id="clipPath101">
                <path d="M305 132 L328 132 L328 145 L305 145 L305 132 Z"/>
            </clipPath>
            <clipPath clipPathUnits="userSpaceOnUse" id="clipPath102">
                <path d="M504 137 L841 137 L841 331 L504 331 L504 137 Z"/>
            </clipPath>
            <clipPath clipPathUnits="userSpaceOnUse" id="clipPath103">
                <path d="M653 160 L663 160 L663 177 L653 177 L653 160 Z"/>
            </clipPath>
            <clipPath clipPathUnits="userSpaceOnUse" id="clipPath104">
                <path d="M666 295 L679 295 L679 318 L666 318 L666 295 Z"/>
            </clipPath>
            <clipPath clipPathUnits="userSpaceOnUse" id="clipPath105">
                <path d="M538 71 L629 71 L629 113 L538 113 L538 71 Z"/>
            </clipPath>
        </defs>
        <g font-size="11" fill="white" stroke-linejoin="round"
            stroke="white" stroke-width="0" stroke-miterlimit="0">
            <rect x="0" y="0" clip-path="url(#clipPath1)" width="1640"
                height="1148" stroke="none"/>
        </g>
        <g stroke-width="0.1" font-size="11" stroke-linecap="butt">
            <line clip-path="url(#clipPath1)" fill="none" x1="1"
                x2="137" y1="29" y2="29"/>
            <line clip-path="url(#clipPath1)" fill="none" x1="137"
                x2="144" y1="29" y2="15"/>
            <line clip-path="url(#clipPath1)" fill="none" x1="144"
                x2="144" y1="15" y2="1"/>
            <text x="6" y="18" clip-path="url(#clipPath2)" stroke="none"
                font-weight="bold" xml:space="preserve">package </text>
            <text font-size="13" x="66" y="19"
                clip-path="url(#clipPath3)" stroke="none" xml:space="preserve">realization</text>
            <rect x="38" y="317" clip-path="url(#clipPath4)"
                fill="rgb(237,247,200)" width="156" height="39" stroke="none"/>
        </g>
        <g font-size="13" stroke-linecap="butt" fill="rgb(106,88,75)"
            stroke="rgb(106,88,75)" font-weight="bold" stroke-width="0.1">
            <text xml:space="preserve" x="45" y="332"
                clip-path="url(#clipPath5)" stroke="none">OrbitDetermination</text>
            <line clip-path="url(#clipPath6)" fill="none" x1="40"
                x2="192" y1="334" y2="334"/>
            <line clip-path="url(#clipPath7)" fill="none" x1="40"
                x2="192" y1="344" y2="344"/>
            <rect x="38" y="317" clip-path="url(#clipPath4)" fill="none"
                width="155" height="38" stroke-width="1.1"/>
        </g>
        <g fill="rgb(237,247,200)" stroke-width="1.1" font-size="11"
            stroke-linecap="butt" stroke="rgb(237,247,200)">
            <rect x="195" y="373" clip-path="url(#clipPath8)"
                width="105" height="39" stroke="none"/>
        </g>
        <g font-size="13" stroke-linecap="butt" fill="rgb(106,88,75)"
            stroke="rgb(106,88,75)" font-weight="bold" stroke-width="1.1">
            <text xml:space="preserve" x="202" y="388"
                clip-path="url(#clipPath9)" stroke="none">Propagation</text>
            <line clip-path="url(#clipPath10)" fill="none" x1="197"
                x2="298" y1="390" y2="390" stroke-width="0.1"/>
            <line clip-path="url(#clipPath11)" fill="none" x1="197"
                x2="298" y1="400" y2="400" stroke-width="0.1"/>
            <rect x="195" y="373" clip-path="url(#clipPath8)"
                fill="none" width="104" height="38"/>
        </g>
        <g fill="rgb(244,242,212)" stroke-width="1.1" font-size="11"
            stroke-linecap="butt" stroke="rgb(244,242,212)">
            <rect x="121" y="177" clip-path="url(#clipPath12)"
                width="534" height="76" stroke="none"/>
            <text x="345" y="190" clip-path="url(#clipPath13)"
                fill="rgb(110,44,18)" stroke="none" xml:space="preserve">&lt;&lt;interface&gt;&gt;</text>
            <text x="323" y="205" clip-path="url(#clipPath14)"
                fill="rgb(110,44,18)" stroke="none" font-weight="bold" xml:space="preserve">ScenarioComponent</text>
            <text x="344" y="220" clip-path="url(#clipPath15)"
                fill="rgb(110,44,18)" stroke="none" xml:space="preserve">(from scenario)</text>
            <line clip-path="url(#clipPath16)" fill="none" x1="123"
                x2="653" y1="222" y2="222" stroke="rgb(110,44,18)" stroke-width="0.1"/>
        </g>
        <g stroke-width="0.1" font-size="13" stroke-linecap="butt">
            <text xml:space="preserve" x="124" y="248"
                clip-path="url(#clipPath17)" stroke="none">+</text>
            <text xml:space="preserve" x="137" y="248"
                clip-path="url(#clipPath18)" stroke="none">updateStates</text>
            <text xml:space="preserve" x="226" y="248"
                clip-path="url(#clipPath19)" stroke="none">(originals : ScenarioState, target : AbsoluteDate) : ScenarioState</text>
            <line clip-path="url(#clipPath20)" fill="none" x1="123"
                x2="653" y1="232" y2="232" stroke="rgb(110,44,18)"/>
        </g>
        <g fill="rgb(110,44,18)" stroke-width="1.1" font-size="11"
            stroke-linecap="butt" stroke="rgb(110,44,18)">
            <rect x="121" y="177" clip-path="url(#clipPath12)"
                fill="none" width="533" height="75"/>
            <rect x="300" y="313" clip-path="url(#clipPath21)"
                fill="rgb(237,247,200)" width="140" height="39" stroke="none"/>
        </g>
        <g font-size="13" stroke-linecap="butt" fill="rgb(106,88,75)"
            stroke="rgb(106,88,75)" font-weight="bold" stroke-width="1.1">
            <text xml:space="preserve" x="307" y="328"
                clip-path="url(#clipPath22)" stroke="none">ManeuverSplitter</text>
            <line clip-path="url(#clipPath23)" fill="none" x1="302"
                x2="438" y1="330" y2="330" stroke-width="0.1"/>
            <line clip-path="url(#clipPath24)" fill="none" x1="302"
                x2="438" y1="340" y2="340" stroke-width="0.1"/>
            <rect x="300" y="313" clip-path="url(#clipPath21)"
                fill="none" width="139" height="38"/>
        </g>
        <g fill="rgb(237,247,200)" stroke-width="1.1" font-size="11"
            stroke-linecap="butt" stroke="rgb(237,247,200)">
            <rect x="403" y="365" clip-path="url(#clipPath25)"
                width="201" height="39" stroke="none"/>
        </g>
        <g font-size="13" stroke-linecap="butt" fill="rgb(106,88,75)"
            stroke="rgb(106,88,75)" font-weight="bold" stroke-width="1.1">
            <text xml:space="preserve" x="410" y="380"
                clip-path="url(#clipPath26)" stroke="none">ManeuverMagnitudeError</text>
            <line clip-path="url(#clipPath27)" fill="none" x1="405"
                x2="602" y1="382" y2="382" stroke-width="0.1"/>
            <line clip-path="url(#clipPath28)" fill="none" x1="405"
                x2="602" y1="392" y2="392" stroke-width="0.1"/>
            <rect x="403" y="365" clip-path="url(#clipPath25)"
                fill="none" width="200" height="38"/>
        </g>
        <g fill="rgb(244,242,212)" stroke-width="1.1" font-size="11"
            stroke-linecap="butt" stroke="rgb(244,242,212)">
            <rect x="119" y="465" clip-path="url(#clipPath29)"
                width="201" height="127" stroke="none"/>
            <text x="176" y="478" clip-path="url(#clipPath30)"
                fill="rgb(110,44,18)" stroke="none" xml:space="preserve">&lt;&lt;interface&gt;&gt;</text>
            <text x="181" y="493" clip-path="url(#clipPath31)"
                fill="rgb(110,44,18)" stroke="none" font-weight="bold" xml:space="preserve">Monitorable</text>
            <text x="188" y="508" clip-path="url(#clipPath32)"
                fill="rgb(110,44,18)" stroke="none" xml:space="preserve">(from utils)</text>
            <line clip-path="url(#clipPath33)" fill="none" x1="121"
                x2="318" y1="510" y2="510" stroke="rgb(110,44,18)" stroke-width="0.1"/>
        </g>
        <g stroke-width="0.1" font-size="13" stroke-linecap="butt">
            <text xml:space="preserve" x="122" y="536"
                clip-path="url(#clipPath34)" stroke="none">+</text>
            <text xml:space="preserve" x="135" y="536"
                clip-path="url(#clipPath35)" stroke="none">register</text>
            <text xml:space="preserve" x="186" y="536"
                clip-path="url(#clipPath36)" stroke="none">(monitor : Monitor)</text>
            <text xml:space="preserve" x="122" y="553"
                clip-path="url(#clipPath37)" stroke="none">+</text>
            <text xml:space="preserve" x="135" y="553"
                clip-path="url(#clipPath38)" stroke="none">getName</text>
            <text xml:space="preserve" x="197" y="553"
                clip-path="url(#clipPath39)" stroke="none">() : String</text>
            <text xml:space="preserve" x="122" y="570"
                clip-path="url(#clipPath40)" stroke="none">+</text>
            <text xml:space="preserve" x="135" y="570"
                clip-path="url(#clipPath41)" stroke="none">getDate</text>
            <text xml:space="preserve" x="189" y="570"
                clip-path="url(#clipPath42)" stroke="none">() : AbsoluteDate</text>
            <text xml:space="preserve" x="122" y="587"
                clip-path="url(#clipPath43)" stroke="none">+</text>
            <text xml:space="preserve" x="135" y="587"
                clip-path="url(#clipPath44)" stroke="none">getValue</text>
            <text xml:space="preserve" x="193" y="587"
                clip-path="url(#clipPath45)" stroke="none">() : double[1..*]</text>
            <line clip-path="url(#clipPath46)" fill="none" x1="121"
                x2="318" y1="520" y2="520" stroke="rgb(110,44,18)"/>
        </g>
        <g fill="rgb(110,44,18)" stroke-width="1.1" font-size="11"
            stroke-linecap="butt" stroke="rgb(110,44,18)">
            <rect x="119" y="465" clip-path="url(#clipPath29)"
                fill="none" width="200" height="126"/>
            <rect x="457" y="470" clip-path="url(#clipPath47)"
                fill="rgb(244,242,212)" width="297" height="110" stroke="none"/>
            <text xml:space="preserve" x="562" y="483"
                clip-path="url(#clipPath48)" stroke="none">&lt;&lt;interface&gt;&gt;</text>
            <text x="581" y="498" clip-path="url(#clipPath49)"
                stroke="none" font-weight="bold" xml:space="preserve">Monitor</text>
            <text xml:space="preserve" x="574" y="513"
                clip-path="url(#clipPath50)" stroke="none">(from utils)</text>
            <line clip-path="url(#clipPath51)" fill="none" x1="459"
                x2="752" y1="515" y2="515" stroke-width="0.1"/>
        </g>
        <g stroke-width="0.1" font-size="13" stroke-linecap="butt">
            <text xml:space="preserve" x="460" y="541"
                clip-path="url(#clipPath52)" stroke="none">+</text>
            <text xml:space="preserve" x="473" y="541"
                clip-path="url(#clipPath53)" stroke="none">startMonitoring</text>
            <text xml:space="preserve" x="572" y="541"
                clip-path="url(#clipPath54)" stroke="none">(monitorable : Monitorable)</text>
            <text xml:space="preserve" x="460" y="558"
                clip-path="url(#clipPath55)" stroke="none">+</text>
            <text xml:space="preserve" x="473" y="558"
                clip-path="url(#clipPath56)" stroke="none">valueChanged</text>
            <text xml:space="preserve" x="566" y="558"
                clip-path="url(#clipPath57)" stroke="none">(monitorable : Monitorable)</text>
            <text xml:space="preserve" x="460" y="575"
                clip-path="url(#clipPath58)" stroke="none">+</text>
            <text xml:space="preserve" x="473" y="575"
                clip-path="url(#clipPath59)" stroke="none">stopMonitoring</text>
            <text xml:space="preserve" x="570" y="575"
                clip-path="url(#clipPath60)" stroke="none">()</text>
            <line clip-path="url(#clipPath61)" fill="none" x1="459"
                x2="752" y1="525" y2="525" stroke="rgb(110,44,18)"/>
        </g>
        <g fill="rgb(110,44,18)" stroke-width="1.1" font-size="11"
            stroke-linecap="butt" stroke="rgb(110,44,18)">
            <rect x="457" y="470" clip-path="url(#clipPath47)"
                fill="none" width="296" height="109"/>
            <rect x="614" y="78" clip-path="url(#clipPath62)"
                fill="rgb(243,232,255)" width="149" height="73" stroke="none"/>
            <text font-size="13" x="638" y="93"
                clip-path="url(#clipPath63)" fill="rgb(41,0,141)"
                stroke="none" xml:space="preserve">&lt;&lt;dataType&gt;&gt;</text>
        </g>
        <g font-size="13" stroke-linecap="butt" fill="rgb(41,0,141)"
            stroke="rgb(41,0,141)" stroke-width="1.1">
            <text xml:space="preserve" x="621" y="110"
                clip-path="url(#clipPath64)" font-weight="bold" stroke="none">RandomGenerator</text>
            <text x="641" y="127" clip-path="url(#clipPath65)"
                stroke="none" xml:space="preserve">(from random)</text>
            <line clip-path="url(#clipPath66)" fill="none" x1="616"
                x2="761" y1="129" y2="129" stroke-width="0.1"/>
            <line clip-path="url(#clipPath67)" fill="none" x1="616"
                x2="761" y1="139" y2="139" stroke-width="0.1"/>
            <rect x="614" y="78" clip-path="url(#clipPath62)"
                fill="none" width="148" height="72"/>
        </g>
        <g fill="rgb(243,232,255)" stroke-width="1.1" font-size="11"
            stroke-linecap="butt" stroke="rgb(243,232,255)">
            <rect x="32" y="80" clip-path="url(#clipPath68)" width="274"
                height="73" stroke="none"/>
            <text font-size="13" x="118" y="95"
                clip-path="url(#clipPath69)" fill="rgb(41,0,141)"
                stroke="none" xml:space="preserve">&lt;&lt;dataType&gt;&gt;</text>
        </g>
        <g font-size="13" stroke-linecap="butt" fill="rgb(41,0,141)"
            stroke="rgb(41,0,141)" stroke-width="1.1">
            <text xml:space="preserve" x="39" y="112"
                clip-path="url(#clipPath70)" font-weight="bold" stroke="none">CorrelatedRandomVectorGenerator</text>
            <text x="122" y="129" clip-path="url(#clipPath71)"
                stroke="none" xml:space="preserve">(from random)</text>
            <line clip-path="url(#clipPath72)" fill="none" x1="34"
                x2="304" y1="131" y2="131" stroke-width="0.1"/>
            <line clip-path="url(#clipPath73)" fill="none" x1="34"
                x2="304" y1="141" y2="141" stroke-width="0.1"/>
            <rect x="32" y="80" clip-path="url(#clipPath68)" fill="none"
                width="273" height="72"/>
        </g>
        <g fill="rgb(237,247,200)" stroke-width="1.1" font-size="11"
            stroke-linecap="butt" stroke="rgb(237,247,200)">
            <rect x="533" y="316" clip-path="url(#clipPath74)"
                width="157" height="39" stroke="none"/>
        </g>
        <g font-size="13" stroke-linecap="butt" fill="rgb(106,88,75)"
            stroke="rgb(106,88,75)" font-weight="bold" stroke-width="1.1">
            <text xml:space="preserve" x="540" y="331"
                clip-path="url(#clipPath75)" stroke="none">ManeuverDateError</text>
            <line clip-path="url(#clipPath76)" fill="none" x1="535"
                x2="688" y1="333" y2="333" stroke-width="0.1"/>
            <line clip-path="url(#clipPath77)" fill="none" x1="535"
                x2="688" y1="343" y2="343" stroke-width="0.1"/>
            <rect x="533" y="316" clip-path="url(#clipPath74)"
                fill="none" width="156" height="38"/>
            <polygon fill="rgb(243,239,235)"
                clip-path="url(#clipPath78)"
                points=" 400 40 542 40 551 50 551 97 400 97" stroke="none"/>
        </g>
        <g fill="rgb(105,22,22)" stroke-width="0.1" font-size="13"
            stroke-linecap="butt" stroke="rgb(105,22,22)">
            <polygon fill="none" clip-path="url(#clipPath78)" points=" 541 40 541 50 551 50 541 40 400 40 400 97 551 97 551 50"/>
            <text xml:space="preserve" x="403" y="63"
                clip-path="url(#clipPath79)" stroke="none">a single instance of</text>
            <text xml:space="preserve" x="403" y="78"
                clip-path="url(#clipPath79)" stroke="none">RandomGenerator is</text>
            <text xml:space="preserve" x="403" y="93"
                clip-path="url(#clipPath79)" stroke="none">shared by all objects</text>
        </g>
        <g stroke-width="1.1" font-size="11" stroke-linecap="butt">
            <rect x="0" y="0" clip-path="url(#clipPath1)" fill="none"
                width="1639" height="1147"/>
            <line clip-path="url(#clipPath80)" fill="none" x1="116"
                x2="116" y1="318" y2="285" stroke-dasharray="8,7" stroke="rgb(110,44,18)"/>
            <line clip-path="url(#clipPath80)" fill="none" x1="116"
                x2="388" y1="285" y2="285" stroke-dasharray="8,7" stroke="rgb(110,44,18)"/>
            <line clip-path="url(#clipPath80)" fill="none" x1="388"
                x2="388" y1="285" y2="252" stroke-dasharray="8,7" stroke="rgb(110,44,18)"/>
            <polygon fill="white" stroke-dasharray="8,7"
                clip-path="url(#clipPath81)"
                points=" 388 252 394 266 382 266" stroke="none"/>
            <polygon fill="none" clip-path="url(#clipPath81)"
                points=" 388 252 394 266 382 266" stroke="rgb(110,44,18)"/>
            <line clip-path="url(#clipPath82)" fill="none" x1="71"
                x2="71" y1="317" y2="153" stroke="rgb(153,15,15)"/>
            <text font-size="13" x="53" y="176"
                clip-path="url(#clipPath83)" fill="rgb(153,15,15)"
                stroke="none" xml:space="preserve">1</text>
            <polygon fill="white" clip-path="url(#clipPath84)"
                points=" 71 317 66 307 71 297 76 307" stroke="none"/>
            <polygon fill="none" clip-path="url(#clipPath84)"
                points=" 71 317 66 307 71 297 76 307" stroke="rgb(153,15,15)"/>
            <line clip-path="url(#clipPath85)" fill="none" x1="247"
                x2="247" y1="374" y2="285" stroke-dasharray="8,7" stroke="rgb(110,44,18)"/>
            <line clip-path="url(#clipPath85)" fill="none" x1="247"
                x2="388" y1="285" y2="285" stroke-dasharray="8,7" stroke="rgb(110,44,18)"/>
            <line clip-path="url(#clipPath85)" fill="none" x1="388"
                x2="388" y1="285" y2="252" stroke-dasharray="8,7" stroke="rgb(110,44,18)"/>
            <polygon fill="white" stroke-dasharray="8,7"
                clip-path="url(#clipPath81)"
                points=" 388 252 394 266 382 266" stroke="none"/>
            <polygon fill="none" clip-path="url(#clipPath81)"
                points=" 388 252 394 266 382 266" stroke="rgb(110,44,18)"/>
            <line clip-path="url(#clipPath86)" fill="none" x1="235"
                x2="235" y1="412" y2="465" stroke="rgb(153,15,15)"/>
            <text font-size="13" x="224" y="461"
                clip-path="url(#clipPath87)" fill="rgb(153,15,15)"
                stroke="none" xml:space="preserve">*</text>
            <polygon fill="white" clip-path="url(#clipPath88)"
                points=" 235 412 240 422 235 432 230 422" stroke="none"/>
            <polygon fill="none" clip-path="url(#clipPath88)"
                points=" 235 412 240 422 235 432 230 422" stroke="rgb(153,15,15)"/>
            <line clip-path="url(#clipPath89)" fill="none" x1="370"
                x2="370" y1="314" y2="285" stroke-dasharray="8,7" stroke="rgb(110,44,18)"/>
            <line clip-path="url(#clipPath89)" fill="none" x1="370"
                x2="388" y1="285" y2="285" stroke-dasharray="8,7" stroke="rgb(110,44,18)"/>
            <line clip-path="url(#clipPath89)" fill="none" x1="388"
                x2="388" y1="285" y2="252" stroke-dasharray="8,7" stroke="rgb(110,44,18)"/>
            <polygon fill="white" stroke-dasharray="8,7"
                clip-path="url(#clipPath81)"
                points=" 388 252 394 266 382 266" stroke="none"/>
            <polygon fill="none" clip-path="url(#clipPath81)"
                points=" 388 252 394 266 382 266" stroke="rgb(110,44,18)"/>
            <line clip-path="url(#clipPath90)" fill="none" x1="503"
                x2="503" y1="366" y2="285" stroke-dasharray="8,7" stroke="rgb(110,44,18)"/>
            <line clip-path="url(#clipPath90)" fill="none" x1="503"
                x2="388" y1="285" y2="285" stroke-dasharray="8,7" stroke="rgb(110,44,18)"/>
            <line clip-path="url(#clipPath90)" fill="none" x1="388"
                x2="388" y1="285" y2="252" stroke-dasharray="8,7" stroke="rgb(110,44,18)"/>
            <polygon fill="white" stroke-dasharray="8,7"
                clip-path="url(#clipPath81)"
                points=" 388 252 394 266 382 266" stroke="none"/>
            <polygon fill="none" clip-path="url(#clipPath81)"
                points=" 388 252 394 266 382 266" stroke="rgb(110,44,18)"/>
            <line clip-path="url(#clipPath91)" fill="none" x1="611"
                x2="611" y1="317" y2="285" stroke-dasharray="8,7" stroke="rgb(110,44,18)"/>
            <line clip-path="url(#clipPath91)" fill="none" x1="611"
                x2="388" y1="285" y2="285" stroke-dasharray="8,7" stroke="rgb(110,44,18)"/>
            <line clip-path="url(#clipPath91)" fill="none" x1="388"
                x2="388" y1="285" y2="252" stroke-dasharray="8,7" stroke="rgb(110,44,18)"/>
            <polygon fill="white" stroke-dasharray="8,7"
                clip-path="url(#clipPath81)"
                points=" 388 252 394 266 382 266" stroke="none"/>
            <polygon fill="none" clip-path="url(#clipPath81)"
                points=" 388 252 394 266 382 266" stroke="rgb(110,44,18)"/>
            <line clip-path="url(#clipPath92)" fill="none" x1="604"
                x2="747" y1="386" y2="386" stroke="rgb(153,15,15)"/>
            <line clip-path="url(#clipPath92)" fill="none" x1="747"
                x2="747" y1="386" y2="151" stroke="rgb(153,15,15)"/>
            <text font-size="13" x="729" y="174"
                clip-path="url(#clipPath93)" fill="rgb(153,15,15)"
                stroke="none" xml:space="preserve">1</text>
            <polygon fill="white" clip-path="url(#clipPath94)"
                points=" 604 386 614 381 624 386 614 391" stroke="none"/>
            <polygon fill="none" clip-path="url(#clipPath94)"
                points=" 604 386 614 381 624 386 614 391" stroke="rgb(153,15,15)"/>
            <line clip-path="url(#clipPath95)" fill="none" x1="457"
                x2="320" y1="527" y2="527" stroke="rgb(153,15,15)"/>
            <text font-size="13" x="379" y="550"
                clip-path="url(#clipPath96)" fill="rgb(153,15,15)"
                stroke="none" xml:space="preserve">+monitors</text>
            <text font-size="13" x="440" y="515"
                clip-path="url(#clipPath97)" fill="rgb(153,15,15)"
                stroke="none" xml:space="preserve">*</text>
            <polygon fill="white" clip-path="url(#clipPath98)"
                points=" 320 527 330 522 340 527 330 532" stroke="none"/>
            <polygon fill="none" clip-path="url(#clipPath98)"
                points=" 320 527 330 522 340 527 330 532" stroke="rgb(153,15,15)"/>
            <line clip-path="url(#clipPath99)" fill="none" x1="306"
                x2="614" y1="138" y2="138" stroke="rgb(153,15,15)"/>
            <text font-size="13" x="596" y="126"
                clip-path="url(#clipPath100)" fill="rgb(153,15,15)"
                stroke="none" xml:space="preserve">1</text>
            <polygon fill="white" clip-path="url(#clipPath101)"
                points=" 306 138 316 133 326 138 316 143" stroke="none"/>
            <polygon fill="none" clip-path="url(#clipPath101)"
                points=" 306 138 316 133 326 138 316 143" stroke="rgb(153,15,15)"/>
            <line clip-path="url(#clipPath102)" fill="none" x1="672"
                x2="672" y1="316" y2="151" stroke="rgb(153,15,15)"/>
            <text font-size="13" x="654" y="174"
                clip-path="url(#clipPath103)" fill="rgb(153,15,15)"
                stroke="none" xml:space="preserve">1</text>
            <polygon fill="white" clip-path="url(#clipPath104)"
                points=" 672 316 667 306 672 296 677 306" stroke="none"/>
            <polygon fill="none" clip-path="url(#clipPath104)"
                points=" 672 316 667 306 672 296 677 306" stroke="rgb(153,15,15)"/>
        </g>
        <g font-size="13" stroke-linecap="butt" fill="rgb(105,22,22)"
            stroke-dasharray="8,7" stroke="rgb(105,22,22)" stroke-width="1.1">
            <line clip-path="url(#clipPath105)" fill="none" x1="552"
                x2="614" y1="85" y2="98"/>
        </g>
    </g>
</svg>
