<?xml version="1.0" encoding="UTF-8"?>
<svg stroke-dasharray="none" shape-rendering="auto"
    font-family="'Dialog'" width="1788" text-rendering="auto"
    fill-opacity="1" color-interpolation="auto" color-rendering="auto"
    font-size="12" fill="black" stroke="black" image-rendering="auto"
    stroke-miterlimit="10" stroke-linecap="square"
    stroke-linejoin="miter" font-style="normal" height="1149"
    stroke-width="1" stroke-dashoffset="0" font-weight="normal" stroke-opacity="1">
    <!--Generated by the Batik Graphics2D SVG Generator-->
    <defs id="genericDefs"/>
    <g>
        <defs id="defs1">
            <clipPath clipPathUnits="userSpaceOnUse" id="clipPath1">
                <path d="M-1 -1 L1641 -1 L1641 1149 L-1 1149 L-1 -1 Z"/>
            </clipPath>
            <clipPath clipPathUnits="userSpaceOnUse" id="clipPath2">
                <path d="M5 7 L65 7 L65 22 L5 22 L5 7 Z"/>
            </clipPath>
            <clipPath clipPathUnits="userSpaceOnUse" id="clipPath3">
                <path d="M65 5 L133 5 L133 24 L65 24 L65 5 Z"/>
            </clipPath>
            <clipPath clipPathUnits="userSpaceOnUse" id="clipPath4">
                <path d="M37 318 L195 318 L195 361 L37 361 L37 318 Z"/>
            </clipPath>
            <clipPath clipPathUnits="userSpaceOnUse" id="clipPath5">
                <path d="M44 320 L188 320 L188 339 L44 339 L44 320 Z"/>
            </clipPath>
            <clipPath clipPathUnits="userSpaceOnUse" id="clipPath6">
                <path d="M39 337 L193 337 L193 349 L39 349 L39 337 Z"/>
            </clipPath>
            <clipPath clipPathUnits="userSpaceOnUse" id="clipPath7">
                <path d="M39 347 L193 347 L193 359 L39 359 L39 347 Z"/>
            </clipPath>
            <clipPath clipPathUnits="userSpaceOnUse" id="clipPath8">
                <path d="M194 374 L301 374 L301 417 L194 417 L194 374 Z"/>
            </clipPath>
            <clipPath clipPathUnits="userSpaceOnUse" id="clipPath9">
                <path d="M201 376 L294 376 L294 395 L201 395 L201 376 Z"/>
            </clipPath>
            <clipPath clipPathUnits="userSpaceOnUse" id="clipPath10">
                <path d="M196 393 L299 393 L299 405 L196 405 L196 393 Z"/>
            </clipPath>
            <clipPath clipPathUnits="userSpaceOnUse" id="clipPath11">
                <path d="M196 403 L299 403 L299 415 L196 415 L196 403 Z"/>
            </clipPath>
            <clipPath clipPathUnits="userSpaceOnUse" id="clipPath12">
                <path d="M120 178 L656 178 L656 258 L120 258 L120 178 Z"/>
            </clipPath>
            <clipPath clipPathUnits="userSpaceOnUse" id="clipPath13">
                <path d="M344 180 L432 180 L432 195 L344 195 L344 180 Z"/>
            </clipPath>
            <clipPath clipPathUnits="userSpaceOnUse" id="clipPath14">
                <path d="M322 195 L453 195 L453 210 L322 210 L322 195 Z"/>
            </clipPath>
            <clipPath clipPathUnits="userSpaceOnUse" id="clipPath15">
                <path d="M343 210 L433 210 L433 225 L343 225 L343 210 Z"/>
            </clipPath>
            <clipPath clipPathUnits="userSpaceOnUse" id="clipPath16">
                <path d="M122 223 L654 223 L654 235 L122 235 L122 223 Z"/>
            </clipPath>
            <clipPath clipPathUnits="userSpaceOnUse" id="clipPath17">
                <path d="M123 236 L136 236 L136 255 L123 255 L123 236 Z"/>
            </clipPath>
            <clipPath clipPathUnits="userSpaceOnUse" id="clipPath18">
                <path d="M136 236 L225 236 L225 255 L136 255 L136 236 Z"/>
            </clipPath>
            <clipPath clipPathUnits="userSpaceOnUse" id="clipPath19">
                <path d="M225 236 L642 236 L642 255 L225 255 L225 236 Z"/>
            </clipPath>
            <clipPath clipPathUnits="userSpaceOnUse" id="clipPath20">
                <path d="M122 233 L654 233 L654 256 L122 256 L122 233 Z"/>
            </clipPath>
            <clipPath clipPathUnits="userSpaceOnUse" id="clipPath21">
                <path d="M299 314 L441 314 L441 357 L299 357 L299 314 Z"/>
            </clipPath>
            <clipPath clipPathUnits="userSpaceOnUse" id="clipPath22">
                <path d="M306 316 L434 316 L434 335 L306 335 L306 316 Z"/>
            </clipPath>
            <clipPath clipPathUnits="userSpaceOnUse" id="clipPath23">
                <path d="M301 333 L439 333 L439 345 L301 345 L301 333 Z"/>
            </clipPath>
            <clipPath clipPathUnits="userSpaceOnUse" id="clipPath24">
                <path d="M301 343 L439 343 L439 355 L301 355 L301 343 Z"/>
            </clipPath>
            <clipPath clipPathUnits="userSpaceOnUse" id="clipPath25">
                <path d="M402 366 L605 366 L605 409 L402 409 L402 366 Z"/>
            </clipPath>
            <clipPath clipPathUnits="userSpaceOnUse" id="clipPath26">
                <path d="M409 368 L598 368 L598 387 L409 387 L409 368 Z"/>
            </clipPath>
            <clipPath clipPathUnits="userSpaceOnUse" id="clipPath27">
                <path d="M404 385 L603 385 L603 397 L404 397 L404 385 Z"/>
            </clipPath>
            <clipPath clipPathUnits="userSpaceOnUse" id="clipPath28">
                <path d="M404 395 L603 395 L603 407 L404 407 L404 395 Z"/>
            </clipPath>
            <clipPath clipPathUnits="userSpaceOnUse" id="clipPath29">
                <path d="M107 472 L235 472 L235 541 L107 541 L107 472 Z"/>
            </clipPath>
            <clipPath clipPathUnits="userSpaceOnUse" id="clipPath30">
                <path d="M127 474 L215 474 L215 489 L127 489 L127 474 Z"/>
            </clipPath>
            <clipPath clipPathUnits="userSpaceOnUse" id="clipPath31">
                <path d="M114 489 L228 489 L228 504 L114 504 L114 489 Z"/>
            </clipPath>
            <clipPath clipPathUnits="userSpaceOnUse" id="clipPath32">
                <path d="M138 504 L203 504 L203 519 L138 519 L138 504 Z"/>
            </clipPath>
            <clipPath clipPathUnits="userSpaceOnUse" id="clipPath33">
                <path d="M109 517 L233 517 L233 529 L109 529 L109 517 Z"/>
            </clipPath>
            <clipPath clipPathUnits="userSpaceOnUse" id="clipPath34">
                <path d="M109 527 L233 527 L233 539 L109 539 L109 527 Z"/>
            </clipPath>
            <clipPath clipPathUnits="userSpaceOnUse" id="clipPath35">
                <path d="M613 79 L764 79 L764 160 L613 160 L613 79 Z"/>
            </clipPath>
            <clipPath clipPathUnits="userSpaceOnUse" id="clipPath36">
                <path d="M637 81 L740 81 L740 100 L637 100 L637 81 Z"/>
            </clipPath>
            <clipPath clipPathUnits="userSpaceOnUse" id="clipPath37">
                <path d="M620 100 L757 100 L757 119 L620 119 L620 100 Z"/>
            </clipPath>
            <clipPath clipPathUnits="userSpaceOnUse" id="clipPath38">
                <path d="M640 119 L736 119 L736 138 L640 138 L640 119 Z"/>
            </clipPath>
            <clipPath clipPathUnits="userSpaceOnUse" id="clipPath39">
                <path d="M615 136 L762 136 L762 148 L615 148 L615 136 Z"/>
            </clipPath>
            <clipPath clipPathUnits="userSpaceOnUse" id="clipPath40">
                <path d="M615 146 L762 146 L762 158 L615 158 L615 146 Z"/>
            </clipPath>
            <clipPath clipPathUnits="userSpaceOnUse" id="clipPath41">
                <path d="M31 81 L307 81 L307 162 L31 162 L31 81 Z"/>
            </clipPath>
            <clipPath clipPathUnits="userSpaceOnUse" id="clipPath42">
                <path d="M117 83 L220 83 L220 102 L117 102 L117 83 Z"/>
            </clipPath>
            <clipPath clipPathUnits="userSpaceOnUse" id="clipPath43">
                <path d="M38 102 L300 102 L300 121 L38 121 L38 102 Z"/>
            </clipPath>
            <clipPath clipPathUnits="userSpaceOnUse" id="clipPath44">
                <path d="M121 121 L217 121 L217 140 L121 140 L121 121 Z"/>
            </clipPath>
            <clipPath clipPathUnits="userSpaceOnUse" id="clipPath45">
                <path d="M33 138 L305 138 L305 150 L33 150 L33 138 Z"/>
            </clipPath>
            <clipPath clipPathUnits="userSpaceOnUse" id="clipPath46">
                <path d="M33 148 L305 148 L305 160 L33 160 L33 148 Z"/>
            </clipPath>
            <clipPath clipPathUnits="userSpaceOnUse" id="clipPath47">
                <path d="M532 317 L691 317 L691 360 L532 360 L532 317 Z"/>
            </clipPath>
            <clipPath clipPathUnits="userSpaceOnUse" id="clipPath48">
                <path d="M539 319 L684 319 L684 338 L539 338 L539 319 Z"/>
            </clipPath>
            <clipPath clipPathUnits="userSpaceOnUse" id="clipPath49">
                <path d="M534 336 L689 336 L689 348 L534 348 L534 336 Z"/>
            </clipPath>
            <clipPath clipPathUnits="userSpaceOnUse" id="clipPath50">
                <path d="M534 346 L689 346 L689 358 L534 358 L534 346 Z"/>
            </clipPath>
            <clipPath clipPathUnits="userSpaceOnUse" id="clipPath51">
                <path d="M399 41 L553 41 L553 101 L399 101 L399 41 Z"/>
            </clipPath>
            <clipPath clipPathUnits="userSpaceOnUse" id="clipPath52">
                <path d="M402 45 L536 45 L536 98 L402 98 L402 45 Z"/>
            </clipPath>
            <clipPath clipPathUnits="userSpaceOnUse" id="clipPath53">
                <path d="M271 473 L389 473 L389 542 L271 542 L271 473 Z"/>
            </clipPath>
            <clipPath clipPathUnits="userSpaceOnUse" id="clipPath54">
                <path d="M286 475 L374 475 L374 490 L286 490 L286 475 Z"/>
            </clipPath>
            <clipPath clipPathUnits="userSpaceOnUse" id="clipPath55">
                <path d="M278 490 L382 490 L382 505 L278 505 L278 490 Z"/>
            </clipPath>
            <clipPath clipPathUnits="userSpaceOnUse" id="clipPath56">
                <path d="M297 505 L362 505 L362 520 L297 520 L297 505 Z"/>
            </clipPath>
            <clipPath clipPathUnits="userSpaceOnUse" id="clipPath57">
                <path d="M273 518 L387 518 L387 530 L273 530 L273 518 Z"/>
            </clipPath>
            <clipPath clipPathUnits="userSpaceOnUse" id="clipPath58">
                <path d="M273 528 L387 528 L387 540 L273 540 L273 528 Z"/>
            </clipPath>
            <clipPath clipPathUnits="userSpaceOnUse" id="clipPath59">
                <path d="M102 242 L409 242 L409 335 L102 335 L102 242 Z"/>
            </clipPath>
            <clipPath clipPathUnits="userSpaceOnUse" id="clipPath60">
                <path d="M381 255 L396 255 L396 272 L381 272 L381 255 Z"/>
            </clipPath>
            <clipPath clipPathUnits="userSpaceOnUse" id="clipPath61">
                <path d="M-1 147 L330 147 L330 334 L-1 334 L-1 147 Z"/>
            </clipPath>
            <clipPath clipPathUnits="userSpaceOnUse" id="clipPath62">
                <path d="M52 170 L62 170 L62 189 L52 189 L52 170 Z"/>
            </clipPath>
            <clipPath clipPathUnits="userSpaceOnUse" id="clipPath63">
                <path d="M65 298 L78 298 L78 321 L65 321 L65 298 Z"/>
            </clipPath>
            <clipPath clipPathUnits="userSpaceOnUse" id="clipPath64">
                <path d="M233 242 L409 242 L409 391 L233 391 L233 242 Z"/>
            </clipPath>
            <clipPath clipPathUnits="userSpaceOnUse" id="clipPath65">
                <path d="M146 402 L395 402 L395 493 L146 493 L146 402 Z"/>
            </clipPath>
            <clipPath clipPathUnits="userSpaceOnUse" id="clipPath66">
                <path d="M198 453 L207 453 L207 472 L198 472 L198 453 Z"/>
            </clipPath>
            <clipPath clipPathUnits="userSpaceOnUse" id="clipPath67">
                <path d="M204 415 L217 415 L217 438 L204 438 L204 415 Z"/>
            </clipPath>
            <clipPath clipPathUnits="userSpaceOnUse" id="clipPath68">
                <path d="M356 242 L409 242 L409 331 L356 331 L356 242 Z"/>
            </clipPath>
            <clipPath clipPathUnits="userSpaceOnUse" id="clipPath69">
                <path d="M368 242 L518 242 L518 383 L368 383 L368 242 Z"/>
            </clipPath>
            <clipPath clipPathUnits="userSpaceOnUse" id="clipPath70">
                <path d="M368 242 L626 242 L626 334 L368 334 L368 242 Z"/>
            </clipPath>
            <clipPath clipPathUnits="userSpaceOnUse" id="clipPath71">
                <path d="M550 145 L982 145 L982 467 L550 467 L550 145 Z"/>
            </clipPath>
            <clipPath clipPathUnits="userSpaceOnUse" id="clipPath72">
                <path d="M728 168 L738 168 L738 187 L728 187 L728 168 Z"/>
            </clipPath>
            <clipPath clipPathUnits="userSpaceOnUse" id="clipPath73">
                <path d="M603 384 L626 384 L626 397 L603 397 L603 384 Z"/>
            </clipPath>
            <clipPath clipPathUnits="userSpaceOnUse" id="clipPath74">
                <path d="M243 102 L677 102 L677 184 L243 184 L243 102 Z"/>
            </clipPath>
            <clipPath clipPathUnits="userSpaceOnUse" id="clipPath75">
                <path d="M595 115 L605 115 L605 134 L595 134 L595 115 Z"/>
            </clipPath>
            <clipPath clipPathUnits="userSpaceOnUse" id="clipPath76">
                <path d="M305 137 L328 137 L328 150 L305 150 L305 137 Z"/>
            </clipPath>
            <clipPath clipPathUnits="userSpaceOnUse" id="clipPath77">
                <path d="M504 145 L841 145 L841 333 L504 333 L504 145 Z"/>
            </clipPath>
            <clipPath clipPathUnits="userSpaceOnUse" id="clipPath78">
                <path d="M653 168 L663 168 L663 187 L653 187 L653 168 Z"/>
            </clipPath>
            <clipPath clipPathUnits="userSpaceOnUse" id="clipPath79">
                <path d="M666 297 L679 297 L679 320 L666 320 L666 297 Z"/>
            </clipPath>
            <clipPath clipPathUnits="userSpaceOnUse" id="clipPath80">
                <path d="M538 74 L629 74 L629 117 L538 117 L538 74 Z"/>
            </clipPath>
            <clipPath clipPathUnits="userSpaceOnUse" id="clipPath81">
                <path d="M151 402 L426 402 L426 489 L151 489 L151 402 Z"/>
            </clipPath>
            <clipPath clipPathUnits="userSpaceOnUse" id="clipPath82">
                <path d="M295 451 L304 451 L304 470 L295 470 L295 451 Z"/>
            </clipPath>
            <clipPath clipPathUnits="userSpaceOnUse" id="clipPath83">
                <path d="M282 415 L295 415 L295 438 L282 438 L282 415 Z"/>
            </clipPath>
        </defs>
        <g font-size="11" fill="white" stroke-linejoin="round"
            stroke="white" stroke-width="0" stroke-miterlimit="0">
            <rect x="0" y="0" clip-path="url(#clipPath1)" width="1640"
                height="1148" stroke="none"/>
        </g>
        <g stroke-width="0.1" font-size="11" stroke-linecap="butt">
            <line clip-path="url(#clipPath1)" fill="none" x1="1"
                x2="137" y1="31" y2="31"/>
            <line clip-path="url(#clipPath1)" fill="none" x1="137"
                x2="144" y1="31" y2="17"/>
            <line clip-path="url(#clipPath1)" fill="none" x1="144"
                x2="144" y1="17" y2="1"/>
            <text x="6" y="19" clip-path="url(#clipPath2)" stroke="none"
                font-weight="bold" xml:space="preserve">package </text>
            <text font-size="13" x="66" y="19"
                clip-path="url(#clipPath3)" stroke="none" xml:space="preserve">realization</text>
            <rect x="38" y="319" clip-path="url(#clipPath4)"
                fill="rgb(237,247,200)" width="156" height="41" stroke="none"/>
        </g>
        <g font-size="13" stroke-linecap="butt" fill="rgb(106,88,75)"
            stroke="rgb(106,88,75)" font-weight="bold" stroke-width="0.1">
            <text xml:space="preserve" x="45" y="334"
                clip-path="url(#clipPath5)" stroke="none">OrbitDetermination</text>
            <line clip-path="url(#clipPath6)" fill="none" x1="40"
                x2="192" y1="338" y2="338"/>
            <line clip-path="url(#clipPath7)" fill="none" x1="40"
                x2="192" y1="348" y2="348"/>
            <rect x="38" y="319" clip-path="url(#clipPath4)" fill="none"
                width="155" height="40" stroke-width="1.1"/>
        </g>
        <g fill="rgb(237,247,200)" stroke-width="1.1" font-size="11"
            stroke-linecap="butt" stroke="rgb(237,247,200)">
            <rect x="195" y="375" clip-path="url(#clipPath8)"
                width="105" height="41" stroke="none"/>
        </g>
        <g font-size="13" stroke-linecap="butt" fill="rgb(106,88,75)"
            stroke="rgb(106,88,75)" font-weight="bold" stroke-width="1.1">
            <text xml:space="preserve" x="202" y="390"
                clip-path="url(#clipPath9)" stroke="none">Propagation</text>
            <line clip-path="url(#clipPath10)" fill="none" x1="197"
                x2="298" y1="394" y2="394" stroke-width="0.1"/>
            <line clip-path="url(#clipPath11)" fill="none" x1="197"
                x2="298" y1="404" y2="404" stroke-width="0.1"/>
            <rect x="195" y="375" clip-path="url(#clipPath8)"
                fill="none" width="104" height="40"/>
        </g>
        <g fill="rgb(244,232,212)" stroke-width="1.1" font-size="11"
            stroke-linecap="butt" stroke="rgb(244,232,212)">
            <rect x="121" y="179" clip-path="url(#clipPath12)"
                width="534" height="78" stroke="none"/>
            <text x="345" y="192" clip-path="url(#clipPath13)"
                fill="rgb(110,44,18)" stroke="none" xml:space="preserve">&lt;&lt;interface&gt;&gt;</text>
            <text x="323" y="207" clip-path="url(#clipPath14)"
                fill="rgb(110,44,18)" stroke="none" font-weight="bold" xml:space="preserve">ScenarioComponent</text>
            <text x="344" y="222" clip-path="url(#clipPath15)"
                fill="rgb(110,44,18)" stroke="none" xml:space="preserve">(from scenario)</text>
            <line clip-path="url(#clipPath16)" fill="none" x1="123"
                x2="653" y1="224" y2="224" stroke="rgb(110,44,18)" stroke-width="0.1"/>
        </g>
        <g stroke-width="0.1" font-size="13" stroke-linecap="butt">
            <text xml:space="preserve" x="124" y="250"
                clip-path="url(#clipPath17)" stroke="none">+</text>
            <text xml:space="preserve" x="137" y="250"
                clip-path="url(#clipPath18)" stroke="none">updateStates</text>
            <text xml:space="preserve" x="226" y="250"
                clip-path="url(#clipPath19)" stroke="none">(originals : ScenarioState, target : AbsoluteDate) : ScenarioState</text>
            <line clip-path="url(#clipPath20)" fill="none" x1="123"
                x2="653" y1="234" y2="234" stroke="rgb(110,44,18)"/>
        </g>
        <g fill="rgb(110,44,18)" stroke-width="1.1" font-size="11"
            stroke-linecap="butt" stroke="rgb(110,44,18)">
            <rect x="121" y="179" clip-path="url(#clipPath12)"
                fill="none" width="533" height="77"/>
            <rect x="300" y="315" clip-path="url(#clipPath21)"
                fill="rgb(237,247,200)" width="140" height="41" stroke="none"/>
        </g>
        <g font-size="13" stroke-linecap="butt" fill="rgb(106,88,75)"
            stroke="rgb(106,88,75)" font-weight="bold" stroke-width="1.1">
            <text xml:space="preserve" x="307" y="330"
                clip-path="url(#clipPath22)" stroke="none">ManeuverSplitter</text>
            <line clip-path="url(#clipPath23)" fill="none" x1="302"
                x2="438" y1="334" y2="334" stroke-width="0.1"/>
            <line clip-path="url(#clipPath24)" fill="none" x1="302"
                x2="438" y1="344" y2="344" stroke-width="0.1"/>
            <rect x="300" y="315" clip-path="url(#clipPath21)"
                fill="none" width="139" height="40"/>
        </g>
        <g fill="rgb(237,247,200)" stroke-width="1.1" font-size="11"
            stroke-linecap="butt" stroke="rgb(237,247,200)">
            <rect x="403" y="367" clip-path="url(#clipPath25)"
                width="201" height="41" stroke="none"/>
        </g>
        <g font-size="13" stroke-linecap="butt" fill="rgb(106,88,75)"
            stroke="rgb(106,88,75)" font-weight="bold" stroke-width="1.1">
            <text xml:space="preserve" x="410" y="382"
                clip-path="url(#clipPath26)" stroke="none">ManeuverMagnitudeError</text>
            <line clip-path="url(#clipPath27)" fill="none" x1="405"
                x2="602" y1="386" y2="386" stroke-width="0.1"/>
            <line clip-path="url(#clipPath28)" fill="none" x1="405"
                x2="602" y1="396" y2="396" stroke-width="0.1"/>
            <rect x="403" y="367" clip-path="url(#clipPath25)"
                fill="none" width="200" height="40"/>
        </g>
        <g fill="rgb(244,232,212)" stroke-width="1.1" font-size="11"
            stroke-linecap="butt" stroke="rgb(244,232,212)">
            <rect x="108" y="473" clip-path="url(#clipPath29)"
                width="126" height="67" stroke="none"/>
            <text x="128" y="486" clip-path="url(#clipPath30)"
                fill="rgb(110,44,18)" stroke="none" xml:space="preserve">&lt;&lt;interface&gt;&gt;</text>
            <text x="115" y="501" clip-path="url(#clipPath31)"
                fill="rgb(110,44,18)" stroke="none" font-weight="bold" xml:space="preserve">MonitorableMono</text>
            <text x="139" y="516" clip-path="url(#clipPath32)"
                fill="rgb(110,44,18)" stroke="none" xml:space="preserve">(from utils)</text>
            <line clip-path="url(#clipPath33)" fill="none" x1="110"
                x2="232" y1="518" y2="518" stroke="rgb(110,44,18)" stroke-width="0.1"/>
            <line clip-path="url(#clipPath34)" fill="none" x1="110"
                x2="232" y1="528" y2="528" stroke="rgb(110,44,18)" stroke-width="0.1"/>
            <rect x="108" y="473" clip-path="url(#clipPath29)"
                fill="none" width="125" height="66" stroke="rgb(110,44,18)"/>
            <rect x="614" y="80" clip-path="url(#clipPath35)"
                fill="rgb(243,232,255)" width="149" height="79" stroke="none"/>
            <text font-size="13" x="638" y="95"
                clip-path="url(#clipPath36)" fill="rgb(41,0,141)"
                stroke="none" xml:space="preserve">&lt;&lt;dataType&gt;&gt;</text>
        </g>
        <g font-size="13" stroke-linecap="butt" fill="rgb(41,0,141)"
            stroke="rgb(41,0,141)" stroke-width="1.1">
            <text xml:space="preserve" x="621" y="114"
                clip-path="url(#clipPath37)" font-weight="bold" stroke="none">RandomGenerator</text>
            <text x="641" y="133" clip-path="url(#clipPath38)"
                stroke="none" font-weight="normal" xml:space="preserve">(from random)</text>
            <line clip-path="url(#clipPath39)" fill="none" x1="616"
                x2="761" y1="137" y2="137" stroke-width="0.1"/>
            <line clip-path="url(#clipPath40)" fill="none" x1="616"
                x2="761" y1="147" y2="147" stroke-width="0.1"/>
            <rect x="614" y="80" clip-path="url(#clipPath35)"
                fill="none" width="148" height="78"/>
        </g>
        <g fill="rgb(243,232,255)" stroke-width="1.1" font-size="11"
            stroke-linecap="butt" stroke="rgb(243,232,255)">
            <rect x="32" y="82" clip-path="url(#clipPath41)" width="274"
                height="79" stroke="none"/>
            <text font-size="13" x="118" y="97"
                clip-path="url(#clipPath42)" fill="rgb(41,0,141)"
                stroke="none" xml:space="preserve">&lt;&lt;dataType&gt;&gt;</text>
        </g>
        <g font-size="13" stroke-linecap="butt" fill="rgb(41,0,141)"
            stroke="rgb(41,0,141)" stroke-width="1.1">
            <text xml:space="preserve" x="39" y="116"
                clip-path="url(#clipPath43)" font-weight="bold" stroke="none">CorrelatedRandomVectorGenerator</text>
            <text x="122" y="135" clip-path="url(#clipPath44)"
                stroke="none" font-weight="normal" xml:space="preserve">(from random)</text>
            <line clip-path="url(#clipPath45)" fill="none" x1="34"
                x2="304" y1="139" y2="139" stroke-width="0.1"/>
            <line clip-path="url(#clipPath46)" fill="none" x1="34"
                x2="304" y1="149" y2="149" stroke-width="0.1"/>
            <rect x="32" y="82" clip-path="url(#clipPath41)" fill="none"
                width="273" height="78"/>
        </g>
        <g fill="rgb(237,247,200)" stroke-width="1.1" font-size="11"
            stroke-linecap="butt" stroke="rgb(237,247,200)">
            <rect x="533" y="318" clip-path="url(#clipPath47)"
                width="157" height="41" stroke="none"/>
        </g>
        <g font-size="13" stroke-linecap="butt" fill="rgb(106,88,75)"
            stroke="rgb(106,88,75)" font-weight="bold" stroke-width="1.1">
            <text xml:space="preserve" x="540" y="333"
                clip-path="url(#clipPath48)" stroke="none">ManeuverDateError</text>
            <line clip-path="url(#clipPath49)" fill="none" x1="535"
                x2="688" y1="337" y2="337" stroke-width="0.1"/>
            <line clip-path="url(#clipPath50)" fill="none" x1="535"
                x2="688" y1="347" y2="347" stroke-width="0.1"/>
            <rect x="533" y="318" clip-path="url(#clipPath47)"
                fill="none" width="156" height="40"/>
            <polygon fill="rgb(243,239,235)"
                clip-path="url(#clipPath51)"
                points=" 400 42 542 42 551 52 551 99 400 99" stroke="none"/>
        </g>
        <g fill="rgb(105,22,22)" stroke-width="0.1" font-size="13"
            stroke-linecap="butt" stroke="rgb(105,22,22)">
            <polygon fill="none" clip-path="url(#clipPath51)" points=" 541 42 541 52 551 52 541 42 400 42 400 99 551 99 551 52"/>
            <text xml:space="preserve" x="403" y="59"
                clip-path="url(#clipPath52)" stroke="none">a single instance of</text>
            <text xml:space="preserve" x="403" y="76"
                clip-path="url(#clipPath52)" stroke="none">RandomGenerator is</text>
            <text xml:space="preserve" x="403" y="93"
                clip-path="url(#clipPath52)" stroke="none">shared by all objects</text>
            <rect x="272" y="474" clip-path="url(#clipPath53)"
                fill="rgb(244,232,212)" width="116" height="67" stroke="none"/>
            <text font-size="11" x="287" y="487"
                clip-path="url(#clipPath54)" fill="rgb(110,44,18)"
                stroke="none" xml:space="preserve">&lt;&lt;interface&gt;&gt;</text>
        </g>
        <g font-size="11" stroke-linecap="butt" fill="rgb(110,44,18)"
            stroke="rgb(110,44,18)" stroke-width="0.1">
            <text xml:space="preserve" x="279" y="502"
                clip-path="url(#clipPath55)" font-weight="bold" stroke="none">MonitorableDuo</text>
            <text x="298" y="517" clip-path="url(#clipPath56)"
                stroke="none" font-weight="normal" xml:space="preserve">(from utils)</text>
            <line clip-path="url(#clipPath57)" fill="none" x1="274"
                x2="386" y1="519" y2="519"/>
            <line clip-path="url(#clipPath58)" fill="none" x1="274"
                x2="386" y1="529" y2="529"/>
            <rect x="272" y="474" clip-path="url(#clipPath53)"
                fill="none" width="115" height="66" stroke-width="1.1"/>
        </g>
        <g stroke-width="1.1" font-size="11" stroke-linecap="butt">
            <rect x="0" y="0" clip-path="url(#clipPath1)" fill="none"
                width="1639" height="1147"/>
            <line clip-path="url(#clipPath59)" fill="none" x1="116"
                x2="116" y1="320" y2="289" stroke-dasharray="8,7" stroke="rgb(110,44,18)"/>
            <line clip-path="url(#clipPath59)" fill="none" x1="116"
                x2="388" y1="289" y2="289" stroke-dasharray="8,7" stroke="rgb(110,44,18)"/>
            <line clip-path="url(#clipPath59)" fill="none" x1="388"
                x2="388" y1="289" y2="256" stroke-dasharray="8,7" stroke="rgb(110,44,18)"/>
            <polygon fill="white" stroke-dasharray="8,7"
                clip-path="url(#clipPath60)"
                points=" 388 256 394 270 382 270" stroke="none"/>
            <polygon fill="none" clip-path="url(#clipPath60)"
                points=" 388 256 394 270 382 270" stroke="rgb(110,44,18)"/>
            <line clip-path="url(#clipPath61)" fill="none" x1="71"
                x2="71" y1="319" y2="161" stroke="rgb(153,15,15)"/>
            <text font-size="13" x="53" y="184"
                clip-path="url(#clipPath62)" fill="rgb(153,15,15)"
                stroke="none" xml:space="preserve">1</text>
            <polygon fill="white" clip-path="url(#clipPath63)"
                points=" 71 319 66 309 71 299 76 309" stroke="none"/>
            <polygon fill="none" clip-path="url(#clipPath63)"
                points=" 71 319 66 309 71 299 76 309" stroke="rgb(153,15,15)"/>
            <line clip-path="url(#clipPath64)" fill="none" x1="247"
                x2="247" y1="376" y2="289" stroke-dasharray="8,7" stroke="rgb(110,44,18)"/>
            <line clip-path="url(#clipPath64)" fill="none" x1="247"
                x2="388" y1="289" y2="289" stroke-dasharray="8,7" stroke="rgb(110,44,18)"/>
            <line clip-path="url(#clipPath64)" fill="none" x1="388"
                x2="388" y1="289" y2="256" stroke-dasharray="8,7" stroke="rgb(110,44,18)"/>
            <polygon fill="white" stroke-dasharray="8,7"
                clip-path="url(#clipPath60)"
                points=" 388 256 394 270 382 270" stroke="none"/>
            <polygon fill="none" clip-path="url(#clipPath60)"
                points=" 388 256 394 270 382 270" stroke="rgb(110,44,18)"/>
            <line clip-path="url(#clipPath65)" fill="none" x1="210"
                x2="210" y1="416" y2="473" stroke="rgb(153,15,15)"/>
            <text font-size="13" x="199" y="467"
                clip-path="url(#clipPath66)" fill="rgb(153,15,15)"
                stroke="none" xml:space="preserve">*</text>
            <polygon fill="white" clip-path="url(#clipPath67)"
                points=" 210 416 215 426 210 436 205 426" stroke="none"/>
            <polygon fill="none" clip-path="url(#clipPath67)"
                points=" 210 416 215 426 210 436 205 426" stroke="rgb(153,15,15)"/>
            <line clip-path="url(#clipPath68)" fill="none" x1="370"
                x2="370" y1="316" y2="289" stroke-dasharray="8,7" stroke="rgb(110,44,18)"/>
            <line clip-path="url(#clipPath68)" fill="none" x1="370"
                x2="388" y1="289" y2="289" stroke-dasharray="8,7" stroke="rgb(110,44,18)"/>
            <line clip-path="url(#clipPath68)" fill="none" x1="388"
                x2="388" y1="289" y2="256" stroke-dasharray="8,7" stroke="rgb(110,44,18)"/>
            <polygon fill="white" stroke-dasharray="8,7"
                clip-path="url(#clipPath60)"
                points=" 388 256 394 270 382 270" stroke="none"/>
            <polygon fill="none" clip-path="url(#clipPath60)"
                points=" 388 256 394 270 382 270" stroke="rgb(110,44,18)"/>
            <line clip-path="url(#clipPath69)" fill="none" x1="503"
                x2="503" y1="368" y2="289" stroke-dasharray="8,7" stroke="rgb(110,44,18)"/>
            <line clip-path="url(#clipPath69)" fill="none" x1="503"
                x2="388" y1="289" y2="289" stroke-dasharray="8,7" stroke="rgb(110,44,18)"/>
            <line clip-path="url(#clipPath69)" fill="none" x1="388"
                x2="388" y1="289" y2="256" stroke-dasharray="8,7" stroke="rgb(110,44,18)"/>
            <polygon fill="white" stroke-dasharray="8,7"
                clip-path="url(#clipPath60)"
                points=" 388 256 394 270 382 270" stroke="none"/>
            <polygon fill="none" clip-path="url(#clipPath60)"
                points=" 388 256 394 270 382 270" stroke="rgb(110,44,18)"/>
            <line clip-path="url(#clipPath70)" fill="none" x1="611"
                x2="611" y1="319" y2="289" stroke-dasharray="8,7" stroke="rgb(110,44,18)"/>
            <line clip-path="url(#clipPath70)" fill="none" x1="611"
                x2="388" y1="289" y2="289" stroke-dasharray="8,7" stroke="rgb(110,44,18)"/>
            <line clip-path="url(#clipPath70)" fill="none" x1="388"
                x2="388" y1="289" y2="256" stroke-dasharray="8,7" stroke="rgb(110,44,18)"/>
            <polygon fill="white" stroke-dasharray="8,7"
                clip-path="url(#clipPath60)"
                points=" 388 256 394 270 382 270" stroke="none"/>
            <polygon fill="none" clip-path="url(#clipPath60)"
                points=" 388 256 394 270 382 270" stroke="rgb(110,44,18)"/>
            <line clip-path="url(#clipPath71)" fill="none" x1="604"
                x2="747" y1="390" y2="390" stroke="rgb(153,15,15)"/>
            <line clip-path="url(#clipPath71)" fill="none" x1="747"
                x2="747" y1="390" y2="159" stroke="rgb(153,15,15)"/>
            <text font-size="13" x="729" y="182"
                clip-path="url(#clipPath72)" fill="rgb(153,15,15)"
                stroke="none" xml:space="preserve">1</text>
            <polygon fill="white" clip-path="url(#clipPath73)"
                points=" 604 390 614 385 624 390 614 395" stroke="none"/>
            <polygon fill="none" clip-path="url(#clipPath73)"
                points=" 604 390 614 385 624 390 614 395" stroke="rgb(153,15,15)"/>
            <line clip-path="url(#clipPath74)" fill="none" x1="306"
                x2="614" y1="143" y2="143" stroke="rgb(153,15,15)"/>
            <text font-size="13" x="596" y="129"
                clip-path="url(#clipPath75)" fill="rgb(153,15,15)"
                stroke="none" xml:space="preserve">1</text>
            <polygon fill="white" clip-path="url(#clipPath76)"
                points=" 306 143 316 138 326 143 316 148" stroke="none"/>
            <polygon fill="none" clip-path="url(#clipPath76)"
                points=" 306 143 316 138 326 143 316 148" stroke="rgb(153,15,15)"/>
            <line clip-path="url(#clipPath77)" fill="none" x1="672"
                x2="672" y1="318" y2="159" stroke="rgb(153,15,15)"/>
            <text font-size="13" x="654" y="182"
                clip-path="url(#clipPath78)" fill="rgb(153,15,15)"
                stroke="none" xml:space="preserve">1</text>
            <polygon fill="white" clip-path="url(#clipPath79)"
                points=" 672 318 667 308 672 298 677 308" stroke="none"/>
            <polygon fill="none" clip-path="url(#clipPath79)"
                points=" 672 318 667 308 672 298 677 308" stroke="rgb(153,15,15)"/>
        </g>
        <g font-size="13" stroke-linecap="butt" fill="rgb(105,22,22)"
            stroke-dasharray="8,7" stroke="rgb(105,22,22)" stroke-width="1.1">
            <line clip-path="url(#clipPath80)" fill="none" x1="552"
                x2="614" y1="88" y2="102"/>
            <line clip-path="url(#clipPath81)" fill="none" x1="288"
                x2="288" y1="416" y2="474" stroke-dasharray="none" stroke="rgb(153,15,15)"/>
            <text x="296" y="465" clip-path="url(#clipPath82)"
                fill="rgb(153,15,15)" stroke-dasharray="none"
                stroke="none" xml:space="preserve">*</text>
            <polygon fill="white" stroke-dasharray="none"
                clip-path="url(#clipPath83)"
                points=" 288 416 293 426 288 436 283 426" stroke="none"/>
            <polygon fill="none" stroke-dasharray="none"
                clip-path="url(#clipPath83)"
                points=" 288 416 293 426 288 436 283 426" stroke="rgb(153,15,15)"/>
        </g>
    </g>
</svg>
