<?xml version="1.0" encoding="UTF-8"?>
<svg stroke-dasharray="none" shape-rendering="auto"
    font-family="'Dialog'" width="1139" text-rendering="auto"
    fill-opacity="1" color-interpolation="auto" color-rendering="auto"
    font-size="12" fill="black" stroke="black" image-rendering="auto"
    stroke-miterlimit="10" stroke-linecap="square"
    stroke-linejoin="miter" font-style="normal" height="663"
    stroke-width="1" stroke-dashoffset="0" font-weight="normal" stroke-opacity="1">
    <!--Generated by the Batik Graphics2D SVG Generator-->
    <defs id="genericDefs"/>
    <g>
        <defs id="defs1">
            <clipPath clipPathUnits="userSpaceOnUse" id="clipPath1">
                <path d="M-1 -1 L771 -1 L771 584 L-1 584 L-1 -1 Z"/>
            </clipPath>
            <clipPath clipPathUnits="userSpaceOnUse" id="clipPath2">
                <path d="M5 5 L70 5 L70 24 L5 24 L5 5 Z"/>
            </clipPath>
            <clipPath clipPathUnits="userSpaceOnUse" id="clipPath3">
                <path d="M70 5 L141 5 L141 24 L70 24 L70 5 Z"/>
            </clipPath>
            <clipPath clipPathUnits="userSpaceOnUse" id="clipPath4">
                <path d="M35 359 L193 359 L193 402 L35 402 L35 359 Z"/>
            </clipPath>
            <clipPath clipPathUnits="userSpaceOnUse" id="clipPath5">
                <path d="M39 361 L188 361 L188 380 L39 380 L39 361 Z"/>
            </clipPath>
            <clipPath clipPathUnits="userSpaceOnUse" id="clipPath6">
                <path d="M37 378 L191 378 L191 390 L37 390 L37 378 Z"/>
            </clipPath>
            <clipPath clipPathUnits="userSpaceOnUse" id="clipPath7">
                <path d="M37 388 L191 388 L191 400 L37 400 L37 388 Z"/>
            </clipPath>
            <clipPath clipPathUnits="userSpaceOnUse" id="clipPath8">
                <path d="M121 419 L228 419 L228 462 L121 462 L121 419 Z"/>
            </clipPath>
            <clipPath clipPathUnits="userSpaceOnUse" id="clipPath9">
                <path d="M127 421 L222 421 L222 440 L127 440 L127 421 Z"/>
            </clipPath>
            <clipPath clipPathUnits="userSpaceOnUse" id="clipPath10">
                <path d="M123 438 L226 438 L226 450 L123 450 L123 438 Z"/>
            </clipPath>
            <clipPath clipPathUnits="userSpaceOnUse" id="clipPath11">
                <path d="M123 448 L226 448 L226 460 L123 460 L123 448 Z"/>
            </clipPath>
            <clipPath clipPathUnits="userSpaceOnUse" id="clipPath12">
                <path d="M97 223 L633 223 L633 322 L97 322 L97 223 Z"/>
            </clipPath>
            <clipPath clipPathUnits="userSpaceOnUse" id="clipPath13">
                <path d="M321 225 L408 225 L408 240 L321 240 L321 225 Z"/>
            </clipPath>
            <clipPath clipPathUnits="userSpaceOnUse" id="clipPath14">
                <path d="M303 240 L426 240 L426 255 L303 255 L303 240 Z"/>
            </clipPath>
            <clipPath clipPathUnits="userSpaceOnUse" id="clipPath15">
                <path d="M322 255 L407 255 L407 270 L322 270 L322 255 Z"/>
            </clipPath>
            <clipPath clipPathUnits="userSpaceOnUse" id="clipPath16">
                <path d="M99 268 L631 268 L631 280 L99 280 L99 268 Z"/>
            </clipPath>
            <clipPath clipPathUnits="userSpaceOnUse" id="clipPath17">
                <path d="M100 281 L113 281 L113 300 L100 300 L100 281 Z"/>
            </clipPath>
            <clipPath clipPathUnits="userSpaceOnUse" id="clipPath18">
                <path d="M113 281 L195 281 L195 300 L113 300 L113 281 Z"/>
            </clipPath>
            <clipPath clipPathUnits="userSpaceOnUse" id="clipPath19">
                <path d="M195 281 L365 281 L365 300 L195 300 L195 281 Z"/>
            </clipPath>
            <clipPath clipPathUnits="userSpaceOnUse" id="clipPath20">
                <path d="M100 300 L113 300 L113 319 L100 319 L100 300 Z"/>
            </clipPath>
            <clipPath clipPathUnits="userSpaceOnUse" id="clipPath21">
                <path d="M113 300 L201 300 L201 319 L113 319 L113 300 Z"/>
            </clipPath>
            <clipPath clipPathUnits="userSpaceOnUse" id="clipPath22">
                <path d="M201 300 L473 300 L473 319 L201 319 L201 300 Z"/>
            </clipPath>
            <clipPath clipPathUnits="userSpaceOnUse" id="clipPath23">
                <path d="M99 278 L631 278 L631 320 L99 320 L99 278 Z"/>
            </clipPath>
            <clipPath clipPathUnits="userSpaceOnUse" id="clipPath24">
                <path d="M445 504 L648 504 L648 547 L445 547 L445 504 Z"/>
            </clipPath>
            <clipPath clipPathUnits="userSpaceOnUse" id="clipPath25">
                <path d="M449 506 L644 506 L644 525 L449 525 L449 506 Z"/>
            </clipPath>
            <clipPath clipPathUnits="userSpaceOnUse" id="clipPath26">
                <path d="M447 523 L646 523 L646 535 L447 535 L447 523 Z"/>
            </clipPath>
            <clipPath clipPathUnits="userSpaceOnUse" id="clipPath27">
                <path d="M447 533 L646 533 L646 545 L447 545 L447 533 Z"/>
            </clipPath>
            <clipPath clipPathUnits="userSpaceOnUse" id="clipPath28">
                <path d="M610 131 L761 131 L761 212 L610 212 L610 131 Z"/>
            </clipPath>
            <clipPath clipPathUnits="userSpaceOnUse" id="clipPath29">
                <path d="M633 133 L738 133 L738 152 L633 152 L633 133 Z"/>
            </clipPath>
            <clipPath clipPathUnits="userSpaceOnUse" id="clipPath30">
                <path d="M616 152 L755 152 L755 171 L616 171 L616 152 Z"/>
            </clipPath>
            <clipPath clipPathUnits="userSpaceOnUse" id="clipPath31">
                <path d="M637 171 L734 171 L734 190 L637 190 L637 171 Z"/>
            </clipPath>
            <clipPath clipPathUnits="userSpaceOnUse" id="clipPath32">
                <path d="M612 188 L759 188 L759 200 L612 200 L612 188 Z"/>
            </clipPath>
            <clipPath clipPathUnits="userSpaceOnUse" id="clipPath33">
                <path d="M612 198 L759 198 L759 210 L612 210 L612 198 Z"/>
            </clipPath>
            <clipPath clipPathUnits="userSpaceOnUse" id="clipPath34">
                <path d="M29 122 L305 122 L305 203 L29 203 L29 122 Z"/>
            </clipPath>
            <clipPath clipPathUnits="userSpaceOnUse" id="clipPath35">
                <path d="M114 124 L219 124 L219 143 L114 143 L114 124 Z"/>
            </clipPath>
            <clipPath clipPathUnits="userSpaceOnUse" id="clipPath36">
                <path d="M33 143 L301 143 L301 162 L33 162 L33 143 Z"/>
            </clipPath>
            <clipPath clipPathUnits="userSpaceOnUse" id="clipPath37">
                <path d="M118 162 L215 162 L215 181 L118 181 L118 162 Z"/>
            </clipPath>
            <clipPath clipPathUnits="userSpaceOnUse" id="clipPath38">
                <path d="M31 179 L303 179 L303 191 L31 191 L31 179 Z"/>
            </clipPath>
            <clipPath clipPathUnits="userSpaceOnUse" id="clipPath39">
                <path d="M31 189 L303 189 L303 201 L31 201 L31 189 Z"/>
            </clipPath>
            <clipPath clipPathUnits="userSpaceOnUse" id="clipPath40">
                <path d="M490 435 L649 435 L649 478 L490 478 L490 435 Z"/>
            </clipPath>
            <clipPath clipPathUnits="userSpaceOnUse" id="clipPath41">
                <path d="M494 437 L644 437 L644 456 L494 456 L494 437 Z"/>
            </clipPath>
            <clipPath clipPathUnits="userSpaceOnUse" id="clipPath42">
                <path d="M492 454 L647 454 L647 466 L492 466 L492 454 Z"/>
            </clipPath>
            <clipPath clipPathUnits="userSpaceOnUse" id="clipPath43">
                <path d="M492 464 L647 464 L647 476 L492 476 L492 464 Z"/>
            </clipPath>
            <clipPath clipPathUnits="userSpaceOnUse" id="clipPath44">
                <path d="M607 37 L761 37 L761 97 L607 97 L607 37 Z"/>
            </clipPath>
            <clipPath clipPathUnits="userSpaceOnUse" id="clipPath45">
                <path d="M610 41 L747 41 L747 94 L610 94 L610 41 Z"/>
            </clipPath>
            <clipPath clipPathUnits="userSpaceOnUse" id="clipPath46">
                <path d="M82 474 L276 474 L276 517 L82 517 L82 474 Z"/>
            </clipPath>
            <clipPath clipPathUnits="userSpaceOnUse" id="clipPath47">
                <path d="M86 476 L271 476 L271 495 L86 495 L86 476 Z"/>
            </clipPath>
            <clipPath clipPathUnits="userSpaceOnUse" id="clipPath48">
                <path d="M84 493 L274 493 L274 505 L84 505 L84 493 Z"/>
            </clipPath>
            <clipPath clipPathUnits="userSpaceOnUse" id="clipPath49">
                <path d="M84 503 L274 503 L274 515 L84 515 L84 503 Z"/>
            </clipPath>
            <clipPath clipPathUnits="userSpaceOnUse" id="clipPath50">
                <path d="M121 531 L337 531 L337 574 L121 574 L121 531 Z"/>
            </clipPath>
            <clipPath clipPathUnits="userSpaceOnUse" id="clipPath51">
                <path d="M125 533 L333 533 L333 552 L125 552 L125 533 Z"/>
            </clipPath>
            <clipPath clipPathUnits="userSpaceOnUse" id="clipPath52">
                <path d="M123 550 L335 550 L335 562 L123 562 L123 550 Z"/>
            </clipPath>
            <clipPath clipPathUnits="userSpaceOnUse" id="clipPath53">
                <path d="M123 560 L335 560 L335 572 L123 572 L123 560 Z"/>
            </clipPath>
            <clipPath clipPathUnits="userSpaceOnUse" id="clipPath54">
                <path d="M509 372 L649 372 L649 415 L509 415 L509 372 Z"/>
            </clipPath>
            <clipPath clipPathUnits="userSpaceOnUse" id="clipPath55">
                <path d="M514 374 L643 374 L643 393 L514 393 L514 374 Z"/>
            </clipPath>
            <clipPath clipPathUnits="userSpaceOnUse" id="clipPath56">
                <path d="M511 391 L647 391 L647 403 L511 403 L511 391 Z"/>
            </clipPath>
            <clipPath clipPathUnits="userSpaceOnUse" id="clipPath57">
                <path d="M511 401 L647 401 L647 413 L511 413 L511 401 Z"/>
            </clipPath>
            <clipPath clipPathUnits="userSpaceOnUse" id="clipPath58">
                <path d="M122 307 L163 307 L163 375 L122 375 L122 307 Z"/>
            </clipPath>
            <clipPath clipPathUnits="userSpaceOnUse" id="clipPath59">
                <path d="M135 320 L150 320 L150 337 L135 337 L135 320 Z"/>
            </clipPath>
            <clipPath clipPathUnits="userSpaceOnUse" id="clipPath60">
                <path d="M-1 188 L327 188 L327 375 L-1 375 L-1 188 Z"/>
            </clipPath>
            <clipPath clipPathUnits="userSpaceOnUse" id="clipPath61">
                <path d="M47 211 L57 211 L57 230 L47 230 L47 211 Z"/>
            </clipPath>
            <clipPath clipPathUnits="userSpaceOnUse" id="clipPath62">
                <path d="M60 339 L73 339 L73 362 L60 362 L60 339 Z"/>
            </clipPath>
            <clipPath clipPathUnits="userSpaceOnUse" id="clipPath63">
                <path d="M183 307 L224 307 L224 435 L183 435 L183 307 Z"/>
            </clipPath>
            <clipPath clipPathUnits="userSpaceOnUse" id="clipPath64">
                <path d="M196 320 L211 320 L211 337 L196 337 L196 320 Z"/>
            </clipPath>
            <clipPath clipPathUnits="userSpaceOnUse" id="clipPath65">
                <path d="M435 307 L476 307 L476 520 L435 520 L435 307 Z"/>
            </clipPath>
            <clipPath clipPathUnits="userSpaceOnUse" id="clipPath66">
                <path d="M448 320 L463 320 L463 337 L448 337 L448 320 Z"/>
            </clipPath>
            <clipPath clipPathUnits="userSpaceOnUse" id="clipPath67">
                <path d="M476 307 L517 307 L517 451 L476 451 L476 307 Z"/>
            </clipPath>
            <clipPath clipPathUnits="userSpaceOnUse" id="clipPath68">
                <path d="M489 320 L504 320 L504 337 L489 337 L489 320 Z"/>
            </clipPath>
            <clipPath clipPathUnits="userSpaceOnUse" id="clipPath69">
                <path d="M284 307 L325 307 L325 547 L284 547 L284 307 Z"/>
            </clipPath>
            <clipPath clipPathUnits="userSpaceOnUse" id="clipPath70">
                <path d="M297 320 L312 320 L312 337 L297 337 L297 320 Z"/>
            </clipPath>
            <clipPath clipPathUnits="userSpaceOnUse" id="clipPath71">
                <path d="M523 307 L564 307 L564 388 L523 388 L523 307 Z"/>
            </clipPath>
            <clipPath clipPathUnits="userSpaceOnUse" id="clipPath72">
                <path d="M536 320 L551 320 L551 337 L536 337 L536 320 Z"/>
            </clipPath>
            <clipPath clipPathUnits="userSpaceOnUse" id="clipPath73">
                <path d="M593 197 L985 197 L985 663 L593 663 L593 197 Z"/>
            </clipPath>
            <clipPath clipPathUnits="userSpaceOnUse" id="clipPath74">
                <path d="M732 218 L742 218 L742 237 L732 237 L732 218 Z"/>
            </clipPath>
            <clipPath clipPathUnits="userSpaceOnUse" id="clipPath75">
                <path d="M646 512 L669 512 L669 525 L646 525 L646 512 Z"/>
            </clipPath>
            <clipPath clipPathUnits="userSpaceOnUse" id="clipPath76">
                <path d="M618 197 L940 197 L940 434 L618 434 L618 197 Z"/>
            </clipPath>
            <clipPath clipPathUnits="userSpaceOnUse" id="clipPath77">
                <path d="M669 218 L679 218 L679 237 L669 237 L669 218 Z"/>
            </clipPath>
            <clipPath clipPathUnits="userSpaceOnUse" id="clipPath78">
                <path d="M647 387 L670 387 L670 400 L647 400 L647 387 Z"/>
            </clipPath>
            <clipPath clipPathUnits="userSpaceOnUse" id="clipPath79">
                <path d="M240 125 L676 125 L676 207 L240 207 L240 125 Z"/>
            </clipPath>
            <clipPath clipPathUnits="userSpaceOnUse" id="clipPath80">
                <path d="M593 172 L603 172 L603 191 L593 191 L593 172 Z"/>
            </clipPath>
            <clipPath clipPathUnits="userSpaceOnUse" id="clipPath81">
                <path d="M303 160 L326 160 L326 173 L303 173 L303 160 Z"/>
            </clipPath>
            <clipPath clipPathUnits="userSpaceOnUse" id="clipPath82">
                <path d="M569 197 L907 197 L907 502 L569 502 L569 197 Z"/>
            </clipPath>
            <clipPath clipPathUnits="userSpaceOnUse" id="clipPath83">
                <path d="M702 218 L712 218 L712 237 L702 237 L702 218 Z"/>
            </clipPath>
            <clipPath clipPathUnits="userSpaceOnUse" id="clipPath84">
                <path d="M647 455 L670 455 L670 468 L647 468 L647 455 Z"/>
            </clipPath>
            <clipPath clipPathUnits="userSpaceOnUse" id="clipPath85">
                <path d="M666 82 L695 82 L695 147 L666 147 L666 82 Z"/>
            </clipPath>
            <clipPath clipPathUnits="userSpaceOnUse" id="clipPath86">
                <path d="M230 307 L271 307 L271 490 L230 490 L230 307 Z"/>
            </clipPath>
            <clipPath clipPathUnits="userSpaceOnUse" id="clipPath87">
                <path d="M243 320 L258 320 L258 337 L243 337 L243 320 Z"/>
            </clipPath>
        </defs>
        <g font-size="15" fill="white" font-family="'Ubuntu'"
            stroke-linejoin="round" stroke="white" stroke-width="0" stroke-miterlimit="0">
            <rect x="0" y="0" clip-path="url(#clipPath1)" width="770"
                height="583" stroke="none"/>
        </g>
        <g stroke-width="0.1" font-size="15" font-family="'Ubuntu'" stroke-linecap="butt">
            <line clip-path="url(#clipPath1)" fill="none" x1="1"
                x2="145" y1="31" y2="31"/>
            <line clip-path="url(#clipPath1)" fill="none" x1="145"
                x2="152" y1="31" y2="17"/>
            <line clip-path="url(#clipPath1)" fill="none" x1="152"
                x2="152" y1="17" y2="1"/>
            <text x="6" y="20" clip-path="url(#clipPath2)" stroke="none"
                font-weight="bold" xml:space="preserve">package </text>
            <text font-size="13" x="71" y="19"
                clip-path="url(#clipPath3)" font-family="'Dialog'"
                stroke="none" xml:space="preserve">realization</text>
            <rect x="36" y="360" clip-path="url(#clipPath4)"
                fill="rgb(237,247,200)" width="156" height="41" stroke="none"/>
            <text font-size="13" x="40" y="375"
                clip-path="url(#clipPath5)" font-family="'Dialog'"
                stroke="none" font-weight="bold" xml:space="preserve">OrbitDetermination</text>
            <line clip-path="url(#clipPath6)" fill="none" x1="38"
                x2="190" y1="379" y2="379"/>
            <line clip-path="url(#clipPath7)" fill="none" x1="38"
                x2="190" y1="389" y2="389"/>
            <rect x="36" y="360" clip-path="url(#clipPath4)" fill="none"
                width="155" height="40" stroke-width="1.1"/>
            <rect x="122" y="420" clip-path="url(#clipPath8)"
                fill="rgb(200,230,255)" width="105" height="41"
                stroke="none" stroke-width="1.1"/>
        </g>
        <g stroke-width="1.1" font-size="13" font-weight="bold" stroke-linecap="butt">
            <text xml:space="preserve" x="128" y="435"
                clip-path="url(#clipPath9)" stroke="none">Propagation</text>
        </g>
        <g stroke-width="0.1" font-size="15" font-family="'Ubuntu'" stroke-linecap="butt">
            <line clip-path="url(#clipPath10)" fill="none" x1="124"
                x2="225" y1="439" y2="439"/>
            <line clip-path="url(#clipPath11)" fill="none" x1="124"
                x2="225" y1="449" y2="449"/>
            <rect x="122" y="420" clip-path="url(#clipPath8)"
                fill="none" width="104" height="40" stroke-width="1.1"/>
            <rect x="98" y="224" clip-path="url(#clipPath12)"
                fill="white" width="534" height="97" stroke="none" stroke-width="1.1"/>
            <text font-size="11" x="322" y="237"
                clip-path="url(#clipPath13)" font-family="'Dialog'"
                stroke="none" stroke-width="1.1" xml:space="preserve">&lt;&lt;interface&gt;&gt;</text>
        </g>
        <g stroke-width="1.1" font-size="11" font-weight="bold" stroke-linecap="butt">
            <text xml:space="preserve" x="304" y="252"
                clip-path="url(#clipPath14)" stroke="none">ScenarioComponent</text>
            <text x="323" y="267" clip-path="url(#clipPath15)"
                stroke="none" font-weight="normal" xml:space="preserve">(from scenario)</text>
        </g>
        <g stroke-width="0.1" font-size="15" font-family="'Ubuntu'" stroke-linecap="butt">
            <line clip-path="url(#clipPath16)" fill="none" x1="100"
                x2="630" y1="269" y2="269"/>
            <text font-size="13" x="101" y="295"
                clip-path="url(#clipPath17)" font-family="'Dialog'"
                stroke="none" xml:space="preserve">+</text>
            <text font-size="13" x="114" y="295"
                clip-path="url(#clipPath18)" font-family="'Dialog'"
                stroke="none" xml:space="preserve">setCycleEnd</text>
            <text font-size="13" x="196" y="295"
                clip-path="url(#clipPath19)" font-family="'Dialog'"
                stroke="none" xml:space="preserve">(cycleEnd : AbsoluteDate)</text>
            <text font-size="13" x="101" y="314"
                clip-path="url(#clipPath20)" font-family="'Dialog'"
                stroke="none" xml:space="preserve">+</text>
            <text font-size="13" x="114" y="314"
                clip-path="url(#clipPath21)" font-family="'Dialog'"
                stroke="none" xml:space="preserve">updateStates</text>
            <text font-size="13" x="202" y="314"
                clip-path="url(#clipPath22)" font-family="'Dialog'"
                stroke="none" xml:space="preserve">(originals : ScenarioState) : ScenarioState</text>
            <line clip-path="url(#clipPath23)" fill="none" x1="100"
                x2="630" y1="279" y2="279"/>
            <rect x="98" y="224" clip-path="url(#clipPath12)"
                fill="none" width="533" height="96" stroke-width="1.1"/>
            <rect x="446" y="505" clip-path="url(#clipPath24)"
                fill="rgb(200,230,255)" width="201" height="41"
                stroke="none" stroke-width="1.1"/>
        </g>
        <g stroke-width="1.1" font-size="13" font-weight="bold" stroke-linecap="butt">
            <text xml:space="preserve" x="450" y="520"
                clip-path="url(#clipPath25)" stroke="none">ManeuverMagnitudeError</text>
        </g>
        <g stroke-width="0.1" font-size="15" font-family="'Ubuntu'" stroke-linecap="butt">
            <line clip-path="url(#clipPath26)" fill="none" x1="448"
                x2="645" y1="524" y2="524"/>
            <line clip-path="url(#clipPath27)" fill="none" x1="448"
                x2="645" y1="534" y2="534"/>
            <rect x="446" y="505" clip-path="url(#clipPath24)"
                fill="none" width="200" height="40" stroke-width="1.1"/>
            <rect x="611" y="132" clip-path="url(#clipPath28)"
                fill="rgb(243,232,255)" width="149" height="79"
                stroke="none" stroke-width="1.1"/>
        </g>
        <g fill="rgb(41,0,141)" stroke-width="1.1" font-size="13"
            stroke-linecap="butt" stroke="rgb(41,0,141)">
            <text xml:space="preserve" x="634" y="147"
                clip-path="url(#clipPath29)" stroke="none">&lt;&lt;dataType&gt;&gt;</text>
            <text x="617" y="166" clip-path="url(#clipPath30)"
                stroke="none" font-weight="bold" xml:space="preserve">RandomGenerator</text>
            <text xml:space="preserve" x="638" y="185"
                clip-path="url(#clipPath31)" stroke="none">(from random)</text>
            <line clip-path="url(#clipPath32)" fill="none" x1="613"
                x2="758" y1="189" y2="189" stroke-width="0.1"/>
            <line clip-path="url(#clipPath33)" fill="none" x1="613"
                x2="758" y1="199" y2="199" stroke-width="0.1"/>
            <rect x="611" y="132" clip-path="url(#clipPath28)"
                fill="none" width="148" height="78"/>
        </g>
        <g font-size="15" stroke-linecap="butt" fill="rgb(243,232,255)"
            font-family="'Ubuntu'" stroke="rgb(243,232,255)" stroke-width="1.1">
            <rect x="30" y="123" clip-path="url(#clipPath34)"
                width="274" height="79" stroke="none"/>
        </g>
        <g fill="rgb(41,0,141)" stroke-width="1.1" font-size="13"
            stroke-linecap="butt" stroke="rgb(41,0,141)">
            <text xml:space="preserve" x="115" y="138"
                clip-path="url(#clipPath35)" stroke="none">&lt;&lt;dataType&gt;&gt;</text>
            <text x="34" y="157" clip-path="url(#clipPath36)"
                stroke="none" font-weight="bold" xml:space="preserve">CorrelatedRandomVectorGenerator</text>
            <text xml:space="preserve" x="119" y="176"
                clip-path="url(#clipPath37)" stroke="none">(from random)</text>
            <line clip-path="url(#clipPath38)" fill="none" x1="32"
                x2="302" y1="180" y2="180" stroke-width="0.1"/>
            <line clip-path="url(#clipPath39)" fill="none" x1="32"
                x2="302" y1="190" y2="190" stroke-width="0.1"/>
            <rect x="30" y="123" clip-path="url(#clipPath34)"
                fill="none" width="273" height="78"/>
        </g>
        <g font-size="15" stroke-linecap="butt" fill="rgb(200,230,255)"
            font-family="'Ubuntu'" stroke="rgb(200,230,255)" stroke-width="1.1">
            <rect x="491" y="436" clip-path="url(#clipPath40)"
                width="157" height="41" stroke="none"/>
        </g>
        <g stroke-width="1.1" font-size="13" font-weight="bold" stroke-linecap="butt">
            <text xml:space="preserve" x="495" y="451"
                clip-path="url(#clipPath41)" stroke="none">ManeuverDateError</text>
        </g>
        <g stroke-width="0.1" font-size="15" font-family="'Ubuntu'" stroke-linecap="butt">
            <line clip-path="url(#clipPath42)" fill="none" x1="493"
                x2="646" y1="455" y2="455"/>
            <line clip-path="url(#clipPath43)" fill="none" x1="493"
                x2="646" y1="465" y2="465"/>
            <rect x="491" y="436" clip-path="url(#clipPath40)"
                fill="none" width="156" height="40" stroke-width="1.1"/>
        </g>
        <g fill="rgb(255,195,0)" stroke-width="1.1" font-size="13"
            stroke-linecap="butt" stroke="rgb(255,195,0)">
            <polygon clip-path="url(#clipPath44)"
                points=" 608 38 750 38 759 48 759 95 608 95" stroke="none"/>
            <polygon fill="none" stroke-width="0.1"
                clip-path="url(#clipPath44)"
                points=" 749 38 749 48 759 48 749 38 608 38 608 95 759 95 759 48" stroke="black"/>
            <text x="611" y="55" clip-path="url(#clipPath45)"
                fill="black" stroke="none" stroke-width="0.1" xml:space="preserve">a single instance of</text>
            <text x="611" y="72" clip-path="url(#clipPath45)"
                fill="black" stroke="none" stroke-width="0.1" xml:space="preserve">RandomGenerator is</text>
            <text x="611" y="89" clip-path="url(#clipPath45)"
                fill="black" stroke="none" stroke-width="0.1" xml:space="preserve">shared by all objects</text>
        </g>
        <g font-size="15" stroke-linecap="butt" fill="rgb(200,230,255)"
            font-family="'Ubuntu'" stroke="rgb(200,230,255)" stroke-width="0.1">
            <rect x="83" y="475" clip-path="url(#clipPath46)"
                width="192" height="41" stroke="none"/>
        </g>
        <g stroke-width="0.1" font-size="13" font-weight="bold" stroke-linecap="butt">
            <text xml:space="preserve" x="87" y="490"
                clip-path="url(#clipPath47)" stroke="none">ManeuverCrossCoupling</text>
            <line clip-path="url(#clipPath48)" fill="none" x1="85"
                x2="273" y1="494" y2="494"/>
            <line clip-path="url(#clipPath49)" fill="none" x1="85"
                x2="273" y1="504" y2="504"/>
        </g>
        <g stroke-width="1.1" font-size="15" font-family="'Ubuntu'" stroke-linecap="butt">
            <rect x="83" y="475" clip-path="url(#clipPath46)"
                fill="none" width="191" height="40"/>
            <rect x="122" y="532" clip-path="url(#clipPath50)"
                fill="rgb(200,230,255)" width="214" height="41" stroke="none"/>
            <text font-size="13" x="126" y="547"
                clip-path="url(#clipPath51)" font-family="'Dialog'"
                stroke="none" font-weight="bold" xml:space="preserve">ManeuverEclipseConstraint</text>
            <line clip-path="url(#clipPath52)" fill="none" x1="124"
                x2="334" y1="551" y2="551" stroke-width="0.1"/>
            <line clip-path="url(#clipPath53)" fill="none" x1="124"
                x2="334" y1="561" y2="561" stroke-width="0.1"/>
            <rect x="122" y="532" clip-path="url(#clipPath50)"
                fill="none" width="213" height="40"/>
            <rect x="510" y="373" clip-path="url(#clipPath54)"
                fill="rgb(200,230,255)" width="138" height="41" stroke="none"/>
            <text font-size="13" x="515" y="388"
                clip-path="url(#clipPath55)" font-family="'Dialog'"
                stroke="none" font-weight="bold" xml:space="preserve">MissedManeuver</text>
            <line clip-path="url(#clipPath56)" fill="none" x1="512"
                x2="646" y1="392" y2="392" stroke-width="0.1"/>
            <line clip-path="url(#clipPath57)" fill="none" x1="512"
                x2="646" y1="402" y2="402" stroke-width="0.1"/>
            <rect x="510" y="373" clip-path="url(#clipPath54)"
                fill="none" width="137" height="40"/>
            <rect x="0" y="0" clip-path="url(#clipPath1)" fill="none"
                width="769" height="582"/>
            <line clip-path="url(#clipPath58)" fill="none" x1="142"
                x2="142" y1="360" y2="321" stroke-dasharray="8,7"/>
        </g>
        <g font-size="11" stroke-linecap="butt" fill="white"
            stroke-dasharray="8,7" stroke="white" stroke-width="1.1">
            <polygon clip-path="url(#clipPath59)"
                points=" 142 321 148 335 136 335" stroke="none"/>
            <polygon fill="none" stroke-dasharray="none"
                clip-path="url(#clipPath59)"
                points=" 142 321 148 335 136 335" stroke="black"/>
        </g>
        <g stroke-width="1.1" font-size="13" stroke-linecap="butt">
            <line clip-path="url(#clipPath60)" fill="none" x1="66"
                x2="66" y1="360" y2="202"/>
            <text xml:space="preserve" x="48" y="225"
                clip-path="url(#clipPath61)" stroke="none">1</text>
            <polygon fill="white" clip-path="url(#clipPath62)"
                points=" 66 360 61 350 66 340 71 350" stroke="none"/>
            <polygon fill="none" clip-path="url(#clipPath62)" points=" 66 360 61 350 66 340 71 350"/>
            <line clip-path="url(#clipPath63)" fill="none" x1="203"
                x2="203" y1="420" y2="321" stroke-dasharray="8,7"/>
        </g>
        <g font-size="11" stroke-linecap="butt" fill="white"
            stroke-dasharray="8,7" stroke="white" stroke-width="1.1">
            <polygon clip-path="url(#clipPath64)"
                points=" 203 321 209 335 197 335" stroke="none"/>
            <polygon fill="none" stroke-dasharray="none"
                clip-path="url(#clipPath64)"
                points=" 203 321 209 335 197 335" stroke="black"/>
            <line clip-path="url(#clipPath65)" fill="none" x1="455"
                x2="455" y1="505" y2="321" stroke="black"/>
            <polygon clip-path="url(#clipPath66)"
                points=" 455 321 461 335 449 335" stroke="none"/>
            <polygon fill="none" stroke-dasharray="none"
                clip-path="url(#clipPath66)"
                points=" 455 321 461 335 449 335" stroke="black"/>
            <line clip-path="url(#clipPath67)" fill="none" x1="496"
                x2="496" y1="436" y2="321" stroke="black"/>
            <polygon clip-path="url(#clipPath68)"
                points=" 496 321 502 335 490 335" stroke="none"/>
            <polygon fill="none" stroke-dasharray="none"
                clip-path="url(#clipPath68)"
                points=" 496 321 502 335 490 335" stroke="black"/>
            <line clip-path="url(#clipPath69)" fill="none" x1="304"
                x2="304" y1="532" y2="321" stroke="black"/>
            <polygon clip-path="url(#clipPath70)"
                points=" 304 321 310 335 298 335" stroke="none"/>
            <polygon fill="none" stroke-dasharray="none"
                clip-path="url(#clipPath70)"
                points=" 304 321 310 335 298 335" stroke="black"/>
            <line clip-path="url(#clipPath71)" fill="none" x1="543"
                x2="543" y1="373" y2="321" stroke="black"/>
            <polygon clip-path="url(#clipPath72)"
                points=" 543 321 549 335 537 335" stroke="none"/>
            <polygon fill="none" stroke-dasharray="none"
                clip-path="url(#clipPath72)"
                points=" 543 321 549 335 537 335" stroke="black"/>
        </g>
        <g stroke-width="1.1" font-size="13" stroke-linecap="butt">
            <line clip-path="url(#clipPath73)" fill="none" x1="647"
                x2="743" y1="518" y2="518"/>
            <line clip-path="url(#clipPath73)" fill="none" x1="743"
                x2="743" y1="518" y2="211"/>
            <text xml:space="preserve" x="733" y="232"
                clip-path="url(#clipPath74)" stroke="none">1</text>
            <polygon fill="white" clip-path="url(#clipPath75)"
                points=" 647 518 657 513 667 518 657 523" stroke="none"/>
            <polygon fill="none" clip-path="url(#clipPath75)" points=" 647 518 657 513 667 518 657 523"/>
            <line clip-path="url(#clipPath76)" fill="none" x1="685"
                x2="685" y1="211" y2="393"/>
            <line clip-path="url(#clipPath76)" fill="none" x1="685"
                x2="648" y1="393" y2="393"/>
            <text xml:space="preserve" x="670" y="232"
                clip-path="url(#clipPath77)" stroke="none">1</text>
            <polygon fill="white" clip-path="url(#clipPath78)"
                points=" 648 393 658 388 668 393 658 398" stroke="none"/>
            <polygon fill="none" clip-path="url(#clipPath78)" points=" 648 393 658 388 668 393 658 398"/>
            <line clip-path="url(#clipPath79)" fill="none" x1="304"
                x2="611" y1="166" y2="166"/>
            <text xml:space="preserve" x="594" y="186"
                clip-path="url(#clipPath80)" stroke="none">1</text>
            <polygon fill="white" clip-path="url(#clipPath81)"
                points=" 304 166 314 161 324 166 314 171" stroke="none"/>
            <polygon fill="none" clip-path="url(#clipPath81)" points=" 304 166 314 161 324 166 314 171"/>
            <line clip-path="url(#clipPath82)" fill="none" x1="648"
                x2="715" y1="461" y2="461"/>
            <line clip-path="url(#clipPath82)" fill="none" x1="715"
                x2="715" y1="461" y2="211"/>
            <text xml:space="preserve" x="703" y="232"
                clip-path="url(#clipPath83)" stroke="none">1</text>
            <polygon fill="white" clip-path="url(#clipPath84)"
                points=" 648 461 658 456 668 461 658 466" stroke="none"/>
            <polygon fill="none" clip-path="url(#clipPath84)" points=" 648 461 658 456 668 461 658 466"/>
            <line clip-path="url(#clipPath85)" fill="none" x1="680"
                x2="680" y1="96" y2="111" stroke-dasharray="8,7" stroke="rgb(255,195,0)"/>
            <line clip-path="url(#clipPath85)" fill="none" x1="680"
                x2="680" y1="111" y2="132" stroke-dasharray="8,7" stroke="rgb(255,195,0)"/>
            <line clip-path="url(#clipPath86)" fill="none" x1="250"
                x2="250" y1="475" y2="321" stroke-dasharray="8,7"/>
        </g>
        <g font-size="11" stroke-linecap="butt" fill="white"
            stroke-dasharray="8,7" stroke="white" stroke-width="1.1">
            <polygon clip-path="url(#clipPath87)"
                points=" 250 321 256 335 244 335" stroke="none"/>
            <polygon fill="none" stroke-dasharray="none"
                clip-path="url(#clipPath87)"
                points=" 250 321 256 335 244 335" stroke="black"/>
        </g>
    </g>
</svg>
