<?xml version="1.0" encoding="UTF-8"?>
<svg stroke-dasharray="none" shape-rendering="auto"
    font-family="'Dialog'" width="1795" text-rendering="auto"
    fill-opacity="1" color-interpolation="auto" color-rendering="auto"
    font-size="12" fill="black" stroke="black" image-rendering="auto"
    stroke-miterlimit="10" stroke-linecap="square"
    stroke-linejoin="miter" font-style="normal" height="1149"
    stroke-width="1" stroke-dashoffset="0" font-weight="normal" stroke-opacity="1">
    <!--Generated by the Batik Graphics2D SVG Generator-->
    <defs id="genericDefs"/>
    <g>
        <defs id="defs1">
            <clipPath clipPathUnits="userSpaceOnUse" id="clipPath1">
                <path d="M-1 -1 L1641 -1 L1641 1149 L-1 1149 L-1 -1 Z"/>
            </clipPath>
            <clipPath clipPathUnits="userSpaceOnUse" id="clipPath2">
                <path d="M5 7 L65 7 L65 22 L5 22 L5 7 Z"/>
            </clipPath>
            <clipPath clipPathUnits="userSpaceOnUse" id="clipPath3">
                <path d="M65 5 L133 5 L133 24 L65 24 L65 5 Z"/>
            </clipPath>
            <clipPath clipPathUnits="userSpaceOnUse" id="clipPath4">
                <path d="M19 306 L177 306 L177 349 L19 349 L19 306 Z"/>
            </clipPath>
            <clipPath clipPathUnits="userSpaceOnUse" id="clipPath5">
                <path d="M26 308 L170 308 L170 327 L26 327 L26 308 Z"/>
            </clipPath>
            <clipPath clipPathUnits="userSpaceOnUse" id="clipPath6">
                <path d="M21 325 L175 325 L175 337 L21 337 L21 325 Z"/>
            </clipPath>
            <clipPath clipPathUnits="userSpaceOnUse" id="clipPath7">
                <path d="M21 335 L175 335 L175 347 L21 347 L21 335 Z"/>
            </clipPath>
            <clipPath clipPathUnits="userSpaceOnUse" id="clipPath8">
                <path d="M214 306 L321 306 L321 349 L214 349 L214 306 Z"/>
            </clipPath>
            <clipPath clipPathUnits="userSpaceOnUse" id="clipPath9">
                <path d="M221 308 L314 308 L314 327 L221 327 L221 308 Z"/>
            </clipPath>
            <clipPath clipPathUnits="userSpaceOnUse" id="clipPath10">
                <path d="M216 325 L319 325 L319 337 L216 337 L216 325 Z"/>
            </clipPath>
            <clipPath clipPathUnits="userSpaceOnUse" id="clipPath11">
                <path d="M216 335 L319 335 L319 347 L216 347 L216 335 Z"/>
            </clipPath>
            <clipPath clipPathUnits="userSpaceOnUse" id="clipPath12">
                <path d="M124 147 L646 147 L646 227 L124 227 L124 147 Z"/>
            </clipPath>
            <clipPath clipPathUnits="userSpaceOnUse" id="clipPath13">
                <path d="M341 149 L429 149 L429 164 L341 164 L341 149 Z"/>
            </clipPath>
            <clipPath clipPathUnits="userSpaceOnUse" id="clipPath14">
                <path d="M319 164 L450 164 L450 179 L319 179 L319 164 Z"/>
            </clipPath>
            <clipPath clipPathUnits="userSpaceOnUse" id="clipPath15">
                <path d="M340 179 L430 179 L430 194 L340 194 L340 179 Z"/>
            </clipPath>
            <clipPath clipPathUnits="userSpaceOnUse" id="clipPath16">
                <path d="M126 192 L644 192 L644 204 L126 204 L126 192 Z"/>
            </clipPath>
            <clipPath clipPathUnits="userSpaceOnUse" id="clipPath17">
                <path d="M127 205 L140 205 L140 224 L127 224 L127 205 Z"/>
            </clipPath>
            <clipPath clipPathUnits="userSpaceOnUse" id="clipPath18">
                <path d="M140 205 L222 205 L222 224 L140 224 L140 205 Z"/>
            </clipPath>
            <clipPath clipPathUnits="userSpaceOnUse" id="clipPath19">
                <path d="M222 205 L632 205 L632 224 L222 224 L222 205 Z"/>
            </clipPath>
            <clipPath clipPathUnits="userSpaceOnUse" id="clipPath20">
                <path d="M126 202 L644 202 L644 225 L126 225 L126 202 Z"/>
            </clipPath>
            <clipPath clipPathUnits="userSpaceOnUse" id="clipPath21">
                <path d="M358 305 L500 305 L500 348 L358 348 L358 305 Z"/>
            </clipPath>
            <clipPath clipPathUnits="userSpaceOnUse" id="clipPath22">
                <path d="M365 307 L493 307 L493 326 L365 326 L365 307 Z"/>
            </clipPath>
            <clipPath clipPathUnits="userSpaceOnUse" id="clipPath23">
                <path d="M360 324 L498 324 L498 336 L360 336 L360 324 Z"/>
            </clipPath>
            <clipPath clipPathUnits="userSpaceOnUse" id="clipPath24">
                <path d="M360 334 L498 334 L498 346 L360 346 L360 334 Z"/>
            </clipPath>
            <clipPath clipPathUnits="userSpaceOnUse" id="clipPath25">
                <path d="M538 307 L743 307 L743 350 L538 350 L538 307 Z"/>
            </clipPath>
            <clipPath clipPathUnits="userSpaceOnUse" id="clipPath26">
                <path d="M545 309 L736 309 L736 328 L545 328 L545 309 Z"/>
            </clipPath>
            <clipPath clipPathUnits="userSpaceOnUse" id="clipPath27">
                <path d="M540 326 L741 326 L741 338 L540 338 L540 326 Z"/>
            </clipPath>
            <clipPath clipPathUnits="userSpaceOnUse" id="clipPath28">
                <path d="M540 336 L741 336 L741 348 L540 348 L540 336 Z"/>
            </clipPath>
            <clipPath clipPathUnits="userSpaceOnUse" id="clipPath29">
                <path d="M91 399 L289 399 L289 453 L91 453 L91 399 Z"/>
            </clipPath>
            <clipPath clipPathUnits="userSpaceOnUse" id="clipPath30">
                <path d="M146 401 L234 401 L234 416 L146 416 L146 401 Z"/>
            </clipPath>
            <clipPath clipPathUnits="userSpaceOnUse" id="clipPath31">
                <path d="M150 416 L229 416 L229 431 L150 431 L150 416 Z"/>
            </clipPath>
            <clipPath clipPathUnits="userSpaceOnUse" id="clipPath32">
                <path d="M93 429 L287 429 L287 441 L93 441 L93 429 Z"/>
            </clipPath>
            <clipPath clipPathUnits="userSpaceOnUse" id="clipPath33">
                <path d="M93 439 L287 439 L287 451 L93 451 L93 439 Z"/>
            </clipPath>
            <clipPath clipPathUnits="userSpaceOnUse" id="clipPath34">
                <path d="M341 486 L519 486 L519 540 L341 540 L341 486 Z"/>
            </clipPath>
            <clipPath clipPathUnits="userSpaceOnUse" id="clipPath35">
                <path d="M386 488 L474 488 L474 503 L386 503 L386 488 Z"/>
            </clipPath>
            <clipPath clipPathUnits="userSpaceOnUse" id="clipPath36">
                <path d="M404 503 L455 503 L455 518 L404 518 L404 503 Z"/>
            </clipPath>
            <clipPath clipPathUnits="userSpaceOnUse" id="clipPath37">
                <path d="M343 516 L517 516 L517 528 L343 528 L343 516 Z"/>
            </clipPath>
            <clipPath clipPathUnits="userSpaceOnUse" id="clipPath38">
                <path d="M343 526 L517 526 L517 538 L343 538 L343 526 Z"/>
            </clipPath>
            <clipPath clipPathUnits="userSpaceOnUse" id="clipPath39">
                <path d="M617 48 L768 48 L768 129 L617 129 L617 48 Z"/>
            </clipPath>
            <clipPath clipPathUnits="userSpaceOnUse" id="clipPath40">
                <path d="M641 50 L744 50 L744 69 L641 69 L641 50 Z"/>
            </clipPath>
            <clipPath clipPathUnits="userSpaceOnUse" id="clipPath41">
                <path d="M624 69 L761 69 L761 88 L624 88 L624 69 Z"/>
            </clipPath>
            <clipPath clipPathUnits="userSpaceOnUse" id="clipPath42">
                <path d="M644 88 L740 88 L740 107 L644 107 L644 88 Z"/>
            </clipPath>
            <clipPath clipPathUnits="userSpaceOnUse" id="clipPath43">
                <path d="M619 105 L766 105 L766 117 L619 117 L619 105 Z"/>
            </clipPath>
            <clipPath clipPathUnits="userSpaceOnUse" id="clipPath44">
                <path d="M619 115 L766 115 L766 127 L619 127 L619 115 Z"/>
            </clipPath>
            <clipPath clipPathUnits="userSpaceOnUse" id="clipPath45">
                <path d="M35 50 L311 50 L311 131 L35 131 L35 50 Z"/>
            </clipPath>
            <clipPath clipPathUnits="userSpaceOnUse" id="clipPath46">
                <path d="M121 52 L224 52 L224 71 L121 71 L121 52 Z"/>
            </clipPath>
            <clipPath clipPathUnits="userSpaceOnUse" id="clipPath47">
                <path d="M42 71 L304 71 L304 90 L42 90 L42 71 Z"/>
            </clipPath>
            <clipPath clipPathUnits="userSpaceOnUse" id="clipPath48">
                <path d="M125 90 L221 90 L221 109 L125 109 L125 90 Z"/>
            </clipPath>
            <clipPath clipPathUnits="userSpaceOnUse" id="clipPath49">
                <path d="M37 107 L309 107 L309 119 L37 119 L37 107 Z"/>
            </clipPath>
            <clipPath clipPathUnits="userSpaceOnUse" id="clipPath50">
                <path d="M37 117 L309 117 L309 129 L37 129 L37 117 Z"/>
            </clipPath>
            <clipPath clipPathUnits="userSpaceOnUse" id="clipPath51">
                <path d="M84 211 L406 211 L406 323 L84 323 L84 211 Z"/>
            </clipPath>
            <clipPath clipPathUnits="userSpaceOnUse" id="clipPath52">
                <path d="M378 224 L393 224 L393 241 L378 241 L378 224 Z"/>
            </clipPath>
            <clipPath clipPathUnits="userSpaceOnUse" id="clipPath53">
                <path d="M-1 334 L222 334 L222 464 L-1 464 L-1 334 Z"/>
            </clipPath>
            <clipPath clipPathUnits="userSpaceOnUse" id="clipPath54">
                <path d="M80 405 L89 405 L89 424 L80 424 L80 405 Z"/>
            </clipPath>
            <clipPath clipPathUnits="userSpaceOnUse" id="clipPath55">
                <path d="M60 347 L73 347 L73 370 L60 370 L60 347 Z"/>
            </clipPath>
            <clipPath clipPathUnits="userSpaceOnUse" id="clipPath56">
                <path d="M253 211 L406 211 L406 323 L253 323 L253 211 Z"/>
            </clipPath>
            <clipPath clipPathUnits="userSpaceOnUse" id="clipPath57">
                <path d="M104 334 L353 334 L353 420 L104 420 L104 334 Z"/>
            </clipPath>
            <clipPath clipPathUnits="userSpaceOnUse" id="clipPath58">
                <path d="M216 380 L225 380 L225 399 L216 399 L216 380 Z"/>
            </clipPath>
            <clipPath clipPathUnits="userSpaceOnUse" id="clipPath59">
                <path d="M222 347 L235 347 L235 370 L222 370 L222 347 Z"/>
            </clipPath>
            <clipPath clipPathUnits="userSpaceOnUse" id="clipPath60">
                <path d="M365 211 L444 211 L444 322 L365 322 L365 211 Z"/>
            </clipPath>
            <clipPath clipPathUnits="userSpaceOnUse" id="clipPath61">
                <path d="M365 211 L655 211 L655 324 L365 324 L365 211 Z"/>
            </clipPath>
            <clipPath clipPathUnits="userSpaceOnUse" id="clipPath62">
                <path d="M229 333 L515 333 L515 472 L229 472 L229 333 Z"/>
            </clipPath>
            <clipPath clipPathUnits="userSpaceOnUse" id="clipPath63">
                <path d="M293 390 L302 390 L302 409 L293 409 L293 390 Z"/>
            </clipPath>
            <clipPath clipPathUnits="userSpaceOnUse" id="clipPath64">
                <path d="M363 346 L376 346 L376 369 L363 369 L363 346 Z"/>
            </clipPath>
            <clipPath clipPathUnits="userSpaceOnUse" id="clipPath65">
                <path d="M274 335 L819 335 L819 505 L274 505 L274 335 Z"/>
            </clipPath>
            <clipPath clipPathUnits="userSpaceOnUse" id="clipPath66">
                <path d="M293 421 L302 421 L302 440 L293 440 L293 421 Z"/>
            </clipPath>
            <clipPath clipPathUnits="userSpaceOnUse" id="clipPath67">
                <path d="M614 348 L627 348 L627 371 L614 371 L614 348 Z"/>
            </clipPath>
            <clipPath clipPathUnits="userSpaceOnUse" id="clipPath68">
                <path d="M85 438 L357 438 L357 552 L85 552 L85 438 Z"/>
            </clipPath>
            <clipPath clipPathUnits="userSpaceOnUse" id="clipPath69">
                <path d="M190 451 L203 451 L203 464 L190 464 L190 451 Z"/>
            </clipPath>
            <clipPath clipPathUnits="userSpaceOnUse" id="clipPath70">
                <path d="M-1 116 L323 116 L323 322 L-1 322 L-1 116 Z"/>
            </clipPath>
            <clipPath clipPathUnits="userSpaceOnUse" id="clipPath71">
                <path d="M45 139 L55 139 L55 158 L45 158 L45 139 Z"/>
            </clipPath>
            <clipPath clipPathUnits="userSpaceOnUse" id="clipPath72">
                <path d="M58 286 L71 286 L71 309 L58 309 L58 286 Z"/>
            </clipPath>
            <clipPath clipPathUnits="userSpaceOnUse" id="clipPath73">
                <path d="M247 33 L681 33 L681 115 L247 115 L247 33 Z"/>
            </clipPath>
            <clipPath clipPathUnits="userSpaceOnUse" id="clipPath74">
                <path d="M599 46 L609 46 L609 65 L599 65 L599 46 Z"/>
            </clipPath>
            <clipPath clipPathUnits="userSpaceOnUse" id="clipPath75">
                <path d="M309 68 L332 68 L332 81 L309 81 L309 68 Z"/>
            </clipPath>
            <clipPath clipPathUnits="userSpaceOnUse" id="clipPath76">
                <path d="M510 114 L896 114 L896 323 L510 323 L510 114 Z"/>
            </clipPath>
            <clipPath clipPathUnits="userSpaceOnUse" id="clipPath77">
                <path d="M678 137 L688 137 L688 156 L678 156 L678 137 Z"/>
            </clipPath>
            <clipPath clipPathUnits="userSpaceOnUse" id="clipPath78">
                <path d="M691 287 L704 287 L704 310 L691 310 L691 287 Z"/>
            </clipPath>
        </defs>
        <g font-size="11" fill="white" stroke-linejoin="round"
            stroke="white" stroke-width="0" stroke-miterlimit="0">
            <rect x="0" y="0" clip-path="url(#clipPath1)" width="1640"
                height="1148" stroke="none"/>
        </g>
        <g stroke-width="0.1" font-size="11" stroke-linecap="butt">
            <line clip-path="url(#clipPath1)" fill="none" x1="1"
                x2="137" y1="31" y2="31"/>
            <line clip-path="url(#clipPath1)" fill="none" x1="137"
                x2="144" y1="31" y2="17"/>
            <line clip-path="url(#clipPath1)" fill="none" x1="144"
                x2="144" y1="17" y2="1"/>
            <text x="6" y="19" clip-path="url(#clipPath2)" stroke="none"
                font-weight="bold" xml:space="preserve">package </text>
            <text font-size="13" x="66" y="19"
                clip-path="url(#clipPath3)" stroke="none" xml:space="preserve">realization</text>
            <rect x="20" y="307" clip-path="url(#clipPath4)"
                fill="rgb(237,247,200)" width="156" height="41" stroke="none"/>
        </g>
        <g font-size="13" stroke-linecap="butt" fill="rgb(106,88,75)"
            stroke="rgb(106,88,75)" font-weight="bold" stroke-width="0.1">
            <text xml:space="preserve" x="27" y="322"
                clip-path="url(#clipPath5)" stroke="none">OrbitDetermination</text>
            <line clip-path="url(#clipPath6)" fill="none" x1="22"
                x2="174" y1="326" y2="326"/>
            <line clip-path="url(#clipPath7)" fill="none" x1="22"
                x2="174" y1="336" y2="336"/>
            <rect x="20" y="307" clip-path="url(#clipPath4)" fill="none"
                width="155" height="40" stroke-width="1.1"/>
        </g>
        <g fill="rgb(237,247,200)" stroke-width="1.1" font-size="11"
            stroke-linecap="butt" stroke="rgb(237,247,200)">
            <rect x="215" y="307" clip-path="url(#clipPath8)"
                width="105" height="41" stroke="none"/>
        </g>
        <g font-size="13" stroke-linecap="butt" fill="rgb(106,88,75)"
            stroke="rgb(106,88,75)" font-weight="bold" stroke-width="1.1">
            <text xml:space="preserve" x="222" y="322"
                clip-path="url(#clipPath9)" stroke="none">Propagation</text>
            <line clip-path="url(#clipPath10)" fill="none" x1="217"
                x2="318" y1="326" y2="326" stroke-width="0.1"/>
            <line clip-path="url(#clipPath11)" fill="none" x1="217"
                x2="318" y1="336" y2="336" stroke-width="0.1"/>
            <rect x="215" y="307" clip-path="url(#clipPath8)"
                fill="none" width="104" height="40"/>
        </g>
        <g fill="rgb(244,232,212)" stroke-width="1.1" font-size="11"
            stroke-linecap="butt" stroke="rgb(244,232,212)">
            <rect x="125" y="148" clip-path="url(#clipPath12)"
                width="520" height="78" stroke="none"/>
            <text x="342" y="161" clip-path="url(#clipPath13)"
                fill="rgb(110,44,18)" stroke="none" xml:space="preserve">&lt;&lt;interface&gt;&gt;</text>
            <text x="320" y="176" clip-path="url(#clipPath14)"
                fill="rgb(110,44,18)" stroke="none" font-weight="bold" xml:space="preserve">ScenarioComponent</text>
            <text x="341" y="191" clip-path="url(#clipPath15)"
                fill="rgb(110,44,18)" stroke="none" xml:space="preserve">(from scenario)</text>
            <line clip-path="url(#clipPath16)" fill="none" x1="127"
                x2="643" y1="193" y2="193" stroke="rgb(110,44,18)" stroke-width="0.1"/>
        </g>
        <g stroke-width="0.1" font-size="13" stroke-linecap="butt">
            <text xml:space="preserve" x="128" y="219"
                clip-path="url(#clipPath17)" stroke="none">+</text>
            <text xml:space="preserve" x="141" y="219"
                clip-path="url(#clipPath18)" stroke="none">updateState</text>
            <text xml:space="preserve" x="223" y="219"
                clip-path="url(#clipPath19)" stroke="none">(original : ScenarioState, target : AbsoluteDate) : ScenarioState</text>
            <line clip-path="url(#clipPath20)" fill="none" x1="127"
                x2="643" y1="203" y2="203" stroke="rgb(110,44,18)"/>
        </g>
        <g fill="rgb(110,44,18)" stroke-width="1.1" font-size="11"
            stroke-linecap="butt" stroke="rgb(110,44,18)">
            <rect x="125" y="148" clip-path="url(#clipPath12)"
                fill="none" width="519" height="77"/>
            <rect x="359" y="306" clip-path="url(#clipPath21)"
                fill="rgb(237,247,200)" width="140" height="41" stroke="none"/>
        </g>
        <g font-size="13" stroke-linecap="butt" fill="rgb(106,88,75)"
            stroke="rgb(106,88,75)" font-weight="bold" stroke-width="1.1">
            <text xml:space="preserve" x="366" y="321"
                clip-path="url(#clipPath22)" stroke="none">ManeuverSplitter</text>
            <line clip-path="url(#clipPath23)" fill="none" x1="361"
                x2="497" y1="325" y2="325" stroke-width="0.1"/>
            <line clip-path="url(#clipPath24)" fill="none" x1="361"
                x2="497" y1="335" y2="335" stroke-width="0.1"/>
            <rect x="359" y="306" clip-path="url(#clipPath21)"
                fill="none" width="139" height="40"/>
        </g>
        <g fill="rgb(237,247,200)" stroke-width="1.1" font-size="11"
            stroke-linecap="butt" stroke="rgb(237,247,200)">
            <rect x="539" y="308" clip-path="url(#clipPath25)"
                width="203" height="41" stroke="none"/>
        </g>
        <g font-size="13" stroke-linecap="butt" fill="rgb(106,88,75)"
            stroke="rgb(106,88,75)" font-weight="bold" stroke-width="1.1">
            <text xml:space="preserve" x="546" y="323"
                clip-path="url(#clipPath26)" stroke="none">ManeuverRealizationError</text>
            <line clip-path="url(#clipPath27)" fill="none" x1="541"
                x2="740" y1="327" y2="327" stroke-width="0.1"/>
            <line clip-path="url(#clipPath28)" fill="none" x1="541"
                x2="740" y1="337" y2="337" stroke-width="0.1"/>
            <rect x="539" y="308" clip-path="url(#clipPath25)"
                fill="none" width="202" height="40"/>
        </g>
        <g fill="rgb(244,232,212)" stroke-width="1.1" font-size="11"
            stroke-linecap="butt" stroke="rgb(244,232,212)">
            <rect x="92" y="400" clip-path="url(#clipPath29)"
                width="196" height="52" stroke="none"/>
            <text x="147" y="413" clip-path="url(#clipPath30)"
                fill="rgb(110,44,18)" stroke="none" xml:space="preserve">&lt;&lt;interface&gt;&gt;</text>
            <text x="151" y="428" clip-path="url(#clipPath31)"
                fill="rgb(110,44,18)" stroke="none" font-weight="bold" xml:space="preserve">Monitorable</text>
            <line clip-path="url(#clipPath32)" fill="none" x1="94"
                x2="286" y1="430" y2="430" stroke="rgb(110,44,18)" stroke-width="0.1"/>
            <line clip-path="url(#clipPath33)" fill="none" x1="94"
                x2="286" y1="440" y2="440" stroke="rgb(110,44,18)" stroke-width="0.1"/>
            <rect x="92" y="400" clip-path="url(#clipPath29)"
                fill="none" width="195" height="51" stroke="rgb(110,44,18)"/>
            <rect x="342" y="487" clip-path="url(#clipPath34)"
                width="176" height="52" stroke="none"/>
            <text x="387" y="500" clip-path="url(#clipPath35)"
                fill="rgb(110,44,18)" stroke="none" xml:space="preserve">&lt;&lt;interface&gt;&gt;</text>
            <text x="405" y="515" clip-path="url(#clipPath36)"
                fill="rgb(110,44,18)" stroke="none" font-weight="bold" xml:space="preserve">Monitor</text>
            <line clip-path="url(#clipPath37)" fill="none" x1="344"
                x2="516" y1="517" y2="517" stroke="rgb(110,44,18)" stroke-width="0.1"/>
            <line clip-path="url(#clipPath38)" fill="none" x1="344"
                x2="516" y1="527" y2="527" stroke="rgb(110,44,18)" stroke-width="0.1"/>
            <rect x="342" y="487" clip-path="url(#clipPath34)"
                fill="none" width="175" height="51" stroke="rgb(110,44,18)"/>
            <rect x="618" y="49" clip-path="url(#clipPath39)"
                fill="rgb(243,232,255)" width="149" height="79" stroke="none"/>
            <text font-size="13" x="642" y="64"
                clip-path="url(#clipPath40)" fill="rgb(41,0,141)"
                stroke="none" xml:space="preserve">&lt;&lt;dataType&gt;&gt;</text>
        </g>
        <g font-size="13" stroke-linecap="butt" fill="rgb(41,0,141)"
            stroke="rgb(41,0,141)" font-weight="bold" stroke-width="1.1">
            <text xml:space="preserve" x="625" y="83"
                clip-path="url(#clipPath41)" stroke="none">RandomGenerator</text>
            <text x="645" y="102" clip-path="url(#clipPath42)"
                stroke="none" font-weight="normal" xml:space="preserve">(from random)</text>
            <line clip-path="url(#clipPath43)" fill="none" x1="620"
                x2="765" y1="106" y2="106" stroke-width="0.1"/>
            <line clip-path="url(#clipPath44)" fill="none" x1="620"
                x2="765" y1="116" y2="116" stroke-width="0.1"/>
            <rect x="618" y="49" clip-path="url(#clipPath39)"
                fill="none" width="148" height="78"/>
        </g>
        <g fill="rgb(243,232,255)" stroke-width="1.1" font-size="11"
            stroke-linecap="butt" stroke="rgb(243,232,255)">
            <rect x="36" y="51" clip-path="url(#clipPath45)" width="274"
                height="79" stroke="none"/>
            <text font-size="13" x="122" y="66"
                clip-path="url(#clipPath46)" fill="rgb(41,0,141)"
                stroke="none" xml:space="preserve">&lt;&lt;dataType&gt;&gt;</text>
        </g>
        <g font-size="13" stroke-linecap="butt" fill="rgb(41,0,141)"
            stroke="rgb(41,0,141)" font-weight="bold" stroke-width="1.1">
            <text xml:space="preserve" x="43" y="85"
                clip-path="url(#clipPath47)" stroke="none">CorrelatedRandomVectorGenerator</text>
            <text x="126" y="104" clip-path="url(#clipPath48)"
                stroke="none" font-weight="normal" xml:space="preserve">(from random)</text>
            <line clip-path="url(#clipPath49)" fill="none" x1="38"
                x2="308" y1="108" y2="108" stroke-width="0.1"/>
            <line clip-path="url(#clipPath50)" fill="none" x1="38"
                x2="308" y1="118" y2="118" stroke-width="0.1"/>
            <rect x="36" y="51" clip-path="url(#clipPath45)" fill="none"
                width="273" height="78"/>
        </g>
        <g stroke-width="1.1" font-size="11" stroke-linecap="butt">
            <rect x="0" y="0" clip-path="url(#clipPath1)" fill="none"
                width="1639" height="1147"/>
            <line clip-path="url(#clipPath51)" fill="none" x1="98"
                x2="98" y1="308" y2="258" stroke-dasharray="8,7" stroke="rgb(110,44,18)"/>
            <line clip-path="url(#clipPath51)" fill="none" x1="98"
                x2="385" y1="258" y2="258" stroke-dasharray="8,7" stroke="rgb(110,44,18)"/>
            <line clip-path="url(#clipPath51)" fill="none" x1="385"
                x2="385" y1="258" y2="225" stroke-dasharray="8,7" stroke="rgb(110,44,18)"/>
            <polygon fill="white" stroke-dasharray="8,7"
                clip-path="url(#clipPath52)"
                points=" 385 225 391 239 379 239" stroke="none"/>
            <polygon fill="none" clip-path="url(#clipPath52)"
                points=" 385 225 391 239 379 239" stroke="rgb(110,44,18)"/>
            <line clip-path="url(#clipPath53)" fill="none" x1="66"
                x2="66" y1="348" y2="425" stroke="rgb(153,15,15)"/>
            <line clip-path="url(#clipPath53)" fill="none" x1="66"
                x2="92" y1="425" y2="425" stroke="rgb(153,15,15)"/>
            <text font-size="13" x="81" y="419"
                clip-path="url(#clipPath54)" fill="rgb(153,15,15)"
                stroke="none" xml:space="preserve">*</text>
            <polygon fill="white" clip-path="url(#clipPath55)"
                points=" 66 348 71 358 66 368 61 358" stroke="none"/>
            <polygon fill="none" clip-path="url(#clipPath55)"
                points=" 66 348 71 358 66 368 61 358" stroke="rgb(153,15,15)"/>
            <line clip-path="url(#clipPath56)" fill="none" x1="267"
                x2="267" y1="308" y2="258" stroke-dasharray="8,7" stroke="rgb(110,44,18)"/>
            <line clip-path="url(#clipPath56)" fill="none" x1="267"
                x2="385" y1="258" y2="258" stroke-dasharray="8,7" stroke="rgb(110,44,18)"/>
            <line clip-path="url(#clipPath56)" fill="none" x1="385"
                x2="385" y1="258" y2="225" stroke-dasharray="8,7" stroke="rgb(110,44,18)"/>
            <polygon fill="white" stroke-dasharray="8,7"
                clip-path="url(#clipPath52)"
                points=" 385 225 391 239 379 239" stroke="none"/>
            <polygon fill="none" clip-path="url(#clipPath52)"
                points=" 385 225 391 239 379 239" stroke="rgb(110,44,18)"/>
            <line clip-path="url(#clipPath57)" fill="none" x1="228"
                x2="228" y1="348" y2="400" stroke="rgb(153,15,15)"/>
            <text font-size="13" x="217" y="394"
                clip-path="url(#clipPath58)" fill="rgb(153,15,15)"
                stroke="none" xml:space="preserve">*</text>
            <polygon fill="white" clip-path="url(#clipPath59)"
                points=" 228 348 233 358 228 368 223 358" stroke="none"/>
            <polygon fill="none" clip-path="url(#clipPath59)"
                points=" 228 348 233 358 228 368 223 358" stroke="rgb(153,15,15)"/>
            <line clip-path="url(#clipPath60)" fill="none" x1="429"
                x2="429" y1="307" y2="258" stroke-dasharray="8,7" stroke="rgb(110,44,18)"/>
            <line clip-path="url(#clipPath60)" fill="none" x1="429"
                x2="385" y1="258" y2="258" stroke-dasharray="8,7" stroke="rgb(110,44,18)"/>
            <line clip-path="url(#clipPath60)" fill="none" x1="385"
                x2="385" y1="258" y2="225" stroke-dasharray="8,7" stroke="rgb(110,44,18)"/>
            <polygon fill="white" stroke-dasharray="8,7"
                clip-path="url(#clipPath52)"
                points=" 385 225 391 239 379 239" stroke="none"/>
            <polygon fill="none" clip-path="url(#clipPath52)"
                points=" 385 225 391 239 379 239" stroke="rgb(110,44,18)"/>
            <line clip-path="url(#clipPath61)" fill="none" x1="640"
                x2="640" y1="309" y2="258" stroke-dasharray="8,7" stroke="rgb(110,44,18)"/>
            <line clip-path="url(#clipPath61)" fill="none" x1="640"
                x2="385" y1="258" y2="258" stroke-dasharray="8,7" stroke="rgb(110,44,18)"/>
            <line clip-path="url(#clipPath61)" fill="none" x1="385"
                x2="385" y1="258" y2="225" stroke-dasharray="8,7" stroke="rgb(110,44,18)"/>
            <polygon fill="white" stroke-dasharray="8,7"
                clip-path="url(#clipPath52)"
                points=" 385 225 391 239 379 239" stroke="none"/>
            <polygon fill="none" clip-path="url(#clipPath52)"
                points=" 385 225 391 239 379 239" stroke="rgb(110,44,18)"/>
            <line clip-path="url(#clipPath62)" fill="none" x1="369"
                x2="369" y1="347" y2="410" stroke="rgb(153,15,15)"/>
            <line clip-path="url(#clipPath62)" fill="none" x1="369"
                x2="288" y1="410" y2="410" stroke="rgb(153,15,15)"/>
            <text font-size="13" x="294" y="404"
                clip-path="url(#clipPath63)" fill="rgb(153,15,15)"
                stroke="none" xml:space="preserve">*</text>
            <polygon fill="white" clip-path="url(#clipPath64)"
                points=" 369 347 374 357 369 367 364 357" stroke="none"/>
            <polygon fill="none" clip-path="url(#clipPath64)"
                points=" 369 347 374 357 369 367 364 357" stroke="rgb(153,15,15)"/>
            <line clip-path="url(#clipPath65)" fill="none" x1="620"
                x2="620" y1="349" y2="443" stroke="rgb(153,15,15)"/>
            <line clip-path="url(#clipPath65)" fill="none" x1="620"
                x2="288" y1="443" y2="443" stroke="rgb(153,15,15)"/>
            <text font-size="13" x="294" y="435"
                clip-path="url(#clipPath66)" fill="rgb(153,15,15)"
                stroke="none" xml:space="preserve">*</text>
            <polygon fill="white" clip-path="url(#clipPath67)"
                points=" 620 349 625 359 620 369 615 359" stroke="none"/>
            <polygon fill="none" clip-path="url(#clipPath67)"
                points=" 620 349 625 359 620 369 615 359" stroke="rgb(153,15,15)"/>
            <line clip-path="url(#clipPath68)" fill="none" x1="342"
                x2="196" y1="511" y2="511" stroke="rgb(153,15,15)"/>
            <line clip-path="url(#clipPath68)" fill="none" x1="196"
                x2="196" y1="511" y2="452" stroke="rgb(153,15,15)"/>
            <line clip-path="url(#clipPath69)" fill="none" x1="201"
                x2="196" y1="462" y2="452" stroke="rgb(153,15,15)"/>
            <line clip-path="url(#clipPath69)" fill="none" x1="196"
                x2="191" y1="452" y2="462" stroke="rgb(153,15,15)"/>
            <line clip-path="url(#clipPath70)" fill="none" x1="64"
                x2="64" y1="307" y2="130" stroke="rgb(153,15,15)"/>
            <text font-size="13" x="46" y="153"
                clip-path="url(#clipPath71)" fill="rgb(153,15,15)"
                stroke="none" xml:space="preserve">1</text>
            <polygon fill="white" clip-path="url(#clipPath72)"
                points=" 64 307 59 297 64 287 69 297" stroke="none"/>
            <polygon fill="none" clip-path="url(#clipPath72)"
                points=" 64 307 59 297 64 287 69 297" stroke="rgb(153,15,15)"/>
            <line clip-path="url(#clipPath73)" fill="none" x1="310"
                x2="618" y1="74" y2="74" stroke="rgb(153,15,15)"/>
            <text font-size="13" x="600" y="60"
                clip-path="url(#clipPath74)" fill="rgb(153,15,15)"
                stroke="none" xml:space="preserve">1</text>
            <polygon fill="white" clip-path="url(#clipPath75)"
                points=" 310 74 320 69 330 74 320 79" stroke="none"/>
            <polygon fill="none" clip-path="url(#clipPath75)"
                points=" 310 74 320 69 330 74 320 79" stroke="rgb(153,15,15)"/>
            <line clip-path="url(#clipPath76)" fill="none" x1="697"
                x2="697" y1="308" y2="128" stroke="rgb(153,15,15)"/>
            <text font-size="13" x="679" y="151"
                clip-path="url(#clipPath77)" fill="rgb(153,15,15)"
                stroke="none" xml:space="preserve">1</text>
            <polygon fill="white" clip-path="url(#clipPath78)"
                points=" 697 308 692 298 697 288 702 298" stroke="none"/>
            <polygon fill="none" clip-path="url(#clipPath78)"
                points=" 697 308 692 298 697 288 702 298" stroke="rgb(153,15,15)"/>
        </g>
    </g>
</svg>
