<?xml version="1.0" encoding="UTF-8"?>
<svg stroke-dasharray="none" shape-rendering="auto"
    font-family="'Dialog'" width="902" text-rendering="auto"
    fill-opacity="1" color-interpolation="auto" color-rendering="auto"
    font-size="12" fill="black" stroke="black" image-rendering="auto"
    stroke-miterlimit="10" stroke-linecap="square"
    stroke-linejoin="miter" font-style="normal" height="573"
    stroke-width="1" stroke-dashoffset="0" font-weight="normal" stroke-opacity="1">
    <!--Generated by the Batik Graphics2D SVG Generator-->
    <defs id="genericDefs"/>
    <g>
        <defs id="defs1">
            <clipPath clipPathUnits="userSpaceOnUse" id="clipPath1">
                <path d="M-1 -1 L902 -1 L902 573 L-1 573 L-1 -1 Z"/>
            </clipPath>
            <clipPath clipPathUnits="userSpaceOnUse" id="clipPath2">
                <path d="M5 5 L70 5 L70 24 L5 24 L5 5 Z"/>
            </clipPath>
            <clipPath clipPathUnits="userSpaceOnUse" id="clipPath3">
                <path d="M70 5 L127 5 L127 24 L70 24 L70 5 Z"/>
            </clipPath>
            <clipPath clipPathUnits="userSpaceOnUse" id="clipPath4">
                <path d="M35 158 L571 158 L571 242 L35 242 L35 158 Z"/>
            </clipPath>
            <clipPath clipPathUnits="userSpaceOnUse" id="clipPath5">
                <path d="M259 160 L346 160 L346 175 L259 175 L259 160 Z"/>
            </clipPath>
            <clipPath clipPathUnits="userSpaceOnUse" id="clipPath6">
                <path d="M241 175 L364 175 L364 190 L241 190 L241 175 Z"/>
            </clipPath>
            <clipPath clipPathUnits="userSpaceOnUse" id="clipPath7">
                <path d="M37 188 L569 188 L569 200 L37 200 L37 188 Z"/>
            </clipPath>
            <clipPath clipPathUnits="userSpaceOnUse" id="clipPath8">
                <path d="M38 201 L51 201 L51 220 L38 220 L38 201 Z"/>
            </clipPath>
            <clipPath clipPathUnits="userSpaceOnUse" id="clipPath9">
                <path d="M51 201 L133 201 L133 220 L51 220 L51 201 Z"/>
            </clipPath>
            <clipPath clipPathUnits="userSpaceOnUse" id="clipPath10">
                <path d="M133 201 L303 201 L303 220 L133 220 L133 201 Z"/>
            </clipPath>
            <clipPath clipPathUnits="userSpaceOnUse" id="clipPath11">
                <path d="M38 220 L51 220 L51 239 L38 239 L38 220 Z"/>
            </clipPath>
            <clipPath clipPathUnits="userSpaceOnUse" id="clipPath12">
                <path d="M51 220 L139 220 L139 239 L51 239 L51 220 Z"/>
            </clipPath>
            <clipPath clipPathUnits="userSpaceOnUse" id="clipPath13">
                <path d="M139 220 L411 220 L411 239 L139 239 L139 220 Z"/>
            </clipPath>
            <clipPath clipPathUnits="userSpaceOnUse" id="clipPath14">
                <path d="M37 198 L569 198 L569 240 L37 240 L37 198 Z"/>
            </clipPath>
            <clipPath clipPathUnits="userSpaceOnUse" id="clipPath15">
                <path d="M29 47 L565 47 L565 101 L29 101 L29 47 Z"/>
            </clipPath>
            <clipPath clipPathUnits="userSpaceOnUse" id="clipPath16">
                <path d="M263 49 L331 49 L331 68 L263 68 L263 49 Z"/>
            </clipPath>
            <clipPath clipPathUnits="userSpaceOnUse" id="clipPath17">
                <path d="M31 66 L563 66 L563 78 L31 78 L31 66 Z"/>
            </clipPath>
            <clipPath clipPathUnits="userSpaceOnUse" id="clipPath18">
                <path d="M32 79 L45 79 L45 98 L32 98 L32 79 Z"/>
            </clipPath>
            <clipPath clipPathUnits="userSpaceOnUse" id="clipPath19">
                <path d="M45 79 L146 79 L146 98 L45 98 L45 79 Z"/>
            </clipPath>
            <clipPath clipPathUnits="userSpaceOnUse" id="clipPath20">
                <path d="M146 79 L374 79 L374 98 L146 98 L146 79 Z"/>
            </clipPath>
            <clipPath clipPathUnits="userSpaceOnUse" id="clipPath21">
                <path d="M31 76 L563 76 L563 99 L31 99 L31 76 Z"/>
            </clipPath>
            <clipPath clipPathUnits="userSpaceOnUse" id="clipPath22">
                <path d="M152 291 L496 291 L496 554 L152 554 L152 291 Z"/>
            </clipPath>
            <clipPath clipPathUnits="userSpaceOnUse" id="clipPath23">
                <path d="M270 293 L378 293 L378 312 L270 312 L270 293 Z"/>
            </clipPath>
            <clipPath clipPathUnits="userSpaceOnUse" id="clipPath24">
                <path d="M154 310 L494 310 L494 322 L154 322 L154 310 Z"/>
            </clipPath>
            <clipPath clipPathUnits="userSpaceOnUse" id="clipPath25">
                <path d="M155 323 L168 323 L168 342 L155 342 L155 323 Z"/>
            </clipPath>
            <clipPath clipPathUnits="userSpaceOnUse" id="clipPath26">
                <path d="M168 323 L230 323 L230 342 L168 342 L168 323 Z"/>
            </clipPath>
            <clipPath clipPathUnits="userSpaceOnUse" id="clipPath27">
                <path d="M230 323 L292 323 L292 342 L230 342 L230 323 Z"/>
            </clipPath>
            <clipPath clipPathUnits="userSpaceOnUse" id="clipPath28">
                <path d="M155 342 L168 342 L168 361 L155 361 L155 342 Z"/>
            </clipPath>
            <clipPath clipPathUnits="userSpaceOnUse" id="clipPath29">
                <path d="M168 342 L251 342 L251 361 L168 361 L168 342 Z"/>
            </clipPath>
            <clipPath clipPathUnits="userSpaceOnUse" id="clipPath30">
                <path d="M251 342 L319 342 L319 361 L251 361 L251 342 Z"/>
            </clipPath>
            <clipPath clipPathUnits="userSpaceOnUse" id="clipPath31">
                <path d="M155 361 L168 361 L168 380 L155 380 L155 361 Z"/>
            </clipPath>
            <clipPath clipPathUnits="userSpaceOnUse" id="clipPath32">
                <path d="M168 361 L286 361 L286 380 L168 380 L168 361 Z"/>
            </clipPath>
            <clipPath clipPathUnits="userSpaceOnUse" id="clipPath33">
                <path d="M286 361 L327 361 L327 380 L286 380 L286 361 Z"/>
            </clipPath>
            <clipPath clipPathUnits="userSpaceOnUse" id="clipPath34">
                <path d="M155 380 L168 380 L168 399 L155 399 L155 380 Z"/>
            </clipPath>
            <clipPath clipPathUnits="userSpaceOnUse" id="clipPath35">
                <path d="M168 380 L309 380 L309 399 L168 399 L168 380 Z"/>
            </clipPath>
            <clipPath clipPathUnits="userSpaceOnUse" id="clipPath36">
                <path d="M309 380 L356 380 L356 399 L309 399 L309 380 Z"/>
            </clipPath>
            <clipPath clipPathUnits="userSpaceOnUse" id="clipPath37">
                <path d="M155 399 L168 399 L168 418 L155 418 L155 399 Z"/>
            </clipPath>
            <clipPath clipPathUnits="userSpaceOnUse" id="clipPath38">
                <path d="M168 399 L315 399 L315 418 L168 418 L168 399 Z"/>
            </clipPath>
            <clipPath clipPathUnits="userSpaceOnUse" id="clipPath39">
                <path d="M315 399 L443 399 L443 418 L315 418 L315 399 Z"/>
            </clipPath>
            <clipPath clipPathUnits="userSpaceOnUse" id="clipPath40">
                <path d="M155 418 L168 418 L168 437 L155 437 L155 418 Z"/>
            </clipPath>
            <clipPath clipPathUnits="userSpaceOnUse" id="clipPath41">
                <path d="M168 418 L318 418 L318 437 L168 437 L168 418 Z"/>
            </clipPath>
            <clipPath clipPathUnits="userSpaceOnUse" id="clipPath42">
                <path d="M318 418 L473 418 L473 437 L318 437 L318 418 Z"/>
            </clipPath>
            <clipPath clipPathUnits="userSpaceOnUse" id="clipPath43">
                <path d="M155 437 L168 437 L168 456 L155 456 L155 437 Z"/>
            </clipPath>
            <clipPath clipPathUnits="userSpaceOnUse" id="clipPath44">
                <path d="M168 437 L313 437 L313 456 L168 456 L168 437 Z"/>
            </clipPath>
            <clipPath clipPathUnits="userSpaceOnUse" id="clipPath45">
                <path d="M313 437 L468 437 L468 456 L313 456 L313 437 Z"/>
            </clipPath>
            <clipPath clipPathUnits="userSpaceOnUse" id="clipPath46">
                <path d="M155 456 L168 456 L168 475 L155 475 L155 456 Z"/>
            </clipPath>
            <clipPath clipPathUnits="userSpaceOnUse" id="clipPath47">
                <path d="M168 456 L253 456 L253 475 L168 475 L168 456 Z"/>
            </clipPath>
            <clipPath clipPathUnits="userSpaceOnUse" id="clipPath48">
                <path d="M253 456 L380 456 L380 475 L253 475 L253 456 Z"/>
            </clipPath>
            <clipPath clipPathUnits="userSpaceOnUse" id="clipPath49">
                <path d="M155 475 L168 475 L168 494 L155 494 L155 475 Z"/>
            </clipPath>
            <clipPath clipPathUnits="userSpaceOnUse" id="clipPath50">
                <path d="M168 475 L291 475 L291 494 L168 494 L168 475 Z"/>
            </clipPath>
            <clipPath clipPathUnits="userSpaceOnUse" id="clipPath51">
                <path d="M291 475 L418 475 L418 494 L291 494 L291 475 Z"/>
            </clipPath>
            <clipPath clipPathUnits="userSpaceOnUse" id="clipPath52">
                <path d="M155 494 L168 494 L168 513 L155 513 L155 494 Z"/>
            </clipPath>
            <clipPath clipPathUnits="userSpaceOnUse" id="clipPath53">
                <path d="M168 494 L328 494 L328 513 L168 513 L168 494 Z"/>
            </clipPath>
            <clipPath clipPathUnits="userSpaceOnUse" id="clipPath54">
                <path d="M328 494 L480 494 L480 513 L328 513 L328 494 Z"/>
            </clipPath>
            <clipPath clipPathUnits="userSpaceOnUse" id="clipPath55">
                <path d="M155 513 L168 513 L168 532 L155 532 L155 513 Z"/>
            </clipPath>
            <clipPath clipPathUnits="userSpaceOnUse" id="clipPath56">
                <path d="M168 513 L225 513 L225 532 L168 532 L168 513 Z"/>
            </clipPath>
            <clipPath clipPathUnits="userSpaceOnUse" id="clipPath57">
                <path d="M225 513 L322 513 L322 532 L225 532 L225 513 Z"/>
            </clipPath>
            <clipPath clipPathUnits="userSpaceOnUse" id="clipPath58">
                <path d="M155 532 L168 532 L168 551 L155 551 L155 532 Z"/>
            </clipPath>
            <clipPath clipPathUnits="userSpaceOnUse" id="clipPath59">
                <path d="M168 532 L278 532 L278 551 L168 551 L168 532 Z"/>
            </clipPath>
            <clipPath clipPathUnits="userSpaceOnUse" id="clipPath60">
                <path d="M278 532 L343 532 L343 551 L278 551 L278 532 Z"/>
            </clipPath>
            <clipPath clipPathUnits="userSpaceOnUse" id="clipPath61">
                <path d="M154 320 L494 320 L494 552 L154 552 L154 320 Z"/>
            </clipPath>
            <clipPath clipPathUnits="userSpaceOnUse" id="clipPath62">
                <path d="M590 338 L874 338 L874 435 L590 435 L590 338 Z"/>
            </clipPath>
            <clipPath clipPathUnits="userSpaceOnUse" id="clipPath63">
                <path d="M593 358 L861 358 L861 428 L593 428 L593 358 Z"/>
            </clipPath>
            <clipPath clipPathUnits="userSpaceOnUse" id="clipPath64">
                <path d="M613 51 L884 51 L884 112 L613 112 L613 51 Z"/>
            </clipPath>
            <clipPath clipPathUnits="userSpaceOnUse" id="clipPath65">
                <path d="M616 56 L866 56 L866 109 L616 109 L616 56 Z"/>
            </clipPath>
            <clipPath clipPathUnits="userSpaceOnUse" id="clipPath66">
                <path d="M281 227 L478 227 L478 307 L281 307 L281 227 Z"/>
            </clipPath>
            <clipPath clipPathUnits="userSpaceOnUse" id="clipPath67">
                <path d="M325 258 L379 258 L379 277 L325 277 L325 258 Z"/>
            </clipPath>
            <clipPath clipPathUnits="userSpaceOnUse" id="clipPath68">
                <path d="M307 281 L320 281 L320 294 L307 294 L307 281 Z"/>
            </clipPath>
            <clipPath clipPathUnits="userSpaceOnUse" id="clipPath69">
                <path d="M163 86 L443 86 L443 179 L163 179 L163 86 Z"/>
            </clipPath>
            <clipPath clipPathUnits="userSpaceOnUse" id="clipPath70">
                <path d="M312 131 L398 131 L398 150 L312 150 L312 131 Z"/>
            </clipPath>
            <clipPath clipPathUnits="userSpaceOnUse" id="clipPath71">
                <path d="M269 131 L294 131 L294 150 L269 150 L269 131 Z"/>
            </clipPath>
            <clipPath clipPathUnits="userSpaceOnUse" id="clipPath72">
                <path d="M297 99 L310 99 L310 122 L297 122 L297 99 Z"/>
            </clipPath>
            <clipPath clipPathUnits="userSpaceOnUse" id="clipPath73">
                <path d="M123 86 L164 86 L164 174 L123 174 L123 86 Z"/>
            </clipPath>
            <clipPath clipPathUnits="userSpaceOnUse" id="clipPath74">
                <path d="M136 144 L151 144 L151 161 L136 161 L136 144 Z"/>
            </clipPath>
            <clipPath clipPathUnits="userSpaceOnUse" id="clipPath75">
                <path d="M550 60 L629 60 L629 89 L550 89 L550 60 Z"/>
            </clipPath>
            <clipPath clipPathUnits="userSpaceOnUse" id="clipPath76">
                <path d="M481 377 L606 377 L606 406 L481 406 L481 377 Z"/>
            </clipPath>
        </defs>
        <g font-size="15" fill="white" font-family="'Ubuntu'"
            stroke-linejoin="round" stroke="white" stroke-width="0" stroke-miterlimit="0">
            <rect x="0" y="0" clip-path="url(#clipPath1)" width="901"
                height="572" stroke="none"/>
        </g>
        <g stroke-width="0.1" font-size="15" font-family="'Ubuntu'" stroke-linecap="butt">
            <line clip-path="url(#clipPath1)" fill="none" x1="1"
                x2="131" y1="31" y2="31"/>
            <line clip-path="url(#clipPath1)" fill="none" x1="131"
                x2="138" y1="31" y2="17"/>
            <line clip-path="url(#clipPath1)" fill="none" x1="138"
                x2="138" y1="17" y2="1"/>
            <text x="6" y="20" clip-path="url(#clipPath2)" stroke="none"
                font-weight="bold" xml:space="preserve">package </text>
            <text font-size="13" x="71" y="19"
                clip-path="url(#clipPath3)" font-family="'Dialog'"
                stroke="none" xml:space="preserve">scenario</text>
            <rect x="36" y="159" clip-path="url(#clipPath4)"
                fill="white" width="534" height="82" stroke="none"/>
            <text font-size="11" x="260" y="172"
                clip-path="url(#clipPath5)" font-family="'Dialog'"
                stroke="none" xml:space="preserve">&lt;&lt;interface&gt;&gt;</text>
            <text font-size="11" x="242" y="187"
                clip-path="url(#clipPath6)" font-family="'Dialog'"
                stroke="none" font-weight="bold" xml:space="preserve">ScenarioComponent</text>
            <line clip-path="url(#clipPath7)" fill="none" x1="38"
                x2="568" y1="189" y2="189"/>
            <text font-size="13" x="39" y="215"
                clip-path="url(#clipPath8)" font-family="'Dialog'"
                stroke="none" xml:space="preserve">+</text>
            <text font-size="13" x="52" y="215"
                clip-path="url(#clipPath9)" font-family="'Dialog'"
                stroke="none" xml:space="preserve">setCycleEnd</text>
            <text font-size="13" x="134" y="215"
                clip-path="url(#clipPath10)" font-family="'Dialog'"
                stroke="none" xml:space="preserve">(cycleEnd : AbsoluteDate)</text>
            <text font-size="13" x="39" y="234"
                clip-path="url(#clipPath11)" font-family="'Dialog'"
                stroke="none" xml:space="preserve">+</text>
            <text font-size="13" x="52" y="234"
                clip-path="url(#clipPath12)" font-family="'Dialog'"
                stroke="none" xml:space="preserve">updateStates</text>
            <text font-size="13" x="140" y="234"
                clip-path="url(#clipPath13)" font-family="'Dialog'"
                stroke="none" xml:space="preserve">(originals : ScenarioState) : ScenarioState</text>
            <line clip-path="url(#clipPath14)" fill="none" x1="38"
                x2="568" y1="199" y2="199"/>
            <rect x="36" y="159" clip-path="url(#clipPath4)" fill="none"
                width="533" height="81" stroke-width="1.1"/>
            <rect x="30" y="48" clip-path="url(#clipPath15)"
                fill="rgb(237,247,200)" width="534" height="52"
                stroke="none" stroke-width="1.1"/>
        </g>
        <g font-size="13" stroke-linecap="butt" fill="rgb(106,88,75)"
            stroke="rgb(106,88,75)" font-weight="bold" stroke-width="1.1">
            <text xml:space="preserve" x="264" y="63"
                clip-path="url(#clipPath16)" stroke="none">Scenario</text>
        </g>
        <g font-size="15" stroke-linecap="butt" fill="rgb(106,88,75)"
            font-family="'Ubuntu'" stroke="rgb(106,88,75)" stroke-width="0.1">
            <line clip-path="url(#clipPath17)" fill="none" x1="32"
                x2="562" y1="67" y2="67"/>
        </g>
        <g stroke-width="0.1" font-size="13" stroke-linecap="butt">
            <text xml:space="preserve" x="33" y="93"
                clip-path="url(#clipPath18)" stroke="none">+</text>
            <text xml:space="preserve" x="46" y="93"
                clip-path="url(#clipPath19)" stroke="none">addComponent</text>
            <text xml:space="preserve" x="147" y="93"
                clip-path="url(#clipPath20)" stroke="none">(component : ScenarioComponent)</text>
        </g>
        <g font-size="15" stroke-linecap="butt" fill="rgb(106,88,75)"
            font-family="'Ubuntu'" stroke="rgb(106,88,75)" stroke-width="0.1">
            <line clip-path="url(#clipPath21)" fill="none" x1="32"
                x2="562" y1="77" y2="77"/>
            <rect x="30" y="48" clip-path="url(#clipPath15)" fill="none"
                width="533" height="51" stroke-width="1.1"/>
            <rect x="153" y="292" clip-path="url(#clipPath22)"
                fill="rgb(200,230,255)" width="342" height="261"
                stroke="none" stroke-width="1.1"/>
        </g>
        <g stroke-width="1.1" font-size="13" font-weight="bold" stroke-linecap="butt">
            <text xml:space="preserve" x="271" y="307"
                clip-path="url(#clipPath23)" stroke="none">ScenarioState</text>
        </g>
        <g stroke-width="0.1" font-size="15" font-family="'Ubuntu'" stroke-linecap="butt">
            <line clip-path="url(#clipPath24)" fill="none" x1="155"
                x2="493" y1="311" y2="311"/>
            <text font-size="13" x="156" y="337"
                clip-path="url(#clipPath25)" font-family="'Dialog'"
                stroke="none" xml:space="preserve">+</text>
            <text font-size="13" x="169" y="337"
                clip-path="url(#clipPath26)" font-family="'Dialog'"
                stroke="none" xml:space="preserve">getName</text>
            <text font-size="13" x="231" y="337"
                clip-path="url(#clipPath27)" font-family="'Dialog'"
                stroke="none" xml:space="preserve">() : String</text>
            <text font-size="13" x="156" y="356"
                clip-path="url(#clipPath28)" font-family="'Dialog'"
                stroke="none" xml:space="preserve">+</text>
            <text font-size="13" x="169" y="356"
                clip-path="url(#clipPath29)" font-family="'Dialog'"
                stroke="none" xml:space="preserve">getBOLMass</text>
            <text font-size="13" x="252" y="356"
                clip-path="url(#clipPath30)" font-family="'Dialog'"
                stroke="none" xml:space="preserve">() : double</text>
            <text font-size="13" x="156" y="375"
                clip-path="url(#clipPath31)" font-family="'Dialog'"
                stroke="none" xml:space="preserve">+</text>
            <text font-size="13" x="169" y="375"
                clip-path="url(#clipPath32)" font-family="'Dialog'"
                stroke="none" xml:space="preserve">getCyclesNumber</text>
            <text font-size="13" x="287" y="375"
                clip-path="url(#clipPath33)" font-family="'Dialog'"
                stroke="none" xml:space="preserve">() : int</text>
            <text font-size="13" x="156" y="394"
                clip-path="url(#clipPath34)" font-family="'Dialog'"
                stroke="none" xml:space="preserve">+</text>
            <text font-size="13" x="169" y="394"
                clip-path="url(#clipPath35)" font-family="'Dialog'"
                stroke="none" xml:space="preserve">getManeuversNames</text>
            <text font-size="13" x="310" y="394"
                clip-path="url(#clipPath36)" font-family="'Dialog'"
                stroke="none" xml:space="preserve">() : List</text>
            <text font-size="13" x="156" y="413"
                clip-path="url(#clipPath37)" font-family="'Dialog'"
                stroke="none" xml:space="preserve">+</text>
            <text font-size="13" x="169" y="413"
                clip-path="url(#clipPath38)" font-family="'Dialog'"
                stroke="none" xml:space="preserve">getManeuversNumber</text>
            <text font-size="13" x="316" y="413"
                clip-path="url(#clipPath39)" font-family="'Dialog'"
                stroke="none" xml:space="preserve">(name : String) : int</text>
            <text font-size="13" x="156" y="432"
                clip-path="url(#clipPath40)" font-family="'Dialog'"
                stroke="none" xml:space="preserve">+</text>
            <text font-size="13" x="169" y="432"
                clip-path="url(#clipPath41)" font-family="'Dialog'"
                stroke="none" xml:space="preserve">getManeuversCycleDV</text>
            <text font-size="13" x="319" y="432"
                clip-path="url(#clipPath42)" font-family="'Dialog'"
                stroke="none" xml:space="preserve">(name : String) : double</text>
            <text font-size="13" x="156" y="451"
                clip-path="url(#clipPath43)" font-family="'Dialog'"
                stroke="none" xml:space="preserve">+</text>
            <text font-size="13" x="169" y="451"
                clip-path="url(#clipPath44)" font-family="'Dialog'"
                stroke="none" xml:space="preserve">getManeuversTotalDV</text>
            <text font-size="13" x="314" y="451"
                clip-path="url(#clipPath45)" font-family="'Dialog'"
                stroke="none" xml:space="preserve">(name : String) : double</text>
            <text font-size="13" x="156" y="470"
                clip-path="url(#clipPath46)" font-family="'Dialog'"
                stroke="none" xml:space="preserve">+</text>
            <text font-size="13" x="169" y="470"
                clip-path="url(#clipPath47)" font-family="'Dialog'"
                stroke="none" xml:space="preserve">getRealState</text>
            <text font-size="13" x="254" y="470"
                clip-path="url(#clipPath48)" font-family="'Dialog'"
                stroke="none" xml:space="preserve">() : SpacecraftState</text>
            <text font-size="13" x="156" y="489"
                clip-path="url(#clipPath49)" font-family="'Dialog'"
                stroke="none" xml:space="preserve">+</text>
            <text font-size="13" x="169" y="489"
                clip-path="url(#clipPath50)" font-family="'Dialog'"
                stroke="none" xml:space="preserve">getEstimatedState</text>
            <text font-size="13" x="292" y="489"
                clip-path="url(#clipPath51)" font-family="'Dialog'"
                stroke="none" xml:space="preserve">() : SpacecraftState</text>
            <text font-size="13" x="156" y="508"
                clip-path="url(#clipPath52)" font-family="'Dialog'"
                stroke="none" xml:space="preserve">+</text>
            <text font-size="13" x="169" y="508"
                clip-path="url(#clipPath53)" font-family="'Dialog'"
                stroke="none" xml:space="preserve">getPerformedEphemeris</text>
            <text font-size="13" x="329" y="508"
                clip-path="url(#clipPath54)" font-family="'Dialog'"
                stroke="none" xml:space="preserve">() : BoundedPropagator</text>
            <text font-size="13" x="156" y="527"
                clip-path="url(#clipPath55)" font-family="'Dialog'"
                stroke="none" xml:space="preserve">+</text>
            <text font-size="13" x="169" y="527"
                clip-path="url(#clipPath56)" font-family="'Dialog'"
                stroke="none" xml:space="preserve">getEarth</text>
            <text font-size="13" x="226" y="527"
                clip-path="url(#clipPath57)" font-family="'Dialog'"
                stroke="none" xml:space="preserve">() : BodyShape</text>
            <text font-size="13" x="156" y="546"
                clip-path="url(#clipPath58)" font-family="'Dialog'"
                stroke="none" xml:space="preserve">+</text>
            <text font-size="13" x="169" y="546"
                clip-path="url(#clipPath59)" font-family="'Dialog'"
                stroke="none" xml:space="preserve">getInertialFrame</text>
            <text font-size="13" x="279" y="546"
                clip-path="url(#clipPath60)" font-family="'Dialog'"
                stroke="none" xml:space="preserve">() : Frame</text>
            <line clip-path="url(#clipPath61)" fill="none" x1="155"
                x2="493" y1="321" y2="321"/>
            <rect x="153" y="292" clip-path="url(#clipPath22)"
                fill="none" width="341" height="260" stroke-width="1.1"/>
        </g>
        <g fill="rgb(243,239,235)" stroke-width="1.1" font-size="13"
            stroke-linecap="butt" stroke="rgb(243,239,235)">
            <polygon clip-path="url(#clipPath62)"
                points=" 591 339 863 339 872 349 872 433 591 433" stroke="none"/>
            <polygon fill="none" stroke-width="0.1"
                clip-path="url(#clipPath62)"
                points=" 862 339 862 349 872 349 862 339 591 339 591 433 872 433 872 349" stroke="rgb(105,22,22)"/>
            <text x="594" y="372" clip-path="url(#clipPath63)"
                fill="rgb(105,22,22)" stroke="none" stroke-width="0.1" xml:space="preserve">scenario state contains all the properties</text>
            <text x="594" y="389" clip-path="url(#clipPath63)"
                fill="rgb(105,22,22)" stroke="none" stroke-width="0.1" xml:space="preserve">of current cycle (orbit, maneuvers ...)</text>
            <text x="594" y="406" clip-path="url(#clipPath63)"
                fill="rgb(105,22,22)" stroke="none" stroke-width="0.1" xml:space="preserve">It is updated by the updateStates</text>
            <text x="594" y="423" clip-path="url(#clipPath63)"
                fill="rgb(105,22,22)" stroke="none" stroke-width="0.1" xml:space="preserve">methods of all scenario components.</text>
            <polygon stroke-width="0.1" clip-path="url(#clipPath64)"
                points=" 614 52 873 52 882 62 882 110 614 110" stroke="none"/>
            <polygon fill="none" stroke-width="0.1"
                clip-path="url(#clipPath64)"
                points=" 872 52 872 62 882 62 872 52 614 52 614 110 882 110 882 62" stroke="black"/>
            <text x="617" y="70" clip-path="url(#clipPath65)"
                fill="black" stroke="none" stroke-width="0.1" xml:space="preserve">as Scenario implements</text>
            <text x="617" y="87" clip-path="url(#clipPath65)"
                fill="black" stroke="none" stroke-width="0.1" xml:space="preserve">ScenarioComponent by itself,</text>
            <text x="617" y="104" clip-path="url(#clipPath65)"
                fill="black" stroke="none" stroke-width="0.1" xml:space="preserve">recursive scenario building is possible</text>
        </g>
        <g stroke-width="1.1" font-size="15" font-family="'Ubuntu'" stroke-linecap="butt">
            <rect x="0" y="0" clip-path="url(#clipPath1)" fill="none"
                width="900" height="571"/>
            <line clip-path="url(#clipPath66)" fill="none" x1="313"
                x2="313" y1="241" y2="292"/>
            <text font-size="13" x="326" y="272"
                clip-path="url(#clipPath67)" font-family="'Dialog'"
                stroke="none" xml:space="preserve">updates</text>
            <line clip-path="url(#clipPath68)" fill="none" x1="308"
                x2="313" y1="282" y2="292"/>
            <line clip-path="url(#clipPath68)" fill="none" x1="313"
                x2="318" y1="292" y2="282"/>
            <line clip-path="url(#clipPath69)" fill="none" x1="303"
                x2="303" y1="100" y2="159"/>
            <text font-size="13" x="313" y="145"
                clip-path="url(#clipPath70)" font-family="'Dialog'"
                stroke="none" xml:space="preserve">+component</text>
            <text font-size="13" x="270" y="145"
                clip-path="url(#clipPath71)" font-family="'Dialog'"
                stroke="none" xml:space="preserve">1..*</text>
        </g>
        <g fill="white" stroke-width="1.1" font-size="13"
            stroke-linecap="butt" stroke="white">
            <polygon clip-path="url(#clipPath72)"
                points=" 303 100 308 110 303 120 298 110" stroke="none"/>
            <polygon fill="none" clip-path="url(#clipPath72)"
                points=" 303 100 308 110 303 120 298 110" stroke="black"/>
        </g>
        <g stroke-width="1.1" stroke-dasharray="8,7" font-size="11" stroke-linecap="butt">
            <line clip-path="url(#clipPath73)" fill="none" x1="143"
                x2="143" y1="100" y2="159"/>
            <polygon fill="white" clip-path="url(#clipPath74)"
                points=" 143 159 137 145 149 145" stroke="none"/>
            <polygon fill="none" stroke-dasharray="none"
                clip-path="url(#clipPath74)" points=" 143 159 137 145 149 145"/>
            <line clip-path="url(#clipPath75)" fill="none" x1="614"
                x2="564" y1="74" y2="74" stroke="rgb(255,195,0)"/>
            <line clip-path="url(#clipPath76)" fill="none" x1="591"
                x2="495" y1="391" y2="391" stroke="rgb(105,22,22)"/>
        </g>
    </g>
</svg>
