<?xml version="1.0" encoding="UTF-8"?>
<svg stroke-dasharray="none" shape-rendering="auto"
    font-family="'Dialog'" width="801" text-rendering="auto"
    fill-opacity="1" color-interpolation="auto" color-rendering="auto"
    font-size="12" fill="black" stroke="black" image-rendering="auto"
    stroke-miterlimit="10" stroke-linecap="square"
    stroke-linejoin="miter" font-style="normal" height="1149"
    stroke-width="1" stroke-dashoffset="0" font-weight="normal" stroke-opacity="1">
    <!--Generated by the Batik Graphics2D SVG Generator-->
    <defs id="genericDefs"/>
    <g>
        <defs id="defs1">
            <clipPath clipPathUnits="userSpaceOnUse" id="clipPath1">
                <path d="M-1 -1 L801 -1 L801 1149 L-1 1149 L-1 -1 Z"/>
            </clipPath>
            <clipPath clipPathUnits="userSpaceOnUse" id="clipPath2">
                <path d="M5 7 L26 7 L26 22 L5 22 L5 7 Z"/>
            </clipPath>
            <clipPath clipPathUnits="userSpaceOnUse" id="clipPath3">
                <path d="M26 5 L90 5 L90 24 L26 24 L26 5 Z"/>
            </clipPath>
            <clipPath clipPathUnits="userSpaceOnUse" id="clipPath4">
                <path d="M59 70 L153 70 L153 442 L59 442 L59 70 Z"/>
            </clipPath>
            <clipPath clipPathUnits="userSpaceOnUse" id="clipPath5">
                <path d="M59 70 L153 70 L153 102 L59 102 L59 70 Z"/>
            </clipPath>
            <clipPath clipPathUnits="userSpaceOnUse" id="clipPath6">
                <path d="M70 76 L128 76 L128 95 L70 95 L70 76 Z"/>
            </clipPath>
            <clipPath clipPathUnits="userSpaceOnUse" id="clipPath7">
                <path d="M128 76 L142 76 L142 95 L128 95 L128 76 Z"/>
            </clipPath>
            <clipPath clipPathUnits="userSpaceOnUse" id="clipPath8">
                <path d="M70 76 L142 76 L142 96 L70 96 L70 76 Z"/>
            </clipPath>
            <clipPath clipPathUnits="userSpaceOnUse" id="clipPath9">
                <path d="M95 122 L117 122 L117 394 L95 394 L95 122 Z"/>
            </clipPath>
            <clipPath clipPathUnits="userSpaceOnUse" id="clipPath10">
                <path d="M186 70 L359 70 L359 447 L186 447 L186 70 Z"/>
            </clipPath>
            <clipPath clipPathUnits="userSpaceOnUse" id="clipPath11">
                <path d="M186 70 L359 70 L359 102 L186 102 L186 70 Z"/>
            </clipPath>
            <clipPath clipPathUnits="userSpaceOnUse" id="clipPath12">
                <path d="M193 76 L338 76 L338 95 L193 95 L193 76 Z"/>
            </clipPath>
            <clipPath clipPathUnits="userSpaceOnUse" id="clipPath13">
                <path d="M338 76 L352 76 L352 95 L338 95 L338 76 Z"/>
            </clipPath>
            <clipPath clipPathUnits="userSpaceOnUse" id="clipPath14">
                <path d="M193 76 L352 76 L352 96 L193 96 L193 76 Z"/>
            </clipPath>
            <clipPath clipPathUnits="userSpaceOnUse" id="clipPath15">
                <path d="M261 133 L283 133 L283 243 L261 243 L261 133 Z"/>
            </clipPath>
            <clipPath clipPathUnits="userSpaceOnUse" id="clipPath16">
                <path d="M388 70 L569 70 L569 442 L388 442 L388 70 Z"/>
            </clipPath>
            <clipPath clipPathUnits="userSpaceOnUse" id="clipPath17">
                <path d="M388 70 L569 70 L569 102 L388 102 L388 70 Z"/>
            </clipPath>
            <clipPath clipPathUnits="userSpaceOnUse" id="clipPath18">
                <path d="M399 76 L544 76 L544 95 L399 95 L399 76 Z"/>
            </clipPath>
            <clipPath clipPathUnits="userSpaceOnUse" id="clipPath19">
                <path d="M544 76 L558 76 L558 95 L544 95 L544 76 Z"/>
            </clipPath>
            <clipPath clipPathUnits="userSpaceOnUse" id="clipPath20">
                <path d="M399 76 L558 76 L558 96 L399 96 L399 76 Z"/>
            </clipPath>
            <clipPath clipPathUnits="userSpaceOnUse" id="clipPath21">
                <path d="M467 267 L489 267 L489 368 L467 368 L467 267 Z"/>
            </clipPath>
            <clipPath clipPathUnits="userSpaceOnUse" id="clipPath22">
                <path d="M603 70 L732 70 L732 447 L603 447 L603 70 Z"/>
            </clipPath>
            <clipPath clipPathUnits="userSpaceOnUse" id="clipPath23">
                <path d="M603 70 L732 70 L732 102 L603 102 L603 70 Z"/>
            </clipPath>
            <clipPath clipPathUnits="userSpaceOnUse" id="clipPath24">
                <path d="M614 76 L707 76 L707 95 L614 95 L614 76 Z"/>
            </clipPath>
            <clipPath clipPathUnits="userSpaceOnUse" id="clipPath25">
                <path d="M707 76 L721 76 L721 95 L707 95 L707 76 Z"/>
            </clipPath>
            <clipPath clipPathUnits="userSpaceOnUse" id="clipPath26">
                <path d="M614 76 L721 76 L721 96 L614 96 L614 76 Z"/>
            </clipPath>
            <clipPath clipPathUnits="userSpaceOnUse" id="clipPath27">
                <path d="M656 147 L678 147 L678 180 L656 180 L656 147 Z"/>
            </clipPath>
            <clipPath clipPathUnits="userSpaceOnUse" id="clipPath28">
                <path d="M656 194 L678 194 L678 303 L656 303 L656 194 Z"/>
            </clipPath>
            <clipPath clipPathUnits="userSpaceOnUse" id="clipPath29">
                <path d="M656 334 L678 334 L678 415 L656 415 L656 334 Z"/>
            </clipPath>
            <clipPath clipPathUnits="userSpaceOnUse" id="clipPath30">
                <path d="M102 111 L277 111 L277 164 L102 164 L102 111 Z"/>
            </clipPath>
            <clipPath clipPathUnits="userSpaceOnUse" id="clipPath31">
                <path d="M173 124 L255 124 L255 143 L173 143 L173 124 Z"/>
            </clipPath>
            <clipPath clipPathUnits="userSpaceOnUse" id="clipPath32">
                <path d="M251 138 L264 138 L264 151 L251 151 L251 138 Z"/>
            </clipPath>
            <clipPath clipPathUnits="userSpaceOnUse" id="clipPath33">
                <path d="M268 121 L672 121 L672 177 L268 177 L268 121 Z"/>
            </clipPath>
            <clipPath clipPathUnits="userSpaceOnUse" id="clipPath34">
                <path d="M565 134 L641 134 L641 153 L565 153 L565 134 Z"/>
            </clipPath>
            <clipPath clipPathUnits="userSpaceOnUse" id="clipPath35">
                <path d="M646 151 L659 151 L659 164 L646 164 L646 151 Z"/>
            </clipPath>
            <clipPath clipPathUnits="userSpaceOnUse" id="clipPath36">
                <path d="M268 169 L672 169 L672 227 L268 227 L268 169 Z"/>
            </clipPath>
            <clipPath clipPathUnits="userSpaceOnUse" id="clipPath37">
                <path d="M553 182 L653 182 L653 201 L553 201 L553 182 Z"/>
            </clipPath>
            <clipPath clipPathUnits="userSpaceOnUse" id="clipPath38">
                <path d="M646 201 L659 201 L659 214 L646 214 L646 201 Z"/>
            </clipPath>
            <clipPath clipPathUnits="userSpaceOnUse" id="clipPath39">
                <path d="M102 240 L483 240 L483 297 L102 297 L102 240 Z"/>
            </clipPath>
            <clipPath clipPathUnits="userSpaceOnUse" id="clipPath40">
                <path d="M375 253 L457 253 L457 272 L375 272 L375 253 Z"/>
            </clipPath>
            <clipPath clipPathUnits="userSpaceOnUse" id="clipPath41">
                <path d="M457 271 L470 271 L470 284 L457 284 L457 271 Z"/>
            </clipPath>
            <clipPath clipPathUnits="userSpaceOnUse" id="clipPath42">
                <path d="M102 193 L277 193 L277 245 L102 245 L102 193 Z"/>
            </clipPath>
            <clipPath clipPathUnits="userSpaceOnUse" id="clipPath43">
                <path d="M122 206 L220 206 L220 225 L122 225 L122 206 Z"/>
            </clipPath>
            <clipPath clipPathUnits="userSpaceOnUse" id="clipPath44">
                <path d="M115 219 L128 219 L128 232 L115 232 L115 219 Z"/>
            </clipPath>
            <clipPath clipPathUnits="userSpaceOnUse" id="clipPath45">
                <path d="M474 258 L672 258 L672 314 L474 314 L474 258 Z"/>
            </clipPath>
            <clipPath clipPathUnits="userSpaceOnUse" id="clipPath46">
                <path d="M576 271 L652 271 L652 290 L576 290 L576 271 Z"/>
            </clipPath>
            <clipPath clipPathUnits="userSpaceOnUse" id="clipPath47">
                <path d="M646 288 L659 288 L659 301 L646 301 L646 288 Z"/>
            </clipPath>
            <clipPath clipPathUnits="userSpaceOnUse" id="clipPath48">
                <path d="M474 304 L672 304 L672 358 L474 358 L474 304 Z"/>
            </clipPath>
            <clipPath clipPathUnits="userSpaceOnUse" id="clipPath49">
                <path d="M555 317 L655 317 L655 336 L555 336 L555 317 Z"/>
            </clipPath>
            <clipPath clipPathUnits="userSpaceOnUse" id="clipPath50">
                <path d="M646 332 L659 332 L659 345 L646 345 L646 332 Z"/>
            </clipPath>
            <clipPath clipPathUnits="userSpaceOnUse" id="clipPath51">
                <path d="M102 318 L483 318 L483 373 L102 373 L102 318 Z"/>
            </clipPath>
            <clipPath clipPathUnits="userSpaceOnUse" id="clipPath52">
                <path d="M119 331 L217 331 L217 350 L119 350 L119 331 Z"/>
            </clipPath>
            <clipPath clipPathUnits="userSpaceOnUse" id="clipPath53">
                <path d="M115 347 L128 347 L128 360 L115 360 L115 347 Z"/>
            </clipPath>
        </defs>
        <g font-size="11" fill="white" stroke-linejoin="round"
            stroke="white" stroke-width="0" stroke-miterlimit="0">
            <rect x="0" y="0" clip-path="url(#clipPath1)" width="800"
                height="1148" stroke="none"/>
        </g>
        <g stroke-width="0.1" font-size="11" stroke-linecap="butt">
            <line clip-path="url(#clipPath1)" fill="none" x1="1" x2="94"
                y1="31" y2="31"/>
            <line clip-path="url(#clipPath1)" fill="none" x1="94"
                x2="101" y1="31" y2="17"/>
            <line clip-path="url(#clipPath1)" fill="none" x1="101"
                x2="101" y1="17" y2="1"/>
            <text x="6" y="19" clip-path="url(#clipPath2)" stroke="none"
                font-weight="bold" xml:space="preserve">sd </text>
            <text font-size="13" x="27" y="19"
                clip-path="url(#clipPath3)" stroke="none" xml:space="preserve">scenario1</text>
            <line clip-path="url(#clipPath4)" fill="none" x1="106"
                x2="106" y1="101" y2="441" stroke-dasharray="10,2" stroke="rgb(106,88,75)"/>
            <rect x="60" y="71" clip-path="url(#clipPath5)"
                fill="rgb(237,247,200)" width="92"
                stroke-dasharray="10,2" height="30" stroke="none"/>
        </g>
        <g font-size="13" stroke-linecap="butt" fill="rgb(106,88,75)"
            stroke-dasharray="10,2" stroke="rgb(106,88,75)" stroke-width="0.1">
            <text xml:space="preserve" x="71" y="90"
                clip-path="url(#clipPath6)" stroke="none">Scenario</text>
            <text xml:space="preserve" x="129" y="90"
                clip-path="url(#clipPath7)" stroke="none"> : </text>
            <line clip-path="url(#clipPath8)" fill="none" x1="71"
                x2="141" y1="94" y2="94" stroke-dasharray="none" stroke-width="1.1"/>
            <rect x="60" y="71" clip-path="url(#clipPath5)" fill="none"
                width="91" stroke-dasharray="none" height="29" stroke-width="1.1"/>
        </g>
        <g fill="rgb(237,247,200)" stroke-width="1.1" font-size="11"
            stroke-linecap="butt" stroke="rgb(237,247,200)">
            <rect x="96" y="123" clip-path="url(#clipPath9)" width="20"
                height="270" stroke="none"/>
            <rect x="96" y="123" clip-path="url(#clipPath9)" fill="none"
                width="19" height="269" stroke="black"/>
        </g>
        <g font-size="11" stroke-linecap="butt" fill="rgb(110,44,18)"
            stroke-dasharray="10,2" stroke="rgb(110,44,18)" stroke-width="0.1">
            <line clip-path="url(#clipPath10)" fill="none" x1="272"
                x2="272" y1="101" y2="446"/>
            <rect x="187" y="71" clip-path="url(#clipPath11)"
                fill="rgb(244,242,213)" width="171" height="30" stroke="none"/>
            <text font-size="13" x="194" y="90"
                clip-path="url(#clipPath12)" stroke="none" xml:space="preserve">ScenarioComponent 1</text>
            <text font-size="13" x="339" y="90"
                clip-path="url(#clipPath13)" stroke="none" xml:space="preserve"> : </text>
            <line clip-path="url(#clipPath14)" fill="none" x1="194"
                x2="351" y1="94" y2="94" stroke-dasharray="none" stroke-width="1.1"/>
            <rect x="187" y="71" clip-path="url(#clipPath11)"
                fill="none" width="170" stroke-dasharray="none"
                height="29" stroke-width="1.1"/>
        </g>
        <g fill="rgb(244,242,213)" stroke-width="1.1" font-size="11"
            stroke-linecap="butt" stroke="rgb(244,242,213)">
            <rect x="262" y="134" clip-path="url(#clipPath15)"
                width="20" height="108" stroke="none"/>
            <rect x="262" y="134" clip-path="url(#clipPath15)"
                fill="none" width="19" height="107" stroke="black"/>
        </g>
        <g font-size="11" stroke-linecap="butt" fill="rgb(110,44,18)"
            stroke-dasharray="10,2" stroke="rgb(110,44,18)" stroke-width="0.1">
            <line clip-path="url(#clipPath16)" fill="none" x1="478"
                x2="478" y1="101" y2="441"/>
            <rect x="389" y="71" clip-path="url(#clipPath17)"
                fill="rgb(244,242,213)" width="179" height="30" stroke="none"/>
            <text font-size="13" x="400" y="90"
                clip-path="url(#clipPath18)" stroke="none" xml:space="preserve">ScenarioComponent 2</text>
            <text font-size="13" x="545" y="90"
                clip-path="url(#clipPath19)" stroke="none" xml:space="preserve"> : </text>
            <line clip-path="url(#clipPath20)" fill="none" x1="400"
                x2="557" y1="94" y2="94" stroke-dasharray="none" stroke-width="1.1"/>
            <rect x="389" y="71" clip-path="url(#clipPath17)"
                fill="none" width="178" stroke-dasharray="none"
                height="29" stroke-width="1.1"/>
        </g>
        <g fill="rgb(244,242,213)" stroke-width="1.1" font-size="11"
            stroke-linecap="butt" stroke="rgb(244,242,213)">
            <rect x="468" y="268" clip-path="url(#clipPath21)"
                width="20" height="99" stroke="none"/>
            <rect x="468" y="268" clip-path="url(#clipPath21)"
                fill="none" width="19" height="98" stroke="black"/>
        </g>
        <g font-size="11" stroke-linecap="butt" fill="rgb(106,88,75)"
            stroke-dasharray="10,2" stroke="rgb(106,88,75)" stroke-width="0.1">
            <line clip-path="url(#clipPath22)" fill="none" x1="667"
                x2="667" y1="101" y2="446"/>
            <rect x="604" y="71" clip-path="url(#clipPath23)"
                fill="rgb(237,247,200)" width="127" height="30" stroke="none"/>
            <text font-size="13" x="615" y="90"
                clip-path="url(#clipPath24)" stroke="none" xml:space="preserve">ScenarioState</text>
            <text font-size="13" x="708" y="90"
                clip-path="url(#clipPath25)" stroke="none" xml:space="preserve"> : </text>
            <line clip-path="url(#clipPath26)" fill="none" x1="615"
                x2="720" y1="94" y2="94" stroke-dasharray="none" stroke-width="1.1"/>
            <rect x="604" y="71" clip-path="url(#clipPath23)"
                fill="none" width="126" stroke-dasharray="none"
                height="29" stroke-width="1.1"/>
        </g>
        <g fill="rgb(237,247,200)" stroke-width="1.1" font-size="11"
            stroke-linecap="butt" stroke="rgb(237,247,200)">
            <rect x="657" y="148" clip-path="url(#clipPath27)"
                width="20" height="31" stroke="none"/>
            <rect x="657" y="148" clip-path="url(#clipPath27)"
                fill="none" width="19" height="30" stroke="black"/>
            <rect x="657" y="195" clip-path="url(#clipPath28)"
                width="20" height="107" stroke="none"/>
            <rect x="657" y="195" clip-path="url(#clipPath28)"
                fill="none" width="19" height="106" stroke="black"/>
            <rect x="657" y="335" clip-path="url(#clipPath29)"
                width="20" height="79" stroke="none"/>
            <rect x="657" y="335" clip-path="url(#clipPath29)"
                fill="none" width="19" height="78" stroke="black"/>
            <rect x="0" y="0" clip-path="url(#clipPath1)" fill="none"
                width="799" height="1147" stroke="black"/>
        </g>
        <g stroke-width="0.1" font-size="13" stroke-linecap="butt">
            <line clip-path="url(#clipPath30)" fill="none" x1="116"
                x2="262" y1="144" y2="144"/>
            <text xml:space="preserve" x="174" y="138"
                clip-path="url(#clipPath31)" stroke="none">updateStates</text>
            <polygon clip-path="url(#clipPath32)"
                points=" 262 144 252 149 252 139" stroke="none"/>
            <polygon fill="none" stroke-width="1.1"
                clip-path="url(#clipPath32)" points=" 262 144 252 149 252 139"/>
            <line clip-path="url(#clipPath33)" fill="none" x1="282"
                x2="657" y1="157" y2="157"/>
            <text xml:space="preserve" x="566" y="148"
                clip-path="url(#clipPath34)" stroke="none">getElement</text>
            <polygon clip-path="url(#clipPath35)"
                points=" 657 157 647 162 647 152" stroke="none"/>
            <polygon fill="none" stroke-width="1.1"
                clip-path="url(#clipPath35)" points=" 657 157 647 162 647 152"/>
            <line clip-path="url(#clipPath36)" fill="none" x1="282"
                x2="657" y1="207" y2="207" stroke-dasharray="10,5"/>
            <text x="554" y="196" clip-path="url(#clipPath37)"
                stroke-dasharray="10,5" stroke="none" xml:space="preserve">create updated</text>
            <line clip-path="url(#clipPath38)" fill="none" x1="647"
                x2="657" y1="212" y2="207" stroke-width="1.1"/>
            <line clip-path="url(#clipPath38)" fill="none" x1="657"
                x2="647" y1="207" y2="202" stroke-width="1.1"/>
            <line clip-path="url(#clipPath39)" fill="none" x1="116"
                x2="468" y1="277" y2="277"/>
            <text xml:space="preserve" x="376" y="267"
                clip-path="url(#clipPath40)" stroke="none">updateStates</text>
            <polygon clip-path="url(#clipPath41)"
                points=" 468 277 458 282 458 272" stroke="none"/>
            <polygon fill="none" stroke-width="1.1"
                clip-path="url(#clipPath41)" points=" 468 277 458 282 458 272"/>
            <line clip-path="url(#clipPath42)" fill="none" x1="262"
                x2="116" y1="225" y2="225" stroke-dasharray="10,5"/>
            <text x="123" y="220" clip-path="url(#clipPath43)"
                stroke-dasharray="10,5" stroke="none" xml:space="preserve">return updated</text>
            <polygon stroke-dasharray="10,5"
                clip-path="url(#clipPath44)"
                points=" 116 225 126 220 126 230" stroke="none"/>
            <polygon fill="none" stroke-width="1.1"
                clip-path="url(#clipPath44)" points=" 116 225 126 220 126 230"/>
            <line clip-path="url(#clipPath45)" fill="none" x1="488"
                x2="657" y1="294" y2="294"/>
            <text xml:space="preserve" x="577" y="285"
                clip-path="url(#clipPath46)" stroke="none">getElement</text>
            <polygon clip-path="url(#clipPath47)"
                points=" 657 294 647 299 647 289" stroke="none"/>
            <polygon fill="none" stroke-width="1.1"
                clip-path="url(#clipPath47)" points=" 657 294 647 299 647 289"/>
            <line clip-path="url(#clipPath48)" fill="none" x1="488"
                x2="657" y1="338" y2="338" stroke-dasharray="10,5"/>
            <text x="556" y="331" clip-path="url(#clipPath49)"
                stroke-dasharray="10,5" stroke="none" xml:space="preserve">create updated</text>
            <line clip-path="url(#clipPath50)" fill="none" x1="647"
                x2="657" y1="343" y2="338" stroke-width="1.1"/>
            <line clip-path="url(#clipPath50)" fill="none" x1="657"
                x2="647" y1="338" y2="333" stroke-width="1.1"/>
            <line clip-path="url(#clipPath51)" fill="none" x1="468"
                x2="116" y1="353" y2="353" stroke-dasharray="10,5"/>
            <text x="120" y="345" clip-path="url(#clipPath52)"
                stroke-dasharray="10,5" stroke="none" xml:space="preserve">return updated</text>
            <polygon stroke-dasharray="10,5"
                clip-path="url(#clipPath53)"
                points=" 116 353 126 348 126 358" stroke="none"/>
            <polygon fill="none" stroke-width="1.1"
                clip-path="url(#clipPath53)" points=" 116 353 126 348 126 358"/>
        </g>
    </g>
</svg>
