<?xml version="1.0" encoding="UTF-8"?>
<svg stroke-dasharray="none" shape-rendering="auto"
    font-family="'Dialog'" width="1149" text-rendering="auto"
    fill-opacity="1" color-interpolation="auto" color-rendering="auto"
    font-size="12" fill="black" stroke="black" image-rendering="auto"
    stroke-miterlimit="10" stroke-linecap="square"
    stroke-linejoin="miter" font-style="normal" height="801"
    stroke-width="1" stroke-dashoffset="0" font-weight="normal" stroke-opacity="1">
    <!--Generated by the Batik Graphics2D SVG Generator-->
    <defs id="genericDefs"/>
    <g>
        <defs id="defs1">
            <clipPath clipPathUnits="userSpaceOnUse" id="clipPath1">
                <path d="M-1 -1 L1149 -1 L1149 801 L-1 801 L-1 -1 Z"/>
            </clipPath>
            <clipPath clipPathUnits="userSpaceOnUse" id="clipPath2">
                <path d="M5 6 L65 6 L65 21 L5 21 L5 6 Z"/>
            </clipPath>
            <clipPath clipPathUnits="userSpaceOnUse" id="clipPath3">
                <path d="M65 5 L121 5 L121 22 L65 22 L65 5 Z"/>
            </clipPath>
            <clipPath clipPathUnits="userSpaceOnUse" id="clipPath4">
                <path d="M90 228 L612 228 L612 291 L90 291 L90 228 Z"/>
            </clipPath>
            <clipPath clipPathUnits="userSpaceOnUse" id="clipPath5">
                <path d="M307 230 L395 230 L395 245 L307 245 L307 230 Z"/>
            </clipPath>
            <clipPath clipPathUnits="userSpaceOnUse" id="clipPath6">
                <path d="M285 245 L416 245 L416 260 L285 260 L285 245 Z"/>
            </clipPath>
            <clipPath clipPathUnits="userSpaceOnUse" id="clipPath7">
                <path d="M92 258 L610 258 L610 270 L92 270 L92 258 Z"/>
            </clipPath>
            <clipPath clipPathUnits="userSpaceOnUse" id="clipPath8">
                <path d="M93 271 L106 271 L106 288 L93 288 L93 271 Z"/>
            </clipPath>
            <clipPath clipPathUnits="userSpaceOnUse" id="clipPath9">
                <path d="M106 271 L188 271 L188 288 L106 288 L106 271 Z"/>
            </clipPath>
            <clipPath clipPathUnits="userSpaceOnUse" id="clipPath10">
                <path d="M188 271 L598 271 L598 288 L188 288 L188 271 Z"/>
            </clipPath>
            <clipPath clipPathUnits="userSpaceOnUse" id="clipPath11">
                <path d="M92 268 L610 268 L610 289 L92 289 L92 268 Z"/>
            </clipPath>
            <clipPath clipPathUnits="userSpaceOnUse" id="clipPath12">
                <path d="M107 90 L572 90 L572 157 L107 157 L107 90 Z"/>
            </clipPath>
            <clipPath clipPathUnits="userSpaceOnUse" id="clipPath13">
                <path d="M307 92 L372 92 L372 109 L307 109 L307 92 Z"/>
            </clipPath>
            <clipPath clipPathUnits="userSpaceOnUse" id="clipPath14">
                <path d="M109 107 L570 107 L570 119 L109 119 L109 107 Z"/>
            </clipPath>
            <clipPath clipPathUnits="userSpaceOnUse" id="clipPath15">
                <path d="M110 120 L123 120 L123 137 L110 137 L110 120 Z"/>
            </clipPath>
            <clipPath clipPathUnits="userSpaceOnUse" id="clipPath16">
                <path d="M123 120 L224 120 L224 137 L123 137 L123 120 Z"/>
            </clipPath>
            <clipPath clipPathUnits="userSpaceOnUse" id="clipPath17">
                <path d="M224 120 L452 120 L452 137 L224 137 L224 120 Z"/>
            </clipPath>
            <clipPath clipPathUnits="userSpaceOnUse" id="clipPath18">
                <path d="M110 137 L123 137 L123 154 L110 154 L110 137 Z"/>
            </clipPath>
            <clipPath clipPathUnits="userSpaceOnUse" id="clipPath19">
                <path d="M123 137 L159 137 L159 154 L123 154 L123 137 Z"/>
            </clipPath>
            <clipPath clipPathUnits="userSpaceOnUse" id="clipPath20">
                <path d="M159 137 L558 137 L558 154 L159 154 L159 137 Z"/>
            </clipPath>
            <clipPath clipPathUnits="userSpaceOnUse" id="clipPath21">
                <path d="M109 117 L570 117 L570 155 L109 155 L109 117 Z"/>
            </clipPath>
            <clipPath clipPathUnits="userSpaceOnUse" id="clipPath22">
                <path d="M651 200 L932 200 L932 284 L651 284 L651 200 Z"/>
            </clipPath>
            <clipPath clipPathUnits="userSpaceOnUse" id="clipPath23">
                <path d="M739 202 L843 202 L843 219 L739 219 L739 202 Z"/>
            </clipPath>
            <clipPath clipPathUnits="userSpaceOnUse" id="clipPath24">
                <path d="M653 217 L930 217 L930 229 L653 229 L653 217 Z"/>
            </clipPath>
            <clipPath clipPathUnits="userSpaceOnUse" id="clipPath25">
                <path d="M654 230 L667 230 L667 247 L654 247 L654 230 Z"/>
            </clipPath>
            <clipPath clipPathUnits="userSpaceOnUse" id="clipPath26">
                <path d="M667 230 L751 230 L751 247 L667 247 L667 230 Z"/>
            </clipPath>
            <clipPath clipPathUnits="userSpaceOnUse" id="clipPath27">
                <path d="M751 230 L879 230 L879 247 L751 247 L751 230 Z"/>
            </clipPath>
            <clipPath clipPathUnits="userSpaceOnUse" id="clipPath28">
                <path d="M654 247 L667 247 L667 264 L654 264 L654 247 Z"/>
            </clipPath>
            <clipPath clipPathUnits="userSpaceOnUse" id="clipPath29">
                <path d="M667 247 L790 247 L790 264 L667 264 L667 247 Z"/>
            </clipPath>
            <clipPath clipPathUnits="userSpaceOnUse" id="clipPath30">
                <path d="M790 247 L918 247 L918 264 L790 264 L790 247 Z"/>
            </clipPath>
            <clipPath clipPathUnits="userSpaceOnUse" id="clipPath31">
                <path d="M654 264 L667 264 L667 281 L654 281 L654 264 Z"/>
            </clipPath>
            <clipPath clipPathUnits="userSpaceOnUse" id="clipPath32">
                <path d="M667 264 L760 264 L760 281 L667 281 L667 264 Z"/>
            </clipPath>
            <clipPath clipPathUnits="userSpaceOnUse" id="clipPath33">
                <path d="M760 264 L806 264 L806 281 L760 281 L760 264 Z"/>
            </clipPath>
            <clipPath clipPathUnits="userSpaceOnUse" id="clipPath34">
                <path d="M653 227 L930 227 L930 282 L653 282 L653 227 Z"/>
            </clipPath>
            <clipPath clipPathUnits="userSpaceOnUse" id="clipPath35">
                <path d="M108 363 L227 363 L227 421 L108 421 L108 363 Z"/>
            </clipPath>
            <clipPath clipPathUnits="userSpaceOnUse" id="clipPath36">
                <path d="M122 365 L213 365 L213 382 L122 382 L122 365 Z"/>
            </clipPath>
            <clipPath clipPathUnits="userSpaceOnUse" id="clipPath37">
                <path d="M115 382 L220 382 L220 399 L115 399 L115 382 Z"/>
            </clipPath>
            <clipPath clipPathUnits="userSpaceOnUse" id="clipPath38">
                <path d="M110 397 L225 397 L225 409 L110 409 L110 397 Z"/>
            </clipPath>
            <clipPath clipPathUnits="userSpaceOnUse" id="clipPath39">
                <path d="M110 407 L225 407 L225 419 L110 419 L110 407 Z"/>
            </clipPath>
            <clipPath clipPathUnits="userSpaceOnUse" id="clipPath40">
                <path d="M664 334 L910 334 L910 417 L664 417 L664 334 Z"/>
            </clipPath>
            <clipPath clipPathUnits="userSpaceOnUse" id="clipPath41">
                <path d="M667 337 L891 337 L891 414 L667 414 L667 337 Z"/>
            </clipPath>
            <clipPath clipPathUnits="userSpaceOnUse" id="clipPath42">
                <path d="M270 363 L428 363 L428 421 L270 421 L270 363 Z"/>
            </clipPath>
            <clipPath clipPathUnits="userSpaceOnUse" id="clipPath43">
                <path d="M277 365 L421 365 L421 382 L277 382 L277 365 Z"/>
            </clipPath>
            <clipPath clipPathUnits="userSpaceOnUse" id="clipPath44">
                <path d="M283 382 L414 382 L414 399 L283 399 L283 382 Z"/>
            </clipPath>
            <clipPath clipPathUnits="userSpaceOnUse" id="clipPath45">
                <path d="M272 397 L426 397 L426 409 L272 409 L272 397 Z"/>
            </clipPath>
            <clipPath clipPathUnits="userSpaceOnUse" id="clipPath46">
                <path d="M272 407 L426 407 L426 419 L272 419 L272 407 Z"/>
            </clipPath>
            <clipPath clipPathUnits="userSpaceOnUse" id="clipPath47">
                <path d="M453 363 L597 363 L597 421 L453 421 L453 363 Z"/>
            </clipPath>
            <clipPath clipPathUnits="userSpaceOnUse" id="clipPath48">
                <path d="M478 365 L571 365 L571 382 L478 382 L478 365 Z"/>
            </clipPath>
            <clipPath clipPathUnits="userSpaceOnUse" id="clipPath49">
                <path d="M459 382 L590 382 L590 399 L459 399 L459 382 Z"/>
            </clipPath>
            <clipPath clipPathUnits="userSpaceOnUse" id="clipPath50">
                <path d="M455 397 L595 397 L595 409 L455 409 L455 397 Z"/>
            </clipPath>
            <clipPath clipPathUnits="userSpaceOnUse" id="clipPath51">
                <path d="M455 407 L595 407 L595 419 L455 419 L455 407 Z"/>
            </clipPath>
            <clipPath clipPathUnits="userSpaceOnUse" id="clipPath52">
                <path d="M623 30 L884 30 L884 83 L623 83 L623 30 Z"/>
            </clipPath>
            <clipPath clipPathUnits="userSpaceOnUse" id="clipPath53">
                <path d="M626 33 L867 33 L867 80 L626 80 L626 33 Z"/>
            </clipPath>
            <clipPath clipPathUnits="userSpaceOnUse" id="clipPath54">
                <path d="M475 211 L788 211 L788 289 L475 289 L475 211 Z"/>
            </clipPath>
            <clipPath clipPathUnits="userSpaceOnUse" id="clipPath55">
                <path d="M641 244 L654 244 L654 257 L641 257 L641 244 Z"/>
            </clipPath>
            <clipPath clipPathUnits="userSpaceOnUse" id="clipPath56">
                <path d="M30 116 L360 116 L360 336 L30 336 L30 116 Z"/>
            </clipPath>
            <clipPath clipPathUnits="userSpaceOnUse" id="clipPath57">
                <path d="M332 289 L347 289 L347 306 L332 306 L332 289 Z"/>
            </clipPath>
            <clipPath clipPathUnits="userSpaceOnUse" id="clipPath58">
                <path d="M153 275 L372 275 L372 380 L153 380 L153 275 Z"/>
            </clipPath>
            <clipPath clipPathUnits="userSpaceOnUse" id="clipPath59">
                <path d="M344 288 L359 288 L359 305 L344 305 L344 288 Z"/>
            </clipPath>
            <clipPath clipPathUnits="userSpaceOnUse" id="clipPath60">
                <path d="M331 275 L372 275 L372 380 L331 380 L331 275 Z"/>
            </clipPath>
            <clipPath clipPathUnits="userSpaceOnUse" id="clipPath61">
                <path d="M331 275 L540 275 L540 380 L331 380 L331 275 Z"/>
            </clipPath>
            <clipPath clipPathUnits="userSpaceOnUse" id="clipPath62">
                <path d="M206 142 L484 142 L484 247 L206 247 L206 142 Z"/>
            </clipPath>
            <clipPath clipPathUnits="userSpaceOnUse" id="clipPath63">
                <path d="M354 203 L440 203 L440 220 L354 220 L354 203 Z"/>
            </clipPath>
            <clipPath clipPathUnits="userSpaceOnUse" id="clipPath64">
                <path d="M311 203 L336 203 L336 220 L311 220 L311 203 Z"/>
            </clipPath>
            <clipPath clipPathUnits="userSpaceOnUse" id="clipPath65">
                <path d="M339 155 L352 155 L352 178 L339 178 L339 155 Z"/>
            </clipPath>
            <clipPath clipPathUnits="userSpaceOnUse" id="clipPath66">
                <path d="M526 63 L639 63 L639 106 L526 106 L526 63 Z"/>
            </clipPath>
            <clipPath clipPathUnits="userSpaceOnUse" id="clipPath67">
                <path d="M775 269 L804 269 L804 350 L775 350 L775 269 Z"/>
            </clipPath>
        </defs>
        <g font-size="11" fill="white" stroke-linejoin="round"
            stroke="white" stroke-width="0" stroke-miterlimit="0">
            <rect x="0" y="0" clip-path="url(#clipPath1)" width="1148"
                height="800" stroke="none"/>
        </g>
        <g stroke-width="0.1" font-size="11" stroke-linecap="butt">
            <line clip-path="url(#clipPath1)" fill="none" x1="1"
                x2="125" y1="29" y2="29"/>
            <line clip-path="url(#clipPath1)" fill="none" x1="125"
                x2="132" y1="29" y2="15"/>
            <line clip-path="url(#clipPath1)" fill="none" x1="132"
                x2="132" y1="15" y2="1"/>
            <text x="6" y="18" clip-path="url(#clipPath2)" stroke="none"
                font-weight="bold" xml:space="preserve">package </text>
            <text font-size="13" x="66" y="19"
                clip-path="url(#clipPath3)" stroke="none" xml:space="preserve">scenario</text>
            <rect x="91" y="229" clip-path="url(#clipPath4)"
                fill="rgb(244,242,212)" width="520" height="61" stroke="none"/>
            <text x="308" y="242" clip-path="url(#clipPath5)"
                fill="rgb(110,44,18)" stroke="none" xml:space="preserve">&lt;&lt;interface&gt;&gt;</text>
            <text x="286" y="257" clip-path="url(#clipPath6)"
                fill="rgb(110,44,18)" stroke="none" font-weight="bold" xml:space="preserve">ScenarioComponent</text>
            <line clip-path="url(#clipPath7)" fill="none" x1="93"
                x2="609" y1="259" y2="259" stroke="rgb(110,44,18)"/>
            <text font-size="13" x="94" y="285"
                clip-path="url(#clipPath8)" stroke="none" xml:space="preserve">+</text>
            <text font-size="13" x="107" y="285"
                clip-path="url(#clipPath9)" stroke="none" xml:space="preserve">updateState</text>
            <text font-size="13" x="189" y="285"
                clip-path="url(#clipPath10)" stroke="none" xml:space="preserve">(original : ScenarioState, target : AbsoluteDate) : ScenarioState</text>
            <line clip-path="url(#clipPath11)" fill="none" x1="93"
                x2="609" y1="269" y2="269" stroke="rgb(110,44,18)"/>
            <rect x="91" y="229" clip-path="url(#clipPath4)" fill="none"
                width="519" height="60" stroke="rgb(110,44,18)" stroke-width="1.1"/>
            <rect x="108" y="91" clip-path="url(#clipPath12)"
                fill="rgb(237,247,200)" width="463" height="65"
                stroke="none" stroke-width="1.1"/>
        </g>
        <g font-size="13" stroke-linecap="butt" fill="rgb(106,88,75)"
            stroke="rgb(106,88,75)" font-weight="bold" stroke-width="1.1">
            <text xml:space="preserve" x="308" y="106"
                clip-path="url(#clipPath13)" stroke="none">Scenario</text>
            <line clip-path="url(#clipPath14)" fill="none" x1="110"
                x2="569" y1="108" y2="108" stroke-width="0.1"/>
        </g>
        <g stroke-width="0.1" font-size="13" stroke-linecap="butt">
            <text xml:space="preserve" x="111" y="134"
                clip-path="url(#clipPath15)" stroke="none">+</text>
            <text xml:space="preserve" x="124" y="134"
                clip-path="url(#clipPath16)" stroke="none">addComponent</text>
            <text xml:space="preserve" x="225" y="134"
                clip-path="url(#clipPath17)" stroke="none">(component : ScenarioComponent)</text>
            <text xml:space="preserve" x="111" y="151"
                clip-path="url(#clipPath18)" stroke="none">+</text>
            <text xml:space="preserve" x="124" y="151"
                clip-path="url(#clipPath19)" stroke="none">apply</text>
            <text xml:space="preserve" x="160" y="151"
                clip-path="url(#clipPath20)" stroke="none">(origin : ScenarioState, target : AbsoluteDate) : ScenarioState</text>
            <line clip-path="url(#clipPath21)" fill="none" x1="110"
                x2="569" y1="118" y2="118" stroke="rgb(106,88,75)"/>
        </g>
        <g fill="rgb(106,88,75)" stroke-width="1.1" font-size="11"
            stroke-linecap="butt" stroke="rgb(106,88,75)">
            <rect x="108" y="91" clip-path="url(#clipPath12)"
                fill="none" width="462" height="64"/>
            <rect x="652" y="201" clip-path="url(#clipPath22)"
                fill="rgb(237,247,200)" width="279" height="82" stroke="none"/>
            <text font-size="13" x="740" y="216"
                clip-path="url(#clipPath23)" stroke="none"
                font-weight="bold" xml:space="preserve">ScenarioState</text>
            <line clip-path="url(#clipPath24)" fill="none" x1="654"
                x2="929" y1="218" y2="218" stroke-width="0.1"/>
        </g>
        <g stroke-width="0.1" font-size="13" stroke-linecap="butt">
            <text xml:space="preserve" x="655" y="244"
                clip-path="url(#clipPath25)" stroke="none">+</text>
            <text xml:space="preserve" x="668" y="244"
                clip-path="url(#clipPath26)" stroke="none">getRealState</text>
            <text xml:space="preserve" x="752" y="244"
                clip-path="url(#clipPath27)" stroke="none">() : SpacecraftState</text>
            <text xml:space="preserve" x="655" y="261"
                clip-path="url(#clipPath28)" stroke="none">+</text>
            <text xml:space="preserve" x="668" y="261"
                clip-path="url(#clipPath29)" stroke="none">getEstimatedState</text>
            <text xml:space="preserve" x="791" y="261"
                clip-path="url(#clipPath30)" stroke="none">() : SpacecraftState</text>
            <text xml:space="preserve" x="655" y="278"
                clip-path="url(#clipPath31)" stroke="none">+</text>
            <text xml:space="preserve" x="668" y="278"
                clip-path="url(#clipPath32)" stroke="none">getManeuvers</text>
            <text xml:space="preserve" x="761" y="278"
                clip-path="url(#clipPath33)" stroke="none">() : List</text>
            <line clip-path="url(#clipPath34)" fill="none" x1="654"
                x2="929" y1="228" y2="228" stroke="rgb(106,88,75)"/>
        </g>
        <g fill="rgb(106,88,75)" stroke-width="1.1" font-size="11"
            stroke-linecap="butt" stroke="rgb(106,88,75)">
            <rect x="652" y="201" clip-path="url(#clipPath22)"
                fill="none" width="278" height="81"/>
            <rect x="109" y="364" clip-path="url(#clipPath35)"
                fill="rgb(237,247,200)" width="117" height="56" stroke="none"/>
            <text font-size="13" x="123" y="379"
                clip-path="url(#clipPath36)" stroke="none"
                font-weight="bold" xml:space="preserve">ControlLoop</text>
            <text font-size="13" x="116" y="396"
                clip-path="url(#clipPath37)" stroke="none"
                font-weight="bold" xml:space="preserve">(from control)</text>
            <line clip-path="url(#clipPath38)" fill="none" x1="111"
                x2="224" y1="398" y2="398" stroke-width="0.1"/>
            <line clip-path="url(#clipPath39)" fill="none" x1="111"
                x2="224" y1="408" y2="408" stroke-width="0.1"/>
            <rect x="109" y="364" clip-path="url(#clipPath35)"
                fill="none" width="116" height="55"/>
            <polygon fill="rgb(243,239,235)"
                clip-path="url(#clipPath40)"
                points=" 665 335 899 335 908 345 908 415 665 415" stroke="none"/>
        </g>
        <g fill="rgb(105,22,22)" stroke-width="0.1" font-size="13"
            stroke-linecap="butt" stroke="rgb(105,22,22)">
            <polygon fill="none" clip-path="url(#clipPath40)" points=" 898 335 898 345 908 345 898 335 665 335 665 415 908 415 908 345"/>
            <text xml:space="preserve" x="668" y="351"
                clip-path="url(#clipPath41)" stroke="none">scenario state contains all the</text>
            <text xml:space="preserve" x="668" y="366"
                clip-path="url(#clipPath41)" stroke="none">properties of current cycle (orbit,</text>
            <text xml:space="preserve" x="668" y="381"
                clip-path="url(#clipPath41)" stroke="none">maneuvers ...)</text>
            <text xml:space="preserve" x="668" y="396"
                clip-path="url(#clipPath41)" stroke="none">It is updated by the apply methods</text>
            <text xml:space="preserve" x="668" y="411"
                clip-path="url(#clipPath41)" stroke="none">of all scenario components.</text>
            <rect x="271" y="364" clip-path="url(#clipPath42)"
                fill="rgb(237,247,200)" width="156" height="56" stroke="none"/>
            <text x="278" y="379" clip-path="url(#clipPath43)"
                fill="rgb(106,88,75)" stroke="none" font-weight="bold" xml:space="preserve">OrbitDetermination</text>
            <text x="284" y="396" clip-path="url(#clipPath44)"
                fill="rgb(106,88,75)" stroke="none" font-weight="bold" xml:space="preserve">(from realization)</text>
            <line clip-path="url(#clipPath45)" fill="none" x1="273"
                x2="425" y1="398" y2="398" stroke="rgb(106,88,75)"/>
            <line clip-path="url(#clipPath46)" fill="none" x1="273"
                x2="425" y1="408" y2="408" stroke="rgb(106,88,75)"/>
        </g>
        <g fill="rgb(106,88,75)" stroke-width="1.1" font-size="11"
            stroke-linecap="butt" stroke="rgb(106,88,75)">
            <rect x="271" y="364" clip-path="url(#clipPath42)"
                fill="none" width="155" height="55"/>
            <rect x="454" y="364" clip-path="url(#clipPath47)"
                fill="rgb(237,247,200)" width="142" height="56" stroke="none"/>
            <text font-size="13" x="479" y="379"
                clip-path="url(#clipPath48)" stroke="none"
                font-weight="bold" xml:space="preserve">Propagation</text>
            <text font-size="13" x="460" y="396"
                clip-path="url(#clipPath49)" stroke="none"
                font-weight="bold" xml:space="preserve">(from realization)</text>
            <line clip-path="url(#clipPath50)" fill="none" x1="456"
                x2="594" y1="398" y2="398" stroke-width="0.1"/>
            <line clip-path="url(#clipPath51)" fill="none" x1="456"
                x2="594" y1="408" y2="408" stroke-width="0.1"/>
            <rect x="454" y="364" clip-path="url(#clipPath47)"
                fill="none" width="141" height="55"/>
            <polygon fill="rgb(243,239,235)"
                clip-path="url(#clipPath52)"
                points=" 624 31 873 31 882 41 882 81 624 81" stroke="none"/>
        </g>
        <g fill="rgb(105,22,22)" stroke-width="0.1" font-size="13"
            stroke-linecap="butt" stroke="rgb(105,22,22)">
            <polygon fill="none" clip-path="url(#clipPath52)" points=" 872 31 872 41 882 41 872 31 624 31 624 81 882 81 882 41"/>
            <text xml:space="preserve" x="627" y="47"
                clip-path="url(#clipPath53)" stroke="none">as Scenario implements</text>
            <text xml:space="preserve" x="627" y="62"
                clip-path="url(#clipPath53)" stroke="none">ScenarioComponent by itself,</text>
            <text xml:space="preserve" x="627" y="77"
                clip-path="url(#clipPath53)" stroke="none">recursive scenario building is possible</text>
        </g>
        <g stroke-width="1.1" font-size="11" stroke-linecap="butt">
            <rect x="0" y="0" clip-path="url(#clipPath1)" fill="none"
                width="1147" height="799"/>
            <line clip-path="url(#clipPath54)" fill="none" x1="611"
                x2="652" y1="250" y2="250" stroke="rgb(153,15,15)"/>
            <line clip-path="url(#clipPath55)" fill="none" x1="642"
                x2="652" y1="255" y2="250" stroke="rgb(153,15,15)"/>
            <line clip-path="url(#clipPath55)" fill="none" x1="652"
                x2="642" y1="250" y2="245" stroke="rgb(153,15,15)"/>
            <line clip-path="url(#clipPath56)" fill="none" x1="108"
                x2="44" y1="130" y2="130" stroke-dasharray="8,7" stroke="rgb(110,44,18)"/>
            <line clip-path="url(#clipPath56)" fill="none" x1="44"
                x2="44" y1="130" y2="321" stroke-dasharray="8,7" stroke="rgb(110,44,18)"/>
            <line clip-path="url(#clipPath56)" fill="none" x1="44"
                x2="339" y1="321" y2="321" stroke-dasharray="8,7" stroke="rgb(110,44,18)"/>
            <line clip-path="url(#clipPath56)" fill="none" x1="339"
                x2="339" y1="321" y2="290" stroke-dasharray="8,7" stroke="rgb(110,44,18)"/>
            <polygon fill="white" stroke-dasharray="8,7"
                clip-path="url(#clipPath57)"
                points=" 339 290 345 304 333 304" stroke="none"/>
            <polygon fill="none" clip-path="url(#clipPath57)"
                points=" 339 290 345 304 333 304" stroke="rgb(110,44,18)"/>
            <line clip-path="url(#clipPath58)" fill="none" x1="167"
                x2="167" y1="365" y2="322" stroke-dasharray="8,7" stroke="rgb(110,44,18)"/>
            <line clip-path="url(#clipPath58)" fill="none" x1="167"
                x2="351" y1="322" y2="322" stroke-dasharray="8,7" stroke="rgb(110,44,18)"/>
            <line clip-path="url(#clipPath58)" fill="none" x1="351"
                x2="351" y1="322" y2="289" stroke-dasharray="8,7" stroke="rgb(110,44,18)"/>
            <polygon fill="white" stroke-dasharray="8,7"
                clip-path="url(#clipPath59)"
                points=" 351 289 357 303 345 303" stroke="none"/>
            <polygon fill="none" clip-path="url(#clipPath59)"
                points=" 351 289 357 303 345 303" stroke="rgb(110,44,18)"/>
            <line clip-path="url(#clipPath60)" fill="none" x1="349"
                x2="349" y1="365" y2="322" stroke-dasharray="8,7" stroke="rgb(110,44,18)"/>
            <line clip-path="url(#clipPath60)" fill="none" x1="349"
                x2="351" y1="322" y2="322" stroke-dasharray="8,7" stroke="rgb(110,44,18)"/>
            <line clip-path="url(#clipPath60)" fill="none" x1="351"
                x2="351" y1="322" y2="289" stroke-dasharray="8,7" stroke="rgb(110,44,18)"/>
            <polygon fill="white" stroke-dasharray="8,7"
                clip-path="url(#clipPath59)"
                points=" 351 289 357 303 345 303" stroke="none"/>
            <polygon fill="none" clip-path="url(#clipPath59)"
                points=" 351 289 357 303 345 303" stroke="rgb(110,44,18)"/>
            <line clip-path="url(#clipPath61)" fill="none" x1="525"
                x2="525" y1="365" y2="322" stroke-dasharray="8,7" stroke="rgb(110,44,18)"/>
            <line clip-path="url(#clipPath61)" fill="none" x1="525"
                x2="351" y1="322" y2="322" stroke-dasharray="8,7" stroke="rgb(110,44,18)"/>
            <line clip-path="url(#clipPath61)" fill="none" x1="351"
                x2="351" y1="322" y2="289" stroke-dasharray="8,7" stroke="rgb(110,44,18)"/>
            <polygon fill="white" stroke-dasharray="8,7"
                clip-path="url(#clipPath59)"
                points=" 351 289 357 303 345 303" stroke="none"/>
            <polygon fill="none" clip-path="url(#clipPath59)"
                points=" 351 289 357 303 345 303" stroke="rgb(110,44,18)"/>
            <line clip-path="url(#clipPath62)" fill="none" x1="345"
                x2="345" y1="156" y2="229" stroke="rgb(153,15,15)"/>
            <text font-size="13" x="355" y="217"
                clip-path="url(#clipPath63)" fill="rgb(153,15,15)"
                stroke="none" xml:space="preserve">+component</text>
            <text font-size="13" x="312" y="217"
                clip-path="url(#clipPath64)" fill="rgb(153,15,15)"
                stroke="none" xml:space="preserve">1..*</text>
            <polygon fill="white" clip-path="url(#clipPath65)"
                points=" 345 156 350 166 345 176 340 166" stroke="none"/>
            <polygon fill="none" clip-path="url(#clipPath65)"
                points=" 345 156 350 166 345 176 340 166" stroke="rgb(153,15,15)"/>
        </g>
        <g font-size="13" stroke-linecap="butt" fill="rgb(105,22,22)"
            stroke-dasharray="8,7" stroke="rgb(105,22,22)" stroke-width="1.1">
            <line clip-path="url(#clipPath66)" fill="none" x1="624"
                x2="540" y1="77" y2="91"/>
            <line clip-path="url(#clipPath67)" fill="none" x1="789"
                x2="789" y1="335" y2="283"/>
        </g>
    </g>
</svg>
