<?xml version="1.0" encoding="UTF-8"?>
<svg stroke-dasharray="none" shape-rendering="auto"
    font-family="'Dialog'" width="1149" text-rendering="auto"
    fill-opacity="1" color-interpolation="auto" color-rendering="auto"
    font-size="12" fill="black" stroke="black" image-rendering="auto"
    stroke-miterlimit="10" stroke-linecap="square"
    stroke-linejoin="miter" font-style="normal" height="801"
    stroke-width="1" stroke-dashoffset="0" font-weight="normal" stroke-opacity="1">
    <!--Generated by the Batik Graphics2D SVG Generator-->
    <defs id="genericDefs"/>
    <g>
        <defs id="defs1">
            <clipPath clipPathUnits="userSpaceOnUse" id="clipPath1">
                <path d="M-1 -1 L1149 -1 L1149 801 L-1 801 L-1 -1 Z"/>
            </clipPath>
            <clipPath clipPathUnits="userSpaceOnUse" id="clipPath2">
                <path d="M5 7 L65 7 L65 22 L5 22 L5 7 Z"/>
            </clipPath>
            <clipPath clipPathUnits="userSpaceOnUse" id="clipPath3">
                <path d="M65 5 L121 5 L121 24 L65 24 L65 5 Z"/>
            </clipPath>
            <clipPath clipPathUnits="userSpaceOnUse" id="clipPath4">
                <path d="M57 231 L593 231 L593 296 L57 296 L57 231 Z"/>
            </clipPath>
            <clipPath clipPathUnits="userSpaceOnUse" id="clipPath5">
                <path d="M281 233 L369 233 L369 248 L281 248 L281 233 Z"/>
            </clipPath>
            <clipPath clipPathUnits="userSpaceOnUse" id="clipPath6">
                <path d="M259 248 L390 248 L390 263 L259 263 L259 248 Z"/>
            </clipPath>
            <clipPath clipPathUnits="userSpaceOnUse" id="clipPath7">
                <path d="M59 261 L591 261 L591 273 L59 273 L59 261 Z"/>
            </clipPath>
            <clipPath clipPathUnits="userSpaceOnUse" id="clipPath8">
                <path d="M60 274 L73 274 L73 293 L60 293 L60 274 Z"/>
            </clipPath>
            <clipPath clipPathUnits="userSpaceOnUse" id="clipPath9">
                <path d="M73 274 L162 274 L162 293 L73 293 L73 274 Z"/>
            </clipPath>
            <clipPath clipPathUnits="userSpaceOnUse" id="clipPath10">
                <path d="M162 274 L579 274 L579 293 L162 293 L162 274 Z"/>
            </clipPath>
            <clipPath clipPathUnits="userSpaceOnUse" id="clipPath11">
                <path d="M59 271 L591 271 L591 294 L59 294 L59 271 Z"/>
            </clipPath>
            <clipPath clipPathUnits="userSpaceOnUse" id="clipPath12">
                <path d="M54 93 L590 93 L590 166 L54 166 L54 93 Z"/>
            </clipPath>
            <clipPath clipPathUnits="userSpaceOnUse" id="clipPath13">
                <path d="M289 95 L354 95 L354 114 L289 114 L289 95 Z"/>
            </clipPath>
            <clipPath clipPathUnits="userSpaceOnUse" id="clipPath14">
                <path d="M56 112 L588 112 L588 124 L56 124 L56 112 Z"/>
            </clipPath>
            <clipPath clipPathUnits="userSpaceOnUse" id="clipPath15">
                <path d="M57 125 L70 125 L70 144 L57 144 L57 125 Z"/>
            </clipPath>
            <clipPath clipPathUnits="userSpaceOnUse" id="clipPath16">
                <path d="M70 125 L171 125 L171 144 L70 144 L70 125 Z"/>
            </clipPath>
            <clipPath clipPathUnits="userSpaceOnUse" id="clipPath17">
                <path d="M171 125 L399 125 L399 144 L171 144 L171 125 Z"/>
            </clipPath>
            <clipPath clipPathUnits="userSpaceOnUse" id="clipPath18">
                <path d="M57 144 L70 144 L70 163 L57 163 L57 144 Z"/>
            </clipPath>
            <clipPath clipPathUnits="userSpaceOnUse" id="clipPath19">
                <path d="M70 144 L159 144 L159 163 L70 163 L70 144 Z"/>
            </clipPath>
            <clipPath clipPathUnits="userSpaceOnUse" id="clipPath20">
                <path d="M159 144 L576 144 L576 163 L159 163 L159 144 Z"/>
            </clipPath>
            <clipPath clipPathUnits="userSpaceOnUse" id="clipPath21">
                <path d="M56 122 L588 122 L588 164 L56 164 L56 122 Z"/>
            </clipPath>
            <clipPath clipPathUnits="userSpaceOnUse" id="clipPath22">
                <path d="M691 223 L995 223 L995 524 L691 524 L691 223 Z"/>
            </clipPath>
            <clipPath clipPathUnits="userSpaceOnUse" id="clipPath23">
                <path d="M791 225 L895 225 L895 244 L791 244 L791 225 Z"/>
            </clipPath>
            <clipPath clipPathUnits="userSpaceOnUse" id="clipPath24">
                <path d="M693 242 L993 242 L993 254 L693 254 L693 242 Z"/>
            </clipPath>
            <clipPath clipPathUnits="userSpaceOnUse" id="clipPath25">
                <path d="M694 255 L707 255 L707 274 L694 274 L694 255 Z"/>
            </clipPath>
            <clipPath clipPathUnits="userSpaceOnUse" id="clipPath26">
                <path d="M707 255 L791 255 L791 274 L707 274 L707 255 Z"/>
            </clipPath>
            <clipPath clipPathUnits="userSpaceOnUse" id="clipPath27">
                <path d="M791 255 L919 255 L919 274 L791 274 L791 255 Z"/>
            </clipPath>
            <clipPath clipPathUnits="userSpaceOnUse" id="clipPath28">
                <path d="M694 274 L707 274 L707 293 L694 293 L694 274 Z"/>
            </clipPath>
            <clipPath clipPathUnits="userSpaceOnUse" id="clipPath29">
                <path d="M707 274 L830 274 L830 293 L707 293 L707 274 Z"/>
            </clipPath>
            <clipPath clipPathUnits="userSpaceOnUse" id="clipPath30">
                <path d="M830 274 L958 274 L958 293 L830 293 L830 274 Z"/>
            </clipPath>
            <clipPath clipPathUnits="userSpaceOnUse" id="clipPath31">
                <path d="M694 293 L707 293 L707 312 L694 312 L694 293 Z"/>
            </clipPath>
            <clipPath clipPathUnits="userSpaceOnUse" id="clipPath32">
                <path d="M707 293 L870 293 L870 312 L707 312 L707 293 Z"/>
            </clipPath>
            <clipPath clipPathUnits="userSpaceOnUse" id="clipPath33">
                <path d="M870 293 L916 293 L916 312 L870 312 L870 293 Z"/>
            </clipPath>
            <clipPath clipPathUnits="userSpaceOnUse" id="clipPath34">
                <path d="M694 312 L707 312 L707 331 L694 331 L694 312 Z"/>
            </clipPath>
            <clipPath clipPathUnits="userSpaceOnUse" id="clipPath35">
                <path d="M707 312 L867 312 L867 331 L707 331 L707 312 Z"/>
            </clipPath>
            <clipPath clipPathUnits="userSpaceOnUse" id="clipPath36">
                <path d="M867 312 L913 312 L913 331 L867 331 L867 312 Z"/>
            </clipPath>
            <clipPath clipPathUnits="userSpaceOnUse" id="clipPath37">
                <path d="M694 331 L707 331 L707 350 L694 350 L694 331 Z"/>
            </clipPath>
            <clipPath clipPathUnits="userSpaceOnUse" id="clipPath38">
                <path d="M707 331 L816 331 L816 350 L707 350 L707 331 Z"/>
            </clipPath>
            <clipPath clipPathUnits="userSpaceOnUse" id="clipPath39">
                <path d="M816 331 L856 331 L856 350 L816 350 L816 331 Z"/>
            </clipPath>
            <clipPath clipPathUnits="userSpaceOnUse" id="clipPath40">
                <path d="M694 350 L707 350 L707 369 L694 369 L694 350 Z"/>
            </clipPath>
            <clipPath clipPathUnits="userSpaceOnUse" id="clipPath41">
                <path d="M707 350 L776 350 L776 369 L707 369 L707 350 Z"/>
            </clipPath>
            <clipPath clipPathUnits="userSpaceOnUse" id="clipPath42">
                <path d="M776 350 L816 350 L816 369 L776 369 L776 350 Z"/>
            </clipPath>
            <clipPath clipPathUnits="userSpaceOnUse" id="clipPath43">
                <path d="M694 369 L707 369 L707 388 L694 388 L694 369 Z"/>
            </clipPath>
            <clipPath clipPathUnits="userSpaceOnUse" id="clipPath44">
                <path d="M707 369 L795 369 L795 388 L707 388 L707 369 Z"/>
            </clipPath>
            <clipPath clipPathUnits="userSpaceOnUse" id="clipPath45">
                <path d="M795 369 L862 369 L862 388 L795 388 L795 369 Z"/>
            </clipPath>
            <clipPath clipPathUnits="userSpaceOnUse" id="clipPath46">
                <path d="M694 388 L707 388 L707 407 L694 407 L694 388 Z"/>
            </clipPath>
            <clipPath clipPathUnits="userSpaceOnUse" id="clipPath47">
                <path d="M707 388 L802 388 L802 407 L707 407 L707 388 Z"/>
            </clipPath>
            <clipPath clipPathUnits="userSpaceOnUse" id="clipPath48">
                <path d="M802 388 L842 388 L842 407 L802 407 L802 388 Z"/>
            </clipPath>
            <clipPath clipPathUnits="userSpaceOnUse" id="clipPath49">
                <path d="M694 407 L707 407 L707 426 L694 426 L694 407 Z"/>
            </clipPath>
            <clipPath clipPathUnits="userSpaceOnUse" id="clipPath50">
                <path d="M707 407 L821 407 L821 426 L707 426 L707 407 Z"/>
            </clipPath>
            <clipPath clipPathUnits="userSpaceOnUse" id="clipPath51">
                <path d="M821 407 L888 407 L888 426 L821 426 L821 407 Z"/>
            </clipPath>
            <clipPath clipPathUnits="userSpaceOnUse" id="clipPath52">
                <path d="M694 426 L707 426 L707 445 L694 445 L694 426 Z"/>
            </clipPath>
            <clipPath clipPathUnits="userSpaceOnUse" id="clipPath53">
                <path d="M707 426 L848 426 L848 445 L707 445 L707 426 Z"/>
            </clipPath>
            <clipPath clipPathUnits="userSpaceOnUse" id="clipPath54">
                <path d="M848 426 L915 426 L915 445 L848 445 L848 426 Z"/>
            </clipPath>
            <clipPath clipPathUnits="userSpaceOnUse" id="clipPath55">
                <path d="M694 445 L707 445 L707 464 L694 464 L694 445 Z"/>
            </clipPath>
            <clipPath clipPathUnits="userSpaceOnUse" id="clipPath56">
                <path d="M707 445 L861 445 L861 464 L707 464 L707 445 Z"/>
            </clipPath>
            <clipPath clipPathUnits="userSpaceOnUse" id="clipPath57">
                <path d="M861 445 L972 445 L972 464 L861 464 L861 445 Z"/>
            </clipPath>
            <clipPath clipPathUnits="userSpaceOnUse" id="clipPath58">
                <path d="M694 464 L707 464 L707 483 L694 483 L694 464 Z"/>
            </clipPath>
            <clipPath clipPathUnits="userSpaceOnUse" id="clipPath59">
                <path d="M707 464 L894 464 L894 483 L707 483 L707 464 Z"/>
            </clipPath>
            <clipPath clipPathUnits="userSpaceOnUse" id="clipPath60">
                <path d="M894 464 L961 464 L961 483 L894 483 L894 464 Z"/>
            </clipPath>
            <clipPath clipPathUnits="userSpaceOnUse" id="clipPath61">
                <path d="M694 483 L707 483 L707 502 L694 502 L694 483 Z"/>
            </clipPath>
            <clipPath clipPathUnits="userSpaceOnUse" id="clipPath62">
                <path d="M707 483 L870 483 L870 502 L707 502 L707 483 Z"/>
            </clipPath>
            <clipPath clipPathUnits="userSpaceOnUse" id="clipPath63">
                <path d="M870 483 L981 483 L981 502 L870 502 L870 483 Z"/>
            </clipPath>
            <clipPath clipPathUnits="userSpaceOnUse" id="clipPath64">
                <path d="M694 502 L707 502 L707 521 L694 521 L694 502 Z"/>
            </clipPath>
            <clipPath clipPathUnits="userSpaceOnUse" id="clipPath65">
                <path d="M707 502 L903 502 L903 521 L707 521 L707 502 Z"/>
            </clipPath>
            <clipPath clipPathUnits="userSpaceOnUse" id="clipPath66">
                <path d="M903 502 L970 502 L970 521 L903 521 L903 502 Z"/>
            </clipPath>
            <clipPath clipPathUnits="userSpaceOnUse" id="clipPath67">
                <path d="M693 252 L993 252 L993 522 L693 522 L693 252 Z"/>
            </clipPath>
            <clipPath clipPathUnits="userSpaceOnUse" id="clipPath68">
                <path d="M108 365 L227 365 L227 427 L108 427 L108 365 Z"/>
            </clipPath>
            <clipPath clipPathUnits="userSpaceOnUse" id="clipPath69">
                <path d="M122 367 L213 367 L213 386 L122 386 L122 367 Z"/>
            </clipPath>
            <clipPath clipPathUnits="userSpaceOnUse" id="clipPath70">
                <path d="M115 386 L220 386 L220 405 L115 405 L115 386 Z"/>
            </clipPath>
            <clipPath clipPathUnits="userSpaceOnUse" id="clipPath71">
                <path d="M110 403 L225 403 L225 415 L110 415 L110 403 Z"/>
            </clipPath>
            <clipPath clipPathUnits="userSpaceOnUse" id="clipPath72">
                <path d="M110 413 L225 413 L225 425 L110 425 L110 413 Z"/>
            </clipPath>
            <clipPath clipPathUnits="userSpaceOnUse" id="clipPath73">
                <path d="M293 471 L577 471 L577 568 L293 568 L293 471 Z"/>
            </clipPath>
            <clipPath clipPathUnits="userSpaceOnUse" id="clipPath74">
                <path d="M296 491 L559 491 L559 561 L296 561 L296 491 Z"/>
            </clipPath>
            <clipPath clipPathUnits="userSpaceOnUse" id="clipPath75">
                <path d="M270 365 L428 365 L428 427 L270 427 L270 365 Z"/>
            </clipPath>
            <clipPath clipPathUnits="userSpaceOnUse" id="clipPath76">
                <path d="M277 367 L421 367 L421 386 L277 386 L277 367 Z"/>
            </clipPath>
            <clipPath clipPathUnits="userSpaceOnUse" id="clipPath77">
                <path d="M283 386 L414 386 L414 405 L283 405 L283 386 Z"/>
            </clipPath>
            <clipPath clipPathUnits="userSpaceOnUse" id="clipPath78">
                <path d="M272 403 L426 403 L426 415 L272 415 L272 403 Z"/>
            </clipPath>
            <clipPath clipPathUnits="userSpaceOnUse" id="clipPath79">
                <path d="M272 413 L426 413 L426 425 L272 425 L272 413 Z"/>
            </clipPath>
            <clipPath clipPathUnits="userSpaceOnUse" id="clipPath80">
                <path d="M453 365 L597 365 L597 427 L453 427 L453 365 Z"/>
            </clipPath>
            <clipPath clipPathUnits="userSpaceOnUse" id="clipPath81">
                <path d="M478 367 L571 367 L571 386 L478 386 L478 367 Z"/>
            </clipPath>
            <clipPath clipPathUnits="userSpaceOnUse" id="clipPath82">
                <path d="M459 386 L590 386 L590 405 L459 405 L459 386 Z"/>
            </clipPath>
            <clipPath clipPathUnits="userSpaceOnUse" id="clipPath83">
                <path d="M455 403 L595 403 L595 415 L455 415 L455 403 Z"/>
            </clipPath>
            <clipPath clipPathUnits="userSpaceOnUse" id="clipPath84">
                <path d="M455 413 L595 413 L595 425 L455 425 L455 413 Z"/>
            </clipPath>
            <clipPath clipPathUnits="userSpaceOnUse" id="clipPath85">
                <path d="M619 97 L890 97 L890 158 L619 158 L619 97 Z"/>
            </clipPath>
            <clipPath clipPathUnits="userSpaceOnUse" id="clipPath86">
                <path d="M622 102 L874 102 L874 155 L622 155 L622 102 Z"/>
            </clipPath>
            <clipPath clipPathUnits="userSpaceOnUse" id="clipPath87">
                <path d="M568 238 L756 238 L756 320 L568 320 L568 238 Z"/>
            </clipPath>
            <clipPath clipPathUnits="userSpaceOnUse" id="clipPath88">
                <path d="M633 253 L687 253 L687 272 L633 272 L633 253 Z"/>
            </clipPath>
            <clipPath clipPathUnits="userSpaceOnUse" id="clipPath89">
                <path d="M681 273 L694 273 L694 286 L681 286 L681 273 Z"/>
            </clipPath>
            <clipPath clipPathUnits="userSpaceOnUse" id="clipPath90">
                <path d="M153 280 L348 280 L348 382 L153 382 L153 280 Z"/>
            </clipPath>
            <clipPath clipPathUnits="userSpaceOnUse" id="clipPath91">
                <path d="M320 293 L335 293 L335 310 L320 310 L320 293 Z"/>
            </clipPath>
            <clipPath clipPathUnits="userSpaceOnUse" id="clipPath92">
                <path d="M307 280 L364 280 L364 382 L307 382 L307 280 Z"/>
            </clipPath>
            <clipPath clipPathUnits="userSpaceOnUse" id="clipPath93">
                <path d="M307 280 L540 280 L540 382 L307 382 L307 280 Z"/>
            </clipPath>
            <clipPath clipPathUnits="userSpaceOnUse" id="clipPath94">
                <path d="M184 151 L462 151 L462 252 L184 252 L184 151 Z"/>
            </clipPath>
            <clipPath clipPathUnits="userSpaceOnUse" id="clipPath95">
                <path d="M332 204 L418 204 L418 223 L332 223 L332 204 Z"/>
            </clipPath>
            <clipPath clipPathUnits="userSpaceOnUse" id="clipPath96">
                <path d="M289 204 L314 204 L314 223 L289 223 L289 204 Z"/>
            </clipPath>
            <clipPath clipPathUnits="userSpaceOnUse" id="clipPath97">
                <path d="M317 164 L330 164 L330 187 L317 187 L317 164 Z"/>
            </clipPath>
            <clipPath clipPathUnits="userSpaceOnUse" id="clipPath98">
                <path d="M146 151 L187 151 L187 247 L146 247 L146 151 Z"/>
            </clipPath>
            <clipPath clipPathUnits="userSpaceOnUse" id="clipPath99">
                <path d="M159 217 L174 217 L174 234 L159 234 L159 217 Z"/>
            </clipPath>
            <clipPath clipPathUnits="userSpaceOnUse" id="clipPath100">
                <path d="M575 115 L635 115 L635 144 L575 144 L575 115 Z"/>
            </clipPath>
            <clipPath clipPathUnits="userSpaceOnUse" id="clipPath101">
                <path d="M562 486 L707 486 L707 515 L562 515 L562 486 Z"/>
            </clipPath>
        </defs>
        <g font-size="11" fill="white" stroke-linejoin="round"
            stroke="white" stroke-width="0" stroke-miterlimit="0">
            <rect x="0" y="0" clip-path="url(#clipPath1)" width="1148"
                height="800" stroke="none"/>
        </g>
        <g stroke-width="0.1" font-size="11" stroke-linecap="butt">
            <line clip-path="url(#clipPath1)" fill="none" x1="1"
                x2="125" y1="31" y2="31"/>
            <line clip-path="url(#clipPath1)" fill="none" x1="125"
                x2="132" y1="31" y2="17"/>
            <line clip-path="url(#clipPath1)" fill="none" x1="132"
                x2="132" y1="17" y2="1"/>
            <text x="6" y="19" clip-path="url(#clipPath2)" stroke="none"
                font-weight="bold" xml:space="preserve">package </text>
            <text font-size="13" x="66" y="19"
                clip-path="url(#clipPath3)" stroke="none" xml:space="preserve">scenario</text>
            <rect x="58" y="232" clip-path="url(#clipPath4)"
                fill="rgb(244,232,212)" width="534" height="63" stroke="none"/>
            <text x="282" y="245" clip-path="url(#clipPath5)"
                fill="rgb(110,44,18)" stroke="none" xml:space="preserve">&lt;&lt;interface&gt;&gt;</text>
            <text x="260" y="260" clip-path="url(#clipPath6)"
                fill="rgb(110,44,18)" stroke="none" font-weight="bold" xml:space="preserve">ScenarioComponent</text>
            <line clip-path="url(#clipPath7)" fill="none" x1="60"
                x2="590" y1="262" y2="262" stroke="rgb(110,44,18)"/>
            <text font-size="13" x="61" y="288"
                clip-path="url(#clipPath8)" stroke="none" xml:space="preserve">+</text>
            <text font-size="13" x="74" y="288"
                clip-path="url(#clipPath9)" stroke="none" xml:space="preserve">updateStates</text>
            <text font-size="13" x="163" y="288"
                clip-path="url(#clipPath10)" stroke="none" xml:space="preserve">(originals : ScenarioState, target : AbsoluteDate) : ScenarioState</text>
            <line clip-path="url(#clipPath11)" fill="none" x1="60"
                x2="590" y1="272" y2="272" stroke="rgb(110,44,18)"/>
            <rect x="58" y="232" clip-path="url(#clipPath4)" fill="none"
                width="533" height="62" stroke="rgb(110,44,18)" stroke-width="1.1"/>
            <rect x="55" y="94" clip-path="url(#clipPath12)"
                fill="rgb(237,247,200)" width="534" height="71"
                stroke="none" stroke-width="1.1"/>
        </g>
        <g font-size="13" stroke-linecap="butt" fill="rgb(106,88,75)"
            stroke="rgb(106,88,75)" font-weight="bold" stroke-width="1.1">
            <text xml:space="preserve" x="290" y="109"
                clip-path="url(#clipPath13)" stroke="none">Scenario</text>
            <line clip-path="url(#clipPath14)" fill="none" x1="57"
                x2="587" y1="113" y2="113" stroke-width="0.1"/>
        </g>
        <g stroke-width="0.1" font-size="13" stroke-linecap="butt">
            <text xml:space="preserve" x="58" y="139"
                clip-path="url(#clipPath15)" stroke="none">+</text>
            <text xml:space="preserve" x="71" y="139"
                clip-path="url(#clipPath16)" stroke="none">addComponent</text>
            <text xml:space="preserve" x="172" y="139"
                clip-path="url(#clipPath17)" stroke="none">(component : ScenarioComponent)</text>
            <text xml:space="preserve" x="58" y="158"
                clip-path="url(#clipPath18)" stroke="none">+</text>
            <text xml:space="preserve" x="71" y="158"
                clip-path="url(#clipPath19)" stroke="none">updateStates</text>
            <text xml:space="preserve" x="160" y="158"
                clip-path="url(#clipPath20)" stroke="none">(originals : ScenarioState, target : AbsoluteDate) : ScenarioState</text>
            <line clip-path="url(#clipPath21)" fill="none" x1="57"
                x2="587" y1="123" y2="123" stroke="rgb(106,88,75)"/>
        </g>
        <g fill="rgb(106,88,75)" stroke-width="1.1" font-size="11"
            stroke-linecap="butt" stroke="rgb(106,88,75)">
            <rect x="55" y="94" clip-path="url(#clipPath12)" fill="none"
                width="533" height="70"/>
            <rect x="692" y="224" clip-path="url(#clipPath22)"
                fill="rgb(237,247,200)" width="302" height="299" stroke="none"/>
            <text font-size="13" x="792" y="239"
                clip-path="url(#clipPath23)" stroke="none"
                font-weight="bold" xml:space="preserve">ScenarioState</text>
            <line clip-path="url(#clipPath24)" fill="none" x1="694"
                x2="992" y1="243" y2="243" stroke-width="0.1"/>
        </g>
        <g stroke-width="0.1" font-size="13" stroke-linecap="butt">
            <text xml:space="preserve" x="695" y="269"
                clip-path="url(#clipPath25)" stroke="none">+</text>
            <text xml:space="preserve" x="708" y="269"
                clip-path="url(#clipPath26)" stroke="none">getRealState</text>
            <text xml:space="preserve" x="792" y="269"
                clip-path="url(#clipPath27)" stroke="none">() : SpacecraftState</text>
            <text xml:space="preserve" x="695" y="288"
                clip-path="url(#clipPath28)" stroke="none">+</text>
            <text xml:space="preserve" x="708" y="288"
                clip-path="url(#clipPath29)" stroke="none">getEstimatedState</text>
            <text xml:space="preserve" x="831" y="288"
                clip-path="url(#clipPath30)" stroke="none">() : SpacecraftState</text>
            <text xml:space="preserve" x="695" y="307"
                clip-path="url(#clipPath31)" stroke="none">+</text>
            <text xml:space="preserve" x="708" y="307"
                clip-path="url(#clipPath32)" stroke="none">getTheoreticalManeuvers</text>
            <text xml:space="preserve" x="871" y="307"
                clip-path="url(#clipPath33)" stroke="none">() : List</text>
            <text xml:space="preserve" x="695" y="326"
                clip-path="url(#clipPath34)" stroke="none">+</text>
            <text xml:space="preserve" x="708" y="326"
                clip-path="url(#clipPath35)" stroke="none">getPerformedManeuvers</text>
            <text xml:space="preserve" x="868" y="326"
                clip-path="url(#clipPath36)" stroke="none">() : List</text>
            <text xml:space="preserve" x="695" y="345"
                clip-path="url(#clipPath37)" stroke="none">+</text>
            <text xml:space="preserve" x="708" y="345"
                clip-path="url(#clipPath38)" stroke="none">getCycleNumber</text>
            <text xml:space="preserve" x="817" y="345"
                clip-path="url(#clipPath39)" stroke="none">() : int</text>
            <text xml:space="preserve" x="695" y="364"
                clip-path="url(#clipPath40)" stroke="none">+</text>
            <text xml:space="preserve" x="708" y="364"
                clip-path="url(#clipPath41)" stroke="none">getInPlane</text>
            <text xml:space="preserve" x="777" y="364"
                clip-path="url(#clipPath42)" stroke="none">() : int</text>
            <text xml:space="preserve" x="695" y="383"
                clip-path="url(#clipPath43)" stroke="none">+</text>
            <text xml:space="preserve" x="708" y="383"
                clip-path="url(#clipPath44)" stroke="none">getInPlaneDV</text>
            <text xml:space="preserve" x="796" y="383"
                clip-path="url(#clipPath45)" stroke="none">() : double</text>
            <text xml:space="preserve" x="695" y="402"
                clip-path="url(#clipPath46)" stroke="none">+</text>
            <text xml:space="preserve" x="708" y="402"
                clip-path="url(#clipPath47)" stroke="none">getOutOfPlane</text>
            <text xml:space="preserve" x="803" y="402"
                clip-path="url(#clipPath48)" stroke="none">() : int</text>
            <text xml:space="preserve" x="695" y="421"
                clip-path="url(#clipPath49)" stroke="none">+</text>
            <text xml:space="preserve" x="708" y="421"
                clip-path="url(#clipPath50)" stroke="none">getOutOfPlaneDV</text>
            <text xml:space="preserve" x="822" y="421"
                clip-path="url(#clipPath51)" stroke="none">() : double</text>
            <text xml:space="preserve" x="695" y="440"
                clip-path="url(#clipPath52)" stroke="none">+</text>
            <text xml:space="preserve" x="708" y="440"
                clip-path="url(#clipPath53)" stroke="none">getMassConsumption</text>
            <text xml:space="preserve" x="849" y="440"
                clip-path="url(#clipPath54)" stroke="none">() : double</text>
            <text xml:space="preserve" x="695" y="459"
                clip-path="url(#clipPath55)" stroke="none">+</text>
            <text xml:space="preserve" x="708" y="459"
                clip-path="url(#clipPath56)" stroke="none">getAscendingNodeDate</text>
            <text xml:space="preserve" x="862" y="459"
                clip-path="url(#clipPath57)" stroke="none">() : AbsoluteDate</text>
            <text xml:space="preserve" x="695" y="478"
                clip-path="url(#clipPath58)" stroke="none">+</text>
            <text xml:space="preserve" x="708" y="478"
                clip-path="url(#clipPath59)" stroke="none">getAscendingNodeSolarTime</text>
            <text xml:space="preserve" x="895" y="478"
                clip-path="url(#clipPath60)" stroke="none">() : double</text>
            <text xml:space="preserve" x="695" y="497"
                clip-path="url(#clipPath61)" stroke="none">+</text>
            <text xml:space="preserve" x="708" y="497"
                clip-path="url(#clipPath62)" stroke="none">getDescendingNodeDate</text>
            <text xml:space="preserve" x="871" y="497"
                clip-path="url(#clipPath63)" stroke="none">() : AbsoluteDate</text>
            <text xml:space="preserve" x="695" y="516"
                clip-path="url(#clipPath64)" stroke="none">+</text>
            <text xml:space="preserve" x="708" y="516"
                clip-path="url(#clipPath65)" stroke="none">getDescendingNodeSolarTime</text>
            <text xml:space="preserve" x="904" y="516"
                clip-path="url(#clipPath66)" stroke="none">() : double</text>
            <line clip-path="url(#clipPath67)" fill="none" x1="694"
                x2="992" y1="253" y2="253" stroke="rgb(106,88,75)"/>
        </g>
        <g fill="rgb(106,88,75)" stroke-width="1.1" font-size="11"
            stroke-linecap="butt" stroke="rgb(106,88,75)">
            <rect x="692" y="224" clip-path="url(#clipPath22)"
                fill="none" width="301" height="298"/>
            <rect x="109" y="366" clip-path="url(#clipPath68)"
                fill="rgb(237,247,200)" width="117" height="60" stroke="none"/>
            <text font-size="13" x="123" y="381"
                clip-path="url(#clipPath69)" stroke="none"
                font-weight="bold" xml:space="preserve">ControlLoop</text>
            <text font-size="13" x="116" y="400"
                clip-path="url(#clipPath70)" stroke="none"
                xml:space="preserve">(from control)</text>
            <line clip-path="url(#clipPath71)" fill="none" x1="111"
                x2="224" y1="404" y2="404" stroke-width="0.1"/>
            <line clip-path="url(#clipPath72)" fill="none" x1="111"
                x2="224" y1="414" y2="414" stroke-width="0.1"/>
            <rect x="109" y="366" clip-path="url(#clipPath68)"
                fill="none" width="116" height="59"/>
            <polygon fill="rgb(243,239,235)"
                clip-path="url(#clipPath73)"
                points=" 294 472 566 472 575 482 575 566 294 566" stroke="none"/>
        </g>
        <g fill="rgb(105,22,22)" stroke-width="0.1" font-size="13"
            stroke-linecap="butt" stroke="rgb(105,22,22)">
            <polygon fill="none" clip-path="url(#clipPath73)" points=" 565 472 565 482 575 482 565 472 294 472 294 566 575 566 575 482"/>
            <text xml:space="preserve" x="297" y="505"
                clip-path="url(#clipPath74)" stroke="none">scenario state contains all the properties</text>
            <text xml:space="preserve" x="297" y="522"
                clip-path="url(#clipPath74)" stroke="none">of current cycle (orbit, maneuvers ...)</text>
            <text xml:space="preserve" x="297" y="539"
                clip-path="url(#clipPath74)" stroke="none">It is updated by the updateStates</text>
            <text xml:space="preserve" x="297" y="556"
                clip-path="url(#clipPath74)" stroke="none">methods of all scenario components.</text>
            <rect x="271" y="366" clip-path="url(#clipPath75)"
                fill="rgb(237,247,200)" width="156" height="60" stroke="none"/>
            <text x="278" y="381" clip-path="url(#clipPath76)"
                fill="rgb(106,88,75)" stroke="none" font-weight="bold" xml:space="preserve">OrbitDetermination</text>
            <text x="284" y="400" clip-path="url(#clipPath77)"
                fill="rgb(106,88,75)" stroke="none" xml:space="preserve">(from realization)</text>
            <line clip-path="url(#clipPath78)" fill="none" x1="273"
                x2="425" y1="404" y2="404" stroke="rgb(106,88,75)"/>
            <line clip-path="url(#clipPath79)" fill="none" x1="273"
                x2="425" y1="414" y2="414" stroke="rgb(106,88,75)"/>
        </g>
        <g fill="rgb(106,88,75)" stroke-width="1.1" font-size="11"
            stroke-linecap="butt" stroke="rgb(106,88,75)">
            <rect x="271" y="366" clip-path="url(#clipPath75)"
                fill="none" width="155" height="59"/>
            <rect x="454" y="366" clip-path="url(#clipPath80)"
                fill="rgb(237,247,200)" width="142" height="60" stroke="none"/>
            <text font-size="13" x="479" y="381"
                clip-path="url(#clipPath81)" stroke="none"
                font-weight="bold" xml:space="preserve">Propagation</text>
            <text font-size="13" x="460" y="400"
                clip-path="url(#clipPath82)" stroke="none"
                xml:space="preserve">(from realization)</text>
            <line clip-path="url(#clipPath83)" fill="none" x1="456"
                x2="594" y1="404" y2="404" stroke-width="0.1"/>
            <line clip-path="url(#clipPath84)" fill="none" x1="456"
                x2="594" y1="414" y2="414" stroke-width="0.1"/>
            <rect x="454" y="366" clip-path="url(#clipPath80)"
                fill="none" width="141" height="59"/>
            <polygon fill="rgb(243,239,235)"
                clip-path="url(#clipPath85)"
                points=" 620 98 879 98 888 108 888 156 620 156" stroke="none"/>
        </g>
        <g fill="rgb(105,22,22)" stroke-width="0.1" font-size="13"
            stroke-linecap="butt" stroke="rgb(105,22,22)">
            <polygon fill="none" clip-path="url(#clipPath85)" points=" 878 98 878 108 888 108 878 98 620 98 620 156 888 156 888 108"/>
            <text xml:space="preserve" x="623" y="116"
                clip-path="url(#clipPath86)" stroke="none">as Scenario implements</text>
            <text xml:space="preserve" x="623" y="133"
                clip-path="url(#clipPath86)" stroke="none">ScenarioComponent by itself, recursive</text>
            <text xml:space="preserve" x="623" y="150"
                clip-path="url(#clipPath86)" stroke="none">scenario building is possible</text>
        </g>
        <g stroke-width="1.1" font-size="11" stroke-linecap="butt">
            <rect x="0" y="0" clip-path="url(#clipPath1)" fill="none"
                width="1147" height="799"/>
            <line clip-path="url(#clipPath87)" fill="none" x1="592"
                x2="692" y1="279" y2="279" stroke="rgb(153,15,15)"/>
            <text font-size="13" x="634" y="267"
                clip-path="url(#clipPath88)" fill="rgb(153,15,15)"
                stroke="none" xml:space="preserve">updates</text>
            <line clip-path="url(#clipPath89)" fill="none" x1="682"
                x2="692" y1="284" y2="279" stroke="rgb(153,15,15)"/>
            <line clip-path="url(#clipPath89)" fill="none" x1="692"
                x2="682" y1="279" y2="274" stroke="rgb(153,15,15)"/>
            <line clip-path="url(#clipPath90)" fill="none" x1="167"
                x2="167" y1="367" y2="326" stroke-dasharray="8,7" stroke="rgb(110,44,18)"/>
            <line clip-path="url(#clipPath90)" fill="none" x1="167"
                x2="327" y1="326" y2="326" stroke-dasharray="8,7" stroke="rgb(110,44,18)"/>
            <line clip-path="url(#clipPath90)" fill="none" x1="327"
                x2="327" y1="326" y2="294" stroke-dasharray="8,7" stroke="rgb(110,44,18)"/>
            <polygon fill="white" stroke-dasharray="8,7"
                clip-path="url(#clipPath91)"
                points=" 327 294 333 308 321 308" stroke="none"/>
            <polygon fill="none" clip-path="url(#clipPath91)"
                points=" 327 294 333 308 321 308" stroke="rgb(110,44,18)"/>
            <line clip-path="url(#clipPath92)" fill="none" x1="349"
                x2="349" y1="367" y2="325" stroke-dasharray="8,7" stroke="rgb(110,44,18)"/>
            <line clip-path="url(#clipPath92)" fill="none" x1="349"
                x2="327" y1="325" y2="325" stroke-dasharray="8,7" stroke="rgb(110,44,18)"/>
            <line clip-path="url(#clipPath92)" fill="none" x1="327"
                x2="327" y1="325" y2="294" stroke-dasharray="8,7" stroke="rgb(110,44,18)"/>
            <polygon fill="white" stroke-dasharray="8,7"
                clip-path="url(#clipPath91)"
                points=" 327 294 333 308 321 308" stroke="none"/>
            <polygon fill="none" clip-path="url(#clipPath91)"
                points=" 327 294 333 308 321 308" stroke="rgb(110,44,18)"/>
            <line clip-path="url(#clipPath93)" fill="none" x1="525"
                x2="525" y1="367" y2="326" stroke-dasharray="8,7" stroke="rgb(110,44,18)"/>
            <line clip-path="url(#clipPath93)" fill="none" x1="525"
                x2="327" y1="326" y2="326" stroke-dasharray="8,7" stroke="rgb(110,44,18)"/>
            <line clip-path="url(#clipPath93)" fill="none" x1="327"
                x2="327" y1="326" y2="294" stroke-dasharray="8,7" stroke="rgb(110,44,18)"/>
            <polygon fill="white" stroke-dasharray="8,7"
                clip-path="url(#clipPath91)"
                points=" 327 294 333 308 321 308" stroke="none"/>
            <polygon fill="none" clip-path="url(#clipPath91)"
                points=" 327 294 333 308 321 308" stroke="rgb(110,44,18)"/>
            <line clip-path="url(#clipPath94)" fill="none" x1="323"
                x2="323" y1="165" y2="232" stroke="rgb(153,15,15)"/>
            <text font-size="13" x="333" y="218"
                clip-path="url(#clipPath95)" fill="rgb(153,15,15)"
                stroke="none" xml:space="preserve">+component</text>
            <text font-size="13" x="290" y="218"
                clip-path="url(#clipPath96)" fill="rgb(153,15,15)"
                stroke="none" xml:space="preserve">1..*</text>
            <polygon fill="white" clip-path="url(#clipPath97)"
                points=" 323 165 328 175 323 185 318 175" stroke="none"/>
            <polygon fill="none" clip-path="url(#clipPath97)"
                points=" 323 165 328 175 323 185 318 175" stroke="rgb(153,15,15)"/>
            <line clip-path="url(#clipPath98)" fill="none" x1="166"
                x2="166" y1="165" y2="232" stroke-dasharray="8,7" stroke="rgb(110,44,18)"/>
            <polygon fill="white" stroke-dasharray="8,7"
                clip-path="url(#clipPath99)"
                points=" 166 232 160 218 172 218" stroke="none"/>
            <polygon fill="none" clip-path="url(#clipPath99)"
                points=" 166 232 160 218 172 218" stroke="rgb(110,44,18)"/>
        </g>
        <g font-size="13" stroke-linecap="butt" fill="rgb(105,22,22)"
            stroke-dasharray="8,7" stroke="rgb(105,22,22)" stroke-width="1.1">
            <line clip-path="url(#clipPath100)" fill="none" x1="620"
                x2="589" y1="129" y2="129"/>
            <line clip-path="url(#clipPath101)" fill="none" x1="576"
                x2="692" y1="500" y2="500"/>
        </g>
    </g>
</svg>
