<?xml version="1.0" encoding="UTF-8"?>
<svg stroke-dasharray="none" shape-rendering="auto"
    font-family="'Dialog'" width="1021" text-rendering="auto"
    fill-opacity="1" color-interpolation="auto" color-rendering="auto"
    font-size="12" fill="black" stroke="black" image-rendering="auto"
    stroke-miterlimit="10" stroke-linecap="square"
    stroke-linejoin="miter" font-style="normal" height="522"
    stroke-width="1" stroke-dashoffset="0" font-weight="normal" stroke-opacity="1">
    <!--Generated by the Batik Graphics2D SVG Generator-->
    <defs id="genericDefs"/>
    <g>
        <defs id="defs1">
            <clipPath clipPathUnits="userSpaceOnUse" id="clipPath1">
                <path d="M-1 -1 L1021 -1 L1021 522 L-1 522 L-1 -1 Z"/>
            </clipPath>
            <clipPath clipPathUnits="userSpaceOnUse" id="clipPath2">
                <path d="M5 5 L69 5 L69 28 L5 28 L5 5 Z"/>
            </clipPath>
            <clipPath clipPathUnits="userSpaceOnUse" id="clipPath3">
                <path d="M69 8 L125 8 L125 25 L69 25 L69 8 Z"/>
            </clipPath>
            <clipPath clipPathUnits="userSpaceOnUse" id="clipPath4">
                <path d="M32 189 L568 189 L568 269 L32 269 L32 189 Z"/>
            </clipPath>
            <clipPath clipPathUnits="userSpaceOnUse" id="clipPath5">
                <path d="M256 191 L344 191 L344 206 L256 206 L256 191 Z"/>
            </clipPath>
            <clipPath clipPathUnits="userSpaceOnUse" id="clipPath6">
                <path d="M234 206 L365 206 L365 221 L234 221 L234 206 Z"/>
            </clipPath>
            <clipPath clipPathUnits="userSpaceOnUse" id="clipPath7">
                <path d="M34 219 L566 219 L566 231 L34 231 L34 219 Z"/>
            </clipPath>
            <clipPath clipPathUnits="userSpaceOnUse" id="clipPath8">
                <path d="M35 232 L48 232 L48 249 L35 249 L35 232 Z"/>
            </clipPath>
            <clipPath clipPathUnits="userSpaceOnUse" id="clipPath9">
                <path d="M48 232 L137 232 L137 249 L48 249 L48 232 Z"/>
            </clipPath>
            <clipPath clipPathUnits="userSpaceOnUse" id="clipPath10">
                <path d="M137 232 L554 232 L554 249 L137 249 L137 232 Z"/>
            </clipPath>
            <clipPath clipPathUnits="userSpaceOnUse" id="clipPath11">
                <path d="M35 249 L48 249 L48 266 L35 266 L35 249 Z"/>
            </clipPath>
            <clipPath clipPathUnits="userSpaceOnUse" id="clipPath12">
                <path d="M48 249 L128 249 L128 266 L48 266 L48 249 Z"/>
            </clipPath>
            <clipPath clipPathUnits="userSpaceOnUse" id="clipPath13">
                <path d="M128 249 L295 249 L295 266 L128 266 L128 249 Z"/>
            </clipPath>
            <clipPath clipPathUnits="userSpaceOnUse" id="clipPath14">
                <path d="M34 229 L566 229 L566 267 L34 267 L34 229 Z"/>
            </clipPath>
            <clipPath clipPathUnits="userSpaceOnUse" id="clipPath15">
                <path d="M29 51 L565 51 L565 101 L29 101 L29 51 Z"/>
            </clipPath>
            <clipPath clipPathUnits="userSpaceOnUse" id="clipPath16">
                <path d="M264 53 L329 53 L329 70 L264 70 L264 53 Z"/>
            </clipPath>
            <clipPath clipPathUnits="userSpaceOnUse" id="clipPath17">
                <path d="M31 68 L563 68 L563 80 L31 80 L31 68 Z"/>
            </clipPath>
            <clipPath clipPathUnits="userSpaceOnUse" id="clipPath18">
                <path d="M32 81 L45 81 L45 98 L32 98 L32 81 Z"/>
            </clipPath>
            <clipPath clipPathUnits="userSpaceOnUse" id="clipPath19">
                <path d="M45 81 L146 81 L146 98 L45 98 L45 81 Z"/>
            </clipPath>
            <clipPath clipPathUnits="userSpaceOnUse" id="clipPath20">
                <path d="M146 81 L374 81 L374 98 L146 98 L146 81 Z"/>
            </clipPath>
            <clipPath clipPathUnits="userSpaceOnUse" id="clipPath21">
                <path d="M31 78 L563 78 L563 99 L31 99 L31 78 Z"/>
            </clipPath>
            <clipPath clipPathUnits="userSpaceOnUse" id="clipPath22">
                <path d="M667 198 L1011 198 L1011 469 L667 469 L667 198 Z"/>
            </clipPath>
            <clipPath clipPathUnits="userSpaceOnUse" id="clipPath23">
                <path d="M787 200 L891 200 L891 217 L787 217 L787 200 Z"/>
            </clipPath>
            <clipPath clipPathUnits="userSpaceOnUse" id="clipPath24">
                <path d="M669 215 L1009 215 L1009 227 L669 227 L669 215 Z"/>
            </clipPath>
            <clipPath clipPathUnits="userSpaceOnUse" id="clipPath25">
                <path d="M670 228 L683 228 L683 245 L670 245 L670 228 Z"/>
            </clipPath>
            <clipPath clipPathUnits="userSpaceOnUse" id="clipPath26">
                <path d="M683 228 L745 228 L745 245 L683 245 L683 228 Z"/>
            </clipPath>
            <clipPath clipPathUnits="userSpaceOnUse" id="clipPath27">
                <path d="M745 228 L807 228 L807 245 L745 245 L745 228 Z"/>
            </clipPath>
            <clipPath clipPathUnits="userSpaceOnUse" id="clipPath28">
                <path d="M670 245 L683 245 L683 262 L670 262 L670 245 Z"/>
            </clipPath>
            <clipPath clipPathUnits="userSpaceOnUse" id="clipPath29">
                <path d="M683 245 L765 245 L765 262 L683 262 L683 245 Z"/>
            </clipPath>
            <clipPath clipPathUnits="userSpaceOnUse" id="clipPath30">
                <path d="M765 245 L832 245 L832 262 L765 262 L765 245 Z"/>
            </clipPath>
            <clipPath clipPathUnits="userSpaceOnUse" id="clipPath31">
                <path d="M670 262 L683 262 L683 279 L670 279 L670 262 Z"/>
            </clipPath>
            <clipPath clipPathUnits="userSpaceOnUse" id="clipPath32">
                <path d="M683 262 L792 262 L792 279 L683 279 L683 262 Z"/>
            </clipPath>
            <clipPath clipPathUnits="userSpaceOnUse" id="clipPath33">
                <path d="M792 262 L832 262 L832 279 L792 279 L792 262 Z"/>
            </clipPath>
            <clipPath clipPathUnits="userSpaceOnUse" id="clipPath34">
                <path d="M670 279 L683 279 L683 296 L670 296 L670 279 Z"/>
            </clipPath>
            <clipPath clipPathUnits="userSpaceOnUse" id="clipPath35">
                <path d="M683 279 L822 279 L822 296 L683 296 L683 279 Z"/>
            </clipPath>
            <clipPath clipPathUnits="userSpaceOnUse" id="clipPath36">
                <path d="M822 279 L862 279 L862 296 L822 296 L822 279 Z"/>
            </clipPath>
            <clipPath clipPathUnits="userSpaceOnUse" id="clipPath37">
                <path d="M670 296 L683 296 L683 313 L670 313 L670 296 Z"/>
            </clipPath>
            <clipPath clipPathUnits="userSpaceOnUse" id="clipPath38">
                <path d="M683 296 L805 296 L805 313 L683 313 L683 296 Z"/>
            </clipPath>
            <clipPath clipPathUnits="userSpaceOnUse" id="clipPath39">
                <path d="M805 296 L872 296 L872 313 L805 313 L805 296 Z"/>
            </clipPath>
            <clipPath clipPathUnits="userSpaceOnUse" id="clipPath40">
                <path d="M670 313 L683 313 L683 330 L670 330 L670 313 Z"/>
            </clipPath>
            <clipPath clipPathUnits="userSpaceOnUse" id="clipPath41">
                <path d="M683 313 L800 313 L800 330 L683 330 L683 313 Z"/>
            </clipPath>
            <clipPath clipPathUnits="userSpaceOnUse" id="clipPath42">
                <path d="M800 313 L867 313 L867 330 L800 330 L800 313 Z"/>
            </clipPath>
            <clipPath clipPathUnits="userSpaceOnUse" id="clipPath43">
                <path d="M670 330 L683 330 L683 347 L670 347 L670 330 Z"/>
            </clipPath>
            <clipPath clipPathUnits="userSpaceOnUse" id="clipPath44">
                <path d="M683 330 L848 330 L848 347 L683 347 L683 330 Z"/>
            </clipPath>
            <clipPath clipPathUnits="userSpaceOnUse" id="clipPath45">
                <path d="M848 330 L888 330 L888 347 L848 347 L848 330 Z"/>
            </clipPath>
            <clipPath clipPathUnits="userSpaceOnUse" id="clipPath46">
                <path d="M670 347 L683 347 L683 364 L670 364 L670 347 Z"/>
            </clipPath>
            <clipPath clipPathUnits="userSpaceOnUse" id="clipPath47">
                <path d="M683 347 L831 347 L831 364 L683 364 L683 347 Z"/>
            </clipPath>
            <clipPath clipPathUnits="userSpaceOnUse" id="clipPath48">
                <path d="M831 347 L898 347 L898 364 L831 364 L831 347 Z"/>
            </clipPath>
            <clipPath clipPathUnits="userSpaceOnUse" id="clipPath49">
                <path d="M670 364 L683 364 L683 381 L670 381 L670 364 Z"/>
            </clipPath>
            <clipPath clipPathUnits="userSpaceOnUse" id="clipPath50">
                <path d="M683 364 L826 364 L826 381 L683 381 L683 364 Z"/>
            </clipPath>
            <clipPath clipPathUnits="userSpaceOnUse" id="clipPath51">
                <path d="M826 364 L893 364 L893 381 L826 381 L826 364 Z"/>
            </clipPath>
            <clipPath clipPathUnits="userSpaceOnUse" id="clipPath52">
                <path d="M670 381 L683 381 L683 398 L670 398 L670 381 Z"/>
            </clipPath>
            <clipPath clipPathUnits="userSpaceOnUse" id="clipPath53">
                <path d="M683 381 L799 381 L799 398 L683 398 L683 381 Z"/>
            </clipPath>
            <clipPath clipPathUnits="userSpaceOnUse" id="clipPath54">
                <path d="M799 381 L927 381 L927 398 L799 398 L799 381 Z"/>
            </clipPath>
            <clipPath clipPathUnits="userSpaceOnUse" id="clipPath55">
                <path d="M670 398 L683 398 L683 415 L670 415 L670 398 Z"/>
            </clipPath>
            <clipPath clipPathUnits="userSpaceOnUse" id="clipPath56">
                <path d="M683 398 L838 398 L838 415 L683 415 L683 398 Z"/>
            </clipPath>
            <clipPath clipPathUnits="userSpaceOnUse" id="clipPath57">
                <path d="M838 398 L966 398 L966 415 L838 415 L838 398 Z"/>
            </clipPath>
            <clipPath clipPathUnits="userSpaceOnUse" id="clipPath58">
                <path d="M670 415 L683 415 L683 432 L670 432 L670 415 Z"/>
            </clipPath>
            <clipPath clipPathUnits="userSpaceOnUse" id="clipPath59">
                <path d="M683 415 L791 415 L791 432 L683 432 L683 415 Z"/>
            </clipPath>
            <clipPath clipPathUnits="userSpaceOnUse" id="clipPath60">
                <path d="M791 415 L919 415 L919 432 L791 432 L791 415 Z"/>
            </clipPath>
            <clipPath clipPathUnits="userSpaceOnUse" id="clipPath61">
                <path d="M670 432 L683 432 L683 449 L670 449 L670 432 Z"/>
            </clipPath>
            <clipPath clipPathUnits="userSpaceOnUse" id="clipPath62">
                <path d="M683 432 L841 432 L841 449 L683 449 L683 432 Z"/>
            </clipPath>
            <clipPath clipPathUnits="userSpaceOnUse" id="clipPath63">
                <path d="M841 432 L993 432 L993 449 L841 449 L841 432 Z"/>
            </clipPath>
            <clipPath clipPathUnits="userSpaceOnUse" id="clipPath64">
                <path d="M670 449 L683 449 L683 466 L670 466 L670 449 Z"/>
            </clipPath>
            <clipPath clipPathUnits="userSpaceOnUse" id="clipPath65">
                <path d="M683 449 L776 449 L776 466 L683 466 L683 449 Z"/>
            </clipPath>
            <clipPath clipPathUnits="userSpaceOnUse" id="clipPath66">
                <path d="M776 449 L822 449 L822 466 L776 466 L776 449 Z"/>
            </clipPath>
            <clipPath clipPathUnits="userSpaceOnUse" id="clipPath67">
                <path d="M669 225 L1009 225 L1009 467 L669 467 L669 225 Z"/>
            </clipPath>
            <clipPath clipPathUnits="userSpaceOnUse" id="clipPath68">
                <path d="M83 323 L202 323 L202 381 L83 381 L83 323 Z"/>
            </clipPath>
            <clipPath clipPathUnits="userSpaceOnUse" id="clipPath69">
                <path d="M97 325 L188 325 L188 342 L97 342 L97 325 Z"/>
            </clipPath>
            <clipPath clipPathUnits="userSpaceOnUse" id="clipPath70">
                <path d="M90 342 L195 342 L195 359 L90 359 L90 342 Z"/>
            </clipPath>
            <clipPath clipPathUnits="userSpaceOnUse" id="clipPath71">
                <path d="M85 357 L200 357 L200 369 L85 369 L85 357 Z"/>
            </clipPath>
            <clipPath clipPathUnits="userSpaceOnUse" id="clipPath72">
                <path d="M85 367 L200 367 L200 379 L85 379 L85 367 Z"/>
            </clipPath>
            <clipPath clipPathUnits="userSpaceOnUse" id="clipPath73">
                <path d="M301 415 L585 415 L585 512 L301 512 L301 415 Z"/>
            </clipPath>
            <clipPath clipPathUnits="userSpaceOnUse" id="clipPath74">
                <path d="M304 433 L567 433 L567 495 L304 495 L304 433 Z"/>
            </clipPath>
            <clipPath clipPathUnits="userSpaceOnUse" id="clipPath75">
                <path d="M245 323 L403 323 L403 381 L245 381 L245 323 Z"/>
            </clipPath>
            <clipPath clipPathUnits="userSpaceOnUse" id="clipPath76">
                <path d="M252 325 L396 325 L396 342 L252 342 L252 325 Z"/>
            </clipPath>
            <clipPath clipPathUnits="userSpaceOnUse" id="clipPath77">
                <path d="M258 342 L389 342 L389 359 L258 359 L258 342 Z"/>
            </clipPath>
            <clipPath clipPathUnits="userSpaceOnUse" id="clipPath78">
                <path d="M247 357 L401 357 L401 369 L247 369 L247 357 Z"/>
            </clipPath>
            <clipPath clipPathUnits="userSpaceOnUse" id="clipPath79">
                <path d="M247 367 L401 367 L401 379 L247 379 L247 367 Z"/>
            </clipPath>
            <clipPath clipPathUnits="userSpaceOnUse" id="clipPath80">
                <path d="M428 323 L572 323 L572 381 L428 381 L428 323 Z"/>
            </clipPath>
            <clipPath clipPathUnits="userSpaceOnUse" id="clipPath81">
                <path d="M453 325 L546 325 L546 342 L453 342 L453 325 Z"/>
            </clipPath>
            <clipPath clipPathUnits="userSpaceOnUse" id="clipPath82">
                <path d="M434 342 L565 342 L565 359 L434 359 L434 342 Z"/>
            </clipPath>
            <clipPath clipPathUnits="userSpaceOnUse" id="clipPath83">
                <path d="M430 357 L570 357 L570 369 L430 369 L430 357 Z"/>
            </clipPath>
            <clipPath clipPathUnits="userSpaceOnUse" id="clipPath84">
                <path d="M430 367 L570 367 L570 379 L430 379 L430 367 Z"/>
            </clipPath>
            <clipPath clipPathUnits="userSpaceOnUse" id="clipPath85">
                <path d="M594 55 L865 55 L865 116 L594 116 L594 55 Z"/>
            </clipPath>
            <clipPath clipPathUnits="userSpaceOnUse" id="clipPath86">
                <path d="M597 66 L849 66 L849 113 L597 113 L597 66 Z"/>
            </clipPath>
            <clipPath clipPathUnits="userSpaceOnUse" id="clipPath87">
                <path d="M544 203 L731 203 L731 281 L544 281 L544 203 Z"/>
            </clipPath>
            <clipPath clipPathUnits="userSpaceOnUse" id="clipPath88">
                <path d="M608 217 L662 217 L662 234 L608 234 L608 217 Z"/>
            </clipPath>
            <clipPath clipPathUnits="userSpaceOnUse" id="clipPath89">
                <path d="M657 236 L670 236 L670 249 L657 249 L657 236 Z"/>
            </clipPath>
            <clipPath clipPathUnits="userSpaceOnUse" id="clipPath90">
                <path d="M128 253 L323 253 L323 340 L128 340 L128 253 Z"/>
            </clipPath>
            <clipPath clipPathUnits="userSpaceOnUse" id="clipPath91">
                <path d="M295 266 L310 266 L310 283 L295 283 L295 266 Z"/>
            </clipPath>
            <clipPath clipPathUnits="userSpaceOnUse" id="clipPath92">
                <path d="M282 253 L339 253 L339 340 L282 340 L282 253 Z"/>
            </clipPath>
            <clipPath clipPathUnits="userSpaceOnUse" id="clipPath93">
                <path d="M282 253 L515 253 L515 340 L282 340 L282 253 Z"/>
            </clipPath>
            <clipPath clipPathUnits="userSpaceOnUse" id="clipPath94">
                <path d="M159 86 L437 86 L437 208 L159 208 L159 86 Z"/>
            </clipPath>
            <clipPath clipPathUnits="userSpaceOnUse" id="clipPath95">
                <path d="M307 164 L393 164 L393 181 L307 181 L307 164 Z"/>
            </clipPath>
            <clipPath clipPathUnits="userSpaceOnUse" id="clipPath96">
                <path d="M264 164 L289 164 L289 181 L264 181 L264 164 Z"/>
            </clipPath>
            <clipPath clipPathUnits="userSpaceOnUse" id="clipPath97">
                <path d="M292 99 L305 99 L305 122 L292 122 L292 99 Z"/>
            </clipPath>
            <clipPath clipPathUnits="userSpaceOnUse" id="clipPath98">
                <path d="M121 86 L162 86 L162 205 L121 205 L121 86 Z"/>
            </clipPath>
            <clipPath clipPathUnits="userSpaceOnUse" id="clipPath99">
                <path d="M134 175 L149 175 L149 192 L134 192 L134 175 Z"/>
            </clipPath>
            <clipPath clipPathUnits="userSpaceOnUse" id="clipPath100">
                <path d="M550 62 L610 62 L610 91 L550 91 L550 62 Z"/>
            </clipPath>
            <clipPath clipPathUnits="userSpaceOnUse" id="clipPath101">
                <path d="M570 430 L683 430 L683 459 L570 459 L570 430 Z"/>
            </clipPath>
        </defs>
        <g font-size="15" fill="white" font-family="'Cantarell'"
            stroke-linejoin="round" stroke="white" stroke-width="0" stroke-miterlimit="0">
            <rect x="0" y="0" clip-path="url(#clipPath1)" width="1020"
                height="521" stroke="none"/>
        </g>
        <g stroke-width="0.1" font-size="15" font-family="'Cantarell'" stroke-linecap="butt">
            <line clip-path="url(#clipPath1)" fill="none" x1="1"
                x2="129" y1="35" y2="35"/>
            <line clip-path="url(#clipPath1)" fill="none" x1="129"
                x2="136" y1="35" y2="21"/>
            <line clip-path="url(#clipPath1)" fill="none" x1="136"
                x2="136" y1="21" y2="1"/>
            <text x="6" y="22" clip-path="url(#clipPath2)" stroke="none"
                font-weight="bold" xml:space="preserve">package </text>
            <text font-size="13" x="70" y="22"
                clip-path="url(#clipPath3)" font-family="'Dialog'"
                stroke="none" xml:space="preserve">scenario</text>
            <rect x="33" y="190" clip-path="url(#clipPath4)"
                fill="rgb(244,242,212)" width="534" height="78" stroke="none"/>
        </g>
        <g fill="rgb(110,44,18)" stroke-width="0.1" font-size="11"
            stroke-linecap="butt" stroke="rgb(110,44,18)">
            <text xml:space="preserve" x="257" y="203"
                clip-path="url(#clipPath5)" stroke="none">&lt;&lt;interface&gt;&gt;</text>
            <text x="235" y="218" clip-path="url(#clipPath6)"
                stroke="none" font-weight="bold" xml:space="preserve">ScenarioComponent</text>
            <line clip-path="url(#clipPath7)" fill="none" x1="35"
                x2="565" y1="220" y2="220"/>
            <text font-size="13" x="36" y="246"
                clip-path="url(#clipPath8)" fill="black" stroke="none" xml:space="preserve">+</text>
            <text font-size="13" x="49" y="246"
                clip-path="url(#clipPath9)" fill="black" stroke="none" xml:space="preserve">updateStates</text>
            <text font-size="13" x="138" y="246"
                clip-path="url(#clipPath10)" fill="black" stroke="none" xml:space="preserve">(originals : ScenarioState, target : AbsoluteDate) : ScenarioState</text>
            <text font-size="13" x="36" y="263"
                clip-path="url(#clipPath11)" fill="black" stroke="none" xml:space="preserve">+</text>
            <text font-size="13" x="49" y="263"
                clip-path="url(#clipPath12)" fill="black" stroke="none" xml:space="preserve">setCycleEnd</text>
            <text font-size="13" x="129" y="263"
                clip-path="url(#clipPath13)" fill="black" stroke="none" xml:space="preserve">(cycleEnd : AbsoluteDate)</text>
            <line clip-path="url(#clipPath14)" fill="none" x1="35"
                x2="565" y1="230" y2="230"/>
            <rect x="33" y="190" clip-path="url(#clipPath4)" fill="none"
                width="533" height="77" stroke-width="1.1"/>
        </g>
        <g font-size="15" stroke-linecap="butt" fill="rgb(237,247,200)"
            font-family="'Cantarell'" stroke="rgb(237,247,200)" stroke-width="1.1">
            <rect x="30" y="52" clip-path="url(#clipPath15)" width="534"
                height="48" stroke="none"/>
        </g>
        <g font-size="13" stroke-linecap="butt" fill="rgb(106,88,75)"
            stroke="rgb(106,88,75)" font-weight="bold" stroke-width="1.1">
            <text xml:space="preserve" x="265" y="67"
                clip-path="url(#clipPath16)" stroke="none">Scenario</text>
        </g>
        <g font-size="15" stroke-linecap="butt" fill="rgb(106,88,75)"
            font-family="'Cantarell'" stroke="rgb(106,88,75)" stroke-width="0.1">
            <line clip-path="url(#clipPath17)" fill="none" x1="32"
                x2="562" y1="69" y2="69"/>
        </g>
        <g stroke-width="0.1" font-size="13" stroke-linecap="butt">
            <text xml:space="preserve" x="33" y="95"
                clip-path="url(#clipPath18)" stroke="none">+</text>
            <text xml:space="preserve" x="46" y="95"
                clip-path="url(#clipPath19)" stroke="none">addComponent</text>
            <text xml:space="preserve" x="147" y="95"
                clip-path="url(#clipPath20)" stroke="none">(component : ScenarioComponent)</text>
        </g>
        <g font-size="15" stroke-linecap="butt" fill="rgb(106,88,75)"
            font-family="'Cantarell'" stroke="rgb(106,88,75)" stroke-width="0.1">
            <line clip-path="url(#clipPath21)" fill="none" x1="32"
                x2="562" y1="79" y2="79"/>
            <rect x="30" y="52" clip-path="url(#clipPath15)" fill="none"
                width="533" height="47" stroke-width="1.1"/>
            <rect x="668" y="199" clip-path="url(#clipPath22)"
                fill="rgb(237,247,200)" width="342" height="269"
                stroke="none" stroke-width="1.1"/>
        </g>
        <g font-size="13" stroke-linecap="butt" fill="rgb(106,88,75)"
            stroke="rgb(106,88,75)" font-weight="bold" stroke-width="1.1">
            <text xml:space="preserve" x="788" y="214"
                clip-path="url(#clipPath23)" stroke="none">ScenarioState</text>
        </g>
        <g font-size="15" stroke-linecap="butt" fill="rgb(106,88,75)"
            font-family="'Cantarell'" stroke="rgb(106,88,75)" stroke-width="0.1">
            <line clip-path="url(#clipPath24)" fill="none" x1="670"
                x2="1008" y1="216" y2="216"/>
        </g>
        <g stroke-width="0.1" font-size="13" stroke-linecap="butt">
            <text xml:space="preserve" x="671" y="242"
                clip-path="url(#clipPath25)" stroke="none">+</text>
            <text xml:space="preserve" x="684" y="242"
                clip-path="url(#clipPath26)" stroke="none">getName</text>
            <text xml:space="preserve" x="746" y="242"
                clip-path="url(#clipPath27)" stroke="none">() : String</text>
            <text xml:space="preserve" x="671" y="259"
                clip-path="url(#clipPath28)" stroke="none">+</text>
            <text xml:space="preserve" x="684" y="259"
                clip-path="url(#clipPath29)" stroke="none">getBOLMass</text>
            <text xml:space="preserve" x="766" y="259"
                clip-path="url(#clipPath30)" stroke="none">() : double</text>
            <text xml:space="preserve" x="671" y="276"
                clip-path="url(#clipPath31)" stroke="none">+</text>
            <text xml:space="preserve" x="684" y="276"
                clip-path="url(#clipPath32)" stroke="none">getCycleNumber</text>
            <text xml:space="preserve" x="793" y="276"
                clip-path="url(#clipPath33)" stroke="none">() : int</text>
            <text xml:space="preserve" x="671" y="293"
                clip-path="url(#clipPath34)" stroke="none">+</text>
            <text xml:space="preserve" x="684" y="293"
                clip-path="url(#clipPath35)" stroke="none">getInPlaneManeuvers</text>
            <text xml:space="preserve" x="823" y="293"
                clip-path="url(#clipPath36)" stroke="none">() : int</text>
            <text xml:space="preserve" x="671" y="310"
                clip-path="url(#clipPath37)" stroke="none">+</text>
            <text xml:space="preserve" x="684" y="310"
                clip-path="url(#clipPath38)" stroke="none">getInPlaneCycleDV</text>
            <text xml:space="preserve" x="806" y="310"
                clip-path="url(#clipPath39)" stroke="none">() : double</text>
            <text xml:space="preserve" x="671" y="327"
                clip-path="url(#clipPath40)" stroke="none">+</text>
            <text xml:space="preserve" x="684" y="327"
                clip-path="url(#clipPath41)" stroke="none">getInPlaneTotalDV</text>
            <text xml:space="preserve" x="801" y="327"
                clip-path="url(#clipPath42)" stroke="none">() : double</text>
            <text xml:space="preserve" x="671" y="344"
                clip-path="url(#clipPath43)" stroke="none">+</text>
            <text xml:space="preserve" x="684" y="344"
                clip-path="url(#clipPath44)" stroke="none">getOutOfPlaneManeuvers</text>
            <text xml:space="preserve" x="849" y="344"
                clip-path="url(#clipPath45)" stroke="none">() : int</text>
            <text xml:space="preserve" x="671" y="361"
                clip-path="url(#clipPath46)" stroke="none">+</text>
            <text xml:space="preserve" x="684" y="361"
                clip-path="url(#clipPath47)" stroke="none">getOutOfPlaneCycleDV</text>
            <text xml:space="preserve" x="832" y="361"
                clip-path="url(#clipPath48)" stroke="none">() : double</text>
            <text xml:space="preserve" x="671" y="378"
                clip-path="url(#clipPath49)" stroke="none">+</text>
            <text xml:space="preserve" x="684" y="378"
                clip-path="url(#clipPath50)" stroke="none">getOutOfPlaneTotalDV</text>
            <text xml:space="preserve" x="827" y="378"
                clip-path="url(#clipPath51)" stroke="none">() : double</text>
            <text xml:space="preserve" x="671" y="395"
                clip-path="url(#clipPath52)" stroke="none">+</text>
            <text xml:space="preserve" x="684" y="395"
                clip-path="url(#clipPath53)" stroke="none">getRealStartState</text>
            <text xml:space="preserve" x="800" y="395"
                clip-path="url(#clipPath54)" stroke="none">() : SpacecraftState</text>
            <text xml:space="preserve" x="671" y="412"
                clip-path="url(#clipPath55)" stroke="none">+</text>
            <text xml:space="preserve" x="684" y="412"
                clip-path="url(#clipPath56)" stroke="none">getEstimatedStartState</text>
            <text xml:space="preserve" x="839" y="412"
                clip-path="url(#clipPath57)" stroke="none">() : SpacecraftState</text>
            <text xml:space="preserve" x="671" y="429"
                clip-path="url(#clipPath58)" stroke="none">+</text>
            <text xml:space="preserve" x="684" y="429"
                clip-path="url(#clipPath59)" stroke="none">getRealEndState</text>
            <text xml:space="preserve" x="792" y="429"
                clip-path="url(#clipPath60)" stroke="none">() : SpacecraftState</text>
            <text xml:space="preserve" x="671" y="446"
                clip-path="url(#clipPath61)" stroke="none">+</text>
            <text xml:space="preserve" x="684" y="446"
                clip-path="url(#clipPath62)" stroke="none">getPerformedEphemeris</text>
            <text xml:space="preserve" x="842" y="446"
                clip-path="url(#clipPath63)" stroke="none">() : BoundedPropagator</text>
            <text xml:space="preserve" x="671" y="463"
                clip-path="url(#clipPath64)" stroke="none">+</text>
            <text xml:space="preserve" x="684" y="463"
                clip-path="url(#clipPath65)" stroke="none">getManeuvers</text>
            <text xml:space="preserve" x="777" y="463"
                clip-path="url(#clipPath66)" stroke="none">() : List</text>
        </g>
        <g font-size="15" stroke-linecap="butt" fill="rgb(106,88,75)"
            font-family="'Cantarell'" stroke="rgb(106,88,75)" stroke-width="0.1">
            <line clip-path="url(#clipPath67)" fill="none" x1="670"
                x2="1008" y1="226" y2="226"/>
            <rect x="668" y="199" clip-path="url(#clipPath22)"
                fill="none" width="341" height="268" stroke-width="1.1"/>
            <rect x="84" y="324" clip-path="url(#clipPath68)"
                fill="rgb(237,247,200)" width="117" height="56"
                stroke="none" stroke-width="1.1"/>
        </g>
        <g font-size="13" stroke-linecap="butt" fill="rgb(106,88,75)"
            stroke="rgb(106,88,75)" font-weight="bold" stroke-width="1.1">
            <text xml:space="preserve" x="98" y="339"
                clip-path="url(#clipPath69)" stroke="none">ControlLoop</text>
            <text xml:space="preserve" x="91" y="356"
                clip-path="url(#clipPath70)" stroke="none">(from control)</text>
        </g>
        <g font-size="15" stroke-linecap="butt" fill="rgb(106,88,75)"
            font-family="'Cantarell'" stroke="rgb(106,88,75)" stroke-width="0.1">
            <line clip-path="url(#clipPath71)" fill="none" x1="86"
                x2="199" y1="358" y2="358"/>
            <line clip-path="url(#clipPath72)" fill="none" x1="86"
                x2="199" y1="368" y2="368"/>
            <rect x="84" y="324" clip-path="url(#clipPath68)"
                fill="none" width="116" height="55" stroke-width="1.1"/>
        </g>
        <g fill="rgb(243,239,235)" stroke-width="1.1" font-size="13"
            stroke-linecap="butt" stroke="rgb(243,239,235)">
            <polygon clip-path="url(#clipPath73)"
                points=" 302 416 574 416 583 426 583 510 302 510" stroke="none"/>
            <polygon fill="none" stroke-width="0.1"
                clip-path="url(#clipPath73)"
                points=" 573 416 573 426 583 426 573 416 302 416 302 510 583 510 583 426" stroke="rgb(105,22,22)"/>
            <text x="305" y="447" clip-path="url(#clipPath74)"
                fill="rgb(105,22,22)" stroke="none" stroke-width="0.1" xml:space="preserve">scenario state contains all the properties</text>
            <text x="305" y="462" clip-path="url(#clipPath74)"
                fill="rgb(105,22,22)" stroke="none" stroke-width="0.1" xml:space="preserve">of current cycle (orbit, maneuvers ...)</text>
            <text x="305" y="477" clip-path="url(#clipPath74)"
                fill="rgb(105,22,22)" stroke="none" stroke-width="0.1" xml:space="preserve">It is updated by the updateStates</text>
            <text x="305" y="492" clip-path="url(#clipPath74)"
                fill="rgb(105,22,22)" stroke="none" stroke-width="0.1" xml:space="preserve">methods of all scenario components.</text>
        </g>
        <g font-size="15" stroke-linecap="butt" fill="rgb(237,247,200)"
            font-family="'Cantarell'" stroke="rgb(237,247,200)" stroke-width="0.1">
            <rect x="246" y="324" clip-path="url(#clipPath75)"
                width="156" height="56" stroke="none"/>
        </g>
        <g font-size="13" stroke-linecap="butt" fill="rgb(106,88,75)"
            stroke="rgb(106,88,75)" font-weight="bold" stroke-width="0.1">
            <text xml:space="preserve" x="253" y="339"
                clip-path="url(#clipPath76)" stroke="none">OrbitDetermination</text>
            <text xml:space="preserve" x="259" y="356"
                clip-path="url(#clipPath77)" stroke="none">(from realization)</text>
            <line clip-path="url(#clipPath78)" fill="none" x1="248"
                x2="400" y1="358" y2="358"/>
            <line clip-path="url(#clipPath79)" fill="none" x1="248"
                x2="400" y1="368" y2="368"/>
        </g>
        <g font-size="15" stroke-linecap="butt" fill="rgb(106,88,75)"
            font-family="'Cantarell'" stroke="rgb(106,88,75)" stroke-width="1.1">
            <rect x="246" y="324" clip-path="url(#clipPath75)"
                fill="none" width="155" height="55"/>
            <rect x="429" y="324" clip-path="url(#clipPath80)"
                fill="rgb(237,247,200)" width="142" height="56" stroke="none"/>
            <text font-size="13" x="454" y="339"
                clip-path="url(#clipPath81)" font-family="'Dialog'"
                stroke="none" font-weight="bold" xml:space="preserve">Propagation</text>
            <text font-size="13" x="435" y="356"
                clip-path="url(#clipPath82)" font-family="'Dialog'"
                stroke="none" font-weight="bold" xml:space="preserve">(from realization)</text>
            <line clip-path="url(#clipPath83)" fill="none" x1="431"
                x2="569" y1="358" y2="358" stroke-width="0.1"/>
            <line clip-path="url(#clipPath84)" fill="none" x1="431"
                x2="569" y1="368" y2="368" stroke-width="0.1"/>
            <rect x="429" y="324" clip-path="url(#clipPath80)"
                fill="none" width="141" height="55"/>
        </g>
        <g fill="rgb(243,239,235)" stroke-width="1.1" font-size="13"
            stroke-linecap="butt" stroke="rgb(243,239,235)">
            <polygon clip-path="url(#clipPath85)"
                points=" 595 56 854 56 863 66 863 114 595 114" stroke="none"/>
            <polygon fill="none" stroke-width="0.1"
                clip-path="url(#clipPath85)"
                points=" 853 56 853 66 863 66 853 56 595 56 595 114 863 114 863 66" stroke="rgb(105,22,22)"/>
            <text x="598" y="80" clip-path="url(#clipPath86)"
                fill="rgb(105,22,22)" stroke="none" stroke-width="0.1" xml:space="preserve">as Scenario implements</text>
            <text x="598" y="95" clip-path="url(#clipPath86)"
                fill="rgb(105,22,22)" stroke="none" stroke-width="0.1" xml:space="preserve">ScenarioComponent by itself, recursive</text>
            <text x="598" y="110" clip-path="url(#clipPath86)"
                fill="rgb(105,22,22)" stroke="none" stroke-width="0.1" xml:space="preserve">scenario building is possible</text>
        </g>
        <g stroke-width="1.1" font-size="15" font-family="'Cantarell'" stroke-linecap="butt">
            <rect x="0" y="0" clip-path="url(#clipPath1)" fill="none"
                width="1019" height="520"/>
        </g>
        <g fill="rgb(153,15,15)" stroke-width="1.1" font-size="13"
            stroke-linecap="butt" stroke="rgb(153,15,15)">
            <line clip-path="url(#clipPath87)" fill="none" x1="567"
                x2="668" y1="242" y2="242"/>
            <text xml:space="preserve" x="609" y="231"
                clip-path="url(#clipPath88)" stroke="none">updates</text>
            <line clip-path="url(#clipPath89)" fill="none" x1="658"
                x2="668" y1="247" y2="242"/>
            <line clip-path="url(#clipPath89)" fill="none" x1="668"
                x2="658" y1="242" y2="237"/>
        </g>
        <g font-size="11" stroke-linecap="butt" fill="rgb(110,44,18)"
            stroke-dasharray="8,7" stroke="rgb(110,44,18)" stroke-width="1.1">
            <line clip-path="url(#clipPath90)" fill="none" x1="142"
                x2="142" y1="325" y2="287"/>
            <line clip-path="url(#clipPath90)" fill="none" x1="142"
                x2="302" y1="287" y2="287"/>
            <line clip-path="url(#clipPath90)" fill="none" x1="302"
                x2="302" y1="287" y2="267"/>
            <polygon fill="white" clip-path="url(#clipPath91)"
                points=" 302 267 308 281 296 281" stroke="none"/>
            <polygon fill="none" stroke-dasharray="none"
                clip-path="url(#clipPath91)" points=" 302 267 308 281 296 281"/>
            <line clip-path="url(#clipPath92)" fill="none" x1="324"
                x2="324" y1="325" y2="286"/>
            <line clip-path="url(#clipPath92)" fill="none" x1="324"
                x2="302" y1="286" y2="286"/>
            <line clip-path="url(#clipPath92)" fill="none" x1="302"
                x2="302" y1="286" y2="267"/>
            <polygon fill="white" clip-path="url(#clipPath91)"
                points=" 302 267 308 281 296 281" stroke="none"/>
            <polygon fill="none" stroke-dasharray="none"
                clip-path="url(#clipPath91)" points=" 302 267 308 281 296 281"/>
            <line clip-path="url(#clipPath93)" fill="none" x1="500"
                x2="500" y1="325" y2="287"/>
            <line clip-path="url(#clipPath93)" fill="none" x1="500"
                x2="302" y1="287" y2="287"/>
            <line clip-path="url(#clipPath93)" fill="none" x1="302"
                x2="302" y1="287" y2="267"/>
            <polygon fill="white" clip-path="url(#clipPath91)"
                points=" 302 267 308 281 296 281" stroke="none"/>
            <polygon fill="none" stroke-dasharray="none"
                clip-path="url(#clipPath91)" points=" 302 267 308 281 296 281"/>
        </g>
        <g fill="rgb(153,15,15)" stroke-width="1.1" font-size="13"
            stroke-linecap="butt" stroke="rgb(153,15,15)">
            <line clip-path="url(#clipPath94)" fill="none" x1="298"
                x2="298" y1="100" y2="190"/>
            <text xml:space="preserve" x="308" y="178"
                clip-path="url(#clipPath95)" stroke="none">+component</text>
            <text xml:space="preserve" x="265" y="178"
                clip-path="url(#clipPath96)" stroke="none">1..*</text>
            <polygon fill="white" clip-path="url(#clipPath97)"
                points=" 298 100 303 110 298 120 293 110" stroke="none"/>
            <polygon fill="none" clip-path="url(#clipPath97)" points=" 298 100 303 110 298 120 293 110"/>
        </g>
        <g font-size="11" stroke-linecap="butt" fill="rgb(110,44,18)"
            stroke-dasharray="8,7" stroke="rgb(110,44,18)" stroke-width="1.1">
            <line clip-path="url(#clipPath98)" fill="none" x1="141"
                x2="141" y1="100" y2="190"/>
            <polygon fill="white" clip-path="url(#clipPath99)"
                points=" 141 190 135 176 147 176" stroke="none"/>
            <polygon fill="none" stroke-dasharray="none"
                clip-path="url(#clipPath99)" points=" 141 190 135 176 147 176"/>
            <line clip-path="url(#clipPath100)" fill="none" x1="595"
                x2="564" y1="76" y2="76" stroke="rgb(105,22,22)"/>
            <line clip-path="url(#clipPath101)" fill="none" x1="584"
                x2="668" y1="444" y2="444" stroke="rgb(105,22,22)"/>
        </g>
    </g>
</svg>
