<?xml version="1.0" encoding="UTF-8"?>
<svg stroke-dasharray="none" shape-rendering="auto"
    font-family="'Dialog'" width="1149" text-rendering="auto"
    fill-opacity="1" color-interpolation="auto" color-rendering="auto"
    font-size="12" fill="black" stroke="black" image-rendering="auto"
    stroke-miterlimit="10" stroke-linecap="square"
    stroke-linejoin="miter" font-style="normal" height="801"
    stroke-width="1" stroke-dashoffset="0" font-weight="normal" stroke-opacity="1">
    <!--Generated by the Batik Graphics2D SVG Generator-->
    <defs id="genericDefs"/>
    <g>
        <defs id="defs1">
            <clipPath clipPathUnits="userSpaceOnUse" id="clipPath1">
                <path d="M-1 -1 L1149 -1 L1149 801 L-1 801 L-1 -1 Z"/>
            </clipPath>
            <clipPath clipPathUnits="userSpaceOnUse" id="clipPath2">
                <path d="M5 6 L65 6 L65 21 L5 21 L5 6 Z"/>
            </clipPath>
            <clipPath clipPathUnits="userSpaceOnUse" id="clipPath3">
                <path d="M65 5 L121 5 L121 22 L65 22 L65 5 Z"/>
            </clipPath>
            <clipPath clipPathUnits="userSpaceOnUse" id="clipPath4">
                <path d="M57 229 L579 229 L579 292 L57 292 L57 229 Z"/>
            </clipPath>
            <clipPath clipPathUnits="userSpaceOnUse" id="clipPath5">
                <path d="M274 231 L362 231 L362 246 L274 246 L274 231 Z"/>
            </clipPath>
            <clipPath clipPathUnits="userSpaceOnUse" id="clipPath6">
                <path d="M252 246 L383 246 L383 261 L252 261 L252 246 Z"/>
            </clipPath>
            <clipPath clipPathUnits="userSpaceOnUse" id="clipPath7">
                <path d="M59 259 L577 259 L577 271 L59 271 L59 259 Z"/>
            </clipPath>
            <clipPath clipPathUnits="userSpaceOnUse" id="clipPath8">
                <path d="M60 272 L73 272 L73 289 L60 289 L60 272 Z"/>
            </clipPath>
            <clipPath clipPathUnits="userSpaceOnUse" id="clipPath9">
                <path d="M73 272 L155 272 L155 289 L73 289 L73 272 Z"/>
            </clipPath>
            <clipPath clipPathUnits="userSpaceOnUse" id="clipPath10">
                <path d="M155 272 L565 272 L565 289 L155 289 L155 272 Z"/>
            </clipPath>
            <clipPath clipPathUnits="userSpaceOnUse" id="clipPath11">
                <path d="M59 269 L577 269 L577 290 L59 290 L59 269 Z"/>
            </clipPath>
            <clipPath clipPathUnits="userSpaceOnUse" id="clipPath12">
                <path d="M54 91 L577 91 L577 158 L54 158 L54 91 Z"/>
            </clipPath>
            <clipPath clipPathUnits="userSpaceOnUse" id="clipPath13">
                <path d="M283 93 L348 93 L348 110 L283 110 L283 93 Z"/>
            </clipPath>
            <clipPath clipPathUnits="userSpaceOnUse" id="clipPath14">
                <path d="M56 108 L575 108 L575 120 L56 120 L56 108 Z"/>
            </clipPath>
            <clipPath clipPathUnits="userSpaceOnUse" id="clipPath15">
                <path d="M57 121 L70 121 L70 138 L57 138 L57 121 Z"/>
            </clipPath>
            <clipPath clipPathUnits="userSpaceOnUse" id="clipPath16">
                <path d="M70 121 L171 121 L171 138 L70 138 L70 121 Z"/>
            </clipPath>
            <clipPath clipPathUnits="userSpaceOnUse" id="clipPath17">
                <path d="M171 121 L399 121 L399 138 L171 138 L171 121 Z"/>
            </clipPath>
            <clipPath clipPathUnits="userSpaceOnUse" id="clipPath18">
                <path d="M57 138 L70 138 L70 155 L57 155 L57 138 Z"/>
            </clipPath>
            <clipPath clipPathUnits="userSpaceOnUse" id="clipPath19">
                <path d="M70 138 L152 138 L152 155 L70 155 L70 138 Z"/>
            </clipPath>
            <clipPath clipPathUnits="userSpaceOnUse" id="clipPath20">
                <path d="M152 138 L562 138 L562 155 L152 155 L152 138 Z"/>
            </clipPath>
            <clipPath clipPathUnits="userSpaceOnUse" id="clipPath21">
                <path d="M56 118 L575 118 L575 156 L56 156 L56 118 Z"/>
            </clipPath>
            <clipPath clipPathUnits="userSpaceOnUse" id="clipPath22">
                <path d="M690 198 L971 198 L971 299 L690 299 L690 198 Z"/>
            </clipPath>
            <clipPath clipPathUnits="userSpaceOnUse" id="clipPath23">
                <path d="M778 200 L882 200 L882 217 L778 217 L778 200 Z"/>
            </clipPath>
            <clipPath clipPathUnits="userSpaceOnUse" id="clipPath24">
                <path d="M692 215 L969 215 L969 227 L692 227 L692 215 Z"/>
            </clipPath>
            <clipPath clipPathUnits="userSpaceOnUse" id="clipPath25">
                <path d="M693 228 L706 228 L706 245 L693 245 L693 228 Z"/>
            </clipPath>
            <clipPath clipPathUnits="userSpaceOnUse" id="clipPath26">
                <path d="M706 228 L790 228 L790 245 L706 245 L706 228 Z"/>
            </clipPath>
            <clipPath clipPathUnits="userSpaceOnUse" id="clipPath27">
                <path d="M790 228 L918 228 L918 245 L790 245 L790 228 Z"/>
            </clipPath>
            <clipPath clipPathUnits="userSpaceOnUse" id="clipPath28">
                <path d="M693 245 L706 245 L706 262 L693 262 L693 245 Z"/>
            </clipPath>
            <clipPath clipPathUnits="userSpaceOnUse" id="clipPath29">
                <path d="M706 245 L829 245 L829 262 L706 262 L706 245 Z"/>
            </clipPath>
            <clipPath clipPathUnits="userSpaceOnUse" id="clipPath30">
                <path d="M829 245 L957 245 L957 262 L829 262 L829 245 Z"/>
            </clipPath>
            <clipPath clipPathUnits="userSpaceOnUse" id="clipPath31">
                <path d="M693 262 L706 262 L706 279 L693 279 L693 262 Z"/>
            </clipPath>
            <clipPath clipPathUnits="userSpaceOnUse" id="clipPath32">
                <path d="M706 262 L869 262 L869 279 L706 279 L706 262 Z"/>
            </clipPath>
            <clipPath clipPathUnits="userSpaceOnUse" id="clipPath33">
                <path d="M869 262 L915 262 L915 279 L869 279 L869 262 Z"/>
            </clipPath>
            <clipPath clipPathUnits="userSpaceOnUse" id="clipPath34">
                <path d="M693 279 L706 279 L706 296 L693 296 L693 279 Z"/>
            </clipPath>
            <clipPath clipPathUnits="userSpaceOnUse" id="clipPath35">
                <path d="M706 279 L866 279 L866 296 L706 296 L706 279 Z"/>
            </clipPath>
            <clipPath clipPathUnits="userSpaceOnUse" id="clipPath36">
                <path d="M866 279 L912 279 L912 296 L866 296 L866 279 Z"/>
            </clipPath>
            <clipPath clipPathUnits="userSpaceOnUse" id="clipPath37">
                <path d="M692 225 L969 225 L969 297 L692 297 L692 225 Z"/>
            </clipPath>
            <clipPath clipPathUnits="userSpaceOnUse" id="clipPath38">
                <path d="M108 363 L227 363 L227 421 L108 421 L108 363 Z"/>
            </clipPath>
            <clipPath clipPathUnits="userSpaceOnUse" id="clipPath39">
                <path d="M122 365 L213 365 L213 382 L122 382 L122 365 Z"/>
            </clipPath>
            <clipPath clipPathUnits="userSpaceOnUse" id="clipPath40">
                <path d="M115 382 L220 382 L220 399 L115 399 L115 382 Z"/>
            </clipPath>
            <clipPath clipPathUnits="userSpaceOnUse" id="clipPath41">
                <path d="M110 397 L225 397 L225 409 L110 409 L110 397 Z"/>
            </clipPath>
            <clipPath clipPathUnits="userSpaceOnUse" id="clipPath42">
                <path d="M110 407 L225 407 L225 419 L110 419 L110 407 Z"/>
            </clipPath>
            <clipPath clipPathUnits="userSpaceOnUse" id="clipPath43">
                <path d="M664 334 L948 334 L948 431 L664 431 L664 334 Z"/>
            </clipPath>
            <clipPath clipPathUnits="userSpaceOnUse" id="clipPath44">
                <path d="M667 352 L930 352 L930 414 L667 414 L667 352 Z"/>
            </clipPath>
            <clipPath clipPathUnits="userSpaceOnUse" id="clipPath45">
                <path d="M270 363 L428 363 L428 421 L270 421 L270 363 Z"/>
            </clipPath>
            <clipPath clipPathUnits="userSpaceOnUse" id="clipPath46">
                <path d="M277 365 L421 365 L421 382 L277 382 L277 365 Z"/>
            </clipPath>
            <clipPath clipPathUnits="userSpaceOnUse" id="clipPath47">
                <path d="M283 382 L414 382 L414 399 L283 399 L283 382 Z"/>
            </clipPath>
            <clipPath clipPathUnits="userSpaceOnUse" id="clipPath48">
                <path d="M272 397 L426 397 L426 409 L272 409 L272 397 Z"/>
            </clipPath>
            <clipPath clipPathUnits="userSpaceOnUse" id="clipPath49">
                <path d="M272 407 L426 407 L426 419 L272 419 L272 407 Z"/>
            </clipPath>
            <clipPath clipPathUnits="userSpaceOnUse" id="clipPath50">
                <path d="M453 363 L597 363 L597 421 L453 421 L453 363 Z"/>
            </clipPath>
            <clipPath clipPathUnits="userSpaceOnUse" id="clipPath51">
                <path d="M478 365 L571 365 L571 382 L478 382 L478 365 Z"/>
            </clipPath>
            <clipPath clipPathUnits="userSpaceOnUse" id="clipPath52">
                <path d="M459 382 L590 382 L590 399 L459 399 L459 382 Z"/>
            </clipPath>
            <clipPath clipPathUnits="userSpaceOnUse" id="clipPath53">
                <path d="M455 397 L595 397 L595 409 L455 409 L455 397 Z"/>
            </clipPath>
            <clipPath clipPathUnits="userSpaceOnUse" id="clipPath54">
                <path d="M455 407 L595 407 L595 419 L455 419 L455 407 Z"/>
            </clipPath>
            <clipPath clipPathUnits="userSpaceOnUse" id="clipPath55">
                <path d="M619 95 L890 95 L890 156 L619 156 L619 95 Z"/>
            </clipPath>
            <clipPath clipPathUnits="userSpaceOnUse" id="clipPath56">
                <path d="M622 106 L874 106 L874 153 L622 153 L622 106 Z"/>
            </clipPath>
            <clipPath clipPathUnits="userSpaceOnUse" id="clipPath57">
                <path d="M564 215 L742 215 L742 293 L564 293 L564 215 Z"/>
            </clipPath>
            <clipPath clipPathUnits="userSpaceOnUse" id="clipPath58">
                <path d="M611 233 L665 233 L665 250 L611 250 L611 233 Z"/>
            </clipPath>
            <clipPath clipPathUnits="userSpaceOnUse" id="clipPath59">
                <path d="M680 248 L693 248 L693 261 L680 261 L680 248 Z"/>
            </clipPath>
            <clipPath clipPathUnits="userSpaceOnUse" id="clipPath60">
                <path d="M153 276 L339 276 L339 380 L153 380 L153 276 Z"/>
            </clipPath>
            <clipPath clipPathUnits="userSpaceOnUse" id="clipPath61">
                <path d="M311 289 L326 289 L326 306 L311 306 L311 289 Z"/>
            </clipPath>
            <clipPath clipPathUnits="userSpaceOnUse" id="clipPath62">
                <path d="M298 276 L364 276 L364 380 L298 380 L298 276 Z"/>
            </clipPath>
            <clipPath clipPathUnits="userSpaceOnUse" id="clipPath63">
                <path d="M298 276 L540 276 L540 380 L298 380 L298 276 Z"/>
            </clipPath>
            <clipPath clipPathUnits="userSpaceOnUse" id="clipPath64">
                <path d="M177 143 L455 143 L455 248 L177 248 L177 143 Z"/>
            </clipPath>
            <clipPath clipPathUnits="userSpaceOnUse" id="clipPath65">
                <path d="M325 204 L411 204 L411 221 L325 221 L325 204 Z"/>
            </clipPath>
            <clipPath clipPathUnits="userSpaceOnUse" id="clipPath66">
                <path d="M282 204 L307 204 L307 221 L282 221 L282 204 Z"/>
            </clipPath>
            <clipPath clipPathUnits="userSpaceOnUse" id="clipPath67">
                <path d="M310 156 L323 156 L323 179 L310 179 L310 156 Z"/>
            </clipPath>
            <clipPath clipPathUnits="userSpaceOnUse" id="clipPath68">
                <path d="M139 143 L180 143 L180 245 L139 245 L139 143 Z"/>
            </clipPath>
            <clipPath clipPathUnits="userSpaceOnUse" id="clipPath69">
                <path d="M152 215 L167 215 L167 232 L152 232 L152 215 Z"/>
            </clipPath>
            <clipPath clipPathUnits="userSpaceOnUse" id="clipPath70">
                <path d="M562 110 L635 110 L635 139 L562 139 L562 110 Z"/>
            </clipPath>
            <clipPath clipPathUnits="userSpaceOnUse" id="clipPath71">
                <path d="M804 284 L833 284 L833 350 L804 350 L804 284 Z"/>
            </clipPath>
        </defs>
        <g font-size="11" fill="white" stroke-linejoin="round"
            stroke="white" stroke-width="0" stroke-miterlimit="0">
            <rect x="0" y="0" clip-path="url(#clipPath1)" width="1148"
                height="800" stroke="none"/>
        </g>
        <g stroke-width="0.1" font-size="11" stroke-linecap="butt">
            <line clip-path="url(#clipPath1)" fill="none" x1="1"
                x2="125" y1="29" y2="29"/>
            <line clip-path="url(#clipPath1)" fill="none" x1="125"
                x2="132" y1="29" y2="15"/>
            <line clip-path="url(#clipPath1)" fill="none" x1="132"
                x2="132" y1="15" y2="1"/>
            <text x="6" y="18" clip-path="url(#clipPath2)" stroke="none"
                font-weight="bold" xml:space="preserve">package </text>
            <text font-size="13" x="66" y="19"
                clip-path="url(#clipPath3)" stroke="none" xml:space="preserve">scenario</text>
            <rect x="58" y="230" clip-path="url(#clipPath4)"
                fill="rgb(244,242,212)" width="520" height="61" stroke="none"/>
            <text x="275" y="243" clip-path="url(#clipPath5)"
                fill="rgb(110,44,18)" stroke="none" xml:space="preserve">&lt;&lt;interface&gt;&gt;</text>
            <text x="253" y="258" clip-path="url(#clipPath6)"
                fill="rgb(110,44,18)" stroke="none" font-weight="bold" xml:space="preserve">ScenarioComponent</text>
            <line clip-path="url(#clipPath7)" fill="none" x1="60"
                x2="576" y1="260" y2="260" stroke="rgb(110,44,18)"/>
            <text font-size="13" x="61" y="286"
                clip-path="url(#clipPath8)" stroke="none" xml:space="preserve">+</text>
            <text font-size="13" x="74" y="286"
                clip-path="url(#clipPath9)" stroke="none" xml:space="preserve">updateState</text>
            <text font-size="13" x="156" y="286"
                clip-path="url(#clipPath10)" stroke="none" xml:space="preserve">(original : ScenarioState, target : AbsoluteDate) : ScenarioState</text>
            <line clip-path="url(#clipPath11)" fill="none" x1="60"
                x2="576" y1="270" y2="270" stroke="rgb(110,44,18)"/>
            <rect x="58" y="230" clip-path="url(#clipPath4)" fill="none"
                width="519" height="60" stroke="rgb(110,44,18)" stroke-width="1.1"/>
            <rect x="55" y="92" clip-path="url(#clipPath12)"
                fill="rgb(237,247,200)" width="521" height="65"
                stroke="none" stroke-width="1.1"/>
        </g>
        <g font-size="13" stroke-linecap="butt" fill="rgb(106,88,75)"
            stroke="rgb(106,88,75)" font-weight="bold" stroke-width="1.1">
            <text xml:space="preserve" x="284" y="107"
                clip-path="url(#clipPath13)" stroke="none">Scenario</text>
            <line clip-path="url(#clipPath14)" fill="none" x1="57"
                x2="574" y1="109" y2="109" stroke-width="0.1"/>
        </g>
        <g stroke-width="0.1" font-size="13" stroke-linecap="butt">
            <text xml:space="preserve" x="58" y="135"
                clip-path="url(#clipPath15)" stroke="none">+</text>
            <text xml:space="preserve" x="71" y="135"
                clip-path="url(#clipPath16)" stroke="none">addComponent</text>
            <text xml:space="preserve" x="172" y="135"
                clip-path="url(#clipPath17)" stroke="none">(component : ScenarioComponent)</text>
            <text xml:space="preserve" x="58" y="152"
                clip-path="url(#clipPath18)" stroke="none">+</text>
            <text xml:space="preserve" x="71" y="152"
                clip-path="url(#clipPath19)" stroke="none">updateState</text>
            <text xml:space="preserve" x="153" y="152"
                clip-path="url(#clipPath20)" stroke="none">(original : ScenarioState, target : AbsoluteDate) : ScenarioState</text>
            <line clip-path="url(#clipPath21)" fill="none" x1="57"
                x2="574" y1="119" y2="119" stroke="rgb(106,88,75)"/>
        </g>
        <g fill="rgb(106,88,75)" stroke-width="1.1" font-size="11"
            stroke-linecap="butt" stroke="rgb(106,88,75)">
            <rect x="55" y="92" clip-path="url(#clipPath12)" fill="none"
                width="520" height="64"/>
            <rect x="691" y="199" clip-path="url(#clipPath22)"
                fill="rgb(237,247,200)" width="279" height="99" stroke="none"/>
            <text font-size="13" x="779" y="214"
                clip-path="url(#clipPath23)" stroke="none"
                font-weight="bold" xml:space="preserve">ScenarioState</text>
            <line clip-path="url(#clipPath24)" fill="none" x1="693"
                x2="968" y1="216" y2="216" stroke-width="0.1"/>
        </g>
        <g stroke-width="0.1" font-size="13" stroke-linecap="butt">
            <text xml:space="preserve" x="694" y="242"
                clip-path="url(#clipPath25)" stroke="none">+</text>
            <text xml:space="preserve" x="707" y="242"
                clip-path="url(#clipPath26)" stroke="none">getRealState</text>
            <text xml:space="preserve" x="791" y="242"
                clip-path="url(#clipPath27)" stroke="none">() : SpacecraftState</text>
            <text xml:space="preserve" x="694" y="259"
                clip-path="url(#clipPath28)" stroke="none">+</text>
            <text xml:space="preserve" x="707" y="259"
                clip-path="url(#clipPath29)" stroke="none">getEstimatedState</text>
            <text xml:space="preserve" x="830" y="259"
                clip-path="url(#clipPath30)" stroke="none">() : SpacecraftState</text>
            <text xml:space="preserve" x="694" y="276"
                clip-path="url(#clipPath31)" stroke="none">+</text>
            <text xml:space="preserve" x="707" y="276"
                clip-path="url(#clipPath32)" stroke="none">getTheoreticalManeuvers</text>
            <text xml:space="preserve" x="870" y="276"
                clip-path="url(#clipPath33)" stroke="none">() : List</text>
            <text xml:space="preserve" x="694" y="293"
                clip-path="url(#clipPath34)" stroke="none">+</text>
            <text xml:space="preserve" x="707" y="293"
                clip-path="url(#clipPath35)" stroke="none">getPerformedManeuvers</text>
            <text xml:space="preserve" x="867" y="293"
                clip-path="url(#clipPath36)" stroke="none">() : List</text>
            <line clip-path="url(#clipPath37)" fill="none" x1="693"
                x2="968" y1="226" y2="226" stroke="rgb(106,88,75)"/>
        </g>
        <g fill="rgb(106,88,75)" stroke-width="1.1" font-size="11"
            stroke-linecap="butt" stroke="rgb(106,88,75)">
            <rect x="691" y="199" clip-path="url(#clipPath22)"
                fill="none" width="278" height="98"/>
            <rect x="109" y="364" clip-path="url(#clipPath38)"
                fill="rgb(237,247,200)" width="117" height="56" stroke="none"/>
            <text font-size="13" x="123" y="379"
                clip-path="url(#clipPath39)" stroke="none"
                font-weight="bold" xml:space="preserve">ControlLoop</text>
            <text font-size="13" x="116" y="396"
                clip-path="url(#clipPath40)" stroke="none"
                font-weight="bold" xml:space="preserve">(from control)</text>
            <line clip-path="url(#clipPath41)" fill="none" x1="111"
                x2="224" y1="398" y2="398" stroke-width="0.1"/>
            <line clip-path="url(#clipPath42)" fill="none" x1="111"
                x2="224" y1="408" y2="408" stroke-width="0.1"/>
            <rect x="109" y="364" clip-path="url(#clipPath38)"
                fill="none" width="116" height="55"/>
            <polygon fill="rgb(243,239,235)"
                clip-path="url(#clipPath43)"
                points=" 665 335 937 335 946 345 946 429 665 429" stroke="none"/>
        </g>
        <g fill="rgb(105,22,22)" stroke-width="0.1" font-size="13"
            stroke-linecap="butt" stroke="rgb(105,22,22)">
            <polygon fill="none" clip-path="url(#clipPath43)" points=" 936 335 936 345 946 345 936 335 665 335 665 429 946 429 946 345"/>
            <text xml:space="preserve" x="668" y="366"
                clip-path="url(#clipPath44)" stroke="none">scenario state contains all the properties</text>
            <text xml:space="preserve" x="668" y="381"
                clip-path="url(#clipPath44)" stroke="none">of current cycle (orbit, maneuvers ...)</text>
            <text xml:space="preserve" x="668" y="396"
                clip-path="url(#clipPath44)" stroke="none">It is updated by the updateState</text>
            <text xml:space="preserve" x="668" y="411"
                clip-path="url(#clipPath44)" stroke="none">methods of all scenario components.</text>
            <rect x="271" y="364" clip-path="url(#clipPath45)"
                fill="rgb(237,247,200)" width="156" height="56" stroke="none"/>
            <text x="278" y="379" clip-path="url(#clipPath46)"
                fill="rgb(106,88,75)" stroke="none" font-weight="bold" xml:space="preserve">OrbitDetermination</text>
            <text x="284" y="396" clip-path="url(#clipPath47)"
                fill="rgb(106,88,75)" stroke="none" font-weight="bold" xml:space="preserve">(from realization)</text>
            <line clip-path="url(#clipPath48)" fill="none" x1="273"
                x2="425" y1="398" y2="398" stroke="rgb(106,88,75)"/>
            <line clip-path="url(#clipPath49)" fill="none" x1="273"
                x2="425" y1="408" y2="408" stroke="rgb(106,88,75)"/>
        </g>
        <g fill="rgb(106,88,75)" stroke-width="1.1" font-size="11"
            stroke-linecap="butt" stroke="rgb(106,88,75)">
            <rect x="271" y="364" clip-path="url(#clipPath45)"
                fill="none" width="155" height="55"/>
            <rect x="454" y="364" clip-path="url(#clipPath50)"
                fill="rgb(237,247,200)" width="142" height="56" stroke="none"/>
            <text font-size="13" x="479" y="379"
                clip-path="url(#clipPath51)" stroke="none"
                font-weight="bold" xml:space="preserve">Propagation</text>
            <text font-size="13" x="460" y="396"
                clip-path="url(#clipPath52)" stroke="none"
                font-weight="bold" xml:space="preserve">(from realization)</text>
            <line clip-path="url(#clipPath53)" fill="none" x1="456"
                x2="594" y1="398" y2="398" stroke-width="0.1"/>
            <line clip-path="url(#clipPath54)" fill="none" x1="456"
                x2="594" y1="408" y2="408" stroke-width="0.1"/>
            <rect x="454" y="364" clip-path="url(#clipPath50)"
                fill="none" width="141" height="55"/>
            <polygon fill="rgb(243,239,235)"
                clip-path="url(#clipPath55)"
                points=" 620 96 879 96 888 106 888 154 620 154" stroke="none"/>
        </g>
        <g fill="rgb(105,22,22)" stroke-width="0.1" font-size="13"
            stroke-linecap="butt" stroke="rgb(105,22,22)">
            <polygon fill="none" clip-path="url(#clipPath55)" points=" 878 96 878 106 888 106 878 96 620 96 620 154 888 154 888 106"/>
            <text xml:space="preserve" x="623" y="120"
                clip-path="url(#clipPath56)" stroke="none">as Scenario implements</text>
            <text xml:space="preserve" x="623" y="135"
                clip-path="url(#clipPath56)" stroke="none">ScenarioComponent by itself, recursive</text>
            <text xml:space="preserve" x="623" y="150"
                clip-path="url(#clipPath56)" stroke="none">scenario building is possible</text>
        </g>
        <g stroke-width="1.1" font-size="11" stroke-linecap="butt">
            <rect x="0" y="0" clip-path="url(#clipPath1)" fill="none"
                width="1147" height="799"/>
            <line clip-path="url(#clipPath57)" fill="none" x1="578"
                x2="691" y1="254" y2="254" stroke="rgb(153,15,15)"/>
            <text font-size="13" x="612" y="247"
                clip-path="url(#clipPath58)" fill="rgb(153,15,15)"
                stroke="none" xml:space="preserve">updates</text>
            <line clip-path="url(#clipPath59)" fill="none" x1="681"
                x2="691" y1="259" y2="254" stroke="rgb(153,15,15)"/>
            <line clip-path="url(#clipPath59)" fill="none" x1="691"
                x2="681" y1="254" y2="249" stroke="rgb(153,15,15)"/>
            <line clip-path="url(#clipPath60)" fill="none" x1="167"
                x2="167" y1="365" y2="323" stroke-dasharray="8,7" stroke="rgb(110,44,18)"/>
            <line clip-path="url(#clipPath60)" fill="none" x1="167"
                x2="318" y1="323" y2="323" stroke-dasharray="8,7" stroke="rgb(110,44,18)"/>
            <line clip-path="url(#clipPath60)" fill="none" x1="318"
                x2="318" y1="323" y2="290" stroke-dasharray="8,7" stroke="rgb(110,44,18)"/>
            <polygon fill="white" stroke-dasharray="8,7"
                clip-path="url(#clipPath61)"
                points=" 318 290 324 304 312 304" stroke="none"/>
            <polygon fill="none" clip-path="url(#clipPath61)"
                points=" 318 290 324 304 312 304" stroke="rgb(110,44,18)"/>
            <line clip-path="url(#clipPath62)" fill="none" x1="349"
                x2="349" y1="365" y2="323" stroke-dasharray="8,7" stroke="rgb(110,44,18)"/>
            <line clip-path="url(#clipPath62)" fill="none" x1="349"
                x2="318" y1="323" y2="323" stroke-dasharray="8,7" stroke="rgb(110,44,18)"/>
            <line clip-path="url(#clipPath62)" fill="none" x1="318"
                x2="318" y1="323" y2="290" stroke-dasharray="8,7" stroke="rgb(110,44,18)"/>
            <polygon fill="white" stroke-dasharray="8,7"
                clip-path="url(#clipPath61)"
                points=" 318 290 324 304 312 304" stroke="none"/>
            <polygon fill="none" clip-path="url(#clipPath61)"
                points=" 318 290 324 304 312 304" stroke="rgb(110,44,18)"/>
            <line clip-path="url(#clipPath63)" fill="none" x1="525"
                x2="525" y1="365" y2="323" stroke-dasharray="8,7" stroke="rgb(110,44,18)"/>
            <line clip-path="url(#clipPath63)" fill="none" x1="525"
                x2="318" y1="323" y2="323" stroke-dasharray="8,7" stroke="rgb(110,44,18)"/>
            <line clip-path="url(#clipPath63)" fill="none" x1="318"
                x2="318" y1="323" y2="290" stroke-dasharray="8,7" stroke="rgb(110,44,18)"/>
            <polygon fill="white" stroke-dasharray="8,7"
                clip-path="url(#clipPath61)"
                points=" 318 290 324 304 312 304" stroke="none"/>
            <polygon fill="none" clip-path="url(#clipPath61)"
                points=" 318 290 324 304 312 304" stroke="rgb(110,44,18)"/>
            <line clip-path="url(#clipPath64)" fill="none" x1="316"
                x2="316" y1="157" y2="230" stroke="rgb(153,15,15)"/>
            <text font-size="13" x="326" y="218"
                clip-path="url(#clipPath65)" fill="rgb(153,15,15)"
                stroke="none" xml:space="preserve">+component</text>
            <text font-size="13" x="283" y="218"
                clip-path="url(#clipPath66)" fill="rgb(153,15,15)"
                stroke="none" xml:space="preserve">1..*</text>
            <polygon fill="white" clip-path="url(#clipPath67)"
                points=" 316 157 321 167 316 177 311 167" stroke="none"/>
            <polygon fill="none" clip-path="url(#clipPath67)"
                points=" 316 157 321 167 316 177 311 167" stroke="rgb(153,15,15)"/>
            <line clip-path="url(#clipPath68)" fill="none" x1="159"
                x2="159" y1="157" y2="230" stroke-dasharray="8,7" stroke="rgb(110,44,18)"/>
            <polygon fill="white" stroke-dasharray="8,7"
                clip-path="url(#clipPath69)"
                points=" 159 230 153 216 165 216" stroke="none"/>
            <polygon fill="none" clip-path="url(#clipPath69)"
                points=" 159 230 153 216 165 216" stroke="rgb(110,44,18)"/>
        </g>
        <g font-size="13" stroke-linecap="butt" fill="rgb(105,22,22)"
            stroke-dasharray="8,7" stroke="rgb(105,22,22)" stroke-width="1.1">
            <line clip-path="url(#clipPath70)" fill="none" x1="620"
                x2="576" y1="124" y2="124"/>
            <line clip-path="url(#clipPath71)" fill="none" x1="818"
                x2="818" y1="335" y2="298"/>
        </g>
    </g>
</svg>
