<?xml version="1.0" encoding="UTF-8"?>
<svg stroke-dasharray="none" shape-rendering="auto"
    font-family="'Dialog'" width="1149" text-rendering="auto"
    fill-opacity="1" color-interpolation="auto" color-rendering="auto"
    font-size="12" fill="black" stroke="black" image-rendering="auto"
    stroke-miterlimit="10" stroke-linecap="square"
    stroke-linejoin="miter" font-style="normal" height="801"
    stroke-width="1" stroke-dashoffset="0" font-weight="normal" stroke-opacity="1">
    <!--Generated by the Batik Graphics2D SVG Generator-->
    <defs id="genericDefs"/>
    <g>
        <defs id="defs1">
            <clipPath clipPathUnits="userSpaceOnUse" id="clipPath1">
                <path d="M-1 -1 L1149 -1 L1149 801 L-1 801 L-1 -1 Z"/>
            </clipPath>
            <clipPath clipPathUnits="userSpaceOnUse" id="clipPath2">
                <path d="M5 6 L65 6 L65 21 L5 21 L5 6 Z"/>
            </clipPath>
            <clipPath clipPathUnits="userSpaceOnUse" id="clipPath3">
                <path d="M65 5 L121 5 L121 22 L65 22 L65 5 Z"/>
            </clipPath>
            <clipPath clipPathUnits="userSpaceOnUse" id="clipPath4">
                <path d="M57 229 L593 229 L593 292 L57 292 L57 229 Z"/>
            </clipPath>
            <clipPath clipPathUnits="userSpaceOnUse" id="clipPath5">
                <path d="M281 231 L369 231 L369 246 L281 246 L281 231 Z"/>
            </clipPath>
            <clipPath clipPathUnits="userSpaceOnUse" id="clipPath6">
                <path d="M259 246 L390 246 L390 261 L259 261 L259 246 Z"/>
            </clipPath>
            <clipPath clipPathUnits="userSpaceOnUse" id="clipPath7">
                <path d="M59 259 L591 259 L591 271 L59 271 L59 259 Z"/>
            </clipPath>
            <clipPath clipPathUnits="userSpaceOnUse" id="clipPath8">
                <path d="M60 272 L73 272 L73 289 L60 289 L60 272 Z"/>
            </clipPath>
            <clipPath clipPathUnits="userSpaceOnUse" id="clipPath9">
                <path d="M73 272 L162 272 L162 289 L73 289 L73 272 Z"/>
            </clipPath>
            <clipPath clipPathUnits="userSpaceOnUse" id="clipPath10">
                <path d="M162 272 L579 272 L579 289 L162 289 L162 272 Z"/>
            </clipPath>
            <clipPath clipPathUnits="userSpaceOnUse" id="clipPath11">
                <path d="M59 269 L591 269 L591 290 L59 290 L59 269 Z"/>
            </clipPath>
            <clipPath clipPathUnits="userSpaceOnUse" id="clipPath12">
                <path d="M54 91 L590 91 L590 158 L54 158 L54 91 Z"/>
            </clipPath>
            <clipPath clipPathUnits="userSpaceOnUse" id="clipPath13">
                <path d="M289 93 L354 93 L354 110 L289 110 L289 93 Z"/>
            </clipPath>
            <clipPath clipPathUnits="userSpaceOnUse" id="clipPath14">
                <path d="M56 108 L588 108 L588 120 L56 120 L56 108 Z"/>
            </clipPath>
            <clipPath clipPathUnits="userSpaceOnUse" id="clipPath15">
                <path d="M57 121 L70 121 L70 138 L57 138 L57 121 Z"/>
            </clipPath>
            <clipPath clipPathUnits="userSpaceOnUse" id="clipPath16">
                <path d="M70 121 L171 121 L171 138 L70 138 L70 121 Z"/>
            </clipPath>
            <clipPath clipPathUnits="userSpaceOnUse" id="clipPath17">
                <path d="M171 121 L399 121 L399 138 L171 138 L171 121 Z"/>
            </clipPath>
            <clipPath clipPathUnits="userSpaceOnUse" id="clipPath18">
                <path d="M57 138 L70 138 L70 155 L57 155 L57 138 Z"/>
            </clipPath>
            <clipPath clipPathUnits="userSpaceOnUse" id="clipPath19">
                <path d="M70 138 L159 138 L159 155 L70 155 L70 138 Z"/>
            </clipPath>
            <clipPath clipPathUnits="userSpaceOnUse" id="clipPath20">
                <path d="M159 138 L576 138 L576 155 L159 155 L159 138 Z"/>
            </clipPath>
            <clipPath clipPathUnits="userSpaceOnUse" id="clipPath21">
                <path d="M56 118 L588 118 L588 156 L56 156 L56 118 Z"/>
            </clipPath>
            <clipPath clipPathUnits="userSpaceOnUse" id="clipPath22">
                <path d="M691 221 L1035 221 L1035 526 L691 526 L691 221 Z"/>
            </clipPath>
            <clipPath clipPathUnits="userSpaceOnUse" id="clipPath23">
                <path d="M811 223 L915 223 L915 240 L811 240 L811 223 Z"/>
            </clipPath>
            <clipPath clipPathUnits="userSpaceOnUse" id="clipPath24">
                <path d="M693 238 L1033 238 L1033 250 L693 250 L693 238 Z"/>
            </clipPath>
            <clipPath clipPathUnits="userSpaceOnUse" id="clipPath25">
                <path d="M694 251 L707 251 L707 268 L694 268 L694 251 Z"/>
            </clipPath>
            <clipPath clipPathUnits="userSpaceOnUse" id="clipPath26">
                <path d="M707 251 L816 251 L816 268 L707 268 L707 251 Z"/>
            </clipPath>
            <clipPath clipPathUnits="userSpaceOnUse" id="clipPath27">
                <path d="M816 251 L856 251 L856 268 L816 268 L816 251 Z"/>
            </clipPath>
            <clipPath clipPathUnits="userSpaceOnUse" id="clipPath28">
                <path d="M694 268 L707 268 L707 285 L694 285 L694 268 Z"/>
            </clipPath>
            <clipPath clipPathUnits="userSpaceOnUse" id="clipPath29">
                <path d="M707 268 L823 268 L823 285 L707 285 L707 268 Z"/>
            </clipPath>
            <clipPath clipPathUnits="userSpaceOnUse" id="clipPath30">
                <path d="M823 268 L951 268 L951 285 L823 285 L823 268 Z"/>
            </clipPath>
            <clipPath clipPathUnits="userSpaceOnUse" id="clipPath31">
                <path d="M694 285 L707 285 L707 302 L694 302 L694 285 Z"/>
            </clipPath>
            <clipPath clipPathUnits="userSpaceOnUse" id="clipPath32">
                <path d="M707 285 L862 285 L862 302 L707 302 L707 285 Z"/>
            </clipPath>
            <clipPath clipPathUnits="userSpaceOnUse" id="clipPath33">
                <path d="M862 285 L990 285 L990 302 L862 302 L862 285 Z"/>
            </clipPath>
            <clipPath clipPathUnits="userSpaceOnUse" id="clipPath34">
                <path d="M694 302 L707 302 L707 319 L694 319 L694 302 Z"/>
            </clipPath>
            <clipPath clipPathUnits="userSpaceOnUse" id="clipPath35">
                <path d="M707 302 L815 302 L815 319 L707 319 L707 302 Z"/>
            </clipPath>
            <clipPath clipPathUnits="userSpaceOnUse" id="clipPath36">
                <path d="M815 302 L943 302 L943 319 L815 319 L815 302 Z"/>
            </clipPath>
            <clipPath clipPathUnits="userSpaceOnUse" id="clipPath37">
                <path d="M694 319 L707 319 L707 336 L694 336 L694 319 Z"/>
            </clipPath>
            <clipPath clipPathUnits="userSpaceOnUse" id="clipPath38">
                <path d="M707 319 L870 319 L870 336 L707 336 L707 319 Z"/>
            </clipPath>
            <clipPath clipPathUnits="userSpaceOnUse" id="clipPath39">
                <path d="M870 319 L916 319 L916 336 L870 336 L870 319 Z"/>
            </clipPath>
            <clipPath clipPathUnits="userSpaceOnUse" id="clipPath40">
                <path d="M694 336 L707 336 L707 353 L694 353 L694 336 Z"/>
            </clipPath>
            <clipPath clipPathUnits="userSpaceOnUse" id="clipPath41">
                <path d="M707 336 L867 336 L867 353 L707 353 L707 336 Z"/>
            </clipPath>
            <clipPath clipPathUnits="userSpaceOnUse" id="clipPath42">
                <path d="M867 336 L913 336 L913 353 L867 353 L867 336 Z"/>
            </clipPath>
            <clipPath clipPathUnits="userSpaceOnUse" id="clipPath43">
                <path d="M694 353 L707 353 L707 370 L694 370 L694 353 Z"/>
            </clipPath>
            <clipPath clipPathUnits="userSpaceOnUse" id="clipPath44">
                <path d="M707 353 L776 353 L776 370 L707 370 L707 353 Z"/>
            </clipPath>
            <clipPath clipPathUnits="userSpaceOnUse" id="clipPath45">
                <path d="M776 353 L816 353 L816 370 L776 370 L776 353 Z"/>
            </clipPath>
            <clipPath clipPathUnits="userSpaceOnUse" id="clipPath46">
                <path d="M694 370 L707 370 L707 387 L694 387 L694 370 Z"/>
            </clipPath>
            <clipPath clipPathUnits="userSpaceOnUse" id="clipPath47">
                <path d="M707 370 L795 370 L795 387 L707 387 L707 370 Z"/>
            </clipPath>
            <clipPath clipPathUnits="userSpaceOnUse" id="clipPath48">
                <path d="M795 370 L862 370 L862 387 L795 387 L795 370 Z"/>
            </clipPath>
            <clipPath clipPathUnits="userSpaceOnUse" id="clipPath49">
                <path d="M694 387 L707 387 L707 404 L694 404 L694 387 Z"/>
            </clipPath>
            <clipPath clipPathUnits="userSpaceOnUse" id="clipPath50">
                <path d="M707 387 L802 387 L802 404 L707 404 L707 387 Z"/>
            </clipPath>
            <clipPath clipPathUnits="userSpaceOnUse" id="clipPath51">
                <path d="M802 387 L842 387 L842 404 L802 404 L802 387 Z"/>
            </clipPath>
            <clipPath clipPathUnits="userSpaceOnUse" id="clipPath52">
                <path d="M694 404 L707 404 L707 421 L694 421 L694 404 Z"/>
            </clipPath>
            <clipPath clipPathUnits="userSpaceOnUse" id="clipPath53">
                <path d="M707 404 L821 404 L821 421 L707 421 L707 404 Z"/>
            </clipPath>
            <clipPath clipPathUnits="userSpaceOnUse" id="clipPath54">
                <path d="M821 404 L888 404 L888 421 L821 421 L821 404 Z"/>
            </clipPath>
            <clipPath clipPathUnits="userSpaceOnUse" id="clipPath55">
                <path d="M694 421 L707 421 L707 438 L694 438 L694 421 Z"/>
            </clipPath>
            <clipPath clipPathUnits="userSpaceOnUse" id="clipPath56">
                <path d="M707 421 L848 421 L848 438 L707 438 L707 421 Z"/>
            </clipPath>
            <clipPath clipPathUnits="userSpaceOnUse" id="clipPath57">
                <path d="M848 421 L915 421 L915 438 L848 438 L848 421 Z"/>
            </clipPath>
            <clipPath clipPathUnits="userSpaceOnUse" id="clipPath58">
                <path d="M694 438 L707 438 L707 455 L694 455 L694 438 Z"/>
            </clipPath>
            <clipPath clipPathUnits="userSpaceOnUse" id="clipPath59">
                <path d="M707 438 L861 438 L861 455 L707 455 L707 438 Z"/>
            </clipPath>
            <clipPath clipPathUnits="userSpaceOnUse" id="clipPath60">
                <path d="M861 438 L972 438 L972 455 L861 455 L861 438 Z"/>
            </clipPath>
            <clipPath clipPathUnits="userSpaceOnUse" id="clipPath61">
                <path d="M694 455 L707 455 L707 472 L694 472 L694 455 Z"/>
            </clipPath>
            <clipPath clipPathUnits="userSpaceOnUse" id="clipPath62">
                <path d="M707 455 L894 455 L894 472 L707 472 L707 455 Z"/>
            </clipPath>
            <clipPath clipPathUnits="userSpaceOnUse" id="clipPath63">
                <path d="M894 455 L961 455 L961 472 L894 472 L894 455 Z"/>
            </clipPath>
            <clipPath clipPathUnits="userSpaceOnUse" id="clipPath64">
                <path d="M694 472 L707 472 L707 489 L694 489 L694 472 Z"/>
            </clipPath>
            <clipPath clipPathUnits="userSpaceOnUse" id="clipPath65">
                <path d="M707 472 L870 472 L870 489 L707 489 L707 472 Z"/>
            </clipPath>
            <clipPath clipPathUnits="userSpaceOnUse" id="clipPath66">
                <path d="M870 472 L981 472 L981 489 L870 489 L870 472 Z"/>
            </clipPath>
            <clipPath clipPathUnits="userSpaceOnUse" id="clipPath67">
                <path d="M694 489 L707 489 L707 506 L694 506 L694 489 Z"/>
            </clipPath>
            <clipPath clipPathUnits="userSpaceOnUse" id="clipPath68">
                <path d="M707 489 L903 489 L903 506 L707 506 L707 489 Z"/>
            </clipPath>
            <clipPath clipPathUnits="userSpaceOnUse" id="clipPath69">
                <path d="M903 489 L970 489 L970 506 L903 506 L903 489 Z"/>
            </clipPath>
            <clipPath clipPathUnits="userSpaceOnUse" id="clipPath70">
                <path d="M694 506 L707 506 L707 523 L694 523 L694 506 Z"/>
            </clipPath>
            <clipPath clipPathUnits="userSpaceOnUse" id="clipPath71">
                <path d="M707 506 L798 506 L798 523 L707 523 L707 506 Z"/>
            </clipPath>
            <clipPath clipPathUnits="userSpaceOnUse" id="clipPath72">
                <path d="M798 506 L950 506 L950 523 L798 523 L798 506 Z"/>
            </clipPath>
            <clipPath clipPathUnits="userSpaceOnUse" id="clipPath73">
                <path d="M693 248 L1033 248 L1033 524 L693 524 L693 248 Z"/>
            </clipPath>
            <clipPath clipPathUnits="userSpaceOnUse" id="clipPath74">
                <path d="M108 363 L227 363 L227 421 L108 421 L108 363 Z"/>
            </clipPath>
            <clipPath clipPathUnits="userSpaceOnUse" id="clipPath75">
                <path d="M122 365 L213 365 L213 382 L122 382 L122 365 Z"/>
            </clipPath>
            <clipPath clipPathUnits="userSpaceOnUse" id="clipPath76">
                <path d="M115 382 L220 382 L220 399 L115 399 L115 382 Z"/>
            </clipPath>
            <clipPath clipPathUnits="userSpaceOnUse" id="clipPath77">
                <path d="M110 397 L225 397 L225 409 L110 409 L110 397 Z"/>
            </clipPath>
            <clipPath clipPathUnits="userSpaceOnUse" id="clipPath78">
                <path d="M110 407 L225 407 L225 419 L110 419 L110 407 Z"/>
            </clipPath>
            <clipPath clipPathUnits="userSpaceOnUse" id="clipPath79">
                <path d="M293 469 L577 469 L577 566 L293 566 L293 469 Z"/>
            </clipPath>
            <clipPath clipPathUnits="userSpaceOnUse" id="clipPath80">
                <path d="M296 487 L559 487 L559 549 L296 549 L296 487 Z"/>
            </clipPath>
            <clipPath clipPathUnits="userSpaceOnUse" id="clipPath81">
                <path d="M270 363 L428 363 L428 421 L270 421 L270 363 Z"/>
            </clipPath>
            <clipPath clipPathUnits="userSpaceOnUse" id="clipPath82">
                <path d="M277 365 L421 365 L421 382 L277 382 L277 365 Z"/>
            </clipPath>
            <clipPath clipPathUnits="userSpaceOnUse" id="clipPath83">
                <path d="M283 382 L414 382 L414 399 L283 399 L283 382 Z"/>
            </clipPath>
            <clipPath clipPathUnits="userSpaceOnUse" id="clipPath84">
                <path d="M272 397 L426 397 L426 409 L272 409 L272 397 Z"/>
            </clipPath>
            <clipPath clipPathUnits="userSpaceOnUse" id="clipPath85">
                <path d="M272 407 L426 407 L426 419 L272 419 L272 407 Z"/>
            </clipPath>
            <clipPath clipPathUnits="userSpaceOnUse" id="clipPath86">
                <path d="M453 363 L597 363 L597 421 L453 421 L453 363 Z"/>
            </clipPath>
            <clipPath clipPathUnits="userSpaceOnUse" id="clipPath87">
                <path d="M478 365 L571 365 L571 382 L478 382 L478 365 Z"/>
            </clipPath>
            <clipPath clipPathUnits="userSpaceOnUse" id="clipPath88">
                <path d="M459 382 L590 382 L590 399 L459 399 L459 382 Z"/>
            </clipPath>
            <clipPath clipPathUnits="userSpaceOnUse" id="clipPath89">
                <path d="M455 397 L595 397 L595 409 L455 409 L455 397 Z"/>
            </clipPath>
            <clipPath clipPathUnits="userSpaceOnUse" id="clipPath90">
                <path d="M455 407 L595 407 L595 419 L455 419 L455 407 Z"/>
            </clipPath>
            <clipPath clipPathUnits="userSpaceOnUse" id="clipPath91">
                <path d="M619 95 L890 95 L890 156 L619 156 L619 95 Z"/>
            </clipPath>
            <clipPath clipPathUnits="userSpaceOnUse" id="clipPath92">
                <path d="M622 106 L874 106 L874 153 L622 153 L622 106 Z"/>
            </clipPath>
            <clipPath clipPathUnits="userSpaceOnUse" id="clipPath93">
                <path d="M568 239 L756 239 L756 317 L568 317 L568 239 Z"/>
            </clipPath>
            <clipPath clipPathUnits="userSpaceOnUse" id="clipPath94">
                <path d="M633 253 L687 253 L687 270 L633 270 L633 253 Z"/>
            </clipPath>
            <clipPath clipPathUnits="userSpaceOnUse" id="clipPath95">
                <path d="M681 272 L694 272 L694 285 L681 285 L681 272 Z"/>
            </clipPath>
            <clipPath clipPathUnits="userSpaceOnUse" id="clipPath96">
                <path d="M153 276 L348 276 L348 380 L153 380 L153 276 Z"/>
            </clipPath>
            <clipPath clipPathUnits="userSpaceOnUse" id="clipPath97">
                <path d="M320 289 L335 289 L335 306 L320 306 L320 289 Z"/>
            </clipPath>
            <clipPath clipPathUnits="userSpaceOnUse" id="clipPath98">
                <path d="M307 276 L364 276 L364 380 L307 380 L307 276 Z"/>
            </clipPath>
            <clipPath clipPathUnits="userSpaceOnUse" id="clipPath99">
                <path d="M307 276 L540 276 L540 380 L307 380 L307 276 Z"/>
            </clipPath>
            <clipPath clipPathUnits="userSpaceOnUse" id="clipPath100">
                <path d="M184 143 L462 143 L462 248 L184 248 L184 143 Z"/>
            </clipPath>
            <clipPath clipPathUnits="userSpaceOnUse" id="clipPath101">
                <path d="M332 204 L418 204 L418 221 L332 221 L332 204 Z"/>
            </clipPath>
            <clipPath clipPathUnits="userSpaceOnUse" id="clipPath102">
                <path d="M289 204 L314 204 L314 221 L289 221 L289 204 Z"/>
            </clipPath>
            <clipPath clipPathUnits="userSpaceOnUse" id="clipPath103">
                <path d="M317 156 L330 156 L330 179 L317 179 L317 156 Z"/>
            </clipPath>
            <clipPath clipPathUnits="userSpaceOnUse" id="clipPath104">
                <path d="M146 143 L187 143 L187 245 L146 245 L146 143 Z"/>
            </clipPath>
            <clipPath clipPathUnits="userSpaceOnUse" id="clipPath105">
                <path d="M159 215 L174 215 L174 232 L159 232 L159 215 Z"/>
            </clipPath>
            <clipPath clipPathUnits="userSpaceOnUse" id="clipPath106">
                <path d="M575 110 L635 110 L635 139 L575 139 L575 110 Z"/>
            </clipPath>
            <clipPath clipPathUnits="userSpaceOnUse" id="clipPath107">
                <path d="M562 485 L707 485 L707 514 L562 514 L562 485 Z"/>
            </clipPath>
        </defs>
        <g font-size="11" fill="white" stroke-linejoin="round"
            stroke="white" stroke-width="0" stroke-miterlimit="0">
            <rect x="0" y="0" clip-path="url(#clipPath1)" width="1148"
                height="800" stroke="none"/>
        </g>
        <g stroke-width="0.1" font-size="11" stroke-linecap="butt">
            <line clip-path="url(#clipPath1)" fill="none" x1="1"
                x2="125" y1="29" y2="29"/>
            <line clip-path="url(#clipPath1)" fill="none" x1="125"
                x2="132" y1="29" y2="15"/>
            <line clip-path="url(#clipPath1)" fill="none" x1="132"
                x2="132" y1="15" y2="1"/>
            <text x="6" y="18" clip-path="url(#clipPath2)" stroke="none"
                font-weight="bold" xml:space="preserve">package </text>
            <text font-size="13" x="66" y="19"
                clip-path="url(#clipPath3)" stroke="none" xml:space="preserve">scenario</text>
            <rect x="58" y="230" clip-path="url(#clipPath4)"
                fill="rgb(244,242,212)" width="534" height="61" stroke="none"/>
            <text x="282" y="243" clip-path="url(#clipPath5)"
                fill="rgb(110,44,18)" stroke="none" xml:space="preserve">&lt;&lt;interface&gt;&gt;</text>
            <text x="260" y="258" clip-path="url(#clipPath6)"
                fill="rgb(110,44,18)" stroke="none" font-weight="bold" xml:space="preserve">ScenarioComponent</text>
            <line clip-path="url(#clipPath7)" fill="none" x1="60"
                x2="590" y1="260" y2="260" stroke="rgb(110,44,18)"/>
            <text font-size="13" x="61" y="286"
                clip-path="url(#clipPath8)" stroke="none" xml:space="preserve">+</text>
            <text font-size="13" x="74" y="286"
                clip-path="url(#clipPath9)" stroke="none" xml:space="preserve">updateStates</text>
            <text font-size="13" x="163" y="286"
                clip-path="url(#clipPath10)" stroke="none" xml:space="preserve">(originals : ScenarioState, target : AbsoluteDate) : ScenarioState</text>
            <line clip-path="url(#clipPath11)" fill="none" x1="60"
                x2="590" y1="270" y2="270" stroke="rgb(110,44,18)"/>
            <rect x="58" y="230" clip-path="url(#clipPath4)" fill="none"
                width="533" height="60" stroke="rgb(110,44,18)" stroke-width="1.1"/>
            <rect x="55" y="92" clip-path="url(#clipPath12)"
                fill="rgb(237,247,200)" width="534" height="65"
                stroke="none" stroke-width="1.1"/>
        </g>
        <g font-size="13" stroke-linecap="butt" fill="rgb(106,88,75)"
            stroke="rgb(106,88,75)" font-weight="bold" stroke-width="1.1">
            <text xml:space="preserve" x="290" y="107"
                clip-path="url(#clipPath13)" stroke="none">Scenario</text>
            <line clip-path="url(#clipPath14)" fill="none" x1="57"
                x2="587" y1="109" y2="109" stroke-width="0.1"/>
        </g>
        <g stroke-width="0.1" font-size="13" stroke-linecap="butt">
            <text xml:space="preserve" x="58" y="135"
                clip-path="url(#clipPath15)" stroke="none">+</text>
            <text xml:space="preserve" x="71" y="135"
                clip-path="url(#clipPath16)" stroke="none">addComponent</text>
            <text xml:space="preserve" x="172" y="135"
                clip-path="url(#clipPath17)" stroke="none">(component : ScenarioComponent)</text>
            <text xml:space="preserve" x="58" y="152"
                clip-path="url(#clipPath18)" stroke="none">+</text>
            <text xml:space="preserve" x="71" y="152"
                clip-path="url(#clipPath19)" stroke="none">updateStates</text>
            <text xml:space="preserve" x="160" y="152"
                clip-path="url(#clipPath20)" stroke="none">(originals : ScenarioState, target : AbsoluteDate) : ScenarioState</text>
            <line clip-path="url(#clipPath21)" fill="none" x1="57"
                x2="587" y1="119" y2="119" stroke="rgb(106,88,75)"/>
        </g>
        <g fill="rgb(106,88,75)" stroke-width="1.1" font-size="11"
            stroke-linecap="butt" stroke="rgb(106,88,75)">
            <rect x="55" y="92" clip-path="url(#clipPath12)" fill="none"
                width="533" height="64"/>
            <rect x="692" y="222" clip-path="url(#clipPath22)"
                fill="rgb(237,247,200)" width="342" height="303" stroke="none"/>
            <text font-size="13" x="812" y="237"
                clip-path="url(#clipPath23)" stroke="none"
                font-weight="bold" xml:space="preserve">ScenarioState</text>
            <line clip-path="url(#clipPath24)" fill="none" x1="694"
                x2="1032" y1="239" y2="239" stroke-width="0.1"/>
        </g>
        <g stroke-width="0.1" font-size="13" stroke-linecap="butt">
            <text xml:space="preserve" x="695" y="265"
                clip-path="url(#clipPath25)" stroke="none">+</text>
            <text xml:space="preserve" x="708" y="265"
                clip-path="url(#clipPath26)" stroke="none">getCycleNumber</text>
            <text xml:space="preserve" x="817" y="265"
                clip-path="url(#clipPath27)" stroke="none">() : int</text>
            <text xml:space="preserve" x="695" y="282"
                clip-path="url(#clipPath28)" stroke="none">+</text>
            <text xml:space="preserve" x="708" y="282"
                clip-path="url(#clipPath29)" stroke="none">getRealStartState</text>
            <text xml:space="preserve" x="824" y="282"
                clip-path="url(#clipPath30)" stroke="none">() : SpacecraftState</text>
            <text xml:space="preserve" x="695" y="299"
                clip-path="url(#clipPath31)" stroke="none">+</text>
            <text xml:space="preserve" x="708" y="299"
                clip-path="url(#clipPath32)" stroke="none">getEstimatedStartState</text>
            <text xml:space="preserve" x="863" y="299"
                clip-path="url(#clipPath33)" stroke="none">() : SpacecraftState</text>
            <text xml:space="preserve" x="695" y="316"
                clip-path="url(#clipPath34)" stroke="none">+</text>
            <text xml:space="preserve" x="708" y="316"
                clip-path="url(#clipPath35)" stroke="none">getRealEndState</text>
            <text xml:space="preserve" x="816" y="316"
                clip-path="url(#clipPath36)" stroke="none">() : SpacecraftState</text>
            <text xml:space="preserve" x="695" y="333"
                clip-path="url(#clipPath37)" stroke="none">+</text>
            <text xml:space="preserve" x="708" y="333"
                clip-path="url(#clipPath38)" stroke="none">getTheoreticalManeuvers</text>
            <text xml:space="preserve" x="871" y="333"
                clip-path="url(#clipPath39)" stroke="none">() : List</text>
            <text xml:space="preserve" x="695" y="350"
                clip-path="url(#clipPath40)" stroke="none">+</text>
            <text xml:space="preserve" x="708" y="350"
                clip-path="url(#clipPath41)" stroke="none">getPerformedManeuvers</text>
            <text xml:space="preserve" x="868" y="350"
                clip-path="url(#clipPath42)" stroke="none">() : List</text>
            <text xml:space="preserve" x="695" y="367"
                clip-path="url(#clipPath43)" stroke="none">+</text>
            <text xml:space="preserve" x="708" y="367"
                clip-path="url(#clipPath44)" stroke="none">getInPlane</text>
            <text xml:space="preserve" x="777" y="367"
                clip-path="url(#clipPath45)" stroke="none">() : int</text>
            <text xml:space="preserve" x="695" y="384"
                clip-path="url(#clipPath46)" stroke="none">+</text>
            <text xml:space="preserve" x="708" y="384"
                clip-path="url(#clipPath47)" stroke="none">getInPlaneDV</text>
            <text xml:space="preserve" x="796" y="384"
                clip-path="url(#clipPath48)" stroke="none">() : double</text>
            <text xml:space="preserve" x="695" y="401"
                clip-path="url(#clipPath49)" stroke="none">+</text>
            <text xml:space="preserve" x="708" y="401"
                clip-path="url(#clipPath50)" stroke="none">getOutOfPlane</text>
            <text xml:space="preserve" x="803" y="401"
                clip-path="url(#clipPath51)" stroke="none">() : int</text>
            <text xml:space="preserve" x="695" y="418"
                clip-path="url(#clipPath52)" stroke="none">+</text>
            <text xml:space="preserve" x="708" y="418"
                clip-path="url(#clipPath53)" stroke="none">getOutOfPlaneDV</text>
            <text xml:space="preserve" x="822" y="418"
                clip-path="url(#clipPath54)" stroke="none">() : double</text>
            <text xml:space="preserve" x="695" y="435"
                clip-path="url(#clipPath55)" stroke="none">+</text>
            <text xml:space="preserve" x="708" y="435"
                clip-path="url(#clipPath56)" stroke="none">getMassConsumption</text>
            <text xml:space="preserve" x="849" y="435"
                clip-path="url(#clipPath57)" stroke="none">() : double</text>
            <text xml:space="preserve" x="695" y="452"
                clip-path="url(#clipPath58)" stroke="none">+</text>
            <text xml:space="preserve" x="708" y="452"
                clip-path="url(#clipPath59)" stroke="none">getAscendingNodeDate</text>
            <text xml:space="preserve" x="862" y="452"
                clip-path="url(#clipPath60)" stroke="none">() : AbsoluteDate</text>
            <text xml:space="preserve" x="695" y="469"
                clip-path="url(#clipPath61)" stroke="none">+</text>
            <text xml:space="preserve" x="708" y="469"
                clip-path="url(#clipPath62)" stroke="none">getAscendingNodeSolarTime</text>
            <text xml:space="preserve" x="895" y="469"
                clip-path="url(#clipPath63)" stroke="none">() : double</text>
            <text xml:space="preserve" x="695" y="486"
                clip-path="url(#clipPath64)" stroke="none">+</text>
            <text xml:space="preserve" x="708" y="486"
                clip-path="url(#clipPath65)" stroke="none">getDescendingNodeDate</text>
            <text xml:space="preserve" x="871" y="486"
                clip-path="url(#clipPath66)" stroke="none">() : AbsoluteDate</text>
            <text xml:space="preserve" x="695" y="503"
                clip-path="url(#clipPath67)" stroke="none">+</text>
            <text xml:space="preserve" x="708" y="503"
                clip-path="url(#clipPath68)" stroke="none">getDescendingNodeSolarTime</text>
            <text xml:space="preserve" x="904" y="503"
                clip-path="url(#clipPath69)" stroke="none">() : double</text>
            <text xml:space="preserve" x="695" y="520"
                clip-path="url(#clipPath70)" stroke="none">+</text>
            <text xml:space="preserve" x="708" y="520"
                clip-path="url(#clipPath71)" stroke="none">getEphemeris</text>
            <text xml:space="preserve" x="799" y="520"
                clip-path="url(#clipPath72)" stroke="none">() : BoundedPropagator</text>
            <line clip-path="url(#clipPath73)" fill="none" x1="694"
                x2="1032" y1="249" y2="249" stroke="rgb(106,88,75)"/>
        </g>
        <g fill="rgb(106,88,75)" stroke-width="1.1" font-size="11"
            stroke-linecap="butt" stroke="rgb(106,88,75)">
            <rect x="692" y="222" clip-path="url(#clipPath22)"
                fill="none" width="341" height="302"/>
            <rect x="109" y="364" clip-path="url(#clipPath74)"
                fill="rgb(237,247,200)" width="117" height="56" stroke="none"/>
            <text font-size="13" x="123" y="379"
                clip-path="url(#clipPath75)" stroke="none"
                font-weight="bold" xml:space="preserve">ControlLoop</text>
            <text font-size="13" x="116" y="396"
                clip-path="url(#clipPath76)" stroke="none"
                font-weight="bold" xml:space="preserve">(from control)</text>
            <line clip-path="url(#clipPath77)" fill="none" x1="111"
                x2="224" y1="398" y2="398" stroke-width="0.1"/>
            <line clip-path="url(#clipPath78)" fill="none" x1="111"
                x2="224" y1="408" y2="408" stroke-width="0.1"/>
            <rect x="109" y="364" clip-path="url(#clipPath74)"
                fill="none" width="116" height="55"/>
            <polygon fill="rgb(243,239,235)"
                clip-path="url(#clipPath79)"
                points=" 294 470 566 470 575 480 575 564 294 564" stroke="none"/>
        </g>
        <g fill="rgb(105,22,22)" stroke-width="0.1" font-size="13"
            stroke-linecap="butt" stroke="rgb(105,22,22)">
            <polygon fill="none" clip-path="url(#clipPath79)" points=" 565 470 565 480 575 480 565 470 294 470 294 564 575 564 575 480"/>
            <text xml:space="preserve" x="297" y="501"
                clip-path="url(#clipPath80)" stroke="none">scenario state contains all the properties</text>
            <text xml:space="preserve" x="297" y="516"
                clip-path="url(#clipPath80)" stroke="none">of current cycle (orbit, maneuvers ...)</text>
            <text xml:space="preserve" x="297" y="531"
                clip-path="url(#clipPath80)" stroke="none">It is updated by the updateStates</text>
            <text xml:space="preserve" x="297" y="546"
                clip-path="url(#clipPath80)" stroke="none">methods of all scenario components.</text>
            <rect x="271" y="364" clip-path="url(#clipPath81)"
                fill="rgb(237,247,200)" width="156" height="56" stroke="none"/>
            <text x="278" y="379" clip-path="url(#clipPath82)"
                fill="rgb(106,88,75)" stroke="none" font-weight="bold" xml:space="preserve">OrbitDetermination</text>
            <text x="284" y="396" clip-path="url(#clipPath83)"
                fill="rgb(106,88,75)" stroke="none" font-weight="bold" xml:space="preserve">(from realization)</text>
            <line clip-path="url(#clipPath84)" fill="none" x1="273"
                x2="425" y1="398" y2="398" stroke="rgb(106,88,75)"/>
            <line clip-path="url(#clipPath85)" fill="none" x1="273"
                x2="425" y1="408" y2="408" stroke="rgb(106,88,75)"/>
        </g>
        <g fill="rgb(106,88,75)" stroke-width="1.1" font-size="11"
            stroke-linecap="butt" stroke="rgb(106,88,75)">
            <rect x="271" y="364" clip-path="url(#clipPath81)"
                fill="none" width="155" height="55"/>
            <rect x="454" y="364" clip-path="url(#clipPath86)"
                fill="rgb(237,247,200)" width="142" height="56" stroke="none"/>
            <text font-size="13" x="479" y="379"
                clip-path="url(#clipPath87)" stroke="none"
                font-weight="bold" xml:space="preserve">Propagation</text>
            <text font-size="13" x="460" y="396"
                clip-path="url(#clipPath88)" stroke="none"
                font-weight="bold" xml:space="preserve">(from realization)</text>
            <line clip-path="url(#clipPath89)" fill="none" x1="456"
                x2="594" y1="398" y2="398" stroke-width="0.1"/>
            <line clip-path="url(#clipPath90)" fill="none" x1="456"
                x2="594" y1="408" y2="408" stroke-width="0.1"/>
            <rect x="454" y="364" clip-path="url(#clipPath86)"
                fill="none" width="141" height="55"/>
            <polygon fill="rgb(243,239,235)"
                clip-path="url(#clipPath91)"
                points=" 620 96 879 96 888 106 888 154 620 154" stroke="none"/>
        </g>
        <g fill="rgb(105,22,22)" stroke-width="0.1" font-size="13"
            stroke-linecap="butt" stroke="rgb(105,22,22)">
            <polygon fill="none" clip-path="url(#clipPath91)" points=" 878 96 878 106 888 106 878 96 620 96 620 154 888 154 888 106"/>
            <text xml:space="preserve" x="623" y="120"
                clip-path="url(#clipPath92)" stroke="none">as Scenario implements</text>
            <text xml:space="preserve" x="623" y="135"
                clip-path="url(#clipPath92)" stroke="none">ScenarioComponent by itself, recursive</text>
            <text xml:space="preserve" x="623" y="150"
                clip-path="url(#clipPath92)" stroke="none">scenario building is possible</text>
        </g>
        <g stroke-width="1.1" font-size="11" stroke-linecap="butt">
            <rect x="0" y="0" clip-path="url(#clipPath1)" fill="none"
                width="1147" height="799"/>
            <line clip-path="url(#clipPath93)" fill="none" x1="592"
                x2="692" y1="278" y2="278" stroke="rgb(153,15,15)"/>
            <text font-size="13" x="634" y="267"
                clip-path="url(#clipPath94)" fill="rgb(153,15,15)"
                stroke="none" xml:space="preserve">updates</text>
            <line clip-path="url(#clipPath95)" fill="none" x1="682"
                x2="692" y1="283" y2="278" stroke="rgb(153,15,15)"/>
            <line clip-path="url(#clipPath95)" fill="none" x1="692"
                x2="682" y1="278" y2="273" stroke="rgb(153,15,15)"/>
            <line clip-path="url(#clipPath96)" fill="none" x1="167"
                x2="167" y1="365" y2="323" stroke-dasharray="8,7" stroke="rgb(110,44,18)"/>
            <line clip-path="url(#clipPath96)" fill="none" x1="167"
                x2="327" y1="323" y2="323" stroke-dasharray="8,7" stroke="rgb(110,44,18)"/>
            <line clip-path="url(#clipPath96)" fill="none" x1="327"
                x2="327" y1="323" y2="290" stroke-dasharray="8,7" stroke="rgb(110,44,18)"/>
            <polygon fill="white" stroke-dasharray="8,7"
                clip-path="url(#clipPath97)"
                points=" 327 290 333 304 321 304" stroke="none"/>
            <polygon fill="none" clip-path="url(#clipPath97)"
                points=" 327 290 333 304 321 304" stroke="rgb(110,44,18)"/>
            <line clip-path="url(#clipPath98)" fill="none" x1="349"
                x2="349" y1="365" y2="322" stroke-dasharray="8,7" stroke="rgb(110,44,18)"/>
            <line clip-path="url(#clipPath98)" fill="none" x1="349"
                x2="327" y1="322" y2="322" stroke-dasharray="8,7" stroke="rgb(110,44,18)"/>
            <line clip-path="url(#clipPath98)" fill="none" x1="327"
                x2="327" y1="322" y2="290" stroke-dasharray="8,7" stroke="rgb(110,44,18)"/>
            <polygon fill="white" stroke-dasharray="8,7"
                clip-path="url(#clipPath97)"
                points=" 327 290 333 304 321 304" stroke="none"/>
            <polygon fill="none" clip-path="url(#clipPath97)"
                points=" 327 290 333 304 321 304" stroke="rgb(110,44,18)"/>
            <line clip-path="url(#clipPath99)" fill="none" x1="525"
                x2="525" y1="365" y2="322" stroke-dasharray="8,7" stroke="rgb(110,44,18)"/>
            <line clip-path="url(#clipPath99)" fill="none" x1="525"
                x2="327" y1="322" y2="322" stroke-dasharray="8,7" stroke="rgb(110,44,18)"/>
            <line clip-path="url(#clipPath99)" fill="none" x1="327"
                x2="327" y1="322" y2="290" stroke-dasharray="8,7" stroke="rgb(110,44,18)"/>
            <polygon fill="white" stroke-dasharray="8,7"
                clip-path="url(#clipPath97)"
                points=" 327 290 333 304 321 304" stroke="none"/>
            <polygon fill="none" clip-path="url(#clipPath97)"
                points=" 327 290 333 304 321 304" stroke="rgb(110,44,18)"/>
            <line clip-path="url(#clipPath100)" fill="none" x1="323"
                x2="323" y1="157" y2="230" stroke="rgb(153,15,15)"/>
            <text font-size="13" x="333" y="218"
                clip-path="url(#clipPath101)" fill="rgb(153,15,15)"
                stroke="none" xml:space="preserve">+component</text>
            <text font-size="13" x="290" y="218"
                clip-path="url(#clipPath102)" fill="rgb(153,15,15)"
                stroke="none" xml:space="preserve">1..*</text>
            <polygon fill="white" clip-path="url(#clipPath103)"
                points=" 323 157 328 167 323 177 318 167" stroke="none"/>
            <polygon fill="none" clip-path="url(#clipPath103)"
                points=" 323 157 328 167 323 177 318 167" stroke="rgb(153,15,15)"/>
            <line clip-path="url(#clipPath104)" fill="none" x1="166"
                x2="166" y1="157" y2="230" stroke-dasharray="8,7" stroke="rgb(110,44,18)"/>
            <polygon fill="white" stroke-dasharray="8,7"
                clip-path="url(#clipPath105)"
                points=" 166 230 160 216 172 216" stroke="none"/>
            <polygon fill="none" clip-path="url(#clipPath105)"
                points=" 166 230 160 216 172 216" stroke="rgb(110,44,18)"/>
        </g>
        <g font-size="13" stroke-linecap="butt" fill="rgb(105,22,22)"
            stroke-dasharray="8,7" stroke="rgb(105,22,22)" stroke-width="1.1">
            <line clip-path="url(#clipPath106)" fill="none" x1="620"
                x2="589" y1="124" y2="124"/>
            <line clip-path="url(#clipPath107)" fill="none" x1="576"
                x2="692" y1="499" y2="499"/>
        </g>
    </g>
</svg>
