<?xml version="1.0" encoding="UTF-8"?>
<svg stroke-dasharray="none" shape-rendering="auto"
    font-family="'Dialog'" width="1000" text-rendering="auto"
    fill-opacity="1" color-interpolation="auto" color-rendering="auto"
    font-size="12" fill="black" stroke="black" image-rendering="auto"
    stroke-miterlimit="10" stroke-linecap="square"
    stroke-linejoin="miter" font-style="normal" height="455"
    stroke-width="1" stroke-dashoffset="0" font-weight="normal" stroke-opacity="1">
    <!--Generated by the Batik Graphics2D SVG Generator-->
    <defs id="genericDefs"/>
    <g>
        <defs id="defs1">
            <clipPath clipPathUnits="userSpaceOnUse" id="clipPath1">
                <path d="M-1 -1 L1000 -1 L1000 455 L-1 455 L-1 -1 Z"/>
            </clipPath>
            <clipPath clipPathUnits="userSpaceOnUse" id="clipPath2">
                <path d="M5 6 L26 6 L26 21 L5 21 L5 6 Z"/>
            </clipPath>
            <clipPath clipPathUnits="userSpaceOnUse" id="clipPath3">
                <path d="M26 5 L90 5 L90 22 L26 22 L26 5 Z"/>
            </clipPath>
            <clipPath clipPathUnits="userSpaceOnUse" id="clipPath4">
                <path d="M27 68 L121 68 L121 440 L27 440 L27 68 Z"/>
            </clipPath>
            <clipPath clipPathUnits="userSpaceOnUse" id="clipPath5">
                <path d="M27 68 L121 68 L121 98 L27 98 L27 68 Z"/>
            </clipPath>
            <clipPath clipPathUnits="userSpaceOnUse" id="clipPath6">
                <path d="M38 74 L96 74 L96 91 L38 91 L38 74 Z"/>
            </clipPath>
            <clipPath clipPathUnits="userSpaceOnUse" id="clipPath7">
                <path d="M96 74 L110 74 L110 91 L96 91 L96 74 Z"/>
            </clipPath>
            <clipPath clipPathUnits="userSpaceOnUse" id="clipPath8">
                <path d="M38 74 L110 74 L110 92 L38 92 L38 74 Z"/>
            </clipPath>
            <clipPath clipPathUnits="userSpaceOnUse" id="clipPath9">
                <path d="M63 118 L85 118 L85 420 L63 420 L63 118 Z"/>
            </clipPath>
            <clipPath clipPathUnits="userSpaceOnUse" id="clipPath10">
                <path d="M140 68 L313 68 L313 445 L140 445 L140 68 Z"/>
            </clipPath>
            <clipPath clipPathUnits="userSpaceOnUse" id="clipPath11">
                <path d="M140 68 L313 68 L313 98 L140 98 L140 68 Z"/>
            </clipPath>
            <clipPath clipPathUnits="userSpaceOnUse" id="clipPath12">
                <path d="M147 74 L292 74 L292 91 L147 91 L147 74 Z"/>
            </clipPath>
            <clipPath clipPathUnits="userSpaceOnUse" id="clipPath13">
                <path d="M292 74 L306 74 L306 91 L292 91 L292 74 Z"/>
            </clipPath>
            <clipPath clipPathUnits="userSpaceOnUse" id="clipPath14">
                <path d="M147 74 L306 74 L306 92 L147 92 L147 74 Z"/>
            </clipPath>
            <clipPath clipPathUnits="userSpaceOnUse" id="clipPath15">
                <path d="M215 129 L237 129 L237 253 L215 253 L215 129 Z"/>
            </clipPath>
            <clipPath clipPathUnits="userSpaceOnUse" id="clipPath16">
                <path d="M330 68 L511 68 L511 440 L330 440 L330 68 Z"/>
            </clipPath>
            <clipPath clipPathUnits="userSpaceOnUse" id="clipPath17">
                <path d="M330 68 L511 68 L511 98 L330 98 L330 68 Z"/>
            </clipPath>
            <clipPath clipPathUnits="userSpaceOnUse" id="clipPath18">
                <path d="M341 74 L486 74 L486 91 L341 91 L341 74 Z"/>
            </clipPath>
            <clipPath clipPathUnits="userSpaceOnUse" id="clipPath19">
                <path d="M486 74 L500 74 L500 91 L486 91 L486 74 Z"/>
            </clipPath>
            <clipPath clipPathUnits="userSpaceOnUse" id="clipPath20">
                <path d="M341 74 L500 74 L500 92 L341 92 L341 74 Z"/>
            </clipPath>
            <clipPath clipPathUnits="userSpaceOnUse" id="clipPath21">
                <path d="M409 263 L431 263 L431 401 L409 401 L409 263 Z"/>
            </clipPath>
            <clipPath clipPathUnits="userSpaceOnUse" id="clipPath22">
                <path d="M525 68 L666 68 L666 265 L525 265 L525 68 Z"/>
            </clipPath>
            <clipPath clipPathUnits="userSpaceOnUse" id="clipPath23">
                <path d="M525 68 L666 68 L666 98 L525 98 L525 68 Z"/>
            </clipPath>
            <clipPath clipPathUnits="userSpaceOnUse" id="clipPath24">
                <path d="M536 74 L641 74 L641 91 L536 91 L536 74 Z"/>
            </clipPath>
            <clipPath clipPathUnits="userSpaceOnUse" id="clipPath25">
                <path d="M641 74 L655 74 L655 91 L641 91 L641 74 Z"/>
            </clipPath>
            <clipPath clipPathUnits="userSpaceOnUse" id="clipPath26">
                <path d="M536 74 L655 74 L655 92 L536 92 L536 74 Z"/>
            </clipPath>
            <clipPath clipPathUnits="userSpaceOnUse" id="clipPath27">
                <path d="M584 143 L606 143 L606 182 L584 182 L584 143 Z"/>
            </clipPath>
            <clipPath clipPathUnits="userSpaceOnUse" id="clipPath28">
                <path d="M584 195 L606 195 L606 240 L584 240 L584 195 Z"/>
            </clipPath>
            <clipPath clipPathUnits="userSpaceOnUse" id="clipPath29">
                <path d="M679 68 L820 68 L820 389 L679 389 L679 68 Z"/>
            </clipPath>
            <clipPath clipPathUnits="userSpaceOnUse" id="clipPath30">
                <path d="M679 68 L820 68 L820 98 L679 98 L679 68 Z"/>
            </clipPath>
            <clipPath clipPathUnits="userSpaceOnUse" id="clipPath31">
                <path d="M690 74 L795 74 L795 91 L690 91 L690 74 Z"/>
            </clipPath>
            <clipPath clipPathUnits="userSpaceOnUse" id="clipPath32">
                <path d="M795 74 L809 74 L809 91 L795 91 L795 74 Z"/>
            </clipPath>
            <clipPath clipPathUnits="userSpaceOnUse" id="clipPath33">
                <path d="M690 74 L809 74 L809 92 L690 92 L690 74 Z"/>
            </clipPath>
            <clipPath clipPathUnits="userSpaceOnUse" id="clipPath34">
                <path d="M738 191 L760 191 L760 230 L738 230 L738 191 Z"/>
            </clipPath>
            <clipPath clipPathUnits="userSpaceOnUse" id="clipPath35">
                <path d="M738 268 L760 268 L760 310 L738 310 L738 268 Z"/>
            </clipPath>
            <clipPath clipPathUnits="userSpaceOnUse" id="clipPath36">
                <path d="M738 325 L760 325 L760 377 L738 377 L738 325 Z"/>
            </clipPath>
            <clipPath clipPathUnits="userSpaceOnUse" id="clipPath37">
                <path d="M828 68 L969 68 L969 428 L828 428 L828 68 Z"/>
            </clipPath>
            <clipPath clipPathUnits="userSpaceOnUse" id="clipPath38">
                <path d="M828 68 L969 68 L969 98 L828 98 L828 68 Z"/>
            </clipPath>
            <clipPath clipPathUnits="userSpaceOnUse" id="clipPath39">
                <path d="M839 74 L944 74 L944 91 L839 91 L839 74 Z"/>
            </clipPath>
            <clipPath clipPathUnits="userSpaceOnUse" id="clipPath40">
                <path d="M944 74 L958 74 L958 91 L944 91 L944 74 Z"/>
            </clipPath>
            <clipPath clipPathUnits="userSpaceOnUse" id="clipPath41">
                <path d="M839 74 L958 74 L958 92 L839 92 L839 74 Z"/>
            </clipPath>
            <clipPath clipPathUnits="userSpaceOnUse" id="clipPath42">
                <path d="M887 344 L909 344 L909 401 L887 401 L887 344 Z"/>
            </clipPath>
            <clipPath clipPathUnits="userSpaceOnUse" id="clipPath43">
                <path d="M70 108 L231 108 L231 160 L70 160 L70 108 Z"/>
            </clipPath>
            <clipPath clipPathUnits="userSpaceOnUse" id="clipPath44">
                <path d="M120 121 L209 121 L209 138 L120 138 L120 121 Z"/>
            </clipPath>
            <clipPath clipPathUnits="userSpaceOnUse" id="clipPath45">
                <path d="M205 134 L218 134 L218 147 L205 147 L205 134 Z"/>
            </clipPath>
            <clipPath clipPathUnits="userSpaceOnUse" id="clipPath46">
                <path d="M70 237 L429 237 L429 293 L70 293 L70 237 Z"/>
            </clipPath>
            <clipPath clipPathUnits="userSpaceOnUse" id="clipPath47">
                <path d="M327 250 L416 250 L416 267 L327 267 L327 250 Z"/>
            </clipPath>
            <clipPath clipPathUnits="userSpaceOnUse" id="clipPath48">
                <path d="M399 267 L412 267 L412 280 L399 280 L399 267 Z"/>
            </clipPath>
            <clipPath clipPathUnits="userSpaceOnUse" id="clipPath49">
                <path d="M70 213 L231 213 L231 264 L70 264 L70 213 Z"/>
            </clipPath>
            <clipPath clipPathUnits="userSpaceOnUse" id="clipPath50">
                <path d="M95 226 L193 226 L193 243 L95 243 L95 226 Z"/>
            </clipPath>
            <clipPath clipPathUnits="userSpaceOnUse" id="clipPath51">
                <path d="M83 238 L96 238 L96 251 L83 251 L83 238 Z"/>
            </clipPath>
            <clipPath clipPathUnits="userSpaceOnUse" id="clipPath52">
                <path d="M70 353 L425 353 L425 409 L70 409 L70 353 Z"/>
            </clipPath>
            <clipPath clipPathUnits="userSpaceOnUse" id="clipPath53">
                <path d="M89 366 L187 366 L187 383 L89 383 L89 366 Z"/>
            </clipPath>
            <clipPath clipPathUnits="userSpaceOnUse" id="clipPath54">
                <path d="M83 383 L96 383 L96 396 L83 396 L83 383 Z"/>
            </clipPath>
            <clipPath clipPathUnits="userSpaceOnUse" id="clipPath55">
                <path d="M222 118 L600 118 L600 173 L222 173 L222 118 Z"/>
            </clipPath>
            <clipPath clipPathUnits="userSpaceOnUse" id="clipPath56">
                <path d="M506 131 L582 131 L582 148 L506 148 L506 131 Z"/>
            </clipPath>
            <clipPath clipPathUnits="userSpaceOnUse" id="clipPath57">
                <path d="M574 147 L587 147 L587 160 L574 160 L574 147 Z"/>
            </clipPath>
            <clipPath clipPathUnits="userSpaceOnUse" id="clipPath58">
                <path d="M591 169 L754 169 L754 227 L591 227 L591 169 Z"/>
            </clipPath>
            <clipPath clipPathUnits="userSpaceOnUse" id="clipPath59">
                <path d="M618 182 L718 182 L718 199 L618 199 L618 182 Z"/>
            </clipPath>
            <clipPath clipPathUnits="userSpaceOnUse" id="clipPath60">
                <path d="M728 201 L741 201 L741 214 L728 214 L728 201 Z"/>
            </clipPath>
            <clipPath clipPathUnits="userSpaceOnUse" id="clipPath61">
                <path d="M222 172 L600 172 L600 225 L222 225 L222 172 Z"/>
            </clipPath>
            <clipPath clipPathUnits="userSpaceOnUse" id="clipPath62">
                <path d="M483 185 L583 185 L583 202 L483 202 L483 185 Z"/>
            </clipPath>
            <clipPath clipPathUnits="userSpaceOnUse" id="clipPath63">
                <path d="M574 199 L587 199 L587 212 L574 212 L574 199 Z"/>
            </clipPath>
            <clipPath clipPathUnits="userSpaceOnUse" id="clipPath64">
                <path d="M416 253 L754 253 L754 307 L416 307 L416 253 Z"/>
            </clipPath>
            <clipPath clipPathUnits="userSpaceOnUse" id="clipPath65">
                <path d="M644 266 L720 266 L720 283 L644 283 L644 266 Z"/>
            </clipPath>
            <clipPath clipPathUnits="userSpaceOnUse" id="clipPath66">
                <path d="M728 281 L741 281 L741 294 L728 294 L728 281 Z"/>
            </clipPath>
            <clipPath clipPathUnits="userSpaceOnUse" id="clipPath67">
                <path d="M416 300 L754 300 L754 352 L416 352 L416 300 Z"/>
            </clipPath>
            <clipPath clipPathUnits="userSpaceOnUse" id="clipPath68">
                <path d="M639 313 L739 313 L739 330 L639 330 L639 313 Z"/>
            </clipPath>
            <clipPath clipPathUnits="userSpaceOnUse" id="clipPath69">
                <path d="M728 326 L741 326 L741 339 L728 339 L728 326 Z"/>
            </clipPath>
            <clipPath clipPathUnits="userSpaceOnUse" id="clipPath70">
                <path d="M745 320 L903 320 L903 374 L745 374 L745 320 Z"/>
            </clipPath>
            <clipPath clipPathUnits="userSpaceOnUse" id="clipPath71">
                <path d="M785 333 L885 333 L885 350 L785 350 L785 333 Z"/>
            </clipPath>
            <clipPath clipPathUnits="userSpaceOnUse" id="clipPath72">
                <path d="M877 348 L890 348 L890 361 L877 361 L877 348 Z"/>
            </clipPath>
            <clipPath clipPathUnits="userSpaceOnUse" id="clipPath73">
                <path d="M222 200 L600 200 L600 252 L222 252 L222 200 Z"/>
            </clipPath>
            <clipPath clipPathUnits="userSpaceOnUse" id="clipPath74">
                <path d="M243 213 L337 213 L337 230 L243 230 L243 213 Z"/>
            </clipPath>
            <clipPath clipPathUnits="userSpaceOnUse" id="clipPath75">
                <path d="M235 226 L248 226 L248 239 L235 239 L235 226 Z"/>
            </clipPath>
            <clipPath clipPathUnits="userSpaceOnUse" id="clipPath76">
                <path d="M416 331 L754 331 L754 384 L416 384 L416 331 Z"/>
            </clipPath>
            <clipPath clipPathUnits="userSpaceOnUse" id="clipPath77">
                <path d="M435 344 L529 344 L529 361 L435 361 L435 344 Z"/>
            </clipPath>
            <clipPath clipPathUnits="userSpaceOnUse" id="clipPath78">
                <path d="M429 358 L442 358 L442 371 L429 371 L429 358 Z"/>
            </clipPath>
        </defs>
        <g font-size="11" fill="white" stroke-linejoin="round"
            stroke="white" stroke-width="0" stroke-miterlimit="0">
            <rect x="0" y="0" clip-path="url(#clipPath1)" width="999"
                height="454" stroke="none"/>
        </g>
        <g stroke-width="0.1" font-size="11" stroke-linecap="butt">
            <line clip-path="url(#clipPath1)" fill="none" x1="1" x2="94"
                y1="29" y2="29"/>
            <line clip-path="url(#clipPath1)" fill="none" x1="94"
                x2="101" y1="29" y2="15"/>
            <line clip-path="url(#clipPath1)" fill="none" x1="101"
                x2="101" y1="15" y2="1"/>
            <text x="6" y="18" clip-path="url(#clipPath2)" stroke="none"
                font-weight="bold" xml:space="preserve">sd </text>
            <text font-size="13" x="27" y="19"
                clip-path="url(#clipPath3)" stroke="none" xml:space="preserve">scenario1</text>
            <line clip-path="url(#clipPath4)" fill="none" x1="74"
                x2="74" y1="97" y2="439" stroke-dasharray="10,2" stroke="rgb(106,88,75)"/>
            <rect x="28" y="69" clip-path="url(#clipPath5)"
                fill="rgb(237,247,200)" width="92"
                stroke-dasharray="10,2" height="28" stroke="none"/>
        </g>
        <g font-size="13" stroke-linecap="butt" fill="rgb(106,88,75)"
            stroke-dasharray="10,2" stroke="rgb(106,88,75)" stroke-width="0.1">
            <text xml:space="preserve" x="39" y="88"
                clip-path="url(#clipPath6)" stroke="none">Scenario</text>
            <text xml:space="preserve" x="97" y="88"
                clip-path="url(#clipPath7)" stroke="none"> : </text>
            <line clip-path="url(#clipPath8)" fill="none" x1="39"
                x2="109" y1="90" y2="90" stroke-dasharray="none" stroke-width="1.1"/>
            <rect x="28" y="69" clip-path="url(#clipPath5)" fill="none"
                width="91" stroke-dasharray="none" height="27" stroke-width="1.1"/>
        </g>
        <g fill="rgb(237,247,200)" stroke-width="1.1" font-size="11"
            stroke-linecap="butt" stroke="rgb(237,247,200)">
            <rect x="64" y="119" clip-path="url(#clipPath9)" width="20"
                height="300" stroke="none"/>
            <rect x="64" y="119" clip-path="url(#clipPath9)" fill="none"
                width="19" height="299" stroke="black"/>
        </g>
        <g font-size="11" stroke-linecap="butt" fill="rgb(110,44,18)"
            stroke-dasharray="10,2" stroke="rgb(110,44,18)" stroke-width="0.1">
            <line clip-path="url(#clipPath10)" fill="none" x1="226"
                x2="226" y1="97" y2="444"/>
            <rect x="141" y="69" clip-path="url(#clipPath11)"
                fill="rgb(244,242,213)" width="171" height="28" stroke="none"/>
            <text font-size="13" x="148" y="88"
                clip-path="url(#clipPath12)" stroke="none" xml:space="preserve">ScenarioComponent 1</text>
            <text font-size="13" x="293" y="88"
                clip-path="url(#clipPath13)" stroke="none" xml:space="preserve"> : </text>
            <line clip-path="url(#clipPath14)" fill="none" x1="148"
                x2="305" y1="90" y2="90" stroke-dasharray="none" stroke-width="1.1"/>
            <rect x="141" y="69" clip-path="url(#clipPath11)"
                fill="none" width="170" stroke-dasharray="none"
                height="27" stroke-width="1.1"/>
        </g>
        <g fill="rgb(244,242,213)" stroke-width="1.1" font-size="11"
            stroke-linecap="butt" stroke="rgb(244,242,213)">
            <rect x="216" y="130" clip-path="url(#clipPath15)"
                width="20" height="122" stroke="none"/>
            <rect x="216" y="130" clip-path="url(#clipPath15)"
                fill="none" width="19" height="121" stroke="black"/>
        </g>
        <g font-size="11" stroke-linecap="butt" fill="rgb(110,44,18)"
            stroke-dasharray="10,2" stroke="rgb(110,44,18)" stroke-width="0.1">
            <line clip-path="url(#clipPath16)" fill="none" x1="420"
                x2="420" y1="97" y2="439"/>
            <rect x="331" y="69" clip-path="url(#clipPath17)"
                fill="rgb(244,242,213)" width="179" height="28" stroke="none"/>
            <text font-size="13" x="342" y="88"
                clip-path="url(#clipPath18)" stroke="none" xml:space="preserve">ScenarioComponent 2</text>
            <text font-size="13" x="487" y="88"
                clip-path="url(#clipPath19)" stroke="none" xml:space="preserve"> : </text>
            <line clip-path="url(#clipPath20)" fill="none" x1="342"
                x2="499" y1="90" y2="90" stroke-dasharray="none" stroke-width="1.1"/>
            <rect x="331" y="69" clip-path="url(#clipPath17)"
                fill="none" width="178" stroke-dasharray="none"
                height="27" stroke-width="1.1"/>
        </g>
        <g fill="rgb(244,242,213)" stroke-width="1.1" font-size="11"
            stroke-linecap="butt" stroke="rgb(244,242,213)">
            <rect x="410" y="264" clip-path="url(#clipPath21)"
                width="20" height="136" stroke="none"/>
            <rect x="410" y="264" clip-path="url(#clipPath21)"
                fill="none" width="19" height="135" stroke="black"/>
        </g>
        <g font-size="11" stroke-linecap="butt" fill="rgb(106,88,75)"
            stroke-dasharray="10,2" stroke="rgb(106,88,75)" stroke-width="0.1">
            <line clip-path="url(#clipPath22)" fill="none" x1="595"
                x2="595" y1="97" y2="264"/>
            <rect x="526" y="69" clip-path="url(#clipPath23)"
                fill="rgb(237,247,200)" width="139" height="28" stroke="none"/>
            <text font-size="13" x="537" y="88"
                clip-path="url(#clipPath24)" stroke="none" xml:space="preserve">ScenarioState 1</text>
            <text font-size="13" x="642" y="88"
                clip-path="url(#clipPath25)" stroke="none" xml:space="preserve"> : </text>
            <line clip-path="url(#clipPath26)" fill="none" x1="537"
                x2="654" y1="90" y2="90" stroke-dasharray="none" stroke-width="1.1"/>
            <rect x="526" y="69" clip-path="url(#clipPath23)"
                fill="none" width="138" stroke-dasharray="none"
                height="27" stroke-width="1.1"/>
        </g>
        <g fill="rgb(237,247,200)" stroke-width="1.1" font-size="11"
            stroke-linecap="butt" stroke="rgb(237,247,200)">
            <rect x="585" y="144" clip-path="url(#clipPath27)"
                width="20" height="37" stroke="none"/>
            <rect x="585" y="144" clip-path="url(#clipPath27)"
                fill="none" width="19" height="36" stroke="black"/>
            <rect x="585" y="196" clip-path="url(#clipPath28)"
                width="20" height="43" stroke="none"/>
            <rect x="585" y="196" clip-path="url(#clipPath28)"
                fill="none" width="19" height="42" stroke="black"/>
        </g>
        <g font-size="11" stroke-linecap="butt" fill="rgb(106,88,75)"
            stroke-dasharray="10,2" stroke="rgb(106,88,75)" stroke-width="0.1">
            <line clip-path="url(#clipPath29)" fill="none" x1="749"
                x2="749" y1="97" y2="388"/>
            <rect x="680" y="69" clip-path="url(#clipPath30)"
                fill="rgb(237,247,200)" width="139" height="28" stroke="none"/>
            <text font-size="13" x="691" y="88"
                clip-path="url(#clipPath31)" stroke="none" xml:space="preserve">ScenarioState 2</text>
            <text font-size="13" x="796" y="88"
                clip-path="url(#clipPath32)" stroke="none" xml:space="preserve"> : </text>
            <line clip-path="url(#clipPath33)" fill="none" x1="691"
                x2="808" y1="90" y2="90" stroke-dasharray="none" stroke-width="1.1"/>
            <rect x="680" y="69" clip-path="url(#clipPath30)"
                fill="none" width="138" stroke-dasharray="none"
                height="27" stroke-width="1.1"/>
        </g>
        <g fill="rgb(237,247,200)" stroke-width="1.1" font-size="11"
            stroke-linecap="butt" stroke="rgb(237,247,200)">
            <rect x="739" y="192" clip-path="url(#clipPath34)"
                width="20" height="37" stroke="none"/>
            <rect x="739" y="192" clip-path="url(#clipPath34)"
                fill="none" width="19" height="36" stroke="black"/>
            <rect x="739" y="269" clip-path="url(#clipPath35)"
                width="20" height="40" stroke="none"/>
            <rect x="739" y="269" clip-path="url(#clipPath35)"
                fill="none" width="19" height="39" stroke="black"/>
            <rect x="739" y="326" clip-path="url(#clipPath36)"
                width="20" height="50" stroke="none"/>
            <rect x="739" y="326" clip-path="url(#clipPath36)"
                fill="none" width="19" height="49" stroke="black"/>
        </g>
        <g font-size="11" stroke-linecap="butt" fill="rgb(106,88,75)"
            stroke-dasharray="10,2" stroke="rgb(106,88,75)" stroke-width="0.1">
            <line clip-path="url(#clipPath37)" fill="none" x1="898"
                x2="898" y1="97" y2="427"/>
            <rect x="829" y="69" clip-path="url(#clipPath38)"
                fill="rgb(237,247,200)" width="139" height="28" stroke="none"/>
            <text font-size="13" x="840" y="88"
                clip-path="url(#clipPath39)" stroke="none" xml:space="preserve">ScenarioState 3</text>
            <text font-size="13" x="945" y="88"
                clip-path="url(#clipPath40)" stroke="none" xml:space="preserve"> : </text>
            <line clip-path="url(#clipPath41)" fill="none" x1="840"
                x2="957" y1="90" y2="90" stroke-dasharray="none" stroke-width="1.1"/>
            <rect x="829" y="69" clip-path="url(#clipPath38)"
                fill="none" width="138" stroke-dasharray="none"
                height="27" stroke-width="1.1"/>
        </g>
        <g fill="rgb(237,247,200)" stroke-width="1.1" font-size="11"
            stroke-linecap="butt" stroke="rgb(237,247,200)">
            <rect x="888" y="345" clip-path="url(#clipPath42)"
                width="20" height="55" stroke="none"/>
            <rect x="888" y="345" clip-path="url(#clipPath42)"
                fill="none" width="19" height="54" stroke="black"/>
            <rect x="0" y="0" clip-path="url(#clipPath1)" fill="none"
                width="998" height="453" stroke="black"/>
        </g>
        <g stroke-width="2.0" font-size="13" stroke-linecap="butt">
            <line clip-path="url(#clipPath43)" fill="none" x1="84"
                x2="216" y1="140" y2="140"/>
            <text xml:space="preserve" x="121" y="135"
                clip-path="url(#clipPath44)" stroke="none">updateStates</text>
            <polygon clip-path="url(#clipPath45)"
                points=" 216 140 206 145 206 135" stroke="none"/>
            <polygon fill="none" stroke-width="1.1"
                clip-path="url(#clipPath45)" points=" 216 140 206 145 206 135"/>
            <line clip-path="url(#clipPath46)" fill="none" x1="84"
                x2="410" y1="273" y2="273"/>
            <text xml:space="preserve" x="328" y="264"
                clip-path="url(#clipPath47)" stroke="none">updateStates</text>
            <polygon clip-path="url(#clipPath48)"
                points=" 410 273 400 278 400 268" stroke="none"/>
            <polygon fill="none" stroke-width="1.1"
                clip-path="url(#clipPath48)" points=" 410 273 400 278 400 268"/>
            <line clip-path="url(#clipPath49)" fill="none" x1="216"
                x2="84" y1="244" y2="244" stroke-dasharray="10,5"/>
            <text x="96" y="240" clip-path="url(#clipPath50)"
                stroke-dasharray="10,5" stroke="none" xml:space="preserve">return updated</text>
            <polygon stroke-dasharray="10,5"
                clip-path="url(#clipPath51)"
                points=" 84 244 94 239 94 249" stroke="none"/>
            <polygon fill="none" stroke-width="1.1"
                clip-path="url(#clipPath51)" points=" 84 244 94 239 94 249"/>
            <line clip-path="url(#clipPath52)" fill="none" x1="410"
                x2="84" y1="389" y2="389" stroke-dasharray="10,5"/>
            <text x="90" y="380" clip-path="url(#clipPath53)"
                stroke-dasharray="10,5" stroke="none" xml:space="preserve">return updated</text>
            <polygon stroke-dasharray="10,5"
                clip-path="url(#clipPath54)"
                points=" 84 389 94 384 94 394" stroke="none"/>
            <polygon fill="none" stroke-width="1.1"
                clip-path="url(#clipPath54)" points=" 84 389 94 384 94 394"/>
            <line clip-path="url(#clipPath55)" fill="none" x1="236"
                x2="585" y1="153" y2="153"/>
            <text xml:space="preserve" x="507" y="145"
                clip-path="url(#clipPath56)" stroke="none">getElement</text>
            <polygon clip-path="url(#clipPath57)"
                points=" 585 153 575 158 575 148" stroke="none"/>
            <polygon fill="none" stroke-width="1.1"
                clip-path="url(#clipPath57)" points=" 585 153 575 158 575 148"/>
            <line clip-path="url(#clipPath58)" fill="none" x1="605"
                x2="739" y1="207" y2="207" stroke-dasharray="10,5"/>
            <text x="619" y="196" clip-path="url(#clipPath59)"
                stroke-dasharray="10,5" stroke="none" xml:space="preserve">create updated</text>
            <line clip-path="url(#clipPath60)" fill="none" x1="729"
                x2="739" y1="212" y2="207" stroke-width="1.1"/>
            <line clip-path="url(#clipPath60)" fill="none" x1="739"
                x2="729" y1="207" y2="202" stroke-width="1.1"/>
            <line clip-path="url(#clipPath61)" fill="none" x1="236"
                x2="585" y1="205" y2="205"/>
            <text xml:space="preserve" x="484" y="199"
                clip-path="url(#clipPath62)" stroke="none">updateElement</text>
            <polygon clip-path="url(#clipPath63)"
                points=" 585 205 575 210 575 200" stroke="none"/>
            <polygon fill="none" stroke-width="1.1"
                clip-path="url(#clipPath63)" points=" 585 205 575 210 575 200"/>
            <line clip-path="url(#clipPath64)" fill="none" x1="430"
                x2="739" y1="287" y2="287"/>
            <text xml:space="preserve" x="645" y="280"
                clip-path="url(#clipPath65)" stroke="none">getElement</text>
            <polygon clip-path="url(#clipPath66)"
                points=" 739 287 729 292 729 282" stroke="none"/>
            <polygon fill="none" stroke-width="1.1"
                clip-path="url(#clipPath66)" points=" 739 287 729 292 729 282"/>
            <line clip-path="url(#clipPath67)" fill="none" x1="430"
                x2="739" y1="332" y2="332"/>
            <text xml:space="preserve" x="640" y="327"
                clip-path="url(#clipPath68)" stroke="none">updateElement</text>
            <polygon clip-path="url(#clipPath69)"
                points=" 739 332 729 337 729 327" stroke="none"/>
            <polygon fill="none" stroke-width="1.1"
                clip-path="url(#clipPath69)" points=" 739 332 729 337 729 327"/>
            <line clip-path="url(#clipPath70)" fill="none" x1="759"
                x2="888" y1="354" y2="354" stroke-dasharray="10,5"/>
            <text x="786" y="347" clip-path="url(#clipPath71)"
                stroke-dasharray="10,5" stroke="none" xml:space="preserve">create updated</text>
            <line clip-path="url(#clipPath72)" fill="none" x1="878"
                x2="888" y1="359" y2="354" stroke-width="1.1"/>
            <line clip-path="url(#clipPath72)" fill="none" x1="888"
                x2="878" y1="354" y2="349" stroke-width="1.1"/>
            <line clip-path="url(#clipPath73)" fill="none" x1="585"
                x2="236" y1="232" y2="232" stroke-dasharray="10,5"/>
            <text x="244" y="227" clip-path="url(#clipPath74)"
                stroke-dasharray="10,5" stroke="none" xml:space="preserve">return created</text>
            <polygon stroke-dasharray="10,5"
                clip-path="url(#clipPath75)"
                points=" 236 232 246 227 246 237" stroke="none"/>
            <polygon fill="none" stroke-width="1.1"
                clip-path="url(#clipPath75)" points=" 236 232 246 227 246 237"/>
            <line clip-path="url(#clipPath76)" fill="none" x1="739"
                x2="430" y1="364" y2="364" stroke-dasharray="10,5"/>
            <text x="436" y="358" clip-path="url(#clipPath77)"
                stroke-dasharray="10,5" stroke="none" xml:space="preserve">return created</text>
            <polygon stroke-dasharray="10,5"
                clip-path="url(#clipPath78)"
                points=" 430 364 440 359 440 369" stroke="none"/>
            <polygon fill="none" stroke-width="1.1"
                clip-path="url(#clipPath78)" points=" 430 364 440 359 440 369"/>
        </g>
    </g>
</svg>
