<?xml version="1.0" encoding="UTF-8"?>
<svg stroke-dasharray="none" shape-rendering="auto"
    font-family="'Dialog'" width="902" text-rendering="auto"
    fill-opacity="1" color-interpolation="auto" color-rendering="auto"
    font-size="12" fill="black" stroke="black" image-rendering="auto"
    stroke-miterlimit="10" stroke-linecap="square"
    stroke-linejoin="miter" font-style="normal" height="573"
    stroke-width="1" stroke-dashoffset="0" font-weight="normal" stroke-opacity="1">
    <!--Generated by the Batik Graphics2D SVG Generator-->
    <defs id="genericDefs"/>
    <g>
        <defs id="defs1">
            <clipPath clipPathUnits="userSpaceOnUse" id="clipPath1">
                <path d="M-1 -1 L902 -1 L902 573 L-1 573 L-1 -1 Z"/>
            </clipPath>
            <clipPath clipPathUnits="userSpaceOnUse" id="clipPath2">
                <path d="M5 5 L69 5 L69 28 L5 28 L5 5 Z"/>
            </clipPath>
            <clipPath clipPathUnits="userSpaceOnUse" id="clipPath3">
                <path d="M69 8 L125 8 L125 25 L69 25 L69 8 Z"/>
            </clipPath>
            <clipPath clipPathUnits="userSpaceOnUse" id="clipPath4">
                <path d="M35 162 L571 162 L571 242 L35 242 L35 162 Z"/>
            </clipPath>
            <clipPath clipPathUnits="userSpaceOnUse" id="clipPath5">
                <path d="M259 164 L347 164 L347 179 L259 179 L259 164 Z"/>
            </clipPath>
            <clipPath clipPathUnits="userSpaceOnUse" id="clipPath6">
                <path d="M237 179 L368 179 L368 194 L237 194 L237 179 Z"/>
            </clipPath>
            <clipPath clipPathUnits="userSpaceOnUse" id="clipPath7">
                <path d="M37 192 L569 192 L569 204 L37 204 L37 192 Z"/>
            </clipPath>
            <clipPath clipPathUnits="userSpaceOnUse" id="clipPath8">
                <path d="M38 205 L51 205 L51 222 L38 222 L38 205 Z"/>
            </clipPath>
            <clipPath clipPathUnits="userSpaceOnUse" id="clipPath9">
                <path d="M51 205 L131 205 L131 222 L51 222 L51 205 Z"/>
            </clipPath>
            <clipPath clipPathUnits="userSpaceOnUse" id="clipPath10">
                <path d="M131 205 L298 205 L298 222 L131 222 L131 205 Z"/>
            </clipPath>
            <clipPath clipPathUnits="userSpaceOnUse" id="clipPath11">
                <path d="M38 222 L51 222 L51 239 L38 239 L38 222 Z"/>
            </clipPath>
            <clipPath clipPathUnits="userSpaceOnUse" id="clipPath12">
                <path d="M51 222 L140 222 L140 239 L51 239 L51 222 Z"/>
            </clipPath>
            <clipPath clipPathUnits="userSpaceOnUse" id="clipPath13">
                <path d="M140 222 L411 222 L411 239 L140 239 L140 222 Z"/>
            </clipPath>
            <clipPath clipPathUnits="userSpaceOnUse" id="clipPath14">
                <path d="M37 202 L569 202 L569 240 L37 240 L37 202 Z"/>
            </clipPath>
            <clipPath clipPathUnits="userSpaceOnUse" id="clipPath15">
                <path d="M29 51 L565 51 L565 101 L29 101 L29 51 Z"/>
            </clipPath>
            <clipPath clipPathUnits="userSpaceOnUse" id="clipPath16">
                <path d="M264 53 L329 53 L329 70 L264 70 L264 53 Z"/>
            </clipPath>
            <clipPath clipPathUnits="userSpaceOnUse" id="clipPath17">
                <path d="M31 68 L563 68 L563 80 L31 80 L31 68 Z"/>
            </clipPath>
            <clipPath clipPathUnits="userSpaceOnUse" id="clipPath18">
                <path d="M32 81 L45 81 L45 98 L32 98 L32 81 Z"/>
            </clipPath>
            <clipPath clipPathUnits="userSpaceOnUse" id="clipPath19">
                <path d="M45 81 L146 81 L146 98 L45 98 L45 81 Z"/>
            </clipPath>
            <clipPath clipPathUnits="userSpaceOnUse" id="clipPath20">
                <path d="M146 81 L374 81 L374 98 L146 98 L146 81 Z"/>
            </clipPath>
            <clipPath clipPathUnits="userSpaceOnUse" id="clipPath21">
                <path d="M31 78 L563 78 L563 99 L31 99 L31 78 Z"/>
            </clipPath>
            <clipPath clipPathUnits="userSpaceOnUse" id="clipPath22">
                <path d="M153 275 L497 275 L497 563 L153 563 L153 275 Z"/>
            </clipPath>
            <clipPath clipPathUnits="userSpaceOnUse" id="clipPath23">
                <path d="M273 277 L377 277 L377 294 L273 294 L273 277 Z"/>
            </clipPath>
            <clipPath clipPathUnits="userSpaceOnUse" id="clipPath24">
                <path d="M155 292 L495 292 L495 304 L155 304 L155 292 Z"/>
            </clipPath>
            <clipPath clipPathUnits="userSpaceOnUse" id="clipPath25">
                <path d="M156 305 L169 305 L169 322 L156 322 L156 305 Z"/>
            </clipPath>
            <clipPath clipPathUnits="userSpaceOnUse" id="clipPath26">
                <path d="M169 305 L231 305 L231 322 L169 322 L169 305 Z"/>
            </clipPath>
            <clipPath clipPathUnits="userSpaceOnUse" id="clipPath27">
                <path d="M231 305 L293 305 L293 322 L231 322 L231 305 Z"/>
            </clipPath>
            <clipPath clipPathUnits="userSpaceOnUse" id="clipPath28">
                <path d="M156 322 L169 322 L169 339 L156 339 L156 322 Z"/>
            </clipPath>
            <clipPath clipPathUnits="userSpaceOnUse" id="clipPath29">
                <path d="M169 322 L251 322 L251 339 L169 339 L169 322 Z"/>
            </clipPath>
            <clipPath clipPathUnits="userSpaceOnUse" id="clipPath30">
                <path d="M251 322 L318 322 L318 339 L251 339 L251 322 Z"/>
            </clipPath>
            <clipPath clipPathUnits="userSpaceOnUse" id="clipPath31">
                <path d="M156 339 L169 339 L169 356 L156 356 L156 339 Z"/>
            </clipPath>
            <clipPath clipPathUnits="userSpaceOnUse" id="clipPath32">
                <path d="M169 339 L285 339 L285 356 L169 356 L169 339 Z"/>
            </clipPath>
            <clipPath clipPathUnits="userSpaceOnUse" id="clipPath33">
                <path d="M285 339 L325 339 L325 356 L285 356 L285 339 Z"/>
            </clipPath>
            <clipPath clipPathUnits="userSpaceOnUse" id="clipPath34">
                <path d="M156 356 L169 356 L169 373 L156 373 L156 356 Z"/>
            </clipPath>
            <clipPath clipPathUnits="userSpaceOnUse" id="clipPath35">
                <path d="M169 356 L308 356 L308 373 L169 373 L169 356 Z"/>
            </clipPath>
            <clipPath clipPathUnits="userSpaceOnUse" id="clipPath36">
                <path d="M308 356 L348 356 L348 373 L308 373 L308 356 Z"/>
            </clipPath>
            <clipPath clipPathUnits="userSpaceOnUse" id="clipPath37">
                <path d="M156 373 L169 373 L169 390 L156 390 L156 373 Z"/>
            </clipPath>
            <clipPath clipPathUnits="userSpaceOnUse" id="clipPath38">
                <path d="M169 373 L291 373 L291 390 L169 390 L169 373 Z"/>
            </clipPath>
            <clipPath clipPathUnits="userSpaceOnUse" id="clipPath39">
                <path d="M291 373 L358 373 L358 390 L291 390 L291 373 Z"/>
            </clipPath>
            <clipPath clipPathUnits="userSpaceOnUse" id="clipPath40">
                <path d="M156 390 L169 390 L169 407 L156 407 L156 390 Z"/>
            </clipPath>
            <clipPath clipPathUnits="userSpaceOnUse" id="clipPath41">
                <path d="M169 390 L286 390 L286 407 L169 407 L169 390 Z"/>
            </clipPath>
            <clipPath clipPathUnits="userSpaceOnUse" id="clipPath42">
                <path d="M286 390 L353 390 L353 407 L286 407 L286 390 Z"/>
            </clipPath>
            <clipPath clipPathUnits="userSpaceOnUse" id="clipPath43">
                <path d="M156 407 L169 407 L169 424 L156 424 L156 407 Z"/>
            </clipPath>
            <clipPath clipPathUnits="userSpaceOnUse" id="clipPath44">
                <path d="M169 407 L334 407 L334 424 L169 424 L169 407 Z"/>
            </clipPath>
            <clipPath clipPathUnits="userSpaceOnUse" id="clipPath45">
                <path d="M334 407 L374 407 L374 424 L334 424 L334 407 Z"/>
            </clipPath>
            <clipPath clipPathUnits="userSpaceOnUse" id="clipPath46">
                <path d="M156 424 L169 424 L169 441 L156 441 L156 424 Z"/>
            </clipPath>
            <clipPath clipPathUnits="userSpaceOnUse" id="clipPath47">
                <path d="M169 424 L317 424 L317 441 L169 441 L169 424 Z"/>
            </clipPath>
            <clipPath clipPathUnits="userSpaceOnUse" id="clipPath48">
                <path d="M317 424 L384 424 L384 441 L317 441 L317 424 Z"/>
            </clipPath>
            <clipPath clipPathUnits="userSpaceOnUse" id="clipPath49">
                <path d="M156 441 L169 441 L169 458 L156 458 L156 441 Z"/>
            </clipPath>
            <clipPath clipPathUnits="userSpaceOnUse" id="clipPath50">
                <path d="M169 441 L312 441 L312 458 L169 458 L169 441 Z"/>
            </clipPath>
            <clipPath clipPathUnits="userSpaceOnUse" id="clipPath51">
                <path d="M312 441 L379 441 L379 458 L312 458 L312 441 Z"/>
            </clipPath>
            <clipPath clipPathUnits="userSpaceOnUse" id="clipPath52">
                <path d="M156 458 L169 458 L169 475 L156 475 L156 458 Z"/>
            </clipPath>
            <clipPath clipPathUnits="userSpaceOnUse" id="clipPath53">
                <path d="M169 458 L253 458 L253 475 L169 475 L169 458 Z"/>
            </clipPath>
            <clipPath clipPathUnits="userSpaceOnUse" id="clipPath54">
                <path d="M253 458 L381 458 L381 475 L253 475 L253 458 Z"/>
            </clipPath>
            <clipPath clipPathUnits="userSpaceOnUse" id="clipPath55">
                <path d="M156 475 L169 475 L169 492 L156 492 L156 475 Z"/>
            </clipPath>
            <clipPath clipPathUnits="userSpaceOnUse" id="clipPath56">
                <path d="M169 475 L292 475 L292 492 L169 492 L169 475 Z"/>
            </clipPath>
            <clipPath clipPathUnits="userSpaceOnUse" id="clipPath57">
                <path d="M292 475 L420 475 L420 492 L292 492 L292 475 Z"/>
            </clipPath>
            <clipPath clipPathUnits="userSpaceOnUse" id="clipPath58">
                <path d="M156 492 L169 492 L169 509 L156 509 L156 492 Z"/>
            </clipPath>
            <clipPath clipPathUnits="userSpaceOnUse" id="clipPath59">
                <path d="M169 492 L327 492 L327 509 L169 509 L169 492 Z"/>
            </clipPath>
            <clipPath clipPathUnits="userSpaceOnUse" id="clipPath60">
                <path d="M327 492 L479 492 L479 509 L327 509 L327 492 Z"/>
            </clipPath>
            <clipPath clipPathUnits="userSpaceOnUse" id="clipPath61">
                <path d="M156 509 L169 509 L169 526 L156 526 L156 509 Z"/>
            </clipPath>
            <clipPath clipPathUnits="userSpaceOnUse" id="clipPath62">
                <path d="M169 509 L262 509 L262 526 L169 526 L169 509 Z"/>
            </clipPath>
            <clipPath clipPathUnits="userSpaceOnUse" id="clipPath63">
                <path d="M262 509 L308 509 L308 526 L262 526 L262 509 Z"/>
            </clipPath>
            <clipPath clipPathUnits="userSpaceOnUse" id="clipPath64">
                <path d="M156 526 L169 526 L169 543 L156 543 L156 526 Z"/>
            </clipPath>
            <clipPath clipPathUnits="userSpaceOnUse" id="clipPath65">
                <path d="M169 526 L226 526 L226 543 L169 543 L169 526 Z"/>
            </clipPath>
            <clipPath clipPathUnits="userSpaceOnUse" id="clipPath66">
                <path d="M226 526 L323 526 L323 543 L226 543 L226 526 Z"/>
            </clipPath>
            <clipPath clipPathUnits="userSpaceOnUse" id="clipPath67">
                <path d="M156 543 L169 543 L169 560 L156 560 L156 543 Z"/>
            </clipPath>
            <clipPath clipPathUnits="userSpaceOnUse" id="clipPath68">
                <path d="M169 543 L275 543 L275 560 L169 560 L169 543 Z"/>
            </clipPath>
            <clipPath clipPathUnits="userSpaceOnUse" id="clipPath69">
                <path d="M275 543 L339 543 L339 560 L275 560 L275 543 Z"/>
            </clipPath>
            <clipPath clipPathUnits="userSpaceOnUse" id="clipPath70">
                <path d="M155 302 L495 302 L495 561 L155 561 L155 302 Z"/>
            </clipPath>
            <clipPath clipPathUnits="userSpaceOnUse" id="clipPath71">
                <path d="M591 275 L875 275 L875 372 L591 372 L591 275 Z"/>
            </clipPath>
            <clipPath clipPathUnits="userSpaceOnUse" id="clipPath72">
                <path d="M594 293 L857 293 L857 355 L594 355 L594 293 Z"/>
            </clipPath>
            <clipPath clipPathUnits="userSpaceOnUse" id="clipPath73">
                <path d="M594 55 L865 55 L865 116 L594 116 L594 55 Z"/>
            </clipPath>
            <clipPath clipPathUnits="userSpaceOnUse" id="clipPath74">
                <path d="M597 66 L849 66 L849 113 L597 113 L597 66 Z"/>
            </clipPath>
            <clipPath clipPathUnits="userSpaceOnUse" id="clipPath75">
                <path d="M404 227 L600 227 L600 291 L404 291 L404 227 Z"/>
            </clipPath>
            <clipPath clipPathUnits="userSpaceOnUse" id="clipPath76">
                <path d="M448 251 L502 251 L502 268 L448 268 L448 251 Z"/>
            </clipPath>
            <clipPath clipPathUnits="userSpaceOnUse" id="clipPath77">
                <path d="M430 265 L443 265 L443 278 L430 278 L430 265 Z"/>
            </clipPath>
            <clipPath clipPathUnits="userSpaceOnUse" id="clipPath78">
                <path d="M161 86 L439 86 L439 181 L161 181 L161 86 Z"/>
            </clipPath>
            <clipPath clipPathUnits="userSpaceOnUse" id="clipPath79">
                <path d="M309 137 L395 137 L395 154 L309 154 L309 137 Z"/>
            </clipPath>
            <clipPath clipPathUnits="userSpaceOnUse" id="clipPath80">
                <path d="M266 137 L291 137 L291 154 L266 154 L266 137 Z"/>
            </clipPath>
            <clipPath clipPathUnits="userSpaceOnUse" id="clipPath81">
                <path d="M294 99 L307 99 L307 122 L294 122 L294 99 Z"/>
            </clipPath>
            <clipPath clipPathUnits="userSpaceOnUse" id="clipPath82">
                <path d="M123 86 L164 86 L164 178 L123 178 L123 86 Z"/>
            </clipPath>
            <clipPath clipPathUnits="userSpaceOnUse" id="clipPath83">
                <path d="M136 148 L151 148 L151 165 L136 165 L136 148 Z"/>
            </clipPath>
            <clipPath clipPathUnits="userSpaceOnUse" id="clipPath84">
                <path d="M550 62 L610 62 L610 91 L550 91 L550 62 Z"/>
            </clipPath>
            <clipPath clipPathUnits="userSpaceOnUse" id="clipPath85">
                <path d="M482 315 L607 315 L607 344 L482 344 L482 315 Z"/>
            </clipPath>
        </defs>
        <g font-size="15" fill="white" font-family="'Cantarell'"
            stroke-linejoin="round" stroke="white" stroke-width="0" stroke-miterlimit="0">
            <rect x="0" y="0" clip-path="url(#clipPath1)" width="901"
                height="572" stroke="none"/>
        </g>
        <g stroke-width="0.1" font-size="15" font-family="'Cantarell'" stroke-linecap="butt">
            <line clip-path="url(#clipPath1)" fill="none" x1="1"
                x2="129" y1="35" y2="35"/>
            <line clip-path="url(#clipPath1)" fill="none" x1="129"
                x2="136" y1="35" y2="21"/>
            <line clip-path="url(#clipPath1)" fill="none" x1="136"
                x2="136" y1="21" y2="1"/>
            <text x="6" y="22" clip-path="url(#clipPath2)" stroke="none"
                font-weight="bold" xml:space="preserve">package </text>
            <text font-size="13" x="70" y="22"
                clip-path="url(#clipPath3)" font-family="'Dialog'"
                stroke="none" xml:space="preserve">scenario</text>
            <rect x="36" y="163" clip-path="url(#clipPath4)"
                fill="rgb(244,232,212)" width="534" height="78" stroke="none"/>
        </g>
        <g fill="rgb(110,44,18)" stroke-width="0.1" font-size="11"
            stroke-linecap="butt" stroke="rgb(110,44,18)">
            <text xml:space="preserve" x="260" y="176"
                clip-path="url(#clipPath5)" stroke="none">&lt;&lt;interface&gt;&gt;</text>
            <text x="238" y="191" clip-path="url(#clipPath6)"
                stroke="none" font-weight="bold" xml:space="preserve">ScenarioComponent</text>
            <line clip-path="url(#clipPath7)" fill="none" x1="38"
                x2="568" y1="193" y2="193"/>
            <text font-size="13" x="39" y="219"
                clip-path="url(#clipPath8)" fill="black" stroke="none" xml:space="preserve">+</text>
            <text font-size="13" x="52" y="219"
                clip-path="url(#clipPath9)" fill="black" stroke="none" xml:space="preserve">setCycleEnd</text>
            <text font-size="13" x="132" y="219"
                clip-path="url(#clipPath10)" fill="black" stroke="none" xml:space="preserve">(cycleEnd : AbsoluteDate)</text>
            <text font-size="13" x="39" y="236"
                clip-path="url(#clipPath11)" fill="black" stroke="none" xml:space="preserve">+</text>
            <text font-size="13" x="52" y="236"
                clip-path="url(#clipPath12)" fill="black" stroke="none" xml:space="preserve">updateStates</text>
            <text font-size="13" x="141" y="236"
                clip-path="url(#clipPath13)" fill="black" stroke="none" xml:space="preserve">(originals : ScenarioState) : ScenarioState</text>
            <line clip-path="url(#clipPath14)" fill="none" x1="38"
                x2="568" y1="203" y2="203"/>
            <rect x="36" y="163" clip-path="url(#clipPath4)" fill="none"
                width="533" height="77" stroke-width="1.1"/>
        </g>
        <g font-size="15" stroke-linecap="butt" fill="rgb(237,247,200)"
            font-family="'Cantarell'" stroke="rgb(237,247,200)" stroke-width="1.1">
            <rect x="30" y="52" clip-path="url(#clipPath15)" width="534"
                height="48" stroke="none"/>
        </g>
        <g font-size="13" stroke-linecap="butt" fill="rgb(106,88,75)"
            stroke="rgb(106,88,75)" font-weight="bold" stroke-width="1.1">
            <text xml:space="preserve" x="265" y="67"
                clip-path="url(#clipPath16)" stroke="none">Scenario</text>
        </g>
        <g font-size="15" stroke-linecap="butt" fill="rgb(106,88,75)"
            font-family="'Cantarell'" stroke="rgb(106,88,75)" stroke-width="0.1">
            <line clip-path="url(#clipPath17)" fill="none" x1="32"
                x2="562" y1="69" y2="69"/>
        </g>
        <g stroke-width="0.1" font-size="13" stroke-linecap="butt">
            <text xml:space="preserve" x="33" y="95"
                clip-path="url(#clipPath18)" stroke="none">+</text>
            <text xml:space="preserve" x="46" y="95"
                clip-path="url(#clipPath19)" stroke="none">addComponent</text>
            <text xml:space="preserve" x="147" y="95"
                clip-path="url(#clipPath20)" stroke="none">(component : ScenarioComponent)</text>
        </g>
        <g font-size="15" stroke-linecap="butt" fill="rgb(106,88,75)"
            font-family="'Cantarell'" stroke="rgb(106,88,75)" stroke-width="0.1">
            <line clip-path="url(#clipPath21)" fill="none" x1="32"
                x2="562" y1="79" y2="79"/>
            <rect x="30" y="52" clip-path="url(#clipPath15)" fill="none"
                width="533" height="47" stroke-width="1.1"/>
            <rect x="154" y="276" clip-path="url(#clipPath22)"
                fill="rgb(237,247,200)" width="342" height="286"
                stroke="none" stroke-width="1.1"/>
        </g>
        <g font-size="13" stroke-linecap="butt" fill="rgb(106,88,75)"
            stroke="rgb(106,88,75)" font-weight="bold" stroke-width="1.1">
            <text xml:space="preserve" x="274" y="291"
                clip-path="url(#clipPath23)" stroke="none">ScenarioState</text>
        </g>
        <g font-size="15" stroke-linecap="butt" fill="rgb(106,88,75)"
            font-family="'Cantarell'" stroke="rgb(106,88,75)" stroke-width="0.1">
            <line clip-path="url(#clipPath24)" fill="none" x1="156"
                x2="494" y1="293" y2="293"/>
        </g>
        <g stroke-width="0.1" font-size="13" stroke-linecap="butt">
            <text xml:space="preserve" x="157" y="319"
                clip-path="url(#clipPath25)" stroke="none">+</text>
            <text xml:space="preserve" x="170" y="319"
                clip-path="url(#clipPath26)" stroke="none">getName</text>
            <text xml:space="preserve" x="232" y="319"
                clip-path="url(#clipPath27)" stroke="none">() : String</text>
            <text xml:space="preserve" x="157" y="336"
                clip-path="url(#clipPath28)" stroke="none">+</text>
            <text xml:space="preserve" x="170" y="336"
                clip-path="url(#clipPath29)" stroke="none">getBOLMass</text>
            <text xml:space="preserve" x="252" y="336"
                clip-path="url(#clipPath30)" stroke="none">() : double</text>
            <text xml:space="preserve" x="157" y="353"
                clip-path="url(#clipPath31)" stroke="none">+</text>
            <text xml:space="preserve" x="170" y="353"
                clip-path="url(#clipPath32)" stroke="none">getCyclesNumber</text>
            <text xml:space="preserve" x="286" y="353"
                clip-path="url(#clipPath33)" stroke="none">() : int</text>
            <text xml:space="preserve" x="157" y="370"
                clip-path="url(#clipPath34)" stroke="none">+</text>
            <text xml:space="preserve" x="170" y="370"
                clip-path="url(#clipPath35)" stroke="none">getInPlaneManeuvers</text>
            <text xml:space="preserve" x="309" y="370"
                clip-path="url(#clipPath36)" stroke="none">() : int</text>
            <text xml:space="preserve" x="157" y="387"
                clip-path="url(#clipPath37)" stroke="none">+</text>
            <text xml:space="preserve" x="170" y="387"
                clip-path="url(#clipPath38)" stroke="none">getInPlaneCycleDV</text>
            <text xml:space="preserve" x="292" y="387"
                clip-path="url(#clipPath39)" stroke="none">() : double</text>
            <text xml:space="preserve" x="157" y="404"
                clip-path="url(#clipPath40)" stroke="none">+</text>
            <text xml:space="preserve" x="170" y="404"
                clip-path="url(#clipPath41)" stroke="none">getInPlaneTotalDV</text>
            <text xml:space="preserve" x="287" y="404"
                clip-path="url(#clipPath42)" stroke="none">() : double</text>
            <text xml:space="preserve" x="157" y="421"
                clip-path="url(#clipPath43)" stroke="none">+</text>
            <text xml:space="preserve" x="170" y="421"
                clip-path="url(#clipPath44)" stroke="none">getOutOfPlaneManeuvers</text>
            <text xml:space="preserve" x="335" y="421"
                clip-path="url(#clipPath45)" stroke="none">() : int</text>
            <text xml:space="preserve" x="157" y="438"
                clip-path="url(#clipPath46)" stroke="none">+</text>
            <text xml:space="preserve" x="170" y="438"
                clip-path="url(#clipPath47)" stroke="none">getOutOfPlaneCycleDV</text>
            <text xml:space="preserve" x="318" y="438"
                clip-path="url(#clipPath48)" stroke="none">() : double</text>
            <text xml:space="preserve" x="157" y="455"
                clip-path="url(#clipPath49)" stroke="none">+</text>
            <text xml:space="preserve" x="170" y="455"
                clip-path="url(#clipPath50)" stroke="none">getOutOfPlaneTotalDV</text>
            <text xml:space="preserve" x="313" y="455"
                clip-path="url(#clipPath51)" stroke="none">() : double</text>
            <text xml:space="preserve" x="157" y="472"
                clip-path="url(#clipPath52)" stroke="none">+</text>
            <text xml:space="preserve" x="170" y="472"
                clip-path="url(#clipPath53)" stroke="none">getRealState</text>
            <text xml:space="preserve" x="254" y="472"
                clip-path="url(#clipPath54)" stroke="none">() : SpacecraftState</text>
            <text xml:space="preserve" x="157" y="489"
                clip-path="url(#clipPath55)" stroke="none">+</text>
            <text xml:space="preserve" x="170" y="489"
                clip-path="url(#clipPath56)" stroke="none">getEstimatedState</text>
            <text xml:space="preserve" x="293" y="489"
                clip-path="url(#clipPath57)" stroke="none">() : SpacecraftState</text>
            <text xml:space="preserve" x="157" y="506"
                clip-path="url(#clipPath58)" stroke="none">+</text>
            <text xml:space="preserve" x="170" y="506"
                clip-path="url(#clipPath59)" stroke="none">getPerformedEphemeris</text>
            <text xml:space="preserve" x="328" y="506"
                clip-path="url(#clipPath60)" stroke="none">() : BoundedPropagator</text>
            <text xml:space="preserve" x="157" y="523"
                clip-path="url(#clipPath61)" stroke="none">+</text>
            <text xml:space="preserve" x="170" y="523"
                clip-path="url(#clipPath62)" stroke="none">getManeuvers</text>
            <text xml:space="preserve" x="263" y="523"
                clip-path="url(#clipPath63)" stroke="none">() : List</text>
            <text xml:space="preserve" x="157" y="540"
                clip-path="url(#clipPath64)" stroke="none">+</text>
            <text xml:space="preserve" x="170" y="540"
                clip-path="url(#clipPath65)" stroke="none">getEarth</text>
            <text xml:space="preserve" x="227" y="540"
                clip-path="url(#clipPath66)" stroke="none">() : BodyShape</text>
            <text xml:space="preserve" x="157" y="557"
                clip-path="url(#clipPath67)" stroke="none">+</text>
            <text xml:space="preserve" x="170" y="557"
                clip-path="url(#clipPath68)" stroke="none">getInertialFrame</text>
            <text xml:space="preserve" x="276" y="557"
                clip-path="url(#clipPath69)" stroke="none">() : Frame</text>
        </g>
        <g font-size="15" stroke-linecap="butt" fill="rgb(106,88,75)"
            font-family="'Cantarell'" stroke="rgb(106,88,75)" stroke-width="0.1">
            <line clip-path="url(#clipPath70)" fill="none" x1="156"
                x2="494" y1="303" y2="303"/>
            <rect x="154" y="276" clip-path="url(#clipPath22)"
                fill="none" width="341" height="285" stroke-width="1.1"/>
        </g>
        <g fill="rgb(243,239,235)" stroke-width="1.1" font-size="13"
            stroke-linecap="butt" stroke="rgb(243,239,235)">
            <polygon clip-path="url(#clipPath71)"
                points=" 592 276 864 276 873 286 873 370 592 370" stroke="none"/>
            <polygon fill="none" stroke-width="0.1"
                clip-path="url(#clipPath71)"
                points=" 863 276 863 286 873 286 863 276 592 276 592 370 873 370 873 286" stroke="rgb(105,22,22)"/>
            <text x="595" y="307" clip-path="url(#clipPath72)"
                fill="rgb(105,22,22)" stroke="none" stroke-width="0.1" xml:space="preserve">scenario state contains all the properties</text>
            <text x="595" y="322" clip-path="url(#clipPath72)"
                fill="rgb(105,22,22)" stroke="none" stroke-width="0.1" xml:space="preserve">of current cycle (orbit, maneuvers ...)</text>
            <text x="595" y="337" clip-path="url(#clipPath72)"
                fill="rgb(105,22,22)" stroke="none" stroke-width="0.1" xml:space="preserve">It is updated by the updateStates</text>
            <text x="595" y="352" clip-path="url(#clipPath72)"
                fill="rgb(105,22,22)" stroke="none" stroke-width="0.1" xml:space="preserve">methods of all scenario components.</text>
            <polygon stroke-width="0.1" clip-path="url(#clipPath73)"
                points=" 595 56 854 56 863 66 863 114 595 114" stroke="none"/>
            <polygon fill="none" stroke-width="0.1"
                clip-path="url(#clipPath73)"
                points=" 853 56 853 66 863 66 853 56 595 56 595 114 863 114 863 66" stroke="rgb(105,22,22)"/>
            <text x="598" y="80" clip-path="url(#clipPath74)"
                fill="rgb(105,22,22)" stroke="none" stroke-width="0.1" xml:space="preserve">as Scenario implements</text>
            <text x="598" y="95" clip-path="url(#clipPath74)"
                fill="rgb(105,22,22)" stroke="none" stroke-width="0.1" xml:space="preserve">ScenarioComponent by itself, recursive</text>
            <text x="598" y="110" clip-path="url(#clipPath74)"
                fill="rgb(105,22,22)" stroke="none" stroke-width="0.1" xml:space="preserve">scenario building is possible</text>
        </g>
        <g stroke-width="1.1" font-size="15" font-family="'Cantarell'" stroke-linecap="butt">
            <rect x="0" y="0" clip-path="url(#clipPath1)" fill="none"
                width="900" height="571"/>
        </g>
        <g fill="rgb(153,15,15)" stroke-width="1.1" font-size="13"
            stroke-linecap="butt" stroke="rgb(153,15,15)">
            <line clip-path="url(#clipPath75)" fill="none" x1="436"
                x2="436" y1="241" y2="276"/>
            <text xml:space="preserve" x="449" y="265"
                clip-path="url(#clipPath76)" stroke="none">updates</text>
            <line clip-path="url(#clipPath77)" fill="none" x1="431"
                x2="436" y1="266" y2="276"/>
            <line clip-path="url(#clipPath77)" fill="none" x1="436"
                x2="441" y1="276" y2="266"/>
            <line clip-path="url(#clipPath78)" fill="none" x1="300"
                x2="300" y1="100" y2="163"/>
            <text xml:space="preserve" x="310" y="151"
                clip-path="url(#clipPath79)" stroke="none">+component</text>
            <text xml:space="preserve" x="267" y="151"
                clip-path="url(#clipPath80)" stroke="none">1..*</text>
            <polygon fill="white" clip-path="url(#clipPath81)"
                points=" 300 100 305 110 300 120 295 110" stroke="none"/>
            <polygon fill="none" clip-path="url(#clipPath81)" points=" 300 100 305 110 300 120 295 110"/>
        </g>
        <g font-size="11" stroke-linecap="butt" fill="rgb(110,44,18)"
            stroke-dasharray="8,7" stroke="rgb(110,44,18)" stroke-width="1.1">
            <line clip-path="url(#clipPath82)" fill="none" x1="143"
                x2="143" y1="100" y2="163"/>
            <polygon fill="white" clip-path="url(#clipPath83)"
                points=" 143 163 137 149 149 149" stroke="none"/>
            <polygon fill="none" stroke-dasharray="none"
                clip-path="url(#clipPath83)" points=" 143 163 137 149 149 149"/>
            <line clip-path="url(#clipPath84)" fill="none" x1="595"
                x2="564" y1="76" y2="76" stroke="rgb(105,22,22)"/>
            <line clip-path="url(#clipPath85)" fill="none" x1="592"
                x2="496" y1="329" y2="329" stroke="rgb(105,22,22)"/>
        </g>
    </g>
</svg>
