<?xml version="1.0" encoding="UTF-8"?>
<svg stroke-dasharray="none" shape-rendering="auto"
    font-family="'Dialog'" width="902" text-rendering="auto"
    fill-opacity="1" color-interpolation="auto" color-rendering="auto"
    font-size="12" fill="black" stroke="black" image-rendering="auto"
    stroke-miterlimit="10" stroke-linecap="square"
    stroke-linejoin="miter" font-style="normal" height="573"
    stroke-width="1" stroke-dashoffset="0" font-weight="normal" stroke-opacity="1">
    <!--Generated by the Batik Graphics2D SVG Generator-->
    <defs id="genericDefs"/>
    <g>
        <defs id="defs1">
            <clipPath clipPathUnits="userSpaceOnUse" id="clipPath1">
                <path d="M-1 -1 L902 -1 L902 573 L-1 573 L-1 -1 Z"/>
            </clipPath>
            <clipPath clipPathUnits="userSpaceOnUse" id="clipPath2">
                <path d="M5 5 L69 5 L69 28 L5 28 L5 5 Z"/>
            </clipPath>
            <clipPath clipPathUnits="userSpaceOnUse" id="clipPath3">
                <path d="M69 8 L125 8 L125 25 L69 25 L69 8 Z"/>
            </clipPath>
            <clipPath clipPathUnits="userSpaceOnUse" id="clipPath4">
                <path d="M35 162 L571 162 L571 225 L35 225 L35 162 Z"/>
            </clipPath>
            <clipPath clipPathUnits="userSpaceOnUse" id="clipPath5">
                <path d="M259 164 L347 164 L347 179 L259 179 L259 164 Z"/>
            </clipPath>
            <clipPath clipPathUnits="userSpaceOnUse" id="clipPath6">
                <path d="M237 179 L368 179 L368 194 L237 194 L237 179 Z"/>
            </clipPath>
            <clipPath clipPathUnits="userSpaceOnUse" id="clipPath7">
                <path d="M37 192 L569 192 L569 204 L37 204 L37 192 Z"/>
            </clipPath>
            <clipPath clipPathUnits="userSpaceOnUse" id="clipPath8">
                <path d="M38 205 L51 205 L51 222 L38 222 L38 205 Z"/>
            </clipPath>
            <clipPath clipPathUnits="userSpaceOnUse" id="clipPath9">
                <path d="M51 205 L140 205 L140 222 L51 222 L51 205 Z"/>
            </clipPath>
            <clipPath clipPathUnits="userSpaceOnUse" id="clipPath10">
                <path d="M140 205 L411 205 L411 222 L140 222 L140 205 Z"/>
            </clipPath>
            <clipPath clipPathUnits="userSpaceOnUse" id="clipPath11">
                <path d="M37 202 L569 202 L569 223 L37 223 L37 202 Z"/>
            </clipPath>
            <clipPath clipPathUnits="userSpaceOnUse" id="clipPath12">
                <path d="M29 51 L565 51 L565 101 L29 101 L29 51 Z"/>
            </clipPath>
            <clipPath clipPathUnits="userSpaceOnUse" id="clipPath13">
                <path d="M264 53 L329 53 L329 70 L264 70 L264 53 Z"/>
            </clipPath>
            <clipPath clipPathUnits="userSpaceOnUse" id="clipPath14">
                <path d="M31 68 L563 68 L563 80 L31 80 L31 68 Z"/>
            </clipPath>
            <clipPath clipPathUnits="userSpaceOnUse" id="clipPath15">
                <path d="M32 81 L45 81 L45 98 L32 98 L32 81 Z"/>
            </clipPath>
            <clipPath clipPathUnits="userSpaceOnUse" id="clipPath16">
                <path d="M45 81 L146 81 L146 98 L45 98 L45 81 Z"/>
            </clipPath>
            <clipPath clipPathUnits="userSpaceOnUse" id="clipPath17">
                <path d="M146 81 L374 81 L374 98 L146 98 L146 81 Z"/>
            </clipPath>
            <clipPath clipPathUnits="userSpaceOnUse" id="clipPath18">
                <path d="M31 78 L563 78 L563 99 L31 99 L31 78 Z"/>
            </clipPath>
            <clipPath clipPathUnits="userSpaceOnUse" id="clipPath19">
                <path d="M152 295 L496 295 L496 532 L152 532 L152 295 Z"/>
            </clipPath>
            <clipPath clipPathUnits="userSpaceOnUse" id="clipPath20">
                <path d="M272 297 L376 297 L376 314 L272 314 L272 297 Z"/>
            </clipPath>
            <clipPath clipPathUnits="userSpaceOnUse" id="clipPath21">
                <path d="M154 312 L494 312 L494 324 L154 324 L154 312 Z"/>
            </clipPath>
            <clipPath clipPathUnits="userSpaceOnUse" id="clipPath22">
                <path d="M155 325 L168 325 L168 342 L155 342 L155 325 Z"/>
            </clipPath>
            <clipPath clipPathUnits="userSpaceOnUse" id="clipPath23">
                <path d="M168 325 L230 325 L230 342 L168 342 L168 325 Z"/>
            </clipPath>
            <clipPath clipPathUnits="userSpaceOnUse" id="clipPath24">
                <path d="M230 325 L292 325 L292 342 L230 342 L230 325 Z"/>
            </clipPath>
            <clipPath clipPathUnits="userSpaceOnUse" id="clipPath25">
                <path d="M155 342 L168 342 L168 359 L155 359 L155 342 Z"/>
            </clipPath>
            <clipPath clipPathUnits="userSpaceOnUse" id="clipPath26">
                <path d="M168 342 L250 342 L250 359 L168 359 L168 342 Z"/>
            </clipPath>
            <clipPath clipPathUnits="userSpaceOnUse" id="clipPath27">
                <path d="M250 342 L317 342 L317 359 L250 359 L250 342 Z"/>
            </clipPath>
            <clipPath clipPathUnits="userSpaceOnUse" id="clipPath28">
                <path d="M155 359 L168 359 L168 376 L155 376 L155 359 Z"/>
            </clipPath>
            <clipPath clipPathUnits="userSpaceOnUse" id="clipPath29">
                <path d="M168 359 L284 359 L284 376 L168 376 L168 359 Z"/>
            </clipPath>
            <clipPath clipPathUnits="userSpaceOnUse" id="clipPath30">
                <path d="M284 359 L324 359 L324 376 L284 376 L284 359 Z"/>
            </clipPath>
            <clipPath clipPathUnits="userSpaceOnUse" id="clipPath31">
                <path d="M155 376 L168 376 L168 393 L155 393 L155 376 Z"/>
            </clipPath>
            <clipPath clipPathUnits="userSpaceOnUse" id="clipPath32">
                <path d="M168 376 L307 376 L307 393 L168 393 L168 376 Z"/>
            </clipPath>
            <clipPath clipPathUnits="userSpaceOnUse" id="clipPath33">
                <path d="M307 376 L353 376 L353 393 L307 393 L307 376 Z"/>
            </clipPath>
            <clipPath clipPathUnits="userSpaceOnUse" id="clipPath34">
                <path d="M155 393 L168 393 L168 410 L155 410 L155 393 Z"/>
            </clipPath>
            <clipPath clipPathUnits="userSpaceOnUse" id="clipPath35">
                <path d="M168 393 L313 393 L313 410 L168 410 L168 393 Z"/>
            </clipPath>
            <clipPath clipPathUnits="userSpaceOnUse" id="clipPath36">
                <path d="M313 393 L440 393 L440 410 L313 410 L313 393 Z"/>
            </clipPath>
            <clipPath clipPathUnits="userSpaceOnUse" id="clipPath37">
                <path d="M155 410 L168 410 L168 427 L155 427 L155 410 Z"/>
            </clipPath>
            <clipPath clipPathUnits="userSpaceOnUse" id="clipPath38">
                <path d="M168 410 L314 410 L314 427 L168 427 L168 410 Z"/>
            </clipPath>
            <clipPath clipPathUnits="userSpaceOnUse" id="clipPath39">
                <path d="M314 410 L468 410 L468 427 L314 427 L314 410 Z"/>
            </clipPath>
            <clipPath clipPathUnits="userSpaceOnUse" id="clipPath40">
                <path d="M155 427 L168 427 L168 444 L155 444 L155 427 Z"/>
            </clipPath>
            <clipPath clipPathUnits="userSpaceOnUse" id="clipPath41">
                <path d="M168 427 L309 427 L309 444 L168 444 L168 427 Z"/>
            </clipPath>
            <clipPath clipPathUnits="userSpaceOnUse" id="clipPath42">
                <path d="M309 427 L463 427 L463 444 L309 444 L309 427 Z"/>
            </clipPath>
            <clipPath clipPathUnits="userSpaceOnUse" id="clipPath43">
                <path d="M155 444 L168 444 L168 461 L155 461 L155 444 Z"/>
            </clipPath>
            <clipPath clipPathUnits="userSpaceOnUse" id="clipPath44">
                <path d="M168 444 L252 444 L252 461 L168 461 L168 444 Z"/>
            </clipPath>
            <clipPath clipPathUnits="userSpaceOnUse" id="clipPath45">
                <path d="M252 444 L380 444 L380 461 L252 461 L252 444 Z"/>
            </clipPath>
            <clipPath clipPathUnits="userSpaceOnUse" id="clipPath46">
                <path d="M155 461 L168 461 L168 478 L155 478 L155 461 Z"/>
            </clipPath>
            <clipPath clipPathUnits="userSpaceOnUse" id="clipPath47">
                <path d="M168 461 L291 461 L291 478 L168 478 L168 461 Z"/>
            </clipPath>
            <clipPath clipPathUnits="userSpaceOnUse" id="clipPath48">
                <path d="M291 461 L419 461 L419 478 L291 478 L291 461 Z"/>
            </clipPath>
            <clipPath clipPathUnits="userSpaceOnUse" id="clipPath49">
                <path d="M155 478 L168 478 L168 495 L155 495 L155 478 Z"/>
            </clipPath>
            <clipPath clipPathUnits="userSpaceOnUse" id="clipPath50">
                <path d="M168 478 L326 478 L326 495 L168 495 L168 478 Z"/>
            </clipPath>
            <clipPath clipPathUnits="userSpaceOnUse" id="clipPath51">
                <path d="M326 478 L478 478 L478 495 L326 495 L326 478 Z"/>
            </clipPath>
            <clipPath clipPathUnits="userSpaceOnUse" id="clipPath52">
                <path d="M155 495 L168 495 L168 512 L155 512 L155 495 Z"/>
            </clipPath>
            <clipPath clipPathUnits="userSpaceOnUse" id="clipPath53">
                <path d="M168 495 L225 495 L225 512 L168 512 L168 495 Z"/>
            </clipPath>
            <clipPath clipPathUnits="userSpaceOnUse" id="clipPath54">
                <path d="M225 495 L322 495 L322 512 L225 512 L225 495 Z"/>
            </clipPath>
            <clipPath clipPathUnits="userSpaceOnUse" id="clipPath55">
                <path d="M155 512 L168 512 L168 529 L155 529 L155 512 Z"/>
            </clipPath>
            <clipPath clipPathUnits="userSpaceOnUse" id="clipPath56">
                <path d="M168 512 L274 512 L274 529 L168 529 L168 512 Z"/>
            </clipPath>
            <clipPath clipPathUnits="userSpaceOnUse" id="clipPath57">
                <path d="M274 512 L338 512 L338 529 L274 529 L274 512 Z"/>
            </clipPath>
            <clipPath clipPathUnits="userSpaceOnUse" id="clipPath58">
                <path d="M154 322 L494 322 L494 530 L154 530 L154 322 Z"/>
            </clipPath>
            <clipPath clipPathUnits="userSpaceOnUse" id="clipPath59">
                <path d="M590 342 L874 342 L874 439 L590 439 L590 342 Z"/>
            </clipPath>
            <clipPath clipPathUnits="userSpaceOnUse" id="clipPath60">
                <path d="M593 360 L856 360 L856 422 L593 422 L593 360 Z"/>
            </clipPath>
            <clipPath clipPathUnits="userSpaceOnUse" id="clipPath61">
                <path d="M613 55 L884 55 L884 116 L613 116 L613 55 Z"/>
            </clipPath>
            <clipPath clipPathUnits="userSpaceOnUse" id="clipPath62">
                <path d="M616 66 L868 66 L868 113 L616 113 L616 66 Z"/>
            </clipPath>
            <clipPath clipPathUnits="userSpaceOnUse" id="clipPath63">
                <path d="M281 210 L477 210 L477 311 L281 311 L281 210 Z"/>
            </clipPath>
            <clipPath clipPathUnits="userSpaceOnUse" id="clipPath64">
                <path d="M325 253 L379 253 L379 270 L325 270 L325 253 Z"/>
            </clipPath>
            <clipPath clipPathUnits="userSpaceOnUse" id="clipPath65">
                <path d="M307 285 L320 285 L320 298 L307 298 L307 285 Z"/>
            </clipPath>
            <clipPath clipPathUnits="userSpaceOnUse" id="clipPath66">
                <path d="M161 86 L439 86 L439 181 L161 181 L161 86 Z"/>
            </clipPath>
            <clipPath clipPathUnits="userSpaceOnUse" id="clipPath67">
                <path d="M309 137 L395 137 L395 154 L309 154 L309 137 Z"/>
            </clipPath>
            <clipPath clipPathUnits="userSpaceOnUse" id="clipPath68">
                <path d="M266 137 L291 137 L291 154 L266 154 L266 137 Z"/>
            </clipPath>
            <clipPath clipPathUnits="userSpaceOnUse" id="clipPath69">
                <path d="M294 99 L307 99 L307 122 L294 122 L294 99 Z"/>
            </clipPath>
            <clipPath clipPathUnits="userSpaceOnUse" id="clipPath70">
                <path d="M123 86 L164 86 L164 178 L123 178 L123 86 Z"/>
            </clipPath>
            <clipPath clipPathUnits="userSpaceOnUse" id="clipPath71">
                <path d="M136 148 L151 148 L151 165 L136 165 L136 148 Z"/>
            </clipPath>
            <clipPath clipPathUnits="userSpaceOnUse" id="clipPath72">
                <path d="M550 62 L629 62 L629 91 L550 91 L550 62 Z"/>
            </clipPath>
            <clipPath clipPathUnits="userSpaceOnUse" id="clipPath73">
                <path d="M481 375 L606 375 L606 404 L481 404 L481 375 Z"/>
            </clipPath>
        </defs>
        <g font-size="15" fill="white" font-family="'Cantarell'"
            stroke-linejoin="round" stroke="white" stroke-width="0" stroke-miterlimit="0">
            <rect x="0" y="0" clip-path="url(#clipPath1)" width="901"
                height="572" stroke="none"/>
        </g>
        <g stroke-width="0.1" font-size="15" font-family="'Cantarell'" stroke-linecap="butt">
            <line clip-path="url(#clipPath1)" fill="none" x1="1"
                x2="129" y1="35" y2="35"/>
            <line clip-path="url(#clipPath1)" fill="none" x1="129"
                x2="136" y1="35" y2="21"/>
            <line clip-path="url(#clipPath1)" fill="none" x1="136"
                x2="136" y1="21" y2="1"/>
            <text x="6" y="22" clip-path="url(#clipPath2)" stroke="none"
                font-weight="bold" xml:space="preserve">package </text>
            <text font-size="13" x="70" y="22"
                clip-path="url(#clipPath3)" font-family="'Dialog'"
                stroke="none" xml:space="preserve">scenario</text>
            <rect x="36" y="163" clip-path="url(#clipPath4)"
                fill="rgb(244,242,212)" width="534" height="61" stroke="none"/>
        </g>
        <g fill="rgb(110,44,18)" stroke-width="0.1" font-size="11"
            stroke-linecap="butt" stroke="rgb(110,44,18)">
            <text xml:space="preserve" x="260" y="176"
                clip-path="url(#clipPath5)" stroke="none">&lt;&lt;interface&gt;&gt;</text>
            <text x="238" y="191" clip-path="url(#clipPath6)"
                stroke="none" font-weight="bold" xml:space="preserve">ScenarioComponent</text>
            <line clip-path="url(#clipPath7)" fill="none" x1="38"
                x2="568" y1="193" y2="193"/>
            <text font-size="13" x="39" y="219"
                clip-path="url(#clipPath8)" fill="black" stroke="none" xml:space="preserve">+</text>
            <text font-size="13" x="52" y="219"
                clip-path="url(#clipPath9)" fill="black" stroke="none" xml:space="preserve">updateStates</text>
            <text font-size="13" x="141" y="219"
                clip-path="url(#clipPath10)" fill="black" stroke="none" xml:space="preserve">(originals : ScenarioState) : ScenarioState</text>
            <line clip-path="url(#clipPath11)" fill="none" x1="38"
                x2="568" y1="203" y2="203"/>
            <rect x="36" y="163" clip-path="url(#clipPath4)" fill="none"
                width="533" height="60" stroke-width="1.1"/>
        </g>
        <g font-size="15" stroke-linecap="butt" fill="rgb(237,247,200)"
            font-family="'Cantarell'" stroke="rgb(237,247,200)" stroke-width="1.1">
            <rect x="30" y="52" clip-path="url(#clipPath12)" width="534"
                height="48" stroke="none"/>
        </g>
        <g font-size="13" stroke-linecap="butt" fill="rgb(106,88,75)"
            stroke="rgb(106,88,75)" font-weight="bold" stroke-width="1.1">
            <text xml:space="preserve" x="265" y="67"
                clip-path="url(#clipPath13)" stroke="none">Scenario</text>
        </g>
        <g font-size="15" stroke-linecap="butt" fill="rgb(106,88,75)"
            font-family="'Cantarell'" stroke="rgb(106,88,75)" stroke-width="0.1">
            <line clip-path="url(#clipPath14)" fill="none" x1="32"
                x2="562" y1="69" y2="69"/>
        </g>
        <g stroke-width="0.1" font-size="13" stroke-linecap="butt">
            <text xml:space="preserve" x="33" y="95"
                clip-path="url(#clipPath15)" stroke="none">+</text>
            <text xml:space="preserve" x="46" y="95"
                clip-path="url(#clipPath16)" stroke="none">addComponent</text>
            <text xml:space="preserve" x="147" y="95"
                clip-path="url(#clipPath17)" stroke="none">(component : ScenarioComponent)</text>
        </g>
        <g font-size="15" stroke-linecap="butt" fill="rgb(106,88,75)"
            font-family="'Cantarell'" stroke="rgb(106,88,75)" stroke-width="0.1">
            <line clip-path="url(#clipPath18)" fill="none" x1="32"
                x2="562" y1="79" y2="79"/>
            <rect x="30" y="52" clip-path="url(#clipPath12)" fill="none"
                width="533" height="47" stroke-width="1.1"/>
            <rect x="153" y="296" clip-path="url(#clipPath19)"
                fill="rgb(237,247,200)" width="342" height="235"
                stroke="none" stroke-width="1.1"/>
        </g>
        <g font-size="13" stroke-linecap="butt" fill="rgb(106,88,75)"
            stroke="rgb(106,88,75)" font-weight="bold" stroke-width="1.1">
            <text xml:space="preserve" x="273" y="311"
                clip-path="url(#clipPath20)" stroke="none">ScenarioState</text>
        </g>
        <g font-size="15" stroke-linecap="butt" fill="rgb(106,88,75)"
            font-family="'Cantarell'" stroke="rgb(106,88,75)" stroke-width="0.1">
            <line clip-path="url(#clipPath21)" fill="none" x1="155"
                x2="493" y1="313" y2="313"/>
        </g>
        <g stroke-width="0.1" font-size="13" stroke-linecap="butt">
            <text xml:space="preserve" x="156" y="339"
                clip-path="url(#clipPath22)" stroke="none">+</text>
            <text xml:space="preserve" x="169" y="339"
                clip-path="url(#clipPath23)" stroke="none">getName</text>
            <text xml:space="preserve" x="231" y="339"
                clip-path="url(#clipPath24)" stroke="none">() : String</text>
            <text xml:space="preserve" x="156" y="356"
                clip-path="url(#clipPath25)" stroke="none">+</text>
            <text xml:space="preserve" x="169" y="356"
                clip-path="url(#clipPath26)" stroke="none">getBOLMass</text>
            <text xml:space="preserve" x="251" y="356"
                clip-path="url(#clipPath27)" stroke="none">() : double</text>
            <text xml:space="preserve" x="156" y="373"
                clip-path="url(#clipPath28)" stroke="none">+</text>
            <text xml:space="preserve" x="169" y="373"
                clip-path="url(#clipPath29)" stroke="none">getCyclesNumber</text>
            <text xml:space="preserve" x="285" y="373"
                clip-path="url(#clipPath30)" stroke="none">() : int</text>
            <text xml:space="preserve" x="156" y="390"
                clip-path="url(#clipPath31)" stroke="none">+</text>
            <text xml:space="preserve" x="169" y="390"
                clip-path="url(#clipPath32)" stroke="none">getManeuversNames</text>
            <text xml:space="preserve" x="308" y="390"
                clip-path="url(#clipPath33)" stroke="none">() : List</text>
            <text xml:space="preserve" x="156" y="407"
                clip-path="url(#clipPath34)" stroke="none">+</text>
            <text xml:space="preserve" x="169" y="407"
                clip-path="url(#clipPath35)" stroke="none">getManeuversNumber</text>
            <text xml:space="preserve" x="314" y="407"
                clip-path="url(#clipPath36)" stroke="none">(name : String) : int</text>
            <text xml:space="preserve" x="156" y="424"
                clip-path="url(#clipPath37)" stroke="none">+</text>
            <text xml:space="preserve" x="169" y="424"
                clip-path="url(#clipPath38)" stroke="none">getManeuversCycleDV</text>
            <text xml:space="preserve" x="315" y="424"
                clip-path="url(#clipPath39)" stroke="none">(name : String) : double</text>
            <text xml:space="preserve" x="156" y="441"
                clip-path="url(#clipPath40)" stroke="none">+</text>
            <text xml:space="preserve" x="169" y="441"
                clip-path="url(#clipPath41)" stroke="none">getManeuversTotalDV</text>
            <text xml:space="preserve" x="310" y="441"
                clip-path="url(#clipPath42)" stroke="none">(name : String) : double</text>
            <text xml:space="preserve" x="156" y="458"
                clip-path="url(#clipPath43)" stroke="none">+</text>
            <text xml:space="preserve" x="169" y="458"
                clip-path="url(#clipPath44)" stroke="none">getRealState</text>
            <text xml:space="preserve" x="253" y="458"
                clip-path="url(#clipPath45)" stroke="none">() : SpacecraftState</text>
            <text xml:space="preserve" x="156" y="475"
                clip-path="url(#clipPath46)" stroke="none">+</text>
            <text xml:space="preserve" x="169" y="475"
                clip-path="url(#clipPath47)" stroke="none">getEstimatedState</text>
            <text xml:space="preserve" x="292" y="475"
                clip-path="url(#clipPath48)" stroke="none">() : SpacecraftState</text>
            <text xml:space="preserve" x="156" y="492"
                clip-path="url(#clipPath49)" stroke="none">+</text>
            <text xml:space="preserve" x="169" y="492"
                clip-path="url(#clipPath50)" stroke="none">getPerformedEphemeris</text>
            <text xml:space="preserve" x="327" y="492"
                clip-path="url(#clipPath51)" stroke="none">() : BoundedPropagator</text>
            <text xml:space="preserve" x="156" y="509"
                clip-path="url(#clipPath52)" stroke="none">+</text>
            <text xml:space="preserve" x="169" y="509"
                clip-path="url(#clipPath53)" stroke="none">getEarth</text>
            <text xml:space="preserve" x="226" y="509"
                clip-path="url(#clipPath54)" stroke="none">() : BodyShape</text>
            <text xml:space="preserve" x="156" y="526"
                clip-path="url(#clipPath55)" stroke="none">+</text>
            <text xml:space="preserve" x="169" y="526"
                clip-path="url(#clipPath56)" stroke="none">getInertialFrame</text>
            <text xml:space="preserve" x="275" y="526"
                clip-path="url(#clipPath57)" stroke="none">() : Frame</text>
        </g>
        <g font-size="15" stroke-linecap="butt" fill="rgb(106,88,75)"
            font-family="'Cantarell'" stroke="rgb(106,88,75)" stroke-width="0.1">
            <line clip-path="url(#clipPath58)" fill="none" x1="155"
                x2="493" y1="323" y2="323"/>
            <rect x="153" y="296" clip-path="url(#clipPath19)"
                fill="none" width="341" height="234" stroke-width="1.1"/>
        </g>
        <g fill="rgb(243,239,235)" stroke-width="1.1" font-size="13"
            stroke-linecap="butt" stroke="rgb(243,239,235)">
            <polygon clip-path="url(#clipPath59)"
                points=" 591 343 863 343 872 353 872 437 591 437" stroke="none"/>
            <polygon fill="none" stroke-width="0.1"
                clip-path="url(#clipPath59)"
                points=" 862 343 862 353 872 353 862 343 591 343 591 437 872 437 872 353" stroke="rgb(105,22,22)"/>
            <text x="594" y="374" clip-path="url(#clipPath60)"
                fill="rgb(105,22,22)" stroke="none" stroke-width="0.1" xml:space="preserve">scenario state contains all the properties</text>
            <text x="594" y="389" clip-path="url(#clipPath60)"
                fill="rgb(105,22,22)" stroke="none" stroke-width="0.1" xml:space="preserve">of current cycle (orbit, maneuvers ...)</text>
            <text x="594" y="404" clip-path="url(#clipPath60)"
                fill="rgb(105,22,22)" stroke="none" stroke-width="0.1" xml:space="preserve">It is updated by the updateStates</text>
            <text x="594" y="419" clip-path="url(#clipPath60)"
                fill="rgb(105,22,22)" stroke="none" stroke-width="0.1" xml:space="preserve">methods of all scenario components.</text>
            <polygon stroke-width="0.1" clip-path="url(#clipPath61)"
                points=" 614 56 873 56 882 66 882 114 614 114" stroke="none"/>
            <polygon fill="none" stroke-width="0.1"
                clip-path="url(#clipPath61)"
                points=" 872 56 872 66 882 66 872 56 614 56 614 114 882 114 882 66" stroke="rgb(105,22,22)"/>
            <text x="617" y="80" clip-path="url(#clipPath62)"
                fill="rgb(105,22,22)" stroke="none" stroke-width="0.1" xml:space="preserve">as Scenario implements</text>
            <text x="617" y="95" clip-path="url(#clipPath62)"
                fill="rgb(105,22,22)" stroke="none" stroke-width="0.1" xml:space="preserve">ScenarioComponent by itself, recursive</text>
            <text x="617" y="110" clip-path="url(#clipPath62)"
                fill="rgb(105,22,22)" stroke="none" stroke-width="0.1" xml:space="preserve">scenario building is possible</text>
        </g>
        <g stroke-width="1.1" font-size="15" font-family="'Cantarell'" stroke-linecap="butt">
            <rect x="0" y="0" clip-path="url(#clipPath1)" fill="none"
                width="900" height="571"/>
        </g>
        <g fill="rgb(153,15,15)" stroke-width="1.1" font-size="13"
            stroke-linecap="butt" stroke="rgb(153,15,15)">
            <line clip-path="url(#clipPath63)" fill="none" x1="313"
                x2="313" y1="224" y2="296"/>
            <text xml:space="preserve" x="326" y="267"
                clip-path="url(#clipPath64)" stroke="none">updates</text>
            <line clip-path="url(#clipPath65)" fill="none" x1="308"
                x2="313" y1="286" y2="296"/>
            <line clip-path="url(#clipPath65)" fill="none" x1="313"
                x2="318" y1="296" y2="286"/>
            <line clip-path="url(#clipPath66)" fill="none" x1="300"
                x2="300" y1="100" y2="163"/>
            <text xml:space="preserve" x="310" y="151"
                clip-path="url(#clipPath67)" stroke="none">+component</text>
            <text xml:space="preserve" x="267" y="151"
                clip-path="url(#clipPath68)" stroke="none">1..*</text>
            <polygon fill="white" clip-path="url(#clipPath69)"
                points=" 300 100 305 110 300 120 295 110" stroke="none"/>
            <polygon fill="none" clip-path="url(#clipPath69)" points=" 300 100 305 110 300 120 295 110"/>
        </g>
        <g font-size="11" stroke-linecap="butt" fill="rgb(110,44,18)"
            stroke-dasharray="8,7" stroke="rgb(110,44,18)" stroke-width="1.1">
            <line clip-path="url(#clipPath70)" fill="none" x1="143"
                x2="143" y1="100" y2="163"/>
            <polygon fill="white" clip-path="url(#clipPath71)"
                points=" 143 163 137 149 149 149" stroke="none"/>
            <polygon fill="none" stroke-dasharray="none"
                clip-path="url(#clipPath71)" points=" 143 163 137 149 149 149"/>
            <line clip-path="url(#clipPath72)" fill="none" x1="614"
                x2="564" y1="76" y2="76" stroke="rgb(105,22,22)"/>
            <line clip-path="url(#clipPath73)" fill="none" x1="591"
                x2="495" y1="389" y2="389" stroke="rgb(105,22,22)"/>
        </g>
    </g>
</svg>
