<?xml version="1.0" encoding="UTF-8"?>
<svg stroke-dasharray="none" shape-rendering="auto"
    font-family="'Dialog'" width="925" text-rendering="auto"
    fill-opacity="1" color-interpolation="auto" color-rendering="auto"
    font-size="12" fill="black" stroke="black" image-rendering="auto"
    stroke-miterlimit="10" stroke-linecap="square"
    stroke-linejoin="miter" font-style="normal" height="534"
    stroke-width="1" stroke-dashoffset="0" font-weight="normal" stroke-opacity="1">
    <!--Generated by the Batik Graphics2D SVG Generator-->
    <defs id="genericDefs"/>
    <g>
        <defs id="defs1">
            <clipPath clipPathUnits="userSpaceOnUse" id="clipPath1">
                <path d="M-1 -1 L899 -1 L899 534 L-1 534 L-1 -1 Z"/>
            </clipPath>
            <clipPath clipPathUnits="userSpaceOnUse" id="clipPath2">
                <path d="M5 5 L70 5 L70 24 L5 24 L5 5 Z"/>
            </clipPath>
            <clipPath clipPathUnits="userSpaceOnUse" id="clipPath3">
                <path d="M70 5 L137 5 L137 24 L70 24 L70 5 Z"/>
            </clipPath>
            <clipPath clipPathUnits="userSpaceOnUse" id="clipPath4">
                <path d="M10 251 L43 251 L43 274 L10 274 L10 251 Z"/>
            </clipPath>
            <clipPath clipPathUnits="userSpaceOnUse" id="clipPath5">
                <path d="M13 254 L39 254 L39 273 L13 273 L13 254 Z"/>
            </clipPath>
            <clipPath clipPathUnits="userSpaceOnUse" id="clipPath6">
                <path d="M10 272 L528 272 L528 366 L10 366 L10 272 Z"/>
            </clipPath>
            <clipPath clipPathUnits="userSpaceOnUse" id="clipPath7">
                <path d="M21 306 L163 306 L163 349 L21 349 L21 306 Z"/>
            </clipPath>
            <clipPath clipPathUnits="userSpaceOnUse" id="clipPath8">
                <path d="M24 308 L159 308 L159 327 L24 327 L24 308 Z"/>
            </clipPath>
            <clipPath clipPathUnits="userSpaceOnUse" id="clipPath9">
                <path d="M23 325 L161 325 L161 337 L23 337 L23 325 Z"/>
            </clipPath>
            <clipPath clipPathUnits="userSpaceOnUse" id="clipPath10">
                <path d="M23 335 L161 335 L161 347 L23 347 L23 335 Z"/>
            </clipPath>
            <clipPath clipPathUnits="userSpaceOnUse" id="clipPath11">
                <path d="M347 306 L518 306 L518 349 L347 349 L347 306 Z"/>
            </clipPath>
            <clipPath clipPathUnits="userSpaceOnUse" id="clipPath12">
                <path d="M368 308 L497 308 L497 327 L368 327 L368 308 Z"/>
            </clipPath>
            <clipPath clipPathUnits="userSpaceOnUse" id="clipPath13">
                <path d="M349 325 L516 325 L516 337 L349 337 L349 325 Z"/>
            </clipPath>
            <clipPath clipPathUnits="userSpaceOnUse" id="clipPath14">
                <path d="M349 335 L516 335 L516 347 L349 347 L349 335 Z"/>
            </clipPath>
            <clipPath clipPathUnits="userSpaceOnUse" id="clipPath15">
                <path d="M172 306 L331 306 L331 349 L172 349 L172 306 Z"/>
            </clipPath>
            <clipPath clipPathUnits="userSpaceOnUse" id="clipPath16">
                <path d="M176 308 L326 308 L326 327 L176 327 L176 308 Z"/>
            </clipPath>
            <clipPath clipPathUnits="userSpaceOnUse" id="clipPath17">
                <path d="M174 325 L329 325 L329 337 L174 337 L174 325 Z"/>
            </clipPath>
            <clipPath clipPathUnits="userSpaceOnUse" id="clipPath18">
                <path d="M174 335 L329 335 L329 347 L174 347 L174 335 Z"/>
            </clipPath>
            <clipPath clipPathUnits="userSpaceOnUse" id="clipPath19">
                <path d="M536 252 L565 252 L565 275 L536 275 L536 252 Z"/>
            </clipPath>
            <clipPath clipPathUnits="userSpaceOnUse" id="clipPath20">
                <path d="M539 255 L561 255 L561 274 L539 274 L539 255 Z"/>
            </clipPath>
            <clipPath clipPathUnits="userSpaceOnUse" id="clipPath21">
                <path d="M536 273 L889 273 L889 366 L536 366 L536 273 Z"/>
            </clipPath>
            <clipPath clipPathUnits="userSpaceOnUse" id="clipPath22">
                <path d="M555 306 L695 306 L695 349 L555 349 L555 306 Z"/>
            </clipPath>
            <clipPath clipPathUnits="userSpaceOnUse" id="clipPath23">
                <path d="M559 308 L690 308 L690 327 L559 327 L559 308 Z"/>
            </clipPath>
            <clipPath clipPathUnits="userSpaceOnUse" id="clipPath24">
                <path d="M557 325 L693 325 L693 337 L557 337 L557 325 Z"/>
            </clipPath>
            <clipPath clipPathUnits="userSpaceOnUse" id="clipPath25">
                <path d="M557 335 L693 335 L693 347 L557 347 L557 335 Z"/>
            </clipPath>
            <clipPath clipPathUnits="userSpaceOnUse" id="clipPath26">
                <path d="M711 305 L877 305 L877 348 L711 348 L711 305 Z"/>
            </clipPath>
            <clipPath clipPathUnits="userSpaceOnUse" id="clipPath27">
                <path d="M714 307 L873 307 L873 326 L714 326 L714 307 Z"/>
            </clipPath>
            <clipPath clipPathUnits="userSpaceOnUse" id="clipPath28">
                <path d="M713 324 L875 324 L875 336 L713 336 L713 324 Z"/>
            </clipPath>
            <clipPath clipPathUnits="userSpaceOnUse" id="clipPath29">
                <path d="M713 334 L875 334 L875 346 L713 346 L713 334 Z"/>
            </clipPath>
            <clipPath clipPathUnits="userSpaceOnUse" id="clipPath30">
                <path d="M5 61 L887 61 L887 160 L5 160 L5 61 Z"/>
            </clipPath>
            <clipPath clipPathUnits="userSpaceOnUse" id="clipPath31">
                <path d="M402 63 L489 63 L489 78 L402 78 L402 63 Z"/>
            </clipPath>
            <clipPath clipPathUnits="userSpaceOnUse" id="clipPath32">
                <path d="M415 78 L477 78 L477 93 L415 93 L415 78 Z"/>
            </clipPath>
            <clipPath clipPathUnits="userSpaceOnUse" id="clipPath33">
                <path d="M408 93 L484 93 L484 108 L408 108 L408 93 Z"/>
            </clipPath>
            <clipPath clipPathUnits="userSpaceOnUse" id="clipPath34">
                <path d="M7 106 L885 106 L885 118 L7 118 L7 106 Z"/>
            </clipPath>
            <clipPath clipPathUnits="userSpaceOnUse" id="clipPath35">
                <path d="M8 119 L21 119 L21 138 L8 138 L8 119 Z"/>
            </clipPath>
            <clipPath clipPathUnits="userSpaceOnUse" id="clipPath36">
                <path d="M21 119 L103 119 L103 138 L21 138 L21 119 Z"/>
            </clipPath>
            <clipPath clipPathUnits="userSpaceOnUse" id="clipPath37">
                <path d="M103 119 L856 119 L856 138 L103 138 L103 119 Z"/>
            </clipPath>
            <clipPath clipPathUnits="userSpaceOnUse" id="clipPath38">
                <path d="M8 138 L21 138 L21 157 L8 157 L8 138 Z"/>
            </clipPath>
            <clipPath clipPathUnits="userSpaceOnUse" id="clipPath39">
                <path d="M21 138 L124 138 L124 157 L21 157 L21 138 Z"/>
            </clipPath>
            <clipPath clipPathUnits="userSpaceOnUse" id="clipPath40">
                <path d="M124 138 L707 138 L707 157 L124 157 L124 138 Z"/>
            </clipPath>
            <clipPath clipPathUnits="userSpaceOnUse" id="clipPath41">
                <path d="M7 116 L885 116 L885 158 L7 158 L7 116 Z"/>
            </clipPath>
            <clipPath clipPathUnits="userSpaceOnUse" id="clipPath42">
                <path d="M398 470 L527 470 L527 524 L398 524 L398 470 Z"/>
            </clipPath>
            <clipPath clipPathUnits="userSpaceOnUse" id="clipPath43">
                <path d="M419 472 L506 472 L506 487 L419 487 L419 472 Z"/>
            </clipPath>
            <clipPath clipPathUnits="userSpaceOnUse" id="clipPath44">
                <path d="M405 487 L520 487 L520 502 L405 502 L405 487 Z"/>
            </clipPath>
            <clipPath clipPathUnits="userSpaceOnUse" id="clipPath45">
                <path d="M400 500 L525 500 L525 512 L400 512 L400 500 Z"/>
            </clipPath>
            <clipPath clipPathUnits="userSpaceOnUse" id="clipPath46">
                <path d="M400 510 L525 510 L525 522 L400 522 L400 510 Z"/>
            </clipPath>
            <clipPath clipPathUnits="userSpaceOnUse" id="clipPath47">
                <path d="M71 145 L112 145 L112 322 L71 322 L71 145 Z"/>
            </clipPath>
            <clipPath clipPathUnits="userSpaceOnUse" id="clipPath48">
                <path d="M84 158 L99 158 L99 175 L84 175 L84 158 Z"/>
            </clipPath>
            <clipPath clipPathUnits="userSpaceOnUse" id="clipPath49">
                <path d="M403 145 L444 145 L444 322 L403 322 L403 145 Z"/>
            </clipPath>
            <clipPath clipPathUnits="userSpaceOnUse" id="clipPath50">
                <path d="M416 158 L431 158 L431 175 L416 175 L416 158 Z"/>
            </clipPath>
            <clipPath clipPathUnits="userSpaceOnUse" id="clipPath51">
                <path d="M231 145 L272 145 L272 322 L231 322 L231 145 Z"/>
            </clipPath>
            <clipPath clipPathUnits="userSpaceOnUse" id="clipPath52">
                <path d="M244 158 L259 158 L259 175 L244 175 L244 158 Z"/>
            </clipPath>
            <clipPath clipPathUnits="userSpaceOnUse" id="clipPath53">
                <path d="M606 145 L647 145 L647 322 L606 322 L606 145 Z"/>
            </clipPath>
            <clipPath clipPathUnits="userSpaceOnUse" id="clipPath54">
                <path d="M619 158 L634 158 L634 175 L619 175 L619 158 Z"/>
            </clipPath>
            <clipPath clipPathUnits="userSpaceOnUse" id="clipPath55">
                <path d="M766 145 L807 145 L807 321 L766 321 L766 145 Z"/>
            </clipPath>
            <clipPath clipPathUnits="userSpaceOnUse" id="clipPath56">
                <path d="M779 158 L794 158 L794 175 L779 175 L779 158 Z"/>
            </clipPath>
            <clipPath clipPathUnits="userSpaceOnUse" id="clipPath57">
                <path d="M62 334 L560 334 L560 486 L62 486 L62 334 Z"/>
            </clipPath>
            <clipPath clipPathUnits="userSpaceOnUse" id="clipPath58">
                <path d="M394 447 L404 447 L404 466 L394 466 L394 447 Z"/>
            </clipPath>
            <clipPath clipPathUnits="userSpaceOnUse" id="clipPath59">
                <path d="M88 347 L101 347 L101 370 L88 370 L88 347 Z"/>
            </clipPath>
            <clipPath clipPathUnits="userSpaceOnUse" id="clipPath60">
                <path d="M166 334 L581 334 L581 486 L166 486 L166 334 Z"/>
            </clipPath>
            <clipPath clipPathUnits="userSpaceOnUse" id="clipPath61">
                <path d="M416 448 L426 448 L426 467 L416 467 L416 448 Z"/>
            </clipPath>
            <clipPath clipPathUnits="userSpaceOnUse" id="clipPath62">
                <path d="M270 347 L283 347 L283 370 L270 370 L270 347 Z"/>
            </clipPath>
            <clipPath clipPathUnits="userSpaceOnUse" id="clipPath63">
                <path d="M241 334 L610 334 L610 486 L241 486 L241 334 Z"/>
            </clipPath>
            <clipPath clipPathUnits="userSpaceOnUse" id="clipPath64">
                <path d="M445 447 L455 447 L455 466 L445 466 L445 447 Z"/>
            </clipPath>
            <clipPath clipPathUnits="userSpaceOnUse" id="clipPath65">
                <path d="M451 347 L464 347 L464 370 L451 370 L451 347 Z"/>
            </clipPath>
            <clipPath clipPathUnits="userSpaceOnUse" id="clipPath66">
                <path d="M413 334 L746 334 L746 486 L413 486 L413 334 Z"/>
            </clipPath>
            <clipPath clipPathUnits="userSpaceOnUse" id="clipPath67">
                <path d="M490 447 L500 447 L500 466 L490 466 L490 447 Z"/>
            </clipPath>
            <clipPath clipPathUnits="userSpaceOnUse" id="clipPath68">
                <path d="M599 347 L612 347 L612 370 L599 370 L599 347 Z"/>
            </clipPath>
            <clipPath clipPathUnits="userSpaceOnUse" id="clipPath69">
                <path d="M453 333 L925 333 L925 486 L453 486 L453 333 Z"/>
            </clipPath>
            <clipPath clipPathUnits="userSpaceOnUse" id="clipPath70">
                <path d="M516 448 L526 448 L526 467 L516 467 L516 448 Z"/>
            </clipPath>
            <clipPath clipPathUnits="userSpaceOnUse" id="clipPath71">
                <path d="M747 346 L760 346 L760 369 L747 369 L747 346 Z"/>
            </clipPath>
        </defs>
        <g font-size="15" fill="white" font-family="'Ubuntu'"
            stroke-linejoin="round" stroke="white" stroke-width="0" stroke-miterlimit="0">
            <rect x="0" y="0" clip-path="url(#clipPath1)" width="898"
                height="533" stroke="none"/>
        </g>
        <g stroke-width="0.1" font-size="15" font-family="'Ubuntu'" stroke-linecap="butt">
            <line clip-path="url(#clipPath1)" fill="none" x1="1"
                x2="141" y1="31" y2="31"/>
            <line clip-path="url(#clipPath1)" fill="none" x1="141"
                x2="148" y1="31" y2="17"/>
            <line clip-path="url(#clipPath1)" fill="none" x1="148"
                x2="148" y1="17" y2="1"/>
            <text x="6" y="20" clip-path="url(#clipPath2)" stroke="none"
                font-weight="bold" xml:space="preserve">package </text>
            <text font-size="13" x="71" y="19"
                clip-path="url(#clipPath3)" font-family="'Dialog'"
                stroke="none" xml:space="preserve">strategies</text>
            <rect x="11" y="252" clip-path="url(#clipPath4)"
                fill="rgb(244,164,96)" width="31" height="21" stroke="none"/>
            <text font-size="13" x="14" y="268"
                clip-path="url(#clipPath5)" font-family="'Dialog'"
                stroke="none" xml:space="preserve">geo</text>
            <line clip-path="url(#clipPath4)" fill="none" x1="12"
                x2="12" y1="273" y2="252" stroke-width="2.1"/>
            <line clip-path="url(#clipPath4)" fill="none" x1="11"
                x2="42" y1="253" y2="253" stroke-width="2.1"/>
            <line clip-path="url(#clipPath4)" fill="none" x1="41"
                x2="41" y1="252" y2="273" stroke-width="2.1"/>
            <rect x="11" y="273" clip-path="url(#clipPath6)"
                fill="rgb(244,164,96)" width="516" height="92"
                stroke="none" stroke-width="2.1"/>
            <rect x="22" y="307" clip-path="url(#clipPath7)"
                fill="rgb(200,230,255)" width="140" height="41"
                stroke="none" stroke-width="2.1"/>
        </g>
        <g stroke-width="2.1" font-size="13" font-weight="bold" stroke-linecap="butt">
            <text xml:space="preserve" x="25" y="322"
                clip-path="url(#clipPath8)" stroke="none">EccentricityCircle</text>
        </g>
        <g stroke-width="0.1" font-size="15" font-family="'Ubuntu'" stroke-linecap="butt">
            <line clip-path="url(#clipPath9)" fill="none" x1="24"
                x2="160" y1="326" y2="326"/>
            <line clip-path="url(#clipPath10)" fill="none" x1="24"
                x2="160" y1="336" y2="336"/>
            <rect x="22" y="307" clip-path="url(#clipPath7)" fill="none"
                width="139" height="40" stroke-width="1.1"/>
            <rect x="348" y="307" clip-path="url(#clipPath11)"
                fill="rgb(200,230,255)" width="169" height="41"
                stroke="none" stroke-width="1.1"/>
        </g>
        <g stroke-width="1.1" font-size="13" font-weight="bold" stroke-linecap="butt">
            <text xml:space="preserve" x="369" y="322"
                clip-path="url(#clipPath12)" stroke="none">InclinationVector</text>
        </g>
        <g stroke-width="0.1" font-size="15" font-family="'Ubuntu'" stroke-linecap="butt">
            <line clip-path="url(#clipPath13)" fill="none" x1="350"
                x2="515" y1="326" y2="326"/>
            <line clip-path="url(#clipPath14)" fill="none" x1="350"
                x2="515" y1="336" y2="336"/>
            <rect x="348" y="307" clip-path="url(#clipPath11)"
                fill="none" width="168" height="40" stroke-width="1.1"/>
            <rect x="173" y="307" clip-path="url(#clipPath15)"
                fill="rgb(200,230,255)" width="157" height="41"
                stroke="none" stroke-width="1.1"/>
        </g>
        <g stroke-width="1.1" font-size="13" font-weight="bold" stroke-linecap="butt">
            <text xml:space="preserve" x="177" y="322"
                clip-path="url(#clipPath16)" stroke="none">ParabolicLongitude</text>
        </g>
        <g stroke-width="0.1" font-size="15" font-family="'Ubuntu'" stroke-linecap="butt">
            <line clip-path="url(#clipPath17)" fill="none" x1="175"
                x2="328" y1="326" y2="326"/>
            <line clip-path="url(#clipPath18)" fill="none" x1="175"
                x2="328" y1="336" y2="336"/>
            <rect x="173" y="307" clip-path="url(#clipPath15)"
                fill="none" width="156" height="40" stroke-width="1.1"/>
            <rect x="12" y="274" clip-path="url(#clipPath6)" fill="none"
                width="514" height="90" stroke-width="2.1"/>
            <rect x="537" y="253" clip-path="url(#clipPath19)"
                fill="rgb(244,164,96)" width="27" height="21"
                stroke="none" stroke-width="2.1"/>
            <text font-size="13" x="540" y="269"
                clip-path="url(#clipPath20)" font-family="'Dialog'"
                stroke="none" stroke-width="2.1" xml:space="preserve">leo</text>
            <line clip-path="url(#clipPath19)" fill="none" x1="538"
                x2="538" y1="274" y2="253" stroke-width="2.1"/>
            <line clip-path="url(#clipPath19)" fill="none" x1="537"
                x2="564" y1="254" y2="254" stroke-width="2.1"/>
            <line clip-path="url(#clipPath19)" fill="none" x1="563"
                x2="563" y1="253" y2="274" stroke-width="2.1"/>
            <rect x="537" y="274" clip-path="url(#clipPath21)"
                fill="rgb(244,164,96)" width="351" height="91"
                stroke="none" stroke-width="2.1"/>
            <rect x="556" y="307" clip-path="url(#clipPath22)"
                fill="rgb(200,230,255)" width="138" height="41"
                stroke="none" stroke-width="2.1"/>
        </g>
        <g stroke-width="2.1" font-size="13" font-weight="bold" stroke-linecap="butt">
            <text xml:space="preserve" x="560" y="322"
                clip-path="url(#clipPath23)" stroke="none">GroundTrackGrid</text>
        </g>
        <g stroke-width="0.1" font-size="15" font-family="'Ubuntu'" stroke-linecap="butt">
            <line clip-path="url(#clipPath24)" fill="none" x1="558"
                x2="692" y1="326" y2="326"/>
            <line clip-path="url(#clipPath25)" fill="none" x1="558"
                x2="692" y1="336" y2="336"/>
            <rect x="556" y="307" clip-path="url(#clipPath22)"
                fill="none" width="137" height="40" stroke-width="1.1"/>
            <rect x="712" y="306" clip-path="url(#clipPath26)"
                fill="rgb(200,230,255)" width="164" height="41"
                stroke="none" stroke-width="1.1"/>
        </g>
        <g stroke-width="1.1" font-size="13" font-weight="bold" stroke-linecap="butt">
            <text xml:space="preserve" x="715" y="321"
                clip-path="url(#clipPath27)" stroke="none">MeanLocalSolarTime</text>
        </g>
        <g stroke-width="0.1" font-size="15" font-family="'Ubuntu'" stroke-linecap="butt">
            <line clip-path="url(#clipPath28)" fill="none" x1="714"
                x2="874" y1="325" y2="325"/>
            <line clip-path="url(#clipPath29)" fill="none" x1="714"
                x2="874" y1="335" y2="335"/>
            <rect x="712" y="306" clip-path="url(#clipPath26)"
                fill="none" width="163" height="40" stroke-width="1.1"/>
            <rect x="538" y="275" clip-path="url(#clipPath21)"
                fill="none" width="349" height="89" stroke-width="2.1"/>
            <rect x="6" y="62" clip-path="url(#clipPath30)" fill="white"
                width="880" height="97" stroke="none" stroke-width="2.1"/>
            <text font-size="11" x="403" y="75"
                clip-path="url(#clipPath31)" font-family="'Dialog'"
                stroke="none" stroke-width="2.1" xml:space="preserve">&lt;&lt;interface&gt;&gt;</text>
        </g>
        <g stroke-width="2.1" font-size="11" font-weight="bold" stroke-linecap="butt">
            <text xml:space="preserve" x="416" y="90"
                clip-path="url(#clipPath32)" stroke="none">SKControl</text>
            <text x="409" y="105" clip-path="url(#clipPath33)"
                stroke="none" font-weight="normal" xml:space="preserve">(from control)</text>
        </g>
        <g stroke-width="0.1" font-size="15" font-family="'Ubuntu'" stroke-linecap="butt">
            <line clip-path="url(#clipPath34)" fill="none" x1="8"
                x2="884" y1="107" y2="107"/>
            <text font-size="13" x="9" y="133"
                clip-path="url(#clipPath35)" font-family="'Dialog'"
                stroke="none" xml:space="preserve">+</text>
            <text font-size="13" x="22" y="133"
                clip-path="url(#clipPath36)" font-family="'Dialog'"
                stroke="none" xml:space="preserve">initializeRun</text>
            <text font-size="13" x="104" y="133"
                clip-path="url(#clipPath37)" font-family="'Dialog'"
                stroke="none" xml:space="preserve">(maneuvers : ScheduledManeuver, propagator : Propagator, start : AbsoluteDate, end : AbsoluteDate, iteration : int)</text>
            <text font-size="13" x="9" y="152"
                clip-path="url(#clipPath38)" font-family="'Dialog'"
                stroke="none" xml:space="preserve">+</text>
            <text font-size="13" x="22" y="152"
                clip-path="url(#clipPath39)" font-family="'Dialog'"
                stroke="none" xml:space="preserve">tuneManeuvers</text>
            <text font-size="13" x="125" y="152"
                clip-path="url(#clipPath40)" font-family="'Dialog'"
                stroke="none" xml:space="preserve">(maneuvers : ScheduledManeuver, reference : BoundedPropagator) : ScheduledManeuver</text>
            <line clip-path="url(#clipPath41)" fill="none" x1="8"
                x2="884" y1="117" y2="117"/>
            <rect x="6" y="62" clip-path="url(#clipPath30)" fill="none"
                width="879" height="96" stroke-width="1.1"/>
            <rect x="399" y="471" clip-path="url(#clipPath42)"
                fill="rgb(144,238,144)" width="127" height="52"
                stroke="none" stroke-width="1.1"/>
            <text font-size="11" x="420" y="484"
                clip-path="url(#clipPath43)" font-family="'Dialog'"
                stroke="none" stroke-width="1.1" xml:space="preserve">&lt;&lt;interface&gt;&gt;</text>
        </g>
        <g stroke-width="1.1" font-size="11" font-weight="bold" stroke-linecap="butt">
            <text xml:space="preserve" x="406" y="499"
                clip-path="url(#clipPath44)" stroke="none">OrekitStepHandler</text>
        </g>
        <g stroke-width="0.1" font-size="15" font-family="'Ubuntu'" stroke-linecap="butt">
            <line clip-path="url(#clipPath45)" fill="none" x1="401"
                x2="524" y1="501" y2="501"/>
            <line clip-path="url(#clipPath46)" fill="none" x1="401"
                x2="524" y1="511" y2="511"/>
            <rect x="399" y="471" clip-path="url(#clipPath42)"
                fill="none" width="126" height="51" stroke-width="1.1"/>
            <rect x="0" y="0" clip-path="url(#clipPath1)" fill="none"
                width="897" height="532" stroke-width="1.1"/>
        </g>
        <g stroke-width="1.1" stroke-dasharray="8,7" font-size="11" stroke-linecap="butt">
            <line clip-path="url(#clipPath47)" fill="none" x1="91"
                x2="91" y1="307" y2="159"/>
            <polygon fill="white" clip-path="url(#clipPath48)"
                points=" 91 159 97 173 85 173" stroke="none"/>
            <polygon fill="none" stroke-dasharray="none"
                clip-path="url(#clipPath48)" points=" 91 159 97 173 85 173"/>
            <line clip-path="url(#clipPath49)" fill="none" x1="423"
                x2="423" y1="307" y2="159"/>
            <polygon fill="white" clip-path="url(#clipPath50)"
                points=" 423 159 429 173 417 173" stroke="none"/>
            <polygon fill="none" stroke-dasharray="none"
                clip-path="url(#clipPath50)" points=" 423 159 429 173 417 173"/>
            <line clip-path="url(#clipPath51)" fill="none" x1="251"
                x2="251" y1="307" y2="159"/>
            <polygon fill="white" clip-path="url(#clipPath52)"
                points=" 251 159 257 173 245 173" stroke="none"/>
            <polygon fill="none" stroke-dasharray="none"
                clip-path="url(#clipPath52)" points=" 251 159 257 173 245 173"/>
            <line clip-path="url(#clipPath53)" fill="none" x1="626"
                x2="626" y1="307" y2="159"/>
            <polygon fill="white" clip-path="url(#clipPath54)"
                points=" 626 159 632 173 620 173" stroke="none"/>
            <polygon fill="none" stroke-dasharray="none"
                clip-path="url(#clipPath54)" points=" 626 159 632 173 620 173"/>
            <line clip-path="url(#clipPath55)" fill="none" x1="786"
                x2="786" y1="306" y2="159"/>
            <polygon fill="white" clip-path="url(#clipPath56)"
                points=" 786 159 792 173 780 173" stroke="none"/>
            <polygon fill="none" stroke-dasharray="none"
                clip-path="url(#clipPath56)" points=" 786 159 792 173 780 173"/>
            <line clip-path="url(#clipPath57)" fill="none" x1="94"
                x2="94" y1="348" y2="439" stroke-dasharray="none"/>
            <line clip-path="url(#clipPath57)" fill="none" x1="94"
                x2="407" y1="439" y2="439" stroke-dasharray="none"/>
            <line clip-path="url(#clipPath57)" fill="none" x1="407"
                x2="407" y1="439" y2="471" stroke-dasharray="none"/>
            <text font-size="13" x="395" y="461"
                clip-path="url(#clipPath58)" stroke-dasharray="none"
                stroke="none" xml:space="preserve">1</text>
        </g>
        <g fill="white" stroke-width="1.1" font-size="13"
            stroke-linecap="butt" stroke="white">
            <polygon clip-path="url(#clipPath59)"
                points=" 94 348 99 358 94 368 89 358" stroke="none"/>
            <polygon fill="none" clip-path="url(#clipPath59)"
                points=" 94 348 99 358 94 368 89 358" stroke="black"/>
            <line clip-path="url(#clipPath60)" fill="none" x1="276"
                x2="276" y1="348" y2="404" stroke="black"/>
            <line clip-path="url(#clipPath60)" fill="none" x1="276"
                x2="428" y1="404" y2="404" stroke="black"/>
            <line clip-path="url(#clipPath60)" fill="none" x1="428"
                x2="428" y1="404" y2="471" stroke="black"/>
            <text x="417" y="462" clip-path="url(#clipPath61)"
                fill="black" stroke="none" xml:space="preserve">1</text>
            <polygon clip-path="url(#clipPath62)"
                points=" 276 348 281 358 276 368 271 358" stroke="none"/>
            <polygon fill="none" clip-path="url(#clipPath62)"
                points=" 276 348 281 358 276 368 271 358" stroke="black"/>
            <line clip-path="url(#clipPath63)" fill="none" x1="457"
                x2="457" y1="348" y2="471" stroke="black"/>
            <text x="446" y="461" clip-path="url(#clipPath64)"
                fill="black" stroke="none" xml:space="preserve">1</text>
            <polygon clip-path="url(#clipPath65)"
                points=" 457 348 462 358 457 368 452 358" stroke="none"/>
            <polygon fill="none" clip-path="url(#clipPath65)"
                points=" 457 348 462 358 457 368 452 358" stroke="black"/>
            <line clip-path="url(#clipPath66)" fill="none" x1="605"
                x2="605" y1="348" y2="412" stroke="black"/>
            <line clip-path="url(#clipPath66)" fill="none" x1="605"
                x2="486" y1="412" y2="412" stroke="black"/>
            <line clip-path="url(#clipPath66)" fill="none" x1="486"
                x2="486" y1="412" y2="471" stroke="black"/>
            <text x="491" y="461" clip-path="url(#clipPath67)"
                fill="black" stroke="none" xml:space="preserve">1</text>
            <polygon clip-path="url(#clipPath68)"
                points=" 605 348 610 358 605 368 600 358" stroke="none"/>
            <polygon fill="none" clip-path="url(#clipPath68)"
                points=" 605 348 610 358 605 368 600 358" stroke="black"/>
            <line clip-path="url(#clipPath69)" fill="none" x1="753"
                x2="753" y1="347" y2="432" stroke="black"/>
            <line clip-path="url(#clipPath69)" fill="none" x1="753"
                x2="512" y1="432" y2="432" stroke="black"/>
            <line clip-path="url(#clipPath69)" fill="none" x1="512"
                x2="512" y1="432" y2="471" stroke="black"/>
            <text x="517" y="462" clip-path="url(#clipPath70)"
                fill="black" stroke="none" xml:space="preserve">1</text>
            <polygon clip-path="url(#clipPath71)"
                points=" 753 347 758 357 753 367 748 357" stroke="none"/>
            <polygon fill="none" clip-path="url(#clipPath71)"
                points=" 753 347 758 357 753 367 748 357" stroke="black"/>
        </g>
    </g>
</svg>
