<?xml version="1.0" encoding="UTF-8"?>
<svg stroke-dasharray="none" shape-rendering="auto"
    font-family="'Dialog'" width="924" text-rendering="auto"
    fill-opacity="1" color-interpolation="auto" color-rendering="auto"
    font-size="12" fill="black" stroke="black" image-rendering="auto"
    stroke-miterlimit="10" stroke-linecap="square"
    stroke-linejoin="miter" font-style="normal" height="598"
    stroke-width="1" stroke-dashoffset="0" font-weight="normal" stroke-opacity="1">
    <!--Generated by the Batik Graphics2D SVG Generator-->
    <defs id="genericDefs"/>
    <g>
        <defs id="defs1">
            <clipPath clipPathUnits="userSpaceOnUse" id="clipPath1">
                <path d="M-1 -1 L897 -1 L897 598 L-1 598 L-1 -1 Z"/>
            </clipPath>
            <clipPath clipPathUnits="userSpaceOnUse" id="clipPath2">
                <path d="M5 5 L69 5 L69 28 L5 28 L5 5 Z"/>
            </clipPath>
            <clipPath clipPathUnits="userSpaceOnUse" id="clipPath3">
                <path d="M69 8 L135 8 L135 25 L69 25 L69 8 Z"/>
            </clipPath>
            <clipPath clipPathUnits="userSpaceOnUse" id="clipPath4">
                <path d="M90 258 L123 258 L123 279 L90 279 L90 258 Z"/>
            </clipPath>
            <clipPath clipPathUnits="userSpaceOnUse" id="clipPath5">
                <path d="M93 261 L119 261 L119 278 L93 278 L93 261 Z"/>
            </clipPath>
            <clipPath clipPathUnits="userSpaceOnUse" id="clipPath6">
                <path d="M90 277 L544 277 L544 439 L90 439 L90 277 Z"/>
            </clipPath>
            <clipPath clipPathUnits="userSpaceOnUse" id="clipPath7">
                <path d="M105 291 L282 291 L282 332 L105 332 L105 291 Z"/>
            </clipPath>
            <clipPath clipPathUnits="userSpaceOnUse" id="clipPath8">
                <path d="M121 293 L265 293 L265 310 L121 310 L121 293 Z"/>
            </clipPath>
            <clipPath clipPathUnits="userSpaceOnUse" id="clipPath9">
                <path d="M107 308 L280 308 L280 320 L107 320 L107 308 Z"/>
            </clipPath>
            <clipPath clipPathUnits="userSpaceOnUse" id="clipPath10">
                <path d="M107 318 L280 318 L280 330 L107 330 L107 318 Z"/>
            </clipPath>
            <clipPath clipPathUnits="userSpaceOnUse" id="clipPath11">
                <path d="M164 357 L306 357 L306 398 L164 398 L164 357 Z"/>
            </clipPath>
            <clipPath clipPathUnits="userSpaceOnUse" id="clipPath12">
                <path d="M171 359 L299 359 L299 376 L171 376 L171 359 Z"/>
            </clipPath>
            <clipPath clipPathUnits="userSpaceOnUse" id="clipPath13">
                <path d="M166 374 L304 374 L304 386 L166 386 L166 374 Z"/>
            </clipPath>
            <clipPath clipPathUnits="userSpaceOnUse" id="clipPath14">
                <path d="M166 384 L304 384 L304 396 L166 396 L166 384 Z"/>
            </clipPath>
            <clipPath clipPathUnits="userSpaceOnUse" id="clipPath15">
                <path d="M349 363 L520 363 L520 404 L349 404 L349 363 Z"/>
            </clipPath>
            <clipPath clipPathUnits="userSpaceOnUse" id="clipPath16">
                <path d="M372 365 L496 365 L496 382 L372 382 L372 365 Z"/>
            </clipPath>
            <clipPath clipPathUnits="userSpaceOnUse" id="clipPath17">
                <path d="M351 380 L518 380 L518 392 L351 392 L351 380 Z"/>
            </clipPath>
            <clipPath clipPathUnits="userSpaceOnUse" id="clipPath18">
                <path d="M351 390 L518 390 L518 402 L351 402 L351 390 Z"/>
            </clipPath>
            <clipPath clipPathUnits="userSpaceOnUse" id="clipPath19">
                <path d="M318 292 L477 292 L477 333 L318 333 L318 292 Z"/>
            </clipPath>
            <clipPath clipPathUnits="userSpaceOnUse" id="clipPath20">
                <path d="M325 294 L470 294 L470 311 L325 311 L325 294 Z"/>
            </clipPath>
            <clipPath clipPathUnits="userSpaceOnUse" id="clipPath21">
                <path d="M320 309 L475 309 L475 321 L320 321 L320 309 Z"/>
            </clipPath>
            <clipPath clipPathUnits="userSpaceOnUse" id="clipPath22">
                <path d="M320 319 L475 319 L475 331 L320 331 L320 319 Z"/>
            </clipPath>
            <clipPath clipPathUnits="userSpaceOnUse" id="clipPath23">
                <path d="M568 264 L596 264 L596 285 L568 285 L568 264 Z"/>
            </clipPath>
            <clipPath clipPathUnits="userSpaceOnUse" id="clipPath24">
                <path d="M571 267 L592 267 L592 284 L571 284 L571 267 Z"/>
            </clipPath>
            <clipPath clipPathUnits="userSpaceOnUse" id="clipPath25">
                <path d="M568 283 L822 283 L822 411 L568 411 L568 283 Z"/>
            </clipPath>
            <clipPath clipPathUnits="userSpaceOnUse" id="clipPath26">
                <path d="M577 296 L717 296 L717 337 L577 337 L577 296 Z"/>
            </clipPath>
            <clipPath clipPathUnits="userSpaceOnUse" id="clipPath27">
                <path d="M584 298 L710 298 L710 315 L584 315 L584 298 Z"/>
            </clipPath>
            <clipPath clipPathUnits="userSpaceOnUse" id="clipPath28">
                <path d="M579 313 L715 313 L715 325 L579 325 L579 313 Z"/>
            </clipPath>
            <clipPath clipPathUnits="userSpaceOnUse" id="clipPath29">
                <path d="M579 323 L715 323 L715 335 L579 335 L579 323 Z"/>
            </clipPath>
            <clipPath clipPathUnits="userSpaceOnUse" id="clipPath30">
                <path d="M642 348 L808 348 L808 389 L642 389 L642 348 Z"/>
            </clipPath>
            <clipPath clipPathUnits="userSpaceOnUse" id="clipPath31">
                <path d="M649 350 L801 350 L801 367 L649 367 L649 350 Z"/>
            </clipPath>
            <clipPath clipPathUnits="userSpaceOnUse" id="clipPath32">
                <path d="M644 365 L806 365 L806 377 L644 377 L644 365 Z"/>
            </clipPath>
            <clipPath clipPathUnits="userSpaceOnUse" id="clipPath33">
                <path d="M644 375 L806 375 L806 387 L644 387 L644 375 Z"/>
            </clipPath>
            <clipPath clipPathUnits="userSpaceOnUse" id="clipPath34">
                <path d="M129 461 L543 461 L543 530 L129 530 L129 461 Z"/>
            </clipPath>
            <clipPath clipPathUnits="userSpaceOnUse" id="clipPath35">
                <path d="M292 463 L380 463 L380 478 L292 478 L292 463 Z"/>
            </clipPath>
            <clipPath clipPathUnits="userSpaceOnUse" id="clipPath36">
                <path d="M276 478 L396 478 L396 493 L276 493 L276 478 Z"/>
            </clipPath>
            <clipPath clipPathUnits="userSpaceOnUse" id="clipPath37">
                <path d="M289 493 L382 493 L382 508 L289 508 L289 493 Z"/>
            </clipPath>
            <clipPath clipPathUnits="userSpaceOnUse" id="clipPath38">
                <path d="M131 506 L541 506 L541 518 L131 518 L131 506 Z"/>
            </clipPath>
            <clipPath clipPathUnits="userSpaceOnUse" id="clipPath39">
                <path d="M131 516 L541 516 L541 528 L131 528 L131 516 Z"/>
            </clipPath>
            <clipPath clipPathUnits="userSpaceOnUse" id="clipPath40">
                <path d="M5 65 L887 65 L887 177 L5 177 L5 65 Z"/>
            </clipPath>
            <clipPath clipPathUnits="userSpaceOnUse" id="clipPath41">
                <path d="M402 67 L490 67 L490 82 L402 82 L402 67 Z"/>
            </clipPath>
            <clipPath clipPathUnits="userSpaceOnUse" id="clipPath42">
                <path d="M413 82 L479 82 L479 97 L413 97 L413 82 Z"/>
            </clipPath>
            <clipPath clipPathUnits="userSpaceOnUse" id="clipPath43">
                <path d="M406 97 L486 97 L486 112 L406 112 L406 97 Z"/>
            </clipPath>
            <clipPath clipPathUnits="userSpaceOnUse" id="clipPath44">
                <path d="M7 110 L885 110 L885 122 L7 122 L7 110 Z"/>
            </clipPath>
            <clipPath clipPathUnits="userSpaceOnUse" id="clipPath45">
                <path d="M8 123 L21 123 L21 140 L8 140 L8 123 Z"/>
            </clipPath>
            <clipPath clipPathUnits="userSpaceOnUse" id="clipPath46">
                <path d="M21 123 L97 123 L97 140 L21 140 L21 123 Z"/>
            </clipPath>
            <clipPath clipPathUnits="userSpaceOnUse" id="clipPath47">
                <path d="M97 123 L868 123 L868 140 L97 140 L97 123 Z"/>
            </clipPath>
            <clipPath clipPathUnits="userSpaceOnUse" id="clipPath48">
                <path d="M8 140 L21 140 L21 157 L8 157 L8 140 Z"/>
            </clipPath>
            <clipPath clipPathUnits="userSpaceOnUse" id="clipPath49">
                <path d="M21 140 L136 140 L136 157 L21 157 L21 140 Z"/>
            </clipPath>
            <clipPath clipPathUnits="userSpaceOnUse" id="clipPath50">
                <path d="M136 140 L252 140 L252 157 L136 157 L136 140 Z"/>
            </clipPath>
            <clipPath clipPathUnits="userSpaceOnUse" id="clipPath51">
                <path d="M8 157 L21 157 L21 174 L8 174 L8 157 Z"/>
            </clipPath>
            <clipPath clipPathUnits="userSpaceOnUse" id="clipPath52">
                <path d="M21 157 L124 157 L124 174 L21 174 L21 157 Z"/>
            </clipPath>
            <clipPath clipPathUnits="userSpaceOnUse" id="clipPath53">
                <path d="M124 157 L266 157 L266 174 L124 174 L124 157 Z"/>
            </clipPath>
            <clipPath clipPathUnits="userSpaceOnUse" id="clipPath54">
                <path d="M7 120 L885 120 L885 175 L7 175 L7 120 Z"/>
            </clipPath>
            <clipPath clipPathUnits="userSpaceOnUse" id="clipPath55">
                <path d="M636 457 L743 457 L743 526 L636 526 L636 457 Z"/>
            </clipPath>
            <clipPath clipPathUnits="userSpaceOnUse" id="clipPath56">
                <path d="M645 459 L733 459 L733 474 L645 474 L645 459 Z"/>
            </clipPath>
            <clipPath clipPathUnits="userSpaceOnUse" id="clipPath57">
                <path d="M643 474 L736 474 L736 489 L643 489 L643 474 Z"/>
            </clipPath>
            <clipPath clipPathUnits="userSpaceOnUse" id="clipPath58">
                <path d="M650 489 L729 489 L729 504 L650 504 L650 489 Z"/>
            </clipPath>
            <clipPath clipPathUnits="userSpaceOnUse" id="clipPath59">
                <path d="M638 502 L741 502 L741 514 L638 514 L638 502 Z"/>
            </clipPath>
            <clipPath clipPathUnits="userSpaceOnUse" id="clipPath60">
                <path d="M638 512 L741 512 L741 524 L638 524 L638 512 Z"/>
            </clipPath>
            <clipPath clipPathUnits="userSpaceOnUse" id="clipPath61">
                <path d="M12 547 L183 547 L183 588 L12 588 L12 547 Z"/>
            </clipPath>
            <clipPath clipPathUnits="userSpaceOnUse" id="clipPath62">
                <path d="M19 549 L176 549 L176 566 L19 566 L19 549 Z"/>
            </clipPath>
            <clipPath clipPathUnits="userSpaceOnUse" id="clipPath63">
                <path d="M14 564 L181 564 L181 576 L14 576 L14 564 Z"/>
            </clipPath>
            <clipPath clipPathUnits="userSpaceOnUse" id="clipPath64">
                <path d="M14 574 L181 574 L181 586 L14 586 L14 574 Z"/>
            </clipPath>
            <clipPath clipPathUnits="userSpaceOnUse" id="clipPath65">
                <path d="M205 162 L433 162 L433 307 L205 307 L205 162 Z"/>
            </clipPath>
            <clipPath clipPathUnits="userSpaceOnUse" id="clipPath66">
                <path d="M405 175 L420 175 L420 192 L405 192 L405 175 Z"/>
            </clipPath>
            <clipPath clipPathUnits="userSpaceOnUse" id="clipPath67">
                <path d="M-1 287 L487 287 L487 477 L-1 477 L-1 287 Z"/>
            </clipPath>
            <clipPath clipPathUnits="userSpaceOnUse" id="clipPath68">
                <path d="M130 436 L140 436 L140 453 L130 453 L130 436 Z"/>
            </clipPath>
            <clipPath clipPathUnits="userSpaceOnUse" id="clipPath69">
                <path d="M143 330 L156 330 L156 353 L143 353 L143 330 Z"/>
            </clipPath>
            <clipPath clipPathUnits="userSpaceOnUse" id="clipPath70">
                <path d="M266 162 L433 162 L433 373 L266 373 L266 162 Z"/>
            </clipPath>
            <clipPath clipPathUnits="userSpaceOnUse" id="clipPath71">
                <path d="M109 383 L428 383 L428 477 L109 477 L109 383 Z"/>
            </clipPath>
            <clipPath clipPathUnits="userSpaceOnUse" id="clipPath72">
                <path d="M262 396 L275 396 L275 419 L262 419 L262 396 Z"/>
            </clipPath>
            <clipPath clipPathUnits="userSpaceOnUse" id="clipPath73">
                <path d="M392 162 L499 162 L499 379 L392 379 L392 162 Z"/>
            </clipPath>
            <clipPath clipPathUnits="userSpaceOnUse" id="clipPath74">
                <path d="M290 389 L635 389 L635 477 L290 477 L290 389 Z"/>
            </clipPath>
            <clipPath clipPathUnits="userSpaceOnUse" id="clipPath75">
                <path d="M450 402 L463 402 L463 425 L450 425 L450 402 Z"/>
            </clipPath>
            <clipPath clipPathUnits="userSpaceOnUse" id="clipPath76">
                <path d="M392 162 L640 162 L640 312 L392 312 L392 162 Z"/>
            </clipPath>
            <clipPath clipPathUnits="userSpaceOnUse" id="clipPath77">
                <path d="M392 162 L768 162 L768 364 L392 364 L392 162 Z"/>
            </clipPath>
            <clipPath clipPathUnits="userSpaceOnUse" id="clipPath78">
                <path d="M467 374 L862 374 L862 473 L467 473 L467 374 Z"/>
            </clipPath>
            <clipPath clipPathUnits="userSpaceOnUse" id="clipPath79">
                <path d="M687 387 L700 387 L700 410 L687 410 L687 387 Z"/>
            </clipPath>
            <clipPath clipPathUnits="userSpaceOnUse" id="clipPath80">
                <path d="M344 162 L433 162 L433 308 L344 308 L344 162 Z"/>
            </clipPath>
            <clipPath clipPathUnits="userSpaceOnUse" id="clipPath81">
                <path d="M23 318 L593 318 L593 477 L23 477 L23 318 Z"/>
            </clipPath>
            <clipPath clipPathUnits="userSpaceOnUse" id="clipPath82">
                <path d="M333 331 L346 331 L346 354 L333 354 L333 331 Z"/>
            </clipPath>
            <clipPath clipPathUnits="userSpaceOnUse" id="clipPath83">
                <path d="M36 162 L433 162 L433 563 L36 563 L36 162 Z"/>
            </clipPath>
            <clipPath clipPathUnits="userSpaceOnUse" id="clipPath84">
                <path d="M749 345 L758 345 L758 354 L749 354 L749 345 Z"/>
            </clipPath>
            <clipPath clipPathUnits="userSpaceOnUse" id="clipPath85">
                <path d="M408 172 L417 172 L417 181 L408 181 L408 172 Z"/>
            </clipPath>
            <clipPath clipPathUnits="userSpaceOnUse" id="clipPath86">
                <path d="M749 204 L758 204 L758 213 L749 213 L749 204 Z"/>
            </clipPath>
            <clipPath clipPathUnits="userSpaceOnUse" id="clipPath87">
                <path d="M408 204 L417 204 L417 213 L408 213 L408 204 Z"/>
            </clipPath>
        </defs>
        <g font-size="15" fill="white" font-family="'Cantarell'"
            stroke-linejoin="round" stroke="white" stroke-width="0" stroke-miterlimit="0">
            <rect x="0" y="0" clip-path="url(#clipPath1)" width="896"
                height="597" stroke="none"/>
        </g>
        <g stroke-width="0.1" font-size="15" font-family="'Cantarell'" stroke-linecap="butt">
            <line clip-path="url(#clipPath1)" fill="none" x1="1"
                x2="139" y1="35" y2="35"/>
            <line clip-path="url(#clipPath1)" fill="none" x1="139"
                x2="146" y1="35" y2="21"/>
            <line clip-path="url(#clipPath1)" fill="none" x1="146"
                x2="146" y1="21" y2="1"/>
            <text x="6" y="22" clip-path="url(#clipPath2)" stroke="none"
                font-weight="bold" xml:space="preserve">package </text>
            <text font-size="13" x="70" y="22"
                clip-path="url(#clipPath3)" font-family="'Dialog'"
                stroke="none" xml:space="preserve">strategies</text>
            <rect x="91" y="259" clip-path="url(#clipPath4)"
                fill="rgb(236,235,216)" width="31" height="19" stroke="none"/>
            <text font-size="13" x="94" y="275"
                clip-path="url(#clipPath5)" font-family="'Dialog'"
                stroke="none" xml:space="preserve">geo</text>
            <line clip-path="url(#clipPath4)" fill="none" x1="92"
                x2="92" y1="278" y2="259" stroke-width="2.1"/>
            <line clip-path="url(#clipPath4)" fill="none" x1="91"
                x2="122" y1="260" y2="260" stroke-width="2.1"/>
            <line clip-path="url(#clipPath4)" fill="none" x1="121"
                x2="121" y1="259" y2="278" stroke-width="2.1"/>
            <rect x="91" y="278" clip-path="url(#clipPath6)"
                fill="rgb(236,235,216)" width="452" height="160"
                stroke="none" stroke-width="2.1"/>
            <rect x="106" y="292" clip-path="url(#clipPath7)"
                fill="rgb(237,247,200)" width="175" height="39"
                stroke="none" stroke-width="2.1"/>
        </g>
        <g font-size="13" stroke-linecap="butt" fill="rgb(106,88,75)"
            stroke="rgb(106,88,75)" font-weight="bold" stroke-width="2.1">
            <text xml:space="preserve" x="122" y="307"
                clip-path="url(#clipPath8)" stroke="none">CenteredLongitude</text>
        </g>
        <g font-size="15" stroke-linecap="butt" fill="rgb(106,88,75)"
            font-family="'Cantarell'" stroke="rgb(106,88,75)" stroke-width="0.1">
            <line clip-path="url(#clipPath9)" fill="none" x1="108"
                x2="279" y1="309" y2="309"/>
            <line clip-path="url(#clipPath10)" fill="none" x1="108"
                x2="279" y1="319" y2="319"/>
            <rect x="106" y="292" clip-path="url(#clipPath7)"
                fill="none" width="174" height="38" stroke-width="1.1"/>
            <rect x="165" y="358" clip-path="url(#clipPath11)"
                fill="rgb(237,247,200)" width="140" height="39"
                stroke="none" stroke-width="1.1"/>
        </g>
        <g font-size="13" stroke-linecap="butt" fill="rgb(106,88,75)"
            stroke="rgb(106,88,75)" font-weight="bold" stroke-width="1.1">
            <text xml:space="preserve" x="172" y="373"
                clip-path="url(#clipPath12)" stroke="none">EccentricityCircle</text>
        </g>
        <g font-size="15" stroke-linecap="butt" fill="rgb(106,88,75)"
            font-family="'Cantarell'" stroke="rgb(106,88,75)" stroke-width="0.1">
            <line clip-path="url(#clipPath13)" fill="none" x1="167"
                x2="303" y1="375" y2="375"/>
            <line clip-path="url(#clipPath14)" fill="none" x1="167"
                x2="303" y1="385" y2="385"/>
            <rect x="165" y="358" clip-path="url(#clipPath11)"
                fill="none" width="139" height="38" stroke-width="1.1"/>
            <rect x="350" y="364" clip-path="url(#clipPath15)"
                fill="rgb(237,247,200)" width="169" height="39"
                stroke="none" stroke-width="1.1"/>
        </g>
        <g font-size="13" stroke-linecap="butt" fill="rgb(106,88,75)"
            stroke="rgb(106,88,75)" font-weight="bold" stroke-width="1.1">
            <text xml:space="preserve" x="373" y="379"
                clip-path="url(#clipPath16)" stroke="none">InclinationVector</text>
        </g>
        <g font-size="15" stroke-linecap="butt" fill="rgb(106,88,75)"
            font-family="'Cantarell'" stroke="rgb(106,88,75)" stroke-width="0.1">
            <line clip-path="url(#clipPath17)" fill="none" x1="352"
                x2="517" y1="381" y2="381"/>
            <line clip-path="url(#clipPath18)" fill="none" x1="352"
                x2="517" y1="391" y2="391"/>
            <rect x="350" y="364" clip-path="url(#clipPath15)"
                fill="none" width="168" height="38" stroke-width="1.1"/>
            <rect x="319" y="293" clip-path="url(#clipPath19)"
                fill="rgb(237,247,200)" width="157" height="39"
                stroke="none" stroke-width="1.1"/>
        </g>
        <g font-size="13" stroke-linecap="butt" fill="rgb(106,88,75)"
            stroke="rgb(106,88,75)" font-weight="bold" stroke-width="1.1">
            <text xml:space="preserve" x="326" y="308"
                clip-path="url(#clipPath20)" stroke="none">ParabolicLongitude</text>
        </g>
        <g font-size="15" stroke-linecap="butt" fill="rgb(106,88,75)"
            font-family="'Cantarell'" stroke="rgb(106,88,75)" stroke-width="0.1">
            <line clip-path="url(#clipPath21)" fill="none" x1="321"
                x2="474" y1="310" y2="310"/>
            <line clip-path="url(#clipPath22)" fill="none" x1="321"
                x2="474" y1="320" y2="320"/>
            <rect x="319" y="293" clip-path="url(#clipPath19)"
                fill="none" width="156" height="38" stroke-width="1.1"/>
            <rect x="92" y="279" clip-path="url(#clipPath6)" fill="none"
                width="450" height="158" stroke="black" stroke-width="2.1"/>
            <rect x="569" y="265" clip-path="url(#clipPath23)"
                fill="rgb(236,235,216)" width="26" height="19"
                stroke="none" stroke-width="2.1"/>
        </g>
        <g stroke-width="2.1" font-size="13" stroke-linecap="butt">
            <text xml:space="preserve" x="572" y="281"
                clip-path="url(#clipPath24)" stroke="none">leo</text>
            <line clip-path="url(#clipPath23)" fill="none" x1="570"
                x2="570" y1="284" y2="265"/>
            <line clip-path="url(#clipPath23)" fill="none" x1="569"
                x2="595" y1="266" y2="266"/>
            <line clip-path="url(#clipPath23)" fill="none" x1="594"
                x2="594" y1="265" y2="284"/>
        </g>
        <g font-size="15" stroke-linecap="butt" fill="rgb(236,235,216)"
            font-family="'Cantarell'" stroke="rgb(236,235,216)" stroke-width="2.1">
            <rect x="569" y="284" clip-path="url(#clipPath25)"
                width="252" height="126" stroke="none"/>
            <rect x="578" y="297" clip-path="url(#clipPath26)"
                fill="rgb(237,247,200)" width="138" height="39" stroke="none"/>
        </g>
        <g font-size="13" stroke-linecap="butt" fill="rgb(106,88,75)"
            stroke="rgb(106,88,75)" font-weight="bold" stroke-width="2.1">
            <text xml:space="preserve" x="585" y="312"
                clip-path="url(#clipPath27)" stroke="none">GroundTrackGrid</text>
        </g>
        <g font-size="15" stroke-linecap="butt" fill="rgb(106,88,75)"
            font-family="'Cantarell'" stroke="rgb(106,88,75)" stroke-width="0.1">
            <line clip-path="url(#clipPath28)" fill="none" x1="580"
                x2="714" y1="314" y2="314"/>
            <line clip-path="url(#clipPath29)" fill="none" x1="580"
                x2="714" y1="324" y2="324"/>
            <rect x="578" y="297" clip-path="url(#clipPath26)"
                fill="none" width="137" height="38" stroke-width="1.1"/>
            <rect x="643" y="349" clip-path="url(#clipPath30)"
                fill="rgb(237,247,200)" width="164" height="39"
                stroke="none" stroke-width="1.1"/>
        </g>
        <g font-size="13" stroke-linecap="butt" fill="rgb(106,88,75)"
            stroke="rgb(106,88,75)" font-weight="bold" stroke-width="1.1">
            <text xml:space="preserve" x="650" y="364"
                clip-path="url(#clipPath31)" stroke="none">MeanLocalSolarTime</text>
        </g>
        <g font-size="15" stroke-linecap="butt" fill="rgb(106,88,75)"
            font-family="'Cantarell'" stroke="rgb(106,88,75)" stroke-width="0.1">
            <line clip-path="url(#clipPath32)" fill="none" x1="645"
                x2="805" y1="366" y2="366"/>
            <line clip-path="url(#clipPath33)" fill="none" x1="645"
                x2="805" y1="376" y2="376"/>
            <rect x="643" y="349" clip-path="url(#clipPath30)"
                fill="none" width="163" height="38" stroke-width="1.1"/>
            <rect x="570" y="285" clip-path="url(#clipPath25)"
                fill="none" width="250" height="124" stroke="black" stroke-width="2.1"/>
            <rect x="130" y="462" clip-path="url(#clipPath34)"
                fill="rgb(243,232,255)" width="412" height="67"
                stroke="none" stroke-width="2.1"/>
        </g>
        <g fill="rgb(41,0,141)" stroke-width="2.1" font-size="11"
            stroke-linecap="butt" stroke="rgb(41,0,141)">
            <text xml:space="preserve" x="293" y="475"
                clip-path="url(#clipPath35)" stroke="none">&lt;&lt;interface&gt;&gt;</text>
            <text x="277" y="490" clip-path="url(#clipPath36)"
                stroke="none" font-weight="bold" xml:space="preserve">OrekitStepHandler</text>
            <text xml:space="preserve" x="290" y="505"
                clip-path="url(#clipPath37)" stroke="none">(from sampling)</text>
            <line clip-path="url(#clipPath38)" fill="none" x1="132"
                x2="540" y1="507" y2="507" stroke-width="0.1"/>
            <line clip-path="url(#clipPath39)" fill="none" x1="132"
                x2="540" y1="517" y2="517" stroke-width="0.1"/>
            <rect x="130" y="462" clip-path="url(#clipPath34)"
                fill="none" width="411" height="66" stroke-width="1.1"/>
        </g>
        <g font-size="15" stroke-linecap="butt" fill="rgb(244,232,212)"
            font-family="'Cantarell'" stroke="rgb(244,232,212)" stroke-width="1.1">
            <rect x="6" y="66" clip-path="url(#clipPath40)" width="880"
                height="110" stroke="none"/>
        </g>
        <g fill="rgb(110,44,18)" stroke-width="1.1" font-size="11"
            stroke-linecap="butt" stroke="rgb(110,44,18)">
            <text xml:space="preserve" x="403" y="79"
                clip-path="url(#clipPath41)" stroke="none">&lt;&lt;interface&gt;&gt;</text>
            <text x="414" y="94" clip-path="url(#clipPath42)"
                stroke="none" font-weight="bold" xml:space="preserve">SKControl</text>
            <text xml:space="preserve" x="407" y="109"
                clip-path="url(#clipPath43)" stroke="none">(from control)</text>
            <line clip-path="url(#clipPath44)" fill="none" x1="8"
                x2="884" y1="111" y2="111" stroke-width="0.1"/>
        </g>
        <g stroke-width="0.1" font-size="13" stroke-linecap="butt">
            <text xml:space="preserve" x="9" y="137"
                clip-path="url(#clipPath45)" stroke="none">+</text>
            <text xml:space="preserve" x="22" y="137"
                clip-path="url(#clipPath46)" stroke="none">initializeRun</text>
            <text xml:space="preserve" x="98" y="137"
                clip-path="url(#clipPath47)" stroke="none">(maneuvers : ScheduledManeuver, propagator : Propagator, start : AbsoluteDate, end : AbsoluteDate, rollingCycles : int)</text>
            <text xml:space="preserve" x="9" y="154"
                clip-path="url(#clipPath48)" stroke="none">+</text>
            <text xml:space="preserve" x="22" y="154"
                clip-path="url(#clipPath49)" stroke="none">getEventDetector</text>
            <text xml:space="preserve" x="137" y="154"
                clip-path="url(#clipPath50)" stroke="none">() : EventDetector</text>
            <text xml:space="preserve" x="9" y="171"
                clip-path="url(#clipPath51)" stroke="none">+</text>
            <text xml:space="preserve" x="22" y="171"
                clip-path="url(#clipPath52)" stroke="none">getStepHandler</text>
            <text xml:space="preserve" x="125" y="171"
                clip-path="url(#clipPath53)" stroke="none">() : OrekitStepHandler</text>
        </g>
        <g font-size="15" stroke-linecap="butt" fill="rgb(110,44,18)"
            font-family="'Cantarell'" stroke="rgb(110,44,18)" stroke-width="0.1">
            <line clip-path="url(#clipPath54)" fill="none" x1="8"
                x2="884" y1="121" y2="121"/>
            <rect x="6" y="66" clip-path="url(#clipPath40)" fill="none"
                width="879" height="109" stroke-width="1.1"/>
            <rect x="637" y="458" clip-path="url(#clipPath55)"
                fill="rgb(243,232,255)" width="105" height="67"
                stroke="none" stroke-width="1.1"/>
        </g>
        <g fill="rgb(41,0,141)" stroke-width="1.1" font-size="11"
            stroke-linecap="butt" stroke="rgb(41,0,141)">
            <text xml:space="preserve" x="646" y="471"
                clip-path="url(#clipPath56)" stroke="none">&lt;&lt;interface&gt;&gt;</text>
            <text x="644" y="486" clip-path="url(#clipPath57)"
                stroke="none" font-weight="bold" xml:space="preserve">EventDetector</text>
            <text xml:space="preserve" x="651" y="501"
                clip-path="url(#clipPath58)" stroke="none">(from events)</text>
            <line clip-path="url(#clipPath59)" fill="none" x1="639"
                x2="740" y1="503" y2="503" stroke-width="0.1"/>
            <line clip-path="url(#clipPath60)" fill="none" x1="639"
                x2="740" y1="513" y2="513" stroke-width="0.1"/>
            <rect x="637" y="458" clip-path="url(#clipPath55)"
                fill="none" width="104" height="66"/>
        </g>
        <g font-size="15" stroke-linecap="butt" fill="rgb(237,247,200)"
            font-family="'Cantarell'" stroke="rgb(237,247,200)" stroke-width="1.1">
            <rect x="13" y="548" clip-path="url(#clipPath61)"
                width="169" height="39" stroke="none"/>
        </g>
        <g font-size="13" stroke-linecap="butt" fill="rgb(106,88,75)"
            stroke="rgb(106,88,75)" font-weight="bold" stroke-width="1.1">
            <text xml:space="preserve" x="20" y="563"
                clip-path="url(#clipPath62)" stroke="none">MinimizedManeuvers</text>
        </g>
        <g font-size="15" stroke-linecap="butt" fill="rgb(106,88,75)"
            font-family="'Cantarell'" stroke="rgb(106,88,75)" stroke-width="0.1">
            <line clip-path="url(#clipPath63)" fill="none" x1="15"
                x2="180" y1="565" y2="565"/>
            <line clip-path="url(#clipPath64)" fill="none" x1="15"
                x2="180" y1="575" y2="575"/>
            <rect x="13" y="548" clip-path="url(#clipPath61)"
                fill="none" width="168" height="38" stroke-width="1.1"/>
            <rect x="0" y="0" clip-path="url(#clipPath1)" fill="none"
                width="895" height="596" stroke="black" stroke-width="1.1"/>
        </g>
        <g font-size="11" stroke-linecap="butt" fill="rgb(110,44,18)"
            stroke-dasharray="8,7" stroke="rgb(110,44,18)" stroke-width="1.1">
            <line clip-path="url(#clipPath65)" fill="none" x1="219"
                x2="219" y1="292" y2="208"/>
            <line clip-path="url(#clipPath65)" fill="none" x1="219"
                x2="412" y1="208" y2="208"/>
            <line clip-path="url(#clipPath65)" fill="none" x1="412"
                x2="412" y1="208" y2="176"/>
            <polygon fill="white" clip-path="url(#clipPath66)"
                points=" 412 176 418 190 406 190" stroke="none"/>
            <polygon fill="none" stroke-dasharray="none"
                clip-path="url(#clipPath66)" points=" 412 176 418 190 406 190"/>
        </g>
        <g fill="rgb(153,15,15)" stroke-width="1.1" font-size="13"
            stroke-linecap="butt" stroke="rgb(153,15,15)">
            <line clip-path="url(#clipPath67)" fill="none" x1="149"
                x2="149" y1="331" y2="462"/>
            <text xml:space="preserve" x="131" y="450"
                clip-path="url(#clipPath68)" stroke="none">1</text>
            <polygon fill="white" clip-path="url(#clipPath69)"
                points=" 149 331 154 341 149 351 144 341" stroke="none"/>
            <polygon fill="none" clip-path="url(#clipPath69)" points=" 149 331 154 341 149 351 144 341"/>
        </g>
        <g font-size="11" stroke-linecap="butt" fill="rgb(110,44,18)"
            stroke-dasharray="8,7" stroke="rgb(110,44,18)" stroke-width="1.1">
            <line clip-path="url(#clipPath70)" fill="none" x1="280"
                x2="280" y1="358" y2="208"/>
            <line clip-path="url(#clipPath70)" fill="none" x1="280"
                x2="412" y1="208" y2="208"/>
            <line clip-path="url(#clipPath70)" fill="none" x1="412"
                x2="412" y1="208" y2="176"/>
            <polygon fill="white" clip-path="url(#clipPath66)"
                points=" 412 176 418 190 406 190" stroke="none"/>
            <polygon fill="none" stroke-dasharray="none"
                clip-path="url(#clipPath66)" points=" 412 176 418 190 406 190"/>
        </g>
        <g fill="rgb(153,15,15)" stroke-width="1.1" font-size="13"
            stroke-linecap="butt" stroke="rgb(153,15,15)">
            <line clip-path="url(#clipPath71)" fill="none" x1="268"
                x2="268" y1="397" y2="462"/>
            <polygon fill="white" clip-path="url(#clipPath72)"
                points=" 268 397 273 407 268 417 263 407" stroke="none"/>
            <polygon fill="none" clip-path="url(#clipPath72)" points=" 268 397 273 407 268 417 263 407"/>
        </g>
        <g font-size="11" stroke-linecap="butt" fill="rgb(110,44,18)"
            stroke-dasharray="8,7" stroke="rgb(110,44,18)" stroke-width="1.1">
            <line clip-path="url(#clipPath73)" fill="none" x1="484"
                x2="484" y1="364" y2="208"/>
            <line clip-path="url(#clipPath73)" fill="none" x1="484"
                x2="412" y1="208" y2="208"/>
            <line clip-path="url(#clipPath73)" fill="none" x1="412"
                x2="412" y1="208" y2="176"/>
            <polygon fill="white" clip-path="url(#clipPath66)"
                points=" 412 176 418 190 406 190" stroke="none"/>
            <polygon fill="none" stroke-dasharray="none"
                clip-path="url(#clipPath66)" points=" 412 176 418 190 406 190"/>
        </g>
        <g fill="rgb(153,15,15)" stroke-width="1.1" font-size="13"
            stroke-linecap="butt" stroke="rgb(153,15,15)">
            <line clip-path="url(#clipPath74)" fill="none" x1="456"
                x2="456" y1="403" y2="462"/>
            <polygon fill="white" clip-path="url(#clipPath75)"
                points=" 456 403 461 413 456 423 451 413" stroke="none"/>
            <polygon fill="none" clip-path="url(#clipPath75)" points=" 456 403 461 413 456 423 451 413"/>
        </g>
        <g font-size="11" stroke-linecap="butt" fill="rgb(110,44,18)"
            stroke-dasharray="8,7" stroke="rgb(110,44,18)" stroke-width="1.1">
            <line clip-path="url(#clipPath76)" fill="none" x1="625"
                x2="625" y1="297" y2="208"/>
            <line clip-path="url(#clipPath76)" fill="none" x1="625"
                x2="412" y1="208" y2="208"/>
            <line clip-path="url(#clipPath76)" fill="none" x1="412"
                x2="412" y1="208" y2="176"/>
            <polygon fill="white" clip-path="url(#clipPath66)"
                points=" 412 176 418 190 406 190" stroke="none"/>
            <polygon fill="none" stroke-dasharray="none"
                clip-path="url(#clipPath66)" points=" 412 176 418 190 406 190"/>
            <line clip-path="url(#clipPath77)" fill="none" x1="753"
                x2="753" y1="349" y2="208"/>
            <line clip-path="url(#clipPath77)" fill="none" x1="753"
                x2="412" y1="208" y2="208"/>
            <line clip-path="url(#clipPath77)" fill="none" x1="412"
                x2="412" y1="208" y2="176"/>
            <polygon fill="white" clip-path="url(#clipPath66)"
                points=" 412 176 418 190 406 190" stroke="none"/>
            <polygon fill="none" stroke-dasharray="none"
                clip-path="url(#clipPath66)" points=" 412 176 418 190 406 190"/>
        </g>
        <g fill="rgb(153,15,15)" stroke-width="1.1" font-size="13"
            stroke-linecap="butt" stroke="rgb(153,15,15)">
            <line clip-path="url(#clipPath78)" fill="none" x1="693"
                x2="693" y1="388" y2="458"/>
            <polygon fill="white" clip-path="url(#clipPath79)"
                points=" 693 388 698 398 693 408 688 398" stroke="none"/>
            <polygon fill="none" clip-path="url(#clipPath79)" points=" 693 388 698 398 693 408 688 398"/>
        </g>
        <g font-size="11" stroke-linecap="butt" fill="rgb(110,44,18)"
            stroke-dasharray="8,7" stroke="rgb(110,44,18)" stroke-width="1.1">
            <line clip-path="url(#clipPath80)" fill="none" x1="358"
                x2="358" y1="293" y2="208"/>
            <line clip-path="url(#clipPath80)" fill="none" x1="358"
                x2="412" y1="208" y2="208"/>
            <line clip-path="url(#clipPath80)" fill="none" x1="412"
                x2="412" y1="208" y2="176"/>
            <polygon fill="white" clip-path="url(#clipPath66)"
                points=" 412 176 418 190 406 190" stroke="none"/>
            <polygon fill="none" stroke-dasharray="none"
                clip-path="url(#clipPath66)" points=" 412 176 418 190 406 190"/>
        </g>
        <g fill="rgb(153,15,15)" stroke-width="1.1" font-size="13"
            stroke-linecap="butt" stroke="rgb(153,15,15)">
            <line clip-path="url(#clipPath81)" fill="none" x1="339"
                x2="339" y1="332" y2="462"/>
            <polygon fill="white" clip-path="url(#clipPath82)"
                points=" 339 332 344 342 339 352 334 342" stroke="none"/>
            <polygon fill="none" clip-path="url(#clipPath82)" points=" 339 332 344 342 339 352 334 342"/>
        </g>
        <g font-size="11" stroke-linecap="butt" fill="rgb(110,44,18)"
            stroke-dasharray="8,7" stroke="rgb(110,44,18)" stroke-width="1.1">
            <line clip-path="url(#clipPath83)" fill="none" x1="50"
                x2="50" y1="548" y2="208"/>
            <line clip-path="url(#clipPath83)" fill="none" x1="50"
                x2="412" y1="208" y2="208"/>
            <line clip-path="url(#clipPath83)" fill="none" x1="412"
                x2="412" y1="208" y2="176"/>
            <polygon fill="white" clip-path="url(#clipPath66)"
                points=" 412 176 418 190 406 190" stroke="none"/>
            <polygon fill="none" stroke-dasharray="none"
                clip-path="url(#clipPath66)" points=" 412 176 418 190 406 190"/>
        </g>
        <g stroke-width="1.1" font-size="15" font-family="'Cantarell'" stroke-linecap="butt">
            <rect x="751" y="347" clip-path="url(#clipPath84)" width="5"
                height="5" stroke="none"/>
            <rect x="751" y="347" clip-path="url(#clipPath84)"
                fill="none" width="5" height="5" stroke="white" stroke-width="1"/>
            <rect x="410" y="174" clip-path="url(#clipPath85)" width="5"
                height="5" stroke="none" stroke-width="1"/>
            <rect x="410" y="174" clip-path="url(#clipPath85)"
                fill="none" width="5" height="5" stroke="white" stroke-width="1"/>
            <rect x="751" y="206" clip-path="url(#clipPath86)" width="5"
                height="5" stroke="none" stroke-width="1"/>
            <rect x="751" y="206" clip-path="url(#clipPath86)"
                fill="none" width="5" height="5" stroke="white" stroke-width="1"/>
            <rect x="410" y="206" clip-path="url(#clipPath87)" width="5"
                height="5" stroke="none" stroke-width="1"/>
            <rect x="410" y="206" clip-path="url(#clipPath87)"
                fill="none" width="5" height="5" stroke="white" stroke-width="1"/>
        </g>
    </g>
</svg>
