<?xml version="1.0" encoding="UTF-8"?>
<svg stroke-dasharray="none" shape-rendering="auto"
    font-family="'Dialog'" width="761" text-rendering="auto"
    fill-opacity="1" color-interpolation="auto" color-rendering="auto"
    font-size="12" fill="black" stroke="black" image-rendering="auto"
    stroke-miterlimit="10" stroke-linecap="square"
    stroke-linejoin="miter" font-style="normal" height="544"
    stroke-width="1" stroke-dashoffset="0" font-weight="normal" stroke-opacity="1">
    <!--Generated by the Batik Graphics2D SVG Generator-->
    <defs id="genericDefs"/>
    <g>
        <defs id="defs1">
            <clipPath clipPathUnits="userSpaceOnUse" id="clipPath1">
                <path d="M-1 -1 L585 -1 L585 544 L-1 544 L-1 -1 Z"/>
            </clipPath>
            <clipPath clipPathUnits="userSpaceOnUse" id="clipPath2">
                <path d="M5 5 L70 5 L70 24 L5 24 L5 5 Z"/>
            </clipPath>
            <clipPath clipPathUnits="userSpaceOnUse" id="clipPath3">
                <path d="M70 5 L137 5 L137 24 L70 24 L70 5 Z"/>
            </clipPath>
            <clipPath clipPathUnits="userSpaceOnUse" id="clipPath4">
                <path d="M74 328 L358 328 L358 534 L74 534 L74 328 Z"/>
            </clipPath>
            <clipPath clipPathUnits="userSpaceOnUse" id="clipPath5">
                <path d="M148 330 L283 330 L283 349 L148 349 L148 330 Z"/>
            </clipPath>
            <clipPath clipPathUnits="userSpaceOnUse" id="clipPath6">
                <path d="M76 347 L356 347 L356 359 L76 359 L76 347 Z"/>
            </clipPath>
            <clipPath clipPathUnits="userSpaceOnUse" id="clipPath7">
                <path d="M77 360 L90 360 L90 379 L77 379 L77 360 Z"/>
            </clipPath>
            <clipPath clipPathUnits="userSpaceOnUse" id="clipPath8">
                <path d="M90 360 L152 360 L152 379 L90 379 L90 360 Z"/>
            </clipPath>
            <clipPath clipPathUnits="userSpaceOnUse" id="clipPath9">
                <path d="M152 360 L214 360 L214 379 L152 379 L152 360 Z"/>
            </clipPath>
            <clipPath clipPathUnits="userSpaceOnUse" id="clipPath10">
                <path d="M77 379 L90 379 L90 398 L77 398 L77 379 Z"/>
            </clipPath>
            <clipPath clipPathUnits="userSpaceOnUse" id="clipPath11">
                <path d="M90 379 L178 379 L178 398 L90 398 L90 379 Z"/>
            </clipPath>
            <clipPath clipPathUnits="userSpaceOnUse" id="clipPath12">
                <path d="M178 379 L347 379 L347 398 L178 398 L178 379 Z"/>
            </clipPath>
            <clipPath clipPathUnits="userSpaceOnUse" id="clipPath13">
                <path d="M77 398 L90 398 L90 417 L77 417 L77 398 Z"/>
            </clipPath>
            <clipPath clipPathUnits="userSpaceOnUse" id="clipPath14">
                <path d="M90 398 L156 398 L156 417 L90 417 L90 398 Z"/>
            </clipPath>
            <clipPath clipPathUnits="userSpaceOnUse" id="clipPath15">
                <path d="M156 398 L325 398 L325 417 L156 417 L156 398 Z"/>
            </clipPath>
            <clipPath clipPathUnits="userSpaceOnUse" id="clipPath16">
                <path d="M77 417 L90 417 L90 436 L77 436 L77 417 Z"/>
            </clipPath>
            <clipPath clipPathUnits="userSpaceOnUse" id="clipPath17">
                <path d="M90 417 L149 417 L149 436 L90 436 L90 417 Z"/>
            </clipPath>
            <clipPath clipPathUnits="userSpaceOnUse" id="clipPath18">
                <path d="M149 417 L217 417 L217 436 L149 436 L149 417 Z"/>
            </clipPath>
            <clipPath clipPathUnits="userSpaceOnUse" id="clipPath19">
                <path d="M77 436 L90 436 L90 455 L77 455 L77 436 Z"/>
            </clipPath>
            <clipPath clipPathUnits="userSpaceOnUse" id="clipPath20">
                <path d="M90 436 L155 436 L155 455 L90 455 L90 436 Z"/>
            </clipPath>
            <clipPath clipPathUnits="userSpaceOnUse" id="clipPath21">
                <path d="M155 436 L223 436 L223 455 L155 455 L155 436 Z"/>
            </clipPath>
            <clipPath clipPathUnits="userSpaceOnUse" id="clipPath22">
                <path d="M77 455 L90 455 L90 474 L77 474 L77 455 Z"/>
            </clipPath>
            <clipPath clipPathUnits="userSpaceOnUse" id="clipPath23">
                <path d="M90 455 L172 455 L172 474 L90 474 L90 455 Z"/>
            </clipPath>
            <clipPath clipPathUnits="userSpaceOnUse" id="clipPath24">
                <path d="M172 455 L255 455 L255 474 L172 474 L172 455 Z"/>
            </clipPath>
            <clipPath clipPathUnits="userSpaceOnUse" id="clipPath25">
                <path d="M77 474 L90 474 L90 493 L77 493 L77 474 Z"/>
            </clipPath>
            <clipPath clipPathUnits="userSpaceOnUse" id="clipPath26">
                <path d="M90 474 L202 474 L202 493 L90 493 L90 474 Z"/>
            </clipPath>
            <clipPath clipPathUnits="userSpaceOnUse" id="clipPath27">
                <path d="M202 474 L270 474 L270 493 L202 493 L202 474 Z"/>
            </clipPath>
            <clipPath clipPathUnits="userSpaceOnUse" id="clipPath28">
                <path d="M77 493 L90 493 L90 512 L77 512 L77 493 Z"/>
            </clipPath>
            <clipPath clipPathUnits="userSpaceOnUse" id="clipPath29">
                <path d="M90 493 L180 493 L180 512 L90 512 L90 493 Z"/>
            </clipPath>
            <clipPath clipPathUnits="userSpaceOnUse" id="clipPath30">
                <path d="M180 493 L248 493 L248 512 L180 512 L180 493 Z"/>
            </clipPath>
            <clipPath clipPathUnits="userSpaceOnUse" id="clipPath31">
                <path d="M77 512 L90 512 L90 531 L77 531 L77 512 Z"/>
            </clipPath>
            <clipPath clipPathUnits="userSpaceOnUse" id="clipPath32">
                <path d="M90 512 L251 512 L251 531 L90 531 L90 512 Z"/>
            </clipPath>
            <clipPath clipPathUnits="userSpaceOnUse" id="clipPath33">
                <path d="M251 512 L319 512 L319 531 L251 531 L251 512 Z"/>
            </clipPath>
            <clipPath clipPathUnits="userSpaceOnUse" id="clipPath34">
                <path d="M76 357 L356 357 L356 532 L76 532 L76 357 Z"/>
            </clipPath>
            <clipPath clipPathUnits="userSpaceOnUse" id="clipPath35">
                <path d="M183 36 L529 36 L529 261 L183 261 L183 36 Z"/>
            </clipPath>
            <clipPath clipPathUnits="userSpaceOnUse" id="clipPath36">
                <path d="M278 38 L433 38 L433 57 L278 57 L278 38 Z"/>
            </clipPath>
            <clipPath clipPathUnits="userSpaceOnUse" id="clipPath37">
                <path d="M185 55 L527 55 L527 67 L185 67 L185 55 Z"/>
            </clipPath>
            <clipPath clipPathUnits="userSpaceOnUse" id="clipPath38">
                <path d="M186 68 L199 68 L199 87 L186 87 L186 68 Z"/>
            </clipPath>
            <clipPath clipPathUnits="userSpaceOnUse" id="clipPath39">
                <path d="M199 68 L261 68 L261 87 L199 87 L199 68 Z"/>
            </clipPath>
            <clipPath clipPathUnits="userSpaceOnUse" id="clipPath40">
                <path d="M261 68 L323 68 L323 87 L261 87 L261 68 Z"/>
            </clipPath>
            <clipPath clipPathUnits="userSpaceOnUse" id="clipPath41">
                <path d="M186 87 L199 87 L199 106 L186 106 L186 87 Z"/>
            </clipPath>
            <clipPath clipPathUnits="userSpaceOnUse" id="clipPath42">
                <path d="M199 87 L280 87 L280 106 L199 106 L199 87 Z"/>
            </clipPath>
            <clipPath clipPathUnits="userSpaceOnUse" id="clipPath43">
                <path d="M280 87 L356 87 L356 106 L280 106 L280 87 Z"/>
            </clipPath>
            <clipPath clipPathUnits="userSpaceOnUse" id="clipPath44">
                <path d="M186 106 L199 106 L199 125 L186 125 L186 106 Z"/>
            </clipPath>
            <clipPath clipPathUnits="userSpaceOnUse" id="clipPath45">
                <path d="M199 106 L253 106 L253 125 L199 125 L199 106 Z"/>
            </clipPath>
            <clipPath clipPathUnits="userSpaceOnUse" id="clipPath46">
                <path d="M253 106 L365 106 L365 125 L253 125 L253 106 Z"/>
            </clipPath>
            <clipPath clipPathUnits="userSpaceOnUse" id="clipPath47">
                <path d="M186 125 L199 125 L199 144 L186 144 L186 125 Z"/>
            </clipPath>
            <clipPath clipPathUnits="userSpaceOnUse" id="clipPath48">
                <path d="M199 125 L266 125 L266 144 L199 144 L199 125 Z"/>
            </clipPath>
            <clipPath clipPathUnits="userSpaceOnUse" id="clipPath49">
                <path d="M266 125 L349 125 L349 144 L266 144 L266 125 Z"/>
            </clipPath>
            <clipPath clipPathUnits="userSpaceOnUse" id="clipPath50">
                <path d="M186 144 L199 144 L199 163 L186 163 L186 144 Z"/>
            </clipPath>
            <clipPath clipPathUnits="userSpaceOnUse" id="clipPath51">
                <path d="M199 144 L263 144 L263 163 L199 163 L199 144 Z"/>
            </clipPath>
            <clipPath clipPathUnits="userSpaceOnUse" id="clipPath52">
                <path d="M263 144 L331 144 L331 163 L263 163 L263 144 Z"/>
            </clipPath>
            <clipPath clipPathUnits="userSpaceOnUse" id="clipPath53">
                <path d="M186 163 L199 163 L199 182 L186 182 L186 163 Z"/>
            </clipPath>
            <clipPath clipPathUnits="userSpaceOnUse" id="clipPath54">
                <path d="M199 163 L241 163 L241 182 L199 182 L199 163 Z"/>
            </clipPath>
            <clipPath clipPathUnits="userSpaceOnUse" id="clipPath55">
                <path d="M241 163 L309 163 L309 182 L241 182 L241 163 Z"/>
            </clipPath>
            <clipPath clipPathUnits="userSpaceOnUse" id="clipPath56">
                <path d="M186 182 L199 182 L199 201 L186 201 L186 182 Z"/>
            </clipPath>
            <clipPath clipPathUnits="userSpaceOnUse" id="clipPath57">
                <path d="M199 182 L278 182 L278 201 L199 201 L199 182 Z"/>
            </clipPath>
            <clipPath clipPathUnits="userSpaceOnUse" id="clipPath58">
                <path d="M278 182 L437 182 L437 201 L278 201 L278 182 Z"/>
            </clipPath>
            <clipPath clipPathUnits="userSpaceOnUse" id="clipPath59">
                <path d="M186 201 L199 201 L199 220 L186 220 L186 201 Z"/>
            </clipPath>
            <clipPath clipPathUnits="userSpaceOnUse" id="clipPath60">
                <path d="M199 201 L286 201 L286 220 L199 220 L199 201 Z"/>
            </clipPath>
            <clipPath clipPathUnits="userSpaceOnUse" id="clipPath61">
                <path d="M286 201 L381 201 L381 220 L286 220 L286 201 Z"/>
            </clipPath>
            <clipPath clipPathUnits="userSpaceOnUse" id="clipPath62">
                <path d="M186 220 L199 220 L199 239 L186 239 L186 220 Z"/>
            </clipPath>
            <clipPath clipPathUnits="userSpaceOnUse" id="clipPath63">
                <path d="M199 220 L262 220 L262 239 L199 239 L199 220 Z"/>
            </clipPath>
            <clipPath clipPathUnits="userSpaceOnUse" id="clipPath64">
                <path d="M262 220 L401 220 L401 239 L262 239 L262 220 Z"/>
            </clipPath>
            <clipPath clipPathUnits="userSpaceOnUse" id="clipPath65">
                <path d="M186 239 L199 239 L199 258 L186 258 L186 239 Z"/>
            </clipPath>
            <clipPath clipPathUnits="userSpaceOnUse" id="clipPath66">
                <path d="M199 239 L256 239 L256 258 L199 258 L199 239 Z"/>
            </clipPath>
            <clipPath clipPathUnits="userSpaceOnUse" id="clipPath67">
                <path d="M256 239 L337 239 L337 258 L256 258 L256 239 Z"/>
            </clipPath>
            <clipPath clipPathUnits="userSpaceOnUse" id="clipPath68">
                <path d="M185 65 L527 65 L527 259 L185 259 L185 65 Z"/>
            </clipPath>
            <clipPath clipPathUnits="userSpaceOnUse" id="clipPath69">
                <path d="M438 326 L575 326 L575 407 L438 407 L438 326 Z"/>
            </clipPath>
            <clipPath clipPathUnits="userSpaceOnUse" id="clipPath70">
                <path d="M454 328 L559 328 L559 347 L454 347 L454 328 Z"/>
            </clipPath>
            <clipPath clipPathUnits="userSpaceOnUse" id="clipPath71">
                <path d="M462 347 L550 347 L550 366 L462 366 L462 347 Z"/>
            </clipPath>
            <clipPath clipPathUnits="userSpaceOnUse" id="clipPath72">
                <path d="M444 366 L569 366 L569 385 L444 385 L444 366 Z"/>
            </clipPath>
            <clipPath clipPathUnits="userSpaceOnUse" id="clipPath73">
                <path d="M440 383 L573 383 L573 395 L440 395 L440 383 Z"/>
            </clipPath>
            <clipPath clipPathUnits="userSpaceOnUse" id="clipPath74">
                <path d="M440 393 L573 393 L573 405 L440 405 L440 393 Z"/>
            </clipPath>
            <clipPath clipPathUnits="userSpaceOnUse" id="clipPath75">
                <path d="M-1 246 L381 246 L381 344 L-1 344 L-1 246 Z"/>
            </clipPath>
            <clipPath clipPathUnits="userSpaceOnUse" id="clipPath76">
                <path d="M224 301 L351 301 L351 320 L224 320 L224 301 Z"/>
            </clipPath>
            <clipPath clipPathUnits="userSpaceOnUse" id="clipPath77">
                <path d="M196 301 L206 301 L206 320 L196 320 L196 301 Z"/>
            </clipPath>
            <clipPath clipPathUnits="userSpaceOnUse" id="clipPath78">
                <path d="M209 259 L222 259 L222 282 L209 282 L209 259 Z"/>
            </clipPath>
            <clipPath clipPathUnits="userSpaceOnUse" id="clipPath79">
                <path d="M443 246 L740 246 L740 342 L443 342 L443 246 Z"/>
            </clipPath>
            <clipPath clipPathUnits="userSpaceOnUse" id="clipPath80">
                <path d="M493 303 L569 303 L569 322 L493 322 L493 303 Z"/>
            </clipPath>
            <clipPath clipPathUnits="userSpaceOnUse" id="clipPath81">
                <path d="M471 304 L481 304 L481 323 L471 323 L471 304 Z"/>
            </clipPath>
            <clipPath clipPathUnits="userSpaceOnUse" id="clipPath82">
                <path d="M480 259 L493 259 L493 282 L480 282 L480 259 Z"/>
            </clipPath>
        </defs>
        <g font-size="15" fill="white" font-family="'Ubuntu'"
            stroke-linejoin="round" stroke="white" stroke-width="0" stroke-miterlimit="0">
            <rect x="0" y="0" clip-path="url(#clipPath1)" width="584"
                height="543" stroke="none"/>
        </g>
        <g stroke-width="0.1" font-size="15" font-family="'Ubuntu'" stroke-linecap="butt">
            <line clip-path="url(#clipPath1)" fill="none" x1="1"
                x2="141" y1="31" y2="31"/>
            <line clip-path="url(#clipPath1)" fill="none" x1="141"
                x2="148" y1="31" y2="17"/>
            <line clip-path="url(#clipPath1)" fill="none" x1="148"
                x2="148" y1="17" y2="1"/>
            <text x="6" y="20" clip-path="url(#clipPath2)" stroke="none"
                font-weight="bold" xml:space="preserve">package </text>
            <text font-size="13" x="71" y="19"
                clip-path="url(#clipPath3)" font-family="'Dialog'"
                stroke="none" xml:space="preserve">strategies</text>
            <rect x="75" y="329" clip-path="url(#clipPath4)"
                fill="rgb(200,230,255)" width="282" height="204" stroke="none"/>
            <text font-size="13" x="149" y="344"
                clip-path="url(#clipPath5)" font-family="'Dialog'"
                stroke="none" font-weight="bold" xml:space="preserve">TunableManeuver</text>
            <line clip-path="url(#clipPath6)" fill="none" x1="77"
                x2="355" y1="348" y2="348"/>
            <text font-size="13" x="78" y="374"
                clip-path="url(#clipPath7)" font-family="'Dialog'"
                stroke="none" xml:space="preserve">+</text>
            <text font-size="13" x="91" y="374"
                clip-path="url(#clipPath8)" font-family="'Dialog'"
                stroke="none" xml:space="preserve">getName</text>
            <text font-size="13" x="153" y="374"
                clip-path="url(#clipPath9)" font-family="'Dialog'"
                stroke="none" xml:space="preserve">() : String</text>
            <text font-size="13" x="78" y="393"
                clip-path="url(#clipPath10)" font-family="'Dialog'"
                stroke="none" xml:space="preserve">+</text>
            <text font-size="13" x="91" y="393"
                clip-path="url(#clipPath11)" font-family="'Dialog'"
                stroke="none" xml:space="preserve">updateThrust</text>
            <text font-size="13" x="179" y="393"
                clip-path="url(#clipPath12)" font-family="'Dialog'"
                stroke="none" xml:space="preserve">(consumedMass : double)</text>
            <text font-size="13" x="78" y="412"
                clip-path="url(#clipPath13)" font-family="'Dialog'"
                stroke="none" xml:space="preserve">+</text>
            <text font-size="13" x="91" y="412"
                clip-path="url(#clipPath14)" font-family="'Dialog'"
                stroke="none" xml:space="preserve">updateIsp</text>
            <text font-size="13" x="157" y="412"
                clip-path="url(#clipPath15)" font-family="'Dialog'"
                stroke="none" xml:space="preserve">(consumedMass : double)</text>
            <text font-size="13" x="78" y="431"
                clip-path="url(#clipPath16)" font-family="'Dialog'"
                stroke="none" xml:space="preserve">+</text>
            <text font-size="13" x="91" y="431"
                clip-path="url(#clipPath17)" font-family="'Dialog'"
                stroke="none" xml:space="preserve">getDVinf</text>
            <text font-size="13" x="150" y="431"
                clip-path="url(#clipPath18)" font-family="'Dialog'"
                stroke="none" xml:space="preserve">() : double</text>
            <text font-size="13" x="78" y="450"
                clip-path="url(#clipPath19)" font-family="'Dialog'"
                stroke="none" xml:space="preserve">+</text>
            <text font-size="13" x="91" y="450"
                clip-path="url(#clipPath20)" font-family="'Dialog'"
                stroke="none" xml:space="preserve">getDVsup</text>
            <text font-size="13" x="156" y="450"
                clip-path="url(#clipPath21)" font-family="'Dialog'"
                stroke="none" xml:space="preserve">() : double</text>
            <text font-size="13" x="78" y="469"
                clip-path="url(#clipPath22)" font-family="'Dialog'"
                stroke="none" xml:space="preserve">+</text>
            <text font-size="13" x="91" y="469"
                clip-path="url(#clipPath23)" font-family="'Dialog'"
                stroke="none" xml:space="preserve">getDirection</text>
            <text font-size="13" x="173" y="469"
                clip-path="url(#clipPath24)" font-family="'Dialog'"
                stroke="none" xml:space="preserve">() : Vector3D</text>
            <text font-size="13" x="78" y="488"
                clip-path="url(#clipPath25)" font-family="'Dialog'"
                stroke="none" xml:space="preserve">+</text>
            <text font-size="13" x="91" y="488"
                clip-path="url(#clipPath26)" font-family="'Dialog'"
                stroke="none" xml:space="preserve">getCurrentThrust</text>
            <text font-size="13" x="203" y="488"
                clip-path="url(#clipPath27)" font-family="'Dialog'"
                stroke="none" xml:space="preserve">() : double</text>
            <text font-size="13" x="78" y="507"
                clip-path="url(#clipPath28)" font-family="'Dialog'"
                stroke="none" xml:space="preserve">+</text>
            <text font-size="13" x="91" y="507"
                clip-path="url(#clipPath29)" font-family="'Dialog'"
                stroke="none" xml:space="preserve">getCurrentIsp</text>
            <text font-size="13" x="181" y="507"
                clip-path="url(#clipPath30)" font-family="'Dialog'"
                stroke="none" xml:space="preserve">() : double</text>
            <text font-size="13" x="78" y="526"
                clip-path="url(#clipPath31)" font-family="'Dialog'"
                stroke="none" xml:space="preserve">+</text>
            <text font-size="13" x="91" y="526"
                clip-path="url(#clipPath32)" font-family="'Dialog'"
                stroke="none" xml:space="preserve">getEliminationThreshold</text>
            <text font-size="13" x="252" y="526"
                clip-path="url(#clipPath33)" font-family="'Dialog'"
                stroke="none" xml:space="preserve">() : double</text>
            <line clip-path="url(#clipPath34)" fill="none" x1="77"
                x2="355" y1="358" y2="358"/>
            <rect x="75" y="329" clip-path="url(#clipPath4)" fill="none"
                width="281" height="203" stroke-width="1.1"/>
            <rect x="184" y="37" clip-path="url(#clipPath35)"
                fill="rgb(200,230,255)" width="344" height="223"
                stroke="none" stroke-width="1.1"/>
        </g>
        <g stroke-width="1.1" font-size="13" font-weight="bold" stroke-linecap="butt">
            <text xml:space="preserve" x="279" y="52"
                clip-path="url(#clipPath36)" stroke="none">ScheduledManeuver</text>
        </g>
        <g stroke-width="0.1" font-size="15" font-family="'Ubuntu'" stroke-linecap="butt">
            <line clip-path="url(#clipPath37)" fill="none" x1="186"
                x2="526" y1="56" y2="56"/>
            <text font-size="13" x="187" y="82"
                clip-path="url(#clipPath38)" font-family="'Dialog'"
                stroke="none" xml:space="preserve">+</text>
            <text font-size="13" x="200" y="82"
                clip-path="url(#clipPath39)" font-family="'Dialog'"
                stroke="none" xml:space="preserve">getName</text>
            <text font-size="13" x="262" y="82"
                clip-path="url(#clipPath40)" font-family="'Dialog'"
                stroke="none" xml:space="preserve">() : String</text>
            <text font-size="13" x="187" y="101"
                clip-path="url(#clipPath41)" font-family="'Dialog'"
                stroke="none" xml:space="preserve">+</text>
            <text font-size="13" x="200" y="101"
                clip-path="url(#clipPath42)" font-family="'Dialog'"
                stroke="none" xml:space="preserve">isReplanned</text>
            <text font-size="13" x="281" y="101"
                clip-path="url(#clipPath43)" font-family="'Dialog'"
                stroke="none" xml:space="preserve">() : boolean</text>
            <text font-size="13" x="187" y="120"
                clip-path="url(#clipPath44)" font-family="'Dialog'"
                stroke="none" xml:space="preserve">+</text>
            <text font-size="13" x="200" y="120"
                clip-path="url(#clipPath45)" font-family="'Dialog'"
                stroke="none" xml:space="preserve">getDate</text>
            <text font-size="13" x="254" y="120"
                clip-path="url(#clipPath46)" font-family="'Dialog'"
                stroke="none" xml:space="preserve">() : AbsoluteDate</text>
            <text font-size="13" x="187" y="139"
                clip-path="url(#clipPath47)" font-family="'Dialog'"
                stroke="none" xml:space="preserve">+</text>
            <text font-size="13" x="200" y="139"
                clip-path="url(#clipPath48)" font-family="'Dialog'"
                stroke="none" xml:space="preserve">getDeltaV</text>
            <text font-size="13" x="267" y="139"
                clip-path="url(#clipPath49)" font-family="'Dialog'"
                stroke="none" xml:space="preserve">() : Vector3D</text>
            <text font-size="13" x="187" y="158"
                clip-path="url(#clipPath50)" font-family="'Dialog'"
                stroke="none" xml:space="preserve">+</text>
            <text font-size="13" x="200" y="158"
                clip-path="url(#clipPath51)" font-family="'Dialog'"
                stroke="none" xml:space="preserve">getThrust</text>
            <text font-size="13" x="264" y="158"
                clip-path="url(#clipPath52)" font-family="'Dialog'"
                stroke="none" xml:space="preserve">() : double</text>
            <text font-size="13" x="187" y="177"
                clip-path="url(#clipPath53)" font-family="'Dialog'"
                stroke="none" xml:space="preserve">+</text>
            <text font-size="13" x="200" y="177"
                clip-path="url(#clipPath54)" font-family="'Dialog'"
                stroke="none" xml:space="preserve">getIsp</text>
            <text font-size="13" x="242" y="177"
                clip-path="url(#clipPath55)" font-family="'Dialog'"
                stroke="none" xml:space="preserve">() : double</text>
            <text font-size="13" x="187" y="196"
                clip-path="url(#clipPath56)" font-family="'Dialog'"
                stroke="none" xml:space="preserve">+</text>
            <text font-size="13" x="200" y="196"
                clip-path="url(#clipPath57)" font-family="'Dialog'"
                stroke="none" xml:space="preserve">getDuration</text>
            <text font-size="13" x="279" y="196"
                clip-path="url(#clipPath58)" font-family="'Dialog'"
                stroke="none" xml:space="preserve">(mass : double) : double</text>
            <text font-size="13" x="187" y="215"
                clip-path="url(#clipPath59)" font-family="'Dialog'"
                stroke="none" xml:space="preserve">+</text>
            <text font-size="13" x="200" y="215"
                clip-path="url(#clipPath60)" font-family="'Dialog'"
                stroke="none" xml:space="preserve">getTrajectory</text>
            <text font-size="13" x="287" y="215"
                clip-path="url(#clipPath61)" font-family="'Dialog'"
                stroke="none" xml:space="preserve">() : Propagator</text>
            <text font-size="13" x="187" y="234"
                clip-path="url(#clipPath62)" font-family="'Dialog'"
                stroke="none" xml:space="preserve">+</text>
            <text font-size="13" x="200" y="234"
                clip-path="url(#clipPath63)" font-family="'Dialog'"
                stroke="none" xml:space="preserve">getModel</text>
            <text font-size="13" x="263" y="234"
                clip-path="url(#clipPath64)" font-family="'Dialog'"
                stroke="none" xml:space="preserve">() : TunableManeuver</text>
            <text font-size="13" x="187" y="253"
                clip-path="url(#clipPath65)" font-family="'Dialog'"
                stroke="none" xml:space="preserve">+</text>
            <text font-size="13" x="200" y="253"
                clip-path="url(#clipPath66)" font-family="'Dialog'"
                stroke="none" xml:space="preserve">getState</text>
            <text font-size="13" x="257" y="253"
                clip-path="url(#clipPath67)" font-family="'Dialog'"
                stroke="none" xml:space="preserve">(dt : double)</text>
            <line clip-path="url(#clipPath68)" fill="none" x1="186"
                x2="526" y1="66" y2="66"/>
            <rect x="184" y="37" clip-path="url(#clipPath35)"
                fill="none" width="343" height="222" stroke-width="1.1"/>
            <rect x="439" y="327" clip-path="url(#clipPath69)"
                fill="rgb(243,232,255)" width="135" height="79"
                stroke="none" stroke-width="1.1"/>
        </g>
        <g fill="rgb(41,0,141)" stroke-width="1.1" font-size="13"
            stroke-linecap="butt" stroke="rgb(41,0,141)">
            <text xml:space="preserve" x="455" y="342"
                clip-path="url(#clipPath70)" stroke="none">&lt;&lt;dataType&gt;&gt;</text>
            <text x="463" y="361" clip-path="url(#clipPath71)"
                stroke="none" font-weight="bold" xml:space="preserve">Propagator</text>
            <text xml:space="preserve" x="445" y="380"
                clip-path="url(#clipPath72)" stroke="none">(from propagation)</text>
            <line clip-path="url(#clipPath73)" fill="none" x1="441"
                x2="572" y1="384" y2="384" stroke-width="0.1"/>
            <line clip-path="url(#clipPath74)" fill="none" x1="441"
                x2="572" y1="394" y2="394" stroke-width="0.1"/>
            <rect x="439" y="327" clip-path="url(#clipPath69)"
                fill="none" width="134" height="78"/>
        </g>
        <g stroke-width="1.1" font-size="15" font-family="'Ubuntu'" stroke-linecap="butt">
            <rect x="0" y="0" clip-path="url(#clipPath1)" fill="none"
                width="583" height="542"/>
            <line clip-path="url(#clipPath75)" fill="none" x1="215"
                x2="215" y1="260" y2="329"/>
            <text font-size="13" x="225" y="315"
                clip-path="url(#clipPath76)" font-family="'Dialog'"
                stroke="none" xml:space="preserve">+tunableManeuver</text>
            <text font-size="13" x="197" y="315"
                clip-path="url(#clipPath77)" font-family="'Dialog'"
                stroke="none" xml:space="preserve">1</text>
        </g>
        <g fill="white" stroke-width="1.1" font-size="13"
            stroke-linecap="butt" stroke="white">
            <polygon clip-path="url(#clipPath78)"
                points=" 215 260 220 270 215 280 210 270" stroke="none"/>
            <polygon fill="none" clip-path="url(#clipPath78)"
                points=" 215 260 220 270 215 280 210 270" stroke="black"/>
            <line clip-path="url(#clipPath79)" fill="none" x1="486"
                x2="486" y1="260" y2="327" stroke="black"/>
            <text x="494" y="317" clip-path="url(#clipPath80)"
                fill="black" stroke="none" xml:space="preserve">+trajectory</text>
            <text x="472" y="318" clip-path="url(#clipPath81)"
                fill="black" stroke="none" xml:space="preserve">1</text>
            <polygon clip-path="url(#clipPath82)"
                points=" 486 260 491 270 486 280 481 270" stroke="none"/>
            <polygon fill="none" clip-path="url(#clipPath82)"
                points=" 486 260 491 270 486 280 481 270" stroke="black"/>
        </g>
    </g>
</svg>
