<?xml version="1.0" encoding="UTF-8"?>
<svg stroke-dasharray="none" shape-rendering="auto"
    font-family="'Dialog'" width="801" text-rendering="auto"
    fill-opacity="1" color-interpolation="auto" color-rendering="auto"
    font-size="12" fill="black" stroke="black" image-rendering="auto"
    stroke-miterlimit="10" stroke-linecap="square"
    stroke-linejoin="miter" font-style="normal" height="1149"
    stroke-width="1" stroke-dashoffset="0" font-weight="normal" stroke-opacity="1">
    <!--Generated by the Batik Graphics2D SVG Generator-->
    <defs id="genericDefs"/>
    <g>
        <defs id="defs1">
            <clipPath clipPathUnits="userSpaceOnUse" id="clipPath1">
                <path d="M-1 -1 L801 -1 L801 1149 L-1 1149 L-1 -1 Z"/>
            </clipPath>
            <clipPath clipPathUnits="userSpaceOnUse" id="clipPath2">
                <path d="M5 7 L65 7 L65 22 L5 22 L5 7 Z"/>
            </clipPath>
            <clipPath clipPathUnits="userSpaceOnUse" id="clipPath3">
                <path d="M65 5 L131 5 L131 24 L65 24 L65 5 Z"/>
            </clipPath>
            <clipPath clipPathUnits="userSpaceOnUse" id="clipPath4">
                <path d="M111 240 L144 240 L144 263 L111 263 L111 240 Z"/>
            </clipPath>
            <clipPath clipPathUnits="userSpaceOnUse" id="clipPath5">
                <path d="M114 243 L140 243 L140 262 L114 262 L114 243 Z"/>
            </clipPath>
            <clipPath clipPathUnits="userSpaceOnUse" id="clipPath6">
                <path d="M111 261 L393 261 L393 412 L111 412 L111 261 Z"/>
            </clipPath>
            <clipPath clipPathUnits="userSpaceOnUse" id="clipPath7">
                <path d="M126 275 L303 275 L303 318 L126 318 L126 275 Z"/>
            </clipPath>
            <clipPath clipPathUnits="userSpaceOnUse" id="clipPath8">
                <path d="M133 277 L296 277 L296 296 L133 296 L133 277 Z"/>
            </clipPath>
            <clipPath clipPathUnits="userSpaceOnUse" id="clipPath9">
                <path d="M128 294 L301 294 L301 306 L128 306 L128 294 Z"/>
            </clipPath>
            <clipPath clipPathUnits="userSpaceOnUse" id="clipPath10">
                <path d="M128 304 L301 304 L301 316 L128 316 L128 304 Z"/>
            </clipPath>
            <clipPath clipPathUnits="userSpaceOnUse" id="clipPath11">
                <path d="M243 336 L385 336 L385 379 L243 379 L243 336 Z"/>
            </clipPath>
            <clipPath clipPathUnits="userSpaceOnUse" id="clipPath12">
                <path d="M250 338 L378 338 L378 357 L250 357 L250 338 Z"/>
            </clipPath>
            <clipPath clipPathUnits="userSpaceOnUse" id="clipPath13">
                <path d="M245 355 L383 355 L383 367 L245 367 L245 355 Z"/>
            </clipPath>
            <clipPath clipPathUnits="userSpaceOnUse" id="clipPath14">
                <path d="M245 365 L383 365 L383 377 L245 377 L245 365 Z"/>
            </clipPath>
            <clipPath clipPathUnits="userSpaceOnUse" id="clipPath15">
                <path d="M474 274 L502 274 L502 297 L474 297 L474 274 Z"/>
            </clipPath>
            <clipPath clipPathUnits="userSpaceOnUse" id="clipPath16">
                <path d="M477 277 L498 277 L498 296 L477 296 L477 277 Z"/>
            </clipPath>
            <clipPath clipPathUnits="userSpaceOnUse" id="clipPath17">
                <path d="M474 295 L673 295 L673 376 L474 376 L474 295 Z"/>
            </clipPath>
            <clipPath clipPathUnits="userSpaceOnUse" id="clipPath18">
                <path d="M486 308 L626 308 L626 351 L486 351 L486 308 Z"/>
            </clipPath>
            <clipPath clipPathUnits="userSpaceOnUse" id="clipPath19">
                <path d="M493 310 L619 310 L619 329 L493 329 L493 310 Z"/>
            </clipPath>
            <clipPath clipPathUnits="userSpaceOnUse" id="clipPath20">
                <path d="M488 327 L624 327 L624 339 L488 339 L488 327 Z"/>
            </clipPath>
            <clipPath clipPathUnits="userSpaceOnUse" id="clipPath21">
                <path d="M488 337 L624 337 L624 349 L488 349 L488 337 Z"/>
            </clipPath>
            <clipPath clipPathUnits="userSpaceOnUse" id="clipPath22">
                <path d="M438 78 L624 78 L624 147 L438 147 L438 78 Z"/>
            </clipPath>
            <clipPath clipPathUnits="userSpaceOnUse" id="clipPath23">
                <path d="M487 80 L575 80 L575 95 L487 95 L487 80 Z"/>
            </clipPath>
            <clipPath clipPathUnits="userSpaceOnUse" id="clipPath24">
                <path d="M471 95 L591 95 L591 110 L471 110 L471 95 Z"/>
            </clipPath>
            <clipPath clipPathUnits="userSpaceOnUse" id="clipPath25">
                <path d="M484 110 L577 110 L577 125 L484 125 L484 110 Z"/>
            </clipPath>
            <clipPath clipPathUnits="userSpaceOnUse" id="clipPath26">
                <path d="M440 123 L622 123 L622 135 L440 135 L440 123 Z"/>
            </clipPath>
            <clipPath clipPathUnits="userSpaceOnUse" id="clipPath27">
                <path d="M440 133 L622 133 L622 145 L440 145 L440 133 Z"/>
            </clipPath>
            <clipPath clipPathUnits="userSpaceOnUse" id="clipPath28">
                <path d="M64 58 L277 58 L277 176 L64 176 L64 58 Z"/>
            </clipPath>
            <clipPath clipPathUnits="userSpaceOnUse" id="clipPath29">
                <path d="M126 60 L214 60 L214 75 L126 75 L126 60 Z"/>
            </clipPath>
            <clipPath clipPathUnits="userSpaceOnUse" id="clipPath30">
                <path d="M137 75 L203 75 L203 90 L137 90 L137 75 Z"/>
            </clipPath>
            <clipPath clipPathUnits="userSpaceOnUse" id="clipPath31">
                <path d="M130 90 L210 90 L210 105 L130 105 L130 90 Z"/>
            </clipPath>
            <clipPath clipPathUnits="userSpaceOnUse" id="clipPath32">
                <path d="M66 103 L275 103 L275 115 L66 115 L66 103 Z"/>
            </clipPath>
            <clipPath clipPathUnits="userSpaceOnUse" id="clipPath33">
                <path d="M67 116 L80 116 L80 135 L67 135 L67 116 Z"/>
            </clipPath>
            <clipPath clipPathUnits="userSpaceOnUse" id="clipPath34">
                <path d="M80 116 L142 116 L142 135 L80 135 L80 116 Z"/>
            </clipPath>
            <clipPath clipPathUnits="userSpaceOnUse" id="clipPath35">
                <path d="M142 116 L204 116 L204 135 L142 135 L142 116 Z"/>
            </clipPath>
            <clipPath clipPathUnits="userSpaceOnUse" id="clipPath36">
                <path d="M67 135 L80 135 L80 154 L67 154 L67 135 Z"/>
            </clipPath>
            <clipPath clipPathUnits="userSpaceOnUse" id="clipPath37">
                <path d="M80 135 L177 135 L177 154 L80 154 L80 135 Z"/>
            </clipPath>
            <clipPath clipPathUnits="userSpaceOnUse" id="clipPath38">
                <path d="M177 135 L244 135 L244 154 L177 154 L177 135 Z"/>
            </clipPath>
            <clipPath clipPathUnits="userSpaceOnUse" id="clipPath39">
                <path d="M67 154 L80 154 L80 173 L67 173 L67 154 Z"/>
            </clipPath>
            <clipPath clipPathUnits="userSpaceOnUse" id="clipPath40">
                <path d="M80 154 L196 154 L196 173 L80 173 L80 154 Z"/>
            </clipPath>
            <clipPath clipPathUnits="userSpaceOnUse" id="clipPath41">
                <path d="M196 154 L263 154 L263 173 L196 173 L196 154 Z"/>
            </clipPath>
            <clipPath clipPathUnits="userSpaceOnUse" id="clipPath42">
                <path d="M66 113 L275 113 L275 174 L66 174 L66 113 Z"/>
            </clipPath>
            <clipPath clipPathUnits="userSpaceOnUse" id="clipPath43">
                <path d="M235 132 L564 132 L564 291 L235 291 L235 132 Z"/>
            </clipPath>
            <clipPath clipPathUnits="userSpaceOnUse" id="clipPath44">
                <path d="M536 145 L551 145 L551 162 L536 162 L536 145 Z"/>
            </clipPath>
            <clipPath clipPathUnits="userSpaceOnUse" id="clipPath45">
                <path d="M172 161 L213 161 L213 291 L172 291 L172 161 Z"/>
            </clipPath>
            <clipPath clipPathUnits="userSpaceOnUse" id="clipPath46">
                <path d="M185 174 L200 174 L200 191 L185 191 L185 174 Z"/>
            </clipPath>
            <clipPath clipPathUnits="userSpaceOnUse" id="clipPath47">
                <path d="M338 132 L564 132 L564 352 L338 352 L338 132 Z"/>
            </clipPath>
            <clipPath clipPathUnits="userSpaceOnUse" id="clipPath48">
                <path d="M172 161 L323 161 L323 352 L172 352 L172 161 Z"/>
            </clipPath>
            <clipPath clipPathUnits="userSpaceOnUse" id="clipPath49">
                <path d="M523 132 L564 132 L564 324 L523 324 L523 132 Z"/>
            </clipPath>
            <clipPath clipPathUnits="userSpaceOnUse" id="clipPath50">
                <path d="M172 161 L533 161 L533 324 L172 324 L172 161 Z"/>
            </clipPath>
        </defs>
        <g font-size="11" fill="white" stroke-linejoin="round"
            stroke="white" stroke-width="0" stroke-miterlimit="0">
            <rect x="0" y="0" clip-path="url(#clipPath1)" width="800"
                height="1148" stroke="none"/>
        </g>
        <g stroke-width="0.1" font-size="11" stroke-linecap="butt">
            <line clip-path="url(#clipPath1)" fill="none" x1="1"
                x2="135" y1="31" y2="31"/>
            <line clip-path="url(#clipPath1)" fill="none" x1="135"
                x2="142" y1="31" y2="17"/>
            <line clip-path="url(#clipPath1)" fill="none" x1="142"
                x2="142" y1="17" y2="1"/>
            <text x="6" y="19" clip-path="url(#clipPath2)" stroke="none"
                font-weight="bold" xml:space="preserve">package </text>
            <text font-size="13" x="66" y="19"
                clip-path="url(#clipPath3)" stroke="none" xml:space="preserve">strategies</text>
            <rect x="112" y="241" clip-path="url(#clipPath4)"
                fill="rgb(236,235,216)" width="31" height="21" stroke="none"/>
            <text font-size="13" x="115" y="257"
                clip-path="url(#clipPath5)" stroke="none" xml:space="preserve">geo</text>
            <line clip-path="url(#clipPath4)" fill="none" x1="113"
                x2="113" y1="262" y2="241" stroke-width="2.1"/>
            <line clip-path="url(#clipPath4)" fill="none" x1="112"
                x2="143" y1="242" y2="242" stroke-width="2.1"/>
            <line clip-path="url(#clipPath4)" fill="none" x1="142"
                x2="142" y1="241" y2="262" stroke-width="2.1"/>
            <rect x="112" y="262" clip-path="url(#clipPath6)"
                fill="rgb(236,235,216)" width="280" height="149"
                stroke="none" stroke-width="2.1"/>
            <rect x="127" y="276" clip-path="url(#clipPath7)"
                fill="rgb(237,247,200)" width="175" height="41"
                stroke="none" stroke-width="2.1"/>
        </g>
        <g font-size="13" stroke-linecap="butt" fill="rgb(106,88,75)"
            stroke="rgb(106,88,75)" font-weight="bold" stroke-width="2.1">
            <text xml:space="preserve" x="134" y="291"
                clip-path="url(#clipPath8)" stroke="none">LongitudeSlotMargins</text>
            <line clip-path="url(#clipPath9)" fill="none" x1="129"
                x2="300" y1="295" y2="295" stroke-width="0.1"/>
            <line clip-path="url(#clipPath10)" fill="none" x1="129"
                x2="300" y1="305" y2="305" stroke-width="0.1"/>
            <rect x="127" y="276" clip-path="url(#clipPath7)"
                fill="none" width="174" height="40" stroke-width="1.1"/>
        </g>
        <g fill="rgb(237,247,200)" stroke-width="1.1" font-size="11"
            stroke-linecap="butt" stroke="rgb(237,247,200)">
            <rect x="244" y="337" clip-path="url(#clipPath11)"
                width="140" height="41" stroke="none"/>
        </g>
        <g font-size="13" stroke-linecap="butt" fill="rgb(106,88,75)"
            stroke="rgb(106,88,75)" font-weight="bold" stroke-width="1.1">
            <text xml:space="preserve" x="251" y="352"
                clip-path="url(#clipPath12)" stroke="none">EccentricityCircle</text>
            <line clip-path="url(#clipPath13)" fill="none" x1="246"
                x2="382" y1="356" y2="356" stroke-width="0.1"/>
            <line clip-path="url(#clipPath14)" fill="none" x1="246"
                x2="382" y1="366" y2="366" stroke-width="0.1"/>
            <rect x="244" y="337" clip-path="url(#clipPath11)"
                fill="none" width="139" height="40"/>
        </g>
        <g stroke-width="2.1" font-size="11" stroke-linecap="butt">
            <rect x="113" y="263" clip-path="url(#clipPath6)"
                fill="none" width="278" height="147"/>
            <rect x="475" y="275" clip-path="url(#clipPath15)"
                fill="rgb(236,235,216)" width="26" height="21" stroke="none"/>
            <text font-size="13" x="478" y="291"
                clip-path="url(#clipPath16)" stroke="none" xml:space="preserve">leo</text>
            <line clip-path="url(#clipPath15)" fill="none" x1="476"
                x2="476" y1="296" y2="275"/>
            <line clip-path="url(#clipPath15)" fill="none" x1="475"
                x2="501" y1="276" y2="276"/>
            <line clip-path="url(#clipPath15)" fill="none" x1="500"
                x2="500" y1="275" y2="296"/>
            <rect x="475" y="296" clip-path="url(#clipPath17)"
                fill="rgb(236,235,216)" width="197" height="79" stroke="none"/>
            <rect x="487" y="309" clip-path="url(#clipPath18)"
                fill="rgb(237,247,200)" width="138" height="41" stroke="none"/>
        </g>
        <g font-size="13" stroke-linecap="butt" fill="rgb(106,88,75)"
            stroke="rgb(106,88,75)" font-weight="bold" stroke-width="2.1">
            <text xml:space="preserve" x="494" y="324"
                clip-path="url(#clipPath19)" stroke="none">GroundTrackGrid</text>
            <line clip-path="url(#clipPath20)" fill="none" x1="489"
                x2="623" y1="328" y2="328" stroke-width="0.1"/>
            <line clip-path="url(#clipPath21)" fill="none" x1="489"
                x2="623" y1="338" y2="338" stroke-width="0.1"/>
            <rect x="487" y="309" clip-path="url(#clipPath18)"
                fill="none" width="137" height="40" stroke-width="1.1"/>
        </g>
        <g stroke-width="2.1" font-size="11" stroke-linecap="butt">
            <rect x="476" y="297" clip-path="url(#clipPath17)"
                fill="none" width="195" height="77"/>
            <rect x="439" y="79" clip-path="url(#clipPath22)"
                fill="rgb(243,232,255)" width="184" height="67" stroke="none"/>
            <text x="488" y="92" clip-path="url(#clipPath23)"
                fill="rgb(41,0,141)" stroke="none" xml:space="preserve">&lt;&lt;interface&gt;&gt;</text>
            <text x="472" y="107" clip-path="url(#clipPath24)"
                fill="rgb(41,0,141)" stroke="none" font-weight="bold" xml:space="preserve">OrekitStepHandler</text>
            <text x="485" y="122" clip-path="url(#clipPath25)"
                fill="rgb(41,0,141)" stroke="none" xml:space="preserve">(from sampling)</text>
            <line clip-path="url(#clipPath26)" fill="none" x1="441"
                x2="621" y1="124" y2="124" stroke="rgb(41,0,141)" stroke-width="0.1"/>
            <line clip-path="url(#clipPath27)" fill="none" x1="441"
                x2="621" y1="134" y2="134" stroke="rgb(41,0,141)" stroke-width="0.1"/>
            <rect x="439" y="79" clip-path="url(#clipPath22)"
                fill="none" width="183" height="66"
                stroke="rgb(41,0,141)" stroke-width="1.1"/>
            <rect x="65" y="59" clip-path="url(#clipPath28)"
                fill="rgb(244,232,212)" width="211" height="116"
                stroke="none" stroke-width="1.1"/>
            <text x="127" y="72" clip-path="url(#clipPath29)"
                fill="rgb(110,44,18)" stroke="none" stroke-width="1.1" xml:space="preserve">&lt;&lt;interface&gt;&gt;</text>
        </g>
        <g font-size="11" stroke-linecap="butt" fill="rgb(110,44,18)"
            stroke="rgb(110,44,18)" font-weight="bold" stroke-width="1.1">
            <text xml:space="preserve" x="138" y="87"
                clip-path="url(#clipPath30)" stroke="none">SKControl</text>
            <text x="131" y="102" clip-path="url(#clipPath31)"
                stroke="none" font-weight="normal" xml:space="preserve">(from control)</text>
            <line clip-path="url(#clipPath32)" fill="none" x1="67"
                x2="274" y1="104" y2="104" stroke-width="0.1"/>
        </g>
        <g stroke-width="0.1" font-size="13" stroke-linecap="butt">
            <text xml:space="preserve" x="68" y="130"
                clip-path="url(#clipPath33)" stroke="none">+</text>
            <text xml:space="preserve" x="81" y="130"
                clip-path="url(#clipPath34)" stroke="none">getName</text>
            <text xml:space="preserve" x="143" y="130"
                clip-path="url(#clipPath35)" stroke="none">() : String</text>
            <text xml:space="preserve" x="68" y="149"
                clip-path="url(#clipPath36)" stroke="none">+</text>
            <text xml:space="preserve" x="81" y="149"
                clip-path="url(#clipPath37)" stroke="none">getTargetValue</text>
            <text xml:space="preserve" x="178" y="149"
                clip-path="url(#clipPath38)" stroke="none">() : double</text>
            <text xml:space="preserve" x="68" y="168"
                clip-path="url(#clipPath39)" stroke="none">+</text>
            <text xml:space="preserve" x="81" y="168"
                clip-path="url(#clipPath40)" stroke="none">getAchievedValue</text>
            <text xml:space="preserve" x="197" y="168"
                clip-path="url(#clipPath41)" stroke="none">() : double</text>
            <line clip-path="url(#clipPath42)" fill="none" x1="67"
                x2="274" y1="114" y2="114" stroke="rgb(110,44,18)"/>
        </g>
        <g fill="rgb(110,44,18)" stroke-width="1.1" font-size="11"
            stroke-linecap="butt" stroke="rgb(110,44,18)">
            <rect x="65" y="59" clip-path="url(#clipPath28)" fill="none"
                width="210" height="115"/>
            <rect x="0" y="0" clip-path="url(#clipPath1)" fill="none"
                width="799" height="1147" stroke="black"/>
            <line clip-path="url(#clipPath43)" fill="none" x1="249"
                x2="249" y1="276" y2="199" stroke-dasharray="8,7" stroke="rgb(41,0,141)"/>
            <line clip-path="url(#clipPath43)" fill="none" x1="249"
                x2="543" y1="199" y2="199" stroke-dasharray="8,7" stroke="rgb(41,0,141)"/>
            <line clip-path="url(#clipPath43)" fill="none" x1="543"
                x2="543" y1="199" y2="146" stroke-dasharray="8,7" stroke="rgb(41,0,141)"/>
            <polygon fill="white" stroke-dasharray="8,7"
                clip-path="url(#clipPath44)"
                points=" 543 146 549 160 537 160" stroke="none"/>
            <polygon fill="none" clip-path="url(#clipPath44)"
                points=" 543 146 549 160 537 160" stroke="rgb(41,0,141)"/>
            <line clip-path="url(#clipPath45)" fill="none" x1="192"
                x2="192" y1="276" y2="175" stroke-dasharray="8,7"/>
            <polygon fill="white" stroke-dasharray="8,7"
                clip-path="url(#clipPath46)"
                points=" 192 175 198 189 186 189" stroke="none"/>
            <polygon fill="none" clip-path="url(#clipPath46)" points=" 192 175 198 189 186 189"/>
            <line clip-path="url(#clipPath47)" fill="none" x1="352"
                x2="352" y1="337" y2="199" stroke-dasharray="8,7" stroke="rgb(41,0,141)"/>
            <line clip-path="url(#clipPath47)" fill="none" x1="352"
                x2="543" y1="199" y2="199" stroke-dasharray="8,7" stroke="rgb(41,0,141)"/>
            <line clip-path="url(#clipPath47)" fill="none" x1="543"
                x2="543" y1="199" y2="146" stroke-dasharray="8,7" stroke="rgb(41,0,141)"/>
            <polygon fill="white" stroke-dasharray="8,7"
                clip-path="url(#clipPath44)"
                points=" 543 146 549 160 537 160" stroke="none"/>
            <polygon fill="none" clip-path="url(#clipPath44)"
                points=" 543 146 549 160 537 160" stroke="rgb(41,0,141)"/>
            <line clip-path="url(#clipPath48)" fill="none" x1="308"
                x2="308" y1="337" y2="223" stroke-dasharray="8,7"/>
            <line clip-path="url(#clipPath48)" fill="none" x1="308"
                x2="192" y1="223" y2="223" stroke-dasharray="8,7"/>
            <line clip-path="url(#clipPath48)" fill="none" x1="192"
                x2="192" y1="223" y2="175" stroke-dasharray="8,7"/>
            <polygon fill="white" stroke-dasharray="8,7"
                clip-path="url(#clipPath46)"
                points=" 192 175 198 189 186 189" stroke="none"/>
            <polygon fill="none" clip-path="url(#clipPath46)" points=" 192 175 198 189 186 189"/>
            <line clip-path="url(#clipPath49)" fill="none" x1="543"
                x2="543" y1="309" y2="146" stroke-dasharray="8,7" stroke="rgb(41,0,141)"/>
            <polygon fill="white" stroke-dasharray="8,7"
                clip-path="url(#clipPath44)"
                points=" 543 146 549 160 537 160" stroke="none"/>
            <polygon fill="none" clip-path="url(#clipPath44)"
                points=" 543 146 549 160 537 160" stroke="rgb(41,0,141)"/>
            <line clip-path="url(#clipPath50)" fill="none" x1="518"
                x2="518" y1="309" y2="223" stroke-dasharray="8,7"/>
            <line clip-path="url(#clipPath50)" fill="none" x1="518"
                x2="192" y1="223" y2="223" stroke-dasharray="8,7"/>
            <line clip-path="url(#clipPath50)" fill="none" x1="192"
                x2="192" y1="223" y2="175" stroke-dasharray="8,7"/>
            <polygon fill="white" stroke-dasharray="8,7"
                clip-path="url(#clipPath46)"
                points=" 192 175 198 189 186 189" stroke="none"/>
            <polygon fill="none" clip-path="url(#clipPath46)" points=" 192 175 198 189 186 189"/>
        </g>
    </g>
</svg>
