<?xml version="1.0" encoding="UTF-8"?>
<svg stroke-dasharray="none" shape-rendering="auto"
    font-family="'Dialog'" width="801" text-rendering="auto"
    fill-opacity="1" color-interpolation="auto" color-rendering="auto"
    font-size="12" fill="black" stroke="black" image-rendering="auto"
    stroke-miterlimit="10" stroke-linecap="square"
    stroke-linejoin="miter" font-style="normal" height="1149"
    stroke-width="1" stroke-dashoffset="0" font-weight="normal" stroke-opacity="1">
    <!--Generated by the Batik Graphics2D SVG Generator-->
    <defs id="genericDefs"/>
    <g>
        <defs id="defs1">
            <clipPath clipPathUnits="userSpaceOnUse" id="clipPath1">
                <path d="M-1 -1 L801 -1 L801 1149 L-1 1149 L-1 -1 Z"/>
            </clipPath>
            <clipPath clipPathUnits="userSpaceOnUse" id="clipPath2">
                <path d="M5 7 L65 7 L65 22 L5 22 L5 7 Z"/>
            </clipPath>
            <clipPath clipPathUnits="userSpaceOnUse" id="clipPath3">
                <path d="M65 5 L131 5 L131 24 L65 24 L65 5 Z"/>
            </clipPath>
            <clipPath clipPathUnits="userSpaceOnUse" id="clipPath4">
                <path d="M111 177 L364 177 L364 250 L111 250 L111 177 Z"/>
            </clipPath>
            <clipPath clipPathUnits="userSpaceOnUse" id="clipPath5">
                <path d="M172 179 L303 179 L303 198 L172 198 L172 179 Z"/>
            </clipPath>
            <clipPath clipPathUnits="userSpaceOnUse" id="clipPath6">
                <path d="M113 196 L362 196 L362 208 L113 208 L113 196 Z"/>
            </clipPath>
            <clipPath clipPathUnits="userSpaceOnUse" id="clipPath7">
                <path d="M114 209 L127 209 L127 228 L114 228 L114 209 Z"/>
            </clipPath>
            <clipPath clipPathUnits="userSpaceOnUse" id="clipPath8">
                <path d="M127 209 L224 209 L224 228 L127 228 L127 209 Z"/>
            </clipPath>
            <clipPath clipPathUnits="userSpaceOnUse" id="clipPath9">
                <path d="M224 209 L270 209 L270 228 L224 228 L224 209 Z"/>
            </clipPath>
            <clipPath clipPathUnits="userSpaceOnUse" id="clipPath10">
                <path d="M114 228 L127 228 L127 247 L114 247 L114 228 Z"/>
            </clipPath>
            <clipPath clipPathUnits="userSpaceOnUse" id="clipPath11">
                <path d="M127 228 L213 228 L213 247 L127 247 L127 228 Z"/>
            </clipPath>
            <clipPath clipPathUnits="userSpaceOnUse" id="clipPath12">
                <path d="M213 228 L350 228 L350 247 L213 247 L213 228 Z"/>
            </clipPath>
            <clipPath clipPathUnits="userSpaceOnUse" id="clipPath13">
                <path d="M113 206 L362 206 L362 248 L113 248 L113 206 Z"/>
            </clipPath>
            <clipPath clipPathUnits="userSpaceOnUse" id="clipPath14">
                <path d="M100 317 L323 317 L323 379 L100 379 L100 317 Z"/>
            </clipPath>
            <clipPath clipPathUnits="userSpaceOnUse" id="clipPath15">
                <path d="M160 319 L262 319 L262 338 L160 338 L160 319 Z"/>
            </clipPath>
            <clipPath clipPathUnits="userSpaceOnUse" id="clipPath16">
                <path d="M159 338 L264 338 L264 357 L159 357 L159 338 Z"/>
            </clipPath>
            <clipPath clipPathUnits="userSpaceOnUse" id="clipPath17">
                <path d="M102 355 L321 355 L321 367 L102 367 L102 355 Z"/>
            </clipPath>
            <clipPath clipPathUnits="userSpaceOnUse" id="clipPath18">
                <path d="M102 365 L321 365 L321 377 L102 377 L102 365 Z"/>
            </clipPath>
            <clipPath clipPathUnits="userSpaceOnUse" id="clipPath19">
                <path d="M488 63 L595 63 L595 132 L488 132 L488 63 Z"/>
            </clipPath>
            <clipPath clipPathUnits="userSpaceOnUse" id="clipPath20">
                <path d="M497 65 L585 65 L585 80 L497 80 L497 65 Z"/>
            </clipPath>
            <clipPath clipPathUnits="userSpaceOnUse" id="clipPath21">
                <path d="M495 80 L588 80 L588 95 L495 95 L495 80 Z"/>
            </clipPath>
            <clipPath clipPathUnits="userSpaceOnUse" id="clipPath22">
                <path d="M502 95 L581 95 L581 110 L502 110 L502 95 Z"/>
            </clipPath>
            <clipPath clipPathUnits="userSpaceOnUse" id="clipPath23">
                <path d="M490 108 L593 108 L593 120 L490 120 L490 108 Z"/>
            </clipPath>
            <clipPath clipPathUnits="userSpaceOnUse" id="clipPath24">
                <path d="M490 118 L593 118 L593 130 L490 130 L490 118 Z"/>
            </clipPath>
            <clipPath clipPathUnits="userSpaceOnUse" id="clipPath25">
                <path d="M392 319 L609 319 L609 363 L392 363 L392 319 Z"/>
            </clipPath>
            <clipPath clipPathUnits="userSpaceOnUse" id="clipPath26">
                <path d="M395 322 L581 322 L581 360 L395 360 L395 322 Z"/>
            </clipPath>
            <clipPath clipPathUnits="userSpaceOnUse" id="clipPath27">
                <path d="M469 189 L618 189 L618 251 L469 251 L469 189 Z"/>
            </clipPath>
            <clipPath clipPathUnits="userSpaceOnUse" id="clipPath28">
                <path d="M477 191 L609 191 L609 210 L477 210 L477 191 Z"/>
            </clipPath>
            <clipPath clipPathUnits="userSpaceOnUse" id="clipPath29">
                <path d="M476 210 L611 210 L611 229 L476 229 L476 210 Z"/>
            </clipPath>
            <clipPath clipPathUnits="userSpaceOnUse" id="clipPath30">
                <path d="M471 227 L616 227 L616 239 L471 239 L471 227 Z"/>
            </clipPath>
            <clipPath clipPathUnits="userSpaceOnUse" id="clipPath31">
                <path d="M471 237 L616 237 L616 249 L471 249 L471 237 Z"/>
            </clipPath>
            <clipPath clipPathUnits="userSpaceOnUse" id="clipPath32">
                <path d="M236 269 L423 269 L423 335 L236 335 L236 269 Z"/>
            </clipPath>
            <clipPath clipPathUnits="userSpaceOnUse" id="clipPath33">
                <path d="M92 235 L409 235 L409 338 L92 338 L92 235 Z"/>
            </clipPath>
            <clipPath clipPathUnits="userSpaceOnUse" id="clipPath34">
                <path d="M234 295 L244 295 L244 314 L234 314 L234 295 Z"/>
            </clipPath>
            <clipPath clipPathUnits="userSpaceOnUse" id="clipPath35">
                <path d="M244 248 L257 248 L257 271 L244 271 L244 248 Z"/>
            </clipPath>
            <clipPath clipPathUnits="userSpaceOnUse" id="clipPath36">
                <path d="M257 175 L576 175 L576 257 L257 257 L257 175 Z"/>
            </clipPath>
            <clipPath clipPathUnits="userSpaceOnUse" id="clipPath37">
                <path d="M451 188 L461 188 L461 207 L451 207 L451 188 Z"/>
            </clipPath>
            <clipPath clipPathUnits="userSpaceOnUse" id="clipPath38">
                <path d="M362 210 L385 210 L385 223 L362 223 L362 210 Z"/>
            </clipPath>
            <clipPath clipPathUnits="userSpaceOnUse" id="clipPath39">
                <path d="M522 117 L563 117 L563 205 L522 205 L522 117 Z"/>
            </clipPath>
            <clipPath clipPathUnits="userSpaceOnUse" id="clipPath40">
                <path d="M535 130 L550 130 L550 147 L535 147 L535 130 Z"/>
            </clipPath>
        </defs>
        <g font-size="11" fill="white" stroke-linejoin="round"
            stroke="white" stroke-width="0" stroke-miterlimit="0">
            <rect x="0" y="0" clip-path="url(#clipPath1)" width="800"
                height="1148" stroke="none"/>
        </g>
        <g stroke-width="0.1" font-size="11" stroke-linecap="butt">
            <line clip-path="url(#clipPath1)" fill="none" x1="1"
                x2="135" y1="31" y2="31"/>
            <line clip-path="url(#clipPath1)" fill="none" x1="135"
                x2="142" y1="31" y2="17"/>
            <line clip-path="url(#clipPath1)" fill="none" x1="142"
                x2="142" y1="17" y2="1"/>
            <text x="6" y="19" clip-path="url(#clipPath2)" stroke="none"
                font-weight="bold" xml:space="preserve">package </text>
            <text font-size="13" x="66" y="19"
                clip-path="url(#clipPath3)" stroke="none" xml:space="preserve">strategies</text>
            <rect x="112" y="178" clip-path="url(#clipPath4)"
                fill="rgb(237,247,200)" width="251" height="71" stroke="none"/>
        </g>
        <g font-size="12" stroke-linecap="butt" fill="rgb(106,88,75)"
            stroke="rgb(106,88,75)" stroke-width="0.1">
            <text xml:space="preserve" x="173" y="193"
                clip-path="url(#clipPath5)" font-weight="bold" stroke="none">TunableManeuver</text>
            <line clip-path="url(#clipPath6)" fill="none" x1="114"
                x2="361" y1="197" y2="197"/>
            <text x="115" y="223" clip-path="url(#clipPath7)"
                fill="black" stroke="none" font-weight="normal" xml:space="preserve">+</text>
            <text x="128" y="223" clip-path="url(#clipPath8)"
                fill="black" stroke="none" font-weight="normal" xml:space="preserve">getParameters</text>
            <text x="225" y="223" clip-path="url(#clipPath9)"
                fill="black" stroke="none" font-weight="normal" xml:space="preserve">() : List</text>
            <text x="115" y="242" clip-path="url(#clipPath10)"
                fill="black" stroke="none" font-weight="normal" xml:space="preserve">+</text>
            <text x="128" y="242" clip-path="url(#clipPath11)"
                fill="black" stroke="none" font-weight="normal" xml:space="preserve">getManeuver</text>
            <text x="214" y="242" clip-path="url(#clipPath12)"
                fill="black" stroke="none" font-weight="normal" xml:space="preserve">() : ImpulseManeuver</text>
            <line clip-path="url(#clipPath13)" fill="none" x1="114"
                x2="361" y1="207" y2="207"/>
            <rect x="112" y="178" clip-path="url(#clipPath4)"
                fill="none" width="250" height="70" stroke-width="1.1"/>
        </g>
        <g fill="rgb(237,247,200)" stroke-width="1.1" font-size="11"
            stroke-linecap="butt" stroke="rgb(237,247,200)">
            <rect x="101" y="318" clip-path="url(#clipPath14)"
                width="221" height="60" stroke="none"/>
        </g>
        <g font-size="13" stroke-linecap="butt" fill="rgb(106,88,75)"
            font-style="italic" stroke="rgb(106,88,75)"
            font-weight="bold" stroke-width="1.1">
            <text xml:space="preserve" x="161" y="333"
                clip-path="url(#clipPath15)" stroke="none">SKParameter</text>
            <text x="160" y="352" clip-path="url(#clipPath16)"
                font-style="normal" stroke="none" xml:space="preserve">(from control)</text>
        </g>
        <g fill="rgb(106,88,75)" stroke-width="0.1" font-size="11"
            stroke-linecap="butt" stroke="rgb(106,88,75)">
            <line clip-path="url(#clipPath17)" fill="none" x1="103"
                x2="320" y1="356" y2="356"/>
            <line clip-path="url(#clipPath18)" fill="none" x1="103"
                x2="320" y1="366" y2="366"/>
            <rect x="101" y="318" clip-path="url(#clipPath14)"
                fill="none" width="220" height="59" stroke-width="1.1"/>
            <rect x="489" y="64" clip-path="url(#clipPath19)"
                fill="rgb(243,232,255)" width="105" height="67"
                stroke="none" stroke-width="1.1"/>
            <text x="498" y="77" clip-path="url(#clipPath20)"
                fill="rgb(41,0,141)" stroke="none" stroke-width="1.1" xml:space="preserve">&lt;&lt;interface&gt;&gt;</text>
        </g>
        <g font-size="11" stroke-linecap="butt" fill="rgb(41,0,141)"
            stroke="rgb(41,0,141)" stroke-width="1.1">
            <text xml:space="preserve" x="496" y="92"
                clip-path="url(#clipPath21)" font-weight="bold" stroke="none">EventDetector</text>
            <text x="503" y="107" clip-path="url(#clipPath22)"
                stroke="none" font-weight="normal" xml:space="preserve">(from events)</text>
            <line clip-path="url(#clipPath23)" fill="none" x1="491"
                x2="592" y1="109" y2="109" stroke-width="0.1"/>
            <line clip-path="url(#clipPath24)" fill="none" x1="491"
                x2="592" y1="119" y2="119" stroke-width="0.1"/>
            <rect x="489" y="64" clip-path="url(#clipPath19)"
                fill="none" width="104" height="66"/>
        </g>
        <g fill="rgb(243,239,235)" stroke-width="1.1" font-size="13"
            stroke-linecap="butt" stroke="rgb(243,239,235)">
            <polygon clip-path="url(#clipPath25)"
                points=" 393 320 598 320 607 330 607 361 393 361" stroke="none"/>
            <polygon fill="none" stroke-width="0.1"
                clip-path="url(#clipPath25)"
                points=" 597 320 597 330 607 330 597 320 393 320 393 361 607 361 607 330" stroke="rgb(105,22,22)"/>
            <text x="396" y="336" clip-path="url(#clipPath26)"
                fill="rgb(105,22,22)" stroke="none" stroke-width="0.1" xml:space="preserve">the two parameters are date</text>
            <text x="396" y="353" clip-path="url(#clipPath26)"
                fill="rgb(105,22,22)" stroke="none" stroke-width="0.1" xml:space="preserve">and amplitude</text>
            <text x="396" y="370" clip-path="url(#clipPath26)"
                fill="rgb(105,22,22)" stroke="none" stroke-width="0.1" xml:space="preserve"></text>
        </g>
        <g fill="rgb(243,232,255)" stroke-width="0.1" font-size="11"
            stroke-linecap="butt" stroke="rgb(243,232,255)">
            <rect x="470" y="190" clip-path="url(#clipPath27)"
                width="147" height="60" stroke="none"/>
        </g>
        <g font-size="13" stroke-linecap="butt" fill="rgb(41,0,141)"
            stroke="rgb(41,0,141)" stroke-width="0.1">
            <text xml:space="preserve" x="478" y="205"
                clip-path="url(#clipPath28)" font-weight="bold" stroke="none">ImpulseManeuver</text>
            <text xml:space="preserve" x="477" y="224"
                clip-path="url(#clipPath29)" stroke="none">(from maneuvers)</text>
            <line clip-path="url(#clipPath30)" fill="none" x1="472"
                x2="615" y1="228" y2="228"/>
            <line clip-path="url(#clipPath31)" fill="none" x1="472"
                x2="615" y1="238" y2="238"/>
            <rect x="470" y="190" clip-path="url(#clipPath27)"
                fill="none" width="146" height="59" stroke-width="1.1"/>
        </g>
        <g stroke-width="1.1" font-size="11" stroke-linecap="butt">
            <rect x="0" y="0" clip-path="url(#clipPath1)" fill="none"
                width="799" height="1147"/>
        </g>
        <g font-size="13" stroke-linecap="butt" fill="rgb(105,22,22)"
            stroke-dasharray="8,7" stroke="rgb(105,22,22)" stroke-width="1.1">
            <line clip-path="url(#clipPath32)" fill="none" x1="408"
                x2="250" y1="320" y2="283"/>
            <line clip-path="url(#clipPath33)" fill="none" x1="250"
                x2="250" y1="249" y2="318" stroke-dasharray="none" stroke="rgb(153,15,15)"/>
            <text x="235" y="309" clip-path="url(#clipPath34)"
                fill="rgb(153,15,15)" stroke-dasharray="none"
                stroke="none" xml:space="preserve">2</text>
            <polygon fill="white" stroke-dasharray="none"
                clip-path="url(#clipPath35)"
                points=" 250 249 255 259 250 269 245 259" stroke="none"/>
            <polygon fill="none" stroke-dasharray="none"
                clip-path="url(#clipPath35)"
                points=" 250 249 255 259 250 269 245 259" stroke="rgb(153,15,15)"/>
            <line clip-path="url(#clipPath36)" fill="none" x1="363"
                x2="470" y1="216" y2="216" stroke-dasharray="none" stroke="rgb(153,15,15)"/>
            <text x="452" y="202" clip-path="url(#clipPath37)"
                fill="rgb(153,15,15)" stroke-dasharray="none"
                stroke="none" xml:space="preserve">1</text>
            <polygon fill="white" stroke-dasharray="none"
                clip-path="url(#clipPath38)"
                points=" 363 216 373 211 383 216 373 221" stroke="none"/>
            <polygon fill="none" stroke-dasharray="none"
                clip-path="url(#clipPath38)"
                points=" 363 216 373 211 383 216 373 221" stroke="rgb(153,15,15)"/>
            <line clip-path="url(#clipPath39)" fill="none" x1="542"
                x2="542" y1="190" y2="131" stroke="rgb(110,44,18)"/>
            <polygon fill="white" clip-path="url(#clipPath40)"
                points=" 542 131 548 145 536 145" stroke="none"/>
        </g>
        <g fill="rgb(110,44,18)" stroke-width="1.1" font-size="11"
            stroke-linecap="butt" stroke="rgb(110,44,18)">
            <polygon fill="none" clip-path="url(#clipPath40)" points=" 542 131 548 145 536 145"/>
        </g>
    </g>
</svg>
