<?xml version="1.0" encoding="UTF-8"?>
<svg stroke-dasharray="none" shape-rendering="auto"
    font-family="'Dialog'" width="801" text-rendering="auto"
    fill-opacity="1" color-interpolation="auto" color-rendering="auto"
    font-size="12" fill="black" stroke="black" image-rendering="auto"
    stroke-miterlimit="10" stroke-linecap="square"
    stroke-linejoin="miter" font-style="normal" height="1149"
    stroke-width="1" stroke-dashoffset="0" font-weight="normal" stroke-opacity="1">
    <!--Generated by the Batik Graphics2D SVG Generator-->
    <defs id="genericDefs"/>
    <g>
        <defs id="defs1">
            <clipPath clipPathUnits="userSpaceOnUse" id="clipPath1">
                <path d="M-1 -1 L801 -1 L801 1149 L-1 1149 L-1 -1 Z"/>
            </clipPath>
            <clipPath clipPathUnits="userSpaceOnUse" id="clipPath2">
                <path d="M5 7 L65 7 L65 22 L5 22 L5 7 Z"/>
            </clipPath>
            <clipPath clipPathUnits="userSpaceOnUse" id="clipPath3">
                <path d="M65 5 L131 5 L131 24 L65 24 L65 5 Z"/>
            </clipPath>
            <clipPath clipPathUnits="userSpaceOnUse" id="clipPath4">
                <path d="M201 223 L437 223 L437 266 L201 266 L201 223 Z"/>
            </clipPath>
            <clipPath clipPathUnits="userSpaceOnUse" id="clipPath5">
                <path d="M253 225 L384 225 L384 244 L253 244 L253 225 Z"/>
            </clipPath>
            <clipPath clipPathUnits="userSpaceOnUse" id="clipPath6">
                <path d="M203 242 L435 242 L435 254 L203 254 L203 242 Z"/>
            </clipPath>
            <clipPath clipPathUnits="userSpaceOnUse" id="clipPath7">
                <path d="M203 252 L435 252 L435 264 L203 264 L203 252 Z"/>
            </clipPath>
            <clipPath clipPathUnits="userSpaceOnUse" id="clipPath8">
                <path d="M125 92 L298 92 L298 172 L125 172 L125 92 Z"/>
            </clipPath>
            <clipPath clipPathUnits="userSpaceOnUse" id="clipPath9">
                <path d="M167 94 L255 94 L255 109 L167 109 L167 94 Z"/>
            </clipPath>
            <clipPath clipPathUnits="userSpaceOnUse" id="clipPath10">
                <path d="M154 109 L269 109 L269 124 L154 124 L154 109 Z"/>
            </clipPath>
            <clipPath clipPathUnits="userSpaceOnUse" id="clipPath11">
                <path d="M171 124 L251 124 L251 139 L171 139 L171 124 Z"/>
            </clipPath>
            <clipPath clipPathUnits="userSpaceOnUse" id="clipPath12">
                <path d="M127 137 L296 137 L296 149 L127 149 L127 137 Z"/>
            </clipPath>
            <clipPath clipPathUnits="userSpaceOnUse" id="clipPath13">
                <path d="M128 150 L141 150 L141 169 L128 169 L128 150 Z"/>
            </clipPath>
            <clipPath clipPathUnits="userSpaceOnUse" id="clipPath14">
                <path d="M141 150 L238 150 L238 169 L141 169 L141 150 Z"/>
            </clipPath>
            <clipPath clipPathUnits="userSpaceOnUse" id="clipPath15">
                <path d="M238 150 L284 150 L284 169 L238 169 L238 150 Z"/>
            </clipPath>
            <clipPath clipPathUnits="userSpaceOnUse" id="clipPath16">
                <path d="M127 147 L296 147 L296 170 L127 170 L127 147 Z"/>
            </clipPath>
            <clipPath clipPathUnits="userSpaceOnUse" id="clipPath17">
                <path d="M108 334 L331 334 L331 483 L108 483 L108 334 Z"/>
            </clipPath>
            <clipPath clipPathUnits="userSpaceOnUse" id="clipPath18">
                <path d="M168 336 L270 336 L270 355 L168 355 L168 336 Z"/>
            </clipPath>
            <clipPath clipPathUnits="userSpaceOnUse" id="clipPath19">
                <path d="M167 355 L272 355 L272 374 L167 374 L167 355 Z"/>
            </clipPath>
            <clipPath clipPathUnits="userSpaceOnUse" id="clipPath20">
                <path d="M110 372 L329 372 L329 384 L110 384 L110 372 Z"/>
            </clipPath>
            <clipPath clipPathUnits="userSpaceOnUse" id="clipPath21">
                <path d="M111 385 L124 385 L124 404 L111 404 L111 385 Z"/>
            </clipPath>
            <clipPath clipPathUnits="userSpaceOnUse" id="clipPath22">
                <path d="M124 385 L186 385 L186 404 L124 404 L124 385 Z"/>
            </clipPath>
            <clipPath clipPathUnits="userSpaceOnUse" id="clipPath23">
                <path d="M186 385 L248 385 L248 404 L186 404 L186 385 Z"/>
            </clipPath>
            <clipPath clipPathUnits="userSpaceOnUse" id="clipPath24">
                <path d="M111 404 L124 404 L124 423 L111 423 L111 404 Z"/>
            </clipPath>
            <clipPath clipPathUnits="userSpaceOnUse" id="clipPath25">
                <path d="M124 404 L182 404 L182 423 L124 423 L124 404 Z"/>
            </clipPath>
            <clipPath clipPathUnits="userSpaceOnUse" id="clipPath26">
                <path d="M182 404 L249 404 L249 423 L182 423 L182 404 Z"/>
            </clipPath>
            <clipPath clipPathUnits="userSpaceOnUse" id="clipPath27">
                <path d="M111 423 L124 423 L124 442 L111 442 L111 423 Z"/>
            </clipPath>
            <clipPath clipPathUnits="userSpaceOnUse" id="clipPath28">
                <path d="M124 423 L181 423 L181 442 L124 442 L124 423 Z"/>
            </clipPath>
            <clipPath clipPathUnits="userSpaceOnUse" id="clipPath29">
                <path d="M181 423 L282 423 L282 442 L181 442 L181 423 Z"/>
            </clipPath>
            <clipPath clipPathUnits="userSpaceOnUse" id="clipPath30">
                <path d="M111 442 L124 442 L124 461 L111 461 L111 442 Z"/>
            </clipPath>
            <clipPath clipPathUnits="userSpaceOnUse" id="clipPath31">
                <path d="M124 442 L184 442 L184 461 L124 461 L124 442 Z"/>
            </clipPath>
            <clipPath clipPathUnits="userSpaceOnUse" id="clipPath32">
                <path d="M184 442 L259 442 L259 461 L184 461 L184 442 Z"/>
            </clipPath>
            <clipPath clipPathUnits="userSpaceOnUse" id="clipPath33">
                <path d="M111 461 L124 461 L124 480 L111 480 L111 461 Z"/>
            </clipPath>
            <clipPath clipPathUnits="userSpaceOnUse" id="clipPath34">
                <path d="M124 461 L194 461 L194 480 L124 480 L124 461 Z"/>
            </clipPath>
            <clipPath clipPathUnits="userSpaceOnUse" id="clipPath35">
                <path d="M194 461 L317 461 L317 480 L194 480 L194 461 Z"/>
            </clipPath>
            <clipPath clipPathUnits="userSpaceOnUse" id="clipPath36">
                <path d="M110 382 L329 382 L329 481 L110 481 L110 382 Z"/>
            </clipPath>
            <clipPath clipPathUnits="userSpaceOnUse" id="clipPath37">
                <path d="M521 211 L667 211 L667 292 L521 292 L521 211 Z"/>
            </clipPath>
            <clipPath clipPathUnits="userSpaceOnUse" id="clipPath38">
                <path d="M542 213 L645 213 L645 232 L542 232 L542 213 Z"/>
            </clipPath>
            <clipPath clipPathUnits="userSpaceOnUse" id="clipPath39">
                <path d="M528 232 L660 232 L660 251 L528 251 L528 232 Z"/>
            </clipPath>
            <clipPath clipPathUnits="userSpaceOnUse" id="clipPath40">
                <path d="M535 251 L653 251 L653 270 L535 270 L535 251 Z"/>
            </clipPath>
            <clipPath clipPathUnits="userSpaceOnUse" id="clipPath41">
                <path d="M523 268 L665 268 L665 280 L523 280 L523 268 Z"/>
            </clipPath>
            <clipPath clipPathUnits="userSpaceOnUse" id="clipPath42">
                <path d="M523 278 L665 278 L665 290 L523 290 L523 278 Z"/>
            </clipPath>
            <clipPath clipPathUnits="userSpaceOnUse" id="clipPath43">
                <path d="M356 105 L463 105 L463 174 L356 174 L356 105 Z"/>
            </clipPath>
            <clipPath clipPathUnits="userSpaceOnUse" id="clipPath44">
                <path d="M365 107 L453 107 L453 122 L365 122 L365 107 Z"/>
            </clipPath>
            <clipPath clipPathUnits="userSpaceOnUse" id="clipPath45">
                <path d="M363 122 L456 122 L456 137 L363 137 L363 122 Z"/>
            </clipPath>
            <clipPath clipPathUnits="userSpaceOnUse" id="clipPath46">
                <path d="M370 137 L449 137 L449 152 L370 152 L370 137 Z"/>
            </clipPath>
            <clipPath clipPathUnits="userSpaceOnUse" id="clipPath47">
                <path d="M358 150 L461 150 L461 162 L358 162 L358 150 Z"/>
            </clipPath>
            <clipPath clipPathUnits="userSpaceOnUse" id="clipPath48">
                <path d="M358 160 L461 160 L461 172 L358 172 L358 160 Z"/>
            </clipPath>
            <clipPath clipPathUnits="userSpaceOnUse" id="clipPath49">
                <path d="M398 343 L615 343 L615 387 L398 387 L398 343 Z"/>
            </clipPath>
            <clipPath clipPathUnits="userSpaceOnUse" id="clipPath50">
                <path d="M401 346 L587 346 L587 384 L401 384 L401 346 Z"/>
            </clipPath>
            <clipPath clipPathUnits="userSpaceOnUse" id="clipPath51">
                <path d="M245 157 L286 157 L286 239 L245 239 L245 157 Z"/>
            </clipPath>
            <clipPath clipPathUnits="userSpaceOnUse" id="clipPath52">
                <path d="M258 170 L273 170 L273 187 L258 187 L258 170 Z"/>
            </clipPath>
            <clipPath clipPathUnits="userSpaceOnUse" id="clipPath53">
                <path d="M111 251 L428 251 L428 355 L111 355 L111 251 Z"/>
            </clipPath>
            <clipPath clipPathUnits="userSpaceOnUse" id="clipPath54">
                <path d="M253 312 L263 312 L263 331 L253 331 L253 312 Z"/>
            </clipPath>
            <clipPath clipPathUnits="userSpaceOnUse" id="clipPath55">
                <path d="M263 264 L276 264 L276 287 L263 287 L263 264 Z"/>
            </clipPath>
            <clipPath clipPathUnits="userSpaceOnUse" id="clipPath56">
                <path d="M255 286 L444 286 L444 359 L255 359 L255 286 Z"/>
            </clipPath>
            <clipPath clipPathUnits="userSpaceOnUse" id="clipPath57">
                <path d="M388 159 L429 159 L429 239 L388 239 L388 159 Z"/>
            </clipPath>
            <clipPath clipPathUnits="userSpaceOnUse" id="clipPath58">
                <path d="M401 172 L416 172 L416 189 L401 189 L401 172 Z"/>
            </clipPath>
            <clipPath clipPathUnits="userSpaceOnUse" id="clipPath59">
                <path d="M374 207 L700 207 L700 301 L374 301 L374 207 Z"/>
            </clipPath>
            <clipPath clipPathUnits="userSpaceOnUse" id="clipPath60">
                <path d="M503 220 L513 220 L513 239 L503 239 L503 220 Z"/>
            </clipPath>
            <clipPath clipPathUnits="userSpaceOnUse" id="clipPath61">
                <path d="M435 242 L458 242 L458 255 L435 255 L435 242 Z"/>
            </clipPath>
        </defs>
        <g font-size="11" fill="white" stroke-linejoin="round"
            stroke="white" stroke-width="0" stroke-miterlimit="0">
            <rect x="0" y="0" clip-path="url(#clipPath1)" width="800"
                height="1148" stroke="none"/>
        </g>
        <g stroke-width="0.1" font-size="11" stroke-linecap="butt">
            <line clip-path="url(#clipPath1)" fill="none" x1="1"
                x2="135" y1="31" y2="31"/>
            <line clip-path="url(#clipPath1)" fill="none" x1="135"
                x2="142" y1="31" y2="17"/>
            <line clip-path="url(#clipPath1)" fill="none" x1="142"
                x2="142" y1="17" y2="1"/>
            <text x="6" y="19" clip-path="url(#clipPath2)" stroke="none"
                font-weight="bold" xml:space="preserve">package </text>
            <text font-size="13" x="66" y="19"
                clip-path="url(#clipPath3)" stroke="none" xml:space="preserve">strategies</text>
            <rect x="202" y="224" clip-path="url(#clipPath4)"
                fill="rgb(237,247,200)" width="234" height="41" stroke="none"/>
        </g>
        <g font-size="13" stroke-linecap="butt" fill="rgb(106,88,75)"
            stroke="rgb(106,88,75)" font-weight="bold" stroke-width="0.1">
            <text xml:space="preserve" x="254" y="239"
                clip-path="url(#clipPath5)" stroke="none">TunableManeuver</text>
            <line clip-path="url(#clipPath6)" fill="none" x1="204"
                x2="434" y1="243" y2="243"/>
            <line clip-path="url(#clipPath7)" fill="none" x1="204"
                x2="434" y1="253" y2="253"/>
            <rect x="202" y="224" clip-path="url(#clipPath4)"
                fill="none" width="233" height="40" stroke-width="1.1"/>
        </g>
        <g fill="rgb(244,232,212)" stroke-width="1.1" font-size="11"
            stroke-linecap="butt" stroke="rgb(244,232,212)">
            <rect x="126" y="93" clip-path="url(#clipPath8)" width="171"
                height="78" stroke="none"/>
            <text x="168" y="106" clip-path="url(#clipPath9)"
                fill="rgb(110,44,18)" stroke="none" xml:space="preserve">&lt;&lt;interface&gt;&gt;</text>
            <text x="155" y="121" clip-path="url(#clipPath10)"
                fill="rgb(110,44,18)" stroke="none" font-weight="bold" xml:space="preserve">SKParametersList</text>
            <text x="172" y="136" clip-path="url(#clipPath11)"
                fill="rgb(110,44,18)" stroke="none" xml:space="preserve">(from control)</text>
            <line clip-path="url(#clipPath12)" fill="none" x1="128"
                x2="295" y1="138" y2="138" stroke="rgb(110,44,18)" stroke-width="0.1"/>
        </g>
        <g stroke-width="0.1" font-size="13" stroke-linecap="butt">
            <text xml:space="preserve" x="129" y="164"
                clip-path="url(#clipPath13)" stroke="none">+</text>
            <text xml:space="preserve" x="142" y="164"
                clip-path="url(#clipPath14)" stroke="none">getParameters</text>
            <text xml:space="preserve" x="239" y="164"
                clip-path="url(#clipPath15)" stroke="none">() : List</text>
            <line clip-path="url(#clipPath16)" fill="none" x1="128"
                x2="295" y1="148" y2="148" stroke="rgb(110,44,18)"/>
        </g>
        <g fill="rgb(110,44,18)" stroke-width="1.1" font-size="11"
            stroke-linecap="butt" stroke="rgb(110,44,18)">
            <rect x="126" y="93" clip-path="url(#clipPath8)" fill="none"
                width="170" height="77"/>
            <rect x="109" y="335" clip-path="url(#clipPath17)"
                fill="rgb(237,247,200)" width="221" height="147" stroke="none"/>
        </g>
        <g font-size="13" stroke-linecap="butt" fill="rgb(106,88,75)"
            font-style="italic" stroke="rgb(106,88,75)"
            font-weight="bold" stroke-width="1.1">
            <text xml:space="preserve" x="169" y="350"
                clip-path="url(#clipPath18)" stroke="none">SKParameter</text>
            <text x="168" y="369" clip-path="url(#clipPath19)"
                font-style="normal" stroke="none" xml:space="preserve">(from control)</text>
        </g>
        <g fill="rgb(106,88,75)" stroke-width="0.1" font-size="11"
            stroke-linecap="butt" stroke="rgb(106,88,75)">
            <line clip-path="url(#clipPath20)" fill="none" x1="111"
                x2="328" y1="373" y2="373"/>
            <text font-size="13" x="112" y="399"
                clip-path="url(#clipPath21)" fill="black" stroke="none" xml:space="preserve">+</text>
            <text font-size="13" x="125" y="399"
                clip-path="url(#clipPath22)" fill="black" stroke="none" xml:space="preserve">getName</text>
            <text font-size="13" x="187" y="399"
                clip-path="url(#clipPath23)" fill="black" stroke="none" xml:space="preserve">() : String</text>
            <text font-size="13" x="112" y="418"
                clip-path="url(#clipPath24)" fill="black" stroke="none" xml:space="preserve">+</text>
            <text font-size="13" x="125" y="418"
                clip-path="url(#clipPath25)" fill="black" stroke="none" xml:space="preserve">getValue</text>
            <text font-size="13" x="183" y="418"
                clip-path="url(#clipPath26)" fill="black" stroke="none" xml:space="preserve">() : double</text>
            <text font-size="13" x="112" y="437"
                clip-path="url(#clipPath27)" fill="black" stroke="none" xml:space="preserve">+</text>
            <text font-size="13" x="125" y="437"
                clip-path="url(#clipPath28)" fill="black" stroke="none" xml:space="preserve">setValue</text>
            <text font-size="13" x="182" y="437"
                clip-path="url(#clipPath29)" fill="black" stroke="none" xml:space="preserve">(value : double)</text>
            <text font-size="13" x="112" y="456"
                clip-path="url(#clipPath30)" fill="black" stroke="none" xml:space="preserve">+</text>
            <text font-size="13" x="125" y="456"
                clip-path="url(#clipPath31)" fill="black" stroke="none" xml:space="preserve">isTunable</text>
            <text font-size="13" x="185" y="456"
                clip-path="url(#clipPath32)" fill="black" stroke="none" xml:space="preserve">() : boolean</text>
            <text font-size="13" x="112" y="475"
                clip-path="url(#clipPath33)" fill="black" stroke="none" xml:space="preserve">+</text>
            <text font-size="13" x="125" y="475"
                clip-path="url(#clipPath34)" fill="black" stroke="none" xml:space="preserve">setTunable</text>
            <text font-size="13" x="195" y="475"
                clip-path="url(#clipPath35)" fill="black" stroke="none" xml:space="preserve">(tunable : boolean)</text>
            <line clip-path="url(#clipPath36)" fill="none" x1="111"
                x2="328" y1="383" y2="383"/>
            <rect x="109" y="335" clip-path="url(#clipPath17)"
                fill="none" width="220" height="146" stroke-width="1.1"/>
            <rect x="522" y="212" clip-path="url(#clipPath37)"
                fill="rgb(243,232,255)" width="144" height="79"
                stroke="none" stroke-width="1.1"/>
        </g>
        <g fill="rgb(41,0,141)" stroke-width="1.1" font-size="13"
            stroke-linecap="butt" stroke="rgb(41,0,141)">
            <text xml:space="preserve" x="543" y="227"
                clip-path="url(#clipPath38)" stroke="none">&lt;&lt;dataType&gt;&gt;</text>
            <text x="529" y="246" clip-path="url(#clipPath39)"
                stroke="none" font-weight="bold" xml:space="preserve">ImpulseManeuver</text>
            <text xml:space="preserve" x="536" y="265"
                clip-path="url(#clipPath40)" stroke="none">(from maneuvers)</text>
            <line clip-path="url(#clipPath41)" fill="none" x1="524"
                x2="664" y1="269" y2="269" stroke-width="0.1"/>
            <line clip-path="url(#clipPath42)" fill="none" x1="524"
                x2="664" y1="279" y2="279" stroke-width="0.1"/>
            <rect x="522" y="212" clip-path="url(#clipPath37)"
                fill="none" width="143" height="78"/>
            <rect x="357" y="106" clip-path="url(#clipPath43)"
                fill="rgb(243,232,255)" width="105" height="67" stroke="none"/>
            <text font-size="11" x="366" y="119"
                clip-path="url(#clipPath44)" stroke="none" xml:space="preserve">&lt;&lt;interface&gt;&gt;</text>
            <text font-size="11" x="364" y="134"
                clip-path="url(#clipPath45)" stroke="none"
                font-weight="bold" xml:space="preserve">EventDetector</text>
            <text font-size="11" x="371" y="149"
                clip-path="url(#clipPath46)" stroke="none" xml:space="preserve">(from events)</text>
            <line clip-path="url(#clipPath47)" fill="none" x1="359"
                x2="460" y1="151" y2="151" stroke-width="0.1"/>
            <line clip-path="url(#clipPath48)" fill="none" x1="359"
                x2="460" y1="161" y2="161" stroke-width="0.1"/>
            <rect x="357" y="106" clip-path="url(#clipPath43)"
                fill="none" width="104" height="66"/>
            <polygon fill="rgb(243,239,235)"
                clip-path="url(#clipPath49)"
                points=" 399 344 604 344 613 354 613 385 399 385" stroke="none"/>
            <polygon fill="none" stroke-width="0.1"
                clip-path="url(#clipPath49)"
                points=" 603 344 603 354 613 354 603 344 399 344 399 385 613 385 613 354" stroke="rgb(105,22,22)"/>
            <text x="402" y="360" clip-path="url(#clipPath50)"
                fill="rgb(105,22,22)" stroke="none" stroke-width="0.1" xml:space="preserve">the two parameters are date</text>
            <text x="402" y="377" clip-path="url(#clipPath50)"
                fill="rgb(105,22,22)" stroke="none" stroke-width="0.1" xml:space="preserve">and amplitude</text>
            <text x="402" y="394" clip-path="url(#clipPath50)"
                fill="rgb(105,22,22)" stroke="none" stroke-width="0.1" xml:space="preserve"></text>
            <rect x="0" y="0" clip-path="url(#clipPath1)" fill="none"
                width="799" height="1147" stroke="black"/>
        </g>
        <g font-size="11" stroke-linecap="butt" fill="rgb(110,44,18)"
            stroke-dasharray="8,7" stroke="rgb(110,44,18)" stroke-width="1.1">
            <line clip-path="url(#clipPath51)" fill="none" x1="265"
                x2="265" y1="224" y2="171"/>
            <polygon fill="white" clip-path="url(#clipPath52)"
                points=" 265 171 271 185 259 185" stroke="none"/>
            <polygon fill="none" stroke-dasharray="none"
                clip-path="url(#clipPath52)" points=" 265 171 271 185 259 185"/>
        </g>
        <g fill="rgb(153,15,15)" stroke-width="1.1" font-size="13"
            stroke-linecap="butt" stroke="rgb(153,15,15)">
            <line clip-path="url(#clipPath53)" fill="none" x1="269"
                x2="269" y1="265" y2="335"/>
            <text xml:space="preserve" x="254" y="326"
                clip-path="url(#clipPath54)" stroke="none">2</text>
            <polygon fill="white" clip-path="url(#clipPath55)"
                points=" 269 265 274 275 269 285 264 275" stroke="none"/>
            <polygon fill="none" clip-path="url(#clipPath55)" points=" 269 265 274 275 269 285 264 275"/>
            <line clip-path="url(#clipPath56)" fill="none" x1="429"
                x2="269" y1="344" y2="300" stroke-dasharray="8,7" stroke="rgb(105,22,22)"/>
        </g>
        <g font-size="11" stroke-linecap="butt" fill="rgb(41,0,141)"
            stroke-dasharray="8,7" stroke="rgb(41,0,141)" stroke-width="1.1">
            <line clip-path="url(#clipPath57)" fill="none" x1="408"
                x2="408" y1="224" y2="173"/>
            <polygon fill="white" clip-path="url(#clipPath58)"
                points=" 408 173 414 187 402 187" stroke="none"/>
            <polygon fill="none" stroke-dasharray="none"
                clip-path="url(#clipPath58)" points=" 408 173 414 187 402 187"/>
            <line clip-path="url(#clipPath59)" fill="none" x1="436"
                x2="522" y1="248" y2="248" stroke-dasharray="none"/>
            <text font-size="13" x="504" y="234"
                clip-path="url(#clipPath60)" stroke-dasharray="none"
                stroke="none" xml:space="preserve">1</text>
        </g>
        <g fill="white" stroke-width="1.1" font-size="13"
            stroke-linecap="butt" stroke="white">
            <polygon clip-path="url(#clipPath61)"
                points=" 436 248 446 243 456 248 446 253" stroke="none"/>
            <polygon fill="none" clip-path="url(#clipPath61)"
                points=" 436 248 446 243 456 248 446 253" stroke="rgb(41,0,141)"/>
        </g>
    </g>
</svg>
