<?xml version="1.0" encoding="UTF-8"?>
<svg stroke-dasharray="none" shape-rendering="auto"
    font-family="'Dialog'" width="869" text-rendering="auto"
    fill-opacity="1" color-interpolation="auto" color-rendering="auto"
    font-size="12" fill="black" stroke="black" image-rendering="auto"
    stroke-miterlimit="10" stroke-linecap="square"
    stroke-linejoin="miter" font-style="normal" height="590"
    stroke-width="1" stroke-dashoffset="0" font-weight="normal" stroke-opacity="1">
    <!--Generated by the Batik Graphics2D SVG Generator-->
    <defs id="genericDefs"/>
    <g>
        <defs id="defs1">
            <clipPath clipPathUnits="userSpaceOnUse" id="clipPath1">
                <path d="M-1 -1 L661 -1 L661 590 L-1 590 L-1 -1 Z"/>
            </clipPath>
            <clipPath clipPathUnits="userSpaceOnUse" id="clipPath2">
                <path d="M5 5 L69 5 L69 28 L5 28 L5 5 Z"/>
            </clipPath>
            <clipPath clipPathUnits="userSpaceOnUse" id="clipPath3">
                <path d="M69 8 L135 8 L135 25 L69 25 L69 8 Z"/>
            </clipPath>
            <clipPath clipPathUnits="userSpaceOnUse" id="clipPath4">
                <path d="M204 66 L488 66 L488 201 L204 201 L204 66 Z"/>
            </clipPath>
            <clipPath clipPathUnits="userSpaceOnUse" id="clipPath5">
                <path d="M280 68 L411 68 L411 85 L280 85 L280 68 Z"/>
            </clipPath>
            <clipPath clipPathUnits="userSpaceOnUse" id="clipPath6">
                <path d="M206 83 L486 83 L486 95 L206 95 L206 83 Z"/>
            </clipPath>
            <clipPath clipPathUnits="userSpaceOnUse" id="clipPath7">
                <path d="M207 96 L220 96 L220 113 L207 113 L207 96 Z"/>
            </clipPath>
            <clipPath clipPathUnits="userSpaceOnUse" id="clipPath8">
                <path d="M220 96 L317 96 L317 113 L220 113 L220 96 Z"/>
            </clipPath>
            <clipPath clipPathUnits="userSpaceOnUse" id="clipPath9">
                <path d="M317 96 L363 96 L363 113 L317 113 L317 96 Z"/>
            </clipPath>
            <clipPath clipPathUnits="userSpaceOnUse" id="clipPath10">
                <path d="M207 113 L220 113 L220 130 L207 130 L207 113 Z"/>
            </clipPath>
            <clipPath clipPathUnits="userSpaceOnUse" id="clipPath11">
                <path d="M220 113 L306 113 L306 130 L220 130 L220 113 Z"/>
            </clipPath>
            <clipPath clipPathUnits="userSpaceOnUse" id="clipPath12">
                <path d="M306 113 L460 113 L460 130 L306 130 L306 113 Z"/>
            </clipPath>
            <clipPath clipPathUnits="userSpaceOnUse" id="clipPath13">
                <path d="M207 130 L220 130 L220 147 L207 147 L207 130 Z"/>
            </clipPath>
            <clipPath clipPathUnits="userSpaceOnUse" id="clipPath14">
                <path d="M220 130 L307 130 L307 147 L220 147 L220 130 Z"/>
            </clipPath>
            <clipPath clipPathUnits="userSpaceOnUse" id="clipPath15">
                <path d="M307 130 L474 130 L474 147 L307 147 L307 130 Z"/>
            </clipPath>
            <clipPath clipPathUnits="userSpaceOnUse" id="clipPath16">
                <path d="M207 147 L220 147 L220 164 L207 164 L207 147 Z"/>
            </clipPath>
            <clipPath clipPathUnits="userSpaceOnUse" id="clipPath17">
                <path d="M220 147 L285 147 L285 164 L220 164 L220 147 Z"/>
            </clipPath>
            <clipPath clipPathUnits="userSpaceOnUse" id="clipPath18">
                <path d="M285 147 L452 147 L452 164 L285 164 L285 147 Z"/>
            </clipPath>
            <clipPath clipPathUnits="userSpaceOnUse" id="clipPath19">
                <path d="M207 164 L220 164 L220 181 L207 181 L207 164 Z"/>
            </clipPath>
            <clipPath clipPathUnits="userSpaceOnUse" id="clipPath20">
                <path d="M220 164 L262 164 L262 181 L220 181 L220 164 Z"/>
            </clipPath>
            <clipPath clipPathUnits="userSpaceOnUse" id="clipPath21">
                <path d="M262 164 L329 164 L329 181 L262 181 L262 164 Z"/>
            </clipPath>
            <clipPath clipPathUnits="userSpaceOnUse" id="clipPath22">
                <path d="M207 181 L220 181 L220 198 L207 198 L207 181 Z"/>
            </clipPath>
            <clipPath clipPathUnits="userSpaceOnUse" id="clipPath23">
                <path d="M220 181 L274 181 L274 198 L220 198 L220 181 Z"/>
            </clipPath>
            <clipPath clipPathUnits="userSpaceOnUse" id="clipPath24">
                <path d="M274 181 L385 181 L385 198 L274 198 L274 181 Z"/>
            </clipPath>
            <clipPath clipPathUnits="userSpaceOnUse" id="clipPath25">
                <path d="M206 93 L486 93 L486 199 L206 199 L206 93 Z"/>
            </clipPath>
            <clipPath clipPathUnits="userSpaceOnUse" id="clipPath26">
                <path d="M104 345 L327 345 L327 403 L104 403 L104 345 Z"/>
            </clipPath>
            <clipPath clipPathUnits="userSpaceOnUse" id="clipPath27">
                <path d="M164 347 L266 347 L266 364 L164 364 L164 347 Z"/>
            </clipPath>
            <clipPath clipPathUnits="userSpaceOnUse" id="clipPath28">
                <path d="M163 364 L268 364 L268 381 L163 381 L163 364 Z"/>
            </clipPath>
            <clipPath clipPathUnits="userSpaceOnUse" id="clipPath29">
                <path d="M106 379 L325 379 L325 391 L106 391 L106 379 Z"/>
            </clipPath>
            <clipPath clipPathUnits="userSpaceOnUse" id="clipPath30">
                <path d="M106 389 L325 389 L325 401 L106 401 L106 389 Z"/>
            </clipPath>
            <clipPath clipPathUnits="userSpaceOnUse" id="clipPath31">
                <path d="M11 265 L228 265 L228 309 L11 309 L11 265 Z"/>
            </clipPath>
            <clipPath clipPathUnits="userSpaceOnUse" id="clipPath32">
                <path d="M14 268 L200 268 L200 306 L14 306 L14 268 Z"/>
            </clipPath>
            <clipPath clipPathUnits="userSpaceOnUse" id="clipPath33">
                <path d="M386 238 L651 238 L651 441 L386 441 L386 238 Z"/>
            </clipPath>
            <clipPath clipPathUnits="userSpaceOnUse" id="clipPath34">
                <path d="M443 240 L594 240 L594 257 L443 257 L443 240 Z"/>
            </clipPath>
            <clipPath clipPathUnits="userSpaceOnUse" id="clipPath35">
                <path d="M388 255 L649 255 L649 267 L388 267 L388 255 Z"/>
            </clipPath>
            <clipPath clipPathUnits="userSpaceOnUse" id="clipPath36">
                <path d="M389 268 L402 268 L402 285 L389 285 L389 268 Z"/>
            </clipPath>
            <clipPath clipPathUnits="userSpaceOnUse" id="clipPath37">
                <path d="M402 268 L464 268 L464 285 L402 285 L402 268 Z"/>
            </clipPath>
            <clipPath clipPathUnits="userSpaceOnUse" id="clipPath38">
                <path d="M464 268 L526 268 L526 285 L464 285 L464 268 Z"/>
            </clipPath>
            <clipPath clipPathUnits="userSpaceOnUse" id="clipPath39">
                <path d="M389 285 L402 285 L402 302 L389 302 L389 285 Z"/>
            </clipPath>
            <clipPath clipPathUnits="userSpaceOnUse" id="clipPath40">
                <path d="M402 285 L460 285 L460 302 L402 302 L402 285 Z"/>
            </clipPath>
            <clipPath clipPathUnits="userSpaceOnUse" id="clipPath41">
                <path d="M460 285 L535 285 L535 302 L460 302 L460 285 Z"/>
            </clipPath>
            <clipPath clipPathUnits="userSpaceOnUse" id="clipPath42">
                <path d="M389 302 L402 302 L402 319 L389 319 L389 302 Z"/>
            </clipPath>
            <clipPath clipPathUnits="userSpaceOnUse" id="clipPath43">
                <path d="M402 302 L480 302 L480 319 L402 319 L402 302 Z"/>
            </clipPath>
            <clipPath clipPathUnits="userSpaceOnUse" id="clipPath44">
                <path d="M480 302 L555 302 L555 319 L480 319 L480 302 Z"/>
            </clipPath>
            <clipPath clipPathUnits="userSpaceOnUse" id="clipPath45">
                <path d="M389 319 L402 319 L402 336 L389 336 L389 319 Z"/>
            </clipPath>
            <clipPath clipPathUnits="userSpaceOnUse" id="clipPath46">
                <path d="M402 319 L456 319 L456 336 L402 336 L402 319 Z"/>
            </clipPath>
            <clipPath clipPathUnits="userSpaceOnUse" id="clipPath47">
                <path d="M456 319 L567 319 L567 336 L456 336 L456 319 Z"/>
            </clipPath>
            <clipPath clipPathUnits="userSpaceOnUse" id="clipPath48">
                <path d="M389 336 L402 336 L402 353 L389 353 L389 336 Z"/>
            </clipPath>
            <clipPath clipPathUnits="userSpaceOnUse" id="clipPath49">
                <path d="M402 336 L468 336 L468 353 L402 353 L402 336 Z"/>
            </clipPath>
            <clipPath clipPathUnits="userSpaceOnUse" id="clipPath50">
                <path d="M468 336 L551 336 L551 353 L468 353 L468 336 Z"/>
            </clipPath>
            <clipPath clipPathUnits="userSpaceOnUse" id="clipPath51">
                <path d="M389 353 L402 353 L402 370 L389 370 L389 353 Z"/>
            </clipPath>
            <clipPath clipPathUnits="userSpaceOnUse" id="clipPath52">
                <path d="M402 353 L465 353 L465 370 L402 370 L402 353 Z"/>
            </clipPath>
            <clipPath clipPathUnits="userSpaceOnUse" id="clipPath53">
                <path d="M465 353 L532 353 L532 370 L465 370 L465 353 Z"/>
            </clipPath>
            <clipPath clipPathUnits="userSpaceOnUse" id="clipPath54">
                <path d="M389 370 L402 370 L402 387 L389 387 L389 370 Z"/>
            </clipPath>
            <clipPath clipPathUnits="userSpaceOnUse" id="clipPath55">
                <path d="M402 370 L443 370 L443 387 L402 387 L402 370 Z"/>
            </clipPath>
            <clipPath clipPathUnits="userSpaceOnUse" id="clipPath56">
                <path d="M443 370 L510 370 L510 387 L443 387 L443 370 Z"/>
            </clipPath>
            <clipPath clipPathUnits="userSpaceOnUse" id="clipPath57">
                <path d="M389 387 L402 387 L402 404 L389 404 L389 387 Z"/>
            </clipPath>
            <clipPath clipPathUnits="userSpaceOnUse" id="clipPath58">
                <path d="M402 387 L480 387 L480 404 L402 404 L402 387 Z"/>
            </clipPath>
            <clipPath clipPathUnits="userSpaceOnUse" id="clipPath59">
                <path d="M480 387 L637 387 L637 404 L480 404 L480 387 Z"/>
            </clipPath>
            <clipPath clipPathUnits="userSpaceOnUse" id="clipPath60">
                <path d="M389 404 L402 404 L402 421 L389 421 L389 404 Z"/>
            </clipPath>
            <clipPath clipPathUnits="userSpaceOnUse" id="clipPath61">
                <path d="M402 404 L486 404 L486 421 L402 421 L402 404 Z"/>
            </clipPath>
            <clipPath clipPathUnits="userSpaceOnUse" id="clipPath62">
                <path d="M486 404 L581 404 L581 421 L486 421 L486 404 Z"/>
            </clipPath>
            <clipPath clipPathUnits="userSpaceOnUse" id="clipPath63">
                <path d="M389 421 L402 421 L402 438 L389 438 L389 421 Z"/>
            </clipPath>
            <clipPath clipPathUnits="userSpaceOnUse" id="clipPath64">
                <path d="M402 421 L483 421 L483 438 L402 438 L402 421 Z"/>
            </clipPath>
            <clipPath clipPathUnits="userSpaceOnUse" id="clipPath65">
                <path d="M483 421 L569 421 L569 438 L483 438 L483 421 Z"/>
            </clipPath>
            <clipPath clipPathUnits="userSpaceOnUse" id="clipPath66">
                <path d="M388 265 L649 265 L649 439 L388 439 L388 265 Z"/>
            </clipPath>
            <clipPath clipPathUnits="userSpaceOnUse" id="clipPath67">
                <path d="M335 505 L472 505 L472 580 L335 580 L335 505 Z"/>
            </clipPath>
            <clipPath clipPathUnits="userSpaceOnUse" id="clipPath68">
                <path d="M352 507 L455 507 L455 524 L352 524 L352 507 Z"/>
            </clipPath>
            <clipPath clipPathUnits="userSpaceOnUse" id="clipPath69">
                <path d="M360 524 L446 524 L446 541 L360 541 L360 524 Z"/>
            </clipPath>
            <clipPath clipPathUnits="userSpaceOnUse" id="clipPath70">
                <path d="M342 541 L465 541 L465 558 L342 558 L342 541 Z"/>
            </clipPath>
            <clipPath clipPathUnits="userSpaceOnUse" id="clipPath71">
                <path d="M337 556 L470 556 L470 568 L337 568 L337 556 Z"/>
            </clipPath>
            <clipPath clipPathUnits="userSpaceOnUse" id="clipPath72">
                <path d="M337 566 L470 566 L470 578 L337 578 L337 566 Z"/>
            </clipPath>
            <clipPath clipPathUnits="userSpaceOnUse" id="clipPath73">
                <path d="M541 508 L643 508 L643 577 L541 577 L541 508 Z"/>
            </clipPath>
            <clipPath clipPathUnits="userSpaceOnUse" id="clipPath74">
                <path d="M548 510 L636 510 L636 525 L548 525 L548 510 Z"/>
            </clipPath>
            <clipPath clipPathUnits="userSpaceOnUse" id="clipPath75">
                <path d="M559 525 L625 525 L625 540 L559 540 L559 525 Z"/>
            </clipPath>
            <clipPath clipPathUnits="userSpaceOnUse" id="clipPath76">
                <path d="M552 540 L632 540 L632 555 L552 555 L552 540 Z"/>
            </clipPath>
            <clipPath clipPathUnits="userSpaceOnUse" id="clipPath77">
                <path d="M543 553 L641 553 L641 565 L543 565 L543 553 Z"/>
            </clipPath>
            <clipPath clipPathUnits="userSpaceOnUse" id="clipPath78">
                <path d="M543 563 L641 563 L641 575 L543 575 L543 563 Z"/>
            </clipPath>
            <clipPath clipPathUnits="userSpaceOnUse" id="clipPath79">
                <path d="M274 186 L626 186 L626 364 L274 364 L274 186 Z"/>
            </clipPath>
            <clipPath clipPathUnits="userSpaceOnUse" id="clipPath80">
                <path d="M290 325 L300 325 L300 342 L290 342 L290 325 Z"/>
            </clipPath>
            <clipPath clipPathUnits="userSpaceOnUse" id="clipPath81">
                <path d="M300 199 L313 199 L313 222 L300 222 L300 199 Z"/>
            </clipPath>
            <clipPath clipPathUnits="userSpaceOnUse" id="clipPath82">
                <path d="M213 265 L321 265 L321 294 L213 294 L213 265 Z"/>
            </clipPath>
            <clipPath clipPathUnits="userSpaceOnUse" id="clipPath83">
                <path d="M259 186 L593 186 L593 254 L259 254 L259 186 Z"/>
            </clipPath>
            <clipPath clipPathUnits="userSpaceOnUse" id="clipPath84">
                <path d="M435 213 L496 213 L496 230 L435 230 L435 213 Z"/>
            </clipPath>
            <clipPath clipPathUnits="userSpaceOnUse" id="clipPath85">
                <path d="M407 213 L417 213 L417 230 L407 230 L407 213 Z"/>
            </clipPath>
            <clipPath clipPathUnits="userSpaceOnUse" id="clipPath86">
                <path d="M420 228 L433 228 L433 241 L420 241 L420 228 Z"/>
            </clipPath>
            <clipPath clipPathUnits="userSpaceOnUse" id="clipPath87">
                <path d="M383 68 L796 68 L796 244 L383 244 L383 68 Z"/>
            </clipPath>
            <clipPath clipPathUnits="userSpaceOnUse" id="clipPath88">
                <path d="M490 151 L581 151 L581 168 L490 168 L490 151 Z"/>
            </clipPath>
            <clipPath clipPathUnits="userSpaceOnUse" id="clipPath89">
                <path d="M496 114 L522 114 L522 131 L496 131 L496 114 Z"/>
            </clipPath>
            <clipPath clipPathUnits="userSpaceOnUse" id="clipPath90">
                <path d="M486 81 L509 81 L509 94 L486 94 L486 81 Z"/>
            </clipPath>
            <clipPath clipPathUnits="userSpaceOnUse" id="clipPath91">
                <path d="M-1 50 L257 50 L257 178 L-1 178 L-1 50 Z"/>
            </clipPath>
            <clipPath clipPathUnits="userSpaceOnUse" id="clipPath92">
                <path d="M96 148 L201 148 L201 165 L96 165 L96 148 Z"/>
            </clipPath>
            <clipPath clipPathUnits="userSpaceOnUse" id="clipPath93">
                <path d="M174 118 L200 118 L200 135 L174 135 L174 118 Z"/>
            </clipPath>
            <clipPath clipPathUnits="userSpaceOnUse" id="clipPath94">
                <path d="M184 83 L207 83 L207 96 L184 96 L184 83 Z"/>
            </clipPath>
            <clipPath clipPathUnits="userSpaceOnUse" id="clipPath95">
                <path d="M299 426 L593 426 L593 521 L299 521 L299 426 Z"/>
            </clipPath>
            <clipPath clipPathUnits="userSpaceOnUse" id="clipPath96">
                <path d="M343 483 L417 483 L417 500 L343 500 L343 483 Z"/>
            </clipPath>
            <clipPath clipPathUnits="userSpaceOnUse" id="clipPath97">
                <path d="M432 484 L442 484 L442 501 L432 501 L432 484 Z"/>
            </clipPath>
            <clipPath clipPathUnits="userSpaceOnUse" id="clipPath98">
                <path d="M421 439 L434 439 L434 462 L421 462 L421 439 Z"/>
            </clipPath>
            <clipPath clipPathUnits="userSpaceOnUse" id="clipPath99">
                <path d="M414 426 L718 426 L718 529 L414 529 L414 426 Z"/>
            </clipPath>
            <clipPath clipPathUnits="userSpaceOnUse" id="clipPath100">
                <path d="M564 485 L652 485 L652 502 L564 502 L564 485 Z"/>
            </clipPath>
            <clipPath clipPathUnits="userSpaceOnUse" id="clipPath101">
                <path d="M527 485 L552 485 L552 502 L527 502 L527 485 Z"/>
            </clipPath>
            <clipPath clipPathUnits="userSpaceOnUse" id="clipPath102">
                <path d="M549 439 L562 439 L562 462 L549 462 L549 439 Z"/>
            </clipPath>
        </defs>
        <g font-size="15" fill="white" font-family="'Cantarell'"
            stroke-linejoin="round" stroke="white" stroke-width="0" stroke-miterlimit="0">
            <rect x="0" y="0" clip-path="url(#clipPath1)" width="660"
                height="589" stroke="none"/>
        </g>
        <g stroke-width="0.1" font-size="15" font-family="'Cantarell'" stroke-linecap="butt">
            <line clip-path="url(#clipPath1)" fill="none" x1="1"
                x2="139" y1="35" y2="35"/>
            <line clip-path="url(#clipPath1)" fill="none" x1="139"
                x2="146" y1="35" y2="21"/>
            <line clip-path="url(#clipPath1)" fill="none" x1="146"
                x2="146" y1="21" y2="1"/>
            <text x="6" y="22" clip-path="url(#clipPath2)" stroke="none"
                font-weight="bold" xml:space="preserve">package </text>
            <text font-size="13" x="70" y="22"
                clip-path="url(#clipPath3)" font-family="'Dialog'"
                stroke="none" xml:space="preserve">strategies</text>
            <rect x="205" y="67" clip-path="url(#clipPath4)"
                fill="rgb(237,247,200)" width="282" height="133" stroke="none"/>
        </g>
        <g font-size="13" stroke-linecap="butt" fill="rgb(106,88,75)"
            stroke="rgb(106,88,75)" stroke-width="0.1">
            <text xml:space="preserve" x="281" y="82"
                clip-path="url(#clipPath5)" font-weight="bold" stroke="none">TunableManeuver</text>
            <line clip-path="url(#clipPath6)" fill="none" x1="207"
                x2="485" y1="84" y2="84"/>
            <text x="208" y="110" clip-path="url(#clipPath7)"
                fill="black" stroke="none" font-weight="normal" xml:space="preserve">+</text>
            <text x="221" y="110" clip-path="url(#clipPath8)"
                fill="black" stroke="none" font-weight="normal" xml:space="preserve">getParameters</text>
            <text x="318" y="110" clip-path="url(#clipPath9)"
                fill="black" stroke="none" font-weight="normal" xml:space="preserve">() : List</text>
            <text x="208" y="127" clip-path="url(#clipPath10)"
                fill="black" stroke="none" font-weight="normal" xml:space="preserve">+</text>
            <text x="221" y="127" clip-path="url(#clipPath11)"
                fill="black" stroke="none" font-weight="normal" xml:space="preserve">getManeuver</text>
            <text x="307" y="127" clip-path="url(#clipPath12)"
                fill="black" stroke="none" font-weight="normal" xml:space="preserve">() : ScheduledManeuver</text>
            <text x="208" y="144" clip-path="url(#clipPath13)"
                fill="black" stroke="none" font-weight="normal" xml:space="preserve">+</text>
            <text x="221" y="144" clip-path="url(#clipPath14)"
                fill="black" stroke="none" font-weight="normal" xml:space="preserve">updateThrust</text>
            <text x="308" y="144" clip-path="url(#clipPath15)"
                fill="black" stroke="none" font-weight="normal" xml:space="preserve">(consumedMass : double)</text>
            <text x="208" y="161" clip-path="url(#clipPath16)"
                fill="black" stroke="none" font-weight="normal" xml:space="preserve">+</text>
            <text x="221" y="161" clip-path="url(#clipPath17)"
                fill="black" stroke="none" font-weight="normal" xml:space="preserve">updateIsp</text>
            <text x="286" y="161" clip-path="url(#clipPath18)"
                fill="black" stroke="none" font-weight="normal" xml:space="preserve">(consumedMass : double)</text>
            <text x="208" y="178" clip-path="url(#clipPath19)"
                fill="black" stroke="none" font-weight="normal" xml:space="preserve">+</text>
            <text x="221" y="178" clip-path="url(#clipPath20)"
                fill="black" stroke="none" font-weight="normal" xml:space="preserve">getDV</text>
            <text x="263" y="178" clip-path="url(#clipPath21)"
                fill="black" stroke="none" font-weight="normal" xml:space="preserve">() : double</text>
            <text x="208" y="195" clip-path="url(#clipPath22)"
                fill="black" stroke="none" font-weight="normal" xml:space="preserve">+</text>
            <text x="221" y="195" clip-path="url(#clipPath23)"
                fill="black" stroke="none" font-weight="normal" xml:space="preserve">getDate</text>
            <text x="275" y="195" clip-path="url(#clipPath24)"
                fill="black" stroke="none" font-weight="normal" xml:space="preserve">() : AbsoluteDate</text>
            <line clip-path="url(#clipPath25)" fill="none" x1="207"
                x2="485" y1="94" y2="94"/>
        </g>
        <g font-size="15" stroke-linecap="butt" fill="rgb(106,88,75)"
            font-family="'Cantarell'" stroke="rgb(106,88,75)" stroke-width="1.1">
            <rect x="205" y="67" clip-path="url(#clipPath4)" fill="none"
                width="281" height="132"/>
            <rect x="105" y="346" clip-path="url(#clipPath26)"
                fill="rgb(237,247,200)" width="221" height="56" stroke="none"/>
        </g>
        <g font-size="13" stroke-linecap="butt" fill="rgb(106,88,75)"
            font-style="italic" stroke="rgb(106,88,75)"
            font-weight="bold" stroke-width="1.1">
            <text xml:space="preserve" x="165" y="361"
                clip-path="url(#clipPath27)" stroke="none">SKParameter</text>
            <text x="164" y="378" clip-path="url(#clipPath28)"
                font-style="normal" stroke="none" xml:space="preserve">(from control)</text>
        </g>
        <g font-size="15" stroke-linecap="butt" fill="rgb(106,88,75)"
            font-family="'Cantarell'" stroke="rgb(106,88,75)" stroke-width="0.1">
            <line clip-path="url(#clipPath29)" fill="none" x1="107"
                x2="324" y1="380" y2="380"/>
            <line clip-path="url(#clipPath30)" fill="none" x1="107"
                x2="324" y1="390" y2="390"/>
            <rect x="105" y="346" clip-path="url(#clipPath26)"
                fill="none" width="220" height="55" stroke-width="1.1"/>
        </g>
        <g fill="rgb(243,239,235)" stroke-width="1.1" font-size="13"
            stroke-linecap="butt" stroke="rgb(243,239,235)">
            <polygon clip-path="url(#clipPath31)"
                points=" 12 266 217 266 226 276 226 307 12 307" stroke="none"/>
            <polygon fill="none" stroke-width="0.1"
                clip-path="url(#clipPath31)"
                points=" 216 266 216 276 226 276 216 266 12 266 12 307 226 307 226 276" stroke="rgb(105,22,22)"/>
            <text x="15" y="282" clip-path="url(#clipPath32)"
                fill="rgb(105,22,22)" stroke="none" stroke-width="0.1" xml:space="preserve">the two parameters are date</text>
            <text x="15" y="297" clip-path="url(#clipPath32)"
                fill="rgb(105,22,22)" stroke="none" stroke-width="0.1" xml:space="preserve">and amplitude</text>
            <text x="15" y="312" clip-path="url(#clipPath32)"
                fill="rgb(105,22,22)" stroke="none" stroke-width="0.1" xml:space="preserve"></text>
        </g>
        <g font-size="15" stroke-linecap="butt" fill="rgb(237,247,200)"
            font-family="'Cantarell'" stroke="rgb(237,247,200)" stroke-width="0.1">
            <rect x="387" y="239" clip-path="url(#clipPath33)"
                width="263" height="201" stroke="none"/>
        </g>
        <g font-size="13" stroke-linecap="butt" fill="rgb(106,88,75)"
            stroke="rgb(106,88,75)" stroke-width="0.1">
            <text xml:space="preserve" x="444" y="254"
                clip-path="url(#clipPath34)" font-weight="bold" stroke="none">ScheduledManeuver</text>
            <line clip-path="url(#clipPath35)" fill="none" x1="389"
                x2="648" y1="256" y2="256"/>
            <text x="390" y="282" clip-path="url(#clipPath36)"
                fill="black" stroke="none" font-weight="normal" xml:space="preserve">+</text>
            <text x="403" y="282" clip-path="url(#clipPath37)"
                fill="black" stroke="none" font-weight="normal" xml:space="preserve">getName</text>
            <text x="465" y="282" clip-path="url(#clipPath38)"
                fill="black" stroke="none" font-weight="normal" xml:space="preserve">() : String</text>
            <text x="390" y="299" clip-path="url(#clipPath39)"
                fill="black" stroke="none" font-weight="normal" xml:space="preserve">+</text>
            <text x="403" y="299" clip-path="url(#clipPath40)"
                fill="black" stroke="none" font-weight="normal" xml:space="preserve">isInPlane</text>
            <text x="461" y="299" clip-path="url(#clipPath41)"
                fill="black" stroke="none" font-weight="normal" xml:space="preserve">() : boolean</text>
            <text x="390" y="316" clip-path="url(#clipPath42)"
                fill="black" stroke="none" font-weight="normal" xml:space="preserve">+</text>
            <text x="403" y="316" clip-path="url(#clipPath43)"
                fill="black" stroke="none" font-weight="normal" xml:space="preserve">isReplanned</text>
            <text x="481" y="316" clip-path="url(#clipPath44)"
                fill="black" stroke="none" font-weight="normal" xml:space="preserve">() : boolean</text>
            <text x="390" y="333" clip-path="url(#clipPath45)"
                fill="black" stroke="none" font-weight="normal" xml:space="preserve">+</text>
            <text x="403" y="333" clip-path="url(#clipPath46)"
                fill="black" stroke="none" font-weight="normal" xml:space="preserve">getDate</text>
            <text x="457" y="333" clip-path="url(#clipPath47)"
                fill="black" stroke="none" font-weight="normal" xml:space="preserve">() : AbsoluteDate</text>
            <text x="390" y="350" clip-path="url(#clipPath48)"
                fill="black" stroke="none" font-weight="normal" xml:space="preserve">+</text>
            <text x="403" y="350" clip-path="url(#clipPath49)"
                fill="black" stroke="none" font-weight="normal" xml:space="preserve">getDeltaV</text>
            <text x="469" y="350" clip-path="url(#clipPath50)"
                fill="black" stroke="none" font-weight="normal" xml:space="preserve">() : Vector3D</text>
            <text x="390" y="367" clip-path="url(#clipPath51)"
                fill="black" stroke="none" font-weight="normal" xml:space="preserve">+</text>
            <text x="403" y="367" clip-path="url(#clipPath52)"
                fill="black" stroke="none" font-weight="normal" xml:space="preserve">getThrust</text>
            <text x="466" y="367" clip-path="url(#clipPath53)"
                fill="black" stroke="none" font-weight="normal" xml:space="preserve">() : double</text>
            <text x="390" y="384" clip-path="url(#clipPath54)"
                fill="black" stroke="none" font-weight="normal" xml:space="preserve">+</text>
            <text x="403" y="384" clip-path="url(#clipPath55)"
                fill="black" stroke="none" font-weight="normal" xml:space="preserve">getIsp</text>
            <text x="444" y="384" clip-path="url(#clipPath56)"
                fill="black" stroke="none" font-weight="normal" xml:space="preserve">() : double</text>
            <text x="390" y="401" clip-path="url(#clipPath57)"
                fill="black" stroke="none" font-weight="normal" xml:space="preserve">+</text>
            <text x="403" y="401" clip-path="url(#clipPath58)"
                fill="black" stroke="none" font-weight="normal" xml:space="preserve">getDuration</text>
            <text x="481" y="401" clip-path="url(#clipPath59)"
                fill="black" stroke="none" font-weight="normal" xml:space="preserve">(mass : double) : double</text>
            <text x="390" y="418" clip-path="url(#clipPath60)"
                fill="black" stroke="none" font-weight="normal" xml:space="preserve">+</text>
            <text x="403" y="418" clip-path="url(#clipPath61)"
                fill="black" stroke="none" font-weight="normal" xml:space="preserve">getTrajectory</text>
            <text x="487" y="418" clip-path="url(#clipPath62)"
                fill="black" stroke="none" font-weight="normal" xml:space="preserve">() : Propagator</text>
            <text x="390" y="435" clip-path="url(#clipPath63)"
                fill="black" stroke="none" font-weight="normal" xml:space="preserve">+</text>
            <text x="403" y="435" clip-path="url(#clipPath64)"
                fill="black" stroke="none" font-weight="normal" xml:space="preserve">Operation10</text>
            <text x="484" y="435" clip-path="url(#clipPath65)"
                fill="black" stroke="none" font-weight="normal" xml:space="preserve">() : SKControl</text>
            <line clip-path="url(#clipPath66)" fill="none" x1="389"
                x2="648" y1="266" y2="266"/>
        </g>
        <g font-size="15" stroke-linecap="butt" fill="rgb(106,88,75)"
            font-family="'Cantarell'" stroke="rgb(106,88,75)" stroke-width="1.1">
            <rect x="387" y="239" clip-path="url(#clipPath33)"
                fill="none" width="262" height="200"/>
            <rect x="336" y="506" clip-path="url(#clipPath67)"
                fill="rgb(243,232,255)" width="135" height="73" stroke="none"/>
        </g>
        <g fill="rgb(41,0,141)" stroke-width="1.1" font-size="13"
            stroke-linecap="butt" stroke="rgb(41,0,141)">
            <text xml:space="preserve" x="353" y="521"
                clip-path="url(#clipPath68)" stroke="none">&lt;&lt;dataType&gt;&gt;</text>
            <text x="361" y="538" clip-path="url(#clipPath69)"
                stroke="none" font-weight="bold" xml:space="preserve">Propagator</text>
            <text xml:space="preserve" x="343" y="555"
                clip-path="url(#clipPath70)" stroke="none">(from propagation)</text>
            <line clip-path="url(#clipPath71)" fill="none" x1="338"
                x2="469" y1="557" y2="557" stroke-width="0.1"/>
            <line clip-path="url(#clipPath72)" fill="none" x1="338"
                x2="469" y1="567" y2="567" stroke-width="0.1"/>
            <rect x="336" y="506" clip-path="url(#clipPath67)"
                fill="none" width="134" height="72"/>
        </g>
        <g font-size="15" stroke-linecap="butt" fill="rgb(244,232,212)"
            font-family="'Cantarell'" stroke="rgb(244,232,212)" stroke-width="1.1">
            <rect x="542" y="509" clip-path="url(#clipPath73)"
                width="100" height="67" stroke="none"/>
        </g>
        <g fill="rgb(110,44,18)" stroke-width="1.1" font-size="11"
            stroke-linecap="butt" stroke="rgb(110,44,18)">
            <text xml:space="preserve" x="549" y="522"
                clip-path="url(#clipPath74)" stroke="none">&lt;&lt;interface&gt;&gt;</text>
            <text x="560" y="537" clip-path="url(#clipPath75)"
                stroke="none" font-weight="bold" xml:space="preserve">SKControl</text>
            <text xml:space="preserve" x="553" y="552"
                clip-path="url(#clipPath76)" stroke="none">(from control)</text>
            <line clip-path="url(#clipPath77)" fill="none" x1="544"
                x2="640" y1="554" y2="554" stroke-width="0.1"/>
            <line clip-path="url(#clipPath78)" fill="none" x1="544"
                x2="640" y1="564" y2="564" stroke-width="0.1"/>
            <rect x="542" y="509" clip-path="url(#clipPath73)"
                fill="none" width="99" height="66"/>
        </g>
        <g stroke-width="1.1" font-size="15" font-family="'Cantarell'" stroke-linecap="butt">
            <rect x="0" y="0" clip-path="url(#clipPath1)" fill="none"
                width="659" height="588"/>
        </g>
        <g fill="rgb(153,15,15)" stroke-width="1.1" font-size="13"
            stroke-linecap="butt" stroke="rgb(153,15,15)">
            <line clip-path="url(#clipPath79)" fill="none" x1="306"
                x2="306" y1="200" y2="346"/>
            <text xml:space="preserve" x="291" y="339"
                clip-path="url(#clipPath80)" stroke="none">2</text>
            <polygon fill="white" clip-path="url(#clipPath81)"
                points=" 306 200 311 210 306 220 301 210" stroke="none"/>
            <polygon fill="none" clip-path="url(#clipPath81)" points=" 306 200 311 210 306 220 301 210"/>
            <line clip-path="url(#clipPath82)" fill="none" x1="227"
                x2="306" y1="279" y2="279" stroke-dasharray="8,7" stroke="rgb(105,22,22)"/>
            <line clip-path="url(#clipPath83)" fill="none" x1="426"
                x2="426" y1="200" y2="239"/>
            <text xml:space="preserve" x="436" y="227"
                clip-path="url(#clipPath84)" stroke="none">+creates</text>
            <text xml:space="preserve" x="408" y="227"
                clip-path="url(#clipPath85)" stroke="none">1</text>
            <line clip-path="url(#clipPath86)" fill="none" x1="421"
                x2="426" y1="229" y2="239"/>
            <line clip-path="url(#clipPath86)" fill="none" x1="426"
                x2="431" y1="239" y2="229"/>
            <line clip-path="url(#clipPath87)" fill="none" x1="487"
                x2="561" y1="140" y2="140"/>
            <line clip-path="url(#clipPath87)" fill="none" x1="561"
                x2="561" y1="140" y2="87"/>
            <line clip-path="url(#clipPath87)" fill="none" x1="561"
                x2="487" y1="87" y2="87"/>
            <text xml:space="preserve" x="491" y="165"
                clip-path="url(#clipPath88)" stroke="none">+dvReference</text>
            <text xml:space="preserve" x="497" y="128"
                clip-path="url(#clipPath89)" stroke="none">0..1</text>
            <polygon fill="white" clip-path="url(#clipPath90)"
                points=" 487 87 497 82 507 87 497 92" stroke="none"/>
            <polygon fill="none" clip-path="url(#clipPath90)" points=" 487 87 497 82 507 87 497 92"/>
            <line clip-path="url(#clipPath91)" fill="none" x1="205"
                x2="115" y1="89" y2="89"/>
            <line clip-path="url(#clipPath91)" fill="none" x1="115"
                x2="115" y1="89" y2="139"/>
            <line clip-path="url(#clipPath91)" fill="none" x1="115"
                x2="205" y1="139" y2="139"/>
            <text xml:space="preserve" x="97" y="162"
                clip-path="url(#clipPath92)" stroke="none">+dateReference</text>
            <text xml:space="preserve" x="175" y="132"
                clip-path="url(#clipPath93)" stroke="none">0..1</text>
            <polygon fill="white" clip-path="url(#clipPath94)"
                points=" 205 89 195 94 185 89 195 84" stroke="none"/>
            <polygon fill="none" clip-path="url(#clipPath94)" points=" 205 89 195 94 185 89 195 84"/>
            <line clip-path="url(#clipPath95)" fill="none" x1="427"
                x2="427" y1="440" y2="506"/>
            <text xml:space="preserve" x="344" y="497"
                clip-path="url(#clipPath96)" stroke="none">+trajectory</text>
            <text xml:space="preserve" x="433" y="498"
                clip-path="url(#clipPath97)" stroke="none">1</text>
            <polygon fill="white" clip-path="url(#clipPath98)"
                points=" 427 440 432 450 427 460 422 450" stroke="none"/>
            <polygon fill="none" clip-path="url(#clipPath98)" points=" 427 440 432 450 427 460 422 450"/>
            <line clip-path="url(#clipPath99)" fill="none" x1="555"
                x2="555" y1="440" y2="509"/>
            <text xml:space="preserve" x="565" y="499"
                clip-path="url(#clipPath100)" stroke="none">+control laws</text>
            <text xml:space="preserve" x="528" y="499"
                clip-path="url(#clipPath101)" stroke="none">1..*</text>
            <polygon fill="white" clip-path="url(#clipPath102)"
                points=" 555 440 560 450 555 460 550 450" stroke="none"/>
            <polygon fill="none" clip-path="url(#clipPath102)" points=" 555 440 560 450 555 460 550 450"/>
        </g>
    </g>
</svg>
