<?xml version="1.0" encoding="UTF-8"?>
<svg stroke-dasharray="none" shape-rendering="auto"
    font-family="'Dialog'" width="1149" text-rendering="auto"
    fill-opacity="1" color-interpolation="auto" color-rendering="auto"
    font-size="12" fill="black" stroke="black" image-rendering="auto"
    stroke-miterlimit="10" stroke-linecap="square"
    stroke-linejoin="miter" font-style="normal" height="1641"
    stroke-width="1" stroke-dashoffset="0" font-weight="normal" stroke-opacity="1">
    <!--Generated by the Batik Graphics2D SVG Generator-->
    <defs id="genericDefs"/>
    <g>
        <defs id="defs1">
            <clipPath clipPathUnits="userSpaceOnUse" id="clipPath1">
                <path d="M-1 -1 L1149 -1 L1149 1641 L-1 1641 L-1 -1 Z"/>
            </clipPath>
            <clipPath clipPathUnits="userSpaceOnUse" id="clipPath2">
                <path d="M5 7 L65 7 L65 22 L5 22 L5 7 Z"/>
            </clipPath>
            <clipPath clipPathUnits="userSpaceOnUse" id="clipPath3">
                <path d="M65 5 L93 5 L93 24 L65 24 L65 5 Z"/>
            </clipPath>
            <clipPath clipPathUnits="userSpaceOnUse" id="clipPath4">
                <path d="M61 90 L443 90 L443 315 L61 315 L61 90 Z"/>
            </clipPath>
            <clipPath clipPathUnits="userSpaceOnUse" id="clipPath5">
                <path d="M180 92 L323 92 L323 111 L180 111 L180 92 Z"/>
            </clipPath>
            <clipPath clipPathUnits="userSpaceOnUse" id="clipPath6">
                <path d="M63 109 L441 109 L441 121 L63 121 L63 109 Z"/>
            </clipPath>
            <clipPath clipPathUnits="userSpaceOnUse" id="clipPath7">
                <path d="M64 122 L77 122 L77 141 L64 141 L64 122 Z"/>
            </clipPath>
            <clipPath clipPathUnits="userSpaceOnUse" id="clipPath8">
                <path d="M77 122 L147 122 L147 141 L77 141 L77 122 Z"/>
            </clipPath>
            <clipPath clipPathUnits="userSpaceOnUse" id="clipPath9">
                <path d="M147 122 L283 122 L283 141 L147 141 L147 122 Z"/>
            </clipPath>
            <clipPath clipPathUnits="userSpaceOnUse" id="clipPath10">
                <path d="M64 141 L77 141 L77 160 L64 160 L64 141 Z"/>
            </clipPath>
            <clipPath clipPathUnits="userSpaceOnUse" id="clipPath11">
                <path d="M77 141 L155 141 L155 160 L77 160 L77 141 Z"/>
            </clipPath>
            <clipPath clipPathUnits="userSpaceOnUse" id="clipPath12">
                <path d="M155 141 L286 141 L286 160 L155 160 L155 141 Z"/>
            </clipPath>
            <clipPath clipPathUnits="userSpaceOnUse" id="clipPath13">
                <path d="M64 160 L77 160 L77 179 L64 179 L64 160 Z"/>
            </clipPath>
            <clipPath clipPathUnits="userSpaceOnUse" id="clipPath14">
                <path d="M77 160 L138 160 L138 179 L77 179 L77 160 Z"/>
            </clipPath>
            <clipPath clipPathUnits="userSpaceOnUse" id="clipPath15">
                <path d="M138 160 L256 160 L256 179 L138 179 L138 160 Z"/>
            </clipPath>
            <clipPath clipPathUnits="userSpaceOnUse" id="clipPath16">
                <path d="M64 179 L77 179 L77 198 L64 198 L64 179 Z"/>
            </clipPath>
            <clipPath clipPathUnits="userSpaceOnUse" id="clipPath17">
                <path d="M77 179 L145 179 L145 198 L77 198 L77 179 Z"/>
            </clipPath>
            <clipPath clipPathUnits="userSpaceOnUse" id="clipPath18">
                <path d="M145 179 L268 179 L268 198 L145 198 L145 179 Z"/>
            </clipPath>
            <clipPath clipPathUnits="userSpaceOnUse" id="clipPath19">
                <path d="M64 198 L77 198 L77 217 L64 217 L64 198 Z"/>
            </clipPath>
            <clipPath clipPathUnits="userSpaceOnUse" id="clipPath20">
                <path d="M77 198 L116 198 L116 217 L77 217 L77 198 Z"/>
            </clipPath>
            <clipPath clipPathUnits="userSpaceOnUse" id="clipPath21">
                <path d="M116 198 L212 198 L212 217 L116 217 L116 198 Z"/>
            </clipPath>
            <clipPath clipPathUnits="userSpaceOnUse" id="clipPath22">
                <path d="M64 217 L77 217 L77 236 L64 236 L64 217 Z"/>
            </clipPath>
            <clipPath clipPathUnits="userSpaceOnUse" id="clipPath23">
                <path d="M77 217 L136 217 L136 236 L77 236 L77 217 Z"/>
            </clipPath>
            <clipPath clipPathUnits="userSpaceOnUse" id="clipPath24">
                <path d="M136 217 L259 217 L259 236 L136 236 L136 217 Z"/>
            </clipPath>
            <clipPath clipPathUnits="userSpaceOnUse" id="clipPath25">
                <path d="M64 236 L77 236 L77 255 L64 255 L64 236 Z"/>
            </clipPath>
            <clipPath clipPathUnits="userSpaceOnUse" id="clipPath26">
                <path d="M77 236 L131 236 L131 255 L77 255 L77 236 Z"/>
            </clipPath>
            <clipPath clipPathUnits="userSpaceOnUse" id="clipPath27">
                <path d="M131 236 L417 236 L417 255 L131 255 L131 236 Z"/>
            </clipPath>
            <clipPath clipPathUnits="userSpaceOnUse" id="clipPath28">
                <path d="M64 255 L77 255 L77 274 L64 274 L64 255 Z"/>
            </clipPath>
            <clipPath clipPathUnits="userSpaceOnUse" id="clipPath29">
                <path d="M77 255 L141 255 L141 274 L77 274 L77 255 Z"/>
            </clipPath>
            <clipPath clipPathUnits="userSpaceOnUse" id="clipPath30">
                <path d="M141 255 L429 255 L429 274 L141 274 L141 255 Z"/>
            </clipPath>
            <clipPath clipPathUnits="userSpaceOnUse" id="clipPath31">
                <path d="M64 274 L77 274 L77 293 L64 293 L64 274 Z"/>
            </clipPath>
            <clipPath clipPathUnits="userSpaceOnUse" id="clipPath32">
                <path d="M77 274 L183 274 L183 293 L77 293 L77 274 Z"/>
            </clipPath>
            <clipPath clipPathUnits="userSpaceOnUse" id="clipPath33">
                <path d="M183 274 L303 274 L303 293 L183 293 L183 274 Z"/>
            </clipPath>
            <clipPath clipPathUnits="userSpaceOnUse" id="clipPath34">
                <path d="M64 293 L77 293 L77 312 L64 312 L64 293 Z"/>
            </clipPath>
            <clipPath clipPathUnits="userSpaceOnUse" id="clipPath35">
                <path d="M77 293 L174 293 L174 312 L77 312 L77 293 Z"/>
            </clipPath>
            <clipPath clipPathUnits="userSpaceOnUse" id="clipPath36">
                <path d="M174 293 L294 293 L294 312 L174 312 L174 293 Z"/>
            </clipPath>
            <clipPath clipPathUnits="userSpaceOnUse" id="clipPath37">
                <path d="M63 119 L441 119 L441 313 L63 313 L63 119 Z"/>
            </clipPath>
            <clipPath clipPathUnits="userSpaceOnUse" id="clipPath38">
                <path d="M544 85 L900 85 L900 338 L544 338 L544 85 Z"/>
            </clipPath>
            <clipPath clipPathUnits="userSpaceOnUse" id="clipPath39">
                <path d="M658 87 L786 87 L786 106 L658 106 L658 87 Z"/>
            </clipPath>
            <clipPath clipPathUnits="userSpaceOnUse" id="clipPath40">
                <path d="M668 106 L775 106 L775 125 L668 125 L668 106 Z"/>
            </clipPath>
            <clipPath clipPathUnits="userSpaceOnUse" id="clipPath41">
                <path d="M656 126 L787 126 L787 145 L656 145 L656 126 Z"/>
            </clipPath>
            <clipPath clipPathUnits="userSpaceOnUse" id="clipPath42">
                <path d="M669 145 L774 145 L774 164 L669 164 L669 145 Z"/>
            </clipPath>
            <clipPath clipPathUnits="userSpaceOnUse" id="clipPath43">
                <path d="M675 164 L767 164 L767 183 L675 183 L675 164 Z"/>
            </clipPath>
            <clipPath clipPathUnits="userSpaceOnUse" id="clipPath44">
                <path d="M644 183 L798 183 L798 202 L644 202 L644 183 Z"/>
            </clipPath>
            <clipPath clipPathUnits="userSpaceOnUse" id="clipPath45">
                <path d="M648 202 L794 202 L794 221 L648 221 L648 202 Z"/>
            </clipPath>
            <clipPath clipPathUnits="userSpaceOnUse" id="clipPath46">
                <path d="M643 221 L800 221 L800 240 L643 240 L643 221 Z"/>
            </clipPath>
            <clipPath clipPathUnits="userSpaceOnUse" id="clipPath47">
                <path d="M714 240 L728 240 L728 259 L714 259 L714 240 Z"/>
            </clipPath>
            <clipPath clipPathUnits="userSpaceOnUse" id="clipPath48">
                <path d="M639 259 L804 259 L804 278 L639 278 L639 259 Z"/>
            </clipPath>
            <clipPath clipPathUnits="userSpaceOnUse" id="clipPath49">
                <path d="M607 278 L836 278 L836 297 L607 297 L607 278 Z"/>
            </clipPath>
            <clipPath clipPathUnits="userSpaceOnUse" id="clipPath50">
                <path d="M622 297 L820 297 L820 316 L622 316 L622 297 Z"/>
            </clipPath>
            <clipPath clipPathUnits="userSpaceOnUse" id="clipPath51">
                <path d="M627 316 L816 316 L816 335 L627 335 L627 316 Z"/>
            </clipPath>
            <clipPath clipPathUnits="userSpaceOnUse" id="clipPath52">
                <path d="M546 123 L898 123 L898 336 L546 336 L546 123 Z"/>
            </clipPath>
            <clipPath clipPathUnits="userSpaceOnUse" id="clipPath53">
                <path d="M432 69 L474 69 L474 101 L432 101 L432 69 Z"/>
            </clipPath>
            <clipPath clipPathUnits="userSpaceOnUse" id="clipPath54">
                <path d="M436 75 L460 75 L460 94 L436 94 L436 75 Z"/>
            </clipPath>
            <clipPath clipPathUnits="userSpaceOnUse" id="clipPath55">
                <path d="M329 165 L658 165 L658 247 L329 247 L329 165 Z"/>
            </clipPath>
            <clipPath clipPathUnits="userSpaceOnUse" id="clipPath56">
                <path d="M534 200 L547 200 L547 213 L534 213 L534 200 Z"/>
            </clipPath>
        </defs>
        <g font-size="11" fill="white" stroke-linejoin="round"
            stroke="white" stroke-width="0" stroke-miterlimit="0">
            <rect x="0" y="0" clip-path="url(#clipPath1)" width="1148"
                height="1640" stroke="none"/>
        </g>
        <g stroke-width="0.1" font-size="11" stroke-linecap="butt">
            <line clip-path="url(#clipPath1)" fill="none" x1="1" x2="97"
                y1="31" y2="31"/>
            <line clip-path="url(#clipPath1)" fill="none" x1="97"
                x2="104" y1="31" y2="17"/>
            <line clip-path="url(#clipPath1)" fill="none" x1="104"
                x2="104" y1="17" y2="1"/>
            <text x="6" y="19" clip-path="url(#clipPath2)" stroke="none"
                font-weight="bold" xml:space="preserve">package </text>
            <text font-size="13" x="66" y="19"
                clip-path="url(#clipPath3)" stroke="none" xml:space="preserve">utils</text>
            <rect x="62" y="91" clip-path="url(#clipPath4)"
                fill="rgb(237,247,200)" width="380" height="223" stroke="none"/>
        </g>
        <g font-size="13" stroke-linecap="butt" fill="rgb(106,88,75)"
            stroke="rgb(106,88,75)" font-weight="bold" stroke-width="0.1">
            <text xml:space="preserve" x="181" y="106"
                clip-path="url(#clipPath5)" stroke="none">KeyValueFileParser</text>
            <line clip-path="url(#clipPath6)" fill="none" x1="64"
                x2="440" y1="110" y2="110"/>
            <text x="65" y="136" clip-path="url(#clipPath7)"
                fill="black" stroke="none" font-weight="normal" xml:space="preserve">+</text>
            <text x="78" y="136" clip-path="url(#clipPath8)"
                fill="black" stroke="none" font-weight="normal" xml:space="preserve">parseInput</text>
            <text x="148" y="136" clip-path="url(#clipPath9)"
                fill="black" stroke="none" font-weight="normal" xml:space="preserve">(input : InputStream)</text>
            <text x="65" y="155" clip-path="url(#clipPath10)"
                fill="black" stroke="none" font-weight="normal" xml:space="preserve">+</text>
            <text x="78" y="155" clip-path="url(#clipPath11)"
                fill="black" stroke="none" font-weight="normal" xml:space="preserve">containsKey</text>
            <text x="156" y="155" clip-path="url(#clipPath12)"
                fill="black" stroke="none" font-weight="normal" xml:space="preserve">(key : Key) : boolean</text>
            <text x="65" y="174" clip-path="url(#clipPath13)"
                fill="black" stroke="none" font-weight="normal" xml:space="preserve">+</text>
            <text x="78" y="174" clip-path="url(#clipPath14)"
                fill="black" stroke="none" font-weight="normal" xml:space="preserve">getString</text>
            <text x="139" y="174" clip-path="url(#clipPath15)"
                fill="black" stroke="none" font-weight="normal" xml:space="preserve">(key : Key) : String</text>
            <text x="65" y="193" clip-path="url(#clipPath16)"
                fill="black" stroke="none" font-weight="normal" xml:space="preserve">+</text>
            <text x="78" y="193" clip-path="url(#clipPath17)"
                fill="black" stroke="none" font-weight="normal" xml:space="preserve">getDouble</text>
            <text x="146" y="193" clip-path="url(#clipPath18)"
                fill="black" stroke="none" font-weight="normal" xml:space="preserve">(key : Key) : double</text>
            <text x="65" y="212" clip-path="url(#clipPath19)"
                fill="black" stroke="none" font-weight="normal" xml:space="preserve">+</text>
            <text x="78" y="212" clip-path="url(#clipPath20)"
                fill="black" stroke="none" font-weight="normal" xml:space="preserve">getInt</text>
            <text x="117" y="212" clip-path="url(#clipPath21)"
                fill="black" stroke="none" font-weight="normal" xml:space="preserve">(key : Key) : int</text>
            <text x="65" y="231" clip-path="url(#clipPath22)"
                fill="black" stroke="none" font-weight="normal" xml:space="preserve">+</text>
            <text x="78" y="231" clip-path="url(#clipPath23)"
                fill="black" stroke="none" font-weight="normal" xml:space="preserve">getAngle</text>
            <text x="137" y="231" clip-path="url(#clipPath24)"
                fill="black" stroke="none" font-weight="normal" xml:space="preserve">(key : Key) : double</text>
            <text x="65" y="250" clip-path="url(#clipPath25)"
                fill="black" stroke="none" font-weight="normal" xml:space="preserve">+</text>
            <text x="78" y="250" clip-path="url(#clipPath26)"
                fill="black" stroke="none" font-weight="normal" xml:space="preserve">getDate</text>
            <text x="132" y="250" clip-path="url(#clipPath27)"
                fill="black" stroke="none" font-weight="normal" xml:space="preserve">(key : Key, scale : TimeScale) : AbsoluteDate</text>
            <text x="65" y="269" clip-path="url(#clipPath28)"
                fill="black" stroke="none" font-weight="normal" xml:space="preserve">+</text>
            <text x="78" y="269" clip-path="url(#clipPath29)"
                fill="black" stroke="none" font-weight="normal" xml:space="preserve">getVector</text>
            <text x="142" y="269" clip-path="url(#clipPath30)"
                fill="black" stroke="none" font-weight="normal" xml:space="preserve">(xKey : Key, yKey : Key, zKey : Key) : Vector3D</text>
            <text x="65" y="288" clip-path="url(#clipPath31)"
                fill="black" stroke="none" font-weight="normal" xml:space="preserve">+</text>
            <text x="78" y="288" clip-path="url(#clipPath32)"
                fill="black" stroke="none" font-weight="normal" xml:space="preserve">getInertialFrame</text>
            <text x="184" y="288" clip-path="url(#clipPath33)"
                fill="black" stroke="none" font-weight="normal" xml:space="preserve">(key : Key) : Frame</text>
            <text x="65" y="307" clip-path="url(#clipPath34)"
                fill="black" stroke="none" font-weight="normal" xml:space="preserve">+</text>
            <text x="78" y="307" clip-path="url(#clipPath35)"
                fill="black" stroke="none" font-weight="normal" xml:space="preserve">getEarthFrame</text>
            <text x="175" y="307" clip-path="url(#clipPath36)"
                fill="black" stroke="none" font-weight="normal" xml:space="preserve">(key : Key) : Frame</text>
            <line clip-path="url(#clipPath37)" fill="none" x1="64"
                x2="440" y1="120" y2="120"/>
            <rect x="62" y="91" clip-path="url(#clipPath4)" fill="none"
                width="379" height="222" stroke-width="1.1"/>
        </g>
        <g fill="rgb(238,233,247)" stroke-width="1.1" font-size="11"
            stroke-linecap="butt" stroke="rgb(238,233,247)">
            <rect x="545" y="86" clip-path="url(#clipPath38)"
                width="354" height="251" stroke="none"/>
            <text font-size="13" x="659" y="101"
                clip-path="url(#clipPath39)" fill="rgb(70,13,110)"
                stroke="none" xml:space="preserve">&lt;&lt;enumeration&gt;&gt;</text>
        </g>
        <g font-size="13" stroke-linecap="butt" fill="rgb(70,13,110)"
            stroke="rgb(70,13,110)" font-weight="bold" stroke-width="1.1">
            <text xml:space="preserve" x="669" y="120"
                clip-path="url(#clipPath40)" stroke="none">ParameterKey</text>
            <text x="657" y="140" clip-path="url(#clipPath41)"
                fill="black" stroke="none" font-weight="normal" xml:space="preserve">OUTPUT_FILE_NAME</text>
            <text x="670" y="159" clip-path="url(#clipPath42)"
                fill="black" stroke="none" font-weight="normal" xml:space="preserve">INERTIAL_FRAME</text>
            <text x="676" y="178" clip-path="url(#clipPath43)"
                fill="black" stroke="none" font-weight="normal" xml:space="preserve">EARTH_FRAME</text>
            <text x="645" y="197" clip-path="url(#clipPath44)"
                fill="black" stroke="none" font-weight="normal" xml:space="preserve">GRAVITY_FIELD_DEGREE</text>
            <text x="649" y="216" clip-path="url(#clipPath45)"
                fill="black" stroke="none" font-weight="normal" xml:space="preserve">GRAVITY_FIELD_ORDER</text>
            <text x="644" y="235" clip-path="url(#clipPath46)"
                fill="black" stroke="none" font-weight="normal" xml:space="preserve">ORBIT_CARTESIAN_DATE</text>
            <text x="715" y="254" clip-path="url(#clipPath47)"
                fill="black" stroke="none" font-weight="normal" xml:space="preserve">...</text>
            <text x="640" y="273" clip-path="url(#clipPath48)"
                fill="black" stroke="none" font-weight="normal" xml:space="preserve">SIMULATION_START_DATE</text>
            <text x="608" y="292" clip-path="url(#clipPath49)"
                fill="black" stroke="none" font-weight="normal" xml:space="preserve">SIMULATION_POSITION_TOLERANCE</text>
            <text x="623" y="311" clip-path="url(#clipPath50)"
                fill="black" stroke="none" font-weight="normal" xml:space="preserve">SIMULATION_CYCLE_DURATION</text>
            <text x="628" y="330" clip-path="url(#clipPath51)"
                fill="black" stroke="none" font-weight="normal" xml:space="preserve">SIMULATION_CYCLE_NUMBER</text>
            <line clip-path="url(#clipPath52)" fill="none" x1="547"
                x2="897" y1="124" y2="124" stroke-width="0.1"/>
            <rect x="545" y="86" clip-path="url(#clipPath38)"
                fill="none" width="353" height="250"/>
        </g>
        <g fill="white" stroke-width="1.1" font-size="11"
            stroke-linecap="butt" stroke="white">
            <rect x="434" y="71" clip-path="url(#clipPath53)" width="38"
                height="28" stroke="none"/>
            <rect x="433" y="70" clip-path="url(#clipPath53)"
                fill="none" width="39" stroke-dasharray="6.6,3.3"
                height="29" stroke="black"/>
        </g>
        <g stroke-width="1.1" stroke-dasharray="6.6,3.3" font-size="13" stroke-linecap="butt">
            <text xml:space="preserve" x="437" y="89"
                clip-path="url(#clipPath54)" stroke="none">Key</text>
            <rect x="0" y="0" clip-path="url(#clipPath1)" fill="none"
                width="1147" stroke-dasharray="none" height="1639"/>
            <line clip-path="url(#clipPath55)" fill="none" x1="442"
                x2="545" y1="206" y2="206" stroke-dasharray="none" stroke="rgb(153,15,15)"/>
            <line clip-path="url(#clipPath56)" fill="none" x1="535"
                x2="545" y1="211" y2="206" stroke-dasharray="none" stroke="rgb(153,15,15)"/>
            <line clip-path="url(#clipPath56)" fill="none" x1="545"
                x2="535" y1="206" y2="201" stroke-dasharray="none" stroke="rgb(153,15,15)"/>
        </g>
    </g>
</svg>
