<?xml version="1.0" encoding="UTF-8"?>
<svg stroke-dasharray="none" shape-rendering="auto"
    font-family="'Dialog'" width="675" text-rendering="auto"
    fill-opacity="1" color-interpolation="auto" color-rendering="auto"
    font-size="12" fill="black" stroke="black" image-rendering="auto"
    stroke-miterlimit="10" stroke-linecap="square"
    stroke-linejoin="miter" font-style="normal" height="429"
    stroke-width="1" stroke-dashoffset="0" font-weight="normal" stroke-opacity="1">
    <!--Generated by the Batik Graphics2D SVG Generator-->
    <defs id="genericDefs"/>
    <g>
        <defs id="defs1">
            <clipPath clipPathUnits="userSpaceOnUse" id="clipPath1">
                <path d="M-1 -1 L675 -1 L675 429 L-1 429 L-1 -1 Z"/>
            </clipPath>
            <clipPath clipPathUnits="userSpaceOnUse" id="clipPath2">
                <path d="M5 5 L69 5 L69 28 L5 28 L5 5 Z"/>
            </clipPath>
            <clipPath clipPathUnits="userSpaceOnUse" id="clipPath3">
                <path d="M69 8 L97 8 L97 25 L69 25 L69 8 Z"/>
            </clipPath>
            <clipPath clipPathUnits="userSpaceOnUse" id="clipPath4">
                <path d="M68 62 L538 62 L538 176 L68 176 L68 62 Z"/>
            </clipPath>
            <clipPath clipPathUnits="userSpaceOnUse" id="clipPath5">
                <path d="M259 64 L347 64 L347 79 L259 79 L259 64 Z"/>
            </clipPath>
            <clipPath clipPathUnits="userSpaceOnUse" id="clipPath6">
                <path d="M251 79 L355 79 L355 94 L251 94 L251 79 Z"/>
            </clipPath>
            <clipPath clipPathUnits="userSpaceOnUse" id="clipPath7">
                <path d="M70 92 L536 92 L536 104 L70 104 L70 92 Z"/>
            </clipPath>
            <clipPath clipPathUnits="userSpaceOnUse" id="clipPath8">
                <path d="M71 105 L84 105 L84 122 L71 122 L71 105 Z"/>
            </clipPath>
            <clipPath clipPathUnits="userSpaceOnUse" id="clipPath9">
                <path d="M84 105 L135 105 L135 122 L84 122 L84 105 Z"/>
            </clipPath>
            <clipPath clipPathUnits="userSpaceOnUse" id="clipPath10">
                <path d="M135 105 L411 105 L411 122 L135 122 L135 105 Z"/>
            </clipPath>
            <clipPath clipPathUnits="userSpaceOnUse" id="clipPath11">
                <path d="M71 122 L84 122 L84 139 L71 139 L71 122 Z"/>
            </clipPath>
            <clipPath clipPathUnits="userSpaceOnUse" id="clipPath12">
                <path d="M84 122 L146 122 L146 139 L84 139 L84 122 Z"/>
            </clipPath>
            <clipPath clipPathUnits="userSpaceOnUse" id="clipPath13">
                <path d="M146 122 L208 122 L208 139 L146 139 L146 122 Z"/>
            </clipPath>
            <clipPath clipPathUnits="userSpaceOnUse" id="clipPath14">
                <path d="M71 139 L84 139 L84 156 L71 156 L71 139 Z"/>
            </clipPath>
            <clipPath clipPathUnits="userSpaceOnUse" id="clipPath15">
                <path d="M84 139 L138 139 L138 156 L84 156 L84 139 Z"/>
            </clipPath>
            <clipPath clipPathUnits="userSpaceOnUse" id="clipPath16">
                <path d="M138 139 L249 139 L249 156 L138 156 L138 139 Z"/>
            </clipPath>
            <clipPath clipPathUnits="userSpaceOnUse" id="clipPath17">
                <path d="M71 156 L84 156 L84 173 L71 173 L71 156 Z"/>
            </clipPath>
            <clipPath clipPathUnits="userSpaceOnUse" id="clipPath18">
                <path d="M84 156 L142 156 L142 173 L84 173 L84 156 Z"/>
            </clipPath>
            <clipPath clipPathUnits="userSpaceOnUse" id="clipPath19">
                <path d="M142 156 L524 156 L524 173 L142 173 L142 156 Z"/>
            </clipPath>
            <clipPath clipPathUnits="userSpaceOnUse" id="clipPath20">
                <path d="M70 102 L536 102 L536 174 L70 174 L70 102 Z"/>
            </clipPath>
            <clipPath clipPathUnits="userSpaceOnUse" id="clipPath21">
                <path d="M334 224 L665 224 L665 321 L334 321 L334 224 Z"/>
            </clipPath>
            <clipPath clipPathUnits="userSpaceOnUse" id="clipPath22">
                <path d="M455 226 L543 226 L543 241 L455 241 L455 226 Z"/>
            </clipPath>
            <clipPath clipPathUnits="userSpaceOnUse" id="clipPath23">
                <path d="M461 241 L537 241 L537 256 L461 256 L461 241 Z"/>
            </clipPath>
            <clipPath clipPathUnits="userSpaceOnUse" id="clipPath24">
                <path d="M336 254 L663 254 L663 266 L336 266 L336 254 Z"/>
            </clipPath>
            <clipPath clipPathUnits="userSpaceOnUse" id="clipPath25">
                <path d="M337 267 L350 267 L350 284 L337 284 L337 267 Z"/>
            </clipPath>
            <clipPath clipPathUnits="userSpaceOnUse" id="clipPath26">
                <path d="M350 267 L449 267 L449 284 L350 284 L350 267 Z"/>
            </clipPath>
            <clipPath clipPathUnits="userSpaceOnUse" id="clipPath27">
                <path d="M449 267 L651 267 L651 284 L449 284 L449 267 Z"/>
            </clipPath>
            <clipPath clipPathUnits="userSpaceOnUse" id="clipPath28">
                <path d="M337 284 L350 284 L350 301 L337 301 L337 284 Z"/>
            </clipPath>
            <clipPath clipPathUnits="userSpaceOnUse" id="clipPath29">
                <path d="M350 284 L443 284 L443 301 L350 301 L350 284 Z"/>
            </clipPath>
            <clipPath clipPathUnits="userSpaceOnUse" id="clipPath30">
                <path d="M443 284 L645 284 L645 301 L443 301 L443 284 Z"/>
            </clipPath>
            <clipPath clipPathUnits="userSpaceOnUse" id="clipPath31">
                <path d="M337 301 L350 301 L350 318 L337 318 L337 301 Z"/>
            </clipPath>
            <clipPath clipPathUnits="userSpaceOnUse" id="clipPath32">
                <path d="M350 301 L447 301 L447 318 L350 318 L350 301 Z"/>
            </clipPath>
            <clipPath clipPathUnits="userSpaceOnUse" id="clipPath33">
                <path d="M447 301 L459 301 L459 318 L447 318 L447 301 Z"/>
            </clipPath>
            <clipPath clipPathUnits="userSpaceOnUse" id="clipPath34">
                <path d="M336 264 L663 264 L663 319 L336 319 L336 264 Z"/>
            </clipPath>
            <clipPath clipPathUnits="userSpaceOnUse" id="clipPath35">
                <path d="M483 378 L607 378 L607 419 L483 419 L483 378 Z"/>
            </clipPath>
            <clipPath clipPathUnits="userSpaceOnUse" id="clipPath36">
                <path d="M490 380 L600 380 L600 397 L490 397 L490 380 Z"/>
            </clipPath>
            <clipPath clipPathUnits="userSpaceOnUse" id="clipPath37">
                <path d="M485 395 L605 395 L605 407 L485 407 L485 395 Z"/>
            </clipPath>
            <clipPath clipPathUnits="userSpaceOnUse" id="clipPath38">
                <path d="M485 405 L605 405 L605 417 L485 417 L485 405 Z"/>
            </clipPath>
            <clipPath clipPathUnits="userSpaceOnUse" id="clipPath39">
                <path d="M27 242 L181 242 L181 283 L27 283 L27 242 Z"/>
            </clipPath>
            <clipPath clipPathUnits="userSpaceOnUse" id="clipPath40">
                <path d="M34 244 L174 244 L174 261 L34 261 L34 244 Z"/>
            </clipPath>
            <clipPath clipPathUnits="userSpaceOnUse" id="clipPath41">
                <path d="M29 259 L179 259 L179 271 L29 271 L29 259 Z"/>
            </clipPath>
            <clipPath clipPathUnits="userSpaceOnUse" id="clipPath42">
                <path d="M29 269 L179 269 L179 281 L29 281 L29 269 Z"/>
            </clipPath>
            <clipPath clipPathUnits="userSpaceOnUse" id="clipPath43">
                <path d="M108 329 L295 329 L295 370 L108 370 L108 329 Z"/>
            </clipPath>
            <clipPath clipPathUnits="userSpaceOnUse" id="clipPath44">
                <path d="M115 331 L288 331 L288 348 L115 348 L115 331 Z"/>
            </clipPath>
            <clipPath clipPathUnits="userSpaceOnUse" id="clipPath45">
                <path d="M110 346 L293 346 L293 358 L110 358 L110 346 Z"/>
            </clipPath>
            <clipPath clipPathUnits="userSpaceOnUse" id="clipPath46">
                <path d="M110 356 L293 356 L293 368 L110 368 L110 356 Z"/>
            </clipPath>
            <clipPath clipPathUnits="userSpaceOnUse" id="clipPath47">
                <path d="M264 161 L539 161 L539 243 L264 243 L264 161 Z"/>
            </clipPath>
            <clipPath clipPathUnits="userSpaceOnUse" id="clipPath48">
                <path d="M395 174 L408 174 L408 197 L395 197 L395 174 Z"/>
            </clipPath>
            <clipPath clipPathUnits="userSpaceOnUse" id="clipPath49">
                <path d="M502 306 L543 306 L543 394 L502 394 L502 306 Z"/>
            </clipPath>
            <clipPath clipPathUnits="userSpaceOnUse" id="clipPath50">
                <path d="M515 319 L530 319 L530 336 L515 336 L515 319 Z"/>
            </clipPath>
            <clipPath clipPathUnits="userSpaceOnUse" id="clipPath51">
                <path d="M90 160 L324 160 L324 259 L90 259 L90 160 Z"/>
            </clipPath>
            <clipPath clipPathUnits="userSpaceOnUse" id="clipPath52">
                <path d="M296 173 L311 173 L311 190 L296 190 L296 173 Z"/>
            </clipPath>
            <clipPath clipPathUnits="userSpaceOnUse" id="clipPath53">
                <path d="M187 160 L324 160 L324 346 L187 346 L187 160 Z"/>
            </clipPath>
        </defs>
        <g font-size="15" fill="white" font-family="'Cantarell'"
            stroke-linejoin="round" stroke="white" stroke-width="0" stroke-miterlimit="0">
            <rect x="0" y="0" clip-path="url(#clipPath1)" width="674"
                height="428" stroke="none"/>
        </g>
        <g stroke-width="0.1" font-size="15" font-family="'Cantarell'" stroke-linecap="butt">
            <line clip-path="url(#clipPath1)" fill="none" x1="1"
                x2="101" y1="35" y2="35"/>
            <line clip-path="url(#clipPath1)" fill="none" x1="101"
                x2="108" y1="35" y2="21"/>
            <line clip-path="url(#clipPath1)" fill="none" x1="108"
                x2="108" y1="21" y2="1"/>
            <text x="6" y="22" clip-path="url(#clipPath2)" stroke="none"
                font-weight="bold" xml:space="preserve">package </text>
            <text font-size="13" x="70" y="22"
                clip-path="url(#clipPath3)" font-family="'Dialog'"
                stroke="none" xml:space="preserve">utils</text>
            <rect x="69" y="63" clip-path="url(#clipPath4)"
                fill="rgb(244,242,212)" width="468" height="112" stroke="none"/>
        </g>
        <g fill="rgb(110,44,18)" stroke-width="0.1" font-size="11"
            stroke-linecap="butt" stroke="rgb(110,44,18)">
            <text xml:space="preserve" x="260" y="76"
                clip-path="url(#clipPath5)" stroke="none">&lt;&lt;interface&gt;&gt;</text>
            <text x="252" y="91" clip-path="url(#clipPath6)"
                stroke="none" font-weight="bold" xml:space="preserve">MonitorableDuo</text>
            <line clip-path="url(#clipPath7)" fill="none" x1="71"
                x2="535" y1="93" y2="93"/>
            <text font-size="13" x="72" y="119"
                clip-path="url(#clipPath8)" fill="black" stroke="none" xml:space="preserve">+</text>
            <text font-size="13" x="85" y="119"
                clip-path="url(#clipPath9)" fill="black" stroke="none" xml:space="preserve">register</text>
            <text font-size="13" x="136" y="119"
                clip-path="url(#clipPath10)" fill="black" stroke="none" xml:space="preserve">(nbSpacecrafts : int, monitor : MonitorDuo)</text>
            <text font-size="13" x="72" y="136"
                clip-path="url(#clipPath11)" fill="black" stroke="none" xml:space="preserve">+</text>
            <text font-size="13" x="85" y="136"
                clip-path="url(#clipPath12)" fill="black" stroke="none" xml:space="preserve">getName</text>
            <text font-size="13" x="147" y="136"
                clip-path="url(#clipPath13)" fill="black" stroke="none" xml:space="preserve">() : String</text>
            <text font-size="13" x="72" y="153"
                clip-path="url(#clipPath14)" fill="black" stroke="none" xml:space="preserve">+</text>
            <text font-size="13" x="85" y="153"
                clip-path="url(#clipPath15)" fill="black" stroke="none" xml:space="preserve">getDate</text>
            <text font-size="13" x="139" y="153"
                clip-path="url(#clipPath16)" fill="black" stroke="none" xml:space="preserve">() : AbsoluteDate</text>
            <text font-size="13" x="72" y="170"
                clip-path="url(#clipPath17)" fill="black" stroke="none" xml:space="preserve">+</text>
            <text font-size="13" x="85" y="170"
                clip-path="url(#clipPath18)" fill="black" stroke="none" xml:space="preserve">getValue</text>
            <text font-size="13" x="143" y="170"
                clip-path="url(#clipPath19)" fill="black" stroke="none" xml:space="preserve">(spacecraftIndex1 : int, spacecraftIndex2 : int) : double[1..*]</text>
            <line clip-path="url(#clipPath20)" fill="none" x1="71"
                x2="535" y1="103" y2="103"/>
            <rect x="69" y="63" clip-path="url(#clipPath4)" fill="none"
                width="467" height="111" stroke-width="1.1"/>
        </g>
        <g font-size="15" stroke-linecap="butt" fill="rgb(244,242,212)"
            font-family="'Cantarell'" stroke="rgb(244,242,212)" stroke-width="1.1">
            <rect x="335" y="225" clip-path="url(#clipPath21)"
                width="329" height="95" stroke="none"/>
        </g>
        <g fill="rgb(110,44,18)" stroke-width="1.1" font-size="11"
            stroke-linecap="butt" stroke="rgb(110,44,18)">
            <text xml:space="preserve" x="456" y="238"
                clip-path="url(#clipPath22)" stroke="none">&lt;&lt;interface&gt;&gt;</text>
            <text x="462" y="253" clip-path="url(#clipPath23)"
                stroke="none" font-weight="bold" xml:space="preserve">MonitorDuo</text>
            <line clip-path="url(#clipPath24)" fill="none" x1="337"
                x2="662" y1="255" y2="255" stroke-width="0.1"/>
        </g>
        <g stroke-width="0.1" font-size="13" stroke-linecap="butt">
            <text xml:space="preserve" x="338" y="281"
                clip-path="url(#clipPath25)" stroke="none">+</text>
            <text xml:space="preserve" x="351" y="281"
                clip-path="url(#clipPath26)" stroke="none">startMonitoring</text>
            <text xml:space="preserve" x="450" y="281"
                clip-path="url(#clipPath27)" stroke="none">(monitorable : MonitorableDuo)</text>
            <text xml:space="preserve" x="338" y="298"
                clip-path="url(#clipPath28)" stroke="none">+</text>
            <text xml:space="preserve" x="351" y="298"
                clip-path="url(#clipPath29)" stroke="none">valueChanged</text>
            <text xml:space="preserve" x="444" y="298"
                clip-path="url(#clipPath30)" stroke="none">(monitorable : MonitorableDuo)</text>
            <text xml:space="preserve" x="338" y="315"
                clip-path="url(#clipPath31)" stroke="none">+</text>
            <text xml:space="preserve" x="351" y="315"
                clip-path="url(#clipPath32)" stroke="none">stopMonitoring</text>
            <text xml:space="preserve" x="448" y="315"
                clip-path="url(#clipPath33)" stroke="none">()</text>
        </g>
        <g font-size="15" stroke-linecap="butt" fill="rgb(110,44,18)"
            font-family="'Cantarell'" stroke="rgb(110,44,18)" stroke-width="0.1">
            <line clip-path="url(#clipPath34)" fill="none" x1="337"
                x2="662" y1="265" y2="265"/>
            <rect x="335" y="225" clip-path="url(#clipPath21)"
                fill="none" width="328" height="94" stroke-width="1.1"/>
            <rect x="484" y="379" clip-path="url(#clipPath35)"
                fill="rgb(237,247,200)" width="122" height="39"
                stroke="none" stroke-width="1.1"/>
        </g>
        <g font-size="13" stroke-linecap="butt" fill="rgb(106,88,75)"
            stroke="rgb(106,88,75)" font-weight="bold" stroke-width="1.1">
            <text xml:space="preserve" x="491" y="394"
                clip-path="url(#clipPath36)" stroke="none">CsvFileMonitor</text>
        </g>
        <g font-size="15" stroke-linecap="butt" fill="rgb(106,88,75)"
            font-family="'Cantarell'" stroke="rgb(106,88,75)" stroke-width="0.1">
            <line clip-path="url(#clipPath37)" fill="none" x1="486"
                x2="604" y1="396" y2="396"/>
            <line clip-path="url(#clipPath38)" fill="none" x1="486"
                x2="604" y1="406" y2="406"/>
            <rect x="484" y="379" clip-path="url(#clipPath35)"
                fill="none" width="121" height="38" stroke-width="1.1"/>
            <rect x="28" y="243" clip-path="url(#clipPath39)"
                fill="rgb(237,247,200)" width="152" height="39"
                stroke="none" stroke-width="1.1"/>
        </g>
        <g font-size="13" stroke-linecap="butt" fill="rgb(106,88,75)"
            stroke="rgb(106,88,75)" font-weight="bold" stroke-width="1.1">
            <text xml:space="preserve" x="35" y="258"
                clip-path="url(#clipPath40)" stroke="none">SimpleMonitorable</text>
        </g>
        <g font-size="15" stroke-linecap="butt" fill="rgb(106,88,75)"
            font-family="'Cantarell'" stroke="rgb(106,88,75)" stroke-width="0.1">
            <line clip-path="url(#clipPath41)" fill="none" x1="30"
                x2="178" y1="260" y2="260"/>
            <line clip-path="url(#clipPath42)" fill="none" x1="30"
                x2="178" y1="270" y2="270"/>
            <rect x="28" y="243" clip-path="url(#clipPath39)"
                fill="none" width="151" height="38" stroke-width="1.1"/>
            <rect x="109" y="330" clip-path="url(#clipPath43)"
                fill="rgb(237,247,200)" width="185" height="39"
                stroke="none" stroke-width="1.1"/>
        </g>
        <g font-size="13" stroke-linecap="butt" fill="rgb(106,88,75)"
            stroke="rgb(106,88,75)" font-weight="bold" stroke-width="1.1">
            <text xml:space="preserve" x="116" y="345"
                clip-path="url(#clipPath44)" stroke="none">MonitorableDuoSKData</text>
        </g>
        <g font-size="15" stroke-linecap="butt" fill="rgb(106,88,75)"
            font-family="'Cantarell'" stroke="rgb(106,88,75)" stroke-width="0.1">
            <line clip-path="url(#clipPath45)" fill="none" x1="111"
                x2="292" y1="347" y2="347"/>
            <line clip-path="url(#clipPath46)" fill="none" x1="111"
                x2="292" y1="357" y2="357"/>
            <rect x="109" y="330" clip-path="url(#clipPath43)"
                fill="none" width="184" height="38" stroke-width="1.1"/>
            <rect x="0" y="0" clip-path="url(#clipPath1)" fill="none"
                width="673" height="427" stroke="black" stroke-width="1.1"/>
        </g>
        <g fill="rgb(153,15,15)" stroke-width="1.1" font-size="13"
            stroke-linecap="butt" stroke="rgb(153,15,15)">
            <line clip-path="url(#clipPath47)" fill="none" x1="401"
                x2="401" y1="175" y2="225"/>
            <polygon fill="white" clip-path="url(#clipPath48)"
                points=" 401 175 406 185 401 195 396 185" stroke="none"/>
            <polygon fill="none" clip-path="url(#clipPath48)" points=" 401 175 406 185 401 195 396 185"/>
        </g>
        <g font-size="11" stroke-linecap="butt" fill="rgb(110,44,18)"
            stroke-dasharray="8,7" stroke="rgb(110,44,18)" stroke-width="1.1">
            <line clip-path="url(#clipPath49)" fill="none" x1="522"
                x2="522" y1="379" y2="320"/>
            <polygon fill="white" clip-path="url(#clipPath50)"
                points=" 522 320 528 334 516 334" stroke="none"/>
            <polygon fill="none" stroke-dasharray="none"
                clip-path="url(#clipPath50)" points=" 522 320 528 334 516 334"/>
            <line clip-path="url(#clipPath51)" fill="none" x1="104"
                x2="104" y1="244" y2="207"/>
            <line clip-path="url(#clipPath51)" fill="none" x1="104"
                x2="303" y1="207" y2="207"/>
            <line clip-path="url(#clipPath51)" fill="none" x1="303"
                x2="303" y1="207" y2="174"/>
            <polygon fill="white" clip-path="url(#clipPath52)"
                points=" 303 174 309 188 297 188" stroke="none"/>
            <polygon fill="none" stroke-dasharray="none"
                clip-path="url(#clipPath52)" points=" 303 174 309 188 297 188"/>
            <line clip-path="url(#clipPath53)" fill="none" x1="201"
                x2="201" y1="331" y2="207"/>
            <line clip-path="url(#clipPath53)" fill="none" x1="201"
                x2="303" y1="207" y2="207"/>
            <line clip-path="url(#clipPath53)" fill="none" x1="303"
                x2="303" y1="207" y2="174"/>
            <polygon fill="white" clip-path="url(#clipPath52)"
                points=" 303 174 309 188 297 188" stroke="none"/>
            <polygon fill="none" stroke-dasharray="none"
                clip-path="url(#clipPath52)" points=" 303 174 309 188 297 188"/>
        </g>
    </g>
</svg>
