<?xml version="1.0" encoding="UTF-8"?>
<svg stroke-dasharray="none" shape-rendering="auto"
    font-family="'Dialog'" width="903" text-rendering="auto"
    fill-opacity="1" color-interpolation="auto" color-rendering="auto"
    font-size="12" fill="black" stroke="black" image-rendering="auto"
    stroke-miterlimit="10" stroke-linecap="square"
    stroke-linejoin="miter" font-style="normal" height="433"
    stroke-width="1" stroke-dashoffset="0" font-weight="normal" stroke-opacity="1">
    <!--Generated by the Batik Graphics2D SVG Generator-->
    <defs id="genericDefs"/>
    <g>
        <defs id="defs1">
            <clipPath clipPathUnits="userSpaceOnUse" id="clipPath1">
                <path d="M-1 -1 L903 -1 L903 433 L-1 433 L-1 -1 Z"/>
            </clipPath>
            <clipPath clipPathUnits="userSpaceOnUse" id="clipPath2">
                <path d="M5 5 L70 5 L70 24 L5 24 L5 5 Z"/>
            </clipPath>
            <clipPath clipPathUnits="userSpaceOnUse" id="clipPath3">
                <path d="M70 5 L100 5 L100 24 L70 24 L70 5 Z"/>
            </clipPath>
            <clipPath clipPathUnits="userSpaceOnUse" id="clipPath4">
                <path d="M17 46 L532 46 L532 423 L17 423 L17 46 Z"/>
            </clipPath>
            <clipPath clipPathUnits="userSpaceOnUse" id="clipPath5">
                <path d="M217 48 L331 48 L331 67 L217 67 L217 48 Z"/>
            </clipPath>
            <clipPath clipPathUnits="userSpaceOnUse" id="clipPath6">
                <path d="M19 65 L530 65 L530 77 L19 77 L19 65 Z"/>
            </clipPath>
            <clipPath clipPathUnits="userSpaceOnUse" id="clipPath7">
                <path d="M20 78 L33 78 L33 97 L20 97 L20 78 Z"/>
            </clipPath>
            <clipPath clipPathUnits="userSpaceOnUse" id="clipPath8">
                <path d="M33 78 L114 78 L114 97 L33 97 L33 78 Z"/>
            </clipPath>
            <clipPath clipPathUnits="userSpaceOnUse" id="clipPath9">
                <path d="M114 78 L396 78 L396 97 L114 97 L114 78 Z"/>
            </clipPath>
            <clipPath clipPathUnits="userSpaceOnUse" id="clipPath10">
                <path d="M20 97 L33 97 L33 116 L20 116 L20 97 Z"/>
            </clipPath>
            <clipPath clipPathUnits="userSpaceOnUse" id="clipPath11">
                <path d="M33 97 L94 97 L94 116 L33 116 L33 97 Z"/>
            </clipPath>
            <clipPath clipPathUnits="userSpaceOnUse" id="clipPath12">
                <path d="M94 97 L362 97 L362 116 L94 116 L94 97 Z"/>
            </clipPath>
            <clipPath clipPathUnits="userSpaceOnUse" id="clipPath13">
                <path d="M20 116 L33 116 L33 135 L20 135 L20 116 Z"/>
            </clipPath>
            <clipPath clipPathUnits="userSpaceOnUse" id="clipPath14">
                <path d="M33 116 L102 116 L102 135 L33 135 L33 116 Z"/>
            </clipPath>
            <clipPath clipPathUnits="userSpaceOnUse" id="clipPath15">
                <path d="M102 116 L376 116 L376 135 L102 135 L102 116 Z"/>
            </clipPath>
            <clipPath clipPathUnits="userSpaceOnUse" id="clipPath16">
                <path d="M20 135 L33 135 L33 154 L20 154 L20 135 Z"/>
            </clipPath>
            <clipPath clipPathUnits="userSpaceOnUse" id="clipPath17">
                <path d="M33 135 L73 135 L73 154 L33 154 L33 135 Z"/>
            </clipPath>
            <clipPath clipPathUnits="userSpaceOnUse" id="clipPath18">
                <path d="M73 135 L320 135 L320 154 L73 154 L73 135 Z"/>
            </clipPath>
            <clipPath clipPathUnits="userSpaceOnUse" id="clipPath19">
                <path d="M20 154 L33 154 L33 173 L20 173 L20 154 Z"/>
            </clipPath>
            <clipPath clipPathUnits="userSpaceOnUse" id="clipPath20">
                <path d="M33 154 L93 154 L93 173 L33 173 L33 154 Z"/>
            </clipPath>
            <clipPath clipPathUnits="userSpaceOnUse" id="clipPath21">
                <path d="M93 154 L367 154 L367 173 L93 173 L93 154 Z"/>
            </clipPath>
            <clipPath clipPathUnits="userSpaceOnUse" id="clipPath22">
                <path d="M20 173 L33 173 L33 192 L20 192 L20 173 Z"/>
            </clipPath>
            <clipPath clipPathUnits="userSpaceOnUse" id="clipPath23">
                <path d="M33 173 L87 173 L87 192 L33 192 L33 173 Z"/>
            </clipPath>
            <clipPath clipPathUnits="userSpaceOnUse" id="clipPath24">
                <path d="M87 173 L527 173 L527 192 L87 192 L87 173 Z"/>
            </clipPath>
            <clipPath clipPathUnits="userSpaceOnUse" id="clipPath25">
                <path d="M20 192 L33 192 L33 211 L20 211 L20 192 Z"/>
            </clipPath>
            <clipPath clipPathUnits="userSpaceOnUse" id="clipPath26">
                <path d="M33 192 L97 192 L97 211 L33 211 L33 192 Z"/>
            </clipPath>
            <clipPath clipPathUnits="userSpaceOnUse" id="clipPath27">
                <path d="M97 192 L386 192 L386 211 L97 211 L97 192 Z"/>
            </clipPath>
            <clipPath clipPathUnits="userSpaceOnUse" id="clipPath28">
                <path d="M20 211 L33 211 L33 230 L20 230 L20 211 Z"/>
            </clipPath>
            <clipPath clipPathUnits="userSpaceOnUse" id="clipPath29">
                <path d="M33 211 L143 211 L143 230 L33 230 L33 211 Z"/>
            </clipPath>
            <clipPath clipPathUnits="userSpaceOnUse" id="clipPath30">
                <path d="M143 211 L414 211 L414 230 L143 230 L143 211 Z"/>
            </clipPath>
            <clipPath clipPathUnits="userSpaceOnUse" id="clipPath31">
                <path d="M20 230 L33 230 L33 249 L20 249 L20 230 Z"/>
            </clipPath>
            <clipPath clipPathUnits="userSpaceOnUse" id="clipPath32">
                <path d="M33 230 L131 230 L131 249 L33 249 L33 230 Z"/>
            </clipPath>
            <clipPath clipPathUnits="userSpaceOnUse" id="clipPath33">
                <path d="M131 230 L402 230 L402 249 L131 249 L131 230 Z"/>
            </clipPath>
            <clipPath clipPathUnits="userSpaceOnUse" id="clipPath34">
                <path d="M20 249 L33 249 L33 268 L20 268 L20 249 Z"/>
            </clipPath>
            <clipPath clipPathUnits="userSpaceOnUse" id="clipPath35">
                <path d="M33 249 L145 249 L145 268 L33 268 L33 249 Z"/>
            </clipPath>
            <clipPath clipPathUnits="userSpaceOnUse" id="clipPath36">
                <path d="M145 249 L433 249 L433 268 L145 268 L145 249 Z"/>
            </clipPath>
            <clipPath clipPathUnits="userSpaceOnUse" id="clipPath37">
                <path d="M20 268 L33 268 L33 287 L20 287 L20 268 Z"/>
            </clipPath>
            <clipPath clipPathUnits="userSpaceOnUse" id="clipPath38">
                <path d="M33 268 L145 268 L145 287 L33 287 L33 268 Z"/>
            </clipPath>
            <clipPath clipPathUnits="userSpaceOnUse" id="clipPath39">
                <path d="M145 268 L433 268 L433 287 L145 287 L145 268 Z"/>
            </clipPath>
            <clipPath clipPathUnits="userSpaceOnUse" id="clipPath40">
                <path d="M20 287 L33 287 L33 306 L20 306 L20 287 Z"/>
            </clipPath>
            <clipPath clipPathUnits="userSpaceOnUse" id="clipPath41">
                <path d="M33 287 L88 287 L88 306 L33 306 L33 287 Z"/>
            </clipPath>
            <clipPath clipPathUnits="userSpaceOnUse" id="clipPath42">
                <path d="M88 287 L350 287 L350 306 L88 306 L88 287 Z"/>
            </clipPath>
            <clipPath clipPathUnits="userSpaceOnUse" id="clipPath43">
                <path d="M20 306 L33 306 L33 325 L20 325 L20 306 Z"/>
            </clipPath>
            <clipPath clipPathUnits="userSpaceOnUse" id="clipPath44">
                <path d="M33 306 L109 306 L109 325 L33 325 L33 306 Z"/>
            </clipPath>
            <clipPath clipPathUnits="userSpaceOnUse" id="clipPath45">
                <path d="M109 306 L391 306 L391 325 L109 325 L109 306 Z"/>
            </clipPath>
            <clipPath clipPathUnits="userSpaceOnUse" id="clipPath46">
                <path d="M20 325 L33 325 L33 344 L20 344 L20 325 Z"/>
            </clipPath>
            <clipPath clipPathUnits="userSpaceOnUse" id="clipPath47">
                <path d="M33 325 L92 325 L92 344 L33 344 L33 325 Z"/>
            </clipPath>
            <clipPath clipPathUnits="userSpaceOnUse" id="clipPath48">
                <path d="M92 325 L349 325 L349 344 L92 344 L92 325 Z"/>
            </clipPath>
            <clipPath clipPathUnits="userSpaceOnUse" id="clipPath49">
                <path d="M20 344 L33 344 L33 363 L20 363 L20 344 Z"/>
            </clipPath>
            <clipPath clipPathUnits="userSpaceOnUse" id="clipPath50">
                <path d="M33 344 L169 344 L169 363 L33 363 L33 344 Z"/>
            </clipPath>
            <clipPath clipPathUnits="userSpaceOnUse" id="clipPath51">
                <path d="M169 344 L281 344 L281 363 L169 363 L169 344 Z"/>
            </clipPath>
            <clipPath clipPathUnits="userSpaceOnUse" id="clipPath52">
                <path d="M20 363 L33 363 L33 382 L20 382 L20 363 Z"/>
            </clipPath>
            <clipPath clipPathUnits="userSpaceOnUse" id="clipPath53">
                <path d="M33 363 L110 363 L110 382 L33 382 L33 363 Z"/>
            </clipPath>
            <clipPath clipPathUnits="userSpaceOnUse" id="clipPath54">
                <path d="M110 363 L295 363 L295 382 L110 382 L110 363 Z"/>
            </clipPath>
            <clipPath clipPathUnits="userSpaceOnUse" id="clipPath55">
                <path d="M20 382 L33 382 L33 401 L20 401 L20 382 Z"/>
            </clipPath>
            <clipPath clipPathUnits="userSpaceOnUse" id="clipPath56">
                <path d="M33 382 L127 382 L127 401 L33 401 L33 382 Z"/>
            </clipPath>
            <clipPath clipPathUnits="userSpaceOnUse" id="clipPath57">
                <path d="M127 382 L516 382 L516 401 L127 401 L127 382 Z"/>
            </clipPath>
            <clipPath clipPathUnits="userSpaceOnUse" id="clipPath58">
                <path d="M20 401 L33 401 L33 420 L20 420 L20 401 Z"/>
            </clipPath>
            <clipPath clipPathUnits="userSpaceOnUse" id="clipPath59">
                <path d="M33 401 L127 401 L127 420 L33 420 L33 401 Z"/>
            </clipPath>
            <clipPath clipPathUnits="userSpaceOnUse" id="clipPath60">
                <path d="M127 401 L454 401 L454 420 L127 420 L127 401 Z"/>
            </clipPath>
            <clipPath clipPathUnits="userSpaceOnUse" id="clipPath61">
                <path d="M19 75 L530 75 L530 421 L19 421 L19 75 Z"/>
            </clipPath>
            <clipPath clipPathUnits="userSpaceOnUse" id="clipPath62">
                <path d="M583 144 L893 144 L893 359 L583 359 L583 144 Z"/>
            </clipPath>
            <clipPath clipPathUnits="userSpaceOnUse" id="clipPath63">
                <path d="M673 146 L802 146 L802 165 L673 165 L673 146 Z"/>
            </clipPath>
            <clipPath clipPathUnits="userSpaceOnUse" id="clipPath64">
                <path d="M683 165 L793 165 L793 184 L683 184 L683 165 Z"/>
            </clipPath>
            <clipPath clipPathUnits="userSpaceOnUse" id="clipPath65">
                <path d="M622 185 L853 185 L853 204 L622 204 L622 185 Z"/>
            </clipPath>
            <clipPath clipPathUnits="userSpaceOnUse" id="clipPath66">
                <path d="M637 204 L837 204 L837 223 L637 223 L637 204 Z"/>
            </clipPath>
            <clipPath clipPathUnits="userSpaceOnUse" id="clipPath67">
                <path d="M730 223 L744 223 L744 242 L730 242 L730 223 Z"/>
            </clipPath>
            <clipPath clipPathUnits="userSpaceOnUse" id="clipPath68">
                <path d="M592 242 L882 242 L882 261 L592 261 L592 242 Z"/>
            </clipPath>
            <clipPath clipPathUnits="userSpaceOnUse" id="clipPath69">
                <path d="M591 261 L884 261 L884 280 L591 280 L591 261 Z"/>
            </clipPath>
            <clipPath clipPathUnits="userSpaceOnUse" id="clipPath70">
                <path d="M730 280 L744 280 L744 299 L730 299 L730 280 Z"/>
            </clipPath>
            <clipPath clipPathUnits="userSpaceOnUse" id="clipPath71">
                <path d="M608 299 L867 299 L867 318 L608 318 L608 299 Z"/>
            </clipPath>
            <clipPath clipPathUnits="userSpaceOnUse" id="clipPath72">
                <path d="M668 318 L806 318 L806 337 L668 337 L668 318 Z"/>
            </clipPath>
            <clipPath clipPathUnits="userSpaceOnUse" id="clipPath73">
                <path d="M674 337 L800 337 L800 356 L674 356 L674 337 Z"/>
            </clipPath>
            <clipPath clipPathUnits="userSpaceOnUse" id="clipPath74">
                <path d="M585 182 L891 182 L891 357 L585 357 L585 182 Z"/>
            </clipPath>
            <clipPath clipPathUnits="userSpaceOnUse" id="clipPath75">
                <path d="M387 202 L728 202 L728 284 L387 284 L387 202 Z"/>
            </clipPath>
            <clipPath clipPathUnits="userSpaceOnUse" id="clipPath76">
                <path d="M573 237 L586 237 L586 250 L573 250 L573 237 Z"/>
            </clipPath>
        </defs>
        <g font-size="15" fill="white" font-family="'Ubuntu'"
            stroke-linejoin="round" stroke="white" stroke-width="0" stroke-miterlimit="0">
            <rect x="0" y="0" clip-path="url(#clipPath1)" width="902"
                height="432" stroke="none"/>
        </g>
        <g stroke-width="0.1" font-size="15" font-family="'Ubuntu'" stroke-linecap="butt">
            <line clip-path="url(#clipPath1)" fill="none" x1="1"
                x2="104" y1="31" y2="31"/>
            <line clip-path="url(#clipPath1)" fill="none" x1="104"
                x2="111" y1="31" y2="17"/>
            <line clip-path="url(#clipPath1)" fill="none" x1="111"
                x2="111" y1="17" y2="1"/>
            <text x="6" y="20" clip-path="url(#clipPath2)" stroke="none"
                font-weight="bold" xml:space="preserve">package </text>
            <text font-size="13" x="71" y="19"
                clip-path="url(#clipPath3)" font-family="'Dialog'"
                stroke="none" xml:space="preserve">utils</text>
            <rect x="18" y="47" clip-path="url(#clipPath4)"
                fill="rgb(200,230,255)" width="513" height="375" stroke="none"/>
            <text font-size="13" x="218" y="62"
                clip-path="url(#clipPath5)" font-family="'Dialog'"
                stroke="none" font-weight="bold" xml:space="preserve">SkatFileParser</text>
            <line clip-path="url(#clipPath6)" fill="none" x1="20"
                x2="529" y1="66" y2="66"/>
            <text font-size="13" x="21" y="92"
                clip-path="url(#clipPath7)" font-family="'Dialog'"
                stroke="none" xml:space="preserve">+</text>
            <text font-size="13" x="34" y="92"
                clip-path="url(#clipPath8)" font-family="'Dialog'"
                stroke="none" xml:space="preserve">containsKey</text>
            <text font-size="13" x="115" y="92"
                clip-path="url(#clipPath9)" font-family="'Dialog'"
                stroke="none" xml:space="preserve">(node : Tree, key : ParameterKey) : boolean</text>
            <text font-size="13" x="21" y="111"
                clip-path="url(#clipPath10)" font-family="'Dialog'"
                stroke="none" xml:space="preserve">+</text>
            <text font-size="13" x="34" y="111"
                clip-path="url(#clipPath11)" font-family="'Dialog'"
                stroke="none" xml:space="preserve">getString</text>
            <text font-size="13" x="95" y="111"
                clip-path="url(#clipPath12)" font-family="'Dialog'"
                stroke="none" xml:space="preserve">(node : Tree, key : ParameterKey) : String</text>
            <text font-size="13" x="21" y="130"
                clip-path="url(#clipPath13)" font-family="'Dialog'"
                stroke="none" xml:space="preserve">+</text>
            <text font-size="13" x="34" y="130"
                clip-path="url(#clipPath14)" font-family="'Dialog'"
                stroke="none" xml:space="preserve">getDouble</text>
            <text font-size="13" x="103" y="130"
                clip-path="url(#clipPath15)" font-family="'Dialog'"
                stroke="none" xml:space="preserve">(node : Tree, key : ParameterKey) : double</text>
            <text font-size="13" x="21" y="149"
                clip-path="url(#clipPath16)" font-family="'Dialog'"
                stroke="none" xml:space="preserve">+</text>
            <text font-size="13" x="34" y="149"
                clip-path="url(#clipPath17)" font-family="'Dialog'"
                stroke="none" xml:space="preserve">getInt</text>
            <text font-size="13" x="74" y="149"
                clip-path="url(#clipPath18)" font-family="'Dialog'"
                stroke="none" xml:space="preserve">(node : Tree, key : ParameterKey) : int</text>
            <text font-size="13" x="21" y="168"
                clip-path="url(#clipPath19)" font-family="'Dialog'"
                stroke="none" xml:space="preserve">+</text>
            <text font-size="13" x="34" y="168"
                clip-path="url(#clipPath20)" font-family="'Dialog'"
                stroke="none" xml:space="preserve">getAngle</text>
            <text font-size="13" x="94" y="168"
                clip-path="url(#clipPath21)" font-family="'Dialog'"
                stroke="none" xml:space="preserve">(node : Tree, key : ParameterKey) : double</text>
            <text font-size="13" x="21" y="187"
                clip-path="url(#clipPath22)" font-family="'Dialog'"
                stroke="none" xml:space="preserve">+</text>
            <text font-size="13" x="34" y="187"
                clip-path="url(#clipPath23)" font-family="'Dialog'"
                stroke="none" xml:space="preserve">getDate</text>
            <text font-size="13" x="88" y="187"
                clip-path="url(#clipPath24)" font-family="'Dialog'"
                stroke="none" xml:space="preserve">(node : Tree, key : ParameterKey, scale : TimeScale) : AbsoluteDate</text>
            <text font-size="13" x="21" y="206"
                clip-path="url(#clipPath25)" font-family="'Dialog'"
                stroke="none" xml:space="preserve">+</text>
            <text font-size="13" x="34" y="206"
                clip-path="url(#clipPath26)" font-family="'Dialog'"
                stroke="none" xml:space="preserve">getVector</text>
            <text font-size="13" x="98" y="206"
                clip-path="url(#clipPath27)" font-family="'Dialog'"
                stroke="none" xml:space="preserve">(node : Tree, key : ParameterKey) : Vector3D</text>
            <text font-size="13" x="21" y="225"
                clip-path="url(#clipPath28)" font-family="'Dialog'"
                stroke="none" xml:space="preserve">+</text>
            <text font-size="13" x="34" y="225"
                clip-path="url(#clipPath29)" font-family="'Dialog'"
                stroke="none" xml:space="preserve">getInertialFrame</text>
            <text font-size="13" x="144" y="225"
                clip-path="url(#clipPath30)" font-family="'Dialog'"
                stroke="none" xml:space="preserve">(node : Tree, key : ParameterKey) : Frame</text>
            <text font-size="13" x="21" y="244"
                clip-path="url(#clipPath31)" font-family="'Dialog'"
                stroke="none" xml:space="preserve">+</text>
            <text font-size="13" x="34" y="244"
                clip-path="url(#clipPath32)" font-family="'Dialog'"
                stroke="none" xml:space="preserve">getEarthFrame</text>
            <text font-size="13" x="132" y="244"
                clip-path="url(#clipPath33)" font-family="'Dialog'"
                stroke="none" xml:space="preserve">(node : Tree, key : ParameterKey) : Frame</text>
            <text font-size="13" x="21" y="263"
                clip-path="url(#clipPath34)" font-family="'Dialog'"
                stroke="none" xml:space="preserve">+</text>
            <text font-size="13" x="34" y="263"
                clip-path="url(#clipPath35)" font-family="'Dialog'"
                stroke="none" xml:space="preserve">getDoubleArray1</text>
            <text font-size="13" x="146" y="263"
                clip-path="url(#clipPath36)" font-family="'Dialog'"
                stroke="none" xml:space="preserve">(node : Tree, key : ParameterKey) : ArrayList</text>
            <text font-size="13" x="21" y="282"
                clip-path="url(#clipPath37)" font-family="'Dialog'"
                stroke="none" xml:space="preserve">+</text>
            <text font-size="13" x="34" y="282"
                clip-path="url(#clipPath38)" font-family="'Dialog'"
                stroke="none" xml:space="preserve">getDoubleArray2</text>
            <text font-size="13" x="146" y="282"
                clip-path="url(#clipPath39)" font-family="'Dialog'"
                stroke="none" xml:space="preserve">(node : Tree, key : ParameterKey) : ArrayList</text>
            <text font-size="13" x="21" y="301"
                clip-path="url(#clipPath40)" font-family="'Dialog'"
                stroke="none" xml:space="preserve">+</text>
            <text font-size="13" x="34" y="301"
                clip-path="url(#clipPath41)" font-family="'Dialog'"
                stroke="none" xml:space="preserve">getOrbit</text>
            <text font-size="13" x="89" y="301"
                clip-path="url(#clipPath42)" font-family="'Dialog'"
                stroke="none" xml:space="preserve">(node : Tree, key : ParameterKey) : Orbit</text>
            <text font-size="13" x="21" y="320"
                clip-path="url(#clipPath43)" font-family="'Dialog'"
                stroke="none" xml:space="preserve">+</text>
            <text font-size="13" x="34" y="320"
                clip-path="url(#clipPath44)" font-family="'Dialog'"
                stroke="none" xml:space="preserve">getBoolean</text>
            <text font-size="13" x="110" y="320"
                clip-path="url(#clipPath45)" font-family="'Dialog'"
                stroke="none" xml:space="preserve">(node : Tree, key : ParameterKey) : boolean</text>
            <text font-size="13" x="21" y="339"
                clip-path="url(#clipPath46)" font-family="'Dialog'"
                stroke="none" xml:space="preserve">+</text>
            <text font-size="13" x="34" y="339"
                clip-path="url(#clipPath47)" font-family="'Dialog'"
                stroke="none" xml:space="preserve">getValue</text>
            <text font-size="13" x="93" y="339"
                clip-path="url(#clipPath48)" font-family="'Dialog'"
                stroke="none" xml:space="preserve">(node : Tree, key : ParameterKey) : Tree</text>
            <text font-size="13" x="21" y="358"
                clip-path="url(#clipPath49)" font-family="'Dialog'"
                stroke="none" xml:space="preserve">+</text>
            <text font-size="13" x="34" y="358"
                clip-path="url(#clipPath50)" font-family="'Dialog'"
                stroke="none" xml:space="preserve">getElementsNumber</text>
            <text font-size="13" x="170" y="358"
                clip-path="url(#clipPath51)" font-family="'Dialog'"
                stroke="none" xml:space="preserve">(node : Tree) : int</text>
            <text font-size="13" x="21" y="377"
                clip-path="url(#clipPath52)" font-family="'Dialog'"
                stroke="none" xml:space="preserve">+</text>
            <text font-size="13" x="34" y="377"
                clip-path="url(#clipPath53)" font-family="'Dialog'"
                stroke="none" xml:space="preserve">getElement</text>
            <text font-size="13" x="111" y="377"
                clip-path="url(#clipPath54)" font-family="'Dialog'"
                stroke="none" xml:space="preserve">(node : Tree, index : int) : int</text>
            <text font-size="13" x="21" y="396"
                clip-path="url(#clipPath55)" font-family="'Dialog'"
                stroke="none" xml:space="preserve">+</text>
            <text font-size="13" x="34" y="396"
                clip-path="url(#clipPath56)" font-family="'Dialog'"
                stroke="none" xml:space="preserve">getEnumerate</text>
            <text font-size="13" x="128" y="396"
                clip-path="url(#clipPath57)" font-family="'Dialog'"
                stroke="none" xml:space="preserve">(node : Tree, key : ParameterKey, class : Class) : Enumerate</text>
            <text font-size="13" x="21" y="415"
                clip-path="url(#clipPath58)" font-family="'Dialog'"
                stroke="none" xml:space="preserve">+</text>
            <text font-size="13" x="34" y="415"
                clip-path="url(#clipPath59)" font-family="'Dialog'"
                stroke="none" xml:space="preserve">getEnumerate</text>
            <text font-size="13" x="128" y="415"
                clip-path="url(#clipPath60)" font-family="'Dialog'"
                stroke="none" xml:space="preserve">(node : Tree, index : int, class : Class) : Enumerate</text>
            <line clip-path="url(#clipPath61)" fill="none" x1="20"
                x2="529" y1="76" y2="76"/>
            <rect x="18" y="47" clip-path="url(#clipPath4)" fill="none"
                width="512" height="374" stroke-width="1.1"/>
            <rect x="584" y="145" clip-path="url(#clipPath62)"
                fill="rgb(229,229,229)" width="308" height="213"
                stroke="none" stroke-width="1.1"/>
            <text font-size="13" x="674" y="160"
                clip-path="url(#clipPath63)" font-family="'Dialog'"
                stroke="none" stroke-width="1.1" xml:space="preserve">&lt;&lt;enumeration&gt;&gt;</text>
        </g>
        <g stroke-width="1.1" font-size="13" font-weight="bold" stroke-linecap="butt">
            <text xml:space="preserve" x="684" y="179"
                clip-path="url(#clipPath64)" stroke="none">ParameterKey</text>
            <text x="623" y="199" clip-path="url(#clipPath65)"
                stroke="none" font-weight="normal" xml:space="preserve">SIMULATION_OUTPUT_BASE_NAME</text>
            <text x="638" y="218" clip-path="url(#clipPath66)"
                stroke="none" font-weight="normal" xml:space="preserve">SIMULATION_INERTIAL_FRAME</text>
            <text x="731" y="237" clip-path="url(#clipPath67)"
                stroke="none" font-weight="normal" xml:space="preserve">...</text>
            <text x="593" y="256" clip-path="url(#clipPath68)"
                stroke="none" font-weight="normal" xml:space="preserve">COMPONENT_CONTROL_LOOP_FIRST_CYCLE</text>
            <text x="592" y="275" clip-path="url(#clipPath69)"
                stroke="none" font-weight="normal" xml:space="preserve">CONTROL_ECCENTRICITY_CIRCLE_CENTER_X</text>
            <text x="731" y="294" clip-path="url(#clipPath70)"
                stroke="none" font-weight="normal" xml:space="preserve">...</text>
            <text x="609" y="313" clip-path="url(#clipPath71)"
                stroke="none" font-weight="normal" xml:space="preserve">NUMERICAL_PROPAGATOR_TOLERANCE</text>
            <text x="669" y="332" clip-path="url(#clipPath72)"
                stroke="none" font-weight="normal" xml:space="preserve">MONITORING_MONO</text>
            <text x="675" y="351" clip-path="url(#clipPath73)"
                stroke="none" font-weight="normal" xml:space="preserve">MONITORING_DUO</text>
        </g>
        <g stroke-width="0.1" font-size="15" font-family="'Ubuntu'" stroke-linecap="butt">
            <line clip-path="url(#clipPath74)" fill="none" x1="586"
                x2="890" y1="183" y2="183"/>
            <rect x="584" y="145" clip-path="url(#clipPath62)"
                fill="none" width="307" height="212" stroke-width="1.1"/>
            <rect x="0" y="0" clip-path="url(#clipPath1)" fill="none"
                width="901" height="431" stroke-width="1.1"/>
            <line clip-path="url(#clipPath75)" fill="none" x1="531"
                x2="584" y1="243" y2="243" stroke-width="1.1"/>
            <line clip-path="url(#clipPath76)" fill="none" x1="574"
                x2="584" y1="248" y2="243" stroke-width="1.1"/>
            <line clip-path="url(#clipPath76)" fill="none" x1="584"
                x2="574" y1="243" y2="238" stroke-width="1.1"/>
        </g>
    </g>
</svg>
