<?xml version="1.0" encoding="UTF-8"?>
<svg stroke-dasharray="none" shape-rendering="auto"
    font-family="'Dialog'" width="807" text-rendering="auto"
    fill-opacity="1" color-interpolation="auto" color-rendering="auto"
    font-size="12" fill="black" stroke="black" image-rendering="auto"
    stroke-miterlimit="10" stroke-linecap="square"
    stroke-linejoin="miter" font-style="normal" height="664"
    stroke-width="1" stroke-dashoffset="0" font-weight="normal" stroke-opacity="1">
    <!--Generated by the Batik Graphics2D SVG Generator-->
    <defs id="genericDefs"/>
    <g>
        <defs id="defs1">
            <clipPath clipPathUnits="userSpaceOnUse" id="clipPath1">
                <path d="M-1 -1 L807 -1 L807 664 L-1 664 L-1 -1 Z"/>
            </clipPath>
            <clipPath clipPathUnits="userSpaceOnUse" id="clipPath2">
                <path d="M5 5 L69 5 L69 28 L5 28 L5 5 Z"/>
            </clipPath>
            <clipPath clipPathUnits="userSpaceOnUse" id="clipPath3">
                <path d="M69 8 L97 8 L97 25 L69 25 L69 8 Z"/>
            </clipPath>
            <clipPath clipPathUnits="userSpaceOnUse" id="clipPath4">
                <path d="M90 52 L605 52 L605 391 L90 391 L90 52 Z"/>
            </clipPath>
            <clipPath clipPathUnits="userSpaceOnUse" id="clipPath5">
                <path d="M293 54 L402 54 L402 71 L293 71 L293 54 Z"/>
            </clipPath>
            <clipPath clipPathUnits="userSpaceOnUse" id="clipPath6">
                <path d="M92 69 L603 69 L603 81 L92 81 L92 69 Z"/>
            </clipPath>
            <clipPath clipPathUnits="userSpaceOnUse" id="clipPath7">
                <path d="M93 82 L106 82 L106 99 L93 99 L93 82 Z"/>
            </clipPath>
            <clipPath clipPathUnits="userSpaceOnUse" id="clipPath8">
                <path d="M106 82 L184 82 L184 99 L106 99 L106 82 Z"/>
            </clipPath>
            <clipPath clipPathUnits="userSpaceOnUse" id="clipPath9">
                <path d="M184 82 L460 82 L460 99 L184 99 L184 82 Z"/>
            </clipPath>
            <clipPath clipPathUnits="userSpaceOnUse" id="clipPath10">
                <path d="M93 99 L106 99 L106 116 L93 116 L93 99 Z"/>
            </clipPath>
            <clipPath clipPathUnits="userSpaceOnUse" id="clipPath11">
                <path d="M106 99 L167 99 L167 116 L106 116 L106 99 Z"/>
            </clipPath>
            <clipPath clipPathUnits="userSpaceOnUse" id="clipPath12">
                <path d="M167 99 L430 99 L430 116 L167 116 L167 99 Z"/>
            </clipPath>
            <clipPath clipPathUnits="userSpaceOnUse" id="clipPath13">
                <path d="M93 116 L106 116 L106 133 L93 133 L93 116 Z"/>
            </clipPath>
            <clipPath clipPathUnits="userSpaceOnUse" id="clipPath14">
                <path d="M106 116 L174 116 L174 133 L106 133 L106 116 Z"/>
            </clipPath>
            <clipPath clipPathUnits="userSpaceOnUse" id="clipPath15">
                <path d="M174 116 L442 116 L442 133 L174 133 L174 116 Z"/>
            </clipPath>
            <clipPath clipPathUnits="userSpaceOnUse" id="clipPath16">
                <path d="M93 133 L106 133 L106 150 L93 150 L93 133 Z"/>
            </clipPath>
            <clipPath clipPathUnits="userSpaceOnUse" id="clipPath17">
                <path d="M106 133 L145 133 L145 150 L106 150 L106 133 Z"/>
            </clipPath>
            <clipPath clipPathUnits="userSpaceOnUse" id="clipPath18">
                <path d="M145 133 L386 133 L386 150 L145 150 L145 133 Z"/>
            </clipPath>
            <clipPath clipPathUnits="userSpaceOnUse" id="clipPath19">
                <path d="M93 150 L106 150 L106 167 L93 167 L93 150 Z"/>
            </clipPath>
            <clipPath clipPathUnits="userSpaceOnUse" id="clipPath20">
                <path d="M106 150 L165 150 L165 167 L106 167 L106 150 Z"/>
            </clipPath>
            <clipPath clipPathUnits="userSpaceOnUse" id="clipPath21">
                <path d="M165 150 L433 150 L433 167 L165 167 L165 150 Z"/>
            </clipPath>
            <clipPath clipPathUnits="userSpaceOnUse" id="clipPath22">
                <path d="M93 167 L106 167 L106 184 L93 184 L93 167 Z"/>
            </clipPath>
            <clipPath clipPathUnits="userSpaceOnUse" id="clipPath23">
                <path d="M106 167 L160 167 L160 184 L106 184 L106 167 Z"/>
            </clipPath>
            <clipPath clipPathUnits="userSpaceOnUse" id="clipPath24">
                <path d="M160 167 L591 167 L591 184 L160 184 L160 167 Z"/>
            </clipPath>
            <clipPath clipPathUnits="userSpaceOnUse" id="clipPath25">
                <path d="M93 184 L106 184 L106 201 L93 201 L93 184 Z"/>
            </clipPath>
            <clipPath clipPathUnits="userSpaceOnUse" id="clipPath26">
                <path d="M106 184 L170 184 L170 201 L106 201 L106 184 Z"/>
            </clipPath>
            <clipPath clipPathUnits="userSpaceOnUse" id="clipPath27">
                <path d="M170 184 L454 184 L454 201 L170 201 L170 184 Z"/>
            </clipPath>
            <clipPath clipPathUnits="userSpaceOnUse" id="clipPath28">
                <path d="M93 201 L106 201 L106 218 L93 218 L93 201 Z"/>
            </clipPath>
            <clipPath clipPathUnits="userSpaceOnUse" id="clipPath29">
                <path d="M106 201 L212 201 L212 218 L106 218 L106 201 Z"/>
            </clipPath>
            <clipPath clipPathUnits="userSpaceOnUse" id="clipPath30">
                <path d="M212 201 L477 201 L477 218 L212 218 L212 201 Z"/>
            </clipPath>
            <clipPath clipPathUnits="userSpaceOnUse" id="clipPath31">
                <path d="M93 218 L106 218 L106 235 L93 235 L93 218 Z"/>
            </clipPath>
            <clipPath clipPathUnits="userSpaceOnUse" id="clipPath32">
                <path d="M106 218 L203 218 L203 235 L106 235 L106 218 Z"/>
            </clipPath>
            <clipPath clipPathUnits="userSpaceOnUse" id="clipPath33">
                <path d="M203 218 L468 218 L468 235 L203 235 L203 218 Z"/>
            </clipPath>
            <clipPath clipPathUnits="userSpaceOnUse" id="clipPath34">
                <path d="M93 235 L106 235 L106 252 L93 252 L93 235 Z"/>
            </clipPath>
            <clipPath clipPathUnits="userSpaceOnUse" id="clipPath35">
                <path d="M106 235 L216 235 L216 252 L106 252 L106 235 Z"/>
            </clipPath>
            <clipPath clipPathUnits="userSpaceOnUse" id="clipPath36">
                <path d="M216 235 L497 235 L497 252 L216 252 L216 235 Z"/>
            </clipPath>
            <clipPath clipPathUnits="userSpaceOnUse" id="clipPath37">
                <path d="M93 252 L106 252 L106 269 L93 269 L93 252 Z"/>
            </clipPath>
            <clipPath clipPathUnits="userSpaceOnUse" id="clipPath38">
                <path d="M106 252 L216 252 L216 269 L106 269 L106 252 Z"/>
            </clipPath>
            <clipPath clipPathUnits="userSpaceOnUse" id="clipPath39">
                <path d="M216 252 L497 252 L497 269 L216 269 L216 252 Z"/>
            </clipPath>
            <clipPath clipPathUnits="userSpaceOnUse" id="clipPath40">
                <path d="M93 269 L106 269 L106 286 L93 286 L93 269 Z"/>
            </clipPath>
            <clipPath clipPathUnits="userSpaceOnUse" id="clipPath41">
                <path d="M106 269 L160 269 L160 286 L106 286 L106 269 Z"/>
            </clipPath>
            <clipPath clipPathUnits="userSpaceOnUse" id="clipPath42">
                <path d="M160 269 L416 269 L416 286 L160 286 L160 269 Z"/>
            </clipPath>
            <clipPath clipPathUnits="userSpaceOnUse" id="clipPath43">
                <path d="M93 286 L106 286 L106 303 L93 303 L93 286 Z"/>
            </clipPath>
            <clipPath clipPathUnits="userSpaceOnUse" id="clipPath44">
                <path d="M106 286 L181 286 L181 303 L106 303 L106 286 Z"/>
            </clipPath>
            <clipPath clipPathUnits="userSpaceOnUse" id="clipPath45">
                <path d="M181 286 L457 286 L457 303 L181 303 L181 286 Z"/>
            </clipPath>
            <clipPath clipPathUnits="userSpaceOnUse" id="clipPath46">
                <path d="M93 303 L106 303 L106 320 L93 320 L93 303 Z"/>
            </clipPath>
            <clipPath clipPathUnits="userSpaceOnUse" id="clipPath47">
                <path d="M106 303 L164 303 L164 320 L106 320 L106 303 Z"/>
            </clipPath>
            <clipPath clipPathUnits="userSpaceOnUse" id="clipPath48">
                <path d="M164 303 L415 303 L415 320 L164 320 L164 303 Z"/>
            </clipPath>
            <clipPath clipPathUnits="userSpaceOnUse" id="clipPath49">
                <path d="M93 320 L106 320 L106 337 L93 337 L93 320 Z"/>
            </clipPath>
            <clipPath clipPathUnits="userSpaceOnUse" id="clipPath50">
                <path d="M106 320 L241 320 L241 337 L106 337 L106 320 Z"/>
            </clipPath>
            <clipPath clipPathUnits="userSpaceOnUse" id="clipPath51">
                <path d="M241 320 L351 320 L351 337 L241 337 L241 320 Z"/>
            </clipPath>
            <clipPath clipPathUnits="userSpaceOnUse" id="clipPath52">
                <path d="M93 337 L106 337 L106 354 L93 354 L93 337 Z"/>
            </clipPath>
            <clipPath clipPathUnits="userSpaceOnUse" id="clipPath53">
                <path d="M106 337 L182 337 L182 354 L106 354 L106 337 Z"/>
            </clipPath>
            <clipPath clipPathUnits="userSpaceOnUse" id="clipPath54">
                <path d="M182 337 L362 337 L362 354 L182 354 L182 337 Z"/>
            </clipPath>
            <clipPath clipPathUnits="userSpaceOnUse" id="clipPath55">
                <path d="M93 354 L106 354 L106 371 L93 371 L93 354 Z"/>
            </clipPath>
            <clipPath clipPathUnits="userSpaceOnUse" id="clipPath56">
                <path d="M106 354 L200 354 L200 371 L106 371 L106 354 Z"/>
            </clipPath>
            <clipPath clipPathUnits="userSpaceOnUse" id="clipPath57">
                <path d="M200 354 L582 354 L582 371 L200 371 L200 354 Z"/>
            </clipPath>
            <clipPath clipPathUnits="userSpaceOnUse" id="clipPath58">
                <path d="M93 371 L106 371 L106 388 L93 388 L93 371 Z"/>
            </clipPath>
            <clipPath clipPathUnits="userSpaceOnUse" id="clipPath59">
                <path d="M106 371 L200 371 L200 388 L106 388 L106 371 Z"/>
            </clipPath>
            <clipPath clipPathUnits="userSpaceOnUse" id="clipPath60">
                <path d="M200 371 L521 371 L521 388 L200 388 L200 371 Z"/>
            </clipPath>
            <clipPath clipPathUnits="userSpaceOnUse" id="clipPath61">
                <path d="M92 79 L603 79 L603 389 L92 389 L92 79 Z"/>
            </clipPath>
            <clipPath clipPathUnits="userSpaceOnUse" id="clipPath62">
                <path d="M441 444 L797 444 L797 654 L441 654 L441 444 Z"/>
            </clipPath>
            <clipPath clipPathUnits="userSpaceOnUse" id="clipPath63">
                <path d="M555 446 L683 446 L683 463 L555 463 L555 446 Z"/>
            </clipPath>
            <clipPath clipPathUnits="userSpaceOnUse" id="clipPath64">
                <path d="M565 463 L672 463 L672 480 L565 480 L565 463 Z"/>
            </clipPath>
            <clipPath clipPathUnits="userSpaceOnUse" id="clipPath65">
                <path d="M505 481 L731 481 L731 498 L505 498 L505 481 Z"/>
            </clipPath>
            <clipPath clipPathUnits="userSpaceOnUse" id="clipPath66">
                <path d="M523 498 L713 498 L713 515 L523 515 L523 498 Z"/>
            </clipPath>
            <clipPath clipPathUnits="userSpaceOnUse" id="clipPath67">
                <path d="M519 515 L717 515 L717 532 L519 532 L519 515 Z"/>
            </clipPath>
            <clipPath clipPathUnits="userSpaceOnUse" id="clipPath68">
                <path d="M611 532 L625 532 L625 549 L611 549 L611 532 Z"/>
            </clipPath>
            <clipPath clipPathUnits="userSpaceOnUse" id="clipPath69">
                <path d="M477 549 L759 549 L759 566 L477 566 L477 549 Z"/>
            </clipPath>
            <clipPath clipPathUnits="userSpaceOnUse" id="clipPath70">
                <path d="M478 566 L758 566 L758 583 L478 583 L478 566 Z"/>
            </clipPath>
            <clipPath clipPathUnits="userSpaceOnUse" id="clipPath71">
                <path d="M611 583 L625 583 L625 600 L611 600 L611 583 Z"/>
            </clipPath>
            <clipPath clipPathUnits="userSpaceOnUse" id="clipPath72">
                <path d="M493 600 L744 600 L744 617 L493 617 L493 600 Z"/>
            </clipPath>
            <clipPath clipPathUnits="userSpaceOnUse" id="clipPath73">
                <path d="M552 617 L684 617 L684 634 L552 634 L552 617 Z"/>
            </clipPath>
            <clipPath clipPathUnits="userSpaceOnUse" id="clipPath74">
                <path d="M558 634 L679 634 L679 651 L558 651 L558 634 Z"/>
            </clipPath>
            <clipPath clipPathUnits="userSpaceOnUse" id="clipPath75">
                <path d="M443 478 L795 478 L795 652 L443 652 L443 478 Z"/>
            </clipPath>
            <clipPath clipPathUnits="userSpaceOnUse" id="clipPath76">
                <path d="M319 376 L648 376 L648 460 L319 460 L319 376 Z"/>
            </clipPath>
            <clipPath clipPathUnits="userSpaceOnUse" id="clipPath77">
                <path d="M477 434 L490 434 L490 447 L477 447 L477 434 Z"/>
            </clipPath>
        </defs>
        <g font-size="15" fill="white" font-family="'Cantarell'"
            stroke-linejoin="round" stroke="white" stroke-width="0" stroke-miterlimit="0">
            <rect x="0" y="0" clip-path="url(#clipPath1)" width="806"
                height="663" stroke="none"/>
        </g>
        <g stroke-width="0.1" font-size="15" font-family="'Cantarell'" stroke-linecap="butt">
            <line clip-path="url(#clipPath1)" fill="none" x1="1"
                x2="101" y1="35" y2="35"/>
            <line clip-path="url(#clipPath1)" fill="none" x1="101"
                x2="108" y1="35" y2="21"/>
            <line clip-path="url(#clipPath1)" fill="none" x1="108"
                x2="108" y1="21" y2="1"/>
            <text x="6" y="22" clip-path="url(#clipPath2)" stroke="none"
                font-weight="bold" xml:space="preserve">package </text>
            <text font-size="13" x="70" y="22"
                clip-path="url(#clipPath3)" font-family="'Dialog'"
                stroke="none" xml:space="preserve">utils</text>
            <rect x="91" y="53" clip-path="url(#clipPath4)"
                fill="rgb(237,247,200)" width="513" height="337" stroke="none"/>
        </g>
        <g font-size="13" stroke-linecap="butt" fill="rgb(106,88,75)"
            stroke="rgb(106,88,75)" stroke-width="0.1">
            <text xml:space="preserve" x="294" y="68"
                clip-path="url(#clipPath5)" font-weight="bold" stroke="none">SkatFileParser</text>
            <line clip-path="url(#clipPath6)" fill="none" x1="93"
                x2="602" y1="70" y2="70"/>
            <text x="94" y="96" clip-path="url(#clipPath7)" fill="black"
                stroke="none" font-weight="normal" xml:space="preserve">+</text>
            <text x="107" y="96" clip-path="url(#clipPath8)"
                fill="black" stroke="none" font-weight="normal" xml:space="preserve">containsKey</text>
            <text x="185" y="96" clip-path="url(#clipPath9)"
                fill="black" stroke="none" font-weight="normal" xml:space="preserve">(node : Tree, key : ParameterKey) : boolean</text>
            <text x="94" y="113" clip-path="url(#clipPath10)"
                fill="black" stroke="none" font-weight="normal" xml:space="preserve">+</text>
            <text x="107" y="113" clip-path="url(#clipPath11)"
                fill="black" stroke="none" font-weight="normal" xml:space="preserve">getString</text>
            <text x="168" y="113" clip-path="url(#clipPath12)"
                fill="black" stroke="none" font-weight="normal" xml:space="preserve">(node : Tree, key : ParameterKey) : String</text>
            <text x="94" y="130" clip-path="url(#clipPath13)"
                fill="black" stroke="none" font-weight="normal" xml:space="preserve">+</text>
            <text x="107" y="130" clip-path="url(#clipPath14)"
                fill="black" stroke="none" font-weight="normal" xml:space="preserve">getDouble</text>
            <text x="175" y="130" clip-path="url(#clipPath15)"
                fill="black" stroke="none" font-weight="normal" xml:space="preserve">(node : Tree, key : ParameterKey) : double</text>
            <text x="94" y="147" clip-path="url(#clipPath16)"
                fill="black" stroke="none" font-weight="normal" xml:space="preserve">+</text>
            <text x="107" y="147" clip-path="url(#clipPath17)"
                fill="black" stroke="none" font-weight="normal" xml:space="preserve">getInt</text>
            <text x="146" y="147" clip-path="url(#clipPath18)"
                fill="black" stroke="none" font-weight="normal" xml:space="preserve">(node : Tree, key : ParameterKey) : int</text>
            <text x="94" y="164" clip-path="url(#clipPath19)"
                fill="black" stroke="none" font-weight="normal" xml:space="preserve">+</text>
            <text x="107" y="164" clip-path="url(#clipPath20)"
                fill="black" stroke="none" font-weight="normal" xml:space="preserve">getAngle</text>
            <text x="166" y="164" clip-path="url(#clipPath21)"
                fill="black" stroke="none" font-weight="normal" xml:space="preserve">(node : Tree, key : ParameterKey) : double</text>
            <text x="94" y="181" clip-path="url(#clipPath22)"
                fill="black" stroke="none" font-weight="normal" xml:space="preserve">+</text>
            <text x="107" y="181" clip-path="url(#clipPath23)"
                fill="black" stroke="none" font-weight="normal" xml:space="preserve">getDate</text>
            <text x="161" y="181" clip-path="url(#clipPath24)"
                fill="black" stroke="none" font-weight="normal" xml:space="preserve">(node : Tree, key : ParameterKey, scale : TimeScale) : AbsoluteDate</text>
            <text x="94" y="198" clip-path="url(#clipPath25)"
                fill="black" stroke="none" font-weight="normal" xml:space="preserve">+</text>
            <text x="107" y="198" clip-path="url(#clipPath26)"
                fill="black" stroke="none" font-weight="normal" xml:space="preserve">getVector</text>
            <text x="171" y="198" clip-path="url(#clipPath27)"
                fill="black" stroke="none" font-weight="normal" xml:space="preserve">(node : Tree, key : ParameterKey) : Vector3D</text>
            <text x="94" y="215" clip-path="url(#clipPath28)"
                fill="black" stroke="none" font-weight="normal" xml:space="preserve">+</text>
            <text x="107" y="215" clip-path="url(#clipPath29)"
                fill="black" stroke="none" font-weight="normal" xml:space="preserve">getInertialFrame</text>
            <text x="213" y="215" clip-path="url(#clipPath30)"
                fill="black" stroke="none" font-weight="normal" xml:space="preserve">(node : Tree, key : ParameterKey) : Frame</text>
            <text x="94" y="232" clip-path="url(#clipPath31)"
                fill="black" stroke="none" font-weight="normal" xml:space="preserve">+</text>
            <text x="107" y="232" clip-path="url(#clipPath32)"
                fill="black" stroke="none" font-weight="normal" xml:space="preserve">getEarthFrame</text>
            <text x="204" y="232" clip-path="url(#clipPath33)"
                fill="black" stroke="none" font-weight="normal" xml:space="preserve">(node : Tree, key : ParameterKey) : Frame</text>
            <text x="94" y="249" clip-path="url(#clipPath34)"
                fill="black" stroke="none" font-weight="normal" xml:space="preserve">+</text>
            <text x="107" y="249" clip-path="url(#clipPath35)"
                fill="black" stroke="none" font-weight="normal" xml:space="preserve">getDoubleArray1</text>
            <text x="217" y="249" clip-path="url(#clipPath36)"
                fill="black" stroke="none" font-weight="normal" xml:space="preserve">(node : Tree, key : ParameterKey) : ArrayList</text>
            <text x="94" y="266" clip-path="url(#clipPath37)"
                fill="black" stroke="none" font-weight="normal" xml:space="preserve">+</text>
            <text x="107" y="266" clip-path="url(#clipPath38)"
                fill="black" stroke="none" font-weight="normal" xml:space="preserve">getDoubleArray2</text>
            <text x="217" y="266" clip-path="url(#clipPath39)"
                fill="black" stroke="none" font-weight="normal" xml:space="preserve">(node : Tree, key : ParameterKey) : ArrayList</text>
            <text x="94" y="283" clip-path="url(#clipPath40)"
                fill="black" stroke="none" font-weight="normal" xml:space="preserve">+</text>
            <text x="107" y="283" clip-path="url(#clipPath41)"
                fill="black" stroke="none" font-weight="normal" xml:space="preserve">getOrbit</text>
            <text x="161" y="283" clip-path="url(#clipPath42)"
                fill="black" stroke="none" font-weight="normal" xml:space="preserve">(node : Tree, key : ParameterKey) : Orbit</text>
            <text x="94" y="300" clip-path="url(#clipPath43)"
                fill="black" stroke="none" font-weight="normal" xml:space="preserve">+</text>
            <text x="107" y="300" clip-path="url(#clipPath44)"
                fill="black" stroke="none" font-weight="normal" xml:space="preserve">getBoolean</text>
            <text x="182" y="300" clip-path="url(#clipPath45)"
                fill="black" stroke="none" font-weight="normal" xml:space="preserve">(node : Tree, key : ParameterKey) : boolean</text>
            <text x="94" y="317" clip-path="url(#clipPath46)"
                fill="black" stroke="none" font-weight="normal" xml:space="preserve">+</text>
            <text x="107" y="317" clip-path="url(#clipPath47)"
                fill="black" stroke="none" font-weight="normal" xml:space="preserve">getValue</text>
            <text x="165" y="317" clip-path="url(#clipPath48)"
                fill="black" stroke="none" font-weight="normal" xml:space="preserve">(node : Tree, key : ParameterKey) : Tree</text>
            <text x="94" y="334" clip-path="url(#clipPath49)"
                fill="black" stroke="none" font-weight="normal" xml:space="preserve">+</text>
            <text x="107" y="334" clip-path="url(#clipPath50)"
                fill="black" stroke="none" font-weight="normal" xml:space="preserve">getElementsNumber</text>
            <text x="242" y="334" clip-path="url(#clipPath51)"
                fill="black" stroke="none" font-weight="normal" xml:space="preserve">(node : Tree) : int</text>
            <text x="94" y="351" clip-path="url(#clipPath52)"
                fill="black" stroke="none" font-weight="normal" xml:space="preserve">+</text>
            <text x="107" y="351" clip-path="url(#clipPath53)"
                fill="black" stroke="none" font-weight="normal" xml:space="preserve">getElement</text>
            <text x="183" y="351" clip-path="url(#clipPath54)"
                fill="black" stroke="none" font-weight="normal" xml:space="preserve">(node : Tree, index : int) : int</text>
            <text x="94" y="368" clip-path="url(#clipPath55)"
                fill="black" stroke="none" font-weight="normal" xml:space="preserve">+</text>
            <text x="107" y="368" clip-path="url(#clipPath56)"
                fill="black" stroke="none" font-weight="normal" xml:space="preserve">getEnumerate</text>
            <text x="201" y="368" clip-path="url(#clipPath57)"
                fill="black" stroke="none" font-weight="normal" xml:space="preserve">(node : Tree, key : ParameterKey, class : Class) : Enumerate</text>
            <text x="94" y="385" clip-path="url(#clipPath58)"
                fill="black" stroke="none" font-weight="normal" xml:space="preserve">+</text>
            <text x="107" y="385" clip-path="url(#clipPath59)"
                fill="black" stroke="none" font-weight="normal" xml:space="preserve">getEnumerate</text>
            <text x="201" y="385" clip-path="url(#clipPath60)"
                fill="black" stroke="none" font-weight="normal" xml:space="preserve">(node : Tree, index : int, class : Class) : Enumerate</text>
            <line clip-path="url(#clipPath61)" fill="none" x1="93"
                x2="602" y1="80" y2="80"/>
        </g>
        <g font-size="15" stroke-linecap="butt" fill="rgb(106,88,75)"
            font-family="'Cantarell'" stroke="rgb(106,88,75)" stroke-width="1.1">
            <rect x="91" y="53" clip-path="url(#clipPath4)" fill="none"
                width="512" height="336"/>
            <rect x="442" y="445" clip-path="url(#clipPath62)"
                fill="rgb(238,233,247)" width="354" height="208" stroke="none"/>
        </g>
        <g fill="rgb(70,13,110)" stroke-width="1.1" font-size="13"
            stroke-linecap="butt" stroke="rgb(70,13,110)">
            <text xml:space="preserve" x="556" y="460"
                clip-path="url(#clipPath63)" stroke="none">&lt;&lt;enumeration&gt;&gt;</text>
            <text x="566" y="477" clip-path="url(#clipPath64)"
                stroke="none" font-weight="bold" xml:space="preserve">ParameterKey</text>
            <text x="506" y="495" clip-path="url(#clipPath65)"
                fill="black" stroke="none" xml:space="preserve">SIMULATION_OUTPUT_BASE_NAME</text>
            <text x="524" y="512" clip-path="url(#clipPath66)"
                fill="black" stroke="none" xml:space="preserve">SIMULATION_INERTIAL_FRAME</text>
            <text x="520" y="529" clip-path="url(#clipPath67)"
                fill="black" stroke="none" xml:space="preserve">SIMULATION_CYCLE_DURATION</text>
            <text x="612" y="546" clip-path="url(#clipPath68)"
                fill="black" stroke="none" xml:space="preserve">...</text>
            <text x="478" y="563" clip-path="url(#clipPath69)"
                fill="black" stroke="none" xml:space="preserve">COMPONENT_CONTROL_LOOP_FIRST_CYCLE</text>
            <text x="479" y="580" clip-path="url(#clipPath70)"
                fill="black" stroke="none" xml:space="preserve">CONTROL_ECCENTRICITY_CIRCLE_CENTER_X</text>
            <text x="612" y="597" clip-path="url(#clipPath71)"
                fill="black" stroke="none" xml:space="preserve">...</text>
            <text x="494" y="614" clip-path="url(#clipPath72)"
                fill="black" stroke="none" xml:space="preserve">NUMERICAL_PROPAGATOR_TOLERANCE</text>
            <text x="553" y="631" clip-path="url(#clipPath73)"
                fill="black" stroke="none" xml:space="preserve">MONITORING_MONO</text>
            <text x="559" y="648" clip-path="url(#clipPath74)"
                fill="black" stroke="none" xml:space="preserve">MONITORING_DUO</text>
            <line clip-path="url(#clipPath75)" fill="none" x1="444"
                x2="794" y1="479" y2="479" stroke-width="0.1"/>
            <rect x="442" y="445" clip-path="url(#clipPath62)"
                fill="none" width="353" height="207"/>
        </g>
        <g stroke-width="1.1" font-size="15" font-family="'Cantarell'" stroke-linecap="butt">
            <rect x="0" y="0" clip-path="url(#clipPath1)" fill="none"
                width="805" height="662"/>
        </g>
        <g fill="rgb(153,15,15)" stroke-width="1.1" font-size="13"
            stroke-linecap="butt" stroke="rgb(153,15,15)">
            <line clip-path="url(#clipPath76)" fill="none" x1="483"
                x2="483" y1="390" y2="445"/>
            <line clip-path="url(#clipPath77)" fill="none" x1="478"
                x2="483" y1="435" y2="445"/>
            <line clip-path="url(#clipPath77)" fill="none" x1="483"
                x2="488" y1="445" y2="435"/>
        </g>
    </g>
</svg>
