<?xml version="1.0" encoding="UTF-8"?>
<svg stroke-dasharray="none" shape-rendering="auto"
    font-family="'Dialog'" width="696" text-rendering="auto"
    fill-opacity="1" color-interpolation="auto" color-rendering="auto"
    font-size="12" fill="black" stroke="black" image-rendering="auto"
    stroke-miterlimit="10" stroke-linecap="square"
    stroke-linejoin="miter" font-style="normal" height="440"
    stroke-width="1" stroke-dashoffset="0" font-weight="normal" stroke-opacity="1">
    <!--Generated by the Batik Graphics2D SVG Generator-->
    <defs id="genericDefs"/>
    <g>
        <defs id="defs1">
            <clipPath clipPathUnits="userSpaceOnUse" id="clipPath1">
                <path d="M-1 -1 L696 -1 L696 440 L-1 440 L-1 -1 Z"/>
            </clipPath>
            <clipPath clipPathUnits="userSpaceOnUse" id="clipPath2">
                <path d="M5 5 L69 5 L69 28 L5 28 L5 5 Z"/>
            </clipPath>
            <clipPath clipPathUnits="userSpaceOnUse" id="clipPath3">
                <path d="M69 8 L97 8 L97 25 L69 25 L69 8 Z"/>
            </clipPath>
            <clipPath clipPathUnits="userSpaceOnUse" id="clipPath4">
                <path d="M122 60 L488 60 L488 174 L122 174 L122 60 Z"/>
            </clipPath>
            <clipPath clipPathUnits="userSpaceOnUse" id="clipPath5">
                <path d="M261 62 L349 62 L349 77 L261 77 L261 62 Z"/>
            </clipPath>
            <clipPath clipPathUnits="userSpaceOnUse" id="clipPath6">
                <path d="M248 77 L362 77 L362 92 L248 92 L248 77 Z"/>
            </clipPath>
            <clipPath clipPathUnits="userSpaceOnUse" id="clipPath7">
                <path d="M124 90 L486 90 L486 102 L124 102 L124 90 Z"/>
            </clipPath>
            <clipPath clipPathUnits="userSpaceOnUse" id="clipPath8">
                <path d="M125 103 L138 103 L138 120 L125 120 L125 103 Z"/>
            </clipPath>
            <clipPath clipPathUnits="userSpaceOnUse" id="clipPath9">
                <path d="M138 103 L189 103 L189 120 L138 120 L138 103 Z"/>
            </clipPath>
            <clipPath clipPathUnits="userSpaceOnUse" id="clipPath10">
                <path d="M189 103 L474 103 L474 120 L189 120 L189 103 Z"/>
            </clipPath>
            <clipPath clipPathUnits="userSpaceOnUse" id="clipPath11">
                <path d="M125 120 L138 120 L138 137 L125 137 L125 120 Z"/>
            </clipPath>
            <clipPath clipPathUnits="userSpaceOnUse" id="clipPath12">
                <path d="M138 120 L200 120 L200 137 L138 137 L138 120 Z"/>
            </clipPath>
            <clipPath clipPathUnits="userSpaceOnUse" id="clipPath13">
                <path d="M200 120 L262 120 L262 137 L200 137 L200 120 Z"/>
            </clipPath>
            <clipPath clipPathUnits="userSpaceOnUse" id="clipPath14">
                <path d="M125 137 L138 137 L138 154 L125 154 L125 137 Z"/>
            </clipPath>
            <clipPath clipPathUnits="userSpaceOnUse" id="clipPath15">
                <path d="M138 137 L192 137 L192 154 L138 154 L138 137 Z"/>
            </clipPath>
            <clipPath clipPathUnits="userSpaceOnUse" id="clipPath16">
                <path d="M192 137 L303 137 L303 154 L192 154 L192 137 Z"/>
            </clipPath>
            <clipPath clipPathUnits="userSpaceOnUse" id="clipPath17">
                <path d="M125 154 L138 154 L138 171 L125 171 L125 154 Z"/>
            </clipPath>
            <clipPath clipPathUnits="userSpaceOnUse" id="clipPath18">
                <path d="M138 154 L196 154 L196 171 L138 171 L138 154 Z"/>
            </clipPath>
            <clipPath clipPathUnits="userSpaceOnUse" id="clipPath19">
                <path d="M196 154 L425 154 L425 171 L196 171 L196 154 Z"/>
            </clipPath>
            <clipPath clipPathUnits="userSpaceOnUse" id="clipPath20">
                <path d="M124 100 L486 100 L486 172 L124 172 L124 100 Z"/>
            </clipPath>
            <clipPath clipPathUnits="userSpaceOnUse" id="clipPath21">
                <path d="M346 231 L686 231 L686 328 L346 328 L346 231 Z"/>
            </clipPath>
            <clipPath clipPathUnits="userSpaceOnUse" id="clipPath22">
                <path d="M472 233 L560 233 L560 248 L472 248 L472 233 Z"/>
            </clipPath>
            <clipPath clipPathUnits="userSpaceOnUse" id="clipPath23">
                <path d="M473 248 L559 248 L559 263 L473 263 L473 248 Z"/>
            </clipPath>
            <clipPath clipPathUnits="userSpaceOnUse" id="clipPath24">
                <path d="M348 261 L684 261 L684 273 L348 273 L348 261 Z"/>
            </clipPath>
            <clipPath clipPathUnits="userSpaceOnUse" id="clipPath25">
                <path d="M349 274 L362 274 L362 291 L349 291 L349 274 Z"/>
            </clipPath>
            <clipPath clipPathUnits="userSpaceOnUse" id="clipPath26">
                <path d="M362 274 L455 274 L455 291 L362 291 L362 274 Z"/>
            </clipPath>
            <clipPath clipPathUnits="userSpaceOnUse" id="clipPath27">
                <path d="M455 274 L666 274 L666 291 L455 291 L455 274 Z"/>
            </clipPath>
            <clipPath clipPathUnits="userSpaceOnUse" id="clipPath28">
                <path d="M349 291 L362 291 L362 308 L349 308 L349 291 Z"/>
            </clipPath>
            <clipPath clipPathUnits="userSpaceOnUse" id="clipPath29">
                <path d="M362 291 L461 291 L461 308 L362 308 L362 291 Z"/>
            </clipPath>
            <clipPath clipPathUnits="userSpaceOnUse" id="clipPath30">
                <path d="M461 291 L672 291 L672 308 L461 308 L461 291 Z"/>
            </clipPath>
            <clipPath clipPathUnits="userSpaceOnUse" id="clipPath31">
                <path d="M349 308 L362 308 L362 325 L349 325 L349 308 Z"/>
            </clipPath>
            <clipPath clipPathUnits="userSpaceOnUse" id="clipPath32">
                <path d="M362 308 L459 308 L459 325 L362 325 L362 308 Z"/>
            </clipPath>
            <clipPath clipPathUnits="userSpaceOnUse" id="clipPath33">
                <path d="M459 308 L471 308 L471 325 L459 325 L459 308 Z"/>
            </clipPath>
            <clipPath clipPathUnits="userSpaceOnUse" id="clipPath34">
                <path d="M348 271 L684 271 L684 326 L348 326 L348 271 Z"/>
            </clipPath>
            <clipPath clipPathUnits="userSpaceOnUse" id="clipPath35">
                <path d="M462 389 L586 389 L586 430 L462 430 L462 389 Z"/>
            </clipPath>
            <clipPath clipPathUnits="userSpaceOnUse" id="clipPath36">
                <path d="M469 391 L579 391 L579 408 L469 408 L469 391 Z"/>
            </clipPath>
            <clipPath clipPathUnits="userSpaceOnUse" id="clipPath37">
                <path d="M464 406 L584 406 L584 418 L464 418 L464 406 Z"/>
            </clipPath>
            <clipPath clipPathUnits="userSpaceOnUse" id="clipPath38">
                <path d="M464 416 L584 416 L584 428 L464 428 L464 416 Z"/>
            </clipPath>
            <clipPath clipPathUnits="userSpaceOnUse" id="clipPath39">
                <path d="M51 238 L204 238 L204 279 L51 279 L51 238 Z"/>
            </clipPath>
            <clipPath clipPathUnits="userSpaceOnUse" id="clipPath40">
                <path d="M57 240 L197 240 L197 257 L57 257 L57 240 Z"/>
            </clipPath>
            <clipPath clipPathUnits="userSpaceOnUse" id="clipPath41">
                <path d="M53 255 L202 255 L202 267 L53 267 L53 255 Z"/>
            </clipPath>
            <clipPath clipPathUnits="userSpaceOnUse" id="clipPath42">
                <path d="M53 265 L202 265 L202 277 L53 277 L53 265 Z"/>
            </clipPath>
            <clipPath clipPathUnits="userSpaceOnUse" id="clipPath43">
                <path d="M128 321 L326 321 L326 362 L128 362 L128 321 Z"/>
            </clipPath>
            <clipPath clipPathUnits="userSpaceOnUse" id="clipPath44">
                <path d="M135 323 L319 323 L319 340 L135 340 L135 323 Z"/>
            </clipPath>
            <clipPath clipPathUnits="userSpaceOnUse" id="clipPath45">
                <path d="M130 338 L324 338 L324 350 L130 350 L130 338 Z"/>
            </clipPath>
            <clipPath clipPathUnits="userSpaceOnUse" id="clipPath46">
                <path d="M130 348 L324 348 L324 360 L130 360 L130 348 Z"/>
            </clipPath>
            <clipPath clipPathUnits="userSpaceOnUse" id="clipPath47">
                <path d="M299 159 L521 159 L521 250 L299 250 L299 159 Z"/>
            </clipPath>
            <clipPath clipPathUnits="userSpaceOnUse" id="clipPath48">
                <path d="M419 206 L489 206 L489 223 L419 223 L419 206 Z"/>
            </clipPath>
            <clipPath clipPathUnits="userSpaceOnUse" id="clipPath49">
                <path d="M392 206 L401 206 L401 223 L392 223 L392 206 Z"/>
            </clipPath>
            <clipPath clipPathUnits="userSpaceOnUse" id="clipPath50">
                <path d="M419 182 L478 182 L478 199 L419 199 L419 182 Z"/>
            </clipPath>
            <clipPath clipPathUnits="userSpaceOnUse" id="clipPath51">
                <path d="M391 182 L401 182 L401 199 L391 199 L391 182 Z"/>
            </clipPath>
            <clipPath clipPathUnits="userSpaceOnUse" id="clipPath52">
                <path d="M404 172 L417 172 L417 195 L404 195 L404 172 Z"/>
            </clipPath>
            <clipPath clipPathUnits="userSpaceOnUse" id="clipPath53">
                <path d="M113 158 L326 158 L326 255 L113 255 L113 158 Z"/>
            </clipPath>
            <clipPath clipPathUnits="userSpaceOnUse" id="clipPath54">
                <path d="M298 171 L313 171 L313 188 L298 188 L298 171 Z"/>
            </clipPath>
            <clipPath clipPathUnits="userSpaceOnUse" id="clipPath55">
                <path d="M213 158 L326 158 L326 338 L213 338 L213 158 Z"/>
            </clipPath>
            <clipPath clipPathUnits="userSpaceOnUse" id="clipPath56">
                <path d="M500 313 L541 313 L541 405 L500 405 L500 313 Z"/>
            </clipPath>
            <clipPath clipPathUnits="userSpaceOnUse" id="clipPath57">
                <path d="M513 326 L528 326 L528 343 L513 343 L513 326 Z"/>
            </clipPath>
        </defs>
        <g font-size="15" fill="white" font-family="'Cantarell'"
            stroke-linejoin="round" stroke="white" stroke-width="0" stroke-miterlimit="0">
            <rect x="0" y="0" clip-path="url(#clipPath1)" width="695"
                height="439" stroke="none"/>
        </g>
        <g stroke-width="0.1" font-size="15" font-family="'Cantarell'" stroke-linecap="butt">
            <line clip-path="url(#clipPath1)" fill="none" x1="1"
                x2="101" y1="35" y2="35"/>
            <line clip-path="url(#clipPath1)" fill="none" x1="101"
                x2="108" y1="35" y2="21"/>
            <line clip-path="url(#clipPath1)" fill="none" x1="108"
                x2="108" y1="21" y2="1"/>
            <text x="6" y="22" clip-path="url(#clipPath2)" stroke="none"
                font-weight="bold" xml:space="preserve">package </text>
            <text font-size="13" x="70" y="22"
                clip-path="url(#clipPath3)" font-family="'Dialog'"
                stroke="none" xml:space="preserve">utils</text>
            <rect x="123" y="61" clip-path="url(#clipPath4)"
                fill="rgb(244,242,212)" width="364" height="112" stroke="none"/>
        </g>
        <g fill="rgb(110,44,18)" stroke-width="0.1" font-size="11"
            stroke-linecap="butt" stroke="rgb(110,44,18)">
            <text xml:space="preserve" x="262" y="74"
                clip-path="url(#clipPath5)" stroke="none">&lt;&lt;interface&gt;&gt;</text>
            <text x="249" y="89" clip-path="url(#clipPath6)"
                stroke="none" font-weight="bold" xml:space="preserve">MonitorableMono</text>
            <line clip-path="url(#clipPath7)" fill="none" x1="125"
                x2="485" y1="91" y2="91"/>
            <text font-size="13" x="126" y="117"
                clip-path="url(#clipPath8)" fill="black" stroke="none" xml:space="preserve">+</text>
            <text font-size="13" x="139" y="117"
                clip-path="url(#clipPath9)" fill="black" stroke="none" xml:space="preserve">register</text>
            <text font-size="13" x="190" y="117"
                clip-path="url(#clipPath10)" fill="black" stroke="none" xml:space="preserve">(nbSpacecrafts : int, monitor : MonitorMono)</text>
            <text font-size="13" x="126" y="134"
                clip-path="url(#clipPath11)" fill="black" stroke="none" xml:space="preserve">+</text>
            <text font-size="13" x="139" y="134"
                clip-path="url(#clipPath12)" fill="black" stroke="none" xml:space="preserve">getName</text>
            <text font-size="13" x="201" y="134"
                clip-path="url(#clipPath13)" fill="black" stroke="none" xml:space="preserve">() : String</text>
            <text font-size="13" x="126" y="151"
                clip-path="url(#clipPath14)" fill="black" stroke="none" xml:space="preserve">+</text>
            <text font-size="13" x="139" y="151"
                clip-path="url(#clipPath15)" fill="black" stroke="none" xml:space="preserve">getDate</text>
            <text font-size="13" x="193" y="151"
                clip-path="url(#clipPath16)" fill="black" stroke="none" xml:space="preserve">() : AbsoluteDate</text>
            <text font-size="13" x="126" y="168"
                clip-path="url(#clipPath17)" fill="black" stroke="none" xml:space="preserve">+</text>
            <text font-size="13" x="139" y="168"
                clip-path="url(#clipPath18)" fill="black" stroke="none" xml:space="preserve">getValue</text>
            <text font-size="13" x="197" y="168"
                clip-path="url(#clipPath19)" fill="black" stroke="none" xml:space="preserve">(spacecraftIndex : int) : double[1..*]</text>
            <line clip-path="url(#clipPath20)" fill="none" x1="125"
                x2="485" y1="101" y2="101"/>
            <rect x="123" y="61" clip-path="url(#clipPath4)" fill="none"
                width="363" height="111" stroke-width="1.1"/>
        </g>
        <g font-size="15" stroke-linecap="butt" fill="rgb(244,242,212)"
            font-family="'Cantarell'" stroke="rgb(244,242,212)" stroke-width="1.1">
            <rect x="347" y="232" clip-path="url(#clipPath21)"
                width="338" height="95" stroke="none"/>
        </g>
        <g fill="rgb(110,44,18)" stroke-width="1.1" font-size="11"
            stroke-linecap="butt" stroke="rgb(110,44,18)">
            <text xml:space="preserve" x="473" y="245"
                clip-path="url(#clipPath22)" stroke="none">&lt;&lt;interface&gt;&gt;</text>
            <text x="474" y="260" clip-path="url(#clipPath23)"
                stroke="none" font-weight="bold" xml:space="preserve">MonitorMono</text>
            <line clip-path="url(#clipPath24)" fill="none" x1="349"
                x2="683" y1="262" y2="262" stroke-width="0.1"/>
        </g>
        <g stroke-width="0.1" font-size="13" stroke-linecap="butt">
            <text xml:space="preserve" x="350" y="288"
                clip-path="url(#clipPath25)" stroke="none">+</text>
            <text xml:space="preserve" x="363" y="288"
                clip-path="url(#clipPath26)" stroke="none">valueChanged</text>
            <text xml:space="preserve" x="456" y="288"
                clip-path="url(#clipPath27)" stroke="none">(monitorable : MonitorableMono)</text>
            <text xml:space="preserve" x="350" y="305"
                clip-path="url(#clipPath28)" stroke="none">+</text>
            <text xml:space="preserve" x="363" y="305"
                clip-path="url(#clipPath29)" stroke="none">startMonitoring</text>
            <text xml:space="preserve" x="462" y="305"
                clip-path="url(#clipPath30)" stroke="none">(monitorable : MonitorableMono)</text>
            <text xml:space="preserve" x="350" y="322"
                clip-path="url(#clipPath31)" stroke="none">+</text>
            <text xml:space="preserve" x="363" y="322"
                clip-path="url(#clipPath32)" stroke="none">stopMonitoring</text>
            <text xml:space="preserve" x="460" y="322"
                clip-path="url(#clipPath33)" stroke="none">()</text>
        </g>
        <g font-size="15" stroke-linecap="butt" fill="rgb(110,44,18)"
            font-family="'Cantarell'" stroke="rgb(110,44,18)" stroke-width="0.1">
            <line clip-path="url(#clipPath34)" fill="none" x1="349"
                x2="683" y1="272" y2="272"/>
            <rect x="347" y="232" clip-path="url(#clipPath21)"
                fill="none" width="337" height="94" stroke-width="1.1"/>
            <rect x="463" y="390" clip-path="url(#clipPath35)"
                fill="rgb(237,247,200)" width="122" height="39"
                stroke="none" stroke-width="1.1"/>
        </g>
        <g font-size="13" stroke-linecap="butt" fill="rgb(106,88,75)"
            stroke="rgb(106,88,75)" font-weight="bold" stroke-width="1.1">
            <text xml:space="preserve" x="470" y="405"
                clip-path="url(#clipPath36)" stroke="none">CsvFileMonitor</text>
        </g>
        <g font-size="15" stroke-linecap="butt" fill="rgb(106,88,75)"
            font-family="'Cantarell'" stroke="rgb(106,88,75)" stroke-width="0.1">
            <line clip-path="url(#clipPath37)" fill="none" x1="465"
                x2="583" y1="407" y2="407"/>
            <line clip-path="url(#clipPath38)" fill="none" x1="465"
                x2="583" y1="417" y2="417"/>
            <rect x="463" y="390" clip-path="url(#clipPath35)"
                fill="none" width="121" height="38" stroke-width="1.1"/>
            <rect x="52" y="239" clip-path="url(#clipPath39)"
                fill="rgb(237,247,200)" width="151" height="39"
                stroke="none" stroke-width="1.1"/>
        </g>
        <g font-size="13" stroke-linecap="butt" fill="rgb(106,88,75)"
            stroke="rgb(106,88,75)" font-weight="bold" stroke-width="1.1">
            <text xml:space="preserve" x="58" y="254"
                clip-path="url(#clipPath40)" stroke="none">SimpleMonitorable</text>
        </g>
        <g font-size="15" stroke-linecap="butt" fill="rgb(106,88,75)"
            font-family="'Cantarell'" stroke="rgb(106,88,75)" stroke-width="0.1">
            <line clip-path="url(#clipPath41)" fill="none" x1="54"
                x2="201" y1="256" y2="256"/>
            <line clip-path="url(#clipPath42)" fill="none" x1="54"
                x2="201" y1="266" y2="266"/>
            <rect x="52" y="239" clip-path="url(#clipPath39)"
                fill="none" width="150" height="38" stroke-width="1.1"/>
            <rect x="129" y="322" clip-path="url(#clipPath43)"
                fill="rgb(237,247,200)" width="196" height="39"
                stroke="none" stroke-width="1.1"/>
        </g>
        <g font-size="13" stroke-linecap="butt" fill="rgb(106,88,75)"
            stroke="rgb(106,88,75)" font-weight="bold" stroke-width="1.1">
            <text xml:space="preserve" x="136" y="337"
                clip-path="url(#clipPath44)" stroke="none">MonitorableMonoSKData</text>
        </g>
        <g font-size="15" stroke-linecap="butt" fill="rgb(106,88,75)"
            font-family="'Cantarell'" stroke="rgb(106,88,75)" stroke-width="0.1">
            <line clip-path="url(#clipPath45)" fill="none" x1="131"
                x2="323" y1="339" y2="339"/>
            <line clip-path="url(#clipPath46)" fill="none" x1="131"
                x2="323" y1="349" y2="349"/>
            <rect x="129" y="322" clip-path="url(#clipPath43)"
                fill="none" width="195" height="38" stroke-width="1.1"/>
            <rect x="0" y="0" clip-path="url(#clipPath1)" fill="none"
                width="694" height="438" stroke="black" stroke-width="1.1"/>
        </g>
        <g fill="rgb(153,15,15)" stroke-width="1.1" font-size="13"
            stroke-linecap="butt" stroke="rgb(153,15,15)">
            <line clip-path="url(#clipPath47)" fill="none" x1="410"
                x2="410" y1="232" y2="173"/>
            <text xml:space="preserve" x="420" y="220"
                clip-path="url(#clipPath48)" stroke="none">+monitors</text>
            <text xml:space="preserve" x="393" y="220"
                clip-path="url(#clipPath49)" stroke="none">*</text>
            <text xml:space="preserve" x="420" y="196"
                clip-path="url(#clipPath50)" stroke="none">+notifies</text>
            <text xml:space="preserve" x="392" y="196"
                clip-path="url(#clipPath51)" stroke="none">1</text>
            <polygon fill="white" clip-path="url(#clipPath52)"
                points=" 410 173 415 183 410 193 405 183" stroke="none"/>
            <polygon fill="none" clip-path="url(#clipPath52)" points=" 410 173 415 183 410 193 405 183"/>
        </g>
        <g font-size="11" stroke-linecap="butt" fill="rgb(110,44,18)"
            stroke-dasharray="8,7" stroke="rgb(110,44,18)" stroke-width="1.1">
            <line clip-path="url(#clipPath53)" fill="none" x1="127"
                x2="127" y1="240" y2="205"/>
            <line clip-path="url(#clipPath53)" fill="none" x1="127"
                x2="305" y1="205" y2="205"/>
            <line clip-path="url(#clipPath53)" fill="none" x1="305"
                x2="305" y1="205" y2="172"/>
            <polygon fill="white" clip-path="url(#clipPath54)"
                points=" 305 172 311 186 299 186" stroke="none"/>
            <polygon fill="none" stroke-dasharray="none"
                clip-path="url(#clipPath54)" points=" 305 172 311 186 299 186"/>
            <line clip-path="url(#clipPath55)" fill="none" x1="227"
                x2="227" y1="323" y2="205"/>
            <line clip-path="url(#clipPath55)" fill="none" x1="227"
                x2="305" y1="205" y2="205"/>
            <line clip-path="url(#clipPath55)" fill="none" x1="305"
                x2="305" y1="205" y2="172"/>
            <polygon fill="white" clip-path="url(#clipPath54)"
                points=" 305 172 311 186 299 186" stroke="none"/>
            <polygon fill="none" stroke-dasharray="none"
                clip-path="url(#clipPath54)" points=" 305 172 311 186 299 186"/>
            <line clip-path="url(#clipPath56)" fill="none" x1="520"
                x2="520" y1="390" y2="327"/>
            <polygon fill="white" clip-path="url(#clipPath57)"
                points=" 520 327 526 341 514 341" stroke="none"/>
            <polygon fill="none" stroke-dasharray="none"
                clip-path="url(#clipPath57)" points=" 520 327 526 341 514 341"/>
        </g>
    </g>
</svg>
