<?xml version="1.0" encoding="UTF-8"?>
<svg stroke-dasharray="none" shape-rendering="auto"
    font-family="'Dialog'" width="1149" text-rendering="auto"
    fill-opacity="1" color-interpolation="auto" color-rendering="auto"
    font-size="12" fill="black" stroke="black" image-rendering="auto"
    stroke-miterlimit="10" stroke-linecap="square"
    stroke-linejoin="miter" font-style="normal" height="1641"
    stroke-width="1" stroke-dashoffset="0" font-weight="normal" stroke-opacity="1">
    <!--Generated by the Batik Graphics2D SVG Generator-->
    <defs id="genericDefs"/>
    <g>
        <defs id="defs1">
            <clipPath clipPathUnits="userSpaceOnUse" id="clipPath1">
                <path d="M-1 -1 L1149 -1 L1149 1641 L-1 1641 L-1 -1 Z"/>
            </clipPath>
            <clipPath clipPathUnits="userSpaceOnUse" id="clipPath2">
                <path d="M5 6 L65 6 L65 21 L5 21 L5 6 Z"/>
            </clipPath>
            <clipPath clipPathUnits="userSpaceOnUse" id="clipPath3">
                <path d="M65 5 L93 5 L93 22 L65 22 L65 5 Z"/>
            </clipPath>
            <clipPath clipPathUnits="userSpaceOnUse" id="clipPath4">
                <path d="M61 88 L443 88 L443 291 L61 291 L61 88 Z"/>
            </clipPath>
            <clipPath clipPathUnits="userSpaceOnUse" id="clipPath5">
                <path d="M180 90 L323 90 L323 107 L180 107 L180 90 Z"/>
            </clipPath>
            <clipPath clipPathUnits="userSpaceOnUse" id="clipPath6">
                <path d="M63 105 L441 105 L441 117 L63 117 L63 105 Z"/>
            </clipPath>
            <clipPath clipPathUnits="userSpaceOnUse" id="clipPath7">
                <path d="M64 118 L77 118 L77 135 L64 135 L64 118 Z"/>
            </clipPath>
            <clipPath clipPathUnits="userSpaceOnUse" id="clipPath8">
                <path d="M77 118 L147 118 L147 135 L77 135 L77 118 Z"/>
            </clipPath>
            <clipPath clipPathUnits="userSpaceOnUse" id="clipPath9">
                <path d="M147 118 L283 118 L283 135 L147 135 L147 118 Z"/>
            </clipPath>
            <clipPath clipPathUnits="userSpaceOnUse" id="clipPath10">
                <path d="M64 135 L77 135 L77 152 L64 152 L64 135 Z"/>
            </clipPath>
            <clipPath clipPathUnits="userSpaceOnUse" id="clipPath11">
                <path d="M77 135 L155 135 L155 152 L77 152 L77 135 Z"/>
            </clipPath>
            <clipPath clipPathUnits="userSpaceOnUse" id="clipPath12">
                <path d="M155 135 L286 135 L286 152 L155 152 L155 135 Z"/>
            </clipPath>
            <clipPath clipPathUnits="userSpaceOnUse" id="clipPath13">
                <path d="M64 152 L77 152 L77 169 L64 169 L64 152 Z"/>
            </clipPath>
            <clipPath clipPathUnits="userSpaceOnUse" id="clipPath14">
                <path d="M77 152 L138 152 L138 169 L77 169 L77 152 Z"/>
            </clipPath>
            <clipPath clipPathUnits="userSpaceOnUse" id="clipPath15">
                <path d="M138 152 L256 152 L256 169 L138 169 L138 152 Z"/>
            </clipPath>
            <clipPath clipPathUnits="userSpaceOnUse" id="clipPath16">
                <path d="M64 169 L77 169 L77 186 L64 186 L64 169 Z"/>
            </clipPath>
            <clipPath clipPathUnits="userSpaceOnUse" id="clipPath17">
                <path d="M77 169 L145 169 L145 186 L77 186 L77 169 Z"/>
            </clipPath>
            <clipPath clipPathUnits="userSpaceOnUse" id="clipPath18">
                <path d="M145 169 L268 169 L268 186 L145 186 L145 169 Z"/>
            </clipPath>
            <clipPath clipPathUnits="userSpaceOnUse" id="clipPath19">
                <path d="M64 186 L77 186 L77 203 L64 203 L64 186 Z"/>
            </clipPath>
            <clipPath clipPathUnits="userSpaceOnUse" id="clipPath20">
                <path d="M77 186 L116 186 L116 203 L77 203 L77 186 Z"/>
            </clipPath>
            <clipPath clipPathUnits="userSpaceOnUse" id="clipPath21">
                <path d="M116 186 L212 186 L212 203 L116 203 L116 186 Z"/>
            </clipPath>
            <clipPath clipPathUnits="userSpaceOnUse" id="clipPath22">
                <path d="M64 203 L77 203 L77 220 L64 220 L64 203 Z"/>
            </clipPath>
            <clipPath clipPathUnits="userSpaceOnUse" id="clipPath23">
                <path d="M77 203 L136 203 L136 220 L77 220 L77 203 Z"/>
            </clipPath>
            <clipPath clipPathUnits="userSpaceOnUse" id="clipPath24">
                <path d="M136 203 L259 203 L259 220 L136 220 L136 203 Z"/>
            </clipPath>
            <clipPath clipPathUnits="userSpaceOnUse" id="clipPath25">
                <path d="M64 220 L77 220 L77 237 L64 237 L64 220 Z"/>
            </clipPath>
            <clipPath clipPathUnits="userSpaceOnUse" id="clipPath26">
                <path d="M77 220 L131 220 L131 237 L77 237 L77 220 Z"/>
            </clipPath>
            <clipPath clipPathUnits="userSpaceOnUse" id="clipPath27">
                <path d="M131 220 L417 220 L417 237 L131 237 L131 220 Z"/>
            </clipPath>
            <clipPath clipPathUnits="userSpaceOnUse" id="clipPath28">
                <path d="M64 237 L77 237 L77 254 L64 254 L64 237 Z"/>
            </clipPath>
            <clipPath clipPathUnits="userSpaceOnUse" id="clipPath29">
                <path d="M77 237 L141 237 L141 254 L77 254 L77 237 Z"/>
            </clipPath>
            <clipPath clipPathUnits="userSpaceOnUse" id="clipPath30">
                <path d="M141 237 L429 237 L429 254 L141 254 L141 237 Z"/>
            </clipPath>
            <clipPath clipPathUnits="userSpaceOnUse" id="clipPath31">
                <path d="M64 254 L77 254 L77 271 L64 271 L64 254 Z"/>
            </clipPath>
            <clipPath clipPathUnits="userSpaceOnUse" id="clipPath32">
                <path d="M77 254 L183 254 L183 271 L77 271 L77 254 Z"/>
            </clipPath>
            <clipPath clipPathUnits="userSpaceOnUse" id="clipPath33">
                <path d="M183 254 L303 254 L303 271 L183 271 L183 254 Z"/>
            </clipPath>
            <clipPath clipPathUnits="userSpaceOnUse" id="clipPath34">
                <path d="M64 271 L77 271 L77 288 L64 288 L64 271 Z"/>
            </clipPath>
            <clipPath clipPathUnits="userSpaceOnUse" id="clipPath35">
                <path d="M77 271 L174 271 L174 288 L77 288 L77 271 Z"/>
            </clipPath>
            <clipPath clipPathUnits="userSpaceOnUse" id="clipPath36">
                <path d="M174 271 L294 271 L294 288 L174 288 L174 271 Z"/>
            </clipPath>
            <clipPath clipPathUnits="userSpaceOnUse" id="clipPath37">
                <path d="M63 115 L441 115 L441 289 L63 289 L63 115 Z"/>
            </clipPath>
            <clipPath clipPathUnits="userSpaceOnUse" id="clipPath38">
                <path d="M544 83 L900 83 L900 310 L544 310 L544 83 Z"/>
            </clipPath>
            <clipPath clipPathUnits="userSpaceOnUse" id="clipPath39">
                <path d="M658 85 L786 85 L786 102 L658 102 L658 85 Z"/>
            </clipPath>
            <clipPath clipPathUnits="userSpaceOnUse" id="clipPath40">
                <path d="M668 102 L775 102 L775 119 L668 119 L668 102 Z"/>
            </clipPath>
            <clipPath clipPathUnits="userSpaceOnUse" id="clipPath41">
                <path d="M656 120 L787 120 L787 137 L656 137 L656 120 Z"/>
            </clipPath>
            <clipPath clipPathUnits="userSpaceOnUse" id="clipPath42">
                <path d="M669 137 L774 137 L774 154 L669 154 L669 137 Z"/>
            </clipPath>
            <clipPath clipPathUnits="userSpaceOnUse" id="clipPath43">
                <path d="M675 154 L767 154 L767 171 L675 171 L675 154 Z"/>
            </clipPath>
            <clipPath clipPathUnits="userSpaceOnUse" id="clipPath44">
                <path d="M644 171 L798 171 L798 188 L644 188 L644 171 Z"/>
            </clipPath>
            <clipPath clipPathUnits="userSpaceOnUse" id="clipPath45">
                <path d="M648 188 L794 188 L794 205 L648 205 L648 188 Z"/>
            </clipPath>
            <clipPath clipPathUnits="userSpaceOnUse" id="clipPath46">
                <path d="M643 205 L800 205 L800 222 L643 222 L643 205 Z"/>
            </clipPath>
            <clipPath clipPathUnits="userSpaceOnUse" id="clipPath47">
                <path d="M714 222 L728 222 L728 239 L714 239 L714 222 Z"/>
            </clipPath>
            <clipPath clipPathUnits="userSpaceOnUse" id="clipPath48">
                <path d="M639 239 L804 239 L804 256 L639 256 L639 239 Z"/>
            </clipPath>
            <clipPath clipPathUnits="userSpaceOnUse" id="clipPath49">
                <path d="M607 256 L836 256 L836 273 L607 273 L607 256 Z"/>
            </clipPath>
            <clipPath clipPathUnits="userSpaceOnUse" id="clipPath50">
                <path d="M622 273 L820 273 L820 290 L622 290 L622 273 Z"/>
            </clipPath>
            <clipPath clipPathUnits="userSpaceOnUse" id="clipPath51">
                <path d="M627 290 L816 290 L816 307 L627 307 L627 290 Z"/>
            </clipPath>
            <clipPath clipPathUnits="userSpaceOnUse" id="clipPath52">
                <path d="M546 117 L898 117 L898 308 L546 308 L546 117 Z"/>
            </clipPath>
            <clipPath clipPathUnits="userSpaceOnUse" id="clipPath53">
                <path d="M153 411 L356 411 L356 525 L153 525 L153 411 Z"/>
            </clipPath>
            <clipPath clipPathUnits="userSpaceOnUse" id="clipPath54">
                <path d="M210 413 L298 413 L298 428 L210 428 L210 413 Z"/>
            </clipPath>
            <clipPath clipPathUnits="userSpaceOnUse" id="clipPath55">
                <path d="M215 428 L294 428 L294 443 L215 443 L215 428 Z"/>
            </clipPath>
            <clipPath clipPathUnits="userSpaceOnUse" id="clipPath56">
                <path d="M155 441 L354 441 L354 453 L155 453 L155 441 Z"/>
            </clipPath>
            <clipPath clipPathUnits="userSpaceOnUse" id="clipPath57">
                <path d="M156 454 L169 454 L169 471 L156 471 L156 454 Z"/>
            </clipPath>
            <clipPath clipPathUnits="userSpaceOnUse" id="clipPath58">
                <path d="M169 454 L220 454 L220 471 L169 471 L169 454 Z"/>
            </clipPath>
            <clipPath clipPathUnits="userSpaceOnUse" id="clipPath59">
                <path d="M220 454 L342 454 L342 471 L220 471 L220 454 Z"/>
            </clipPath>
            <clipPath clipPathUnits="userSpaceOnUse" id="clipPath60">
                <path d="M156 471 L169 471 L169 488 L156 488 L156 471 Z"/>
            </clipPath>
            <clipPath clipPathUnits="userSpaceOnUse" id="clipPath61">
                <path d="M169 471 L231 471 L231 488 L169 488 L169 471 Z"/>
            </clipPath>
            <clipPath clipPathUnits="userSpaceOnUse" id="clipPath62">
                <path d="M231 471 L293 471 L293 488 L231 488 L231 471 Z"/>
            </clipPath>
            <clipPath clipPathUnits="userSpaceOnUse" id="clipPath63">
                <path d="M156 488 L169 488 L169 505 L156 505 L156 488 Z"/>
            </clipPath>
            <clipPath clipPathUnits="userSpaceOnUse" id="clipPath64">
                <path d="M169 488 L223 488 L223 505 L169 505 L169 488 Z"/>
            </clipPath>
            <clipPath clipPathUnits="userSpaceOnUse" id="clipPath65">
                <path d="M223 488 L334 488 L334 505 L223 505 L223 488 Z"/>
            </clipPath>
            <clipPath clipPathUnits="userSpaceOnUse" id="clipPath66">
                <path d="M156 505 L169 505 L169 522 L156 522 L156 505 Z"/>
            </clipPath>
            <clipPath clipPathUnits="userSpaceOnUse" id="clipPath67">
                <path d="M169 505 L227 505 L227 522 L169 522 L169 505 Z"/>
            </clipPath>
            <clipPath clipPathUnits="userSpaceOnUse" id="clipPath68">
                <path d="M227 505 L327 505 L327 522 L227 522 L227 505 Z"/>
            </clipPath>
            <clipPath clipPathUnits="userSpaceOnUse" id="clipPath69">
                <path d="M155 451 L354 451 L354 523 L155 523 L155 451 Z"/>
            </clipPath>
            <clipPath clipPathUnits="userSpaceOnUse" id="clipPath70">
                <path d="M595 439 L894 439 L894 536 L595 536 L595 439 Z"/>
            </clipPath>
            <clipPath clipPathUnits="userSpaceOnUse" id="clipPath71">
                <path d="M700 441 L788 441 L788 456 L700 456 L700 441 Z"/>
            </clipPath>
            <clipPath clipPathUnits="userSpaceOnUse" id="clipPath72">
                <path d="M719 456 L770 456 L770 471 L719 471 L719 456 Z"/>
            </clipPath>
            <clipPath clipPathUnits="userSpaceOnUse" id="clipPath73">
                <path d="M597 469 L892 469 L892 481 L597 481 L597 469 Z"/>
            </clipPath>
            <clipPath clipPathUnits="userSpaceOnUse" id="clipPath74">
                <path d="M598 482 L611 482 L611 499 L598 499 L598 482 Z"/>
            </clipPath>
            <clipPath clipPathUnits="userSpaceOnUse" id="clipPath75">
                <path d="M611 482 L710 482 L710 499 L611 499 L611 482 Z"/>
            </clipPath>
            <clipPath clipPathUnits="userSpaceOnUse" id="clipPath76">
                <path d="M710 482 L886 482 L886 499 L710 499 L710 482 Z"/>
            </clipPath>
            <clipPath clipPathUnits="userSpaceOnUse" id="clipPath77">
                <path d="M598 499 L611 499 L611 516 L598 516 L598 499 Z"/>
            </clipPath>
            <clipPath clipPathUnits="userSpaceOnUse" id="clipPath78">
                <path d="M611 499 L704 499 L704 516 L611 516 L611 499 Z"/>
            </clipPath>
            <clipPath clipPathUnits="userSpaceOnUse" id="clipPath79">
                <path d="M704 499 L880 499 L880 516 L704 516 L704 499 Z"/>
            </clipPath>
            <clipPath clipPathUnits="userSpaceOnUse" id="clipPath80">
                <path d="M598 516 L611 516 L611 533 L598 533 L598 516 Z"/>
            </clipPath>
            <clipPath clipPathUnits="userSpaceOnUse" id="clipPath81">
                <path d="M611 516 L708 516 L708 533 L611 533 L611 516 Z"/>
            </clipPath>
            <clipPath clipPathUnits="userSpaceOnUse" id="clipPath82">
                <path d="M708 516 L720 516 L720 533 L708 533 L708 516 Z"/>
            </clipPath>
            <clipPath clipPathUnits="userSpaceOnUse" id="clipPath83">
                <path d="M597 479 L892 479 L892 534 L597 534 L597 479 Z"/>
            </clipPath>
            <clipPath clipPathUnits="userSpaceOnUse" id="clipPath84">
                <path d="M684 559 L808 559 L808 600 L684 600 L684 559 Z"/>
            </clipPath>
            <clipPath clipPathUnits="userSpaceOnUse" id="clipPath85">
                <path d="M691 561 L801 561 L801 578 L691 578 L691 561 Z"/>
            </clipPath>
            <clipPath clipPathUnits="userSpaceOnUse" id="clipPath86">
                <path d="M686 576 L806 576 L806 588 L686 588 L686 576 Z"/>
            </clipPath>
            <clipPath clipPathUnits="userSpaceOnUse" id="clipPath87">
                <path d="M686 586 L806 586 L806 598 L686 598 L686 586 Z"/>
            </clipPath>
            <clipPath clipPathUnits="userSpaceOnUse" id="clipPath88">
                <path d="M432 65 L474 65 L474 97 L432 97 L432 65 Z"/>
            </clipPath>
            <clipPath clipPathUnits="userSpaceOnUse" id="clipPath89">
                <path d="M436 72 L460 72 L460 89 L436 89 L436 72 Z"/>
            </clipPath>
            <clipPath clipPathUnits="userSpaceOnUse" id="clipPath90">
                <path d="M329 153 L658 153 L658 231 L329 231 L329 153 Z"/>
            </clipPath>
            <clipPath clipPathUnits="userSpaceOnUse" id="clipPath91">
                <path d="M534 186 L547 186 L547 199 L534 199 L534 186 Z"/>
            </clipPath>
            <clipPath clipPathUnits="userSpaceOnUse" id="clipPath92">
                <path d="M341 438 L611 438 L611 530 L341 530 L341 438 Z"/>
            </clipPath>
            <clipPath clipPathUnits="userSpaceOnUse" id="clipPath93">
                <path d="M517 486 L587 486 L587 503 L517 503 L517 486 Z"/>
            </clipPath>
            <clipPath clipPathUnits="userSpaceOnUse" id="clipPath94">
                <path d="M578 451 L587 451 L587 468 L578 468 L578 451 Z"/>
            </clipPath>
            <clipPath clipPathUnits="userSpaceOnUse" id="clipPath95">
                <path d="M354 471 L377 471 L377 484 L354 484 L354 471 Z"/>
            </clipPath>
            <clipPath clipPathUnits="userSpaceOnUse" id="clipPath96">
                <path d="M725 521 L766 521 L766 575 L725 575 L725 521 Z"/>
            </clipPath>
            <clipPath clipPathUnits="userSpaceOnUse" id="clipPath97">
                <path d="M738 534 L753 534 L753 551 L738 551 L738 534 Z"/>
            </clipPath>
        </defs>
        <g font-size="11" fill="white" stroke-linejoin="round"
            stroke="white" stroke-width="0" stroke-miterlimit="0">
            <rect x="0" y="0" clip-path="url(#clipPath1)" width="1148"
                height="1640" stroke="none"/>
        </g>
        <g stroke-width="0.1" font-size="11" stroke-linecap="butt">
            <line clip-path="url(#clipPath1)" fill="none" x1="1" x2="97"
                y1="29" y2="29"/>
            <line clip-path="url(#clipPath1)" fill="none" x1="97"
                x2="104" y1="29" y2="15"/>
            <line clip-path="url(#clipPath1)" fill="none" x1="104"
                x2="104" y1="15" y2="1"/>
            <text x="6" y="18" clip-path="url(#clipPath2)" stroke="none"
                font-weight="bold" xml:space="preserve">package </text>
            <text font-size="13" x="66" y="19"
                clip-path="url(#clipPath3)" stroke="none" xml:space="preserve">utils</text>
            <rect x="62" y="89" clip-path="url(#clipPath4)"
                fill="rgb(237,247,200)" width="380" height="201" stroke="none"/>
        </g>
        <g font-size="13" stroke-linecap="butt" fill="rgb(106,88,75)"
            stroke="rgb(106,88,75)" stroke-width="0.1">
            <text xml:space="preserve" x="181" y="104" font-weight="bold"
                clip-path="url(#clipPath5)" stroke="none">KeyValueFileParser</text>
            <line clip-path="url(#clipPath6)" fill="none" x1="64"
                x2="440" y1="106" y2="106"/>
            <text x="65" y="132" clip-path="url(#clipPath7)"
                fill="black" stroke="none" font-weight="normal" xml:space="preserve">+</text>
            <text x="78" y="132" clip-path="url(#clipPath8)"
                fill="black" stroke="none" font-weight="normal" xml:space="preserve">parseInput</text>
            <text x="148" y="132" clip-path="url(#clipPath9)"
                fill="black" stroke="none" font-weight="normal" xml:space="preserve">(input : InputStream)</text>
            <text x="65" y="149" clip-path="url(#clipPath10)"
                fill="black" stroke="none" font-weight="normal" xml:space="preserve">+</text>
            <text x="78" y="149" clip-path="url(#clipPath11)"
                fill="black" stroke="none" font-weight="normal" xml:space="preserve">containsKey</text>
            <text x="156" y="149" clip-path="url(#clipPath12)"
                fill="black" stroke="none" font-weight="normal" xml:space="preserve">(key : Key) : boolean</text>
            <text x="65" y="166" clip-path="url(#clipPath13)"
                fill="black" stroke="none" font-weight="normal" xml:space="preserve">+</text>
            <text x="78" y="166" clip-path="url(#clipPath14)"
                fill="black" stroke="none" font-weight="normal" xml:space="preserve">getString</text>
            <text x="139" y="166" clip-path="url(#clipPath15)"
                fill="black" stroke="none" font-weight="normal" xml:space="preserve">(key : Key) : String</text>
            <text x="65" y="183" clip-path="url(#clipPath16)"
                fill="black" stroke="none" font-weight="normal" xml:space="preserve">+</text>
            <text x="78" y="183" clip-path="url(#clipPath17)"
                fill="black" stroke="none" font-weight="normal" xml:space="preserve">getDouble</text>
            <text x="146" y="183" clip-path="url(#clipPath18)"
                fill="black" stroke="none" font-weight="normal" xml:space="preserve">(key : Key) : double</text>
            <text x="65" y="200" clip-path="url(#clipPath19)"
                fill="black" stroke="none" font-weight="normal" xml:space="preserve">+</text>
            <text x="78" y="200" clip-path="url(#clipPath20)"
                fill="black" stroke="none" font-weight="normal" xml:space="preserve">getInt</text>
            <text x="117" y="200" clip-path="url(#clipPath21)"
                fill="black" stroke="none" font-weight="normal" xml:space="preserve">(key : Key) : int</text>
            <text x="65" y="217" clip-path="url(#clipPath22)"
                fill="black" stroke="none" font-weight="normal" xml:space="preserve">+</text>
            <text x="78" y="217" clip-path="url(#clipPath23)"
                fill="black" stroke="none" font-weight="normal" xml:space="preserve">getAngle</text>
            <text x="137" y="217" clip-path="url(#clipPath24)"
                fill="black" stroke="none" font-weight="normal" xml:space="preserve">(key : Key) : double</text>
            <text x="65" y="234" clip-path="url(#clipPath25)"
                fill="black" stroke="none" font-weight="normal" xml:space="preserve">+</text>
            <text x="78" y="234" clip-path="url(#clipPath26)"
                fill="black" stroke="none" font-weight="normal" xml:space="preserve">getDate</text>
            <text x="132" y="234" clip-path="url(#clipPath27)"
                fill="black" stroke="none" font-weight="normal" xml:space="preserve">(key : Key, scale : TimeScale) : AbsoluteDate</text>
            <text x="65" y="251" clip-path="url(#clipPath28)"
                fill="black" stroke="none" font-weight="normal" xml:space="preserve">+</text>
            <text x="78" y="251" clip-path="url(#clipPath29)"
                fill="black" stroke="none" font-weight="normal" xml:space="preserve">getVector</text>
            <text x="142" y="251" clip-path="url(#clipPath30)"
                fill="black" stroke="none" font-weight="normal" xml:space="preserve">(xKey : Key, yKey : Key, zKey : Key) : Vector3D</text>
            <text x="65" y="268" clip-path="url(#clipPath31)"
                fill="black" stroke="none" font-weight="normal" xml:space="preserve">+</text>
            <text x="78" y="268" clip-path="url(#clipPath32)"
                fill="black" stroke="none" font-weight="normal" xml:space="preserve">getInertialFrame</text>
            <text x="184" y="268" clip-path="url(#clipPath33)"
                fill="black" stroke="none" font-weight="normal" xml:space="preserve">(key : Key) : Frame</text>
            <text x="65" y="285" clip-path="url(#clipPath34)"
                fill="black" stroke="none" font-weight="normal" xml:space="preserve">+</text>
            <text x="78" y="285" clip-path="url(#clipPath35)"
                fill="black" stroke="none" font-weight="normal" xml:space="preserve">getEarthFrame</text>
            <text x="175" y="285" clip-path="url(#clipPath36)"
                fill="black" stroke="none" font-weight="normal" xml:space="preserve">(key : Key) : Frame</text>
            <line clip-path="url(#clipPath37)" fill="none" x1="64"
                x2="440" y1="116" y2="116"/>
            <rect x="62" y="89" clip-path="url(#clipPath4)" fill="none"
                width="379" height="200" stroke-width="1.1"/>
        </g>
        <g fill="rgb(238,233,247)" stroke-width="1.1" font-size="11"
            stroke-linecap="butt" stroke="rgb(238,233,247)">
            <rect x="545" y="84" clip-path="url(#clipPath38)"
                width="354" height="225" stroke="none"/>
            <text font-size="13" x="659" y="99"
                clip-path="url(#clipPath39)" fill="rgb(70,13,110)"
                stroke="none" xml:space="preserve">&lt;&lt;enumeration&gt;&gt;</text>
        </g>
        <g font-size="13" stroke-linecap="butt" fill="rgb(70,13,110)"
            stroke="rgb(70,13,110)" stroke-width="1.1">
            <text xml:space="preserve" x="669" y="116" font-weight="bold"
                clip-path="url(#clipPath40)" stroke="none">ParameterKey</text>
            <text x="657" y="134" clip-path="url(#clipPath41)"
                fill="black" stroke="none" font-weight="normal" xml:space="preserve">OUTPUT_FILE_NAME</text>
            <text x="670" y="151" clip-path="url(#clipPath42)"
                fill="black" stroke="none" font-weight="normal" xml:space="preserve">INERTIAL_FRAME</text>
            <text x="676" y="168" clip-path="url(#clipPath43)"
                fill="black" stroke="none" font-weight="normal" xml:space="preserve">EARTH_FRAME</text>
            <text x="645" y="185" clip-path="url(#clipPath44)"
                fill="black" stroke="none" font-weight="normal" xml:space="preserve">GRAVITY_FIELD_DEGREE</text>
            <text x="649" y="202" clip-path="url(#clipPath45)"
                fill="black" stroke="none" font-weight="normal" xml:space="preserve">GRAVITY_FIELD_ORDER</text>
            <text x="644" y="219" clip-path="url(#clipPath46)"
                fill="black" stroke="none" font-weight="normal" xml:space="preserve">ORBIT_CARTESIAN_DATE</text>
            <text x="715" y="236" clip-path="url(#clipPath47)"
                fill="black" stroke="none" font-weight="normal" xml:space="preserve">...</text>
            <text x="640" y="253" clip-path="url(#clipPath48)"
                fill="black" stroke="none" font-weight="normal" xml:space="preserve">SIMULATION_START_DATE</text>
            <text x="608" y="270" clip-path="url(#clipPath49)"
                fill="black" stroke="none" font-weight="normal" xml:space="preserve">SIMULATION_POSITION_TOLERANCE</text>
            <text x="623" y="287" clip-path="url(#clipPath50)"
                fill="black" stroke="none" font-weight="normal" xml:space="preserve">SIMULATION_CYCLE_DURATION</text>
            <text x="628" y="304" clip-path="url(#clipPath51)"
                fill="black" stroke="none" font-weight="normal" xml:space="preserve">SIMULATION_CYCLE_NUMBER</text>
            <line clip-path="url(#clipPath52)" fill="none" x1="547"
                x2="897" y1="118" y2="118" stroke-width="0.1"/>
            <rect x="545" y="84" clip-path="url(#clipPath38)"
                fill="none" width="353" height="224"/>
        </g>
        <g fill="rgb(244,242,212)" stroke-width="1.1" font-size="11"
            stroke-linecap="butt" stroke="rgb(244,242,212)">
            <rect x="154" y="412" clip-path="url(#clipPath53)"
                width="201" height="112" stroke="none"/>
            <text x="211" y="425" clip-path="url(#clipPath54)"
                fill="rgb(110,44,18)" stroke="none" xml:space="preserve">&lt;&lt;interface&gt;&gt;</text>
            <text x="216" y="440" clip-path="url(#clipPath55)"
                fill="rgb(110,44,18)" stroke="none" font-weight="bold" xml:space="preserve">Monitorable</text>
            <line clip-path="url(#clipPath56)" fill="none" x1="156"
                x2="353" y1="442" y2="442" stroke="rgb(110,44,18)" stroke-width="0.1"/>
        </g>
        <g stroke-width="0.1" font-size="13" stroke-linecap="butt">
            <text xml:space="preserve" x="157" y="468"
                clip-path="url(#clipPath57)" stroke="none">+</text>
            <text xml:space="preserve" x="170" y="468"
                clip-path="url(#clipPath58)" stroke="none">register</text>
            <text xml:space="preserve" x="221" y="468"
                clip-path="url(#clipPath59)" stroke="none">(monitor : Monitor)</text>
            <text xml:space="preserve" x="157" y="485"
                clip-path="url(#clipPath60)" stroke="none">+</text>
            <text xml:space="preserve" x="170" y="485"
                clip-path="url(#clipPath61)" stroke="none">getName</text>
            <text xml:space="preserve" x="232" y="485"
                clip-path="url(#clipPath62)" stroke="none">() : String</text>
            <text xml:space="preserve" x="157" y="502"
                clip-path="url(#clipPath63)" stroke="none">+</text>
            <text xml:space="preserve" x="170" y="502"
                clip-path="url(#clipPath64)" stroke="none">getDate</text>
            <text xml:space="preserve" x="224" y="502"
                clip-path="url(#clipPath65)" stroke="none">() : AbsoluteDate</text>
            <text xml:space="preserve" x="157" y="519"
                clip-path="url(#clipPath66)" stroke="none">+</text>
            <text xml:space="preserve" x="170" y="519"
                clip-path="url(#clipPath67)" stroke="none">getValue</text>
            <text xml:space="preserve" x="228" y="519"
                clip-path="url(#clipPath68)" stroke="none">() : double[1..*]</text>
            <line clip-path="url(#clipPath69)" fill="none" x1="156"
                x2="353" y1="452" y2="452" stroke="rgb(110,44,18)"/>
        </g>
        <g fill="rgb(110,44,18)" stroke-width="1.1" font-size="11"
            stroke-linecap="butt" stroke="rgb(110,44,18)">
            <rect x="154" y="412" clip-path="url(#clipPath53)"
                fill="none" width="200" height="111"/>
            <rect x="596" y="440" clip-path="url(#clipPath70)"
                fill="rgb(244,242,212)" width="297" height="95" stroke="none"/>
            <text xml:space="preserve" x="701" y="453"
                clip-path="url(#clipPath71)" stroke="none">&lt;&lt;interface&gt;&gt;</text>
            <text x="720" y="468" clip-path="url(#clipPath72)"
                stroke="none" font-weight="bold" xml:space="preserve">Monitor</text>
            <line clip-path="url(#clipPath73)" fill="none" x1="598"
                x2="891" y1="470" y2="470" stroke-width="0.1"/>
        </g>
        <g stroke-width="0.1" font-size="13" stroke-linecap="butt">
            <text xml:space="preserve" x="599" y="496"
                clip-path="url(#clipPath74)" stroke="none">+</text>
            <text xml:space="preserve" x="612" y="496"
                clip-path="url(#clipPath75)" stroke="none">startMonitoring</text>
            <text xml:space="preserve" x="711" y="496"
                clip-path="url(#clipPath76)" stroke="none">(monitorable : Monitorable)</text>
            <text xml:space="preserve" x="599" y="513"
                clip-path="url(#clipPath77)" stroke="none">+</text>
            <text xml:space="preserve" x="612" y="513"
                clip-path="url(#clipPath78)" stroke="none">valueChanged</text>
            <text xml:space="preserve" x="705" y="513"
                clip-path="url(#clipPath79)" stroke="none">(monitorable : Monitorable)</text>
            <text xml:space="preserve" x="599" y="530"
                clip-path="url(#clipPath80)" stroke="none">+</text>
            <text xml:space="preserve" x="612" y="530"
                clip-path="url(#clipPath81)" stroke="none">stopMonitoring</text>
            <text xml:space="preserve" x="709" y="530"
                clip-path="url(#clipPath82)" stroke="none">()</text>
            <line clip-path="url(#clipPath83)" fill="none" x1="598"
                x2="891" y1="480" y2="480" stroke="rgb(110,44,18)"/>
        </g>
        <g fill="rgb(110,44,18)" stroke-width="1.1" font-size="11"
            stroke-linecap="butt" stroke="rgb(110,44,18)">
            <rect x="596" y="440" clip-path="url(#clipPath70)"
                fill="none" width="296" height="94"/>
            <rect x="685" y="560" clip-path="url(#clipPath84)"
                fill="rgb(237,247,200)" width="122" height="39" stroke="none"/>
        </g>
        <g font-size="13" stroke-linecap="butt" fill="rgb(106,88,75)"
            stroke="rgb(106,88,75)" font-weight="bold" stroke-width="1.1">
            <text xml:space="preserve" x="692" y="575"
                clip-path="url(#clipPath85)" stroke="none">CsvFileMonitor</text>
            <line clip-path="url(#clipPath86)" fill="none" x1="687"
                x2="805" y1="577" y2="577" stroke-width="0.1"/>
            <line clip-path="url(#clipPath87)" fill="none" x1="687"
                x2="805" y1="587" y2="587" stroke-width="0.1"/>
            <rect x="685" y="560" clip-path="url(#clipPath84)"
                fill="none" width="121" height="38"/>
        </g>
        <g fill="white" stroke-width="1.1" font-size="11"
            stroke-linecap="butt" stroke="white">
            <rect x="434" y="67" clip-path="url(#clipPath88)" width="38"
                height="28" stroke="none"/>
            <rect x="433" y="66" clip-path="url(#clipPath88)"
                fill="none" width="39" stroke-dasharray="6.6,3.3"
                height="29" stroke="black"/>
        </g>
        <g stroke-width="1.1" stroke-dasharray="6.6,3.3" font-size="13" stroke-linecap="butt">
            <text xml:space="preserve" x="437" y="86"
                clip-path="url(#clipPath89)" stroke="none">Key</text>
            <rect x="0" y="0" clip-path="url(#clipPath1)" fill="none"
                width="1147" stroke-dasharray="none" height="1639"/>
            <line clip-path="url(#clipPath90)" fill="none" x1="442"
                x2="545" y1="192" y2="192" stroke-dasharray="none" stroke="rgb(153,15,15)"/>
            <line clip-path="url(#clipPath91)" fill="none" x1="535"
                x2="545" y1="197" y2="192" stroke-dasharray="none" stroke="rgb(153,15,15)"/>
            <line clip-path="url(#clipPath91)" fill="none" x1="545"
                x2="535" y1="192" y2="187" stroke-dasharray="none" stroke="rgb(153,15,15)"/>
            <line clip-path="url(#clipPath92)" fill="none" x1="596"
                x2="355" y1="477" y2="477" stroke-dasharray="none" stroke="rgb(153,15,15)"/>
            <text x="518" y="500" clip-path="url(#clipPath93)"
                fill="rgb(153,15,15)" stroke-dasharray="none"
                stroke="none" xml:space="preserve">+monitors</text>
            <text x="579" y="465" clip-path="url(#clipPath94)"
                fill="rgb(153,15,15)" stroke-dasharray="none"
                stroke="none" xml:space="preserve">*</text>
            <polygon fill="white" stroke-dasharray="none"
                clip-path="url(#clipPath95)"
                points=" 355 477 365 472 375 477 365 482" stroke="none"/>
            <polygon fill="none" stroke-dasharray="none"
                clip-path="url(#clipPath95)"
                points=" 355 477 365 472 375 477 365 482" stroke="rgb(153,15,15)"/>
        </g>
        <g font-size="11" stroke-linecap="butt" fill="rgb(110,44,18)"
            stroke-dasharray="8,7" stroke="rgb(110,44,18)" stroke-width="1.1">
            <line clip-path="url(#clipPath96)" fill="none" x1="745"
                x2="745" y1="560" y2="535"/>
            <polygon fill="white" clip-path="url(#clipPath97)"
                points=" 745 535 751 549 739 549" stroke="none"/>
            <polygon fill="none" stroke-dasharray="none"
                clip-path="url(#clipPath97)" points=" 745 535 751 549 739 549"/>
        </g>
    </g>
</svg>
