<?xml version="1.0" encoding="UTF-8"?>
<svg stroke-dasharray="none" shape-rendering="auto"
    font-family="'Dialog'" width="910" text-rendering="auto"
    fill-opacity="1" color-interpolation="auto" color-rendering="auto"
    font-size="12" fill="black" stroke="black" image-rendering="auto"
    stroke-miterlimit="10" stroke-linecap="square"
    stroke-linejoin="miter" font-style="normal" height="975"
    stroke-width="1" stroke-dashoffset="0" font-weight="normal" stroke-opacity="1">
    <!--Generated by the Batik Graphics2D SVG Generator-->
    <defs id="genericDefs"/>
    <g>
        <defs id="defs1">
            <clipPath clipPathUnits="userSpaceOnUse" id="clipPath1">
                <path d="M-1 -1 L910 -1 L910 975 L-1 975 L-1 -1 Z"/>
            </clipPath>
            <clipPath clipPathUnits="userSpaceOnUse" id="clipPath2">
                <path d="M5 7 L65 7 L65 22 L5 22 L5 7 Z"/>
            </clipPath>
            <clipPath clipPathUnits="userSpaceOnUse" id="clipPath3">
                <path d="M65 5 L93 5 L93 24 L65 24 L65 5 Z"/>
            </clipPath>
            <clipPath clipPathUnits="userSpaceOnUse" id="clipPath4">
                <path d="M61 90 L443 90 L443 315 L61 315 L61 90 Z"/>
            </clipPath>
            <clipPath clipPathUnits="userSpaceOnUse" id="clipPath5">
                <path d="M180 92 L323 92 L323 111 L180 111 L180 92 Z"/>
            </clipPath>
            <clipPath clipPathUnits="userSpaceOnUse" id="clipPath6">
                <path d="M63 109 L441 109 L441 121 L63 121 L63 109 Z"/>
            </clipPath>
            <clipPath clipPathUnits="userSpaceOnUse" id="clipPath7">
                <path d="M64 122 L77 122 L77 141 L64 141 L64 122 Z"/>
            </clipPath>
            <clipPath clipPathUnits="userSpaceOnUse" id="clipPath8">
                <path d="M77 122 L147 122 L147 141 L77 141 L77 122 Z"/>
            </clipPath>
            <clipPath clipPathUnits="userSpaceOnUse" id="clipPath9">
                <path d="M147 122 L283 122 L283 141 L147 141 L147 122 Z"/>
            </clipPath>
            <clipPath clipPathUnits="userSpaceOnUse" id="clipPath10">
                <path d="M64 141 L77 141 L77 160 L64 160 L64 141 Z"/>
            </clipPath>
            <clipPath clipPathUnits="userSpaceOnUse" id="clipPath11">
                <path d="M77 141 L155 141 L155 160 L77 160 L77 141 Z"/>
            </clipPath>
            <clipPath clipPathUnits="userSpaceOnUse" id="clipPath12">
                <path d="M155 141 L286 141 L286 160 L155 160 L155 141 Z"/>
            </clipPath>
            <clipPath clipPathUnits="userSpaceOnUse" id="clipPath13">
                <path d="M64 160 L77 160 L77 179 L64 179 L64 160 Z"/>
            </clipPath>
            <clipPath clipPathUnits="userSpaceOnUse" id="clipPath14">
                <path d="M77 160 L138 160 L138 179 L77 179 L77 160 Z"/>
            </clipPath>
            <clipPath clipPathUnits="userSpaceOnUse" id="clipPath15">
                <path d="M138 160 L256 160 L256 179 L138 179 L138 160 Z"/>
            </clipPath>
            <clipPath clipPathUnits="userSpaceOnUse" id="clipPath16">
                <path d="M64 179 L77 179 L77 198 L64 198 L64 179 Z"/>
            </clipPath>
            <clipPath clipPathUnits="userSpaceOnUse" id="clipPath17">
                <path d="M77 179 L145 179 L145 198 L77 198 L77 179 Z"/>
            </clipPath>
            <clipPath clipPathUnits="userSpaceOnUse" id="clipPath18">
                <path d="M145 179 L268 179 L268 198 L145 198 L145 179 Z"/>
            </clipPath>
            <clipPath clipPathUnits="userSpaceOnUse" id="clipPath19">
                <path d="M64 198 L77 198 L77 217 L64 217 L64 198 Z"/>
            </clipPath>
            <clipPath clipPathUnits="userSpaceOnUse" id="clipPath20">
                <path d="M77 198 L116 198 L116 217 L77 217 L77 198 Z"/>
            </clipPath>
            <clipPath clipPathUnits="userSpaceOnUse" id="clipPath21">
                <path d="M116 198 L212 198 L212 217 L116 217 L116 198 Z"/>
            </clipPath>
            <clipPath clipPathUnits="userSpaceOnUse" id="clipPath22">
                <path d="M64 217 L77 217 L77 236 L64 236 L64 217 Z"/>
            </clipPath>
            <clipPath clipPathUnits="userSpaceOnUse" id="clipPath23">
                <path d="M77 217 L136 217 L136 236 L77 236 L77 217 Z"/>
            </clipPath>
            <clipPath clipPathUnits="userSpaceOnUse" id="clipPath24">
                <path d="M136 217 L259 217 L259 236 L136 236 L136 217 Z"/>
            </clipPath>
            <clipPath clipPathUnits="userSpaceOnUse" id="clipPath25">
                <path d="M64 236 L77 236 L77 255 L64 255 L64 236 Z"/>
            </clipPath>
            <clipPath clipPathUnits="userSpaceOnUse" id="clipPath26">
                <path d="M77 236 L131 236 L131 255 L77 255 L77 236 Z"/>
            </clipPath>
            <clipPath clipPathUnits="userSpaceOnUse" id="clipPath27">
                <path d="M131 236 L417 236 L417 255 L131 255 L131 236 Z"/>
            </clipPath>
            <clipPath clipPathUnits="userSpaceOnUse" id="clipPath28">
                <path d="M64 255 L77 255 L77 274 L64 274 L64 255 Z"/>
            </clipPath>
            <clipPath clipPathUnits="userSpaceOnUse" id="clipPath29">
                <path d="M77 255 L141 255 L141 274 L77 274 L77 255 Z"/>
            </clipPath>
            <clipPath clipPathUnits="userSpaceOnUse" id="clipPath30">
                <path d="M141 255 L429 255 L429 274 L141 274 L141 255 Z"/>
            </clipPath>
            <clipPath clipPathUnits="userSpaceOnUse" id="clipPath31">
                <path d="M64 274 L77 274 L77 293 L64 293 L64 274 Z"/>
            </clipPath>
            <clipPath clipPathUnits="userSpaceOnUse" id="clipPath32">
                <path d="M77 274 L183 274 L183 293 L77 293 L77 274 Z"/>
            </clipPath>
            <clipPath clipPathUnits="userSpaceOnUse" id="clipPath33">
                <path d="M183 274 L303 274 L303 293 L183 293 L183 274 Z"/>
            </clipPath>
            <clipPath clipPathUnits="userSpaceOnUse" id="clipPath34">
                <path d="M64 293 L77 293 L77 312 L64 312 L64 293 Z"/>
            </clipPath>
            <clipPath clipPathUnits="userSpaceOnUse" id="clipPath35">
                <path d="M77 293 L174 293 L174 312 L77 312 L77 293 Z"/>
            </clipPath>
            <clipPath clipPathUnits="userSpaceOnUse" id="clipPath36">
                <path d="M174 293 L294 293 L294 312 L174 312 L174 293 Z"/>
            </clipPath>
            <clipPath clipPathUnits="userSpaceOnUse" id="clipPath37">
                <path d="M63 119 L441 119 L441 313 L63 313 L63 119 Z"/>
            </clipPath>
            <clipPath clipPathUnits="userSpaceOnUse" id="clipPath38">
                <path d="M544 85 L900 85 L900 338 L544 338 L544 85 Z"/>
            </clipPath>
            <clipPath clipPathUnits="userSpaceOnUse" id="clipPath39">
                <path d="M658 87 L786 87 L786 106 L658 106 L658 87 Z"/>
            </clipPath>
            <clipPath clipPathUnits="userSpaceOnUse" id="clipPath40">
                <path d="M668 106 L775 106 L775 125 L668 125 L668 106 Z"/>
            </clipPath>
            <clipPath clipPathUnits="userSpaceOnUse" id="clipPath41">
                <path d="M656 126 L787 126 L787 145 L656 145 L656 126 Z"/>
            </clipPath>
            <clipPath clipPathUnits="userSpaceOnUse" id="clipPath42">
                <path d="M669 145 L774 145 L774 164 L669 164 L669 145 Z"/>
            </clipPath>
            <clipPath clipPathUnits="userSpaceOnUse" id="clipPath43">
                <path d="M675 164 L767 164 L767 183 L675 183 L675 164 Z"/>
            </clipPath>
            <clipPath clipPathUnits="userSpaceOnUse" id="clipPath44">
                <path d="M644 183 L798 183 L798 202 L644 202 L644 183 Z"/>
            </clipPath>
            <clipPath clipPathUnits="userSpaceOnUse" id="clipPath45">
                <path d="M648 202 L794 202 L794 221 L648 221 L648 202 Z"/>
            </clipPath>
            <clipPath clipPathUnits="userSpaceOnUse" id="clipPath46">
                <path d="M643 221 L800 221 L800 240 L643 240 L643 221 Z"/>
            </clipPath>
            <clipPath clipPathUnits="userSpaceOnUse" id="clipPath47">
                <path d="M714 240 L728 240 L728 259 L714 259 L714 240 Z"/>
            </clipPath>
            <clipPath clipPathUnits="userSpaceOnUse" id="clipPath48">
                <path d="M639 259 L804 259 L804 278 L639 278 L639 259 Z"/>
            </clipPath>
            <clipPath clipPathUnits="userSpaceOnUse" id="clipPath49">
                <path d="M607 278 L836 278 L836 297 L607 297 L607 278 Z"/>
            </clipPath>
            <clipPath clipPathUnits="userSpaceOnUse" id="clipPath50">
                <path d="M622 297 L820 297 L820 316 L622 316 L622 297 Z"/>
            </clipPath>
            <clipPath clipPathUnits="userSpaceOnUse" id="clipPath51">
                <path d="M627 316 L816 316 L816 335 L627 335 L627 316 Z"/>
            </clipPath>
            <clipPath clipPathUnits="userSpaceOnUse" id="clipPath52">
                <path d="M546 123 L898 123 L898 336 L546 336 L546 123 Z"/>
            </clipPath>
            <clipPath clipPathUnits="userSpaceOnUse" id="clipPath53">
                <path d="M104 361 L470 361 L470 483 L104 483 L104 361 Z"/>
            </clipPath>
            <clipPath clipPathUnits="userSpaceOnUse" id="clipPath54">
                <path d="M243 363 L331 363 L331 378 L243 378 L243 363 Z"/>
            </clipPath>
            <clipPath clipPathUnits="userSpaceOnUse" id="clipPath55">
                <path d="M230 378 L344 378 L344 393 L230 393 L230 378 Z"/>
            </clipPath>
            <clipPath clipPathUnits="userSpaceOnUse" id="clipPath56">
                <path d="M106 391 L468 391 L468 403 L106 403 L106 391 Z"/>
            </clipPath>
            <clipPath clipPathUnits="userSpaceOnUse" id="clipPath57">
                <path d="M107 404 L120 404 L120 423 L107 423 L107 404 Z"/>
            </clipPath>
            <clipPath clipPathUnits="userSpaceOnUse" id="clipPath58">
                <path d="M120 404 L171 404 L171 423 L120 423 L120 404 Z"/>
            </clipPath>
            <clipPath clipPathUnits="userSpaceOnUse" id="clipPath59">
                <path d="M171 404 L456 404 L456 423 L171 423 L171 404 Z"/>
            </clipPath>
            <clipPath clipPathUnits="userSpaceOnUse" id="clipPath60">
                <path d="M107 423 L120 423 L120 442 L107 442 L107 423 Z"/>
            </clipPath>
            <clipPath clipPathUnits="userSpaceOnUse" id="clipPath61">
                <path d="M120 423 L182 423 L182 442 L120 442 L120 423 Z"/>
            </clipPath>
            <clipPath clipPathUnits="userSpaceOnUse" id="clipPath62">
                <path d="M182 423 L244 423 L244 442 L182 442 L182 423 Z"/>
            </clipPath>
            <clipPath clipPathUnits="userSpaceOnUse" id="clipPath63">
                <path d="M107 442 L120 442 L120 461 L107 461 L107 442 Z"/>
            </clipPath>
            <clipPath clipPathUnits="userSpaceOnUse" id="clipPath64">
                <path d="M120 442 L174 442 L174 461 L120 461 L120 442 Z"/>
            </clipPath>
            <clipPath clipPathUnits="userSpaceOnUse" id="clipPath65">
                <path d="M174 442 L285 442 L285 461 L174 461 L174 442 Z"/>
            </clipPath>
            <clipPath clipPathUnits="userSpaceOnUse" id="clipPath66">
                <path d="M107 461 L120 461 L120 480 L107 480 L107 461 Z"/>
            </clipPath>
            <clipPath clipPathUnits="userSpaceOnUse" id="clipPath67">
                <path d="M120 461 L178 461 L178 480 L120 480 L120 461 Z"/>
            </clipPath>
            <clipPath clipPathUnits="userSpaceOnUse" id="clipPath68">
                <path d="M178 461 L407 461 L407 480 L178 480 L178 461 Z"/>
            </clipPath>
            <clipPath clipPathUnits="userSpaceOnUse" id="clipPath69">
                <path d="M106 401 L468 401 L468 481 L106 481 L106 401 Z"/>
            </clipPath>
            <clipPath clipPathUnits="userSpaceOnUse" id="clipPath70">
                <path d="M264 527 L604 527 L604 630 L264 630 L264 527 Z"/>
            </clipPath>
            <clipPath clipPathUnits="userSpaceOnUse" id="clipPath71">
                <path d="M390 529 L478 529 L478 544 L390 544 L390 529 Z"/>
            </clipPath>
            <clipPath clipPathUnits="userSpaceOnUse" id="clipPath72">
                <path d="M391 544 L477 544 L477 559 L391 559 L391 544 Z"/>
            </clipPath>
            <clipPath clipPathUnits="userSpaceOnUse" id="clipPath73">
                <path d="M266 557 L602 557 L602 569 L266 569 L266 557 Z"/>
            </clipPath>
            <clipPath clipPathUnits="userSpaceOnUse" id="clipPath74">
                <path d="M267 570 L280 570 L280 589 L267 589 L267 570 Z"/>
            </clipPath>
            <clipPath clipPathUnits="userSpaceOnUse" id="clipPath75">
                <path d="M280 570 L379 570 L379 589 L280 589 L280 570 Z"/>
            </clipPath>
            <clipPath clipPathUnits="userSpaceOnUse" id="clipPath76">
                <path d="M379 570 L590 570 L590 589 L379 589 L379 570 Z"/>
            </clipPath>
            <clipPath clipPathUnits="userSpaceOnUse" id="clipPath77">
                <path d="M267 589 L280 589 L280 608 L267 608 L267 589 Z"/>
            </clipPath>
            <clipPath clipPathUnits="userSpaceOnUse" id="clipPath78">
                <path d="M280 589 L373 589 L373 608 L280 608 L280 589 Z"/>
            </clipPath>
            <clipPath clipPathUnits="userSpaceOnUse" id="clipPath79">
                <path d="M373 589 L584 589 L584 608 L373 608 L373 589 Z"/>
            </clipPath>
            <clipPath clipPathUnits="userSpaceOnUse" id="clipPath80">
                <path d="M267 608 L280 608 L280 627 L267 627 L267 608 Z"/>
            </clipPath>
            <clipPath clipPathUnits="userSpaceOnUse" id="clipPath81">
                <path d="M280 608 L377 608 L377 627 L280 627 L280 608 Z"/>
            </clipPath>
            <clipPath clipPathUnits="userSpaceOnUse" id="clipPath82">
                <path d="M377 608 L389 608 L389 627 L377 627 L377 608 Z"/>
            </clipPath>
            <clipPath clipPathUnits="userSpaceOnUse" id="clipPath83">
                <path d="M266 567 L602 567 L602 628 L266 628 L266 567 Z"/>
            </clipPath>
            <clipPath clipPathUnits="userSpaceOnUse" id="clipPath84">
                <path d="M716 647 L840 647 L840 690 L716 690 L716 647 Z"/>
            </clipPath>
            <clipPath clipPathUnits="userSpaceOnUse" id="clipPath85">
                <path d="M723 649 L833 649 L833 668 L723 668 L723 649 Z"/>
            </clipPath>
            <clipPath clipPathUnits="userSpaceOnUse" id="clipPath86">
                <path d="M718 666 L838 666 L838 678 L718 678 L718 666 Z"/>
            </clipPath>
            <clipPath clipPathUnits="userSpaceOnUse" id="clipPath87">
                <path d="M718 676 L838 676 L838 688 L718 688 L718 676 Z"/>
            </clipPath>
            <clipPath clipPathUnits="userSpaceOnUse" id="clipPath88">
                <path d="M16 689 L486 689 L486 811 L16 811 L16 689 Z"/>
            </clipPath>
            <clipPath clipPathUnits="userSpaceOnUse" id="clipPath89">
                <path d="M207 691 L295 691 L295 706 L207 706 L207 691 Z"/>
            </clipPath>
            <clipPath clipPathUnits="userSpaceOnUse" id="clipPath90">
                <path d="M199 706 L303 706 L303 721 L199 721 L199 706 Z"/>
            </clipPath>
            <clipPath clipPathUnits="userSpaceOnUse" id="clipPath91">
                <path d="M18 719 L484 719 L484 731 L18 731 L18 719 Z"/>
            </clipPath>
            <clipPath clipPathUnits="userSpaceOnUse" id="clipPath92">
                <path d="M19 732 L32 732 L32 751 L19 751 L19 732 Z"/>
            </clipPath>
            <clipPath clipPathUnits="userSpaceOnUse" id="clipPath93">
                <path d="M32 732 L83 732 L83 751 L32 751 L32 732 Z"/>
            </clipPath>
            <clipPath clipPathUnits="userSpaceOnUse" id="clipPath94">
                <path d="M83 732 L359 732 L359 751 L83 751 L83 732 Z"/>
            </clipPath>
            <clipPath clipPathUnits="userSpaceOnUse" id="clipPath95">
                <path d="M19 751 L32 751 L32 770 L19 770 L19 751 Z"/>
            </clipPath>
            <clipPath clipPathUnits="userSpaceOnUse" id="clipPath96">
                <path d="M32 751 L94 751 L94 770 L32 770 L32 751 Z"/>
            </clipPath>
            <clipPath clipPathUnits="userSpaceOnUse" id="clipPath97">
                <path d="M94 751 L156 751 L156 770 L94 770 L94 751 Z"/>
            </clipPath>
            <clipPath clipPathUnits="userSpaceOnUse" id="clipPath98">
                <path d="M19 770 L32 770 L32 789 L19 789 L19 770 Z"/>
            </clipPath>
            <clipPath clipPathUnits="userSpaceOnUse" id="clipPath99">
                <path d="M32 770 L86 770 L86 789 L32 789 L32 770 Z"/>
            </clipPath>
            <clipPath clipPathUnits="userSpaceOnUse" id="clipPath100">
                <path d="M86 770 L197 770 L197 789 L86 789 L86 770 Z"/>
            </clipPath>
            <clipPath clipPathUnits="userSpaceOnUse" id="clipPath101">
                <path d="M19 789 L32 789 L32 808 L19 808 L19 789 Z"/>
            </clipPath>
            <clipPath clipPathUnits="userSpaceOnUse" id="clipPath102">
                <path d="M32 789 L90 789 L90 808 L32 808 L32 789 Z"/>
            </clipPath>
            <clipPath clipPathUnits="userSpaceOnUse" id="clipPath103">
                <path d="M90 789 L472 789 L472 808 L90 808 L90 789 Z"/>
            </clipPath>
            <clipPath clipPathUnits="userSpaceOnUse" id="clipPath104">
                <path d="M18 729 L484 729 L484 809 L18 809 L18 729 Z"/>
            </clipPath>
            <clipPath clipPathUnits="userSpaceOnUse" id="clipPath105">
                <path d="M275 857 L606 857 L606 960 L275 960 L275 857 Z"/>
            </clipPath>
            <clipPath clipPathUnits="userSpaceOnUse" id="clipPath106">
                <path d="M396 859 L484 859 L484 874 L396 874 L396 859 Z"/>
            </clipPath>
            <clipPath clipPathUnits="userSpaceOnUse" id="clipPath107">
                <path d="M402 874 L478 874 L478 889 L402 889 L402 874 Z"/>
            </clipPath>
            <clipPath clipPathUnits="userSpaceOnUse" id="clipPath108">
                <path d="M277 887 L604 887 L604 899 L277 899 L277 887 Z"/>
            </clipPath>
            <clipPath clipPathUnits="userSpaceOnUse" id="clipPath109">
                <path d="M278 900 L291 900 L291 919 L278 919 L278 900 Z"/>
            </clipPath>
            <clipPath clipPathUnits="userSpaceOnUse" id="clipPath110">
                <path d="M291 900 L390 900 L390 919 L291 919 L291 900 Z"/>
            </clipPath>
            <clipPath clipPathUnits="userSpaceOnUse" id="clipPath111">
                <path d="M390 900 L592 900 L592 919 L390 919 L390 900 Z"/>
            </clipPath>
            <clipPath clipPathUnits="userSpaceOnUse" id="clipPath112">
                <path d="M278 919 L291 919 L291 938 L278 938 L278 919 Z"/>
            </clipPath>
            <clipPath clipPathUnits="userSpaceOnUse" id="clipPath113">
                <path d="M291 919 L384 919 L384 938 L291 938 L291 919 Z"/>
            </clipPath>
            <clipPath clipPathUnits="userSpaceOnUse" id="clipPath114">
                <path d="M384 919 L586 919 L586 938 L384 938 L384 919 Z"/>
            </clipPath>
            <clipPath clipPathUnits="userSpaceOnUse" id="clipPath115">
                <path d="M278 938 L291 938 L291 957 L278 957 L278 938 Z"/>
            </clipPath>
            <clipPath clipPathUnits="userSpaceOnUse" id="clipPath116">
                <path d="M291 938 L388 938 L388 957 L291 957 L291 938 Z"/>
            </clipPath>
            <clipPath clipPathUnits="userSpaceOnUse" id="clipPath117">
                <path d="M388 938 L400 938 L400 957 L388 957 L388 938 Z"/>
            </clipPath>
            <clipPath clipPathUnits="userSpaceOnUse" id="clipPath118">
                <path d="M277 897 L604 897 L604 958 L277 958 L277 897 Z"/>
            </clipPath>
            <clipPath clipPathUnits="userSpaceOnUse" id="clipPath119">
                <path d="M432 69 L474 69 L474 101 L432 101 L432 69 Z"/>
            </clipPath>
            <clipPath clipPathUnits="userSpaceOnUse" id="clipPath120">
                <path d="M436 75 L460 75 L460 94 L436 94 L436 75 Z"/>
            </clipPath>
            <clipPath clipPathUnits="userSpaceOnUse" id="clipPath121">
                <path d="M329 165 L658 165 L658 247 L329 247 L329 165 Z"/>
            </clipPath>
            <clipPath clipPathUnits="userSpaceOnUse" id="clipPath122">
                <path d="M534 200 L547 200 L547 213 L534 213 L534 200 Z"/>
            </clipPath>
            <clipPath clipPathUnits="userSpaceOnUse" id="clipPath123">
                <path d="M419 396 L641 396 L641 548 L419 548 L419 396 Z"/>
            </clipPath>
            <clipPath clipPathUnits="userSpaceOnUse" id="clipPath124">
                <path d="M537 500 L607 500 L607 519 L537 519 L537 500 Z"/>
            </clipPath>
            <clipPath clipPathUnits="userSpaceOnUse" id="clipPath125">
                <path d="M510 500 L519 500 L519 519 L510 519 L510 500 Z"/>
            </clipPath>
            <clipPath clipPathUnits="userSpaceOnUse" id="clipPath126">
                <path d="M468 431 L491 431 L491 444 L468 444 L468 431 Z"/>
            </clipPath>
            <clipPath clipPathUnits="userSpaceOnUse" id="clipPath127">
                <path d="M589 531 L762 531 L762 663 L589 663 L589 531 Z"/>
            </clipPath>
            <clipPath clipPathUnits="userSpaceOnUse" id="clipPath128">
                <path d="M602 544 L619 544 L619 559 L602 559 L602 544 Z"/>
            </clipPath>
            <clipPath clipPathUnits="userSpaceOnUse" id="clipPath129">
                <path d="M404 699 L678 699 L678 878 L404 878 L404 699 Z"/>
            </clipPath>
            <clipPath clipPathUnits="userSpaceOnUse" id="clipPath130">
                <path d="M547 830 L617 830 L617 849 L547 849 L547 830 Z"/>
            </clipPath>
            <clipPath clipPathUnits="userSpaceOnUse" id="clipPath131">
                <path d="M520 830 L529 830 L529 849 L520 849 L520 830 Z"/>
            </clipPath>
            <clipPath clipPathUnits="userSpaceOnUse" id="clipPath132">
                <path d="M484 738 L507 738 L507 751 L484 751 L484 738 Z"/>
            </clipPath>
            <clipPath clipPathUnits="userSpaceOnUse" id="clipPath133">
                <path d="M591 675 L787 675 L787 894 L591 894 L591 675 Z"/>
            </clipPath>
            <clipPath clipPathUnits="userSpaceOnUse" id="clipPath134">
                <path d="M604 866 L621 866 L621 881 L604 881 L604 866 Z"/>
            </clipPath>
        </defs>
        <g font-size="11" fill="white" stroke-linejoin="round"
            stroke="white" stroke-width="0" stroke-miterlimit="0">
            <rect x="0" y="0" clip-path="url(#clipPath1)" width="909"
                height="974" stroke="none"/>
        </g>
        <g stroke-width="0.1" font-size="11" stroke-linecap="butt">
            <line clip-path="url(#clipPath1)" fill="none" x1="1" x2="97"
                y1="31" y2="31"/>
            <line clip-path="url(#clipPath1)" fill="none" x1="97"
                x2="104" y1="31" y2="17"/>
            <line clip-path="url(#clipPath1)" fill="none" x1="104"
                x2="104" y1="17" y2="1"/>
            <text x="6" y="19" clip-path="url(#clipPath2)" stroke="none"
                font-weight="bold" xml:space="preserve">package </text>
            <text font-size="13" x="66" y="19"
                clip-path="url(#clipPath3)" stroke="none" xml:space="preserve">utils</text>
            <rect x="62" y="91" clip-path="url(#clipPath4)"
                fill="rgb(237,247,200)" width="380" height="223" stroke="none"/>
        </g>
        <g font-size="13" stroke-linecap="butt" fill="rgb(106,88,75)"
            stroke="rgb(106,88,75)" stroke-width="0.1">
            <text xml:space="preserve" x="181" y="106"
                clip-path="url(#clipPath5)" font-weight="bold" stroke="none">KeyValueFileParser</text>
            <line clip-path="url(#clipPath6)" fill="none" x1="64"
                x2="440" y1="110" y2="110"/>
            <text x="65" y="136" clip-path="url(#clipPath7)"
                fill="black" stroke="none" font-weight="normal" xml:space="preserve">+</text>
            <text x="78" y="136" clip-path="url(#clipPath8)"
                fill="black" stroke="none" font-weight="normal" xml:space="preserve">parseInput</text>
            <text x="148" y="136" clip-path="url(#clipPath9)"
                fill="black" stroke="none" font-weight="normal" xml:space="preserve">(input : InputStream)</text>
            <text x="65" y="155" clip-path="url(#clipPath10)"
                fill="black" stroke="none" font-weight="normal" xml:space="preserve">+</text>
            <text x="78" y="155" clip-path="url(#clipPath11)"
                fill="black" stroke="none" font-weight="normal" xml:space="preserve">containsKey</text>
            <text x="156" y="155" clip-path="url(#clipPath12)"
                fill="black" stroke="none" font-weight="normal" xml:space="preserve">(key : Key) : boolean</text>
            <text x="65" y="174" clip-path="url(#clipPath13)"
                fill="black" stroke="none" font-weight="normal" xml:space="preserve">+</text>
            <text x="78" y="174" clip-path="url(#clipPath14)"
                fill="black" stroke="none" font-weight="normal" xml:space="preserve">getString</text>
            <text x="139" y="174" clip-path="url(#clipPath15)"
                fill="black" stroke="none" font-weight="normal" xml:space="preserve">(key : Key) : String</text>
            <text x="65" y="193" clip-path="url(#clipPath16)"
                fill="black" stroke="none" font-weight="normal" xml:space="preserve">+</text>
            <text x="78" y="193" clip-path="url(#clipPath17)"
                fill="black" stroke="none" font-weight="normal" xml:space="preserve">getDouble</text>
            <text x="146" y="193" clip-path="url(#clipPath18)"
                fill="black" stroke="none" font-weight="normal" xml:space="preserve">(key : Key) : double</text>
            <text x="65" y="212" clip-path="url(#clipPath19)"
                fill="black" stroke="none" font-weight="normal" xml:space="preserve">+</text>
            <text x="78" y="212" clip-path="url(#clipPath20)"
                fill="black" stroke="none" font-weight="normal" xml:space="preserve">getInt</text>
            <text x="117" y="212" clip-path="url(#clipPath21)"
                fill="black" stroke="none" font-weight="normal" xml:space="preserve">(key : Key) : int</text>
            <text x="65" y="231" clip-path="url(#clipPath22)"
                fill="black" stroke="none" font-weight="normal" xml:space="preserve">+</text>
            <text x="78" y="231" clip-path="url(#clipPath23)"
                fill="black" stroke="none" font-weight="normal" xml:space="preserve">getAngle</text>
            <text x="137" y="231" clip-path="url(#clipPath24)"
                fill="black" stroke="none" font-weight="normal" xml:space="preserve">(key : Key) : double</text>
            <text x="65" y="250" clip-path="url(#clipPath25)"
                fill="black" stroke="none" font-weight="normal" xml:space="preserve">+</text>
            <text x="78" y="250" clip-path="url(#clipPath26)"
                fill="black" stroke="none" font-weight="normal" xml:space="preserve">getDate</text>
            <text x="132" y="250" clip-path="url(#clipPath27)"
                fill="black" stroke="none" font-weight="normal" xml:space="preserve">(key : Key, scale : TimeScale) : AbsoluteDate</text>
            <text x="65" y="269" clip-path="url(#clipPath28)"
                fill="black" stroke="none" font-weight="normal" xml:space="preserve">+</text>
            <text x="78" y="269" clip-path="url(#clipPath29)"
                fill="black" stroke="none" font-weight="normal" xml:space="preserve">getVector</text>
            <text x="142" y="269" clip-path="url(#clipPath30)"
                fill="black" stroke="none" font-weight="normal" xml:space="preserve">(xKey : Key, yKey : Key, zKey : Key) : Vector3D</text>
            <text x="65" y="288" clip-path="url(#clipPath31)"
                fill="black" stroke="none" font-weight="normal" xml:space="preserve">+</text>
            <text x="78" y="288" clip-path="url(#clipPath32)"
                fill="black" stroke="none" font-weight="normal" xml:space="preserve">getInertialFrame</text>
            <text x="184" y="288" clip-path="url(#clipPath33)"
                fill="black" stroke="none" font-weight="normal" xml:space="preserve">(key : Key) : Frame</text>
            <text x="65" y="307" clip-path="url(#clipPath34)"
                fill="black" stroke="none" font-weight="normal" xml:space="preserve">+</text>
            <text x="78" y="307" clip-path="url(#clipPath35)"
                fill="black" stroke="none" font-weight="normal" xml:space="preserve">getEarthFrame</text>
            <text x="175" y="307" clip-path="url(#clipPath36)"
                fill="black" stroke="none" font-weight="normal" xml:space="preserve">(key : Key) : Frame</text>
            <line clip-path="url(#clipPath37)" fill="none" x1="64"
                x2="440" y1="120" y2="120"/>
            <rect x="62" y="91" clip-path="url(#clipPath4)" fill="none"
                width="379" height="222" stroke-width="1.1"/>
        </g>
        <g fill="rgb(238,233,247)" stroke-width="1.1" font-size="11"
            stroke-linecap="butt" stroke="rgb(238,233,247)">
            <rect x="545" y="86" clip-path="url(#clipPath38)"
                width="354" height="251" stroke="none"/>
            <text font-size="13" x="659" y="101"
                clip-path="url(#clipPath39)" fill="rgb(70,13,110)"
                stroke="none" xml:space="preserve">&lt;&lt;enumeration&gt;&gt;</text>
        </g>
        <g font-size="13" stroke-linecap="butt" fill="rgb(70,13,110)"
            stroke="rgb(70,13,110)" stroke-width="1.1">
            <text xml:space="preserve" x="669" y="120"
                clip-path="url(#clipPath40)" font-weight="bold" stroke="none">ParameterKey</text>
            <text x="657" y="140" clip-path="url(#clipPath41)"
                fill="black" stroke="none" font-weight="normal" xml:space="preserve">OUTPUT_FILE_NAME</text>
            <text x="670" y="159" clip-path="url(#clipPath42)"
                fill="black" stroke="none" font-weight="normal" xml:space="preserve">INERTIAL_FRAME</text>
            <text x="676" y="178" clip-path="url(#clipPath43)"
                fill="black" stroke="none" font-weight="normal" xml:space="preserve">EARTH_FRAME</text>
            <text x="645" y="197" clip-path="url(#clipPath44)"
                fill="black" stroke="none" font-weight="normal" xml:space="preserve">GRAVITY_FIELD_DEGREE</text>
            <text x="649" y="216" clip-path="url(#clipPath45)"
                fill="black" stroke="none" font-weight="normal" xml:space="preserve">GRAVITY_FIELD_ORDER</text>
            <text x="644" y="235" clip-path="url(#clipPath46)"
                fill="black" stroke="none" font-weight="normal" xml:space="preserve">ORBIT_CARTESIAN_DATE</text>
            <text x="715" y="254" clip-path="url(#clipPath47)"
                fill="black" stroke="none" font-weight="normal" xml:space="preserve">...</text>
            <text x="640" y="273" clip-path="url(#clipPath48)"
                fill="black" stroke="none" font-weight="normal" xml:space="preserve">SIMULATION_START_DATE</text>
            <text x="608" y="292" clip-path="url(#clipPath49)"
                fill="black" stroke="none" font-weight="normal" xml:space="preserve">SIMULATION_POSITION_TOLERANCE</text>
            <text x="623" y="311" clip-path="url(#clipPath50)"
                fill="black" stroke="none" font-weight="normal" xml:space="preserve">SIMULATION_CYCLE_DURATION</text>
            <text x="628" y="330" clip-path="url(#clipPath51)"
                fill="black" stroke="none" font-weight="normal" xml:space="preserve">SIMULATION_CYCLE_NUMBER</text>
            <line clip-path="url(#clipPath52)" fill="none" x1="547"
                x2="897" y1="124" y2="124" stroke-width="0.1"/>
            <rect x="545" y="86" clip-path="url(#clipPath38)"
                fill="none" width="353" height="250"/>
        </g>
        <g fill="rgb(244,232,212)" stroke-width="1.1" font-size="11"
            stroke-linecap="butt" stroke="rgb(244,232,212)">
            <rect x="105" y="362" clip-path="url(#clipPath53)"
                width="364" height="120" stroke="none"/>
            <text x="244" y="375" clip-path="url(#clipPath54)"
                fill="rgb(110,44,18)" stroke="none" xml:space="preserve">&lt;&lt;interface&gt;&gt;</text>
            <text x="231" y="390" clip-path="url(#clipPath55)"
                fill="rgb(110,44,18)" stroke="none" font-weight="bold" xml:space="preserve">MonitorableMono</text>
            <line clip-path="url(#clipPath56)" fill="none" x1="107"
                x2="467" y1="392" y2="392" stroke="rgb(110,44,18)" stroke-width="0.1"/>
        </g>
        <g stroke-width="0.1" font-size="13" stroke-linecap="butt">
            <text xml:space="preserve" x="108" y="418"
                clip-path="url(#clipPath57)" stroke="none">+</text>
            <text xml:space="preserve" x="121" y="418"
                clip-path="url(#clipPath58)" stroke="none">register</text>
            <text xml:space="preserve" x="172" y="418"
                clip-path="url(#clipPath59)" stroke="none">(nbSpacecrafts : int, monitor : MonitorMono)</text>
            <text xml:space="preserve" x="108" y="437"
                clip-path="url(#clipPath60)" stroke="none">+</text>
            <text xml:space="preserve" x="121" y="437"
                clip-path="url(#clipPath61)" stroke="none">getName</text>
            <text xml:space="preserve" x="183" y="437"
                clip-path="url(#clipPath62)" stroke="none">() : String</text>
            <text xml:space="preserve" x="108" y="456"
                clip-path="url(#clipPath63)" stroke="none">+</text>
            <text xml:space="preserve" x="121" y="456"
                clip-path="url(#clipPath64)" stroke="none">getDate</text>
            <text xml:space="preserve" x="175" y="456"
                clip-path="url(#clipPath65)" stroke="none">() : AbsoluteDate</text>
            <text xml:space="preserve" x="108" y="475"
                clip-path="url(#clipPath66)" stroke="none">+</text>
            <text xml:space="preserve" x="121" y="475"
                clip-path="url(#clipPath67)" stroke="none">getValue</text>
            <text xml:space="preserve" x="179" y="475"
                clip-path="url(#clipPath68)" stroke="none">(spacecraftIndex : int) : double[1..*]</text>
            <line clip-path="url(#clipPath69)" fill="none" x1="107"
                x2="467" y1="402" y2="402" stroke="rgb(110,44,18)"/>
        </g>
        <g fill="rgb(110,44,18)" stroke-width="1.1" font-size="11"
            stroke-linecap="butt" stroke="rgb(110,44,18)">
            <rect x="105" y="362" clip-path="url(#clipPath53)"
                fill="none" width="363" height="119"/>
            <rect x="265" y="528" clip-path="url(#clipPath70)"
                fill="rgb(244,232,212)" width="338" height="101" stroke="none"/>
            <text xml:space="preserve" x="391" y="541"
                clip-path="url(#clipPath71)" stroke="none">&lt;&lt;interface&gt;&gt;</text>
            <text x="392" y="556" clip-path="url(#clipPath72)"
                stroke="none" font-weight="bold" xml:space="preserve">MonitorMono</text>
            <line clip-path="url(#clipPath73)" fill="none" x1="267"
                x2="601" y1="558" y2="558" stroke-width="0.1"/>
        </g>
        <g stroke-width="0.1" font-size="13" stroke-linecap="butt">
            <text xml:space="preserve" x="268" y="584"
                clip-path="url(#clipPath74)" stroke="none">+</text>
            <text xml:space="preserve" x="281" y="584"
                clip-path="url(#clipPath75)" stroke="none">startMonitoring</text>
            <text xml:space="preserve" x="380" y="584"
                clip-path="url(#clipPath76)" stroke="none">(monitorable : MonitorableMono)</text>
            <text xml:space="preserve" x="268" y="603"
                clip-path="url(#clipPath77)" stroke="none">+</text>
            <text xml:space="preserve" x="281" y="603"
                clip-path="url(#clipPath78)" stroke="none">valueChanged</text>
            <text xml:space="preserve" x="374" y="603"
                clip-path="url(#clipPath79)" stroke="none">(monitorable : MonitorableMono)</text>
            <text xml:space="preserve" x="268" y="622"
                clip-path="url(#clipPath80)" stroke="none">+</text>
            <text xml:space="preserve" x="281" y="622"
                clip-path="url(#clipPath81)" stroke="none">stopMonitoring</text>
            <text xml:space="preserve" x="378" y="622"
                clip-path="url(#clipPath82)" stroke="none">()</text>
            <line clip-path="url(#clipPath83)" fill="none" x1="267"
                x2="601" y1="568" y2="568" stroke="rgb(110,44,18)"/>
        </g>
        <g fill="rgb(110,44,18)" stroke-width="1.1" font-size="11"
            stroke-linecap="butt" stroke="rgb(110,44,18)">
            <rect x="265" y="528" clip-path="url(#clipPath70)"
                fill="none" width="337" height="100"/>
            <rect x="717" y="648" clip-path="url(#clipPath84)"
                fill="rgb(237,247,200)" width="122" height="41" stroke="none"/>
        </g>
        <g font-size="13" stroke-linecap="butt" fill="rgb(106,88,75)"
            stroke="rgb(106,88,75)" font-weight="bold" stroke-width="1.1">
            <text xml:space="preserve" x="724" y="663"
                clip-path="url(#clipPath85)" stroke="none">CsvFileMonitor</text>
            <line clip-path="url(#clipPath86)" fill="none" x1="719"
                x2="837" y1="667" y2="667" stroke-width="0.1"/>
            <line clip-path="url(#clipPath87)" fill="none" x1="719"
                x2="837" y1="677" y2="677" stroke-width="0.1"/>
            <rect x="717" y="648" clip-path="url(#clipPath84)"
                fill="none" width="121" height="40"/>
        </g>
        <g fill="rgb(244,232,212)" stroke-width="1.1" font-size="11"
            stroke-linecap="butt" stroke="rgb(244,232,212)">
            <rect x="17" y="690" clip-path="url(#clipPath88)"
                width="468" height="120" stroke="none"/>
            <text x="208" y="703" clip-path="url(#clipPath89)"
                fill="rgb(110,44,18)" stroke="none" xml:space="preserve">&lt;&lt;interface&gt;&gt;</text>
            <text x="200" y="718" clip-path="url(#clipPath90)"
                fill="rgb(110,44,18)" stroke="none" font-weight="bold" xml:space="preserve">MonitorableDuo</text>
            <line clip-path="url(#clipPath91)" fill="none" x1="19"
                x2="483" y1="720" y2="720" stroke="rgb(110,44,18)" stroke-width="0.1"/>
        </g>
        <g stroke-width="0.1" font-size="13" stroke-linecap="butt">
            <text xml:space="preserve" x="20" y="746"
                clip-path="url(#clipPath92)" stroke="none">+</text>
            <text xml:space="preserve" x="33" y="746"
                clip-path="url(#clipPath93)" stroke="none">register</text>
            <text xml:space="preserve" x="84" y="746"
                clip-path="url(#clipPath94)" stroke="none">(nbSpacecrafts : int, monitor : MonitorDuo)</text>
            <text xml:space="preserve" x="20" y="765"
                clip-path="url(#clipPath95)" stroke="none">+</text>
            <text xml:space="preserve" x="33" y="765"
                clip-path="url(#clipPath96)" stroke="none">getName</text>
            <text xml:space="preserve" x="95" y="765"
                clip-path="url(#clipPath97)" stroke="none">() : String</text>
            <text xml:space="preserve" x="20" y="784"
                clip-path="url(#clipPath98)" stroke="none">+</text>
            <text xml:space="preserve" x="33" y="784"
                clip-path="url(#clipPath99)" stroke="none">getDate</text>
            <text xml:space="preserve" x="87" y="784"
                clip-path="url(#clipPath100)" stroke="none">() : AbsoluteDate</text>
            <text xml:space="preserve" x="20" y="803"
                clip-path="url(#clipPath101)" stroke="none">+</text>
            <text xml:space="preserve" x="33" y="803"
                clip-path="url(#clipPath102)" stroke="none">getValue</text>
            <text xml:space="preserve" x="91" y="803"
                clip-path="url(#clipPath103)" stroke="none">(spacecraftIndex1 : int, spacecraftIndex2 : int) : double[1..*]</text>
            <line clip-path="url(#clipPath104)" fill="none" x1="19"
                x2="483" y1="730" y2="730" stroke="rgb(110,44,18)"/>
        </g>
        <g fill="rgb(110,44,18)" stroke-width="1.1" font-size="11"
            stroke-linecap="butt" stroke="rgb(110,44,18)">
            <rect x="17" y="690" clip-path="url(#clipPath88)"
                fill="none" width="467" height="119"/>
            <rect x="276" y="858" clip-path="url(#clipPath105)"
                fill="rgb(244,232,212)" width="329" height="101" stroke="none"/>
            <text xml:space="preserve" x="397" y="871"
                clip-path="url(#clipPath106)" stroke="none">&lt;&lt;interface&gt;&gt;</text>
            <text x="403" y="886" clip-path="url(#clipPath107)"
                stroke="none" font-weight="bold" xml:space="preserve">MonitorDuo</text>
            <line clip-path="url(#clipPath108)" fill="none" x1="278"
                x2="603" y1="888" y2="888" stroke-width="0.1"/>
        </g>
        <g stroke-width="0.1" font-size="13" stroke-linecap="butt">
            <text xml:space="preserve" x="279" y="914"
                clip-path="url(#clipPath109)" stroke="none">+</text>
            <text xml:space="preserve" x="292" y="914"
                clip-path="url(#clipPath110)" stroke="none">startMonitoring</text>
            <text xml:space="preserve" x="391" y="914"
                clip-path="url(#clipPath111)" stroke="none">(monitorable : MonitorableDuo)</text>
            <text xml:space="preserve" x="279" y="933"
                clip-path="url(#clipPath112)" stroke="none">+</text>
            <text xml:space="preserve" x="292" y="933"
                clip-path="url(#clipPath113)" stroke="none">valueChanged</text>
            <text xml:space="preserve" x="385" y="933"
                clip-path="url(#clipPath114)" stroke="none">(monitorable : MonitorableDuo)</text>
            <text xml:space="preserve" x="279" y="952"
                clip-path="url(#clipPath115)" stroke="none">+</text>
            <text xml:space="preserve" x="292" y="952"
                clip-path="url(#clipPath116)" stroke="none">stopMonitoring</text>
            <text xml:space="preserve" x="389" y="952"
                clip-path="url(#clipPath117)" stroke="none">()</text>
            <line clip-path="url(#clipPath118)" fill="none" x1="278"
                x2="603" y1="898" y2="898" stroke="rgb(110,44,18)"/>
        </g>
        <g fill="rgb(110,44,18)" stroke-width="1.1" font-size="11"
            stroke-linecap="butt" stroke="rgb(110,44,18)">
            <rect x="276" y="858" clip-path="url(#clipPath105)"
                fill="none" width="328" height="100"/>
            <rect x="434" y="71" clip-path="url(#clipPath119)"
                fill="white" width="38" height="28" stroke="none"/>
            <rect x="433" y="70" clip-path="url(#clipPath119)"
                fill="none" width="39" stroke-dasharray="6.6,3.3"
                height="29" stroke="black"/>
        </g>
        <g stroke-width="1.1" stroke-dasharray="6.6,3.3" font-size="13" stroke-linecap="butt">
            <text xml:space="preserve" x="437" y="89"
                clip-path="url(#clipPath120)" stroke="none">Key</text>
            <rect x="0" y="0" clip-path="url(#clipPath1)" fill="none"
                width="908" stroke-dasharray="none" height="973"/>
            <line clip-path="url(#clipPath121)" fill="none" x1="442"
                x2="545" y1="206" y2="206" stroke-dasharray="none" stroke="rgb(153,15,15)"/>
            <line clip-path="url(#clipPath122)" fill="none" x1="535"
                x2="545" y1="211" y2="206" stroke-dasharray="none" stroke="rgb(153,15,15)"/>
            <line clip-path="url(#clipPath122)" fill="none" x1="545"
                x2="535" y1="206" y2="201" stroke-dasharray="none" stroke="rgb(153,15,15)"/>
            <line clip-path="url(#clipPath123)" fill="none" x1="528"
                x2="528" y1="528" y2="437" stroke-dasharray="none" stroke="rgb(153,15,15)"/>
            <line clip-path="url(#clipPath123)" fill="none" x1="528"
                x2="469" y1="437" y2="437" stroke-dasharray="none" stroke="rgb(153,15,15)"/>
            <text x="538" y="514" clip-path="url(#clipPath124)"
                fill="rgb(153,15,15)" stroke-dasharray="none"
                stroke="none" xml:space="preserve">+monitors</text>
            <text x="511" y="514" clip-path="url(#clipPath125)"
                fill="rgb(153,15,15)" stroke-dasharray="none"
                stroke="none" xml:space="preserve">*</text>
            <polygon fill="white" stroke-dasharray="none"
                clip-path="url(#clipPath126)"
                points=" 469 437 479 432 489 437 479 442" stroke="none"/>
            <polygon fill="none" stroke-dasharray="none"
                clip-path="url(#clipPath126)"
                points=" 469 437 479 432 489 437 479 442" stroke="rgb(153,15,15)"/>
        </g>
        <g font-size="11" stroke-linecap="butt" fill="rgb(110,44,18)"
            stroke-dasharray="8,7" stroke="rgb(110,44,18)" stroke-width="1.1">
            <line clip-path="url(#clipPath127)" fill="none" x1="747"
                x2="747" y1="648" y2="551"/>
            <line clip-path="url(#clipPath127)" fill="none" x1="747"
                x2="603" y1="551" y2="551"/>
            <polygon fill="white" clip-path="url(#clipPath128)"
                points=" 603 551 617 545 617 557" stroke="none"/>
            <polygon fill="none" stroke-dasharray="none"
                clip-path="url(#clipPath128)" points=" 603 551 617 545 617 557"/>
        </g>
        <g fill="rgb(153,15,15)" stroke-width="1.1" font-size="13"
            stroke-linecap="butt" stroke="rgb(153,15,15)">
            <line clip-path="url(#clipPath129)" fill="none" x1="485"
                x2="538" y1="744" y2="744"/>
            <line clip-path="url(#clipPath129)" fill="none" x1="538"
                x2="538" y1="744" y2="858"/>
            <text xml:space="preserve" x="548" y="844"
                clip-path="url(#clipPath130)" stroke="none">+monitors</text>
            <text xml:space="preserve" x="521" y="844"
                clip-path="url(#clipPath131)" stroke="none">*</text>
            <polygon fill="white" clip-path="url(#clipPath132)"
                points=" 485 744 495 739 505 744 495 749" stroke="none"/>
            <polygon fill="none" clip-path="url(#clipPath132)" points=" 485 744 495 739 505 744 495 749"/>
        </g>
        <g font-size="11" stroke-linecap="butt" fill="rgb(110,44,18)"
            stroke-dasharray="8,7" stroke="rgb(110,44,18)" stroke-width="1.1">
            <line clip-path="url(#clipPath133)" fill="none" x1="772"
                x2="772" y1="689" y2="873"/>
            <line clip-path="url(#clipPath133)" fill="none" x1="772"
                x2="605" y1="873" y2="873"/>
            <polygon fill="white" clip-path="url(#clipPath134)"
                points=" 605 873 619 867 619 879" stroke="none"/>
            <polygon fill="none" stroke-dasharray="none"
                clip-path="url(#clipPath134)" points=" 605 873 619 867 619 879"/>
        </g>
    </g>
</svg>
